{
  "header": {
    "keySignatures": [],
    "meta": [],
    "name": "Muted E-Guitar",
    "ppq": 384,
    "tempos": [
      {
        "bpm": 80,
        "ticks": 0
      }
    ],
    "timeSignatures": [
      {
        "ticks": 0,
        "timeSignature": [
          4,
          4
        ],
        "measures": 0
      }
    ]
  },
  "tracks": [
    {
      "channel": 0,
      "controlChanges": {},
      "pitchBends": [],
      "instrument": {
        "family": "guitar",
        "number": 28,
        "name": "electric guitar (muted)"
      },
      "name": "Muted E-Guitar",
      "notes": [
        {
          "duration": 0.1875,
          "durationTicks": 96,
          "midi": 63,
          "name": "D#4",
          "ticks": 0,
          "time": 0,
          "velocity": 0.3937007874015748
        },
        {
          "duration": 0.1875,
          "durationTicks": 96,
          "midi": 51,
          "name": "D#3",
          "ticks": 0,
          "time": 0,
          "velocity": 0.3937007874015748
        },
        {
          "duration": 0.1875,
          "durationTicks": 96,
          "midi": 63,
          "name": "D#4",
          "ticks": 192,
          "time": 0.375,
          "velocity": 0.3937007874015748
        },
        {
          "duration": 0.1875,
          "durationTicks": 96,
          "midi": 51,
          "name": "D#3",
          "ticks": 192,
          "time": 0.375,
          "velocity": 0.3937007874015748
        },
        {
          "duration": 0.1875,
          "durationTicks": 96,
          "midi": 58,
          "name": "A#3",
          "ticks": 288,
          "time": 0.5625,
          "velocity": 0.3937007874015748
        },
        {
          "duration": 0.1875,
          "durationTicks": 96,
          "midi": 46,
          "name": "A#2",
          "ticks": 288,
          "time": 0.5625,
          "velocity": 0.3937007874015748
        },
        {
          "duration": 0.1875,
          "durationTicks": 96,
          "midi": 59,
          "name": "B3",
          "ticks": 480,
          "time": 0.9375,
          "velocity": 0.3937007874015748
        },
        {
          "duration": 0.1875,
          "durationTicks": 96,
          "midi": 47,
          "name": "B2",
          "ticks": 480,
          "time": 0.9375,
          "velocity": 0.3937007874015748
        },
        {
          "duration": 0.1875,
          "durationTicks": 96,
          "midi": 58,
          "name": "A#3",
          "ticks": 576,
          "time": 1.125,
          "velocity": 0.3937007874015748
        },
        {
          "duration": 0.1875,
          "durationTicks": 96,
          "midi": 46,
          "name": "A#2",
          "ticks": 576,
          "time": 1.125,
          "velocity": 0.3937007874015748
        },
        {
          "duration": 0.1875,
          "durationTicks": 96,
          "midi": 58,
          "name": "A#3",
          "ticks": 768,
          "time": 1.5,
          "velocity": 0.3937007874015748
        },
        {
          "duration": 0.1875,
          "durationTicks": 96,
          "midi": 46,
          "name": "A#2",
          "ticks": 768,
          "time": 1.5,
          "velocity": 0.3937007874015748
        },
        {
          "duration": 0.1875,
          "durationTicks": 96,
          "midi": 58,
          "name": "A#3",
          "ticks": 864,
          "time": 1.6875,
          "velocity": 0.3937007874015748
        },
        {
          "duration": 0.1875,
          "durationTicks": 96,
          "midi": 46,
          "name": "A#2",
          "ticks": 864,
          "time": 1.6875,
          "velocity": 0.3937007874015748
        },
        {
          "duration": 0.1875,
          "durationTicks": 96,
          "midi": 54,
          "name": "F#3",
          "ticks": 960,
          "time": 1.875,
          "velocity": 0.3937007874015748
        },
        {
          "duration": 0.1875,
          "durationTicks": 96,
          "midi": 42,
          "name": "F#2",
          "ticks": 960,
          "time": 1.875,
          "velocity": 0.3937007874015748
        },
        {
          "duration": 0.1875,
          "durationTicks": 96,
          "midi": 63,
          "name": "D#4",
          "ticks": 1152,
          "time": 2.25,
          "velocity": 0.3937007874015748
        },
        {
          "duration": 0.1875,
          "durationTicks": 96,
          "midi": 51,
          "name": "D#3",
          "ticks": 1152,
          "time": 2.25,
          "velocity": 0.3937007874015748
        },
        {
          "duration": 0.1875,
          "durationTicks": 96,
          "midi": 63,
          "name": "D#4",
          "ticks": 1344,
          "time": 2.625,
          "velocity": 0.3937007874015748
        },
        {
          "duration": 0.1875,
          "durationTicks": 96,
          "midi": 51,
          "name": "D#3",
          "ticks": 1344,
          "time": 2.625,
          "velocity": 0.3937007874015748
        },
        {
          "duration": 0.1875,
          "durationTicks": 96,
          "midi": 58,
          "name": "A#3",
          "ticks": 1440,
          "time": 2.8125,
          "velocity": 0.3937007874015748
        },
        {
          "duration": 0.1875,
          "durationTicks": 96,
          "midi": 46,
          "name": "A#2",
          "ticks": 1440,
          "time": 2.8125,
          "velocity": 0.3937007874015748
        },
        {
          "duration": 0.1875,
          "durationTicks": 96,
          "midi": 59,
          "name": "B3",
          "ticks": 1632,
          "time": 3.1875,
          "velocity": 0.3937007874015748
        },
        {
          "duration": 0.1875,
          "durationTicks": 96,
          "midi": 47,
          "name": "B2",
          "ticks": 1632,
          "time": 3.1875,
          "velocity": 0.3937007874015748
        },
        {
          "duration": 0.1875,
          "durationTicks": 96,
          "midi": 58,
          "name": "A#3",
          "ticks": 1728,
          "time": 3.375,
          "velocity": 0.3937007874015748
        },
        {
          "duration": 0.1875,
          "durationTicks": 96,
          "midi": 46,
          "name": "A#2",
          "ticks": 1728,
          "time": 3.375,
          "velocity": 0.3937007874015748
        },
        {
          "duration": 0.1875,
          "durationTicks": 96,
          "midi": 66,
          "name": "F#4",
          "ticks": 1920,
          "time": 3.75,
          "velocity": 0.3937007874015748
        },
        {
          "duration": 0.1875,
          "durationTicks": 96,
          "midi": 54,
          "name": "F#3",
          "ticks": 1920,
          "time": 3.75,
          "velocity": 0.3937007874015748
        },
        {
          "duration": 0.1875,
          "durationTicks": 96,
          "midi": 61,
          "name": "C#4",
          "ticks": 2016,
          "time": 3.9375,
          "velocity": 0.3937007874015748
        },
        {
          "duration": 0.1875,
          "durationTicks": 96,
          "midi": 49,
          "name": "C#3",
          "ticks": 2016,
          "time": 3.9375,
          "velocity": 0.3937007874015748
        },
        {
          "duration": 0.1875,
          "durationTicks": 96,
          "midi": 61,
          "name": "C#4",
          "ticks": 2208,
          "time": 4.3125,
          "velocity": 0.3937007874015748
        },
        {
          "duration": 0.1875,
          "durationTicks": 96,
          "midi": 49,
          "name": "C#3",
          "ticks": 2208,
          "time": 4.3125,
          "velocity": 0.3937007874015748
        },
        {
          "duration": 0.1875,
          "durationTicks": 96,
          "midi": 63,
          "name": "D#4",
          "ticks": 2304,
          "time": 4.5,
          "velocity": 0.3937007874015748
        },
        {
          "duration": 0.1875,
          "durationTicks": 96,
          "midi": 51,
          "name": "D#3",
          "ticks": 2304,
          "time": 4.5,
          "velocity": 0.3937007874015748
        },
        {
          "duration": 0.1875,
          "durationTicks": 96,
          "midi": 63,
          "name": "D#4",
          "ticks": 2496,
          "time": 4.875,
          "velocity": 0.3937007874015748
        },
        {
          "duration": 0.1875,
          "durationTicks": 96,
          "midi": 51,
          "name": "D#3",
          "ticks": 2496,
          "time": 4.875,
          "velocity": 0.3937007874015748
        },
        {
          "duration": 0.1875,
          "durationTicks": 96,
          "midi": 58,
          "name": "A#3",
          "ticks": 2592,
          "time": 5.0625,
          "velocity": 0.3937007874015748
        },
        {
          "duration": 0.1875,
          "durationTicks": 96,
          "midi": 46,
          "name": "A#2",
          "ticks": 2592,
          "time": 5.0625,
          "velocity": 0.3937007874015748
        },
        {
          "duration": 0.1875,
          "durationTicks": 96,
          "midi": 59,
          "name": "B3",
          "ticks": 2784,
          "time": 5.4375,
          "velocity": 0.3937007874015748
        },
        {
          "duration": 0.1875,
          "durationTicks": 96,
          "midi": 47,
          "name": "B2",
          "ticks": 2784,
          "time": 5.4375,
          "velocity": 0.3937007874015748
        },
        {
          "duration": 0.1875,
          "durationTicks": 96,
          "midi": 58,
          "name": "A#3",
          "ticks": 2880,
          "time": 5.625,
          "velocity": 0.3937007874015748
        },
        {
          "duration": 0.1875,
          "durationTicks": 96,
          "midi": 46,
          "name": "A#2",
          "ticks": 2880,
          "time": 5.625,
          "velocity": 0.3937007874015748
        },
        {
          "duration": 0.1875,
          "durationTicks": 96,
          "midi": 58,
          "name": "A#3",
          "ticks": 3072,
          "time": 6,
          "velocity": 0.3937007874015748
        },
        {
          "duration": 0.1875,
          "durationTicks": 96,
          "midi": 46,
          "name": "A#2",
          "ticks": 3072,
          "time": 6,
          "velocity": 0.3937007874015748
        },
        {
          "duration": 0.1875,
          "durationTicks": 96,
          "midi": 58,
          "name": "A#3",
          "ticks": 3168,
          "time": 6.1875,
          "velocity": 0.3937007874015748
        },
        {
          "duration": 0.1875,
          "durationTicks": 96,
          "midi": 46,
          "name": "A#2",
          "ticks": 3168,
          "time": 6.1875,
          "velocity": 0.3937007874015748
        },
        {
          "duration": 0.1875,
          "durationTicks": 96,
          "midi": 54,
          "name": "F#3",
          "ticks": 3264,
          "time": 6.375,
          "velocity": 0.3937007874015748
        },
        {
          "duration": 0.1875,
          "durationTicks": 96,
          "midi": 42,
          "name": "F#2",
          "ticks": 3264,
          "time": 6.375,
          "velocity": 0.3937007874015748
        },
        {
          "duration": 0.1875,
          "durationTicks": 96,
          "midi": 63,
          "name": "D#4",
          "ticks": 3456,
          "time": 6.75,
          "velocity": 0.3937007874015748
        },
        {
          "duration": 0.1875,
          "durationTicks": 96,
          "midi": 51,
          "name": "D#3",
          "ticks": 3456,
          "time": 6.75,
          "velocity": 0.3937007874015748
        },
        {
          "duration": 0.1875,
          "durationTicks": 96,
          "midi": 63,
          "name": "D#4",
          "ticks": 3648,
          "time": 7.125,
          "velocity": 0.3937007874015748
        },
        {
          "duration": 0.1875,
          "durationTicks": 96,
          "midi": 51,
          "name": "D#3",
          "ticks": 3648,
          "time": 7.125,
          "velocity": 0.3937007874015748
        },
        {
          "duration": 0.1875,
          "durationTicks": 96,
          "midi": 58,
          "name": "A#3",
          "ticks": 3744,
          "time": 7.3125,
          "velocity": 0.3937007874015748
        },
        {
          "duration": 0.1875,
          "durationTicks": 96,
          "midi": 46,
          "name": "A#2",
          "ticks": 3744,
          "time": 7.3125,
          "velocity": 0.3937007874015748
        },
        {
          "duration": 0.1875,
          "durationTicks": 96,
          "midi": 59,
          "name": "B3",
          "ticks": 3936,
          "time": 7.6875,
          "velocity": 0.3937007874015748
        },
        {
          "duration": 0.1875,
          "durationTicks": 96,
          "midi": 47,
          "name": "B2",
          "ticks": 3936,
          "time": 7.6875,
          "velocity": 0.3937007874015748
        },
        {
          "duration": 0.1875,
          "durationTicks": 96,
          "midi": 58,
          "name": "A#3",
          "ticks": 4032,
          "time": 7.875,
          "velocity": 0.3937007874015748
        },
        {
          "duration": 0.1875,
          "durationTicks": 96,
          "midi": 46,
          "name": "A#2",
          "ticks": 4032,
          "time": 7.875,
          "velocity": 0.3937007874015748
        },
        {
          "duration": 0.1875,
          "durationTicks": 96,
          "midi": 66,
          "name": "F#4",
          "ticks": 4224,
          "time": 8.25,
          "velocity": 0.3937007874015748
        },
        {
          "duration": 0.1875,
          "durationTicks": 96,
          "midi": 54,
          "name": "F#3",
          "ticks": 4224,
          "time": 8.25,
          "velocity": 0.3937007874015748
        },
        {
          "duration": 0.1875,
          "durationTicks": 96,
          "midi": 61,
          "name": "C#4",
          "ticks": 4320,
          "time": 8.4375,
          "velocity": 0.3937007874015748
        },
        {
          "duration": 0.1875,
          "durationTicks": 96,
          "midi": 49,
          "name": "C#3",
          "ticks": 4320,
          "time": 8.4375,
          "velocity": 0.3937007874015748
        },
        {
          "duration": 0.1875,
          "durationTicks": 96,
          "midi": 61,
          "name": "C#4",
          "ticks": 4512,
          "time": 8.8125,
          "velocity": 0.3937007874015748
        },
        {
          "duration": 0.1875,
          "durationTicks": 96,
          "midi": 49,
          "name": "C#3",
          "ticks": 4512,
          "time": 8.8125,
          "velocity": 0.3937007874015748
        },
        {
          "duration": 0.1875,
          "durationTicks": 96,
          "midi": 63,
          "name": "D#4",
          "ticks": 4608,
          "time": 9,
          "velocity": 0.3937007874015748
        },
        {
          "duration": 0.1875,
          "durationTicks": 96,
          "midi": 51,
          "name": "D#3",
          "ticks": 4608,
          "time": 9,
          "velocity": 0.3937007874015748
        },
        {
          "duration": 0.1875,
          "durationTicks": 96,
          "midi": 63,
          "name": "D#4",
          "ticks": 4800,
          "time": 9.375,
          "velocity": 0.3937007874015748
        },
        {
          "duration": 0.1875,
          "durationTicks": 96,
          "midi": 51,
          "name": "D#3",
          "ticks": 4800,
          "time": 9.375,
          "velocity": 0.3937007874015748
        },
        {
          "duration": 0.1875,
          "durationTicks": 96,
          "midi": 58,
          "name": "A#3",
          "ticks": 4896,
          "time": 9.5625,
          "velocity": 0.3937007874015748
        },
        {
          "duration": 0.1875,
          "durationTicks": 96,
          "midi": 46,
          "name": "A#2",
          "ticks": 4896,
          "time": 9.5625,
          "velocity": 0.3937007874015748
        },
        {
          "duration": 0.1875,
          "durationTicks": 96,
          "midi": 59,
          "name": "B3",
          "ticks": 5088,
          "time": 9.9375,
          "velocity": 0.3937007874015748
        },
        {
          "duration": 0.1875,
          "durationTicks": 96,
          "midi": 47,
          "name": "B2",
          "ticks": 5088,
          "time": 9.9375,
          "velocity": 0.3937007874015748
        },
        {
          "duration": 0.1875,
          "durationTicks": 96,
          "midi": 58,
          "name": "A#3",
          "ticks": 5184,
          "time": 10.125,
          "velocity": 0.3937007874015748
        },
        {
          "duration": 0.1875,
          "durationTicks": 96,
          "midi": 46,
          "name": "A#2",
          "ticks": 5184,
          "time": 10.125,
          "velocity": 0.3937007874015748
        },
        {
          "duration": 0.1875,
          "durationTicks": 96,
          "midi": 58,
          "name": "A#3",
          "ticks": 5376,
          "time": 10.5,
          "velocity": 0.3937007874015748
        },
        {
          "duration": 0.1875,
          "durationTicks": 96,
          "midi": 46,
          "name": "A#2",
          "ticks": 5376,
          "time": 10.5,
          "velocity": 0.3937007874015748
        },
        {
          "duration": 0.1875,
          "durationTicks": 96,
          "midi": 58,
          "name": "A#3",
          "ticks": 5472,
          "time": 10.6875,
          "velocity": 0.3937007874015748
        },
        {
          "duration": 0.1875,
          "durationTicks": 96,
          "midi": 46,
          "name": "A#2",
          "ticks": 5472,
          "time": 10.6875,
          "velocity": 0.3937007874015748
        },
        {
          "duration": 0.1875,
          "durationTicks": 96,
          "midi": 54,
          "name": "F#3",
          "ticks": 5568,
          "time": 10.875,
          "velocity": 0.3937007874015748
        },
        {
          "duration": 0.1875,
          "durationTicks": 96,
          "midi": 42,
          "name": "F#2",
          "ticks": 5568,
          "time": 10.875,
          "velocity": 0.3937007874015748
        },
        {
          "duration": 0.1875,
          "durationTicks": 96,
          "midi": 63,
          "name": "D#4",
          "ticks": 5760,
          "time": 11.25,
          "velocity": 0.3937007874015748
        },
        {
          "duration": 0.1875,
          "durationTicks": 96,
          "midi": 51,
          "name": "D#3",
          "ticks": 5760,
          "time": 11.25,
          "velocity": 0.3937007874015748
        },
        {
          "duration": 0.1875,
          "durationTicks": 96,
          "midi": 63,
          "name": "D#4",
          "ticks": 5952,
          "time": 11.625,
          "velocity": 0.3937007874015748
        },
        {
          "duration": 0.1875,
          "durationTicks": 96,
          "midi": 51,
          "name": "D#3",
          "ticks": 5952,
          "time": 11.625,
          "velocity": 0.3937007874015748
        },
        {
          "duration": 0.1875,
          "durationTicks": 96,
          "midi": 58,
          "name": "A#3",
          "ticks": 6048,
          "time": 11.8125,
          "velocity": 0.3937007874015748
        },
        {
          "duration": 0.1875,
          "durationTicks": 96,
          "midi": 46,
          "name": "A#2",
          "ticks": 6048,
          "time": 11.8125,
          "velocity": 0.3937007874015748
        },
        {
          "duration": 0.1875,
          "durationTicks": 96,
          "midi": 59,
          "name": "B3",
          "ticks": 6240,
          "time": 12.1875,
          "velocity": 0.3937007874015748
        },
        {
          "duration": 0.1875,
          "durationTicks": 96,
          "midi": 47,
          "name": "B2",
          "ticks": 6240,
          "time": 12.1875,
          "velocity": 0.3937007874015748
        },
        {
          "duration": 0.1875,
          "durationTicks": 96,
          "midi": 58,
          "name": "A#3",
          "ticks": 6336,
          "time": 12.375,
          "velocity": 0.3937007874015748
        },
        {
          "duration": 0.1875,
          "durationTicks": 96,
          "midi": 46,
          "name": "A#2",
          "ticks": 6336,
          "time": 12.375,
          "velocity": 0.3937007874015748
        },
        {
          "duration": 0.1875,
          "durationTicks": 96,
          "midi": 66,
          "name": "F#4",
          "ticks": 6528,
          "time": 12.75,
          "velocity": 0.3937007874015748
        },
        {
          "duration": 0.1875,
          "durationTicks": 96,
          "midi": 54,
          "name": "F#3",
          "ticks": 6528,
          "time": 12.75,
          "velocity": 0.3937007874015748
        },
        {
          "duration": 0.1875,
          "durationTicks": 96,
          "midi": 61,
          "name": "C#4",
          "ticks": 6624,
          "time": 12.9375,
          "velocity": 0.3937007874015748
        },
        {
          "duration": 0.1875,
          "durationTicks": 96,
          "midi": 49,
          "name": "C#3",
          "ticks": 6624,
          "time": 12.9375,
          "velocity": 0.3937007874015748
        },
        {
          "duration": 0.1875,
          "durationTicks": 96,
          "midi": 61,
          "name": "C#4",
          "ticks": 6816,
          "time": 13.3125,
          "velocity": 0.3937007874015748
        },
        {
          "duration": 0.1875,
          "durationTicks": 96,
          "midi": 49,
          "name": "C#3",
          "ticks": 6816,
          "time": 13.3125,
          "velocity": 0.3937007874015748
        },
        {
          "duration": 0.1875,
          "durationTicks": 96,
          "midi": 63,
          "name": "D#4",
          "ticks": 6912,
          "time": 13.5,
          "velocity": 0.3937007874015748
        },
        {
          "duration": 0.1875,
          "durationTicks": 96,
          "midi": 51,
          "name": "D#3",
          "ticks": 6912,
          "time": 13.5,
          "velocity": 0.3937007874015748
        },
        {
          "duration": 0.1875,
          "durationTicks": 96,
          "midi": 63,
          "name": "D#4",
          "ticks": 7104,
          "time": 13.875,
          "velocity": 0.3937007874015748
        },
        {
          "duration": 0.1875,
          "durationTicks": 96,
          "midi": 51,
          "name": "D#3",
          "ticks": 7104,
          "time": 13.875,
          "velocity": 0.3937007874015748
        },
        {
          "duration": 0.1875,
          "durationTicks": 96,
          "midi": 58,
          "name": "A#3",
          "ticks": 7200,
          "time": 14.0625,
          "velocity": 0.3937007874015748
        },
        {
          "duration": 0.1875,
          "durationTicks": 96,
          "midi": 46,
          "name": "A#2",
          "ticks": 7200,
          "time": 14.0625,
          "velocity": 0.3937007874015748
        },
        {
          "duration": 0.1875,
          "durationTicks": 96,
          "midi": 59,
          "name": "B3",
          "ticks": 7392,
          "time": 14.4375,
          "velocity": 0.3937007874015748
        },
        {
          "duration": 0.1875,
          "durationTicks": 96,
          "midi": 47,
          "name": "B2",
          "ticks": 7392,
          "time": 14.4375,
          "velocity": 0.3937007874015748
        },
        {
          "duration": 0.1875,
          "durationTicks": 96,
          "midi": 58,
          "name": "A#3",
          "ticks": 7488,
          "time": 14.625,
          "velocity": 0.3937007874015748
        },
        {
          "duration": 0.1875,
          "durationTicks": 96,
          "midi": 46,
          "name": "A#2",
          "ticks": 7488,
          "time": 14.625,
          "velocity": 0.3937007874015748
        },
        {
          "duration": 0.1875,
          "durationTicks": 96,
          "midi": 58,
          "name": "A#3",
          "ticks": 7680,
          "time": 15,
          "velocity": 0.3937007874015748
        },
        {
          "duration": 0.1875,
          "durationTicks": 96,
          "midi": 46,
          "name": "A#2",
          "ticks": 7680,
          "time": 15,
          "velocity": 0.3937007874015748
        },
        {
          "duration": 0.1875,
          "durationTicks": 96,
          "midi": 58,
          "name": "A#3",
          "ticks": 7776,
          "time": 15.1875,
          "velocity": 0.3937007874015748
        },
        {
          "duration": 0.1875,
          "durationTicks": 96,
          "midi": 46,
          "name": "A#2",
          "ticks": 7776,
          "time": 15.1875,
          "velocity": 0.3937007874015748
        },
        {
          "duration": 0.1875,
          "durationTicks": 96,
          "midi": 54,
          "name": "F#3",
          "ticks": 7872,
          "time": 15.375,
          "velocity": 0.3937007874015748
        },
        {
          "duration": 0.1875,
          "durationTicks": 96,
          "midi": 42,
          "name": "F#2",
          "ticks": 7872,
          "time": 15.375,
          "velocity": 0.3937007874015748
        },
        {
          "duration": 0.1875,
          "durationTicks": 96,
          "midi": 63,
          "name": "D#4",
          "ticks": 8064,
          "time": 15.75,
          "velocity": 0.3937007874015748
        },
        {
          "duration": 0.1875,
          "durationTicks": 96,
          "midi": 51,
          "name": "D#3",
          "ticks": 8064,
          "time": 15.75,
          "velocity": 0.3937007874015748
        },
        {
          "duration": 0.1875,
          "durationTicks": 96,
          "midi": 63,
          "name": "D#4",
          "ticks": 8256,
          "time": 16.125,
          "velocity": 0.3937007874015748
        },
        {
          "duration": 0.1875,
          "durationTicks": 96,
          "midi": 51,
          "name": "D#3",
          "ticks": 8256,
          "time": 16.125,
          "velocity": 0.3937007874015748
        },
        {
          "duration": 0.1875,
          "durationTicks": 96,
          "midi": 58,
          "name": "A#3",
          "ticks": 8352,
          "time": 16.3125,
          "velocity": 0.3937007874015748
        },
        {
          "duration": 0.1875,
          "durationTicks": 96,
          "midi": 46,
          "name": "A#2",
          "ticks": 8352,
          "time": 16.3125,
          "velocity": 0.3937007874015748
        },
        {
          "duration": 0.1875,
          "durationTicks": 96,
          "midi": 59,
          "name": "B3",
          "ticks": 8544,
          "time": 16.6875,
          "velocity": 0.3937007874015748
        },
        {
          "duration": 0.1875,
          "durationTicks": 96,
          "midi": 47,
          "name": "B2",
          "ticks": 8544,
          "time": 16.6875,
          "velocity": 0.3937007874015748
        },
        {
          "duration": 0.1875,
          "durationTicks": 96,
          "midi": 58,
          "name": "A#3",
          "ticks": 8640,
          "time": 16.875,
          "velocity": 0.3937007874015748
        },
        {
          "duration": 0.1875,
          "durationTicks": 96,
          "midi": 46,
          "name": "A#2",
          "ticks": 8640,
          "time": 16.875,
          "velocity": 0.3937007874015748
        },
        {
          "duration": 0.1875,
          "durationTicks": 96,
          "midi": 66,
          "name": "F#4",
          "ticks": 8832,
          "time": 17.25,
          "velocity": 0.3937007874015748
        },
        {
          "duration": 0.1875,
          "durationTicks": 96,
          "midi": 54,
          "name": "F#3",
          "ticks": 8832,
          "time": 17.25,
          "velocity": 0.3937007874015748
        },
        {
          "duration": 0.1875,
          "durationTicks": 96,
          "midi": 61,
          "name": "C#4",
          "ticks": 8928,
          "time": 17.4375,
          "velocity": 0.3937007874015748
        },
        {
          "duration": 0.1875,
          "durationTicks": 96,
          "midi": 49,
          "name": "C#3",
          "ticks": 8928,
          "time": 17.4375,
          "velocity": 0.3937007874015748
        },
        {
          "duration": 0.1875,
          "durationTicks": 96,
          "midi": 61,
          "name": "C#4",
          "ticks": 9120,
          "time": 17.8125,
          "velocity": 0.3937007874015748
        },
        {
          "duration": 0.1875,
          "durationTicks": 96,
          "midi": 49,
          "name": "C#3",
          "ticks": 9120,
          "time": 17.8125,
          "velocity": 0.3937007874015748
        },
        {
          "duration": 0.1875,
          "durationTicks": 96,
          "midi": 56,
          "name": "G#3",
          "ticks": 9696,
          "time": 18.9375,
          "velocity": 0.3937007874015748
        },
        {
          "duration": 0.1875,
          "durationTicks": 96,
          "midi": 44,
          "name": "G#2",
          "ticks": 9696,
          "time": 18.9375,
          "velocity": 0.3937007874015748
        },
        {
          "duration": 0.1875,
          "durationTicks": 96,
          "midi": 57,
          "name": "A3",
          "ticks": 9888,
          "time": 19.3125,
          "velocity": 0.3937007874015748
        },
        {
          "duration": 0.1875,
          "durationTicks": 96,
          "midi": 45,
          "name": "A2",
          "ticks": 9888,
          "time": 19.3125,
          "velocity": 0.3937007874015748
        },
        {
          "duration": 0.1875,
          "durationTicks": 96,
          "midi": 56,
          "name": "G#3",
          "ticks": 9984,
          "time": 19.5,
          "velocity": 0.3937007874015748
        },
        {
          "duration": 0.1875,
          "durationTicks": 96,
          "midi": 44,
          "name": "G#2",
          "ticks": 9984,
          "time": 19.5,
          "velocity": 0.3937007874015748
        },
        {
          "duration": 0.1875,
          "durationTicks": 96,
          "midi": 56,
          "name": "G#3",
          "ticks": 10176,
          "time": 19.875,
          "velocity": 0.3937007874015748
        },
        {
          "duration": 0.1875,
          "durationTicks": 96,
          "midi": 44,
          "name": "G#2",
          "ticks": 10176,
          "time": 19.875,
          "velocity": 0.3937007874015748
        },
        {
          "duration": 0.1875,
          "durationTicks": 96,
          "midi": 56,
          "name": "G#3",
          "ticks": 10272,
          "time": 20.0625,
          "velocity": 0.3937007874015748
        },
        {
          "duration": 0.1875,
          "durationTicks": 96,
          "midi": 44,
          "name": "G#2",
          "ticks": 10272,
          "time": 20.0625,
          "velocity": 0.3937007874015748
        },
        {
          "duration": 0.1875,
          "durationTicks": 96,
          "midi": 52,
          "name": "E3",
          "ticks": 10464,
          "time": 20.4375,
          "velocity": 0.3937007874015748
        },
        {
          "duration": 0.1875,
          "durationTicks": 96,
          "midi": 40,
          "name": "E2",
          "ticks": 10464,
          "time": 20.4375,
          "velocity": 0.3937007874015748
        },
        {
          "duration": 0.1875,
          "durationTicks": 96,
          "midi": 62,
          "name": "D4",
          "ticks": 10560,
          "time": 20.625,
          "velocity": 0.3937007874015748
        },
        {
          "duration": 0.1875,
          "durationTicks": 96,
          "midi": 50,
          "name": "D3",
          "ticks": 10560,
          "time": 20.625,
          "velocity": 0.3937007874015748
        },
        {
          "duration": 0.1875,
          "durationTicks": 96,
          "midi": 60,
          "name": "C4",
          "ticks": 10656,
          "time": 20.8125,
          "velocity": 0.3937007874015748
        },
        {
          "duration": 0.1875,
          "durationTicks": 96,
          "midi": 48,
          "name": "C3",
          "ticks": 10656,
          "time": 20.8125,
          "velocity": 0.3937007874015748
        },
        {
          "duration": 0.1875,
          "durationTicks": 96,
          "midi": 58,
          "name": "A#3",
          "ticks": 10752,
          "time": 21,
          "velocity": 0.3937007874015748
        },
        {
          "duration": 0.1875,
          "durationTicks": 96,
          "midi": 46,
          "name": "A#2",
          "ticks": 10752,
          "time": 21,
          "velocity": 0.3937007874015748
        },
        {
          "duration": 0.1875,
          "durationTicks": 96,
          "midi": 57,
          "name": "A3",
          "ticks": 10848,
          "time": 21.1875,
          "velocity": 0.3937007874015748
        },
        {
          "duration": 0.1875,
          "durationTicks": 96,
          "midi": 45,
          "name": "A2",
          "ticks": 10848,
          "time": 21.1875,
          "velocity": 0.3937007874015748
        },
        {
          "duration": 0.1875,
          "durationTicks": 96,
          "midi": 58,
          "name": "A#3",
          "ticks": 11040,
          "time": 21.5625,
          "velocity": 0.3937007874015748
        },
        {
          "duration": 0.1875,
          "durationTicks": 96,
          "midi": 46,
          "name": "A#2",
          "ticks": 11040,
          "time": 21.5625,
          "velocity": 0.3937007874015748
        },
        {
          "duration": 0.1875,
          "durationTicks": 96,
          "midi": 57,
          "name": "A3",
          "ticks": 11136,
          "time": 21.75,
          "velocity": 0.3937007874015748
        },
        {
          "duration": 0.1875,
          "durationTicks": 96,
          "midi": 45,
          "name": "A2",
          "ticks": 11136,
          "time": 21.75,
          "velocity": 0.3937007874015748
        },
        {
          "duration": 0.1875,
          "durationTicks": 96,
          "midi": 60,
          "name": "C4",
          "ticks": 11232,
          "time": 21.9375,
          "velocity": 0.3937007874015748
        },
        {
          "duration": 0.1875,
          "durationTicks": 96,
          "midi": 48,
          "name": "C3",
          "ticks": 11232,
          "time": 21.9375,
          "velocity": 0.3937007874015748
        },
        {
          "duration": 0.1875,
          "durationTicks": 96,
          "midi": 65,
          "name": "F4",
          "ticks": 11328,
          "time": 22.125,
          "velocity": 0.3937007874015748
        },
        {
          "duration": 0.1875,
          "durationTicks": 96,
          "midi": 53,
          "name": "F3",
          "ticks": 11328,
          "time": 22.125,
          "velocity": 0.3937007874015748
        },
        {
          "duration": 0.1875,
          "durationTicks": 96,
          "midi": 60,
          "name": "C4",
          "ticks": 11424,
          "time": 22.3125,
          "velocity": 0.3937007874015748
        },
        {
          "duration": 0.1875,
          "durationTicks": 96,
          "midi": 48,
          "name": "C3",
          "ticks": 11424,
          "time": 22.3125,
          "velocity": 0.3937007874015748
        },
        {
          "duration": 0.1875,
          "durationTicks": 96,
          "midi": 60,
          "name": "C4",
          "ticks": 11616,
          "time": 22.6875,
          "velocity": 0.3937007874015748
        },
        {
          "duration": 0.1875,
          "durationTicks": 96,
          "midi": 48,
          "name": "C3",
          "ticks": 11616,
          "time": 22.6875,
          "velocity": 0.3937007874015748
        },
        {
          "duration": 0.1875,
          "durationTicks": 96,
          "midi": 62,
          "name": "D4",
          "ticks": 11712,
          "time": 22.875,
          "velocity": 0.3937007874015748
        },
        {
          "duration": 0.1875,
          "durationTicks": 96,
          "midi": 50,
          "name": "D3",
          "ticks": 11712,
          "time": 22.875,
          "velocity": 0.3937007874015748
        },
        {
          "duration": 0.1875,
          "durationTicks": 96,
          "midi": 62,
          "name": "D4",
          "ticks": 11904,
          "time": 23.25,
          "velocity": 0.3937007874015748
        },
        {
          "duration": 0.1875,
          "durationTicks": 96,
          "midi": 50,
          "name": "D3",
          "ticks": 11904,
          "time": 23.25,
          "velocity": 0.3937007874015748
        },
        {
          "duration": 0.1875,
          "durationTicks": 96,
          "midi": 57,
          "name": "A3",
          "ticks": 12000,
          "time": 23.4375,
          "velocity": 0.3937007874015748
        },
        {
          "duration": 0.1875,
          "durationTicks": 96,
          "midi": 45,
          "name": "A2",
          "ticks": 12000,
          "time": 23.4375,
          "velocity": 0.3937007874015748
        },
        {
          "duration": 0.1875,
          "durationTicks": 96,
          "midi": 58,
          "name": "A#3",
          "ticks": 12192,
          "time": 23.8125,
          "velocity": 0.3937007874015748
        },
        {
          "duration": 0.1875,
          "durationTicks": 96,
          "midi": 46,
          "name": "A#2",
          "ticks": 12192,
          "time": 23.8125,
          "velocity": 0.3937007874015748
        },
        {
          "duration": 0.1875,
          "durationTicks": 96,
          "midi": 57,
          "name": "A3",
          "ticks": 12288,
          "time": 24,
          "velocity": 0.3937007874015748
        },
        {
          "duration": 0.1875,
          "durationTicks": 96,
          "midi": 45,
          "name": "A2",
          "ticks": 12288,
          "time": 24,
          "velocity": 0.3937007874015748
        },
        {
          "duration": 0.1875,
          "durationTicks": 96,
          "midi": 57,
          "name": "A3",
          "ticks": 12480,
          "time": 24.375,
          "velocity": 0.3937007874015748
        },
        {
          "duration": 0.1875,
          "durationTicks": 96,
          "midi": 45,
          "name": "A2",
          "ticks": 12480,
          "time": 24.375,
          "velocity": 0.3937007874015748
        },
        {
          "duration": 0.1875,
          "durationTicks": 96,
          "midi": 57,
          "name": "A3",
          "ticks": 12576,
          "time": 24.5625,
          "velocity": 0.3937007874015748
        },
        {
          "duration": 0.1875,
          "durationTicks": 96,
          "midi": 45,
          "name": "A2",
          "ticks": 12576,
          "time": 24.5625,
          "velocity": 0.3937007874015748
        },
        {
          "duration": 0.1875,
          "durationTicks": 96,
          "midi": 53,
          "name": "F3",
          "ticks": 12768,
          "time": 24.9375,
          "velocity": 0.3937007874015748
        },
        {
          "duration": 0.1875,
          "durationTicks": 96,
          "midi": 41,
          "name": "F2",
          "ticks": 12768,
          "time": 24.9375,
          "velocity": 0.3937007874015748
        },
        {
          "duration": 0.1875,
          "durationTicks": 96,
          "midi": 62,
          "name": "D4",
          "ticks": 12864,
          "time": 25.125,
          "velocity": 0.3937007874015748
        },
        {
          "duration": 0.1875,
          "durationTicks": 96,
          "midi": 50,
          "name": "D3",
          "ticks": 12864,
          "time": 25.125,
          "velocity": 0.3937007874015748
        },
        {
          "duration": 0.1875,
          "durationTicks": 96,
          "midi": 60,
          "name": "C4",
          "ticks": 12960,
          "time": 25.3125,
          "velocity": 0.3937007874015748
        },
        {
          "duration": 0.1875,
          "durationTicks": 96,
          "midi": 48,
          "name": "C3",
          "ticks": 12960,
          "time": 25.3125,
          "velocity": 0.3937007874015748
        },
        {
          "duration": 0.1875,
          "durationTicks": 96,
          "midi": 58,
          "name": "A#3",
          "ticks": 13056,
          "time": 25.5,
          "velocity": 0.3937007874015748
        },
        {
          "duration": 0.1875,
          "durationTicks": 96,
          "midi": 46,
          "name": "A#2",
          "ticks": 13056,
          "time": 25.5,
          "velocity": 0.3937007874015748
        },
        {
          "duration": 0.1875,
          "durationTicks": 96,
          "midi": 57,
          "name": "A3",
          "ticks": 13152,
          "time": 25.6875,
          "velocity": 0.3937007874015748
        },
        {
          "duration": 0.1875,
          "durationTicks": 96,
          "midi": 45,
          "name": "A2",
          "ticks": 13152,
          "time": 25.6875,
          "velocity": 0.3937007874015748
        },
        {
          "duration": 0.1875,
          "durationTicks": 96,
          "midi": 58,
          "name": "A#3",
          "ticks": 13344,
          "time": 26.0625,
          "velocity": 0.3937007874015748
        },
        {
          "duration": 0.1875,
          "durationTicks": 96,
          "midi": 46,
          "name": "A#2",
          "ticks": 13344,
          "time": 26.0625,
          "velocity": 0.3937007874015748
        },
        {
          "duration": 0.1875,
          "durationTicks": 96,
          "midi": 57,
          "name": "A3",
          "ticks": 13440,
          "time": 26.25,
          "velocity": 0.3937007874015748
        },
        {
          "duration": 0.1875,
          "durationTicks": 96,
          "midi": 45,
          "name": "A2",
          "ticks": 13440,
          "time": 26.25,
          "velocity": 0.3937007874015748
        },
        {
          "duration": 0.1875,
          "durationTicks": 96,
          "midi": 60,
          "name": "C4",
          "ticks": 13536,
          "time": 26.4375,
          "velocity": 0.3937007874015748
        },
        {
          "duration": 0.1875,
          "durationTicks": 96,
          "midi": 48,
          "name": "C3",
          "ticks": 13536,
          "time": 26.4375,
          "velocity": 0.3937007874015748
        },
        {
          "duration": 0.1875,
          "durationTicks": 96,
          "midi": 65,
          "name": "F4",
          "ticks": 13632,
          "time": 26.625,
          "velocity": 0.3937007874015748
        },
        {
          "duration": 0.1875,
          "durationTicks": 96,
          "midi": 53,
          "name": "F3",
          "ticks": 13632,
          "time": 26.625,
          "velocity": 0.3937007874015748
        },
        {
          "duration": 0.1875,
          "durationTicks": 96,
          "midi": 60,
          "name": "C4",
          "ticks": 13728,
          "time": 26.8125,
          "velocity": 0.3937007874015748
        },
        {
          "duration": 0.1875,
          "durationTicks": 96,
          "midi": 48,
          "name": "C3",
          "ticks": 13728,
          "time": 26.8125,
          "velocity": 0.3937007874015748
        },
        {
          "duration": 0.1875,
          "durationTicks": 96,
          "midi": 60,
          "name": "C4",
          "ticks": 13920,
          "time": 27.1875,
          "velocity": 0.3937007874015748
        },
        {
          "duration": 0.1875,
          "durationTicks": 96,
          "midi": 48,
          "name": "C3",
          "ticks": 13920,
          "time": 27.1875,
          "velocity": 0.3937007874015748
        },
        {
          "duration": 0.1875,
          "durationTicks": 96,
          "midi": 56,
          "name": "G#3",
          "ticks": 14112,
          "time": 27.5625,
          "velocity": 0.3937007874015748
        },
        {
          "duration": 0.1875,
          "durationTicks": 96,
          "midi": 44,
          "name": "G#2",
          "ticks": 14112,
          "time": 27.5625,
          "velocity": 0.3937007874015748
        },
        {
          "duration": 0.1875,
          "durationTicks": 96,
          "midi": 57,
          "name": "A3",
          "ticks": 14304,
          "time": 27.9375,
          "velocity": 0.3937007874015748
        },
        {
          "duration": 0.1875,
          "durationTicks": 96,
          "midi": 45,
          "name": "A2",
          "ticks": 14304,
          "time": 27.9375,
          "velocity": 0.3937007874015748
        },
        {
          "duration": 0.1875,
          "durationTicks": 96,
          "midi": 56,
          "name": "G#3",
          "ticks": 14400,
          "time": 28.125,
          "velocity": 0.3937007874015748
        },
        {
          "duration": 0.1875,
          "durationTicks": 96,
          "midi": 44,
          "name": "G#2",
          "ticks": 14400,
          "time": 28.125,
          "velocity": 0.3937007874015748
        },
        {
          "duration": 0.1875,
          "durationTicks": 96,
          "midi": 56,
          "name": "G#3",
          "ticks": 14592,
          "time": 28.5,
          "velocity": 0.3937007874015748
        },
        {
          "duration": 0.1875,
          "durationTicks": 96,
          "midi": 44,
          "name": "G#2",
          "ticks": 14592,
          "time": 28.5,
          "velocity": 0.3937007874015748
        },
        {
          "duration": 0.1875,
          "durationTicks": 96,
          "midi": 56,
          "name": "G#3",
          "ticks": 14688,
          "time": 28.6875,
          "velocity": 0.3937007874015748
        },
        {
          "duration": 0.1875,
          "durationTicks": 96,
          "midi": 44,
          "name": "G#2",
          "ticks": 14688,
          "time": 28.6875,
          "velocity": 0.3937007874015748
        },
        {
          "duration": 0.1875,
          "durationTicks": 96,
          "midi": 52,
          "name": "E3",
          "ticks": 14880,
          "time": 29.0625,
          "velocity": 0.3937007874015748
        },
        {
          "duration": 0.1875,
          "durationTicks": 96,
          "midi": 40,
          "name": "E2",
          "ticks": 14880,
          "time": 29.0625,
          "velocity": 0.3937007874015748
        },
        {
          "duration": 0.1875,
          "durationTicks": 96,
          "midi": 62,
          "name": "D4",
          "ticks": 14976,
          "time": 29.25,
          "velocity": 0.3937007874015748
        },
        {
          "duration": 0.1875,
          "durationTicks": 96,
          "midi": 50,
          "name": "D3",
          "ticks": 14976,
          "time": 29.25,
          "velocity": 0.3937007874015748
        },
        {
          "duration": 0.1875,
          "durationTicks": 96,
          "midi": 60,
          "name": "C4",
          "ticks": 15072,
          "time": 29.4375,
          "velocity": 0.3937007874015748
        },
        {
          "duration": 0.1875,
          "durationTicks": 96,
          "midi": 48,
          "name": "C3",
          "ticks": 15072,
          "time": 29.4375,
          "velocity": 0.3937007874015748
        },
        {
          "duration": 0.1875,
          "durationTicks": 96,
          "midi": 58,
          "name": "A#3",
          "ticks": 15168,
          "time": 29.625,
          "velocity": 0.3937007874015748
        },
        {
          "duration": 0.1875,
          "durationTicks": 96,
          "midi": 46,
          "name": "A#2",
          "ticks": 15168,
          "time": 29.625,
          "velocity": 0.3937007874015748
        },
        {
          "duration": 0.1875,
          "durationTicks": 96,
          "midi": 57,
          "name": "A3",
          "ticks": 15264,
          "time": 29.8125,
          "velocity": 0.3937007874015748
        },
        {
          "duration": 0.1875,
          "durationTicks": 96,
          "midi": 45,
          "name": "A2",
          "ticks": 15264,
          "time": 29.8125,
          "velocity": 0.3937007874015748
        },
        {
          "duration": 0.1875,
          "durationTicks": 96,
          "midi": 58,
          "name": "A#3",
          "ticks": 15456,
          "time": 30.1875,
          "velocity": 0.3937007874015748
        },
        {
          "duration": 0.1875,
          "durationTicks": 96,
          "midi": 46,
          "name": "A#2",
          "ticks": 15456,
          "time": 30.1875,
          "velocity": 0.3937007874015748
        },
        {
          "duration": 0.1875,
          "durationTicks": 96,
          "midi": 57,
          "name": "A3",
          "ticks": 15552,
          "time": 30.375,
          "velocity": 0.3937007874015748
        },
        {
          "duration": 0.1875,
          "durationTicks": 96,
          "midi": 45,
          "name": "A2",
          "ticks": 15552,
          "time": 30.375,
          "velocity": 0.3937007874015748
        },
        {
          "duration": 0.1875,
          "durationTicks": 96,
          "midi": 60,
          "name": "C4",
          "ticks": 15648,
          "time": 30.5625,
          "velocity": 0.3937007874015748
        },
        {
          "duration": 0.1875,
          "durationTicks": 96,
          "midi": 48,
          "name": "C3",
          "ticks": 15648,
          "time": 30.5625,
          "velocity": 0.3937007874015748
        },
        {
          "duration": 0.1875,
          "durationTicks": 96,
          "midi": 65,
          "name": "F4",
          "ticks": 15744,
          "time": 30.75,
          "velocity": 0.3937007874015748
        },
        {
          "duration": 0.1875,
          "durationTicks": 96,
          "midi": 53,
          "name": "F3",
          "ticks": 15744,
          "time": 30.75,
          "velocity": 0.3937007874015748
        },
        {
          "duration": 0.1875,
          "durationTicks": 96,
          "midi": 60,
          "name": "C4",
          "ticks": 15840,
          "time": 30.9375,
          "velocity": 0.3937007874015748
        },
        {
          "duration": 0.1875,
          "durationTicks": 96,
          "midi": 48,
          "name": "C3",
          "ticks": 15840,
          "time": 30.9375,
          "velocity": 0.3937007874015748
        },
        {
          "duration": 0.1875,
          "durationTicks": 96,
          "midi": 60,
          "name": "C4",
          "ticks": 16032,
          "time": 31.3125,
          "velocity": 0.3937007874015748
        },
        {
          "duration": 0.1875,
          "durationTicks": 96,
          "midi": 48,
          "name": "C3",
          "ticks": 16032,
          "time": 31.3125,
          "velocity": 0.3937007874015748
        },
        {
          "duration": 0.1875,
          "durationTicks": 96,
          "midi": 62,
          "name": "D4",
          "ticks": 16128,
          "time": 31.5,
          "velocity": 0.3937007874015748
        },
        {
          "duration": 0.1875,
          "durationTicks": 96,
          "midi": 50,
          "name": "D3",
          "ticks": 16128,
          "time": 31.5,
          "velocity": 0.3937007874015748
        },
        {
          "duration": 0.1875,
          "durationTicks": 96,
          "midi": 62,
          "name": "D4",
          "ticks": 16320,
          "time": 31.875,
          "velocity": 0.3937007874015748
        },
        {
          "duration": 0.1875,
          "durationTicks": 96,
          "midi": 50,
          "name": "D3",
          "ticks": 16320,
          "time": 31.875,
          "velocity": 0.3937007874015748
        },
        {
          "duration": 0.1875,
          "durationTicks": 96,
          "midi": 57,
          "name": "A3",
          "ticks": 16416,
          "time": 32.0625,
          "velocity": 0.3937007874015748
        },
        {
          "duration": 0.1875,
          "durationTicks": 96,
          "midi": 45,
          "name": "A2",
          "ticks": 16416,
          "time": 32.0625,
          "velocity": 0.3937007874015748
        },
        {
          "duration": 0.1875,
          "durationTicks": 96,
          "midi": 58,
          "name": "A#3",
          "ticks": 16608,
          "time": 32.4375,
          "velocity": 0.3937007874015748
        },
        {
          "duration": 0.1875,
          "durationTicks": 96,
          "midi": 46,
          "name": "A#2",
          "ticks": 16608,
          "time": 32.4375,
          "velocity": 0.3937007874015748
        },
        {
          "duration": 0.1875,
          "durationTicks": 96,
          "midi": 57,
          "name": "A3",
          "ticks": 16704,
          "time": 32.625,
          "velocity": 0.3937007874015748
        },
        {
          "duration": 0.1875,
          "durationTicks": 96,
          "midi": 45,
          "name": "A2",
          "ticks": 16704,
          "time": 32.625,
          "velocity": 0.3937007874015748
        },
        {
          "duration": 0.1875,
          "durationTicks": 96,
          "midi": 57,
          "name": "A3",
          "ticks": 16896,
          "time": 33,
          "velocity": 0.3937007874015748
        },
        {
          "duration": 0.1875,
          "durationTicks": 96,
          "midi": 45,
          "name": "A2",
          "ticks": 16896,
          "time": 33,
          "velocity": 0.3937007874015748
        },
        {
          "duration": 0.1875,
          "durationTicks": 96,
          "midi": 57,
          "name": "A3",
          "ticks": 16992,
          "time": 33.1875,
          "velocity": 0.3937007874015748
        },
        {
          "duration": 0.1875,
          "durationTicks": 96,
          "midi": 45,
          "name": "A2",
          "ticks": 16992,
          "time": 33.1875,
          "velocity": 0.3937007874015748
        },
        {
          "duration": 0.1875,
          "durationTicks": 96,
          "midi": 53,
          "name": "F3",
          "ticks": 17184,
          "time": 33.5625,
          "velocity": 0.3937007874015748
        },
        {
          "duration": 0.1875,
          "durationTicks": 96,
          "midi": 41,
          "name": "F2",
          "ticks": 17184,
          "time": 33.5625,
          "velocity": 0.3937007874015748
        },
        {
          "duration": 0.1875,
          "durationTicks": 96,
          "midi": 62,
          "name": "D4",
          "ticks": 17280,
          "time": 33.75,
          "velocity": 0.3937007874015748
        },
        {
          "duration": 0.1875,
          "durationTicks": 96,
          "midi": 50,
          "name": "D3",
          "ticks": 17280,
          "time": 33.75,
          "velocity": 0.3937007874015748
        },
        {
          "duration": 0.1875,
          "durationTicks": 96,
          "midi": 60,
          "name": "C4",
          "ticks": 17376,
          "time": 33.9375,
          "velocity": 0.3937007874015748
        },
        {
          "duration": 0.1875,
          "durationTicks": 96,
          "midi": 48,
          "name": "C3",
          "ticks": 17376,
          "time": 33.9375,
          "velocity": 0.3937007874015748
        },
        {
          "duration": 0.1875,
          "durationTicks": 96,
          "midi": 58,
          "name": "A#3",
          "ticks": 17472,
          "time": 34.125,
          "velocity": 0.3937007874015748
        },
        {
          "duration": 0.1875,
          "durationTicks": 96,
          "midi": 46,
          "name": "A#2",
          "ticks": 17472,
          "time": 34.125,
          "velocity": 0.3937007874015748
        },
        {
          "duration": 0.1875,
          "durationTicks": 96,
          "midi": 57,
          "name": "A3",
          "ticks": 17568,
          "time": 34.3125,
          "velocity": 0.3937007874015748
        },
        {
          "duration": 0.1875,
          "durationTicks": 96,
          "midi": 45,
          "name": "A2",
          "ticks": 17568,
          "time": 34.3125,
          "velocity": 0.3937007874015748
        },
        {
          "duration": 0.1875,
          "durationTicks": 96,
          "midi": 58,
          "name": "A#3",
          "ticks": 17760,
          "time": 34.6875,
          "velocity": 0.3937007874015748
        },
        {
          "duration": 0.1875,
          "durationTicks": 96,
          "midi": 46,
          "name": "A#2",
          "ticks": 17760,
          "time": 34.6875,
          "velocity": 0.3937007874015748
        },
        {
          "duration": 0.1875,
          "durationTicks": 96,
          "midi": 57,
          "name": "A3",
          "ticks": 17856,
          "time": 34.875,
          "velocity": 0.3937007874015748
        },
        {
          "duration": 0.1875,
          "durationTicks": 96,
          "midi": 45,
          "name": "A2",
          "ticks": 17856,
          "time": 34.875,
          "velocity": 0.3937007874015748
        },
        {
          "duration": 0.1875,
          "durationTicks": 96,
          "midi": 60,
          "name": "C4",
          "ticks": 17952,
          "time": 35.0625,
          "velocity": 0.3937007874015748
        },
        {
          "duration": 0.1875,
          "durationTicks": 96,
          "midi": 48,
          "name": "C3",
          "ticks": 17952,
          "time": 35.0625,
          "velocity": 0.3937007874015748
        },
        {
          "duration": 0.1875,
          "durationTicks": 96,
          "midi": 65,
          "name": "F4",
          "ticks": 18048,
          "time": 35.25,
          "velocity": 0.3937007874015748
        },
        {
          "duration": 0.1875,
          "durationTicks": 96,
          "midi": 53,
          "name": "F3",
          "ticks": 18048,
          "time": 35.25,
          "velocity": 0.3937007874015748
        },
        {
          "duration": 0.1875,
          "durationTicks": 96,
          "midi": 60,
          "name": "C4",
          "ticks": 18144,
          "time": 35.4375,
          "velocity": 0.3937007874015748
        },
        {
          "duration": 0.1875,
          "durationTicks": 96,
          "midi": 48,
          "name": "C3",
          "ticks": 18144,
          "time": 35.4375,
          "velocity": 0.3937007874015748
        },
        {
          "duration": 0.1875,
          "durationTicks": 96,
          "midi": 60,
          "name": "C4",
          "ticks": 18336,
          "time": 35.8125,
          "velocity": 0.3937007874015748
        },
        {
          "duration": 0.1875,
          "durationTicks": 96,
          "midi": 48,
          "name": "C3",
          "ticks": 18336,
          "time": 35.8125,
          "velocity": 0.3937007874015748
        }
      ],
      "endOfTrackTicks": 18432
    },
    {
      "channel": 0,
      "controlChanges": {},
      "pitchBends": [],
      "instrument": {
        "number": 255
      },
      "name": "Synthesizer",
      "notes": [],
      "endOfTrackTicks": 13920
    }
  ]
}