{
  "header": {
    "keySignatures": [],
    "meta": [],
    "name": "Jingle bell",
    "ppq": 384,
    "tempos": [
      {
        "bpm": 125,
        "ticks": 0
      }
    ],
    "timeSignatures": [
      {
        "ticks": 0,
        "timeSignature": [
          4,
          4
        ],
        "measures": 0
      }
    ]
  },
  "tracks": [
    {
      "channel": 0,
      "controlChanges": {},
      "pitchBends": [],
      "instrument": {
        "family": "guitar",
        "number": 29,
        "name": "overdriven guitar"
      },
      "name": "Electric Guitar",
      "notes": [
        {
          "duration": 0.36,
          "durationTicks": 288,
          "midi": 74,
          "name": "D5",
          "ticks": 0,
          "time": 0,
          "velocity": 0.2440944881889764
        },
        {
          "duration": 0.36,
          "durationTicks": 288,
          "midi": 74,
          "name": "D5",
          "ticks": 288,
          "time": 0.36,
          "velocity": 0.2440944881889764
        },
        {
          "duration": 0.72,
          "durationTicks": 576,
          "midi": 74,
          "name": "D5",
          "ticks": 576,
          "time": 0.72,
          "velocity": 0.2440944881889764
        },
        {
          "duration": 0.3599999999999999,
          "durationTicks": 288,
          "midi": 74,
          "name": "D5",
          "ticks": 1152,
          "time": 1.44,
          "velocity": 0.2440944881889764
        },
        {
          "duration": 0.3600000000000003,
          "durationTicks": 288,
          "midi": 74,
          "name": "D5",
          "ticks": 1440,
          "time": 1.7999999999999998,
          "velocity": 0.2440944881889764
        },
        {
          "duration": 0.7199999999999998,
          "durationTicks": 576,
          "midi": 74,
          "name": "D5",
          "ticks": 1728,
          "time": 2.16,
          "velocity": 0.2440944881889764
        },
        {
          "duration": 0.3599999999999999,
          "durationTicks": 288,
          "midi": 74,
          "name": "D5",
          "ticks": 2304,
          "time": 2.88,
          "velocity": 0.2440944881889764
        },
        {
          "duration": 0.3599999999999999,
          "durationTicks": 288,
          "midi": 77,
          "name": "F5",
          "ticks": 2592,
          "time": 3.2399999999999998,
          "velocity": 0.2440944881889764
        },
        {
          "duration": 0.4800000000000004,
          "durationTicks": 384,
          "midi": 70,
          "name": "A#4",
          "ticks": 2880,
          "time": 3.5999999999999996,
          "velocity": 0.2440944881889764
        },
        {
          "duration": 0.2400000000000002,
          "durationTicks": 192,
          "midi": 72,
          "name": "C5",
          "ticks": 3264,
          "time": 4.08,
          "velocity": 0.2440944881889764
        },
        {
          "duration": 0.47999999999999954,
          "durationTicks": 384,
          "midi": 74,
          "name": "D5",
          "ticks": 3456,
          "time": 4.32,
          "velocity": 0.2440944881889764
        },
        {
          "duration": 0.2400000000000002,
          "durationTicks": 192,
          "midi": 75,
          "name": "D#5",
          "ticks": 3840,
          "time": 4.8,
          "velocity": 0.2440944881889764
        },
        {
          "duration": 0.23999999999999932,
          "durationTicks": 192,
          "midi": 75,
          "name": "D#5",
          "ticks": 4032,
          "time": 5.04,
          "velocity": 0.2440944881889764
        },
        {
          "duration": 0.2400000000000002,
          "durationTicks": 192,
          "midi": 75,
          "name": "D#5",
          "ticks": 4224,
          "time": 5.279999999999999,
          "velocity": 0.2440944881889764
        },
        {
          "duration": 0.2400000000000002,
          "durationTicks": 192,
          "midi": 75,
          "name": "D#5",
          "ticks": 4416,
          "time": 5.52,
          "velocity": 0.2440944881889764
        },
        {
          "duration": 0.1200000000000001,
          "durationTicks": 96,
          "midi": 74,
          "name": "D5",
          "ticks": 4608,
          "time": 5.76,
          "velocity": 0.2440944881889764
        },
        {
          "duration": 0.1200000000000001,
          "durationTicks": 96,
          "midi": 74,
          "name": "D5",
          "ticks": 4704,
          "time": 5.88,
          "velocity": 0.2440944881889764
        },
        {
          "duration": 0.1200000000000001,
          "durationTicks": 96,
          "midi": 74,
          "name": "D5",
          "ticks": 4800,
          "time": 6,
          "velocity": 0.2440944881889764
        },
        {
          "duration": 0.1200000000000001,
          "durationTicks": 96,
          "midi": 74,
          "name": "D5",
          "ticks": 4896,
          "time": 6.12,
          "velocity": 0.2440944881889764
        },
        {
          "duration": 0.23999999999999932,
          "durationTicks": 192,
          "midi": 74,
          "name": "D5",
          "ticks": 4992,
          "time": 6.24,
          "velocity": 0.2204724409448819
        },
        {
          "duration": 0.1200000000000001,
          "durationTicks": 96,
          "midi": 74,
          "name": "D5",
          "ticks": 5184,
          "time": 6.4799999999999995,
          "velocity": 0.2204724409448819
        },
        {
          "duration": 0.1200000000000001,
          "durationTicks": 96,
          "midi": 74,
          "name": "D5",
          "ticks": 5280,
          "time": 6.6,
          "velocity": 0.2204724409448819
        },
        {
          "duration": 0.1200000000000001,
          "durationTicks": 96,
          "midi": 71,
          "name": "B4",
          "ticks": 5376,
          "time": 6.72,
          "velocity": 0.1968503937007874
        },
        {
          "duration": 0.1200000000000001,
          "durationTicks": 96,
          "midi": 74,
          "name": "D5",
          "ticks": 5472,
          "time": 6.84,
          "velocity": 0.2125984251968504
        },
        {
          "duration": 0.1200000000000001,
          "durationTicks": 96,
          "midi": 71,
          "name": "B4",
          "ticks": 5568,
          "time": 6.96,
          "velocity": 0.1968503937007874
        },
        {
          "duration": 0.11999999999999922,
          "durationTicks": 96,
          "midi": 71,
          "name": "B4",
          "ticks": 5664,
          "time": 7.08,
          "velocity": 0.1889763779527559
        },
        {
          "duration": 0.1200000000000001,
          "durationTicks": 96,
          "midi": 73,
          "name": "C#5",
          "ticks": 5760,
          "time": 7.199999999999999,
          "velocity": 0.2204724409448819
        },
        {
          "duration": 0.1200000000000001,
          "durationTicks": 96,
          "midi": 71,
          "name": "B4",
          "ticks": 5856,
          "time": 7.319999999999999,
          "velocity": 0.1889763779527559
        },
        {
          "duration": 0.1200000000000001,
          "durationTicks": 96,
          "midi": 73,
          "name": "C#5",
          "ticks": 5952,
          "time": 7.4399999999999995,
          "velocity": 0.2047244094488189
        },
        {
          "duration": 0.1200000000000001,
          "durationTicks": 96,
          "midi": 73,
          "name": "C#5",
          "ticks": 6048,
          "time": 7.56,
          "velocity": 0.2283464566929134
        },
        {
          "duration": 0.1200000000000001,
          "durationTicks": 96,
          "midi": 69,
          "name": "A4",
          "ticks": 6144,
          "time": 7.68,
          "velocity": 0.2125984251968504
        },
        {
          "duration": 0.1200000000000001,
          "durationTicks": 96,
          "midi": 73,
          "name": "C#5",
          "ticks": 6240,
          "time": 7.8,
          "velocity": 0.1968503937007874
        },
        {
          "duration": 0.11999999999999922,
          "durationTicks": 96,
          "midi": 69,
          "name": "A4",
          "ticks": 6336,
          "time": 7.92,
          "velocity": 0.2125984251968504
        },
        {
          "duration": 0.120000000000001,
          "durationTicks": 96,
          "midi": 69,
          "name": "A4",
          "ticks": 6432,
          "time": 8.04,
          "velocity": 0.2204724409448819
        },
        {
          "duration": 0.11999999999999922,
          "durationTicks": 96,
          "midi": 68,
          "name": "G#4",
          "ticks": 6528,
          "time": 8.16,
          "velocity": 0.2125984251968504
        },
        {
          "duration": 0.120000000000001,
          "durationTicks": 96,
          "midi": 69,
          "name": "A4",
          "ticks": 6624,
          "time": 8.28,
          "velocity": 0.2125984251968504
        },
        {
          "duration": 0.11999999999999922,
          "durationTicks": 96,
          "midi": 68,
          "name": "G#4",
          "ticks": 6720,
          "time": 8.4,
          "velocity": 0.18110236220472442
        },
        {
          "duration": 0.120000000000001,
          "durationTicks": 96,
          "midi": 68,
          "name": "G#4",
          "ticks": 6816,
          "time": 8.52,
          "velocity": 0.18110236220472442
        },
        {
          "duration": 0.11999999999999922,
          "durationTicks": 96,
          "midi": 69,
          "name": "A4",
          "ticks": 6912,
          "time": 8.64,
          "velocity": 0.23622047244094488
        },
        {
          "duration": 0.11999999999999922,
          "durationTicks": 96,
          "midi": 68,
          "name": "G#4",
          "ticks": 7008,
          "time": 8.76,
          "velocity": 0.18110236220472442
        },
        {
          "duration": 0.120000000000001,
          "durationTicks": 96,
          "midi": 69,
          "name": "A4",
          "ticks": 7104,
          "time": 8.879999999999999,
          "velocity": 0.2440944881889764
        },
        {
          "duration": 0.11999999999999922,
          "durationTicks": 96,
          "midi": 69,
          "name": "A4",
          "ticks": 7200,
          "time": 9,
          "velocity": 0.2204724409448819
        },
        {
          "duration": 0.120000000000001,
          "durationTicks": 96,
          "midi": 66,
          "name": "F#4",
          "ticks": 7296,
          "time": 9.12,
          "velocity": 0.2204724409448819
        },
        {
          "duration": 0.11999999999999922,
          "durationTicks": 96,
          "midi": 69,
          "name": "A4",
          "ticks": 7392,
          "time": 9.24,
          "velocity": 0.2204724409448819
        },
        {
          "duration": 0.120000000000001,
          "durationTicks": 96,
          "midi": 66,
          "name": "F#4",
          "ticks": 7488,
          "time": 9.36,
          "velocity": 0.1889763779527559
        },
        {
          "duration": 0.11999999999999922,
          "durationTicks": 96,
          "midi": 66,
          "name": "F#4",
          "ticks": 7584,
          "time": 9.48,
          "velocity": 0.1968503937007874
        },
        {
          "duration": 0.11999999999999922,
          "durationTicks": 96,
          "midi": 64,
          "name": "E4",
          "ticks": 7680,
          "time": 9.6,
          "velocity": 0.2047244094488189
        },
        {
          "duration": 0.120000000000001,
          "durationTicks": 96,
          "midi": 66,
          "name": "F#4",
          "ticks": 7776,
          "time": 9.719999999999999,
          "velocity": 0.1968503937007874
        },
        {
          "duration": 0.11999999999999922,
          "durationTicks": 96,
          "midi": 64,
          "name": "E4",
          "ticks": 7872,
          "time": 9.84,
          "velocity": 0.18110236220472442
        },
        {
          "duration": 0.120000000000001,
          "durationTicks": 96,
          "midi": 66,
          "name": "F#4",
          "ticks": 7968,
          "time": 9.959999999999999,
          "velocity": 0.18110236220472442
        },
        {
          "duration": 0.11999999999999922,
          "durationTicks": 96,
          "midi": 71,
          "name": "B4",
          "ticks": 8064,
          "time": 10.08,
          "velocity": 0.2047244094488189
        },
        {
          "duration": 0.120000000000001,
          "durationTicks": 96,
          "midi": 64,
          "name": "E4",
          "ticks": 8160,
          "time": 10.2,
          "velocity": 0.1732283464566929
        },
        {
          "duration": 0.11999999999999922,
          "durationTicks": 96,
          "midi": 71,
          "name": "B4",
          "ticks": 8256,
          "time": 10.32,
          "velocity": 0.1968503937007874
        },
        {
          "duration": 0.11999999999999922,
          "durationTicks": 96,
          "midi": 71,
          "name": "B4",
          "ticks": 8352,
          "time": 10.44,
          "velocity": 0.1968503937007874
        },
        {
          "duration": 0.120000000000001,
          "durationTicks": 96,
          "midi": 71,
          "name": "B4",
          "ticks": 8448,
          "time": 10.559999999999999,
          "velocity": 0.1968503937007874
        },
        {
          "duration": 0.11999999999999922,
          "durationTicks": 96,
          "midi": 71,
          "name": "B4",
          "ticks": 8544,
          "time": 10.68,
          "velocity": 0.18110236220472442
        },
        {
          "duration": 0.120000000000001,
          "durationTicks": 96,
          "midi": 71,
          "name": "B4",
          "ticks": 8640,
          "time": 10.799999999999999,
          "velocity": 0.18110236220472442
        },
        {
          "duration": 0.11999999999999922,
          "durationTicks": 96,
          "midi": 71,
          "name": "B4",
          "ticks": 8736,
          "time": 10.92,
          "velocity": 0.18110236220472442
        },
        {
          "duration": 0.120000000000001,
          "durationTicks": 96,
          "midi": 73,
          "name": "C#5",
          "ticks": 8832,
          "time": 11.04,
          "velocity": 0.2125984251968504
        },
        {
          "duration": 0.11999999999999922,
          "durationTicks": 96,
          "midi": 71,
          "name": "B4",
          "ticks": 8928,
          "time": 11.16,
          "velocity": 0.1732283464566929
        },
        {
          "duration": 0.120000000000001,
          "durationTicks": 96,
          "midi": 73,
          "name": "C#5",
          "ticks": 9024,
          "time": 11.28,
          "velocity": 0.2047244094488189
        },
        {
          "duration": 0.11999999999999922,
          "durationTicks": 96,
          "midi": 73,
          "name": "C#5",
          "ticks": 9120,
          "time": 11.4,
          "velocity": 0.2204724409448819
        },
        {
          "duration": 0.11999999999999922,
          "durationTicks": 96,
          "midi": 76,
          "name": "E5",
          "ticks": 9216,
          "time": 11.52,
          "velocity": 0.2047244094488189
        },
        {
          "duration": 0.120000000000001,
          "durationTicks": 96,
          "midi": 73,
          "name": "C#5",
          "ticks": 9312,
          "time": 11.639999999999999,
          "velocity": 0.2204724409448819
        },
        {
          "duration": 0.11999999999999922,
          "durationTicks": 96,
          "midi": 76,
          "name": "E5",
          "ticks": 9408,
          "time": 11.76,
          "velocity": 0.1968503937007874
        },
        {
          "duration": 0.120000000000001,
          "durationTicks": 96,
          "midi": 76,
          "name": "E5",
          "ticks": 9504,
          "time": 11.879999999999999,
          "velocity": 0.1732283464566929
        },
        {
          "duration": 0.11999999999999922,
          "durationTicks": 96,
          "midi": 73,
          "name": "C#5",
          "ticks": 9600,
          "time": 12,
          "velocity": 0.2204724409448819
        },
        {
          "duration": 0.120000000000001,
          "durationTicks": 96,
          "midi": 76,
          "name": "E5",
          "ticks": 9696,
          "time": 12.12,
          "velocity": 0.1732283464566929
        },
        {
          "duration": 0.11999999999999922,
          "durationTicks": 96,
          "midi": 73,
          "name": "C#5",
          "ticks": 9792,
          "time": 12.24,
          "velocity": 0.18110236220472442
        },
        {
          "duration": 0.120000000000001,
          "durationTicks": 96,
          "midi": 73,
          "name": "C#5",
          "ticks": 9888,
          "time": 12.36,
          "velocity": 0.18110236220472442
        },
        {
          "duration": 0.11999999999999922,
          "durationTicks": 96,
          "midi": 71,
          "name": "B4",
          "ticks": 9984,
          "time": 12.48,
          "velocity": 0.18110236220472442
        },
        {
          "duration": 0.11999999999999922,
          "durationTicks": 96,
          "midi": 73,
          "name": "C#5",
          "ticks": 10080,
          "time": 12.6,
          "velocity": 0.1968503937007874
        },
        {
          "duration": 0.120000000000001,
          "durationTicks": 96,
          "midi": 71,
          "name": "B4",
          "ticks": 10176,
          "time": 12.719999999999999,
          "velocity": 0.18110236220472442
        },
        {
          "duration": 0.11999999999999922,
          "durationTicks": 96,
          "midi": 71,
          "name": "B4",
          "ticks": 10272,
          "time": 12.84,
          "velocity": 0.1732283464566929
        },
        {
          "duration": 0.120000000000001,
          "durationTicks": 96,
          "midi": 69,
          "name": "A4",
          "ticks": 10368,
          "time": 12.959999999999999,
          "velocity": 0.2204724409448819
        },
        {
          "duration": 0.11999999999999922,
          "durationTicks": 96,
          "midi": 71,
          "name": "B4",
          "ticks": 10464,
          "time": 13.08,
          "velocity": 0.1968503937007874
        },
        {
          "duration": 0.120000000000001,
          "durationTicks": 96,
          "midi": 69,
          "name": "A4",
          "ticks": 10560,
          "time": 13.2,
          "velocity": 0.2125984251968504
        },
        {
          "duration": 0.11999999999999922,
          "durationTicks": 96,
          "midi": 69,
          "name": "A4",
          "ticks": 10656,
          "time": 13.32,
          "velocity": 0.2204724409448819
        },
        {
          "duration": 0.11999999999999922,
          "durationTicks": 96,
          "midi": 71,
          "name": "B4",
          "ticks": 10752,
          "time": 13.44,
          "velocity": 0.2047244094488189
        },
        {
          "duration": 0.120000000000001,
          "durationTicks": 96,
          "midi": 69,
          "name": "A4",
          "ticks": 10848,
          "time": 13.559999999999999,
          "velocity": 0.2125984251968504
        },
        {
          "duration": 0.11999999999999922,
          "durationTicks": 96,
          "midi": 71,
          "name": "B4",
          "ticks": 10944,
          "time": 13.68,
          "velocity": 0.2125984251968504
        },
        {
          "duration": 0.120000000000001,
          "durationTicks": 96,
          "midi": 69,
          "name": "A4",
          "ticks": 11040,
          "time": 13.799999999999999,
          "velocity": 0.2125984251968504
        },
        {
          "duration": 0.11999999999999922,
          "durationTicks": 96,
          "midi": 74,
          "name": "D5",
          "ticks": 11136,
          "time": 13.92,
          "velocity": 0.2204724409448819
        },
        {
          "duration": 0.120000000000001,
          "durationTicks": 96,
          "midi": 71,
          "name": "B4",
          "ticks": 11232,
          "time": 14.04,
          "velocity": 0.2204724409448819
        },
        {
          "duration": 0.11999999999999922,
          "durationTicks": 96,
          "midi": 74,
          "name": "D5",
          "ticks": 11328,
          "time": 14.16,
          "velocity": 0.23622047244094488
        },
        {
          "duration": 0.11999999999999922,
          "durationTicks": 96,
          "midi": 74,
          "name": "D5",
          "ticks": 11424,
          "time": 14.28,
          "velocity": 0.2204724409448819
        },
        {
          "duration": 0.120000000000001,
          "durationTicks": 96,
          "midi": 71,
          "name": "B4",
          "ticks": 11520,
          "time": 14.399999999999999,
          "velocity": 0.1968503937007874
        },
        {
          "duration": 0.11999999999999922,
          "durationTicks": 96,
          "midi": 74,
          "name": "D5",
          "ticks": 11616,
          "time": 14.52,
          "velocity": 0.2125984251968504
        },
        {
          "duration": 0.120000000000001,
          "durationTicks": 96,
          "midi": 71,
          "name": "B4",
          "ticks": 11712,
          "time": 14.639999999999999,
          "velocity": 0.18110236220472442
        },
        {
          "duration": 0.11999999999999922,
          "durationTicks": 96,
          "midi": 71,
          "name": "B4",
          "ticks": 11808,
          "time": 14.76,
          "velocity": 0.1732283464566929
        },
        {
          "duration": 0.120000000000001,
          "durationTicks": 96,
          "midi": 73,
          "name": "C#5",
          "ticks": 11904,
          "time": 14.879999999999999,
          "velocity": 0.2047244094488189
        },
        {
          "duration": 0.11999999999999922,
          "durationTicks": 96,
          "midi": 71,
          "name": "B4",
          "ticks": 12000,
          "time": 15,
          "velocity": 0.1889763779527559
        },
        {
          "duration": 0.120000000000001,
          "durationTicks": 96,
          "midi": 73,
          "name": "C#5",
          "ticks": 12096,
          "time": 15.12,
          "velocity": 0.2047244094488189
        },
        {
          "duration": 0.11999999999999922,
          "durationTicks": 96,
          "midi": 73,
          "name": "C#5",
          "ticks": 12192,
          "time": 15.24,
          "velocity": 0.2125984251968504
        },
        {
          "duration": 0.11999999999999922,
          "durationTicks": 96,
          "midi": 69,
          "name": "A4",
          "ticks": 12288,
          "time": 15.36,
          "velocity": 0.2283464566929134
        },
        {
          "duration": 0.120000000000001,
          "durationTicks": 96,
          "midi": 73,
          "name": "C#5",
          "ticks": 12384,
          "time": 15.479999999999999,
          "velocity": 0.1889763779527559
        },
        {
          "duration": 0.11999999999999922,
          "durationTicks": 96,
          "midi": 69,
          "name": "A4",
          "ticks": 12480,
          "time": 15.6,
          "velocity": 0.2125984251968504
        },
        {
          "duration": 0.120000000000001,
          "durationTicks": 96,
          "midi": 69,
          "name": "A4",
          "ticks": 12576,
          "time": 15.719999999999999,
          "velocity": 0.2125984251968504
        },
        {
          "duration": 0.11999999999999922,
          "durationTicks": 96,
          "midi": 68,
          "name": "G#4",
          "ticks": 12672,
          "time": 15.84,
          "velocity": 0.1732283464566929
        },
        {
          "duration": 0.11999999999999922,
          "durationTicks": 96,
          "midi": 69,
          "name": "A4",
          "ticks": 12768,
          "time": 15.959999999999999,
          "velocity": 0.2125984251968504
        },
        {
          "duration": 0.120000000000001,
          "durationTicks": 96,
          "midi": 68,
          "name": "G#4",
          "ticks": 12864,
          "time": 16.08,
          "velocity": 0.1968503937007874
        },
        {
          "duration": 0.120000000000001,
          "durationTicks": 96,
          "midi": 68,
          "name": "G#4",
          "ticks": 12960,
          "time": 16.2,
          "velocity": 0.1968503937007874
        },
        {
          "duration": 0.11999999999999744,
          "durationTicks": 96,
          "midi": 69,
          "name": "A4",
          "ticks": 13056,
          "time": 16.32,
          "velocity": 0.2204724409448819
        },
        {
          "duration": 0.120000000000001,
          "durationTicks": 96,
          "midi": 68,
          "name": "G#4",
          "ticks": 13152,
          "time": 16.439999999999998,
          "velocity": 0.2047244094488189
        },
        {
          "duration": 0.120000000000001,
          "durationTicks": 96,
          "midi": 69,
          "name": "A4",
          "ticks": 13248,
          "time": 16.56,
          "velocity": 0.2204724409448819
        },
        {
          "duration": 0.120000000000001,
          "durationTicks": 96,
          "midi": 69,
          "name": "A4",
          "ticks": 13344,
          "time": 16.68,
          "velocity": 0.2125984251968504
        },
        {
          "duration": 0.11999999999999744,
          "durationTicks": 96,
          "midi": 66,
          "name": "F#4",
          "ticks": 13440,
          "time": 16.8,
          "velocity": 0.18110236220472442
        },
        {
          "duration": 0.120000000000001,
          "durationTicks": 96,
          "midi": 69,
          "name": "A4",
          "ticks": 13536,
          "time": 16.919999999999998,
          "velocity": 0.2204724409448819
        },
        {
          "duration": 0.120000000000001,
          "durationTicks": 96,
          "midi": 66,
          "name": "F#4",
          "ticks": 13632,
          "time": 17.04,
          "velocity": 0.1968503937007874
        },
        {
          "duration": 0.120000000000001,
          "durationTicks": 96,
          "midi": 66,
          "name": "F#4",
          "ticks": 13728,
          "time": 17.16,
          "velocity": 0.1889763779527559
        },
        {
          "duration": 0.11999999999999744,
          "durationTicks": 96,
          "midi": 64,
          "name": "E4",
          "ticks": 13824,
          "time": 17.28,
          "velocity": 0.2125984251968504
        },
        {
          "duration": 0.120000000000001,
          "durationTicks": 96,
          "midi": 66,
          "name": "F#4",
          "ticks": 13920,
          "time": 17.4,
          "velocity": 0.2047244094488189
        },
        {
          "duration": 0.120000000000001,
          "durationTicks": 96,
          "midi": 64,
          "name": "E4",
          "ticks": 14016,
          "time": 17.52,
          "velocity": 0.2047244094488189
        },
        {
          "duration": 0.11999999999999744,
          "durationTicks": 96,
          "midi": 64,
          "name": "E4",
          "ticks": 14112,
          "time": 17.64,
          "velocity": 0.1889763779527559
        },
        {
          "duration": 0.120000000000001,
          "durationTicks": 96,
          "midi": 71,
          "name": "B4",
          "ticks": 14208,
          "time": 17.759999999999998,
          "velocity": 0.2204724409448819
        },
        {
          "duration": 0.120000000000001,
          "durationTicks": 96,
          "midi": 64,
          "name": "E4",
          "ticks": 14304,
          "time": 17.88,
          "velocity": 0.1968503937007874
        },
        {
          "duration": 0.120000000000001,
          "durationTicks": 96,
          "midi": 71,
          "name": "B4",
          "ticks": 14400,
          "time": 18,
          "velocity": 0.18110236220472442
        },
        {
          "duration": 0.11999999999999744,
          "durationTicks": 96,
          "midi": 71,
          "name": "B4",
          "ticks": 14496,
          "time": 18.12,
          "velocity": 0.1889763779527559
        },
        {
          "duration": 0.120000000000001,
          "durationTicks": 96,
          "midi": 71,
          "name": "B4",
          "ticks": 14592,
          "time": 18.24,
          "velocity": 0.1732283464566929
        },
        {
          "duration": 0.120000000000001,
          "durationTicks": 96,
          "midi": 71,
          "name": "B4",
          "ticks": 14688,
          "time": 18.36,
          "velocity": 0.1889763779527559
        },
        {
          "duration": 0.11999999999999744,
          "durationTicks": 96,
          "midi": 71,
          "name": "B4",
          "ticks": 14784,
          "time": 18.48,
          "velocity": 0.1968503937007874
        },
        {
          "duration": 0.120000000000001,
          "durationTicks": 96,
          "midi": 71,
          "name": "B4",
          "ticks": 14880,
          "time": 18.599999999999998,
          "velocity": 0.18110236220472442
        },
        {
          "duration": 0.120000000000001,
          "durationTicks": 96,
          "midi": 73,
          "name": "C#5",
          "ticks": 14976,
          "time": 18.72,
          "velocity": 0.2125984251968504
        },
        {
          "duration": 0.120000000000001,
          "durationTicks": 96,
          "midi": 71,
          "name": "B4",
          "ticks": 15072,
          "time": 18.84,
          "velocity": 0.1732283464566929
        },
        {
          "duration": 0.11999999999999744,
          "durationTicks": 96,
          "midi": 73,
          "name": "C#5",
          "ticks": 15168,
          "time": 18.96,
          "velocity": 0.1968503937007874
        },
        {
          "duration": 0.120000000000001,
          "durationTicks": 96,
          "midi": 73,
          "name": "C#5",
          "ticks": 15264,
          "time": 19.08,
          "velocity": 0.1968503937007874
        },
        {
          "duration": 0.120000000000001,
          "durationTicks": 96,
          "midi": 76,
          "name": "E5",
          "ticks": 15360,
          "time": 19.2,
          "velocity": 0.1968503937007874
        },
        {
          "duration": 0.11999999999999744,
          "durationTicks": 96,
          "midi": 73,
          "name": "C#5",
          "ticks": 15456,
          "time": 19.32,
          "velocity": 0.1968503937007874
        },
        {
          "duration": 0.120000000000001,
          "durationTicks": 96,
          "midi": 76,
          "name": "E5",
          "ticks": 15552,
          "time": 19.439999999999998,
          "velocity": 0.1732283464566929
        },
        {
          "duration": 0.120000000000001,
          "durationTicks": 96,
          "midi": 76,
          "name": "E5",
          "ticks": 15648,
          "time": 19.56,
          "velocity": 0.1732283464566929
        },
        {
          "duration": 0.120000000000001,
          "durationTicks": 96,
          "midi": 73,
          "name": "C#5",
          "ticks": 15744,
          "time": 19.68,
          "velocity": 0.1732283464566929
        },
        {
          "duration": 0.11999999999999744,
          "durationTicks": 96,
          "midi": 76,
          "name": "E5",
          "ticks": 15840,
          "time": 19.8,
          "velocity": 0.18110236220472442
        },
        {
          "duration": 0.120000000000001,
          "durationTicks": 96,
          "midi": 73,
          "name": "C#5",
          "ticks": 15936,
          "time": 19.919999999999998,
          "velocity": 0.2204724409448819
        },
        {
          "duration": 0.120000000000001,
          "durationTicks": 96,
          "midi": 73,
          "name": "C#5",
          "ticks": 16032,
          "time": 20.04,
          "velocity": 0.2283464566929134
        },
        {
          "duration": 0.11999999999999744,
          "durationTicks": 96,
          "midi": 71,
          "name": "B4",
          "ticks": 16128,
          "time": 20.16,
          "velocity": 0.1889763779527559
        },
        {
          "duration": 0.120000000000001,
          "durationTicks": 96,
          "midi": 73,
          "name": "C#5",
          "ticks": 16224,
          "time": 20.279999999999998,
          "velocity": 0.1968503937007874
        },
        {
          "duration": 0.120000000000001,
          "durationTicks": 96,
          "midi": 71,
          "name": "B4",
          "ticks": 16320,
          "time": 20.4,
          "velocity": 0.18110236220472442
        },
        {
          "duration": 0.120000000000001,
          "durationTicks": 96,
          "midi": 71,
          "name": "B4",
          "ticks": 16416,
          "time": 20.52,
          "velocity": 0.1732283464566929
        },
        {
          "duration": 0.11999999999999744,
          "durationTicks": 96,
          "midi": 69,
          "name": "A4",
          "ticks": 16512,
          "time": 20.64,
          "velocity": 0.2204724409448819
        },
        {
          "duration": 0.120000000000001,
          "durationTicks": 96,
          "midi": 71,
          "name": "B4",
          "ticks": 16608,
          "time": 20.759999999999998,
          "velocity": 0.14960629921259844
        },
        {
          "duration": 0.120000000000001,
          "durationTicks": 96,
          "midi": 69,
          "name": "A4",
          "ticks": 16704,
          "time": 20.88,
          "velocity": 0.2125984251968504
        },
        {
          "duration": 0.11999999999999744,
          "durationTicks": 96,
          "midi": 69,
          "name": "A4",
          "ticks": 16800,
          "time": 21,
          "velocity": 0.2204724409448819
        },
        {
          "duration": 0.120000000000001,
          "durationTicks": 96,
          "midi": 68,
          "name": "G#4",
          "ticks": 16896,
          "time": 21.119999999999997,
          "velocity": 0.18110236220472442
        },
        {
          "duration": 0.120000000000001,
          "durationTicks": 96,
          "midi": 69,
          "name": "A4",
          "ticks": 16992,
          "time": 21.24,
          "velocity": 0.2047244094488189
        },
        {
          "duration": 0.120000000000001,
          "durationTicks": 96,
          "midi": 68,
          "name": "G#4",
          "ticks": 17088,
          "time": 21.36,
          "velocity": 0.1968503937007874
        },
        {
          "duration": 0.11999999999999744,
          "durationTicks": 96,
          "midi": 68,
          "name": "G#4",
          "ticks": 17184,
          "time": 21.48,
          "velocity": 0.1968503937007874
        },
        {
          "duration": 0.240000000000002,
          "durationTicks": 192,
          "midi": 74,
          "name": "D5",
          "ticks": 17280,
          "time": 21.599999999999998,
          "velocity": 0.2204724409448819
        },
        {
          "duration": 0.120000000000001,
          "durationTicks": 96,
          "midi": 74,
          "name": "D5",
          "ticks": 17472,
          "time": 21.84,
          "velocity": 0.2204724409448819
        },
        {
          "duration": 0.11999999999999744,
          "durationTicks": 96,
          "midi": 74,
          "name": "D5",
          "ticks": 17568,
          "time": 21.96,
          "velocity": 0.2204724409448819
        },
        {
          "duration": 0.120000000000001,
          "durationTicks": 96,
          "midi": 71,
          "name": "B4",
          "ticks": 17664,
          "time": 22.08,
          "velocity": 0.1968503937007874
        },
        {
          "duration": 0.120000000000001,
          "durationTicks": 96,
          "midi": 74,
          "name": "D5",
          "ticks": 17760,
          "time": 22.2,
          "velocity": 0.2125984251968504
        },
        {
          "duration": 0.11999999999999744,
          "durationTicks": 96,
          "midi": 71,
          "name": "B4",
          "ticks": 17856,
          "time": 22.32,
          "velocity": 0.1968503937007874
        },
        {
          "duration": 0.120000000000001,
          "durationTicks": 96,
          "midi": 71,
          "name": "B4",
          "ticks": 17952,
          "time": 22.439999999999998,
          "velocity": 0.1889763779527559
        },
        {
          "duration": 0.120000000000001,
          "durationTicks": 96,
          "midi": 73,
          "name": "C#5",
          "ticks": 18048,
          "time": 22.56,
          "velocity": 0.2204724409448819
        },
        {
          "duration": 0.120000000000001,
          "durationTicks": 96,
          "midi": 71,
          "name": "B4",
          "ticks": 18144,
          "time": 22.68,
          "velocity": 0.1889763779527559
        },
        {
          "duration": 0.11999999999999744,
          "durationTicks": 96,
          "midi": 73,
          "name": "C#5",
          "ticks": 18240,
          "time": 22.8,
          "velocity": 0.2047244094488189
        },
        {
          "duration": 0.120000000000001,
          "durationTicks": 96,
          "midi": 73,
          "name": "C#5",
          "ticks": 18336,
          "time": 22.919999999999998,
          "velocity": 0.2283464566929134
        },
        {
          "duration": 0.120000000000001,
          "durationTicks": 96,
          "midi": 69,
          "name": "A4",
          "ticks": 18432,
          "time": 23.04,
          "velocity": 0.2125984251968504
        },
        {
          "duration": 0.11999999999999744,
          "durationTicks": 96,
          "midi": 73,
          "name": "C#5",
          "ticks": 18528,
          "time": 23.16,
          "velocity": 0.1968503937007874
        },
        {
          "duration": 0.120000000000001,
          "durationTicks": 96,
          "midi": 69,
          "name": "A4",
          "ticks": 18624,
          "time": 23.279999999999998,
          "velocity": 0.2125984251968504
        },
        {
          "duration": 0.120000000000001,
          "durationTicks": 96,
          "midi": 69,
          "name": "A4",
          "ticks": 18720,
          "time": 23.4,
          "velocity": 0.2204724409448819
        },
        {
          "duration": 0.120000000000001,
          "durationTicks": 96,
          "midi": 68,
          "name": "G#4",
          "ticks": 18816,
          "time": 23.52,
          "velocity": 0.2125984251968504
        },
        {
          "duration": 0.11999999999999744,
          "durationTicks": 96,
          "midi": 69,
          "name": "A4",
          "ticks": 18912,
          "time": 23.64,
          "velocity": 0.2125984251968504
        },
        {
          "duration": 0.120000000000001,
          "durationTicks": 96,
          "midi": 68,
          "name": "G#4",
          "ticks": 19008,
          "time": 23.759999999999998,
          "velocity": 0.18110236220472442
        },
        {
          "duration": 0.120000000000001,
          "durationTicks": 96,
          "midi": 68,
          "name": "G#4",
          "ticks": 19104,
          "time": 23.88,
          "velocity": 0.18110236220472442
        },
        {
          "duration": 0.11999999999999744,
          "durationTicks": 96,
          "midi": 69,
          "name": "A4",
          "ticks": 19200,
          "time": 24,
          "velocity": 0.23622047244094488
        },
        {
          "duration": 0.120000000000001,
          "durationTicks": 96,
          "midi": 68,
          "name": "G#4",
          "ticks": 19296,
          "time": 24.119999999999997,
          "velocity": 0.18110236220472442
        },
        {
          "duration": 0.120000000000001,
          "durationTicks": 96,
          "midi": 69,
          "name": "A4",
          "ticks": 19392,
          "time": 24.24,
          "velocity": 0.2440944881889764
        },
        {
          "duration": 0.120000000000001,
          "durationTicks": 96,
          "midi": 69,
          "name": "A4",
          "ticks": 19488,
          "time": 24.36,
          "velocity": 0.2204724409448819
        },
        {
          "duration": 0.11999999999999744,
          "durationTicks": 96,
          "midi": 66,
          "name": "F#4",
          "ticks": 19584,
          "time": 24.48,
          "velocity": 0.2204724409448819
        },
        {
          "duration": 0.120000000000001,
          "durationTicks": 96,
          "midi": 69,
          "name": "A4",
          "ticks": 19680,
          "time": 24.599999999999998,
          "velocity": 0.2204724409448819
        },
        {
          "duration": 0.120000000000001,
          "durationTicks": 96,
          "midi": 66,
          "name": "F#4",
          "ticks": 19776,
          "time": 24.72,
          "velocity": 0.1889763779527559
        },
        {
          "duration": 0.120000000000001,
          "durationTicks": 96,
          "midi": 66,
          "name": "F#4",
          "ticks": 19872,
          "time": 24.84,
          "velocity": 0.1968503937007874
        },
        {
          "duration": 0.11999999999999744,
          "durationTicks": 96,
          "midi": 64,
          "name": "E4",
          "ticks": 19968,
          "time": 24.96,
          "velocity": 0.2047244094488189
        },
        {
          "duration": 0.120000000000001,
          "durationTicks": 96,
          "midi": 66,
          "name": "F#4",
          "ticks": 20064,
          "time": 25.08,
          "velocity": 0.1968503937007874
        },
        {
          "duration": 0.120000000000001,
          "durationTicks": 96,
          "midi": 64,
          "name": "E4",
          "ticks": 20160,
          "time": 25.2,
          "velocity": 0.18110236220472442
        },
        {
          "duration": 0.11999999999999744,
          "durationTicks": 96,
          "midi": 66,
          "name": "F#4",
          "ticks": 20256,
          "time": 25.32,
          "velocity": 0.18110236220472442
        },
        {
          "duration": 0.120000000000001,
          "durationTicks": 96,
          "midi": 71,
          "name": "B4",
          "ticks": 20352,
          "time": 25.439999999999998,
          "velocity": 0.2047244094488189
        },
        {
          "duration": 0.120000000000001,
          "durationTicks": 96,
          "midi": 64,
          "name": "E4",
          "ticks": 20448,
          "time": 25.56,
          "velocity": 0.1732283464566929
        },
        {
          "duration": 0.120000000000001,
          "durationTicks": 96,
          "midi": 71,
          "name": "B4",
          "ticks": 20544,
          "time": 25.68,
          "velocity": 0.1968503937007874
        },
        {
          "duration": 0.11999999999999744,
          "durationTicks": 96,
          "midi": 71,
          "name": "B4",
          "ticks": 20640,
          "time": 25.8,
          "velocity": 0.1968503937007874
        },
        {
          "duration": 0.120000000000001,
          "durationTicks": 96,
          "midi": 71,
          "name": "B4",
          "ticks": 20736,
          "time": 25.919999999999998,
          "velocity": 0.1968503937007874
        },
        {
          "duration": 0.120000000000001,
          "durationTicks": 96,
          "midi": 71,
          "name": "B4",
          "ticks": 20832,
          "time": 26.04,
          "velocity": 0.18110236220472442
        },
        {
          "duration": 0.11999999999999744,
          "durationTicks": 96,
          "midi": 71,
          "name": "B4",
          "ticks": 20928,
          "time": 26.16,
          "velocity": 0.18110236220472442
        },
        {
          "duration": 0.120000000000001,
          "durationTicks": 96,
          "midi": 71,
          "name": "B4",
          "ticks": 21024,
          "time": 26.279999999999998,
          "velocity": 0.18110236220472442
        },
        {
          "duration": 0.120000000000001,
          "durationTicks": 96,
          "midi": 73,
          "name": "C#5",
          "ticks": 21120,
          "time": 26.4,
          "velocity": 0.2125984251968504
        },
        {
          "duration": 0.120000000000001,
          "durationTicks": 96,
          "midi": 71,
          "name": "B4",
          "ticks": 21216,
          "time": 26.52,
          "velocity": 0.1732283464566929
        },
        {
          "duration": 0.11999999999999744,
          "durationTicks": 96,
          "midi": 73,
          "name": "C#5",
          "ticks": 21312,
          "time": 26.64,
          "velocity": 0.2047244094488189
        },
        {
          "duration": 0.120000000000001,
          "durationTicks": 96,
          "midi": 73,
          "name": "C#5",
          "ticks": 21408,
          "time": 26.759999999999998,
          "velocity": 0.2204724409448819
        },
        {
          "duration": 0.120000000000001,
          "durationTicks": 96,
          "midi": 76,
          "name": "E5",
          "ticks": 21504,
          "time": 26.88,
          "velocity": 0.2047244094488189
        },
        {
          "duration": 0.11999999999999744,
          "durationTicks": 96,
          "midi": 73,
          "name": "C#5",
          "ticks": 21600,
          "time": 27,
          "velocity": 0.2204724409448819
        },
        {
          "duration": 0.120000000000001,
          "durationTicks": 96,
          "midi": 76,
          "name": "E5",
          "ticks": 21696,
          "time": 27.119999999999997,
          "velocity": 0.1968503937007874
        },
        {
          "duration": 0.120000000000001,
          "durationTicks": 96,
          "midi": 76,
          "name": "E5",
          "ticks": 21792,
          "time": 27.24,
          "velocity": 0.1732283464566929
        },
        {
          "duration": 0.120000000000001,
          "durationTicks": 96,
          "midi": 73,
          "name": "C#5",
          "ticks": 21888,
          "time": 27.36,
          "velocity": 0.2204724409448819
        },
        {
          "duration": 0.11999999999999744,
          "durationTicks": 96,
          "midi": 76,
          "name": "E5",
          "ticks": 21984,
          "time": 27.48,
          "velocity": 0.1732283464566929
        },
        {
          "duration": 0.120000000000001,
          "durationTicks": 96,
          "midi": 73,
          "name": "C#5",
          "ticks": 22080,
          "time": 27.599999999999998,
          "velocity": 0.18110236220472442
        },
        {
          "duration": 0.120000000000001,
          "durationTicks": 96,
          "midi": 73,
          "name": "C#5",
          "ticks": 22176,
          "time": 27.72,
          "velocity": 0.18110236220472442
        },
        {
          "duration": 0.11999999999999744,
          "durationTicks": 96,
          "midi": 71,
          "name": "B4",
          "ticks": 22272,
          "time": 27.84,
          "velocity": 0.18110236220472442
        },
        {
          "duration": 0.120000000000001,
          "durationTicks": 96,
          "midi": 73,
          "name": "C#5",
          "ticks": 22368,
          "time": 27.959999999999997,
          "velocity": 0.1968503937007874
        },
        {
          "duration": 0.120000000000001,
          "durationTicks": 96,
          "midi": 71,
          "name": "B4",
          "ticks": 22464,
          "time": 28.08,
          "velocity": 0.18110236220472442
        },
        {
          "duration": 0.120000000000001,
          "durationTicks": 96,
          "midi": 71,
          "name": "B4",
          "ticks": 22560,
          "time": 28.2,
          "velocity": 0.1732283464566929
        },
        {
          "duration": 0.11999999999999744,
          "durationTicks": 96,
          "midi": 69,
          "name": "A4",
          "ticks": 22656,
          "time": 28.32,
          "velocity": 0.2204724409448819
        },
        {
          "duration": 0.120000000000001,
          "durationTicks": 96,
          "midi": 71,
          "name": "B4",
          "ticks": 22752,
          "time": 28.439999999999998,
          "velocity": 0.1968503937007874
        },
        {
          "duration": 0.120000000000001,
          "durationTicks": 96,
          "midi": 69,
          "name": "A4",
          "ticks": 22848,
          "time": 28.56,
          "velocity": 0.2125984251968504
        },
        {
          "duration": 0.11999999999999744,
          "durationTicks": 96,
          "midi": 69,
          "name": "A4",
          "ticks": 22944,
          "time": 28.68,
          "velocity": 0.2204724409448819
        },
        {
          "duration": 0.120000000000001,
          "durationTicks": 96,
          "midi": 71,
          "name": "B4",
          "ticks": 23040,
          "time": 28.799999999999997,
          "velocity": 0.2047244094488189
        },
        {
          "duration": 0.120000000000001,
          "durationTicks": 96,
          "midi": 69,
          "name": "A4",
          "ticks": 23136,
          "time": 28.919999999999998,
          "velocity": 0.2125984251968504
        },
        {
          "duration": 0.120000000000001,
          "durationTicks": 96,
          "midi": 71,
          "name": "B4",
          "ticks": 23232,
          "time": 29.04,
          "velocity": 0.2125984251968504
        },
        {
          "duration": 0.11999999999999744,
          "durationTicks": 96,
          "midi": 69,
          "name": "A4",
          "ticks": 23328,
          "time": 29.16,
          "velocity": 0.2125984251968504
        },
        {
          "duration": 0.120000000000001,
          "durationTicks": 96,
          "midi": 74,
          "name": "D5",
          "ticks": 23424,
          "time": 29.279999999999998,
          "velocity": 0.2204724409448819
        },
        {
          "duration": 0.120000000000001,
          "durationTicks": 96,
          "midi": 71,
          "name": "B4",
          "ticks": 23520,
          "time": 29.4,
          "velocity": 0.2204724409448819
        },
        {
          "duration": 0.120000000000001,
          "durationTicks": 96,
          "midi": 74,
          "name": "D5",
          "ticks": 23616,
          "time": 29.52,
          "velocity": 0.23622047244094488
        },
        {
          "duration": 0.11999999999999744,
          "durationTicks": 96,
          "midi": 74,
          "name": "D5",
          "ticks": 23712,
          "time": 29.64,
          "velocity": 0.2204724409448819
        },
        {
          "duration": 0.120000000000001,
          "durationTicks": 96,
          "midi": 71,
          "name": "B4",
          "ticks": 23808,
          "time": 29.759999999999998,
          "velocity": 0.1968503937007874
        },
        {
          "duration": 0.120000000000001,
          "durationTicks": 96,
          "midi": 74,
          "name": "D5",
          "ticks": 23904,
          "time": 29.88,
          "velocity": 0.2125984251968504
        },
        {
          "duration": 0.11999999999999744,
          "durationTicks": 96,
          "midi": 71,
          "name": "B4",
          "ticks": 24000,
          "time": 30,
          "velocity": 0.18110236220472442
        },
        {
          "duration": 0.120000000000001,
          "durationTicks": 96,
          "midi": 71,
          "name": "B4",
          "ticks": 24096,
          "time": 30.119999999999997,
          "velocity": 0.1732283464566929
        },
        {
          "duration": 0.120000000000001,
          "durationTicks": 96,
          "midi": 73,
          "name": "C#5",
          "ticks": 24192,
          "time": 30.24,
          "velocity": 0.2047244094488189
        },
        {
          "duration": 0.120000000000001,
          "durationTicks": 96,
          "midi": 71,
          "name": "B4",
          "ticks": 24288,
          "time": 30.36,
          "velocity": 0.1889763779527559
        },
        {
          "duration": 0.11999999999999744,
          "durationTicks": 96,
          "midi": 73,
          "name": "C#5",
          "ticks": 24384,
          "time": 30.48,
          "velocity": 0.2047244094488189
        },
        {
          "duration": 0.120000000000001,
          "durationTicks": 96,
          "midi": 73,
          "name": "C#5",
          "ticks": 24480,
          "time": 30.599999999999998,
          "velocity": 0.2125984251968504
        },
        {
          "duration": 0.120000000000001,
          "durationTicks": 96,
          "midi": 69,
          "name": "A4",
          "ticks": 24576,
          "time": 30.72,
          "velocity": 0.2283464566929134
        },
        {
          "duration": 0.11999999999999744,
          "durationTicks": 96,
          "midi": 73,
          "name": "C#5",
          "ticks": 24672,
          "time": 30.84,
          "velocity": 0.1889763779527559
        },
        {
          "duration": 0.120000000000001,
          "durationTicks": 96,
          "midi": 69,
          "name": "A4",
          "ticks": 24768,
          "time": 30.959999999999997,
          "velocity": 0.2125984251968504
        },
        {
          "duration": 0.120000000000001,
          "durationTicks": 96,
          "midi": 69,
          "name": "A4",
          "ticks": 24864,
          "time": 31.08,
          "velocity": 0.2125984251968504
        },
        {
          "duration": 0.120000000000001,
          "durationTicks": 96,
          "midi": 68,
          "name": "G#4",
          "ticks": 24960,
          "time": 31.2,
          "velocity": 0.1732283464566929
        },
        {
          "duration": 0.11999999999999744,
          "durationTicks": 96,
          "midi": 69,
          "name": "A4",
          "ticks": 25056,
          "time": 31.32,
          "velocity": 0.2125984251968504
        },
        {
          "duration": 0.120000000000001,
          "durationTicks": 96,
          "midi": 68,
          "name": "G#4",
          "ticks": 25152,
          "time": 31.439999999999998,
          "velocity": 0.1968503937007874
        },
        {
          "duration": 0.120000000000001,
          "durationTicks": 96,
          "midi": 68,
          "name": "G#4",
          "ticks": 25248,
          "time": 31.56,
          "velocity": 0.1968503937007874
        },
        {
          "duration": 0.11999999999999744,
          "durationTicks": 96,
          "midi": 69,
          "name": "A4",
          "ticks": 25344,
          "time": 31.68,
          "velocity": 0.2204724409448819
        },
        {
          "duration": 0.120000000000001,
          "durationTicks": 96,
          "midi": 68,
          "name": "G#4",
          "ticks": 25440,
          "time": 31.799999999999997,
          "velocity": 0.2047244094488189
        },
        {
          "duration": 0.120000000000001,
          "durationTicks": 96,
          "midi": 69,
          "name": "A4",
          "ticks": 25536,
          "time": 31.919999999999998,
          "velocity": 0.2204724409448819
        },
        {
          "duration": 0.11999999999999744,
          "durationTicks": 96,
          "midi": 69,
          "name": "A4",
          "ticks": 25632,
          "time": 32.04,
          "velocity": 0.2125984251968504
        },
        {
          "duration": 0.12000000000000455,
          "durationTicks": 96,
          "midi": 66,
          "name": "F#4",
          "ticks": 25728,
          "time": 32.16,
          "velocity": 0.18110236220472442
        },
        {
          "duration": 0.11999999999999744,
          "durationTicks": 96,
          "midi": 69,
          "name": "A4",
          "ticks": 25824,
          "time": 32.28,
          "velocity": 0.2204724409448819
        },
        {
          "duration": 0.11999999999999744,
          "durationTicks": 96,
          "midi": 66,
          "name": "F#4",
          "ticks": 25920,
          "time": 32.4,
          "velocity": 0.1968503937007874
        },
        {
          "duration": 0.12000000000000455,
          "durationTicks": 96,
          "midi": 66,
          "name": "F#4",
          "ticks": 26016,
          "time": 32.519999999999996,
          "velocity": 0.1889763779527559
        },
        {
          "duration": 0.11999999999999744,
          "durationTicks": 96,
          "midi": 64,
          "name": "E4",
          "ticks": 26112,
          "time": 32.64,
          "velocity": 0.2125984251968504
        },
        {
          "duration": 0.11999999999999744,
          "durationTicks": 96,
          "midi": 66,
          "name": "F#4",
          "ticks": 26208,
          "time": 32.76,
          "velocity": 0.2047244094488189
        },
        {
          "duration": 0.12000000000000455,
          "durationTicks": 96,
          "midi": 64,
          "name": "E4",
          "ticks": 26304,
          "time": 32.879999999999995,
          "velocity": 0.2047244094488189
        },
        {
          "duration": 0.11999999999999744,
          "durationTicks": 96,
          "midi": 64,
          "name": "E4",
          "ticks": 26400,
          "time": 33,
          "velocity": 0.1889763779527559
        },
        {
          "duration": 0.12000000000000455,
          "durationTicks": 96,
          "midi": 71,
          "name": "B4",
          "ticks": 26496,
          "time": 33.12,
          "velocity": 0.2204724409448819
        },
        {
          "duration": 0.11999999999999744,
          "durationTicks": 96,
          "midi": 64,
          "name": "E4",
          "ticks": 26592,
          "time": 33.24,
          "velocity": 0.1968503937007874
        },
        {
          "duration": 0.11999999999999744,
          "durationTicks": 96,
          "midi": 71,
          "name": "B4",
          "ticks": 26688,
          "time": 33.36,
          "velocity": 0.18110236220472442
        },
        {
          "duration": 0.12000000000000455,
          "durationTicks": 96,
          "midi": 71,
          "name": "B4",
          "ticks": 26784,
          "time": 33.48,
          "velocity": 0.1889763779527559
        },
        {
          "duration": 0.11999999999999744,
          "durationTicks": 96,
          "midi": 71,
          "name": "B4",
          "ticks": 26880,
          "time": 33.6,
          "velocity": 0.1732283464566929
        },
        {
          "duration": 0.11999999999999744,
          "durationTicks": 96,
          "midi": 71,
          "name": "B4",
          "ticks": 26976,
          "time": 33.72,
          "velocity": 0.1889763779527559
        },
        {
          "duration": 0.12000000000000455,
          "durationTicks": 96,
          "midi": 71,
          "name": "B4",
          "ticks": 27072,
          "time": 33.839999999999996,
          "velocity": 0.1968503937007874
        },
        {
          "duration": 0.11999999999999744,
          "durationTicks": 96,
          "midi": 71,
          "name": "B4",
          "ticks": 27168,
          "time": 33.96,
          "velocity": 0.18110236220472442
        },
        {
          "duration": 0.11999999999999744,
          "durationTicks": 96,
          "midi": 73,
          "name": "C#5",
          "ticks": 27264,
          "time": 34.08,
          "velocity": 0.2125984251968504
        },
        {
          "duration": 0.12000000000000455,
          "durationTicks": 96,
          "midi": 71,
          "name": "B4",
          "ticks": 27360,
          "time": 34.199999999999996,
          "velocity": 0.1732283464566929
        },
        {
          "duration": 0.11999999999999744,
          "durationTicks": 96,
          "midi": 73,
          "name": "C#5",
          "ticks": 27456,
          "time": 34.32,
          "velocity": 0.1968503937007874
        },
        {
          "duration": 0.12000000000000455,
          "durationTicks": 96,
          "midi": 73,
          "name": "C#5",
          "ticks": 27552,
          "time": 34.44,
          "velocity": 0.1968503937007874
        },
        {
          "duration": 0.11999999999999744,
          "durationTicks": 96,
          "midi": 76,
          "name": "E5",
          "ticks": 27648,
          "time": 34.56,
          "velocity": 0.1968503937007874
        },
        {
          "duration": 0.11999999999999744,
          "durationTicks": 96,
          "midi": 73,
          "name": "C#5",
          "ticks": 27744,
          "time": 34.68,
          "velocity": 0.1968503937007874
        },
        {
          "duration": 0.12000000000000455,
          "durationTicks": 96,
          "midi": 76,
          "name": "E5",
          "ticks": 27840,
          "time": 34.8,
          "velocity": 0.1732283464566929
        },
        {
          "duration": 0.11999999999999744,
          "durationTicks": 96,
          "midi": 76,
          "name": "E5",
          "ticks": 27936,
          "time": 34.92,
          "velocity": 0.1732283464566929
        },
        {
          "duration": 0.11999999999999744,
          "durationTicks": 96,
          "midi": 73,
          "name": "C#5",
          "ticks": 28032,
          "time": 35.04,
          "velocity": 0.1732283464566929
        },
        {
          "duration": 0.12000000000000455,
          "durationTicks": 96,
          "midi": 76,
          "name": "E5",
          "ticks": 28128,
          "time": 35.16,
          "velocity": 0.18110236220472442
        },
        {
          "duration": 0.11999999999999744,
          "durationTicks": 96,
          "midi": 73,
          "name": "C#5",
          "ticks": 28224,
          "time": 35.28,
          "velocity": 0.2204724409448819
        },
        {
          "duration": 0.11999999999999744,
          "durationTicks": 96,
          "midi": 73,
          "name": "C#5",
          "ticks": 28320,
          "time": 35.4,
          "velocity": 0.2283464566929134
        },
        {
          "duration": 0.12000000000000455,
          "durationTicks": 96,
          "midi": 71,
          "name": "B4",
          "ticks": 28416,
          "time": 35.519999999999996,
          "velocity": 0.1889763779527559
        },
        {
          "duration": 0.11999999999999744,
          "durationTicks": 96,
          "midi": 73,
          "name": "C#5",
          "ticks": 28512,
          "time": 35.64,
          "velocity": 0.1968503937007874
        },
        {
          "duration": 0.11999999999999744,
          "durationTicks": 96,
          "midi": 71,
          "name": "B4",
          "ticks": 28608,
          "time": 35.76,
          "velocity": 0.18110236220472442
        },
        {
          "duration": 0.12000000000000455,
          "durationTicks": 96,
          "midi": 71,
          "name": "B4",
          "ticks": 28704,
          "time": 35.879999999999995,
          "velocity": 0.1732283464566929
        },
        {
          "duration": 0.11999999999999744,
          "durationTicks": 96,
          "midi": 69,
          "name": "A4",
          "ticks": 28800,
          "time": 36,
          "velocity": 0.2204724409448819
        },
        {
          "duration": 0.12000000000000455,
          "durationTicks": 96,
          "midi": 71,
          "name": "B4",
          "ticks": 28896,
          "time": 36.12,
          "velocity": 0.14960629921259844
        },
        {
          "duration": 0.11999999999999744,
          "durationTicks": 96,
          "midi": 69,
          "name": "A4",
          "ticks": 28992,
          "time": 36.24,
          "velocity": 0.2125984251968504
        },
        {
          "duration": 0.11999999999999744,
          "durationTicks": 96,
          "midi": 69,
          "name": "A4",
          "ticks": 29088,
          "time": 36.36,
          "velocity": 0.2204724409448819
        },
        {
          "duration": 0.12000000000000455,
          "durationTicks": 96,
          "midi": 68,
          "name": "G#4",
          "ticks": 29184,
          "time": 36.48,
          "velocity": 0.18110236220472442
        },
        {
          "duration": 0.11999999999999744,
          "durationTicks": 96,
          "midi": 69,
          "name": "A4",
          "ticks": 29280,
          "time": 36.6,
          "velocity": 0.2047244094488189
        },
        {
          "duration": 0.11999999999999744,
          "durationTicks": 96,
          "midi": 68,
          "name": "G#4",
          "ticks": 29376,
          "time": 36.72,
          "velocity": 0.1968503937007874
        },
        {
          "duration": 0.12000000000000455,
          "durationTicks": 96,
          "midi": 68,
          "name": "G#4",
          "ticks": 29472,
          "time": 36.839999999999996,
          "velocity": 0.1968503937007874
        },
        {
          "duration": 0.23999999999999488,
          "durationTicks": 192,
          "midi": 74,
          "name": "D5",
          "ticks": 29568,
          "time": 36.96,
          "velocity": 0.2204724409448819
        },
        {
          "duration": 0.12000000000000455,
          "durationTicks": 96,
          "midi": 74,
          "name": "D5",
          "ticks": 29760,
          "time": 37.199999999999996,
          "velocity": 0.2204724409448819
        },
        {
          "duration": 0.11999999999999744,
          "durationTicks": 96,
          "midi": 74,
          "name": "D5",
          "ticks": 29856,
          "time": 37.32,
          "velocity": 0.2204724409448819
        },
        {
          "duration": 0.11999999999999744,
          "durationTicks": 96,
          "midi": 71,
          "name": "B4",
          "ticks": 29952,
          "time": 37.44,
          "velocity": 0.1968503937007874
        },
        {
          "duration": 0.12000000000000455,
          "durationTicks": 96,
          "midi": 74,
          "name": "D5",
          "ticks": 30048,
          "time": 37.559999999999995,
          "velocity": 0.2125984251968504
        },
        {
          "duration": 0.11999999999999744,
          "durationTicks": 96,
          "midi": 71,
          "name": "B4",
          "ticks": 30144,
          "time": 37.68,
          "velocity": 0.1968503937007874
        },
        {
          "duration": 0.12000000000000455,
          "durationTicks": 96,
          "midi": 71,
          "name": "B4",
          "ticks": 30240,
          "time": 37.8,
          "velocity": 0.1889763779527559
        },
        {
          "duration": 0.11999999999999744,
          "durationTicks": 96,
          "midi": 73,
          "name": "C#5",
          "ticks": 30336,
          "time": 37.92,
          "velocity": 0.2204724409448819
        },
        {
          "duration": 0.11999999999999744,
          "durationTicks": 96,
          "midi": 71,
          "name": "B4",
          "ticks": 30432,
          "time": 38.04,
          "velocity": 0.1889763779527559
        },
        {
          "duration": 0.12000000000000455,
          "durationTicks": 96,
          "midi": 73,
          "name": "C#5",
          "ticks": 30528,
          "time": 38.16,
          "velocity": 0.2047244094488189
        },
        {
          "duration": 0.11999999999999744,
          "durationTicks": 96,
          "midi": 73,
          "name": "C#5",
          "ticks": 30624,
          "time": 38.28,
          "velocity": 0.2283464566929134
        },
        {
          "duration": 0.11999999999999744,
          "durationTicks": 96,
          "midi": 69,
          "name": "A4",
          "ticks": 30720,
          "time": 38.4,
          "velocity": 0.2125984251968504
        },
        {
          "duration": 0.12000000000000455,
          "durationTicks": 96,
          "midi": 73,
          "name": "C#5",
          "ticks": 30816,
          "time": 38.519999999999996,
          "velocity": 0.1968503937007874
        },
        {
          "duration": 0.11999999999999744,
          "durationTicks": 96,
          "midi": 69,
          "name": "A4",
          "ticks": 30912,
          "time": 38.64,
          "velocity": 0.2125984251968504
        },
        {
          "duration": 0.11999999999999744,
          "durationTicks": 96,
          "midi": 69,
          "name": "A4",
          "ticks": 31008,
          "time": 38.76,
          "velocity": 0.2204724409448819
        },
        {
          "duration": 0.12000000000000455,
          "durationTicks": 96,
          "midi": 68,
          "name": "G#4",
          "ticks": 31104,
          "time": 38.879999999999995,
          "velocity": 0.2125984251968504
        },
        {
          "duration": 0.11999999999999744,
          "durationTicks": 96,
          "midi": 69,
          "name": "A4",
          "ticks": 31200,
          "time": 39,
          "velocity": 0.2125984251968504
        },
        {
          "duration": 0.12000000000000455,
          "durationTicks": 96,
          "midi": 68,
          "name": "G#4",
          "ticks": 31296,
          "time": 39.12,
          "velocity": 0.18110236220472442
        },
        {
          "duration": 0.11999999999999744,
          "durationTicks": 96,
          "midi": 68,
          "name": "G#4",
          "ticks": 31392,
          "time": 39.24,
          "velocity": 0.18110236220472442
        },
        {
          "duration": 0.11999999999999744,
          "durationTicks": 96,
          "midi": 69,
          "name": "A4",
          "ticks": 31488,
          "time": 39.36,
          "velocity": 0.23622047244094488
        },
        {
          "duration": 0.12000000000000455,
          "durationTicks": 96,
          "midi": 68,
          "name": "G#4",
          "ticks": 31584,
          "time": 39.48,
          "velocity": 0.18110236220472442
        },
        {
          "duration": 0.11999999999999744,
          "durationTicks": 96,
          "midi": 69,
          "name": "A4",
          "ticks": 31680,
          "time": 39.6,
          "velocity": 0.2440944881889764
        },
        {
          "duration": 0.11999999999999744,
          "durationTicks": 96,
          "midi": 69,
          "name": "A4",
          "ticks": 31776,
          "time": 39.72,
          "velocity": 0.2204724409448819
        },
        {
          "duration": 0.12000000000000455,
          "durationTicks": 96,
          "midi": 66,
          "name": "F#4",
          "ticks": 31872,
          "time": 39.839999999999996,
          "velocity": 0.2204724409448819
        },
        {
          "duration": 0.11999999999999744,
          "durationTicks": 96,
          "midi": 69,
          "name": "A4",
          "ticks": 31968,
          "time": 39.96,
          "velocity": 0.2204724409448819
        },
        {
          "duration": 0.11999999999999744,
          "durationTicks": 96,
          "midi": 66,
          "name": "F#4",
          "ticks": 32064,
          "time": 40.08,
          "velocity": 0.1889763779527559
        },
        {
          "duration": 0.12000000000000455,
          "durationTicks": 96,
          "midi": 66,
          "name": "F#4",
          "ticks": 32160,
          "time": 40.199999999999996,
          "velocity": 0.1968503937007874
        },
        {
          "duration": 0.11999999999999744,
          "durationTicks": 96,
          "midi": 64,
          "name": "E4",
          "ticks": 32256,
          "time": 40.32,
          "velocity": 0.2047244094488189
        },
        {
          "duration": 0.11999999999999744,
          "durationTicks": 96,
          "midi": 66,
          "name": "F#4",
          "ticks": 32352,
          "time": 40.44,
          "velocity": 0.1968503937007874
        },
        {
          "duration": 0.12000000000000455,
          "durationTicks": 96,
          "midi": 64,
          "name": "E4",
          "ticks": 32448,
          "time": 40.559999999999995,
          "velocity": 0.18110236220472442
        },
        {
          "duration": 0.11999999999999744,
          "durationTicks": 96,
          "midi": 66,
          "name": "F#4",
          "ticks": 32544,
          "time": 40.68,
          "velocity": 0.18110236220472442
        },
        {
          "duration": 0.12000000000000455,
          "durationTicks": 96,
          "midi": 71,
          "name": "B4",
          "ticks": 32640,
          "time": 40.8,
          "velocity": 0.2047244094488189
        },
        {
          "duration": 0.11999999999999744,
          "durationTicks": 96,
          "midi": 64,
          "name": "E4",
          "ticks": 32736,
          "time": 40.92,
          "velocity": 0.1732283464566929
        },
        {
          "duration": 0.11999999999999744,
          "durationTicks": 96,
          "midi": 71,
          "name": "B4",
          "ticks": 32832,
          "time": 41.04,
          "velocity": 0.1968503937007874
        },
        {
          "duration": 0.12000000000000455,
          "durationTicks": 96,
          "midi": 71,
          "name": "B4",
          "ticks": 32928,
          "time": 41.16,
          "velocity": 0.1968503937007874
        },
        {
          "duration": 0.11999999999999744,
          "durationTicks": 96,
          "midi": 71,
          "name": "B4",
          "ticks": 33024,
          "time": 41.28,
          "velocity": 0.1968503937007874
        },
        {
          "duration": 0.11999999999999744,
          "durationTicks": 96,
          "midi": 71,
          "name": "B4",
          "ticks": 33120,
          "time": 41.4,
          "velocity": 0.18110236220472442
        },
        {
          "duration": 0.12000000000000455,
          "durationTicks": 96,
          "midi": 71,
          "name": "B4",
          "ticks": 33216,
          "time": 41.519999999999996,
          "velocity": 0.18110236220472442
        },
        {
          "duration": 0.11999999999999744,
          "durationTicks": 96,
          "midi": 71,
          "name": "B4",
          "ticks": 33312,
          "time": 41.64,
          "velocity": 0.18110236220472442
        },
        {
          "duration": 0.11999999999999744,
          "durationTicks": 96,
          "midi": 73,
          "name": "C#5",
          "ticks": 33408,
          "time": 41.76,
          "velocity": 0.2125984251968504
        },
        {
          "duration": 0.12000000000000455,
          "durationTicks": 96,
          "midi": 71,
          "name": "B4",
          "ticks": 33504,
          "time": 41.879999999999995,
          "velocity": 0.1732283464566929
        },
        {
          "duration": 0.11999999999999744,
          "durationTicks": 96,
          "midi": 73,
          "name": "C#5",
          "ticks": 33600,
          "time": 42,
          "velocity": 0.2047244094488189
        },
        {
          "duration": 0.11999999999999744,
          "durationTicks": 96,
          "midi": 73,
          "name": "C#5",
          "ticks": 33696,
          "time": 42.12,
          "velocity": 0.2204724409448819
        },
        {
          "duration": 0.12000000000000455,
          "durationTicks": 96,
          "midi": 76,
          "name": "E5",
          "ticks": 33792,
          "time": 42.239999999999995,
          "velocity": 0.2047244094488189
        },
        {
          "duration": 0.11999999999999744,
          "durationTicks": 96,
          "midi": 73,
          "name": "C#5",
          "ticks": 33888,
          "time": 42.36,
          "velocity": 0.2204724409448819
        },
        {
          "duration": 0.12000000000000455,
          "durationTicks": 96,
          "midi": 76,
          "name": "E5",
          "ticks": 33984,
          "time": 42.48,
          "velocity": 0.1968503937007874
        },
        {
          "duration": 0.11999999999999744,
          "durationTicks": 96,
          "midi": 76,
          "name": "E5",
          "ticks": 34080,
          "time": 42.6,
          "velocity": 0.1732283464566929
        },
        {
          "duration": 0.11999999999999744,
          "durationTicks": 96,
          "midi": 73,
          "name": "C#5",
          "ticks": 34176,
          "time": 42.72,
          "velocity": 0.2204724409448819
        },
        {
          "duration": 0.12000000000000455,
          "durationTicks": 96,
          "midi": 76,
          "name": "E5",
          "ticks": 34272,
          "time": 42.839999999999996,
          "velocity": 0.1732283464566929
        },
        {
          "duration": 0.11999999999999744,
          "durationTicks": 96,
          "midi": 73,
          "name": "C#5",
          "ticks": 34368,
          "time": 42.96,
          "velocity": 0.18110236220472442
        },
        {
          "duration": 0.11999999999999744,
          "durationTicks": 96,
          "midi": 73,
          "name": "C#5",
          "ticks": 34464,
          "time": 43.08,
          "velocity": 0.18110236220472442
        },
        {
          "duration": 0.12000000000000455,
          "durationTicks": 96,
          "midi": 71,
          "name": "B4",
          "ticks": 34560,
          "time": 43.199999999999996,
          "velocity": 0.18110236220472442
        },
        {
          "duration": 0.11999999999999744,
          "durationTicks": 96,
          "midi": 73,
          "name": "C#5",
          "ticks": 34656,
          "time": 43.32,
          "velocity": 0.1968503937007874
        },
        {
          "duration": 0.11999999999999744,
          "durationTicks": 96,
          "midi": 71,
          "name": "B4",
          "ticks": 34752,
          "time": 43.44,
          "velocity": 0.18110236220472442
        },
        {
          "duration": 0.12000000000000455,
          "durationTicks": 96,
          "midi": 71,
          "name": "B4",
          "ticks": 34848,
          "time": 43.559999999999995,
          "velocity": 0.1732283464566929
        },
        {
          "duration": 0.11999999999999744,
          "durationTicks": 96,
          "midi": 69,
          "name": "A4",
          "ticks": 34944,
          "time": 43.68,
          "velocity": 0.2204724409448819
        },
        {
          "duration": 0.12000000000000455,
          "durationTicks": 96,
          "midi": 71,
          "name": "B4",
          "ticks": 35040,
          "time": 43.8,
          "velocity": 0.1968503937007874
        },
        {
          "duration": 0.11999999999999744,
          "durationTicks": 96,
          "midi": 69,
          "name": "A4",
          "ticks": 35136,
          "time": 43.92,
          "velocity": 0.2125984251968504
        },
        {
          "duration": 0.11999999999999744,
          "durationTicks": 96,
          "midi": 69,
          "name": "A4",
          "ticks": 35232,
          "time": 44.04,
          "velocity": 0.2204724409448819
        },
        {
          "duration": 0.12000000000000455,
          "durationTicks": 96,
          "midi": 71,
          "name": "B4",
          "ticks": 35328,
          "time": 44.16,
          "velocity": 0.2047244094488189
        },
        {
          "duration": 0.11999999999999744,
          "durationTicks": 96,
          "midi": 69,
          "name": "A4",
          "ticks": 35424,
          "time": 44.28,
          "velocity": 0.2125984251968504
        },
        {
          "duration": 0.11999999999999744,
          "durationTicks": 96,
          "midi": 71,
          "name": "B4",
          "ticks": 35520,
          "time": 44.4,
          "velocity": 0.2125984251968504
        },
        {
          "duration": 0.12000000000000455,
          "durationTicks": 96,
          "midi": 69,
          "name": "A4",
          "ticks": 35616,
          "time": 44.519999999999996,
          "velocity": 0.2125984251968504
        },
        {
          "duration": 0.11999999999999744,
          "durationTicks": 96,
          "midi": 74,
          "name": "D5",
          "ticks": 35712,
          "time": 44.64,
          "velocity": 0.2204724409448819
        },
        {
          "duration": 0.11999999999999744,
          "durationTicks": 96,
          "midi": 71,
          "name": "B4",
          "ticks": 35808,
          "time": 44.76,
          "velocity": 0.2204724409448819
        },
        {
          "duration": 0.12000000000000455,
          "durationTicks": 96,
          "midi": 74,
          "name": "D5",
          "ticks": 35904,
          "time": 44.879999999999995,
          "velocity": 0.23622047244094488
        },
        {
          "duration": 0.11999999999999744,
          "durationTicks": 96,
          "midi": 74,
          "name": "D5",
          "ticks": 36000,
          "time": 45,
          "velocity": 0.2204724409448819
        },
        {
          "duration": 0.11999999999999744,
          "durationTicks": 96,
          "midi": 71,
          "name": "B4",
          "ticks": 36096,
          "time": 45.12,
          "velocity": 0.1968503937007874
        },
        {
          "duration": 0.12000000000000455,
          "durationTicks": 96,
          "midi": 74,
          "name": "D5",
          "ticks": 36192,
          "time": 45.239999999999995,
          "velocity": 0.2125984251968504
        },
        {
          "duration": 0.11999999999999744,
          "durationTicks": 96,
          "midi": 71,
          "name": "B4",
          "ticks": 36288,
          "time": 45.36,
          "velocity": 0.18110236220472442
        },
        {
          "duration": 0.12000000000000455,
          "durationTicks": 96,
          "midi": 71,
          "name": "B4",
          "ticks": 36384,
          "time": 45.48,
          "velocity": 0.1732283464566929
        },
        {
          "duration": 0.11999999999999744,
          "durationTicks": 96,
          "midi": 73,
          "name": "C#5",
          "ticks": 36480,
          "time": 45.6,
          "velocity": 0.2047244094488189
        },
        {
          "duration": 0.11999999999999744,
          "durationTicks": 96,
          "midi": 71,
          "name": "B4",
          "ticks": 36576,
          "time": 45.72,
          "velocity": 0.1889763779527559
        },
        {
          "duration": 0.12000000000000455,
          "durationTicks": 96,
          "midi": 73,
          "name": "C#5",
          "ticks": 36672,
          "time": 45.839999999999996,
          "velocity": 0.2047244094488189
        },
        {
          "duration": 0.11999999999999744,
          "durationTicks": 96,
          "midi": 73,
          "name": "C#5",
          "ticks": 36768,
          "time": 45.96,
          "velocity": 0.2125984251968504
        },
        {
          "duration": 0.11999999999999744,
          "durationTicks": 96,
          "midi": 69,
          "name": "A4",
          "ticks": 36864,
          "time": 46.08,
          "velocity": 0.2283464566929134
        },
        {
          "duration": 0.12000000000000455,
          "durationTicks": 96,
          "midi": 73,
          "name": "C#5",
          "ticks": 36960,
          "time": 46.199999999999996,
          "velocity": 0.1889763779527559
        },
        {
          "duration": 0.11999999999999744,
          "durationTicks": 96,
          "midi": 69,
          "name": "A4",
          "ticks": 37056,
          "time": 46.32,
          "velocity": 0.2125984251968504
        },
        {
          "duration": 0.11999999999999744,
          "durationTicks": 96,
          "midi": 69,
          "name": "A4",
          "ticks": 37152,
          "time": 46.44,
          "velocity": 0.2125984251968504
        },
        {
          "duration": 0.12000000000000455,
          "durationTicks": 96,
          "midi": 68,
          "name": "G#4",
          "ticks": 37248,
          "time": 46.559999999999995,
          "velocity": 0.1732283464566929
        },
        {
          "duration": 0.11999999999999744,
          "durationTicks": 96,
          "midi": 69,
          "name": "A4",
          "ticks": 37344,
          "time": 46.68,
          "velocity": 0.2125984251968504
        },
        {
          "duration": 0.12000000000000455,
          "durationTicks": 96,
          "midi": 68,
          "name": "G#4",
          "ticks": 37440,
          "time": 46.8,
          "velocity": 0.1968503937007874
        },
        {
          "duration": 0.11999999999999744,
          "durationTicks": 96,
          "midi": 68,
          "name": "G#4",
          "ticks": 37536,
          "time": 46.92,
          "velocity": 0.1968503937007874
        },
        {
          "duration": 0.11999999999999744,
          "durationTicks": 96,
          "midi": 69,
          "name": "A4",
          "ticks": 37632,
          "time": 47.04,
          "velocity": 0.2204724409448819
        },
        {
          "duration": 0.12000000000000455,
          "durationTicks": 96,
          "midi": 68,
          "name": "G#4",
          "ticks": 37728,
          "time": 47.16,
          "velocity": 0.2047244094488189
        },
        {
          "duration": 0.11999999999999744,
          "durationTicks": 96,
          "midi": 69,
          "name": "A4",
          "ticks": 37824,
          "time": 47.28,
          "velocity": 0.2204724409448819
        },
        {
          "duration": 0.11999999999999744,
          "durationTicks": 96,
          "midi": 69,
          "name": "A4",
          "ticks": 37920,
          "time": 47.4,
          "velocity": 0.2125984251968504
        },
        {
          "duration": 0.12000000000000455,
          "durationTicks": 96,
          "midi": 66,
          "name": "F#4",
          "ticks": 38016,
          "time": 47.519999999999996,
          "velocity": 0.18110236220472442
        },
        {
          "duration": 0.11999999999999744,
          "durationTicks": 96,
          "midi": 69,
          "name": "A4",
          "ticks": 38112,
          "time": 47.64,
          "velocity": 0.2204724409448819
        },
        {
          "duration": 0.11999999999999744,
          "durationTicks": 96,
          "midi": 66,
          "name": "F#4",
          "ticks": 38208,
          "time": 47.76,
          "velocity": 0.1968503937007874
        },
        {
          "duration": 0.12000000000000455,
          "durationTicks": 96,
          "midi": 66,
          "name": "F#4",
          "ticks": 38304,
          "time": 47.879999999999995,
          "velocity": 0.1889763779527559
        },
        {
          "duration": 0.11999999999999744,
          "durationTicks": 96,
          "midi": 64,
          "name": "E4",
          "ticks": 38400,
          "time": 48,
          "velocity": 0.2125984251968504
        },
        {
          "duration": 0.11999999999999744,
          "durationTicks": 96,
          "midi": 66,
          "name": "F#4",
          "ticks": 38496,
          "time": 48.12,
          "velocity": 0.2047244094488189
        },
        {
          "duration": 0.12000000000000455,
          "durationTicks": 96,
          "midi": 64,
          "name": "E4",
          "ticks": 38592,
          "time": 48.239999999999995,
          "velocity": 0.2047244094488189
        },
        {
          "duration": 0.11999999999999744,
          "durationTicks": 96,
          "midi": 64,
          "name": "E4",
          "ticks": 38688,
          "time": 48.36,
          "velocity": 0.1889763779527559
        },
        {
          "duration": 0.12000000000000455,
          "durationTicks": 96,
          "midi": 71,
          "name": "B4",
          "ticks": 38784,
          "time": 48.48,
          "velocity": 0.2204724409448819
        },
        {
          "duration": 0.11999999999999744,
          "durationTicks": 96,
          "midi": 64,
          "name": "E4",
          "ticks": 38880,
          "time": 48.6,
          "velocity": 0.1968503937007874
        },
        {
          "duration": 0.11999999999999744,
          "durationTicks": 96,
          "midi": 71,
          "name": "B4",
          "ticks": 38976,
          "time": 48.72,
          "velocity": 0.18110236220472442
        },
        {
          "duration": 0.12000000000000455,
          "durationTicks": 96,
          "midi": 71,
          "name": "B4",
          "ticks": 39072,
          "time": 48.839999999999996,
          "velocity": 0.1889763779527559
        },
        {
          "duration": 0.11999999999999744,
          "durationTicks": 96,
          "midi": 71,
          "name": "B4",
          "ticks": 39168,
          "time": 48.96,
          "velocity": 0.1732283464566929
        },
        {
          "duration": 0.11999999999999744,
          "durationTicks": 96,
          "midi": 71,
          "name": "B4",
          "ticks": 39264,
          "time": 49.08,
          "velocity": 0.1889763779527559
        },
        {
          "duration": 0.12000000000000455,
          "durationTicks": 96,
          "midi": 71,
          "name": "B4",
          "ticks": 39360,
          "time": 49.199999999999996,
          "velocity": 0.1968503937007874
        },
        {
          "duration": 0.11999999999999744,
          "durationTicks": 96,
          "midi": 71,
          "name": "B4",
          "ticks": 39456,
          "time": 49.32,
          "velocity": 0.18110236220472442
        },
        {
          "duration": 0.11999999999999744,
          "durationTicks": 96,
          "midi": 73,
          "name": "C#5",
          "ticks": 39552,
          "time": 49.44,
          "velocity": 0.2125984251968504
        },
        {
          "duration": 0.12000000000000455,
          "durationTicks": 96,
          "midi": 71,
          "name": "B4",
          "ticks": 39648,
          "time": 49.559999999999995,
          "velocity": 0.1732283464566929
        },
        {
          "duration": 0.11999999999999744,
          "durationTicks": 96,
          "midi": 73,
          "name": "C#5",
          "ticks": 39744,
          "time": 49.68,
          "velocity": 0.1968503937007874
        },
        {
          "duration": 0.12000000000000455,
          "durationTicks": 96,
          "midi": 73,
          "name": "C#5",
          "ticks": 39840,
          "time": 49.8,
          "velocity": 0.1968503937007874
        },
        {
          "duration": 0.11999999999999744,
          "durationTicks": 96,
          "midi": 76,
          "name": "E5",
          "ticks": 39936,
          "time": 49.92,
          "velocity": 0.1968503937007874
        },
        {
          "duration": 0.11999999999999744,
          "durationTicks": 96,
          "midi": 73,
          "name": "C#5",
          "ticks": 40032,
          "time": 50.04,
          "velocity": 0.1968503937007874
        },
        {
          "duration": 0.12000000000000455,
          "durationTicks": 96,
          "midi": 76,
          "name": "E5",
          "ticks": 40128,
          "time": 50.16,
          "velocity": 0.1732283464566929
        },
        {
          "duration": 0.11999999999999744,
          "durationTicks": 96,
          "midi": 76,
          "name": "E5",
          "ticks": 40224,
          "time": 50.28,
          "velocity": 0.1732283464566929
        },
        {
          "duration": 0.11999999999999744,
          "durationTicks": 96,
          "midi": 73,
          "name": "C#5",
          "ticks": 40320,
          "time": 50.4,
          "velocity": 0.1732283464566929
        },
        {
          "duration": 0.12000000000000455,
          "durationTicks": 96,
          "midi": 76,
          "name": "E5",
          "ticks": 40416,
          "time": 50.519999999999996,
          "velocity": 0.18110236220472442
        },
        {
          "duration": 0.11999999999999744,
          "durationTicks": 96,
          "midi": 73,
          "name": "C#5",
          "ticks": 40512,
          "time": 50.64,
          "velocity": 0.2204724409448819
        },
        {
          "duration": 0.11999999999999744,
          "durationTicks": 96,
          "midi": 73,
          "name": "C#5",
          "ticks": 40608,
          "time": 50.76,
          "velocity": 0.2283464566929134
        },
        {
          "duration": 0.12000000000000455,
          "durationTicks": 96,
          "midi": 71,
          "name": "B4",
          "ticks": 40704,
          "time": 50.879999999999995,
          "velocity": 0.1889763779527559
        },
        {
          "duration": 0.11999999999999744,
          "durationTicks": 96,
          "midi": 73,
          "name": "C#5",
          "ticks": 40800,
          "time": 51,
          "velocity": 0.1968503937007874
        },
        {
          "duration": 0.11999999999999744,
          "durationTicks": 96,
          "midi": 71,
          "name": "B4",
          "ticks": 40896,
          "time": 51.12,
          "velocity": 0.18110236220472442
        },
        {
          "duration": 0.12000000000000455,
          "durationTicks": 96,
          "midi": 71,
          "name": "B4",
          "ticks": 40992,
          "time": 51.239999999999995,
          "velocity": 0.1732283464566929
        },
        {
          "duration": 0.11999999999999744,
          "durationTicks": 96,
          "midi": 69,
          "name": "A4",
          "ticks": 41088,
          "time": 51.36,
          "velocity": 0.2204724409448819
        },
        {
          "duration": 0.12000000000000455,
          "durationTicks": 96,
          "midi": 71,
          "name": "B4",
          "ticks": 41184,
          "time": 51.48,
          "velocity": 0.14960629921259844
        },
        {
          "duration": 0.11999999999999744,
          "durationTicks": 96,
          "midi": 69,
          "name": "A4",
          "ticks": 41280,
          "time": 51.6,
          "velocity": 0.2125984251968504
        },
        {
          "duration": 0.11999999999999744,
          "durationTicks": 96,
          "midi": 69,
          "name": "A4",
          "ticks": 41376,
          "time": 51.72,
          "velocity": 0.2204724409448819
        },
        {
          "duration": 0.12000000000000455,
          "durationTicks": 96,
          "midi": 68,
          "name": "G#4",
          "ticks": 41472,
          "time": 51.839999999999996,
          "velocity": 0.18110236220472442
        },
        {
          "duration": 0.11999999999999744,
          "durationTicks": 96,
          "midi": 69,
          "name": "A4",
          "ticks": 41568,
          "time": 51.96,
          "velocity": 0.2047244094488189
        },
        {
          "duration": 0.11999999999999744,
          "durationTicks": 96,
          "midi": 68,
          "name": "G#4",
          "ticks": 41664,
          "time": 52.08,
          "velocity": 0.1968503937007874
        },
        {
          "duration": 0.12000000000000455,
          "durationTicks": 96,
          "midi": 68,
          "name": "G#4",
          "ticks": 41760,
          "time": 52.199999999999996,
          "velocity": 0.1968503937007874
        },
        {
          "duration": 0.23999999999999488,
          "durationTicks": 192,
          "midi": 74,
          "name": "D5",
          "ticks": 41856,
          "time": 52.32,
          "velocity": 0.2204724409448819
        },
        {
          "duration": 0.12000000000000455,
          "durationTicks": 96,
          "midi": 74,
          "name": "D5",
          "ticks": 42048,
          "time": 52.559999999999995,
          "velocity": 0.2204724409448819
        },
        {
          "duration": 0.11999999999999744,
          "durationTicks": 96,
          "midi": 74,
          "name": "D5",
          "ticks": 42144,
          "time": 52.68,
          "velocity": 0.2204724409448819
        },
        {
          "duration": 0.11999999999999744,
          "durationTicks": 96,
          "midi": 71,
          "name": "B4",
          "ticks": 42240,
          "time": 52.8,
          "velocity": 0.1968503937007874
        },
        {
          "duration": 0.12000000000000455,
          "durationTicks": 96,
          "midi": 74,
          "name": "D5",
          "ticks": 42336,
          "time": 52.919999999999995,
          "velocity": 0.2125984251968504
        },
        {
          "duration": 0.11999999999999744,
          "durationTicks": 96,
          "midi": 71,
          "name": "B4",
          "ticks": 42432,
          "time": 53.04,
          "velocity": 0.1968503937007874
        },
        {
          "duration": 0.12000000000000455,
          "durationTicks": 96,
          "midi": 71,
          "name": "B4",
          "ticks": 42528,
          "time": 53.16,
          "velocity": 0.1889763779527559
        },
        {
          "duration": 0.11999999999999744,
          "durationTicks": 96,
          "midi": 73,
          "name": "C#5",
          "ticks": 42624,
          "time": 53.28,
          "velocity": 0.2204724409448819
        },
        {
          "duration": 0.11999999999999744,
          "durationTicks": 96,
          "midi": 71,
          "name": "B4",
          "ticks": 42720,
          "time": 53.4,
          "velocity": 0.1889763779527559
        },
        {
          "duration": 0.12000000000000455,
          "durationTicks": 96,
          "midi": 73,
          "name": "C#5",
          "ticks": 42816,
          "time": 53.519999999999996,
          "velocity": 0.2047244094488189
        },
        {
          "duration": 0.11999999999999744,
          "durationTicks": 96,
          "midi": 73,
          "name": "C#5",
          "ticks": 42912,
          "time": 53.64,
          "velocity": 0.2283464566929134
        },
        {
          "duration": 0.11999999999999744,
          "durationTicks": 96,
          "midi": 69,
          "name": "A4",
          "ticks": 43008,
          "time": 53.76,
          "velocity": 0.2125984251968504
        },
        {
          "duration": 0.12000000000000455,
          "durationTicks": 96,
          "midi": 73,
          "name": "C#5",
          "ticks": 43104,
          "time": 53.879999999999995,
          "velocity": 0.1968503937007874
        },
        {
          "duration": 0.11999999999999744,
          "durationTicks": 96,
          "midi": 69,
          "name": "A4",
          "ticks": 43200,
          "time": 54,
          "velocity": 0.2125984251968504
        },
        {
          "duration": 0.11999999999999744,
          "durationTicks": 96,
          "midi": 69,
          "name": "A4",
          "ticks": 43296,
          "time": 54.12,
          "velocity": 0.2204724409448819
        },
        {
          "duration": 0.12000000000000455,
          "durationTicks": 96,
          "midi": 68,
          "name": "G#4",
          "ticks": 43392,
          "time": 54.239999999999995,
          "velocity": 0.2125984251968504
        },
        {
          "duration": 0.11999999999999744,
          "durationTicks": 96,
          "midi": 69,
          "name": "A4",
          "ticks": 43488,
          "time": 54.36,
          "velocity": 0.2125984251968504
        },
        {
          "duration": 0.12000000000000455,
          "durationTicks": 96,
          "midi": 68,
          "name": "G#4",
          "ticks": 43584,
          "time": 54.48,
          "velocity": 0.18110236220472442
        },
        {
          "duration": 0.11999999999999744,
          "durationTicks": 96,
          "midi": 68,
          "name": "G#4",
          "ticks": 43680,
          "time": 54.6,
          "velocity": 0.18110236220472442
        },
        {
          "duration": 0.11999999999999744,
          "durationTicks": 96,
          "midi": 69,
          "name": "A4",
          "ticks": 43776,
          "time": 54.72,
          "velocity": 0.23622047244094488
        },
        {
          "duration": 0.12000000000000455,
          "durationTicks": 96,
          "midi": 68,
          "name": "G#4",
          "ticks": 43872,
          "time": 54.839999999999996,
          "velocity": 0.18110236220472442
        },
        {
          "duration": 0.11999999999999744,
          "durationTicks": 96,
          "midi": 69,
          "name": "A4",
          "ticks": 43968,
          "time": 54.96,
          "velocity": 0.2440944881889764
        },
        {
          "duration": 0.11999999999999744,
          "durationTicks": 96,
          "midi": 69,
          "name": "A4",
          "ticks": 44064,
          "time": 55.08,
          "velocity": 0.2204724409448819
        },
        {
          "duration": 0.12000000000000455,
          "durationTicks": 96,
          "midi": 66,
          "name": "F#4",
          "ticks": 44160,
          "time": 55.199999999999996,
          "velocity": 0.2204724409448819
        },
        {
          "duration": 0.11999999999999744,
          "durationTicks": 96,
          "midi": 69,
          "name": "A4",
          "ticks": 44256,
          "time": 55.32,
          "velocity": 0.2204724409448819
        },
        {
          "duration": 0.11999999999999744,
          "durationTicks": 96,
          "midi": 66,
          "name": "F#4",
          "ticks": 44352,
          "time": 55.44,
          "velocity": 0.1889763779527559
        },
        {
          "duration": 0.12000000000000455,
          "durationTicks": 96,
          "midi": 66,
          "name": "F#4",
          "ticks": 44448,
          "time": 55.559999999999995,
          "velocity": 0.1968503937007874
        },
        {
          "duration": 0.11999999999999744,
          "durationTicks": 96,
          "midi": 64,
          "name": "E4",
          "ticks": 44544,
          "time": 55.68,
          "velocity": 0.2047244094488189
        },
        {
          "duration": 0.11999999999999744,
          "durationTicks": 96,
          "midi": 66,
          "name": "F#4",
          "ticks": 44640,
          "time": 55.8,
          "velocity": 0.1968503937007874
        },
        {
          "duration": 0.12000000000000455,
          "durationTicks": 96,
          "midi": 64,
          "name": "E4",
          "ticks": 44736,
          "time": 55.919999999999995,
          "velocity": 0.18110236220472442
        },
        {
          "duration": 0.11999999999999744,
          "durationTicks": 96,
          "midi": 66,
          "name": "F#4",
          "ticks": 44832,
          "time": 56.04,
          "velocity": 0.18110236220472442
        },
        {
          "duration": 0.12000000000000455,
          "durationTicks": 96,
          "midi": 71,
          "name": "B4",
          "ticks": 44928,
          "time": 56.16,
          "velocity": 0.2047244094488189
        },
        {
          "duration": 0.11999999999999744,
          "durationTicks": 96,
          "midi": 64,
          "name": "E4",
          "ticks": 45024,
          "time": 56.28,
          "velocity": 0.1732283464566929
        },
        {
          "duration": 0.11999999999999744,
          "durationTicks": 96,
          "midi": 71,
          "name": "B4",
          "ticks": 45120,
          "time": 56.4,
          "velocity": 0.1968503937007874
        },
        {
          "duration": 0.12000000000000455,
          "durationTicks": 96,
          "midi": 71,
          "name": "B4",
          "ticks": 45216,
          "time": 56.519999999999996,
          "velocity": 0.1968503937007874
        },
        {
          "duration": 0.11999999999999744,
          "durationTicks": 96,
          "midi": 71,
          "name": "B4",
          "ticks": 45312,
          "time": 56.64,
          "velocity": 0.1968503937007874
        },
        {
          "duration": 0.11999999999999744,
          "durationTicks": 96,
          "midi": 71,
          "name": "B4",
          "ticks": 45408,
          "time": 56.76,
          "velocity": 0.18110236220472442
        },
        {
          "duration": 0.12000000000000455,
          "durationTicks": 96,
          "midi": 71,
          "name": "B4",
          "ticks": 45504,
          "time": 56.879999999999995,
          "velocity": 0.18110236220472442
        },
        {
          "duration": 0.11999999999999744,
          "durationTicks": 96,
          "midi": 71,
          "name": "B4",
          "ticks": 45600,
          "time": 57,
          "velocity": 0.18110236220472442
        },
        {
          "duration": 0.11999999999999744,
          "durationTicks": 96,
          "midi": 73,
          "name": "C#5",
          "ticks": 45696,
          "time": 57.12,
          "velocity": 0.2125984251968504
        },
        {
          "duration": 0.12000000000000455,
          "durationTicks": 96,
          "midi": 71,
          "name": "B4",
          "ticks": 45792,
          "time": 57.239999999999995,
          "velocity": 0.1732283464566929
        },
        {
          "duration": 0.11999999999999744,
          "durationTicks": 96,
          "midi": 73,
          "name": "C#5",
          "ticks": 45888,
          "time": 57.36,
          "velocity": 0.2047244094488189
        },
        {
          "duration": 0.11999999999999744,
          "durationTicks": 96,
          "midi": 73,
          "name": "C#5",
          "ticks": 45984,
          "time": 57.48,
          "velocity": 0.2204724409448819
        },
        {
          "duration": 0.12000000000000455,
          "durationTicks": 96,
          "midi": 76,
          "name": "E5",
          "ticks": 46080,
          "time": 57.599999999999994,
          "velocity": 0.2047244094488189
        },
        {
          "duration": 0.11999999999999744,
          "durationTicks": 96,
          "midi": 73,
          "name": "C#5",
          "ticks": 46176,
          "time": 57.72,
          "velocity": 0.2204724409448819
        },
        {
          "duration": 0.12000000000000455,
          "durationTicks": 96,
          "midi": 76,
          "name": "E5",
          "ticks": 46272,
          "time": 57.839999999999996,
          "velocity": 0.1968503937007874
        },
        {
          "duration": 0.11999999999999744,
          "durationTicks": 96,
          "midi": 76,
          "name": "E5",
          "ticks": 46368,
          "time": 57.96,
          "velocity": 0.1732283464566929
        },
        {
          "duration": 0.11999999999999744,
          "durationTicks": 96,
          "midi": 73,
          "name": "C#5",
          "ticks": 46464,
          "time": 58.08,
          "velocity": 0.2204724409448819
        },
        {
          "duration": 0.12000000000000455,
          "durationTicks": 96,
          "midi": 76,
          "name": "E5",
          "ticks": 46560,
          "time": 58.199999999999996,
          "velocity": 0.1732283464566929
        },
        {
          "duration": 0.11999999999999744,
          "durationTicks": 96,
          "midi": 73,
          "name": "C#5",
          "ticks": 46656,
          "time": 58.32,
          "velocity": 0.18110236220472442
        },
        {
          "duration": 0.11999999999999744,
          "durationTicks": 96,
          "midi": 73,
          "name": "C#5",
          "ticks": 46752,
          "time": 58.44,
          "velocity": 0.18110236220472442
        },
        {
          "duration": 0.12000000000000455,
          "durationTicks": 96,
          "midi": 71,
          "name": "B4",
          "ticks": 46848,
          "time": 58.559999999999995,
          "velocity": 0.18110236220472442
        },
        {
          "duration": 0.11999999999999744,
          "durationTicks": 96,
          "midi": 73,
          "name": "C#5",
          "ticks": 46944,
          "time": 58.68,
          "velocity": 0.1968503937007874
        },
        {
          "duration": 0.11999999999999744,
          "durationTicks": 96,
          "midi": 71,
          "name": "B4",
          "ticks": 47040,
          "time": 58.8,
          "velocity": 0.18110236220472442
        },
        {
          "duration": 0.12000000000000455,
          "durationTicks": 96,
          "midi": 71,
          "name": "B4",
          "ticks": 47136,
          "time": 58.919999999999995,
          "velocity": 0.1732283464566929
        },
        {
          "duration": 0.11999999999999744,
          "durationTicks": 96,
          "midi": 69,
          "name": "A4",
          "ticks": 47232,
          "time": 59.04,
          "velocity": 0.2204724409448819
        },
        {
          "duration": 0.12000000000000455,
          "durationTicks": 96,
          "midi": 71,
          "name": "B4",
          "ticks": 47328,
          "time": 59.16,
          "velocity": 0.1968503937007874
        },
        {
          "duration": 0.11999999999999744,
          "durationTicks": 96,
          "midi": 69,
          "name": "A4",
          "ticks": 47424,
          "time": 59.28,
          "velocity": 0.2125984251968504
        },
        {
          "duration": 0.11999999999999744,
          "durationTicks": 96,
          "midi": 69,
          "name": "A4",
          "ticks": 47520,
          "time": 59.4,
          "velocity": 0.2204724409448819
        },
        {
          "duration": 0.12000000000000455,
          "durationTicks": 96,
          "midi": 71,
          "name": "B4",
          "ticks": 47616,
          "time": 59.519999999999996,
          "velocity": 0.2047244094488189
        },
        {
          "duration": 0.11999999999999744,
          "durationTicks": 96,
          "midi": 69,
          "name": "A4",
          "ticks": 47712,
          "time": 59.64,
          "velocity": 0.2125984251968504
        },
        {
          "duration": 0.11999999999999744,
          "durationTicks": 96,
          "midi": 71,
          "name": "B4",
          "ticks": 47808,
          "time": 59.76,
          "velocity": 0.2125984251968504
        },
        {
          "duration": 0.12000000000000455,
          "durationTicks": 96,
          "midi": 69,
          "name": "A4",
          "ticks": 47904,
          "time": 59.879999999999995,
          "velocity": 0.2125984251968504
        },
        {
          "duration": 0.11999999999999744,
          "durationTicks": 96,
          "midi": 74,
          "name": "D5",
          "ticks": 48000,
          "time": 60,
          "velocity": 0.2204724409448819
        },
        {
          "duration": 0.11999999999999744,
          "durationTicks": 96,
          "midi": 71,
          "name": "B4",
          "ticks": 48096,
          "time": 60.12,
          "velocity": 0.2204724409448819
        },
        {
          "duration": 0.12000000000000455,
          "durationTicks": 96,
          "midi": 74,
          "name": "D5",
          "ticks": 48192,
          "time": 60.239999999999995,
          "velocity": 0.23622047244094488
        },
        {
          "duration": 0.11999999999999744,
          "durationTicks": 96,
          "midi": 74,
          "name": "D5",
          "ticks": 48288,
          "time": 60.36,
          "velocity": 0.2204724409448819
        },
        {
          "duration": 0.11999999999999744,
          "durationTicks": 96,
          "midi": 71,
          "name": "B4",
          "ticks": 48384,
          "time": 60.48,
          "velocity": 0.1968503937007874
        },
        {
          "duration": 0.12000000000000455,
          "durationTicks": 96,
          "midi": 74,
          "name": "D5",
          "ticks": 48480,
          "time": 60.599999999999994,
          "velocity": 0.2125984251968504
        },
        {
          "duration": 0.11999999999999744,
          "durationTicks": 96,
          "midi": 71,
          "name": "B4",
          "ticks": 48576,
          "time": 60.72,
          "velocity": 0.18110236220472442
        },
        {
          "duration": 0.12000000000000455,
          "durationTicks": 96,
          "midi": 71,
          "name": "B4",
          "ticks": 48672,
          "time": 60.839999999999996,
          "velocity": 0.1732283464566929
        },
        {
          "duration": 0.11999999999999744,
          "durationTicks": 96,
          "midi": 73,
          "name": "C#5",
          "ticks": 48768,
          "time": 60.96,
          "velocity": 0.2047244094488189
        },
        {
          "duration": 0.11999999999999744,
          "durationTicks": 96,
          "midi": 71,
          "name": "B4",
          "ticks": 48864,
          "time": 61.08,
          "velocity": 0.1889763779527559
        },
        {
          "duration": 0.12000000000000455,
          "durationTicks": 96,
          "midi": 73,
          "name": "C#5",
          "ticks": 48960,
          "time": 61.199999999999996,
          "velocity": 0.2047244094488189
        },
        {
          "duration": 0.11999999999999744,
          "durationTicks": 96,
          "midi": 73,
          "name": "C#5",
          "ticks": 49056,
          "time": 61.32,
          "velocity": 0.2125984251968504
        },
        {
          "duration": 0.11999999999999744,
          "durationTicks": 96,
          "midi": 69,
          "name": "A4",
          "ticks": 49152,
          "time": 61.44,
          "velocity": 0.2283464566929134
        },
        {
          "duration": 0.12000000000000455,
          "durationTicks": 96,
          "midi": 73,
          "name": "C#5",
          "ticks": 49248,
          "time": 61.559999999999995,
          "velocity": 0.1889763779527559
        },
        {
          "duration": 0.11999999999999744,
          "durationTicks": 96,
          "midi": 69,
          "name": "A4",
          "ticks": 49344,
          "time": 61.68,
          "velocity": 0.2125984251968504
        },
        {
          "duration": 0.11999999999999744,
          "durationTicks": 96,
          "midi": 69,
          "name": "A4",
          "ticks": 49440,
          "time": 61.8,
          "velocity": 0.2125984251968504
        },
        {
          "duration": 0.12000000000000455,
          "durationTicks": 96,
          "midi": 68,
          "name": "G#4",
          "ticks": 49536,
          "time": 61.919999999999995,
          "velocity": 0.1732283464566929
        },
        {
          "duration": 0.11999999999999744,
          "durationTicks": 96,
          "midi": 69,
          "name": "A4",
          "ticks": 49632,
          "time": 62.04,
          "velocity": 0.2125984251968504
        },
        {
          "duration": 0.12000000000000455,
          "durationTicks": 96,
          "midi": 68,
          "name": "G#4",
          "ticks": 49728,
          "time": 62.16,
          "velocity": 0.1968503937007874
        },
        {
          "duration": 0.11999999999999744,
          "durationTicks": 96,
          "midi": 68,
          "name": "G#4",
          "ticks": 49824,
          "time": 62.28,
          "velocity": 0.1968503937007874
        },
        {
          "duration": 0.11999999999999744,
          "durationTicks": 96,
          "midi": 69,
          "name": "A4",
          "ticks": 49920,
          "time": 62.4,
          "velocity": 0.2204724409448819
        },
        {
          "duration": 0.12000000000000455,
          "durationTicks": 96,
          "midi": 68,
          "name": "G#4",
          "ticks": 50016,
          "time": 62.519999999999996,
          "velocity": 0.2047244094488189
        },
        {
          "duration": 0.11999999999999744,
          "durationTicks": 96,
          "midi": 69,
          "name": "A4",
          "ticks": 50112,
          "time": 62.64,
          "velocity": 0.2204724409448819
        },
        {
          "duration": 0.11999999999999744,
          "durationTicks": 96,
          "midi": 69,
          "name": "A4",
          "ticks": 50208,
          "time": 62.76,
          "velocity": 0.2125984251968504
        },
        {
          "duration": 0.12000000000000455,
          "durationTicks": 96,
          "midi": 66,
          "name": "F#4",
          "ticks": 50304,
          "time": 62.879999999999995,
          "velocity": 0.18110236220472442
        },
        {
          "duration": 0.11999999999999744,
          "durationTicks": 96,
          "midi": 69,
          "name": "A4",
          "ticks": 50400,
          "time": 63,
          "velocity": 0.2204724409448819
        },
        {
          "duration": 0.11999999999999744,
          "durationTicks": 96,
          "midi": 66,
          "name": "F#4",
          "ticks": 50496,
          "time": 63.12,
          "velocity": 0.1968503937007874
        },
        {
          "duration": 0.12000000000000455,
          "durationTicks": 96,
          "midi": 66,
          "name": "F#4",
          "ticks": 50592,
          "time": 63.239999999999995,
          "velocity": 0.1889763779527559
        },
        {
          "duration": 0.11999999999999744,
          "durationTicks": 96,
          "midi": 64,
          "name": "E4",
          "ticks": 50688,
          "time": 63.36,
          "velocity": 0.2125984251968504
        },
        {
          "duration": 0.11999999999999744,
          "durationTicks": 96,
          "midi": 66,
          "name": "F#4",
          "ticks": 50784,
          "time": 63.48,
          "velocity": 0.2047244094488189
        },
        {
          "duration": 0.12000000000000455,
          "durationTicks": 96,
          "midi": 64,
          "name": "E4",
          "ticks": 50880,
          "time": 63.599999999999994,
          "velocity": 0.2047244094488189
        },
        {
          "duration": 0.11999999999999744,
          "durationTicks": 96,
          "midi": 64,
          "name": "E4",
          "ticks": 50976,
          "time": 63.72,
          "velocity": 0.1889763779527559
        },
        {
          "duration": 0.12000000000000455,
          "durationTicks": 96,
          "midi": 71,
          "name": "B4",
          "ticks": 51072,
          "time": 63.839999999999996,
          "velocity": 0.2204724409448819
        },
        {
          "duration": 0.11999999999999744,
          "durationTicks": 96,
          "midi": 64,
          "name": "E4",
          "ticks": 51168,
          "time": 63.96,
          "velocity": 0.1968503937007874
        },
        {
          "duration": 0.12000000000000455,
          "durationTicks": 96,
          "midi": 71,
          "name": "B4",
          "ticks": 51264,
          "time": 64.08,
          "velocity": 0.18110236220472442
        },
        {
          "duration": 0.11999999999999034,
          "durationTicks": 96,
          "midi": 71,
          "name": "B4",
          "ticks": 51360,
          "time": 64.2,
          "velocity": 0.1889763779527559
        },
        {
          "duration": 0.12000000000000455,
          "durationTicks": 96,
          "midi": 71,
          "name": "B4",
          "ticks": 51456,
          "time": 64.32,
          "velocity": 0.1732283464566929
        },
        {
          "duration": 0.12000000000000455,
          "durationTicks": 96,
          "midi": 71,
          "name": "B4",
          "ticks": 51552,
          "time": 64.44,
          "velocity": 0.1889763779527559
        },
        {
          "duration": 0.11999999999999034,
          "durationTicks": 96,
          "midi": 71,
          "name": "B4",
          "ticks": 51648,
          "time": 64.56,
          "velocity": 0.1968503937007874
        },
        {
          "duration": 0.12000000000000455,
          "durationTicks": 96,
          "midi": 71,
          "name": "B4",
          "ticks": 51744,
          "time": 64.67999999999999,
          "velocity": 0.18110236220472442
        },
        {
          "duration": 0.12000000000000455,
          "durationTicks": 96,
          "midi": 73,
          "name": "C#5",
          "ticks": 51840,
          "time": 64.8,
          "velocity": 0.2125984251968504
        },
        {
          "duration": 0.11999999999999034,
          "durationTicks": 96,
          "midi": 71,
          "name": "B4",
          "ticks": 51936,
          "time": 64.92,
          "velocity": 0.1732283464566929
        },
        {
          "duration": 0.12000000000000455,
          "durationTicks": 96,
          "midi": 73,
          "name": "C#5",
          "ticks": 52032,
          "time": 65.03999999999999,
          "velocity": 0.1968503937007874
        },
        {
          "duration": 0.12000000000000455,
          "durationTicks": 96,
          "midi": 73,
          "name": "C#5",
          "ticks": 52128,
          "time": 65.16,
          "velocity": 0.1968503937007874
        },
        {
          "duration": 0.11999999999999034,
          "durationTicks": 96,
          "midi": 76,
          "name": "E5",
          "ticks": 52224,
          "time": 65.28,
          "velocity": 0.1968503937007874
        },
        {
          "duration": 0.12000000000000455,
          "durationTicks": 96,
          "midi": 73,
          "name": "C#5",
          "ticks": 52320,
          "time": 65.39999999999999,
          "velocity": 0.1968503937007874
        },
        {
          "duration": 0.12000000000000455,
          "durationTicks": 96,
          "midi": 76,
          "name": "E5",
          "ticks": 52416,
          "time": 65.52,
          "velocity": 0.1732283464566929
        },
        {
          "duration": 0.11999999999999034,
          "durationTicks": 96,
          "midi": 76,
          "name": "E5",
          "ticks": 52512,
          "time": 65.64,
          "velocity": 0.1732283464566929
        },
        {
          "duration": 0.12000000000000455,
          "durationTicks": 96,
          "midi": 73,
          "name": "C#5",
          "ticks": 52608,
          "time": 65.75999999999999,
          "velocity": 0.1732283464566929
        },
        {
          "duration": 0.12000000000000455,
          "durationTicks": 96,
          "midi": 76,
          "name": "E5",
          "ticks": 52704,
          "time": 65.88,
          "velocity": 0.18110236220472442
        },
        {
          "duration": 0.12000000000000455,
          "durationTicks": 96,
          "midi": 73,
          "name": "C#5",
          "ticks": 52800,
          "time": 66,
          "velocity": 0.2204724409448819
        },
        {
          "duration": 0.11999999999999034,
          "durationTicks": 96,
          "midi": 73,
          "name": "C#5",
          "ticks": 52896,
          "time": 66.12,
          "velocity": 0.2283464566929134
        },
        {
          "duration": 0.12000000000000455,
          "durationTicks": 96,
          "midi": 71,
          "name": "B4",
          "ticks": 52992,
          "time": 66.24,
          "velocity": 0.1889763779527559
        },
        {
          "duration": 0.12000000000000455,
          "durationTicks": 96,
          "midi": 73,
          "name": "C#5",
          "ticks": 53088,
          "time": 66.36,
          "velocity": 0.1968503937007874
        },
        {
          "duration": 0.11999999999999034,
          "durationTicks": 96,
          "midi": 71,
          "name": "B4",
          "ticks": 53184,
          "time": 66.48,
          "velocity": 0.18110236220472442
        },
        {
          "duration": 0.12000000000000455,
          "durationTicks": 96,
          "midi": 71,
          "name": "B4",
          "ticks": 53280,
          "time": 66.6,
          "velocity": 0.1732283464566929
        },
        {
          "duration": 0.12000000000000455,
          "durationTicks": 96,
          "midi": 69,
          "name": "A4",
          "ticks": 53376,
          "time": 66.72,
          "velocity": 0.2204724409448819
        },
        {
          "duration": 0.11999999999999034,
          "durationTicks": 96,
          "midi": 71,
          "name": "B4",
          "ticks": 53472,
          "time": 66.84,
          "velocity": 0.14960629921259844
        },
        {
          "duration": 0.12000000000000455,
          "durationTicks": 96,
          "midi": 69,
          "name": "A4",
          "ticks": 53568,
          "time": 66.96,
          "velocity": 0.2125984251968504
        },
        {
          "duration": 0.12000000000000455,
          "durationTicks": 96,
          "midi": 69,
          "name": "A4",
          "ticks": 53664,
          "time": 67.08,
          "velocity": 0.2204724409448819
        },
        {
          "duration": 0.11999999999999034,
          "durationTicks": 96,
          "midi": 68,
          "name": "G#4",
          "ticks": 53760,
          "time": 67.2,
          "velocity": 0.18110236220472442
        },
        {
          "duration": 0.12000000000000455,
          "durationTicks": 96,
          "midi": 69,
          "name": "A4",
          "ticks": 53856,
          "time": 67.32,
          "velocity": 0.2047244094488189
        },
        {
          "duration": 0.12000000000000455,
          "durationTicks": 96,
          "midi": 68,
          "name": "G#4",
          "ticks": 53952,
          "time": 67.44,
          "velocity": 0.1968503937007874
        },
        {
          "duration": 0.11999999999999034,
          "durationTicks": 96,
          "midi": 68,
          "name": "G#4",
          "ticks": 54048,
          "time": 67.56,
          "velocity": 0.1968503937007874
        }
      ],
      "endOfTrackTicks": 54144
    },
    {
      "channel": 1,
      "controlChanges": {},
      "pitchBends": [],
      "instrument": {
        "family": "strings",
        "number": 42,
        "name": "cello"
      },
      "name": "Distortion Guitar",
      "notes": [
        {
          "duration": 1.92,
          "durationTicks": 1536,
          "midi": 37,
          "name": "C#2",
          "ticks": 4992,
          "time": 6.24,
          "velocity": 0.1732283464566929
        },
        {
          "duration": 1.92,
          "durationTicks": 1536,
          "midi": 38,
          "name": "D2",
          "ticks": 6528,
          "time": 8.16,
          "velocity": 0.1732283464566929
        },
        {
          "duration": 1.92,
          "durationTicks": 1536,
          "midi": 35,
          "name": "B1",
          "ticks": 8064,
          "time": 10.08,
          "velocity": 0.1732283464566929
        },
        {
          "duration": 1.92,
          "durationTicks": 1536,
          "midi": 42,
          "name": "F#2",
          "ticks": 9600,
          "time": 12,
          "velocity": 0.1732283464566929
        },
        {
          "duration": 1.92,
          "durationTicks": 1536,
          "midi": 37,
          "name": "C#2",
          "ticks": 11136,
          "time": 13.92,
          "velocity": 0.14960629921259844
        },
        {
          "duration": 1.9199999999999982,
          "durationTicks": 1536,
          "midi": 38,
          "name": "D2",
          "ticks": 12672,
          "time": 15.84,
          "velocity": 0.1889763779527559
        },
        {
          "duration": 1.9200000000000017,
          "durationTicks": 1536,
          "midi": 35,
          "name": "B1",
          "ticks": 14208,
          "time": 17.759999999999998,
          "velocity": 0.16535433070866143
        },
        {
          "duration": 1.9199999999999982,
          "durationTicks": 1536,
          "midi": 42,
          "name": "F#2",
          "ticks": 15744,
          "time": 19.68,
          "velocity": 0.1732283464566929
        },
        {
          "duration": 0.7200000000000024,
          "durationTicks": 576,
          "midi": 37,
          "name": "C#2",
          "ticks": 17280,
          "time": 21.599999999999998,
          "velocity": 0.2125984251968504
        },
        {
          "duration": 0.7199999999999989,
          "durationTicks": 576,
          "midi": 37,
          "name": "C#2",
          "ticks": 17856,
          "time": 22.32,
          "velocity": 0.2047244094488189
        },
        {
          "duration": 0.4800000000000004,
          "durationTicks": 384,
          "midi": 37,
          "name": "C#2",
          "ticks": 18432,
          "time": 23.04,
          "velocity": 0.2125984251968504
        },
        {
          "duration": 0.7199999999999989,
          "durationTicks": 576,
          "midi": 38,
          "name": "D2",
          "ticks": 18816,
          "time": 23.52,
          "velocity": 0.1889763779527559
        },
        {
          "duration": 0.7200000000000024,
          "durationTicks": 576,
          "midi": 38,
          "name": "D2",
          "ticks": 19392,
          "time": 24.24,
          "velocity": 0.1889763779527559
        },
        {
          "duration": 0.4799999999999969,
          "durationTicks": 384,
          "midi": 38,
          "name": "D2",
          "ticks": 19968,
          "time": 24.96,
          "velocity": 0.1889763779527559
        },
        {
          "duration": 0.7200000000000024,
          "durationTicks": 576,
          "midi": 35,
          "name": "B1",
          "ticks": 20352,
          "time": 25.439999999999998,
          "velocity": 0.1732283464566929
        },
        {
          "duration": 0.7199999999999989,
          "durationTicks": 576,
          "midi": 35,
          "name": "B1",
          "ticks": 20928,
          "time": 26.16,
          "velocity": 0.1732283464566929
        },
        {
          "duration": 0.4800000000000004,
          "durationTicks": 384,
          "midi": 35,
          "name": "B1",
          "ticks": 21504,
          "time": 26.88,
          "velocity": 0.1732283464566929
        },
        {
          "duration": 0.7199999999999989,
          "durationTicks": 576,
          "midi": 42,
          "name": "F#2",
          "ticks": 21888,
          "time": 27.36,
          "velocity": 0.1732283464566929
        },
        {
          "duration": 0.7199999999999989,
          "durationTicks": 576,
          "midi": 42,
          "name": "F#2",
          "ticks": 22464,
          "time": 28.08,
          "velocity": 0.16535433070866143
        },
        {
          "duration": 0.4800000000000004,
          "durationTicks": 384,
          "midi": 42,
          "name": "F#2",
          "ticks": 23040,
          "time": 28.799999999999997,
          "velocity": 0.1889763779527559
        },
        {
          "duration": 0.7200000000000024,
          "durationTicks": 576,
          "midi": 37,
          "name": "C#2",
          "ticks": 23424,
          "time": 29.279999999999998,
          "velocity": 0.1732283464566929
        },
        {
          "duration": 0.7199999999999989,
          "durationTicks": 576,
          "midi": 37,
          "name": "C#2",
          "ticks": 24000,
          "time": 30,
          "velocity": 0.1968503937007874
        },
        {
          "duration": 0.4800000000000004,
          "durationTicks": 384,
          "midi": 37,
          "name": "C#2",
          "ticks": 24576,
          "time": 30.72,
          "velocity": 0.18110236220472442
        },
        {
          "duration": 0.7199999999999989,
          "durationTicks": 576,
          "midi": 38,
          "name": "D2",
          "ticks": 24960,
          "time": 31.2,
          "velocity": 0.16535433070866143
        },
        {
          "duration": 0.7200000000000024,
          "durationTicks": 576,
          "midi": 38,
          "name": "D2",
          "ticks": 25536,
          "time": 31.919999999999998,
          "velocity": 0.1889763779527559
        },
        {
          "duration": 0.4799999999999969,
          "durationTicks": 384,
          "midi": 38,
          "name": "D2",
          "ticks": 26112,
          "time": 32.64,
          "velocity": 0.1889763779527559
        },
        {
          "duration": 0.7199999999999989,
          "durationTicks": 576,
          "midi": 35,
          "name": "B1",
          "ticks": 26496,
          "time": 33.12,
          "velocity": 0.16535433070866143
        },
        {
          "duration": 0.720000000000006,
          "durationTicks": 576,
          "midi": 35,
          "name": "B1",
          "ticks": 27072,
          "time": 33.839999999999996,
          "velocity": 0.1889763779527559
        },
        {
          "duration": 0.4799999999999969,
          "durationTicks": 384,
          "midi": 35,
          "name": "B1",
          "ticks": 27648,
          "time": 34.56,
          "velocity": 0.16535433070866143
        },
        {
          "duration": 0.7199999999999989,
          "durationTicks": 576,
          "midi": 42,
          "name": "F#2",
          "ticks": 28032,
          "time": 35.04,
          "velocity": 0.14960629921259844
        },
        {
          "duration": 0.7199999999999989,
          "durationTicks": 576,
          "midi": 42,
          "name": "F#2",
          "ticks": 28608,
          "time": 35.76,
          "velocity": 0.16535433070866143
        },
        {
          "duration": 0.480000000000004,
          "durationTicks": 384,
          "midi": 42,
          "name": "F#2",
          "ticks": 29184,
          "time": 36.48,
          "velocity": 0.1889763779527559
        },
        {
          "duration": 0.7199999999999989,
          "durationTicks": 576,
          "midi": 25,
          "name": "C#1",
          "ticks": 29568,
          "time": 36.96,
          "velocity": 0.2125984251968504
        },
        {
          "duration": 0.7199999999999989,
          "durationTicks": 576,
          "midi": 25,
          "name": "C#1",
          "ticks": 30144,
          "time": 37.68,
          "velocity": 0.2047244094488189
        },
        {
          "duration": 0.4799999999999969,
          "durationTicks": 384,
          "midi": 25,
          "name": "C#1",
          "ticks": 30720,
          "time": 38.4,
          "velocity": 0.2125984251968504
        },
        {
          "duration": 0.720000000000006,
          "durationTicks": 576,
          "midi": 26,
          "name": "D1",
          "ticks": 31104,
          "time": 38.879999999999995,
          "velocity": 0.1889763779527559
        },
        {
          "duration": 0.7199999999999989,
          "durationTicks": 576,
          "midi": 26,
          "name": "D1",
          "ticks": 31680,
          "time": 39.6,
          "velocity": 0.1889763779527559
        },
        {
          "duration": 0.4799999999999969,
          "durationTicks": 384,
          "midi": 26,
          "name": "D1",
          "ticks": 32256,
          "time": 40.32,
          "velocity": 0.1889763779527559
        },
        {
          "duration": 0.7199999999999989,
          "durationTicks": 576,
          "midi": 24,
          "name": "C1",
          "ticks": 32640,
          "time": 40.8,
          "velocity": 0.1732283464566929
        },
        {
          "duration": 0.7199999999999989,
          "durationTicks": 576,
          "midi": 24,
          "name": "C1",
          "ticks": 33216,
          "time": 41.519999999999996,
          "velocity": 0.1732283464566929
        },
        {
          "duration": 0.480000000000004,
          "durationTicks": 384,
          "midi": 24,
          "name": "C1",
          "ticks": 33792,
          "time": 42.239999999999995,
          "velocity": 0.1732283464566929
        },
        {
          "duration": 0.7199999999999989,
          "durationTicks": 576,
          "midi": 30,
          "name": "F#1",
          "ticks": 34176,
          "time": 42.72,
          "velocity": 0.1732283464566929
        },
        {
          "duration": 0.7199999999999989,
          "durationTicks": 576,
          "midi": 30,
          "name": "F#1",
          "ticks": 34752,
          "time": 43.44,
          "velocity": 0.16535433070866143
        },
        {
          "duration": 0.480000000000004,
          "durationTicks": 384,
          "midi": 30,
          "name": "F#1",
          "ticks": 35328,
          "time": 44.16,
          "velocity": 0.1889763779527559
        },
        {
          "duration": 0.7199999999999989,
          "durationTicks": 576,
          "midi": 25,
          "name": "C#1",
          "ticks": 35712,
          "time": 44.64,
          "velocity": 0.1732283464566929
        },
        {
          "duration": 0.7199999999999989,
          "durationTicks": 576,
          "midi": 25,
          "name": "C#1",
          "ticks": 36288,
          "time": 45.36,
          "velocity": 0.1968503937007874
        },
        {
          "duration": 0.4799999999999969,
          "durationTicks": 384,
          "midi": 25,
          "name": "C#1",
          "ticks": 36864,
          "time": 46.08,
          "velocity": 0.18110236220472442
        },
        {
          "duration": 0.720000000000006,
          "durationTicks": 576,
          "midi": 26,
          "name": "D1",
          "ticks": 37248,
          "time": 46.559999999999995,
          "velocity": 0.16535433070866143
        },
        {
          "duration": 0.7199999999999989,
          "durationTicks": 576,
          "midi": 26,
          "name": "D1",
          "ticks": 37824,
          "time": 47.28,
          "velocity": 0.1889763779527559
        },
        {
          "duration": 0.4799999999999969,
          "durationTicks": 384,
          "midi": 26,
          "name": "D1",
          "ticks": 38400,
          "time": 48,
          "velocity": 0.1889763779527559
        },
        {
          "duration": 0.7199999999999989,
          "durationTicks": 576,
          "midi": 24,
          "name": "C1",
          "ticks": 38784,
          "time": 48.48,
          "velocity": 0.16535433070866143
        },
        {
          "duration": 0.720000000000006,
          "durationTicks": 576,
          "midi": 24,
          "name": "C1",
          "ticks": 39360,
          "time": 49.199999999999996,
          "velocity": 0.1889763779527559
        },
        {
          "duration": 0.4799999999999969,
          "durationTicks": 384,
          "midi": 24,
          "name": "C1",
          "ticks": 39936,
          "time": 49.92,
          "velocity": 0.16535433070866143
        },
        {
          "duration": 0.7199999999999989,
          "durationTicks": 576,
          "midi": 30,
          "name": "F#1",
          "ticks": 40320,
          "time": 50.4,
          "velocity": 0.14960629921259844
        },
        {
          "duration": 0.7199999999999989,
          "durationTicks": 576,
          "midi": 30,
          "name": "F#1",
          "ticks": 40896,
          "time": 51.12,
          "velocity": 0.16535433070866143
        },
        {
          "duration": 0.480000000000004,
          "durationTicks": 384,
          "midi": 30,
          "name": "F#1",
          "ticks": 41472,
          "time": 51.839999999999996,
          "velocity": 0.1889763779527559
        },
        {
          "duration": 0.7199999999999989,
          "durationTicks": 576,
          "midi": 25,
          "name": "C#1",
          "ticks": 41856,
          "time": 52.32,
          "velocity": 0.2125984251968504
        },
        {
          "duration": 0.7199999999999989,
          "durationTicks": 576,
          "midi": 25,
          "name": "C#1",
          "ticks": 42432,
          "time": 53.04,
          "velocity": 0.2047244094488189
        },
        {
          "duration": 0.4799999999999969,
          "durationTicks": 384,
          "midi": 25,
          "name": "C#1",
          "ticks": 43008,
          "time": 53.76,
          "velocity": 0.2125984251968504
        },
        {
          "duration": 0.720000000000006,
          "durationTicks": 576,
          "midi": 26,
          "name": "D1",
          "ticks": 43392,
          "time": 54.239999999999995,
          "velocity": 0.1889763779527559
        },
        {
          "duration": 0.7199999999999989,
          "durationTicks": 576,
          "midi": 26,
          "name": "D1",
          "ticks": 43968,
          "time": 54.96,
          "velocity": 0.1889763779527559
        },
        {
          "duration": 0.4799999999999969,
          "durationTicks": 384,
          "midi": 26,
          "name": "D1",
          "ticks": 44544,
          "time": 55.68,
          "velocity": 0.1889763779527559
        },
        {
          "duration": 0.7199999999999989,
          "durationTicks": 576,
          "midi": 24,
          "name": "C1",
          "ticks": 44928,
          "time": 56.16,
          "velocity": 0.1732283464566929
        },
        {
          "duration": 0.7199999999999989,
          "durationTicks": 576,
          "midi": 24,
          "name": "C1",
          "ticks": 45504,
          "time": 56.879999999999995,
          "velocity": 0.1732283464566929
        },
        {
          "duration": 0.480000000000004,
          "durationTicks": 384,
          "midi": 24,
          "name": "C1",
          "ticks": 46080,
          "time": 57.599999999999994,
          "velocity": 0.1732283464566929
        },
        {
          "duration": 0.7199999999999989,
          "durationTicks": 576,
          "midi": 30,
          "name": "F#1",
          "ticks": 46464,
          "time": 58.08,
          "velocity": 0.1732283464566929
        },
        {
          "duration": 0.7199999999999989,
          "durationTicks": 576,
          "midi": 30,
          "name": "F#1",
          "ticks": 47040,
          "time": 58.8,
          "velocity": 0.16535433070866143
        },
        {
          "duration": 0.480000000000004,
          "durationTicks": 384,
          "midi": 30,
          "name": "F#1",
          "ticks": 47616,
          "time": 59.519999999999996,
          "velocity": 0.1889763779527559
        },
        {
          "duration": 0.7199999999999989,
          "durationTicks": 576,
          "midi": 25,
          "name": "C#1",
          "ticks": 48000,
          "time": 60,
          "velocity": 0.1732283464566929
        },
        {
          "duration": 0.7199999999999989,
          "durationTicks": 576,
          "midi": 25,
          "name": "C#1",
          "ticks": 48576,
          "time": 60.72,
          "velocity": 0.1968503937007874
        },
        {
          "duration": 0.4799999999999969,
          "durationTicks": 384,
          "midi": 25,
          "name": "C#1",
          "ticks": 49152,
          "time": 61.44,
          "velocity": 0.18110236220472442
        },
        {
          "duration": 0.720000000000006,
          "durationTicks": 576,
          "midi": 26,
          "name": "D1",
          "ticks": 49536,
          "time": 61.919999999999995,
          "velocity": 0.16535433070866143
        },
        {
          "duration": 0.7199999999999989,
          "durationTicks": 576,
          "midi": 26,
          "name": "D1",
          "ticks": 50112,
          "time": 62.64,
          "velocity": 0.1889763779527559
        },
        {
          "duration": 0.4799999999999969,
          "durationTicks": 384,
          "midi": 26,
          "name": "D1",
          "ticks": 50688,
          "time": 63.36,
          "velocity": 0.1889763779527559
        },
        {
          "duration": 0.720000000000006,
          "durationTicks": 576,
          "midi": 24,
          "name": "C1",
          "ticks": 51072,
          "time": 63.839999999999996,
          "velocity": 0.16535433070866143
        },
        {
          "duration": 0.7199999999999989,
          "durationTicks": 576,
          "midi": 24,
          "name": "C1",
          "ticks": 51648,
          "time": 64.56,
          "velocity": 0.1889763779527559
        },
        {
          "duration": 0.47999999999998977,
          "durationTicks": 384,
          "midi": 24,
          "name": "C1",
          "ticks": 52224,
          "time": 65.28,
          "velocity": 0.16535433070866143
        },
        {
          "duration": 0.7200000000000131,
          "durationTicks": 576,
          "midi": 30,
          "name": "F#1",
          "ticks": 52608,
          "time": 65.75999999999999,
          "velocity": 0.14960629921259844
        },
        {
          "duration": 0.7199999999999989,
          "durationTicks": 576,
          "midi": 30,
          "name": "F#1",
          "ticks": 53184,
          "time": 66.48,
          "velocity": 0.16535433070866143
        },
        {
          "duration": 0.47999999999998977,
          "durationTicks": 384,
          "midi": 30,
          "name": "F#1",
          "ticks": 53760,
          "time": 67.2,
          "velocity": 0.1889763779527559
        }
      ],
      "endOfTrackTicks": 54144
    }
  ]
        }
