{
  "header": {
    "keySignatures": [],
    "meta": [],
    "name": "resonance",
    "ppq": 384,
    "tempos": [
      {
        "bpm": 85.00004250002125,
        "ticks": 0
      }
    ],
    "timeSignatures": [
      {
        "ticks": 0,
        "timeSignature": [
          4,
          4
        ],
        "measures": 0
      }
    ]
  },
  "tracks": [
    {
      "channel": 0,
      "controlChanges": {},
      "pitchBends": [],
      "instrument": {
        "family": "synth lead",
        "number": 87,
        "name": "lead 8 (bass + lead)"
      },
      "name": "Synth Pluck",
      "notes": [
        {
          "duration": 0.5294115,
          "durationTicks": 288,
          "midi": 29,
          "name": "F1",
          "ticks": 0,
          "time": 0,
          "velocity": 0.3937007874015748
        },
        {
          "duration": 0.5294115,
          "durationTicks": 288,
          "midi": 41,
          "name": "F2",
          "ticks": 0,
          "time": 0,
          "velocity": 0.3937007874015748
        },
        {
          "duration": 0.5294115,
          "durationTicks": 288,
          "midi": 53,
          "name": "F3",
          "ticks": 0,
          "time": 0,
          "velocity": 0.3937007874015748
        },
        {
          "duration": 0.5294115,
          "durationTicks": 288,
          "midi": 56,
          "name": "G#3",
          "ticks": 0,
          "time": 0,
          "velocity": 0.3937007874015748
        },
        {
          "duration": 0.5294115,
          "durationTicks": 288,
          "midi": 60,
          "name": "C4",
          "ticks": 0,
          "time": 0,
          "velocity": 0.3937007874015748
        },
        {
          "duration": 0.5294115,
          "durationTicks": 288,
          "midi": 63,
          "name": "D#4",
          "ticks": 0,
          "time": 0,
          "velocity": 0.3937007874015748
        },
        {
          "duration": 0.5294115,
          "durationTicks": 288,
          "midi": 68,
          "name": "G#4",
          "ticks": 0,
          "time": 0,
          "velocity": 0.3937007874015748
        },
        {
          "duration": 0.5294115,
          "durationTicks": 288,
          "midi": 29,
          "name": "F1",
          "ticks": 288,
          "time": 0.5294115,
          "velocity": 0.3937007874015748
        },
        {
          "duration": 0.5294115,
          "durationTicks": 288,
          "midi": 41,
          "name": "F2",
          "ticks": 288,
          "time": 0.5294115,
          "velocity": 0.3937007874015748
        },
        {
          "duration": 0.5294115,
          "durationTicks": 288,
          "midi": 53,
          "name": "F3",
          "ticks": 288,
          "time": 0.5294115,
          "velocity": 0.3937007874015748
        },
        {
          "duration": 0.5294115,
          "durationTicks": 288,
          "midi": 56,
          "name": "G#3",
          "ticks": 288,
          "time": 0.5294115,
          "velocity": 0.3937007874015748
        },
        {
          "duration": 0.5294115,
          "durationTicks": 288,
          "midi": 60,
          "name": "C4",
          "ticks": 288,
          "time": 0.5294115,
          "velocity": 0.3937007874015748
        },
        {
          "duration": 0.5294115,
          "durationTicks": 288,
          "midi": 63,
          "name": "D#4",
          "ticks": 288,
          "time": 0.5294115,
          "velocity": 0.3937007874015748
        },
        {
          "duration": 0.5294115,
          "durationTicks": 288,
          "midi": 68,
          "name": "G#4",
          "ticks": 288,
          "time": 0.5294115,
          "velocity": 0.3937007874015748
        },
        {
          "duration": 0.35294099999999995,
          "durationTicks": 192,
          "midi": 29,
          "name": "F1",
          "ticks": 576,
          "time": 1.058823,
          "velocity": 0.3937007874015748
        },
        {
          "duration": 0.35294099999999995,
          "durationTicks": 192,
          "midi": 41,
          "name": "F2",
          "ticks": 576,
          "time": 1.058823,
          "velocity": 0.3937007874015748
        },
        {
          "duration": 0.35294099999999995,
          "durationTicks": 192,
          "midi": 53,
          "name": "F3",
          "ticks": 576,
          "time": 1.058823,
          "velocity": 0.3937007874015748
        },
        {
          "duration": 0.35294099999999995,
          "durationTicks": 192,
          "midi": 56,
          "name": "G#3",
          "ticks": 576,
          "time": 1.058823,
          "velocity": 0.3937007874015748
        },
        {
          "duration": 0.35294099999999995,
          "durationTicks": 192,
          "midi": 60,
          "name": "C4",
          "ticks": 576,
          "time": 1.058823,
          "velocity": 0.3937007874015748
        },
        {
          "duration": 0.35294099999999995,
          "durationTicks": 192,
          "midi": 63,
          "name": "D#4",
          "ticks": 576,
          "time": 1.058823,
          "velocity": 0.3937007874015748
        },
        {
          "duration": 0.35294099999999995,
          "durationTicks": 192,
          "midi": 68,
          "name": "G#4",
          "ticks": 576,
          "time": 1.058823,
          "velocity": 0.3937007874015748
        },
        {
          "duration": 0.5294114999999999,
          "durationTicks": 288,
          "midi": 32,
          "name": "G#1",
          "ticks": 768,
          "time": 1.411764,
          "velocity": 0.3937007874015748
        },
        {
          "duration": 0.5294114999999999,
          "durationTicks": 288,
          "midi": 44,
          "name": "G#2",
          "ticks": 768,
          "time": 1.411764,
          "velocity": 0.3937007874015748
        },
        {
          "duration": 0.5294114999999999,
          "durationTicks": 288,
          "midi": 56,
          "name": "G#3",
          "ticks": 768,
          "time": 1.411764,
          "velocity": 0.3937007874015748
        },
        {
          "duration": 0.5294114999999999,
          "durationTicks": 288,
          "midi": 60,
          "name": "C4",
          "ticks": 768,
          "time": 1.411764,
          "velocity": 0.3937007874015748
        },
        {
          "duration": 0.5294114999999999,
          "durationTicks": 288,
          "midi": 63,
          "name": "D#4",
          "ticks": 768,
          "time": 1.411764,
          "velocity": 0.3937007874015748
        },
        {
          "duration": 0.5294114999999999,
          "durationTicks": 288,
          "midi": 67,
          "name": "G4",
          "ticks": 768,
          "time": 1.411764,
          "velocity": 0.3937007874015748
        },
        {
          "duration": 0.5294114999999999,
          "durationTicks": 288,
          "midi": 70,
          "name": "A#4",
          "ticks": 768,
          "time": 1.411764,
          "velocity": 0.3937007874015748
        },
        {
          "duration": 0.5294115000000001,
          "durationTicks": 288,
          "midi": 32,
          "name": "G#1",
          "ticks": 1056,
          "time": 1.9411755,
          "velocity": 0.3937007874015748
        },
        {
          "duration": 0.5294115000000001,
          "durationTicks": 288,
          "midi": 44,
          "name": "G#2",
          "ticks": 1056,
          "time": 1.9411755,
          "velocity": 0.3937007874015748
        },
        {
          "duration": 0.5294115000000001,
          "durationTicks": 288,
          "midi": 56,
          "name": "G#3",
          "ticks": 1056,
          "time": 1.9411755,
          "velocity": 0.3937007874015748
        },
        {
          "duration": 0.5294115000000001,
          "durationTicks": 288,
          "midi": 60,
          "name": "C4",
          "ticks": 1056,
          "time": 1.9411755,
          "velocity": 0.3937007874015748
        },
        {
          "duration": 0.5294115000000001,
          "durationTicks": 288,
          "midi": 63,
          "name": "D#4",
          "ticks": 1056,
          "time": 1.9411755,
          "velocity": 0.3937007874015748
        },
        {
          "duration": 0.5294115000000001,
          "durationTicks": 288,
          "midi": 67,
          "name": "G4",
          "ticks": 1056,
          "time": 1.9411755,
          "velocity": 0.3937007874015748
        },
        {
          "duration": 0.5294115000000001,
          "durationTicks": 288,
          "midi": 70,
          "name": "A#4",
          "ticks": 1056,
          "time": 1.9411755,
          "velocity": 0.3937007874015748
        },
        {
          "duration": 0.5294115000000001,
          "durationTicks": 288,
          "midi": 36,
          "name": "C2",
          "ticks": 1344,
          "time": 2.470587,
          "velocity": 0.3937007874015748
        },
        {
          "duration": 0.5294115000000001,
          "durationTicks": 288,
          "midi": 48,
          "name": "C3",
          "ticks": 1344,
          "time": 2.470587,
          "velocity": 0.3937007874015748
        },
        {
          "duration": 0.5294115000000001,
          "durationTicks": 288,
          "midi": 60,
          "name": "C4",
          "ticks": 1344,
          "time": 2.470587,
          "velocity": 0.3937007874015748
        },
        {
          "duration": 0.5294115000000001,
          "durationTicks": 288,
          "midi": 63,
          "name": "D#4",
          "ticks": 1344,
          "time": 2.470587,
          "velocity": 0.3937007874015748
        },
        {
          "duration": 0.5294115000000001,
          "durationTicks": 288,
          "midi": 67,
          "name": "G4",
          "ticks": 1344,
          "time": 2.470587,
          "velocity": 0.3937007874015748
        },
        {
          "duration": 0.5294115000000001,
          "durationTicks": 288,
          "midi": 70,
          "name": "A#4",
          "ticks": 1344,
          "time": 2.470587,
          "velocity": 0.3937007874015748
        },
        {
          "duration": 0.5294115000000001,
          "durationTicks": 288,
          "midi": 72,
          "name": "C5",
          "ticks": 1344,
          "time": 2.470587,
          "velocity": 0.3937007874015748
        },
        {
          "duration": 0.5294114999999997,
          "durationTicks": 288,
          "midi": 36,
          "name": "C2",
          "ticks": 1632,
          "time": 2.9999985000000002,
          "velocity": 0.3937007874015748
        },
        {
          "duration": 0.5294114999999997,
          "durationTicks": 288,
          "midi": 48,
          "name": "C3",
          "ticks": 1632,
          "time": 2.9999985000000002,
          "velocity": 0.3937007874015748
        },
        {
          "duration": 0.5294114999999997,
          "durationTicks": 288,
          "midi": 60,
          "name": "C4",
          "ticks": 1632,
          "time": 2.9999985000000002,
          "velocity": 0.3937007874015748
        },
        {
          "duration": 0.5294114999999997,
          "durationTicks": 288,
          "midi": 63,
          "name": "D#4",
          "ticks": 1632,
          "time": 2.9999985000000002,
          "velocity": 0.3937007874015748
        },
        {
          "duration": 0.5294114999999997,
          "durationTicks": 288,
          "midi": 67,
          "name": "G4",
          "ticks": 1632,
          "time": 2.9999985000000002,
          "velocity": 0.3937007874015748
        },
        {
          "duration": 0.5294114999999997,
          "durationTicks": 288,
          "midi": 70,
          "name": "A#4",
          "ticks": 1632,
          "time": 2.9999985000000002,
          "velocity": 0.3937007874015748
        },
        {
          "duration": 0.5294114999999997,
          "durationTicks": 288,
          "midi": 72,
          "name": "C5",
          "ticks": 1632,
          "time": 2.9999985000000002,
          "velocity": 0.3937007874015748
        },
        {
          "duration": 0.5294114999999997,
          "durationTicks": 288,
          "midi": 36,
          "name": "C2",
          "ticks": 1920,
          "time": 3.52941,
          "velocity": 0.3937007874015748
        },
        {
          "duration": 0.5294114999999997,
          "durationTicks": 288,
          "midi": 48,
          "name": "C3",
          "ticks": 1920,
          "time": 3.52941,
          "velocity": 0.3937007874015748
        },
        {
          "duration": 0.5294114999999997,
          "durationTicks": 288,
          "midi": 60,
          "name": "C4",
          "ticks": 1920,
          "time": 3.52941,
          "velocity": 0.3937007874015748
        },
        {
          "duration": 0.5294114999999997,
          "durationTicks": 288,
          "midi": 63,
          "name": "D#4",
          "ticks": 1920,
          "time": 3.52941,
          "velocity": 0.3937007874015748
        },
        {
          "duration": 0.5294114999999997,
          "durationTicks": 288,
          "midi": 67,
          "name": "G4",
          "ticks": 1920,
          "time": 3.52941,
          "velocity": 0.3937007874015748
        },
        {
          "duration": 0.5294114999999997,
          "durationTicks": 288,
          "midi": 70,
          "name": "A#4",
          "ticks": 1920,
          "time": 3.52941,
          "velocity": 0.3937007874015748
        },
        {
          "duration": 0.5294114999999997,
          "durationTicks": 288,
          "midi": 72,
          "name": "C5",
          "ticks": 1920,
          "time": 3.52941,
          "velocity": 0.3937007874015748
        },
        {
          "duration": 0.5294115000000001,
          "durationTicks": 288,
          "midi": 36,
          "name": "C2",
          "ticks": 2208,
          "time": 4.0588215,
          "velocity": 0.3937007874015748
        },
        {
          "duration": 0.5294115000000001,
          "durationTicks": 288,
          "midi": 48,
          "name": "C3",
          "ticks": 2208,
          "time": 4.0588215,
          "velocity": 0.3937007874015748
        },
        {
          "duration": 0.5294115000000001,
          "durationTicks": 288,
          "midi": 60,
          "name": "C4",
          "ticks": 2208,
          "time": 4.0588215,
          "velocity": 0.3937007874015748
        },
        {
          "duration": 0.5294115000000001,
          "durationTicks": 288,
          "midi": 63,
          "name": "D#4",
          "ticks": 2208,
          "time": 4.0588215,
          "velocity": 0.3937007874015748
        },
        {
          "duration": 0.5294115000000001,
          "durationTicks": 288,
          "midi": 67,
          "name": "G4",
          "ticks": 2208,
          "time": 4.0588215,
          "velocity": 0.3937007874015748
        },
        {
          "duration": 0.5294115000000001,
          "durationTicks": 288,
          "midi": 70,
          "name": "A#4",
          "ticks": 2208,
          "time": 4.0588215,
          "velocity": 0.3937007874015748
        },
        {
          "duration": 0.5294115000000001,
          "durationTicks": 288,
          "midi": 72,
          "name": "C5",
          "ticks": 2208,
          "time": 4.0588215,
          "velocity": 0.3937007874015748
        },
        {
          "duration": 0.5294115000000001,
          "durationTicks": 288,
          "midi": 36,
          "name": "C2",
          "ticks": 2496,
          "time": 4.588233,
          "velocity": 0.3937007874015748
        },
        {
          "duration": 0.5294115000000001,
          "durationTicks": 288,
          "midi": 48,
          "name": "C3",
          "ticks": 2496,
          "time": 4.588233,
          "velocity": 0.3937007874015748
        },
        {
          "duration": 0.5294115000000001,
          "durationTicks": 288,
          "midi": 60,
          "name": "C4",
          "ticks": 2496,
          "time": 4.588233,
          "velocity": 0.3937007874015748
        },
        {
          "duration": 0.5294115000000001,
          "durationTicks": 288,
          "midi": 63,
          "name": "D#4",
          "ticks": 2496,
          "time": 4.588233,
          "velocity": 0.3937007874015748
        },
        {
          "duration": 0.5294115000000001,
          "durationTicks": 288,
          "midi": 67,
          "name": "G4",
          "ticks": 2496,
          "time": 4.588233,
          "velocity": 0.3937007874015748
        },
        {
          "duration": 0.5294115000000001,
          "durationTicks": 288,
          "midi": 70,
          "name": "A#4",
          "ticks": 2496,
          "time": 4.588233,
          "velocity": 0.3937007874015748
        },
        {
          "duration": 0.5294115000000001,
          "durationTicks": 288,
          "midi": 72,
          "name": "C5",
          "ticks": 2496,
          "time": 4.588233,
          "velocity": 0.3937007874015748
        },
        {
          "duration": 0.5294115000000001,
          "durationTicks": 288,
          "midi": 36,
          "name": "C2",
          "ticks": 2784,
          "time": 5.1176445,
          "velocity": 0.3937007874015748
        },
        {
          "duration": 0.5294115000000001,
          "durationTicks": 288,
          "midi": 48,
          "name": "C3",
          "ticks": 2784,
          "time": 5.1176445,
          "velocity": 0.3937007874015748
        },
        {
          "duration": 0.5294115000000001,
          "durationTicks": 288,
          "midi": 60,
          "name": "C4",
          "ticks": 2784,
          "time": 5.1176445,
          "velocity": 0.3937007874015748
        },
        {
          "duration": 0.5294115000000001,
          "durationTicks": 288,
          "midi": 63,
          "name": "D#4",
          "ticks": 2784,
          "time": 5.1176445,
          "velocity": 0.3937007874015748
        },
        {
          "duration": 0.5294115000000001,
          "durationTicks": 288,
          "midi": 67,
          "name": "G4",
          "ticks": 2784,
          "time": 5.1176445,
          "velocity": 0.3937007874015748
        },
        {
          "duration": 0.5294115000000001,
          "durationTicks": 288,
          "midi": 70,
          "name": "A#4",
          "ticks": 2784,
          "time": 5.1176445,
          "velocity": 0.3937007874015748
        },
        {
          "duration": 0.5294115000000001,
          "durationTicks": 288,
          "midi": 72,
          "name": "C5",
          "ticks": 2784,
          "time": 5.1176445,
          "velocity": 0.3937007874015748
        },
        {
          "duration": 0.5294115000000001,
          "durationTicks": 288,
          "midi": 29,
          "name": "F1",
          "ticks": 3072,
          "time": 5.647056,
          "velocity": 0.3937007874015748
        },
        {
          "duration": 0.5294115000000001,
          "durationTicks": 288,
          "midi": 41,
          "name": "F2",
          "ticks": 3072,
          "time": 5.647056,
          "velocity": 0.3937007874015748
        },
        {
          "duration": 0.5294115000000001,
          "durationTicks": 288,
          "midi": 53,
          "name": "F3",
          "ticks": 3072,
          "time": 5.647056,
          "velocity": 0.3937007874015748
        },
        {
          "duration": 0.5294115000000001,
          "durationTicks": 288,
          "midi": 56,
          "name": "G#3",
          "ticks": 3072,
          "time": 5.647056,
          "velocity": 0.3937007874015748
        },
        {
          "duration": 0.5294115000000001,
          "durationTicks": 288,
          "midi": 60,
          "name": "C4",
          "ticks": 3072,
          "time": 5.647056,
          "velocity": 0.3937007874015748
        },
        {
          "duration": 0.5294115000000001,
          "durationTicks": 288,
          "midi": 63,
          "name": "D#4",
          "ticks": 3072,
          "time": 5.647056,
          "velocity": 0.3937007874015748
        },
        {
          "duration": 0.5294115000000001,
          "durationTicks": 288,
          "midi": 75,
          "name": "D#5",
          "ticks": 3072,
          "time": 5.647056,
          "velocity": 0.3937007874015748
        },
        {
          "duration": 0.5294115000000001,
          "durationTicks": 288,
          "midi": 29,
          "name": "F1",
          "ticks": 3360,
          "time": 6.1764675,
          "velocity": 0.3937007874015748
        },
        {
          "duration": 0.5294115000000001,
          "durationTicks": 288,
          "midi": 41,
          "name": "F2",
          "ticks": 3360,
          "time": 6.1764675,
          "velocity": 0.3937007874015748
        },
        {
          "duration": 0.5294115000000001,
          "durationTicks": 288,
          "midi": 53,
          "name": "F3",
          "ticks": 3360,
          "time": 6.1764675,
          "velocity": 0.3937007874015748
        },
        {
          "duration": 0.5294115000000001,
          "durationTicks": 288,
          "midi": 56,
          "name": "G#3",
          "ticks": 3360,
          "time": 6.1764675,
          "velocity": 0.3937007874015748
        },
        {
          "duration": 0.5294115000000001,
          "durationTicks": 288,
          "midi": 60,
          "name": "C4",
          "ticks": 3360,
          "time": 6.1764675,
          "velocity": 0.3937007874015748
        },
        {
          "duration": 0.5294115000000001,
          "durationTicks": 288,
          "midi": 63,
          "name": "D#4",
          "ticks": 3360,
          "time": 6.1764675,
          "velocity": 0.3937007874015748
        },
        {
          "duration": 0.5294115000000001,
          "durationTicks": 288,
          "midi": 75,
          "name": "D#5",
          "ticks": 3360,
          "time": 6.1764675,
          "velocity": 0.3937007874015748
        },
        {
          "duration": 0.3529409999999995,
          "durationTicks": 192,
          "midi": 29,
          "name": "F1",
          "ticks": 3648,
          "time": 6.705879,
          "velocity": 0.3937007874015748
        },
        {
          "duration": 0.3529409999999995,
          "durationTicks": 192,
          "midi": 41,
          "name": "F2",
          "ticks": 3648,
          "time": 6.705879,
          "velocity": 0.3937007874015748
        },
        {
          "duration": 0.3529409999999995,
          "durationTicks": 192,
          "midi": 53,
          "name": "F3",
          "ticks": 3648,
          "time": 6.705879,
          "velocity": 0.3937007874015748
        },
        {
          "duration": 0.3529409999999995,
          "durationTicks": 192,
          "midi": 56,
          "name": "G#3",
          "ticks": 3648,
          "time": 6.705879,
          "velocity": 0.3937007874015748
        },
        {
          "duration": 0.3529409999999995,
          "durationTicks": 192,
          "midi": 60,
          "name": "C4",
          "ticks": 3648,
          "time": 6.705879,
          "velocity": 0.3937007874015748
        },
        {
          "duration": 0.3529409999999995,
          "durationTicks": 192,
          "midi": 63,
          "name": "D#4",
          "ticks": 3648,
          "time": 6.705879,
          "velocity": 0.3937007874015748
        },
        {
          "duration": 0.3529409999999995,
          "durationTicks": 192,
          "midi": 75,
          "name": "D#5",
          "ticks": 3648,
          "time": 6.705879,
          "velocity": 0.3937007874015748
        },
        {
          "duration": 0.5294115000000001,
          "durationTicks": 288,
          "midi": 34,
          "name": "A#1",
          "ticks": 3840,
          "time": 7.05882,
          "velocity": 0.3937007874015748
        },
        {
          "duration": 0.5294115000000001,
          "durationTicks": 288,
          "midi": 46,
          "name": "A#2",
          "ticks": 3840,
          "time": 7.05882,
          "velocity": 0.3937007874015748
        },
        {
          "duration": 0.5294115000000001,
          "durationTicks": 288,
          "midi": 58,
          "name": "A#3",
          "ticks": 3840,
          "time": 7.05882,
          "velocity": 0.3937007874015748
        },
        {
          "duration": 0.5294115000000001,
          "durationTicks": 288,
          "midi": 61,
          "name": "C#4",
          "ticks": 3840,
          "time": 7.05882,
          "velocity": 0.3937007874015748
        },
        {
          "duration": 0.5294115000000001,
          "durationTicks": 288,
          "midi": 65,
          "name": "F4",
          "ticks": 3840,
          "time": 7.05882,
          "velocity": 0.3937007874015748
        },
        {
          "duration": 0.5294115000000001,
          "durationTicks": 288,
          "midi": 68,
          "name": "G#4",
          "ticks": 3840,
          "time": 7.05882,
          "velocity": 0.3937007874015748
        },
        {
          "duration": 0.5294115000000001,
          "durationTicks": 288,
          "midi": 70,
          "name": "A#4",
          "ticks": 3840,
          "time": 7.05882,
          "velocity": 0.3937007874015748
        },
        {
          "duration": 0.5294114999999993,
          "durationTicks": 288,
          "midi": 34,
          "name": "A#1",
          "ticks": 4128,
          "time": 7.5882315,
          "velocity": 0.3937007874015748
        },
        {
          "duration": 0.5294114999999993,
          "durationTicks": 288,
          "midi": 46,
          "name": "A#2",
          "ticks": 4128,
          "time": 7.5882315,
          "velocity": 0.3937007874015748
        },
        {
          "duration": 0.5294114999999993,
          "durationTicks": 288,
          "midi": 58,
          "name": "A#3",
          "ticks": 4128,
          "time": 7.5882315,
          "velocity": 0.3937007874015748
        },
        {
          "duration": 0.5294114999999993,
          "durationTicks": 288,
          "midi": 61,
          "name": "C#4",
          "ticks": 4128,
          "time": 7.5882315,
          "velocity": 0.3937007874015748
        },
        {
          "duration": 0.5294114999999993,
          "durationTicks": 288,
          "midi": 65,
          "name": "F4",
          "ticks": 4128,
          "time": 7.5882315,
          "velocity": 0.3937007874015748
        },
        {
          "duration": 0.5294114999999993,
          "durationTicks": 288,
          "midi": 68,
          "name": "G#4",
          "ticks": 4128,
          "time": 7.5882315,
          "velocity": 0.3937007874015748
        },
        {
          "duration": 0.5294114999999993,
          "durationTicks": 288,
          "midi": 70,
          "name": "A#4",
          "ticks": 4128,
          "time": 7.5882315,
          "velocity": 0.3937007874015748
        },
        {
          "duration": 0.5294115000000001,
          "durationTicks": 288,
          "midi": 32,
          "name": "G#1",
          "ticks": 4416,
          "time": 8.117643,
          "velocity": 0.3937007874015748
        },
        {
          "duration": 0.5294115000000001,
          "durationTicks": 288,
          "midi": 44,
          "name": "G#2",
          "ticks": 4416,
          "time": 8.117643,
          "velocity": 0.3937007874015748
        },
        {
          "duration": 0.5294115000000001,
          "durationTicks": 288,
          "midi": 56,
          "name": "G#3",
          "ticks": 4416,
          "time": 8.117643,
          "velocity": 0.3937007874015748
        },
        {
          "duration": 0.5294115000000001,
          "durationTicks": 288,
          "midi": 60,
          "name": "C4",
          "ticks": 4416,
          "time": 8.117643,
          "velocity": 0.3937007874015748
        },
        {
          "duration": 0.5294115000000001,
          "durationTicks": 288,
          "midi": 63,
          "name": "D#4",
          "ticks": 4416,
          "time": 8.117643,
          "velocity": 0.3937007874015748
        },
        {
          "duration": 0.5294115000000001,
          "durationTicks": 288,
          "midi": 67,
          "name": "G4",
          "ticks": 4416,
          "time": 8.117643,
          "velocity": 0.3937007874015748
        },
        {
          "duration": 0.5294115000000001,
          "durationTicks": 288,
          "midi": 68,
          "name": "G#4",
          "ticks": 4416,
          "time": 8.117643,
          "velocity": 0.3937007874015748
        },
        {
          "duration": 0.5294115000000001,
          "durationTicks": 288,
          "midi": 32,
          "name": "G#1",
          "ticks": 4704,
          "time": 8.6470545,
          "velocity": 0.3937007874015748
        },
        {
          "duration": 0.5294115000000001,
          "durationTicks": 288,
          "midi": 44,
          "name": "G#2",
          "ticks": 4704,
          "time": 8.6470545,
          "velocity": 0.3937007874015748
        },
        {
          "duration": 0.5294115000000001,
          "durationTicks": 288,
          "midi": 56,
          "name": "G#3",
          "ticks": 4704,
          "time": 8.6470545,
          "velocity": 0.3937007874015748
        },
        {
          "duration": 0.5294115000000001,
          "durationTicks": 288,
          "midi": 60,
          "name": "C4",
          "ticks": 4704,
          "time": 8.6470545,
          "velocity": 0.3937007874015748
        },
        {
          "duration": 0.5294115000000001,
          "durationTicks": 288,
          "midi": 63,
          "name": "D#4",
          "ticks": 4704,
          "time": 8.6470545,
          "velocity": 0.3937007874015748
        },
        {
          "duration": 0.5294115000000001,
          "durationTicks": 288,
          "midi": 67,
          "name": "G4",
          "ticks": 4704,
          "time": 8.6470545,
          "velocity": 0.3937007874015748
        },
        {
          "duration": 0.5294115000000001,
          "durationTicks": 288,
          "midi": 68,
          "name": "G#4",
          "ticks": 4704,
          "time": 8.6470545,
          "velocity": 0.3937007874015748
        },
        {
          "duration": 0.5294115000000001,
          "durationTicks": 288,
          "midi": 32,
          "name": "G#1",
          "ticks": 4992,
          "time": 9.176466,
          "velocity": 0.3937007874015748
        },
        {
          "duration": 0.5294115000000001,
          "durationTicks": 288,
          "midi": 44,
          "name": "G#2",
          "ticks": 4992,
          "time": 9.176466,
          "velocity": 0.3937007874015748
        },
        {
          "duration": 0.5294115000000001,
          "durationTicks": 288,
          "midi": 56,
          "name": "G#3",
          "ticks": 4992,
          "time": 9.176466,
          "velocity": 0.3937007874015748
        },
        {
          "duration": 0.5294115000000001,
          "durationTicks": 288,
          "midi": 60,
          "name": "C4",
          "ticks": 4992,
          "time": 9.176466,
          "velocity": 0.3937007874015748
        },
        {
          "duration": 0.5294115000000001,
          "durationTicks": 288,
          "midi": 63,
          "name": "D#4",
          "ticks": 4992,
          "time": 9.176466,
          "velocity": 0.3937007874015748
        },
        {
          "duration": 0.5294115000000001,
          "durationTicks": 288,
          "midi": 67,
          "name": "G4",
          "ticks": 4992,
          "time": 9.176466,
          "velocity": 0.3937007874015748
        },
        {
          "duration": 0.5294115000000001,
          "durationTicks": 288,
          "midi": 68,
          "name": "G#4",
          "ticks": 4992,
          "time": 9.176466,
          "velocity": 0.3937007874015748
        },
        {
          "duration": 0.5294115000000001,
          "durationTicks": 288,
          "midi": 32,
          "name": "G#1",
          "ticks": 5280,
          "time": 9.7058775,
          "velocity": 0.3937007874015748
        },
        {
          "duration": 0.5294115000000001,
          "durationTicks": 288,
          "midi": 44,
          "name": "G#2",
          "ticks": 5280,
          "time": 9.7058775,
          "velocity": 0.3937007874015748
        },
        {
          "duration": 0.5294115000000001,
          "durationTicks": 288,
          "midi": 56,
          "name": "G#3",
          "ticks": 5280,
          "time": 9.7058775,
          "velocity": 0.3937007874015748
        },
        {
          "duration": 0.5294115000000001,
          "durationTicks": 288,
          "midi": 60,
          "name": "C4",
          "ticks": 5280,
          "time": 9.7058775,
          "velocity": 0.3937007874015748
        },
        {
          "duration": 0.5294115000000001,
          "durationTicks": 288,
          "midi": 63,
          "name": "D#4",
          "ticks": 5280,
          "time": 9.7058775,
          "velocity": 0.3937007874015748
        },
        {
          "duration": 0.5294115000000001,
          "durationTicks": 288,
          "midi": 67,
          "name": "G4",
          "ticks": 5280,
          "time": 9.7058775,
          "velocity": 0.3937007874015748
        },
        {
          "duration": 0.5294115000000001,
          "durationTicks": 288,
          "midi": 68,
          "name": "G#4",
          "ticks": 5280,
          "time": 9.7058775,
          "velocity": 0.3937007874015748
        },
        {
          "duration": 0.5294115000000001,
          "durationTicks": 288,
          "midi": 32,
          "name": "G#1",
          "ticks": 5568,
          "time": 10.235289,
          "velocity": 0.3937007874015748
        },
        {
          "duration": 0.5294115000000001,
          "durationTicks": 288,
          "midi": 44,
          "name": "G#2",
          "ticks": 5568,
          "time": 10.235289,
          "velocity": 0.3937007874015748
        },
        {
          "duration": 0.5294115000000001,
          "durationTicks": 288,
          "midi": 56,
          "name": "G#3",
          "ticks": 5568,
          "time": 10.235289,
          "velocity": 0.3937007874015748
        },
        {
          "duration": 0.5294115000000001,
          "durationTicks": 288,
          "midi": 60,
          "name": "C4",
          "ticks": 5568,
          "time": 10.235289,
          "velocity": 0.3937007874015748
        },
        {
          "duration": 0.5294115000000001,
          "durationTicks": 288,
          "midi": 63,
          "name": "D#4",
          "ticks": 5568,
          "time": 10.235289,
          "velocity": 0.3937007874015748
        },
        {
          "duration": 0.5294115000000001,
          "durationTicks": 288,
          "midi": 67,
          "name": "G4",
          "ticks": 5568,
          "time": 10.235289,
          "velocity": 0.3937007874015748
        },
        {
          "duration": 0.5294115000000001,
          "durationTicks": 288,
          "midi": 68,
          "name": "G#4",
          "ticks": 5568,
          "time": 10.235289,
          "velocity": 0.3937007874015748
        },
        {
          "duration": 0.5294115000000001,
          "durationTicks": 288,
          "midi": 32,
          "name": "G#1",
          "ticks": 5856,
          "time": 10.7647005,
          "velocity": 0.3937007874015748
        },
        {
          "duration": 0.5294115000000001,
          "durationTicks": 288,
          "midi": 44,
          "name": "G#2",
          "ticks": 5856,
          "time": 10.7647005,
          "velocity": 0.3937007874015748
        },
        {
          "duration": 0.5294115000000001,
          "durationTicks": 288,
          "midi": 56,
          "name": "G#3",
          "ticks": 5856,
          "time": 10.7647005,
          "velocity": 0.3937007874015748
        },
        {
          "duration": 0.5294115000000001,
          "durationTicks": 288,
          "midi": 60,
          "name": "C4",
          "ticks": 5856,
          "time": 10.7647005,
          "velocity": 0.3937007874015748
        },
        {
          "duration": 0.5294115000000001,
          "durationTicks": 288,
          "midi": 63,
          "name": "D#4",
          "ticks": 5856,
          "time": 10.7647005,
          "velocity": 0.3937007874015748
        },
        {
          "duration": 0.5294115000000001,
          "durationTicks": 288,
          "midi": 67,
          "name": "G4",
          "ticks": 5856,
          "time": 10.7647005,
          "velocity": 0.3937007874015748
        },
        {
          "duration": 0.5294115000000001,
          "durationTicks": 288,
          "midi": 68,
          "name": "G#4",
          "ticks": 5856,
          "time": 10.7647005,
          "velocity": 0.3937007874015748
        },
        {
          "duration": 0.5294115000000001,
          "durationTicks": 288,
          "midi": 29,
          "name": "F1",
          "ticks": 6144,
          "time": 11.294112,
          "velocity": 0.3937007874015748
        },
        {
          "duration": 0.5294115000000001,
          "durationTicks": 288,
          "midi": 41,
          "name": "F2",
          "ticks": 6144,
          "time": 11.294112,
          "velocity": 0.3937007874015748
        },
        {
          "duration": 0.5294115000000001,
          "durationTicks": 288,
          "midi": 53,
          "name": "F3",
          "ticks": 6144,
          "time": 11.294112,
          "velocity": 0.3937007874015748
        },
        {
          "duration": 0.5294115000000001,
          "durationTicks": 288,
          "midi": 56,
          "name": "G#3",
          "ticks": 6144,
          "time": 11.294112,
          "velocity": 0.3937007874015748
        },
        {
          "duration": 0.5294115000000001,
          "durationTicks": 288,
          "midi": 60,
          "name": "C4",
          "ticks": 6144,
          "time": 11.294112,
          "velocity": 0.3937007874015748
        },
        {
          "duration": 0.5294115000000001,
          "durationTicks": 288,
          "midi": 63,
          "name": "D#4",
          "ticks": 6144,
          "time": 11.294112,
          "velocity": 0.3937007874015748
        },
        {
          "duration": 0.5294115000000001,
          "durationTicks": 288,
          "midi": 72,
          "name": "C5",
          "ticks": 6144,
          "time": 11.294112,
          "velocity": 0.3937007874015748
        },
        {
          "duration": 0.5294115000000001,
          "durationTicks": 288,
          "midi": 29,
          "name": "F1",
          "ticks": 6432,
          "time": 11.8235235,
          "velocity": 0.3937007874015748
        },
        {
          "duration": 0.5294115000000001,
          "durationTicks": 288,
          "midi": 41,
          "name": "F2",
          "ticks": 6432,
          "time": 11.8235235,
          "velocity": 0.3937007874015748
        },
        {
          "duration": 0.5294115000000001,
          "durationTicks": 288,
          "midi": 53,
          "name": "F3",
          "ticks": 6432,
          "time": 11.8235235,
          "velocity": 0.3937007874015748
        },
        {
          "duration": 0.5294115000000001,
          "durationTicks": 288,
          "midi": 56,
          "name": "G#3",
          "ticks": 6432,
          "time": 11.8235235,
          "velocity": 0.3937007874015748
        },
        {
          "duration": 0.5294115000000001,
          "durationTicks": 288,
          "midi": 60,
          "name": "C4",
          "ticks": 6432,
          "time": 11.8235235,
          "velocity": 0.3937007874015748
        },
        {
          "duration": 0.5294115000000001,
          "durationTicks": 288,
          "midi": 63,
          "name": "D#4",
          "ticks": 6432,
          "time": 11.8235235,
          "velocity": 0.3937007874015748
        },
        {
          "duration": 0.5294115000000001,
          "durationTicks": 288,
          "midi": 72,
          "name": "C5",
          "ticks": 6432,
          "time": 11.8235235,
          "velocity": 0.3937007874015748
        },
        {
          "duration": 0.3529409999999995,
          "durationTicks": 192,
          "midi": 29,
          "name": "F1",
          "ticks": 6720,
          "time": 12.352935,
          "velocity": 0.3937007874015748
        },
        {
          "duration": 0.3529409999999995,
          "durationTicks": 192,
          "midi": 41,
          "name": "F2",
          "ticks": 6720,
          "time": 12.352935,
          "velocity": 0.3937007874015748
        },
        {
          "duration": 0.3529409999999995,
          "durationTicks": 192,
          "midi": 53,
          "name": "F3",
          "ticks": 6720,
          "time": 12.352935,
          "velocity": 0.3937007874015748
        },
        {
          "duration": 0.3529409999999995,
          "durationTicks": 192,
          "midi": 56,
          "name": "G#3",
          "ticks": 6720,
          "time": 12.352935,
          "velocity": 0.3937007874015748
        },
        {
          "duration": 0.3529409999999995,
          "durationTicks": 192,
          "midi": 60,
          "name": "C4",
          "ticks": 6720,
          "time": 12.352935,
          "velocity": 0.3937007874015748
        },
        {
          "duration": 0.3529409999999995,
          "durationTicks": 192,
          "midi": 63,
          "name": "D#4",
          "ticks": 6720,
          "time": 12.352935,
          "velocity": 0.3937007874015748
        },
        {
          "duration": 0.3529409999999995,
          "durationTicks": 192,
          "midi": 72,
          "name": "C5",
          "ticks": 6720,
          "time": 12.352935,
          "velocity": 0.3937007874015748
        },
        {
          "duration": 0.5294115000000001,
          "durationTicks": 288,
          "midi": 32,
          "name": "G#1",
          "ticks": 6912,
          "time": 12.705876,
          "velocity": 0.3937007874015748
        },
        {
          "duration": 0.5294115000000001,
          "durationTicks": 288,
          "midi": 44,
          "name": "G#2",
          "ticks": 6912,
          "time": 12.705876,
          "velocity": 0.3937007874015748
        },
        {
          "duration": 0.5294115000000001,
          "durationTicks": 288,
          "midi": 56,
          "name": "G#3",
          "ticks": 6912,
          "time": 12.705876,
          "velocity": 0.3937007874015748
        },
        {
          "duration": 0.5294115000000001,
          "durationTicks": 288,
          "midi": 60,
          "name": "C4",
          "ticks": 6912,
          "time": 12.705876,
          "velocity": 0.3937007874015748
        },
        {
          "duration": 0.5294115000000001,
          "durationTicks": 288,
          "midi": 63,
          "name": "D#4",
          "ticks": 6912,
          "time": 12.705876,
          "velocity": 0.3937007874015748
        },
        {
          "duration": 0.5294115000000001,
          "durationTicks": 288,
          "midi": 67,
          "name": "G4",
          "ticks": 6912,
          "time": 12.705876,
          "velocity": 0.3937007874015748
        },
        {
          "duration": 0.5294115000000001,
          "durationTicks": 288,
          "midi": 68,
          "name": "G#4",
          "ticks": 6912,
          "time": 12.705876,
          "velocity": 0.3937007874015748
        },
        {
          "duration": 0.5294115000000001,
          "durationTicks": 288,
          "midi": 32,
          "name": "G#1",
          "ticks": 7200,
          "time": 13.2352875,
          "velocity": 0.3937007874015748
        },
        {
          "duration": 0.5294115000000001,
          "durationTicks": 288,
          "midi": 44,
          "name": "G#2",
          "ticks": 7200,
          "time": 13.2352875,
          "velocity": 0.3937007874015748
        },
        {
          "duration": 0.5294115000000001,
          "durationTicks": 288,
          "midi": 56,
          "name": "G#3",
          "ticks": 7200,
          "time": 13.2352875,
          "velocity": 0.3937007874015748
        },
        {
          "duration": 0.5294115000000001,
          "durationTicks": 288,
          "midi": 60,
          "name": "C4",
          "ticks": 7200,
          "time": 13.2352875,
          "velocity": 0.3937007874015748
        },
        {
          "duration": 0.5294115000000001,
          "durationTicks": 288,
          "midi": 63,
          "name": "D#4",
          "ticks": 7200,
          "time": 13.2352875,
          "velocity": 0.3937007874015748
        },
        {
          "duration": 0.5294115000000001,
          "durationTicks": 288,
          "midi": 67,
          "name": "G4",
          "ticks": 7200,
          "time": 13.2352875,
          "velocity": 0.3937007874015748
        },
        {
          "duration": 0.5294115000000001,
          "durationTicks": 288,
          "midi": 68,
          "name": "G#4",
          "ticks": 7200,
          "time": 13.2352875,
          "velocity": 0.3937007874015748
        },
        {
          "duration": 0.5294115000000001,
          "durationTicks": 288,
          "midi": 36,
          "name": "C2",
          "ticks": 7488,
          "time": 13.764699,
          "velocity": 0.3937007874015748
        },
        {
          "duration": 0.5294115000000001,
          "durationTicks": 288,
          "midi": 48,
          "name": "C3",
          "ticks": 7488,
          "time": 13.764699,
          "velocity": 0.3937007874015748
        },
        {
          "duration": 0.5294115000000001,
          "durationTicks": 288,
          "midi": 60,
          "name": "C4",
          "ticks": 7488,
          "time": 13.764699,
          "velocity": 0.3937007874015748
        },
        {
          "duration": 0.5294115000000001,
          "durationTicks": 288,
          "midi": 63,
          "name": "D#4",
          "ticks": 7488,
          "time": 13.764699,
          "velocity": 0.3937007874015748
        },
        {
          "duration": 0.5294115000000001,
          "durationTicks": 288,
          "midi": 65,
          "name": "F4",
          "ticks": 7488,
          "time": 13.764699,
          "velocity": 0.3937007874015748
        },
        {
          "duration": 0.5294115000000001,
          "durationTicks": 288,
          "midi": 67,
          "name": "G4",
          "ticks": 7488,
          "time": 13.764699,
          "velocity": 0.3937007874015748
        },
        {
          "duration": 0.5294115000000001,
          "durationTicks": 288,
          "midi": 70,
          "name": "A#4",
          "ticks": 7488,
          "time": 13.764699,
          "velocity": 0.3937007874015748
        },
        {
          "duration": 0.5294115000000001,
          "durationTicks": 288,
          "midi": 36,
          "name": "C2",
          "ticks": 7776,
          "time": 14.2941105,
          "velocity": 0.3937007874015748
        },
        {
          "duration": 0.5294115000000001,
          "durationTicks": 288,
          "midi": 48,
          "name": "C3",
          "ticks": 7776,
          "time": 14.2941105,
          "velocity": 0.3937007874015748
        },
        {
          "duration": 0.5294115000000001,
          "durationTicks": 288,
          "midi": 60,
          "name": "C4",
          "ticks": 7776,
          "time": 14.2941105,
          "velocity": 0.3937007874015748
        },
        {
          "duration": 0.5294115000000001,
          "durationTicks": 288,
          "midi": 63,
          "name": "D#4",
          "ticks": 7776,
          "time": 14.2941105,
          "velocity": 0.3937007874015748
        },
        {
          "duration": 0.5294115000000001,
          "durationTicks": 288,
          "midi": 65,
          "name": "F4",
          "ticks": 7776,
          "time": 14.2941105,
          "velocity": 0.3937007874015748
        },
        {
          "duration": 0.5294115000000001,
          "durationTicks": 288,
          "midi": 67,
          "name": "G4",
          "ticks": 7776,
          "time": 14.2941105,
          "velocity": 0.3937007874015748
        },
        {
          "duration": 0.5294115000000001,
          "durationTicks": 288,
          "midi": 70,
          "name": "A#4",
          "ticks": 7776,
          "time": 14.2941105,
          "velocity": 0.3937007874015748
        },
        {
          "duration": 0.5294115000000001,
          "durationTicks": 288,
          "midi": 36,
          "name": "C2",
          "ticks": 8064,
          "time": 14.823522,
          "velocity": 0.3937007874015748
        },
        {
          "duration": 0.5294115000000001,
          "durationTicks": 288,
          "midi": 48,
          "name": "C3",
          "ticks": 8064,
          "time": 14.823522,
          "velocity": 0.3937007874015748
        },
        {
          "duration": 0.5294115000000001,
          "durationTicks": 288,
          "midi": 60,
          "name": "C4",
          "ticks": 8064,
          "time": 14.823522,
          "velocity": 0.3937007874015748
        },
        {
          "duration": 0.5294115000000001,
          "durationTicks": 288,
          "midi": 63,
          "name": "D#4",
          "ticks": 8064,
          "time": 14.823522,
          "velocity": 0.3937007874015748
        },
        {
          "duration": 0.5294115000000001,
          "durationTicks": 288,
          "midi": 65,
          "name": "F4",
          "ticks": 8064,
          "time": 14.823522,
          "velocity": 0.3937007874015748
        },
        {
          "duration": 0.5294115000000001,
          "durationTicks": 288,
          "midi": 67,
          "name": "G4",
          "ticks": 8064,
          "time": 14.823522,
          "velocity": 0.3937007874015748
        },
        {
          "duration": 0.5294115000000001,
          "durationTicks": 288,
          "midi": 70,
          "name": "A#4",
          "ticks": 8064,
          "time": 14.823522,
          "velocity": 0.3937007874015748
        },
        {
          "duration": 0.5294115000000001,
          "durationTicks": 288,
          "midi": 36,
          "name": "C2",
          "ticks": 8352,
          "time": 15.3529335,
          "velocity": 0.3937007874015748
        },
        {
          "duration": 0.5294115000000001,
          "durationTicks": 288,
          "midi": 48,
          "name": "C3",
          "ticks": 8352,
          "time": 15.3529335,
          "velocity": 0.3937007874015748
        },
        {
          "duration": 0.5294115000000001,
          "durationTicks": 288,
          "midi": 60,
          "name": "C4",
          "ticks": 8352,
          "time": 15.3529335,
          "velocity": 0.3937007874015748
        },
        {
          "duration": 0.5294115000000001,
          "durationTicks": 288,
          "midi": 63,
          "name": "D#4",
          "ticks": 8352,
          "time": 15.3529335,
          "velocity": 0.3937007874015748
        },
        {
          "duration": 0.5294115000000001,
          "durationTicks": 288,
          "midi": 65,
          "name": "F4",
          "ticks": 8352,
          "time": 15.3529335,
          "velocity": 0.3937007874015748
        },
        {
          "duration": 0.5294115000000001,
          "durationTicks": 288,
          "midi": 67,
          "name": "G4",
          "ticks": 8352,
          "time": 15.3529335,
          "velocity": 0.3937007874015748
        },
        {
          "duration": 0.5294115000000001,
          "durationTicks": 288,
          "midi": 70,
          "name": "A#4",
          "ticks": 8352,
          "time": 15.3529335,
          "velocity": 0.3937007874015748
        },
        {
          "duration": 0.5294114999999984,
          "durationTicks": 288,
          "midi": 36,
          "name": "C2",
          "ticks": 8640,
          "time": 15.882345,
          "velocity": 0.3937007874015748
        },
        {
          "duration": 0.5294114999999984,
          "durationTicks": 288,
          "midi": 48,
          "name": "C3",
          "ticks": 8640,
          "time": 15.882345,
          "velocity": 0.3937007874015748
        },
        {
          "duration": 0.5294114999999984,
          "durationTicks": 288,
          "midi": 60,
          "name": "C4",
          "ticks": 8640,
          "time": 15.882345,
          "velocity": 0.3937007874015748
        },
        {
          "duration": 0.5294114999999984,
          "durationTicks": 288,
          "midi": 63,
          "name": "D#4",
          "ticks": 8640,
          "time": 15.882345,
          "velocity": 0.3937007874015748
        },
        {
          "duration": 0.5294114999999984,
          "durationTicks": 288,
          "midi": 65,
          "name": "F4",
          "ticks": 8640,
          "time": 15.882345,
          "velocity": 0.3937007874015748
        },
        {
          "duration": 0.5294114999999984,
          "durationTicks": 288,
          "midi": 67,
          "name": "G4",
          "ticks": 8640,
          "time": 15.882345,
          "velocity": 0.3937007874015748
        },
        {
          "duration": 0.5294114999999984,
          "durationTicks": 288,
          "midi": 70,
          "name": "A#4",
          "ticks": 8640,
          "time": 15.882345,
          "velocity": 0.3937007874015748
        },
        {
          "duration": 0.5294115000000019,
          "durationTicks": 288,
          "midi": 36,
          "name": "C2",
          "ticks": 8928,
          "time": 16.4117565,
          "velocity": 0.3937007874015748
        },
        {
          "duration": 0.5294115000000019,
          "durationTicks": 288,
          "midi": 48,
          "name": "C3",
          "ticks": 8928,
          "time": 16.4117565,
          "velocity": 0.3937007874015748
        },
        {
          "duration": 0.5294115000000019,
          "durationTicks": 288,
          "midi": 60,
          "name": "C4",
          "ticks": 8928,
          "time": 16.4117565,
          "velocity": 0.3937007874015748
        },
        {
          "duration": 0.5294115000000019,
          "durationTicks": 288,
          "midi": 63,
          "name": "D#4",
          "ticks": 8928,
          "time": 16.4117565,
          "velocity": 0.3937007874015748
        },
        {
          "duration": 0.5294115000000019,
          "durationTicks": 288,
          "midi": 65,
          "name": "F4",
          "ticks": 8928,
          "time": 16.4117565,
          "velocity": 0.3937007874015748
        },
        {
          "duration": 0.5294115000000019,
          "durationTicks": 288,
          "midi": 67,
          "name": "G4",
          "ticks": 8928,
          "time": 16.4117565,
          "velocity": 0.3937007874015748
        },
        {
          "duration": 0.5294115000000019,
          "durationTicks": 288,
          "midi": 70,
          "name": "A#4",
          "ticks": 8928,
          "time": 16.4117565,
          "velocity": 0.3937007874015748
        },
        {
          "duration": 0.5294114999999984,
          "durationTicks": 288,
          "midi": 29,
          "name": "F1",
          "ticks": 9216,
          "time": 16.941168,
          "velocity": 0.3937007874015748
        },
        {
          "duration": 0.5294114999999984,
          "durationTicks": 288,
          "midi": 41,
          "name": "F2",
          "ticks": 9216,
          "time": 16.941168,
          "velocity": 0.3937007874015748
        },
        {
          "duration": 0.5294114999999984,
          "durationTicks": 288,
          "midi": 53,
          "name": "F3",
          "ticks": 9216,
          "time": 16.941168,
          "velocity": 0.3937007874015748
        },
        {
          "duration": 0.5294114999999984,
          "durationTicks": 288,
          "midi": 56,
          "name": "G#3",
          "ticks": 9216,
          "time": 16.941168,
          "velocity": 0.3937007874015748
        },
        {
          "duration": 0.5294114999999984,
          "durationTicks": 288,
          "midi": 60,
          "name": "C4",
          "ticks": 9216,
          "time": 16.941168,
          "velocity": 0.3937007874015748
        },
        {
          "duration": 0.5294114999999984,
          "durationTicks": 288,
          "midi": 63,
          "name": "D#4",
          "ticks": 9216,
          "time": 16.941168,
          "velocity": 0.3937007874015748
        },
        {
          "duration": 0.5294114999999984,
          "durationTicks": 288,
          "midi": 68,
          "name": "G#4",
          "ticks": 9216,
          "time": 16.941168,
          "velocity": 0.3937007874015748
        },
        {
          "duration": 0.5294115000000019,
          "durationTicks": 288,
          "midi": 29,
          "name": "F1",
          "ticks": 9504,
          "time": 17.4705795,
          "velocity": 0.3937007874015748
        },
        {
          "duration": 0.5294115000000019,
          "durationTicks": 288,
          "midi": 41,
          "name": "F2",
          "ticks": 9504,
          "time": 17.4705795,
          "velocity": 0.3937007874015748
        },
        {
          "duration": 0.5294115000000019,
          "durationTicks": 288,
          "midi": 53,
          "name": "F3",
          "ticks": 9504,
          "time": 17.4705795,
          "velocity": 0.3937007874015748
        },
        {
          "duration": 0.5294115000000019,
          "durationTicks": 288,
          "midi": 56,
          "name": "G#3",
          "ticks": 9504,
          "time": 17.4705795,
          "velocity": 0.3937007874015748
        },
        {
          "duration": 0.5294115000000019,
          "durationTicks": 288,
          "midi": 60,
          "name": "C4",
          "ticks": 9504,
          "time": 17.4705795,
          "velocity": 0.3937007874015748
        },
        {
          "duration": 0.5294115000000019,
          "durationTicks": 288,
          "midi": 63,
          "name": "D#4",
          "ticks": 9504,
          "time": 17.4705795,
          "velocity": 0.3937007874015748
        },
        {
          "duration": 0.5294115000000019,
          "durationTicks": 288,
          "midi": 68,
          "name": "G#4",
          "ticks": 9504,
          "time": 17.4705795,
          "velocity": 0.3937007874015748
        },
        {
          "duration": 0.35294099999999773,
          "durationTicks": 192,
          "midi": 29,
          "name": "F1",
          "ticks": 9792,
          "time": 17.999991,
          "velocity": 0.3937007874015748
        },
        {
          "duration": 0.35294099999999773,
          "durationTicks": 192,
          "midi": 41,
          "name": "F2",
          "ticks": 9792,
          "time": 17.999991,
          "velocity": 0.3937007874015748
        },
        {
          "duration": 0.35294099999999773,
          "durationTicks": 192,
          "midi": 53,
          "name": "F3",
          "ticks": 9792,
          "time": 17.999991,
          "velocity": 0.3937007874015748
        },
        {
          "duration": 0.35294099999999773,
          "durationTicks": 192,
          "midi": 56,
          "name": "G#3",
          "ticks": 9792,
          "time": 17.999991,
          "velocity": 0.3937007874015748
        },
        {
          "duration": 0.35294099999999773,
          "durationTicks": 192,
          "midi": 60,
          "name": "C4",
          "ticks": 9792,
          "time": 17.999991,
          "velocity": 0.3937007874015748
        },
        {
          "duration": 0.35294099999999773,
          "durationTicks": 192,
          "midi": 63,
          "name": "D#4",
          "ticks": 9792,
          "time": 17.999991,
          "velocity": 0.3937007874015748
        },
        {
          "duration": 0.35294099999999773,
          "durationTicks": 192,
          "midi": 68,
          "name": "G#4",
          "ticks": 9792,
          "time": 17.999991,
          "velocity": 0.3937007874015748
        },
        {
          "duration": 0.5294115000000019,
          "durationTicks": 288,
          "midi": 34,
          "name": "A#1",
          "ticks": 9984,
          "time": 18.352932,
          "velocity": 0.3937007874015748
        },
        {
          "duration": 0.5294115000000019,
          "durationTicks": 288,
          "midi": 46,
          "name": "A#2",
          "ticks": 9984,
          "time": 18.352932,
          "velocity": 0.3937007874015748
        },
        {
          "duration": 0.5294115000000019,
          "durationTicks": 288,
          "midi": 58,
          "name": "A#3",
          "ticks": 9984,
          "time": 18.352932,
          "velocity": 0.3937007874015748
        },
        {
          "duration": 0.5294115000000019,
          "durationTicks": 288,
          "midi": 61,
          "name": "C#4",
          "ticks": 9984,
          "time": 18.352932,
          "velocity": 0.3937007874015748
        },
        {
          "duration": 0.5294115000000019,
          "durationTicks": 288,
          "midi": 65,
          "name": "F4",
          "ticks": 9984,
          "time": 18.352932,
          "velocity": 0.3937007874015748
        },
        {
          "duration": 0.5294115000000019,
          "durationTicks": 288,
          "midi": 67,
          "name": "G4",
          "ticks": 9984,
          "time": 18.352932,
          "velocity": 0.3937007874015748
        },
        {
          "duration": 0.5294115000000019,
          "durationTicks": 288,
          "midi": 68,
          "name": "G#4",
          "ticks": 9984,
          "time": 18.352932,
          "velocity": 0.3937007874015748
        },
        {
          "duration": 0.5294114999999984,
          "durationTicks": 288,
          "midi": 34,
          "name": "A#1",
          "ticks": 10272,
          "time": 18.8823435,
          "velocity": 0.3937007874015748
        },
        {
          "duration": 0.5294114999999984,
          "durationTicks": 288,
          "midi": 46,
          "name": "A#2",
          "ticks": 10272,
          "time": 18.8823435,
          "velocity": 0.3937007874015748
        },
        {
          "duration": 0.5294114999999984,
          "durationTicks": 288,
          "midi": 58,
          "name": "A#3",
          "ticks": 10272,
          "time": 18.8823435,
          "velocity": 0.3937007874015748
        },
        {
          "duration": 0.5294114999999984,
          "durationTicks": 288,
          "midi": 61,
          "name": "C#4",
          "ticks": 10272,
          "time": 18.8823435,
          "velocity": 0.3937007874015748
        },
        {
          "duration": 0.5294114999999984,
          "durationTicks": 288,
          "midi": 65,
          "name": "F4",
          "ticks": 10272,
          "time": 18.8823435,
          "velocity": 0.3937007874015748
        },
        {
          "duration": 0.5294114999999984,
          "durationTicks": 288,
          "midi": 67,
          "name": "G4",
          "ticks": 10272,
          "time": 18.8823435,
          "velocity": 0.3937007874015748
        },
        {
          "duration": 0.5294114999999984,
          "durationTicks": 288,
          "midi": 68,
          "name": "G#4",
          "ticks": 10272,
          "time": 18.8823435,
          "velocity": 0.3937007874015748
        },
        {
          "duration": 0.5294115000000019,
          "durationTicks": 288,
          "midi": 32,
          "name": "G#1",
          "ticks": 10560,
          "time": 19.411755,
          "velocity": 0.3937007874015748
        },
        {
          "duration": 0.5294115000000019,
          "durationTicks": 288,
          "midi": 44,
          "name": "G#2",
          "ticks": 10560,
          "time": 19.411755,
          "velocity": 0.3937007874015748
        },
        {
          "duration": 0.5294115000000019,
          "durationTicks": 288,
          "midi": 56,
          "name": "G#3",
          "ticks": 10560,
          "time": 19.411755,
          "velocity": 0.3937007874015748
        },
        {
          "duration": 0.5294115000000019,
          "durationTicks": 288,
          "midi": 60,
          "name": "C4",
          "ticks": 10560,
          "time": 19.411755,
          "velocity": 0.3937007874015748
        },
        {
          "duration": 0.5294115000000019,
          "durationTicks": 288,
          "midi": 63,
          "name": "D#4",
          "ticks": 10560,
          "time": 19.411755,
          "velocity": 0.3937007874015748
        },
        {
          "duration": 0.5294115000000019,
          "durationTicks": 288,
          "midi": 65,
          "name": "F4",
          "ticks": 10560,
          "time": 19.411755,
          "velocity": 0.3937007874015748
        },
        {
          "duration": 0.5294115000000019,
          "durationTicks": 288,
          "midi": 67,
          "name": "G4",
          "ticks": 10560,
          "time": 19.411755,
          "velocity": 0.3937007874015748
        },
        {
          "duration": 0.5294114999999984,
          "durationTicks": 288,
          "midi": 32,
          "name": "G#1",
          "ticks": 10848,
          "time": 19.9411665,
          "velocity": 0.3937007874015748
        },
        {
          "duration": 0.5294114999999984,
          "durationTicks": 288,
          "midi": 44,
          "name": "G#2",
          "ticks": 10848,
          "time": 19.9411665,
          "velocity": 0.3937007874015748
        },
        {
          "duration": 0.5294114999999984,
          "durationTicks": 288,
          "midi": 56,
          "name": "G#3",
          "ticks": 10848,
          "time": 19.9411665,
          "velocity": 0.3937007874015748
        },
        {
          "duration": 0.5294114999999984,
          "durationTicks": 288,
          "midi": 60,
          "name": "C4",
          "ticks": 10848,
          "time": 19.9411665,
          "velocity": 0.3937007874015748
        },
        {
          "duration": 0.5294114999999984,
          "durationTicks": 288,
          "midi": 63,
          "name": "D#4",
          "ticks": 10848,
          "time": 19.9411665,
          "velocity": 0.3937007874015748
        },
        {
          "duration": 0.5294114999999984,
          "durationTicks": 288,
          "midi": 65,
          "name": "F4",
          "ticks": 10848,
          "time": 19.9411665,
          "velocity": 0.3937007874015748
        },
        {
          "duration": 0.5294114999999984,
          "durationTicks": 288,
          "midi": 67,
          "name": "G4",
          "ticks": 10848,
          "time": 19.9411665,
          "velocity": 0.3937007874015748
        },
        {
          "duration": 0.5294115000000019,
          "durationTicks": 288,
          "midi": 32,
          "name": "G#1",
          "ticks": 11136,
          "time": 20.470578,
          "velocity": 0.3937007874015748
        },
        {
          "duration": 0.5294115000000019,
          "durationTicks": 288,
          "midi": 44,
          "name": "G#2",
          "ticks": 11136,
          "time": 20.470578,
          "velocity": 0.3937007874015748
        },
        {
          "duration": 0.5294115000000019,
          "durationTicks": 288,
          "midi": 56,
          "name": "G#3",
          "ticks": 11136,
          "time": 20.470578,
          "velocity": 0.3937007874015748
        },
        {
          "duration": 0.5294115000000019,
          "durationTicks": 288,
          "midi": 60,
          "name": "C4",
          "ticks": 11136,
          "time": 20.470578,
          "velocity": 0.3937007874015748
        },
        {
          "duration": 0.5294115000000019,
          "durationTicks": 288,
          "midi": 63,
          "name": "D#4",
          "ticks": 11136,
          "time": 20.470578,
          "velocity": 0.3937007874015748
        },
        {
          "duration": 0.5294115000000019,
          "durationTicks": 288,
          "midi": 65,
          "name": "F4",
          "ticks": 11136,
          "time": 20.470578,
          "velocity": 0.3937007874015748
        },
        {
          "duration": 0.5294115000000019,
          "durationTicks": 288,
          "midi": 67,
          "name": "G4",
          "ticks": 11136,
          "time": 20.470578,
          "velocity": 0.3937007874015748
        },
        {
          "duration": 0.5294114999999984,
          "durationTicks": 288,
          "midi": 32,
          "name": "G#1",
          "ticks": 11424,
          "time": 20.9999895,
          "velocity": 0.3937007874015748
        },
        {
          "duration": 0.5294114999999984,
          "durationTicks": 288,
          "midi": 44,
          "name": "G#2",
          "ticks": 11424,
          "time": 20.9999895,
          "velocity": 0.3937007874015748
        },
        {
          "duration": 0.5294114999999984,
          "durationTicks": 288,
          "midi": 56,
          "name": "G#3",
          "ticks": 11424,
          "time": 20.9999895,
          "velocity": 0.3937007874015748
        },
        {
          "duration": 0.5294114999999984,
          "durationTicks": 288,
          "midi": 60,
          "name": "C4",
          "ticks": 11424,
          "time": 20.9999895,
          "velocity": 0.3937007874015748
        },
        {
          "duration": 0.5294114999999984,
          "durationTicks": 288,
          "midi": 63,
          "name": "D#4",
          "ticks": 11424,
          "time": 20.9999895,
          "velocity": 0.3937007874015748
        },
        {
          "duration": 0.5294114999999984,
          "durationTicks": 288,
          "midi": 65,
          "name": "F4",
          "ticks": 11424,
          "time": 20.9999895,
          "velocity": 0.3937007874015748
        },
        {
          "duration": 0.5294114999999984,
          "durationTicks": 288,
          "midi": 67,
          "name": "G4",
          "ticks": 11424,
          "time": 20.9999895,
          "velocity": 0.3937007874015748
        },
        {
          "duration": 0.5294115000000019,
          "durationTicks": 288,
          "midi": 32,
          "name": "G#1",
          "ticks": 11712,
          "time": 21.529401,
          "velocity": 0.3937007874015748
        },
        {
          "duration": 0.5294115000000019,
          "durationTicks": 288,
          "midi": 44,
          "name": "G#2",
          "ticks": 11712,
          "time": 21.529401,
          "velocity": 0.3937007874015748
        },
        {
          "duration": 0.5294115000000019,
          "durationTicks": 288,
          "midi": 56,
          "name": "G#3",
          "ticks": 11712,
          "time": 21.529401,
          "velocity": 0.3937007874015748
        },
        {
          "duration": 0.5294115000000019,
          "durationTicks": 288,
          "midi": 60,
          "name": "C4",
          "ticks": 11712,
          "time": 21.529401,
          "velocity": 0.3937007874015748
        },
        {
          "duration": 0.5294115000000019,
          "durationTicks": 288,
          "midi": 63,
          "name": "D#4",
          "ticks": 11712,
          "time": 21.529401,
          "velocity": 0.3937007874015748
        },
        {
          "duration": 0.5294115000000019,
          "durationTicks": 288,
          "midi": 65,
          "name": "F4",
          "ticks": 11712,
          "time": 21.529401,
          "velocity": 0.3937007874015748
        },
        {
          "duration": 0.5294115000000019,
          "durationTicks": 288,
          "midi": 67,
          "name": "G4",
          "ticks": 11712,
          "time": 21.529401,
          "velocity": 0.3937007874015748
        },
        {
          "duration": 0.5294114999999984,
          "durationTicks": 288,
          "midi": 32,
          "name": "G#1",
          "ticks": 12000,
          "time": 22.058812500000002,
          "velocity": 0.3937007874015748
        },
        {
          "duration": 0.5294114999999984,
          "durationTicks": 288,
          "midi": 44,
          "name": "G#2",
          "ticks": 12000,
          "time": 22.058812500000002,
          "velocity": 0.3937007874015748
        },
        {
          "duration": 0.5294114999999984,
          "durationTicks": 288,
          "midi": 56,
          "name": "G#3",
          "ticks": 12000,
          "time": 22.058812500000002,
          "velocity": 0.3937007874015748
        },
        {
          "duration": 0.5294114999999984,
          "durationTicks": 288,
          "midi": 60,
          "name": "C4",
          "ticks": 12000,
          "time": 22.058812500000002,
          "velocity": 0.3937007874015748
        },
        {
          "duration": 0.5294114999999984,
          "durationTicks": 288,
          "midi": 63,
          "name": "D#4",
          "ticks": 12000,
          "time": 22.058812500000002,
          "velocity": 0.3937007874015748
        },
        {
          "duration": 0.5294114999999984,
          "durationTicks": 288,
          "midi": 65,
          "name": "F4",
          "ticks": 12000,
          "time": 22.058812500000002,
          "velocity": 0.3937007874015748
        },
        {
          "duration": 0.5294114999999984,
          "durationTicks": 288,
          "midi": 67,
          "name": "G4",
          "ticks": 12000,
          "time": 22.058812500000002,
          "velocity": 0.3937007874015748
        },
        {
          "duration": 0.5294114999999984,
          "durationTicks": 288,
          "midi": 29,
          "name": "F1",
          "ticks": 12288,
          "time": 22.588224,
          "velocity": 0.3937007874015748
        },
        {
          "duration": 0.5294114999999984,
          "durationTicks": 288,
          "midi": 41,
          "name": "F2",
          "ticks": 12288,
          "time": 22.588224,
          "velocity": 0.3937007874015748
        },
        {
          "duration": 0.5294114999999984,
          "durationTicks": 288,
          "midi": 53,
          "name": "F3",
          "ticks": 12288,
          "time": 22.588224,
          "velocity": 0.3937007874015748
        },
        {
          "duration": 0.5294114999999984,
          "durationTicks": 288,
          "midi": 56,
          "name": "G#3",
          "ticks": 12288,
          "time": 22.588224,
          "velocity": 0.3937007874015748
        },
        {
          "duration": 0.5294114999999984,
          "durationTicks": 288,
          "midi": 60,
          "name": "C4",
          "ticks": 12288,
          "time": 22.588224,
          "velocity": 0.3937007874015748
        },
        {
          "duration": 0.5294114999999984,
          "durationTicks": 288,
          "midi": 63,
          "name": "D#4",
          "ticks": 12288,
          "time": 22.588224,
          "velocity": 0.3937007874015748
        },
        {
          "duration": 0.5294114999999984,
          "durationTicks": 288,
          "midi": 68,
          "name": "G#4",
          "ticks": 12288,
          "time": 22.588224,
          "velocity": 0.3937007874015748
        },
        {
          "duration": 0.5294115000000019,
          "durationTicks": 288,
          "midi": 29,
          "name": "F1",
          "ticks": 12576,
          "time": 23.1176355,
          "velocity": 0.3937007874015748
        },
        {
          "duration": 0.5294115000000019,
          "durationTicks": 288,
          "midi": 41,
          "name": "F2",
          "ticks": 12576,
          "time": 23.1176355,
          "velocity": 0.3937007874015748
        },
        {
          "duration": 0.5294115000000019,
          "durationTicks": 288,
          "midi": 53,
          "name": "F3",
          "ticks": 12576,
          "time": 23.1176355,
          "velocity": 0.3937007874015748
        },
        {
          "duration": 0.5294115000000019,
          "durationTicks": 288,
          "midi": 56,
          "name": "G#3",
          "ticks": 12576,
          "time": 23.1176355,
          "velocity": 0.3937007874015748
        },
        {
          "duration": 0.5294115000000019,
          "durationTicks": 288,
          "midi": 60,
          "name": "C4",
          "ticks": 12576,
          "time": 23.1176355,
          "velocity": 0.3937007874015748
        },
        {
          "duration": 0.5294115000000019,
          "durationTicks": 288,
          "midi": 63,
          "name": "D#4",
          "ticks": 12576,
          "time": 23.1176355,
          "velocity": 0.3937007874015748
        },
        {
          "duration": 0.5294115000000019,
          "durationTicks": 288,
          "midi": 68,
          "name": "G#4",
          "ticks": 12576,
          "time": 23.1176355,
          "velocity": 0.3937007874015748
        },
        {
          "duration": 0.3529410000000013,
          "durationTicks": 192,
          "midi": 29,
          "name": "F1",
          "ticks": 12864,
          "time": 23.647047,
          "velocity": 0.3937007874015748
        },
        {
          "duration": 0.3529410000000013,
          "durationTicks": 192,
          "midi": 41,
          "name": "F2",
          "ticks": 12864,
          "time": 23.647047,
          "velocity": 0.3937007874015748
        },
        {
          "duration": 0.3529410000000013,
          "durationTicks": 192,
          "midi": 53,
          "name": "F3",
          "ticks": 12864,
          "time": 23.647047,
          "velocity": 0.3937007874015748
        },
        {
          "duration": 0.3529410000000013,
          "durationTicks": 192,
          "midi": 56,
          "name": "G#3",
          "ticks": 12864,
          "time": 23.647047,
          "velocity": 0.3937007874015748
        },
        {
          "duration": 0.3529410000000013,
          "durationTicks": 192,
          "midi": 60,
          "name": "C4",
          "ticks": 12864,
          "time": 23.647047,
          "velocity": 0.3937007874015748
        },
        {
          "duration": 0.3529410000000013,
          "durationTicks": 192,
          "midi": 63,
          "name": "D#4",
          "ticks": 12864,
          "time": 23.647047,
          "velocity": 0.3937007874015748
        },
        {
          "duration": 0.3529410000000013,
          "durationTicks": 192,
          "midi": 68,
          "name": "G#4",
          "ticks": 12864,
          "time": 23.647047,
          "velocity": 0.3937007874015748
        },
        {
          "duration": 0.5294114999999984,
          "durationTicks": 288,
          "midi": 32,
          "name": "G#1",
          "ticks": 13056,
          "time": 23.999988000000002,
          "velocity": 0.3937007874015748
        },
        {
          "duration": 0.5294114999999984,
          "durationTicks": 288,
          "midi": 44,
          "name": "G#2",
          "ticks": 13056,
          "time": 23.999988000000002,
          "velocity": 0.3937007874015748
        },
        {
          "duration": 0.5294114999999984,
          "durationTicks": 288,
          "midi": 56,
          "name": "G#3",
          "ticks": 13056,
          "time": 23.999988000000002,
          "velocity": 0.3937007874015748
        },
        {
          "duration": 0.5294114999999984,
          "durationTicks": 288,
          "midi": 60,
          "name": "C4",
          "ticks": 13056,
          "time": 23.999988000000002,
          "velocity": 0.3937007874015748
        },
        {
          "duration": 0.5294114999999984,
          "durationTicks": 288,
          "midi": 63,
          "name": "D#4",
          "ticks": 13056,
          "time": 23.999988000000002,
          "velocity": 0.3937007874015748
        },
        {
          "duration": 0.5294114999999984,
          "durationTicks": 288,
          "midi": 67,
          "name": "G4",
          "ticks": 13056,
          "time": 23.999988000000002,
          "velocity": 0.3937007874015748
        },
        {
          "duration": 0.5294114999999984,
          "durationTicks": 288,
          "midi": 70,
          "name": "A#4",
          "ticks": 13056,
          "time": 23.999988000000002,
          "velocity": 0.3937007874015748
        },
        {
          "duration": 0.5294114999999984,
          "durationTicks": 288,
          "midi": 32,
          "name": "G#1",
          "ticks": 13344,
          "time": 24.5293995,
          "velocity": 0.3937007874015748
        },
        {
          "duration": 0.5294114999999984,
          "durationTicks": 288,
          "midi": 44,
          "name": "G#2",
          "ticks": 13344,
          "time": 24.5293995,
          "velocity": 0.3937007874015748
        },
        {
          "duration": 0.5294114999999984,
          "durationTicks": 288,
          "midi": 56,
          "name": "G#3",
          "ticks": 13344,
          "time": 24.5293995,
          "velocity": 0.3937007874015748
        },
        {
          "duration": 0.5294114999999984,
          "durationTicks": 288,
          "midi": 60,
          "name": "C4",
          "ticks": 13344,
          "time": 24.5293995,
          "velocity": 0.3937007874015748
        },
        {
          "duration": 0.5294114999999984,
          "durationTicks": 288,
          "midi": 63,
          "name": "D#4",
          "ticks": 13344,
          "time": 24.5293995,
          "velocity": 0.3937007874015748
        },
        {
          "duration": 0.5294114999999984,
          "durationTicks": 288,
          "midi": 67,
          "name": "G4",
          "ticks": 13344,
          "time": 24.5293995,
          "velocity": 0.3937007874015748
        },
        {
          "duration": 0.5294114999999984,
          "durationTicks": 288,
          "midi": 70,
          "name": "A#4",
          "ticks": 13344,
          "time": 24.5293995,
          "velocity": 0.3937007874015748
        },
        {
          "duration": 0.5294115000000019,
          "durationTicks": 288,
          "midi": 36,
          "name": "C2",
          "ticks": 13632,
          "time": 25.058811,
          "velocity": 0.3937007874015748
        },
        {
          "duration": 0.5294115000000019,
          "durationTicks": 288,
          "midi": 48,
          "name": "C3",
          "ticks": 13632,
          "time": 25.058811,
          "velocity": 0.3937007874015748
        },
        {
          "duration": 0.5294115000000019,
          "durationTicks": 288,
          "midi": 60,
          "name": "C4",
          "ticks": 13632,
          "time": 25.058811,
          "velocity": 0.3937007874015748
        },
        {
          "duration": 0.5294115000000019,
          "durationTicks": 288,
          "midi": 63,
          "name": "D#4",
          "ticks": 13632,
          "time": 25.058811,
          "velocity": 0.3937007874015748
        },
        {
          "duration": 0.5294115000000019,
          "durationTicks": 288,
          "midi": 67,
          "name": "G4",
          "ticks": 13632,
          "time": 25.058811,
          "velocity": 0.3937007874015748
        },
        {
          "duration": 0.5294115000000019,
          "durationTicks": 288,
          "midi": 70,
          "name": "A#4",
          "ticks": 13632,
          "time": 25.058811,
          "velocity": 0.3937007874015748
        },
        {
          "duration": 0.5294115000000019,
          "durationTicks": 288,
          "midi": 72,
          "name": "C5",
          "ticks": 13632,
          "time": 25.058811,
          "velocity": 0.3937007874015748
        },
        {
          "duration": 0.5294114999999984,
          "durationTicks": 288,
          "midi": 36,
          "name": "C2",
          "ticks": 13920,
          "time": 25.5882225,
          "velocity": 0.3937007874015748
        },
        {
          "duration": 0.5294114999999984,
          "durationTicks": 288,
          "midi": 48,
          "name": "C3",
          "ticks": 13920,
          "time": 25.5882225,
          "velocity": 0.3937007874015748
        },
        {
          "duration": 0.5294114999999984,
          "durationTicks": 288,
          "midi": 60,
          "name": "C4",
          "ticks": 13920,
          "time": 25.5882225,
          "velocity": 0.3937007874015748
        },
        {
          "duration": 0.5294114999999984,
          "durationTicks": 288,
          "midi": 63,
          "name": "D#4",
          "ticks": 13920,
          "time": 25.5882225,
          "velocity": 0.3937007874015748
        },
        {
          "duration": 0.5294114999999984,
          "durationTicks": 288,
          "midi": 67,
          "name": "G4",
          "ticks": 13920,
          "time": 25.5882225,
          "velocity": 0.3937007874015748
        },
        {
          "duration": 0.5294114999999984,
          "durationTicks": 288,
          "midi": 70,
          "name": "A#4",
          "ticks": 13920,
          "time": 25.5882225,
          "velocity": 0.3937007874015748
        },
        {
          "duration": 0.5294114999999984,
          "durationTicks": 288,
          "midi": 72,
          "name": "C5",
          "ticks": 13920,
          "time": 25.5882225,
          "velocity": 0.3937007874015748
        },
        {
          "duration": 0.5294115000000019,
          "durationTicks": 288,
          "midi": 36,
          "name": "C2",
          "ticks": 14208,
          "time": 26.117634,
          "velocity": 0.3937007874015748
        },
        {
          "duration": 0.5294115000000019,
          "durationTicks": 288,
          "midi": 48,
          "name": "C3",
          "ticks": 14208,
          "time": 26.117634,
          "velocity": 0.3937007874015748
        },
        {
          "duration": 0.5294115000000019,
          "durationTicks": 288,
          "midi": 60,
          "name": "C4",
          "ticks": 14208,
          "time": 26.117634,
          "velocity": 0.3937007874015748
        },
        {
          "duration": 0.5294115000000019,
          "durationTicks": 288,
          "midi": 63,
          "name": "D#4",
          "ticks": 14208,
          "time": 26.117634,
          "velocity": 0.3937007874015748
        },
        {
          "duration": 0.5294115000000019,
          "durationTicks": 288,
          "midi": 67,
          "name": "G4",
          "ticks": 14208,
          "time": 26.117634,
          "velocity": 0.3937007874015748
        },
        {
          "duration": 0.5294115000000019,
          "durationTicks": 288,
          "midi": 70,
          "name": "A#4",
          "ticks": 14208,
          "time": 26.117634,
          "velocity": 0.3937007874015748
        },
        {
          "duration": 0.5294115000000019,
          "durationTicks": 288,
          "midi": 72,
          "name": "C5",
          "ticks": 14208,
          "time": 26.117634,
          "velocity": 0.3937007874015748
        },
        {
          "duration": 0.5294114999999984,
          "durationTicks": 288,
          "midi": 36,
          "name": "C2",
          "ticks": 14496,
          "time": 26.6470455,
          "velocity": 0.3937007874015748
        },
        {
          "duration": 0.5294114999999984,
          "durationTicks": 288,
          "midi": 48,
          "name": "C3",
          "ticks": 14496,
          "time": 26.6470455,
          "velocity": 0.3937007874015748
        },
        {
          "duration": 0.5294114999999984,
          "durationTicks": 288,
          "midi": 60,
          "name": "C4",
          "ticks": 14496,
          "time": 26.6470455,
          "velocity": 0.3937007874015748
        },
        {
          "duration": 0.5294114999999984,
          "durationTicks": 288,
          "midi": 63,
          "name": "D#4",
          "ticks": 14496,
          "time": 26.6470455,
          "velocity": 0.3937007874015748
        },
        {
          "duration": 0.5294114999999984,
          "durationTicks": 288,
          "midi": 67,
          "name": "G4",
          "ticks": 14496,
          "time": 26.6470455,
          "velocity": 0.3937007874015748
        },
        {
          "duration": 0.5294114999999984,
          "durationTicks": 288,
          "midi": 70,
          "name": "A#4",
          "ticks": 14496,
          "time": 26.6470455,
          "velocity": 0.3937007874015748
        },
        {
          "duration": 0.5294114999999984,
          "durationTicks": 288,
          "midi": 72,
          "name": "C5",
          "ticks": 14496,
          "time": 26.6470455,
          "velocity": 0.3937007874015748
        },
        {
          "duration": 0.5294115000000019,
          "durationTicks": 288,
          "midi": 36,
          "name": "C2",
          "ticks": 14784,
          "time": 27.176457,
          "velocity": 0.3937007874015748
        },
        {
          "duration": 0.5294115000000019,
          "durationTicks": 288,
          "midi": 48,
          "name": "C3",
          "ticks": 14784,
          "time": 27.176457,
          "velocity": 0.3937007874015748
        },
        {
          "duration": 0.5294115000000019,
          "durationTicks": 288,
          "midi": 60,
          "name": "C4",
          "ticks": 14784,
          "time": 27.176457,
          "velocity": 0.3937007874015748
        },
        {
          "duration": 0.5294115000000019,
          "durationTicks": 288,
          "midi": 63,
          "name": "D#4",
          "ticks": 14784,
          "time": 27.176457,
          "velocity": 0.3937007874015748
        },
        {
          "duration": 0.5294115000000019,
          "durationTicks": 288,
          "midi": 67,
          "name": "G4",
          "ticks": 14784,
          "time": 27.176457,
          "velocity": 0.3937007874015748
        },
        {
          "duration": 0.5294115000000019,
          "durationTicks": 288,
          "midi": 70,
          "name": "A#4",
          "ticks": 14784,
          "time": 27.176457,
          "velocity": 0.3937007874015748
        },
        {
          "duration": 0.5294115000000019,
          "durationTicks": 288,
          "midi": 72,
          "name": "C5",
          "ticks": 14784,
          "time": 27.176457,
          "velocity": 0.3937007874015748
        },
        {
          "duration": 0.5294114999999984,
          "durationTicks": 288,
          "midi": 36,
          "name": "C2",
          "ticks": 15072,
          "time": 27.7058685,
          "velocity": 0.3937007874015748
        },
        {
          "duration": 0.5294114999999984,
          "durationTicks": 288,
          "midi": 48,
          "name": "C3",
          "ticks": 15072,
          "time": 27.7058685,
          "velocity": 0.3937007874015748
        },
        {
          "duration": 0.5294114999999984,
          "durationTicks": 288,
          "midi": 60,
          "name": "C4",
          "ticks": 15072,
          "time": 27.7058685,
          "velocity": 0.3937007874015748
        },
        {
          "duration": 0.5294114999999984,
          "durationTicks": 288,
          "midi": 63,
          "name": "D#4",
          "ticks": 15072,
          "time": 27.7058685,
          "velocity": 0.3937007874015748
        },
        {
          "duration": 0.5294114999999984,
          "durationTicks": 288,
          "midi": 67,
          "name": "G4",
          "ticks": 15072,
          "time": 27.7058685,
          "velocity": 0.3937007874015748
        },
        {
          "duration": 0.5294114999999984,
          "durationTicks": 288,
          "midi": 70,
          "name": "A#4",
          "ticks": 15072,
          "time": 27.7058685,
          "velocity": 0.3937007874015748
        },
        {
          "duration": 0.5294114999999984,
          "durationTicks": 288,
          "midi": 72,
          "name": "C5",
          "ticks": 15072,
          "time": 27.7058685,
          "velocity": 0.3937007874015748
        },
        {
          "duration": 0.5294115000000019,
          "durationTicks": 288,
          "midi": 29,
          "name": "F1",
          "ticks": 15360,
          "time": 28.23528,
          "velocity": 0.3937007874015748
        },
        {
          "duration": 0.5294115000000019,
          "durationTicks": 288,
          "midi": 41,
          "name": "F2",
          "ticks": 15360,
          "time": 28.23528,
          "velocity": 0.3937007874015748
        },
        {
          "duration": 0.5294115000000019,
          "durationTicks": 288,
          "midi": 53,
          "name": "F3",
          "ticks": 15360,
          "time": 28.23528,
          "velocity": 0.3937007874015748
        },
        {
          "duration": 0.5294115000000019,
          "durationTicks": 288,
          "midi": 56,
          "name": "G#3",
          "ticks": 15360,
          "time": 28.23528,
          "velocity": 0.3937007874015748
        },
        {
          "duration": 0.5294115000000019,
          "durationTicks": 288,
          "midi": 60,
          "name": "C4",
          "ticks": 15360,
          "time": 28.23528,
          "velocity": 0.3937007874015748
        },
        {
          "duration": 0.5294115000000019,
          "durationTicks": 288,
          "midi": 63,
          "name": "D#4",
          "ticks": 15360,
          "time": 28.23528,
          "velocity": 0.3937007874015748
        },
        {
          "duration": 0.5294115000000019,
          "durationTicks": 288,
          "midi": 75,
          "name": "D#5",
          "ticks": 15360,
          "time": 28.23528,
          "velocity": 0.3937007874015748
        },
        {
          "duration": 0.5294114999999984,
          "durationTicks": 288,
          "midi": 29,
          "name": "F1",
          "ticks": 15648,
          "time": 28.7646915,
          "velocity": 0.3937007874015748
        },
        {
          "duration": 0.5294114999999984,
          "durationTicks": 288,
          "midi": 41,
          "name": "F2",
          "ticks": 15648,
          "time": 28.7646915,
          "velocity": 0.3937007874015748
        },
        {
          "duration": 0.5294114999999984,
          "durationTicks": 288,
          "midi": 53,
          "name": "F3",
          "ticks": 15648,
          "time": 28.7646915,
          "velocity": 0.3937007874015748
        },
        {
          "duration": 0.5294114999999984,
          "durationTicks": 288,
          "midi": 56,
          "name": "G#3",
          "ticks": 15648,
          "time": 28.7646915,
          "velocity": 0.3937007874015748
        },
        {
          "duration": 0.5294114999999984,
          "durationTicks": 288,
          "midi": 60,
          "name": "C4",
          "ticks": 15648,
          "time": 28.7646915,
          "velocity": 0.3937007874015748
        },
        {
          "duration": 0.5294114999999984,
          "durationTicks": 288,
          "midi": 63,
          "name": "D#4",
          "ticks": 15648,
          "time": 28.7646915,
          "velocity": 0.3937007874015748
        },
        {
          "duration": 0.5294114999999984,
          "durationTicks": 288,
          "midi": 75,
          "name": "D#5",
          "ticks": 15648,
          "time": 28.7646915,
          "velocity": 0.3937007874015748
        },
        {
          "duration": 0.3529410000000013,
          "durationTicks": 192,
          "midi": 29,
          "name": "F1",
          "ticks": 15936,
          "time": 29.294103,
          "velocity": 0.3937007874015748
        },
        {
          "duration": 0.3529410000000013,
          "durationTicks": 192,
          "midi": 41,
          "name": "F2",
          "ticks": 15936,
          "time": 29.294103,
          "velocity": 0.3937007874015748
        },
        {
          "duration": 0.3529410000000013,
          "durationTicks": 192,
          "midi": 53,
          "name": "F3",
          "ticks": 15936,
          "time": 29.294103,
          "velocity": 0.3937007874015748
        },
        {
          "duration": 0.3529410000000013,
          "durationTicks": 192,
          "midi": 56,
          "name": "G#3",
          "ticks": 15936,
          "time": 29.294103,
          "velocity": 0.3937007874015748
        },
        {
          "duration": 0.3529410000000013,
          "durationTicks": 192,
          "midi": 60,
          "name": "C4",
          "ticks": 15936,
          "time": 29.294103,
          "velocity": 0.3937007874015748
        },
        {
          "duration": 0.3529410000000013,
          "durationTicks": 192,
          "midi": 63,
          "name": "D#4",
          "ticks": 15936,
          "time": 29.294103,
          "velocity": 0.3937007874015748
        },
        {
          "duration": 0.3529410000000013,
          "durationTicks": 192,
          "midi": 75,
          "name": "D#5",
          "ticks": 15936,
          "time": 29.294103,
          "velocity": 0.3937007874015748
        },
        {
          "duration": 0.5294114999999984,
          "durationTicks": 288,
          "midi": 34,
          "name": "A#1",
          "ticks": 16128,
          "time": 29.647044,
          "velocity": 0.3937007874015748
        },
        {
          "duration": 0.5294114999999984,
          "durationTicks": 288,
          "midi": 46,
          "name": "A#2",
          "ticks": 16128,
          "time": 29.647044,
          "velocity": 0.3937007874015748
        },
        {
          "duration": 0.5294114999999984,
          "durationTicks": 288,
          "midi": 58,
          "name": "A#3",
          "ticks": 16128,
          "time": 29.647044,
          "velocity": 0.3937007874015748
        },
        {
          "duration": 0.5294114999999984,
          "durationTicks": 288,
          "midi": 61,
          "name": "C#4",
          "ticks": 16128,
          "time": 29.647044,
          "velocity": 0.3937007874015748
        },
        {
          "duration": 0.5294114999999984,
          "durationTicks": 288,
          "midi": 65,
          "name": "F4",
          "ticks": 16128,
          "time": 29.647044,
          "velocity": 0.3937007874015748
        },
        {
          "duration": 0.5294114999999984,
          "durationTicks": 288,
          "midi": 68,
          "name": "G#4",
          "ticks": 16128,
          "time": 29.647044,
          "velocity": 0.3937007874015748
        },
        {
          "duration": 0.5294114999999984,
          "durationTicks": 288,
          "midi": 70,
          "name": "A#4",
          "ticks": 16128,
          "time": 29.647044,
          "velocity": 0.3937007874015748
        },
        {
          "duration": 0.5294115000000019,
          "durationTicks": 288,
          "midi": 34,
          "name": "A#1",
          "ticks": 16416,
          "time": 30.1764555,
          "velocity": 0.3937007874015748
        },
        {
          "duration": 0.5294115000000019,
          "durationTicks": 288,
          "midi": 46,
          "name": "A#2",
          "ticks": 16416,
          "time": 30.1764555,
          "velocity": 0.3937007874015748
        },
        {
          "duration": 0.5294115000000019,
          "durationTicks": 288,
          "midi": 58,
          "name": "A#3",
          "ticks": 16416,
          "time": 30.1764555,
          "velocity": 0.3937007874015748
        },
        {
          "duration": 0.5294115000000019,
          "durationTicks": 288,
          "midi": 61,
          "name": "C#4",
          "ticks": 16416,
          "time": 30.1764555,
          "velocity": 0.3937007874015748
        },
        {
          "duration": 0.5294115000000019,
          "durationTicks": 288,
          "midi": 65,
          "name": "F4",
          "ticks": 16416,
          "time": 30.1764555,
          "velocity": 0.3937007874015748
        },
        {
          "duration": 0.5294115000000019,
          "durationTicks": 288,
          "midi": 68,
          "name": "G#4",
          "ticks": 16416,
          "time": 30.1764555,
          "velocity": 0.3937007874015748
        },
        {
          "duration": 0.5294115000000019,
          "durationTicks": 288,
          "midi": 70,
          "name": "A#4",
          "ticks": 16416,
          "time": 30.1764555,
          "velocity": 0.3937007874015748
        },
        {
          "duration": 0.5294114999999984,
          "durationTicks": 288,
          "midi": 32,
          "name": "G#1",
          "ticks": 16704,
          "time": 30.705867,
          "velocity": 0.3937007874015748
        },
        {
          "duration": 0.5294114999999984,
          "durationTicks": 288,
          "midi": 44,
          "name": "G#2",
          "ticks": 16704,
          "time": 30.705867,
          "velocity": 0.3937007874015748
        },
        {
          "duration": 0.5294114999999984,
          "durationTicks": 288,
          "midi": 56,
          "name": "G#3",
          "ticks": 16704,
          "time": 30.705867,
          "velocity": 0.3937007874015748
        },
        {
          "duration": 0.5294114999999984,
          "durationTicks": 288,
          "midi": 60,
          "name": "C4",
          "ticks": 16704,
          "time": 30.705867,
          "velocity": 0.3937007874015748
        },
        {
          "duration": 0.5294114999999984,
          "durationTicks": 288,
          "midi": 63,
          "name": "D#4",
          "ticks": 16704,
          "time": 30.705867,
          "velocity": 0.3937007874015748
        },
        {
          "duration": 0.5294114999999984,
          "durationTicks": 288,
          "midi": 67,
          "name": "G4",
          "ticks": 16704,
          "time": 30.705867,
          "velocity": 0.3937007874015748
        },
        {
          "duration": 0.5294114999999984,
          "durationTicks": 288,
          "midi": 68,
          "name": "G#4",
          "ticks": 16704,
          "time": 30.705867,
          "velocity": 0.3937007874015748
        },
        {
          "duration": 0.5294115000000019,
          "durationTicks": 288,
          "midi": 32,
          "name": "G#1",
          "ticks": 16992,
          "time": 31.2352785,
          "velocity": 0.3937007874015748
        },
        {
          "duration": 0.5294115000000019,
          "durationTicks": 288,
          "midi": 44,
          "name": "G#2",
          "ticks": 16992,
          "time": 31.2352785,
          "velocity": 0.3937007874015748
        },
        {
          "duration": 0.5294115000000019,
          "durationTicks": 288,
          "midi": 56,
          "name": "G#3",
          "ticks": 16992,
          "time": 31.2352785,
          "velocity": 0.3937007874015748
        },
        {
          "duration": 0.5294115000000019,
          "durationTicks": 288,
          "midi": 60,
          "name": "C4",
          "ticks": 16992,
          "time": 31.2352785,
          "velocity": 0.3937007874015748
        },
        {
          "duration": 0.5294115000000019,
          "durationTicks": 288,
          "midi": 63,
          "name": "D#4",
          "ticks": 16992,
          "time": 31.2352785,
          "velocity": 0.3937007874015748
        },
        {
          "duration": 0.5294115000000019,
          "durationTicks": 288,
          "midi": 67,
          "name": "G4",
          "ticks": 16992,
          "time": 31.2352785,
          "velocity": 0.3937007874015748
        },
        {
          "duration": 0.5294115000000019,
          "durationTicks": 288,
          "midi": 68,
          "name": "G#4",
          "ticks": 16992,
          "time": 31.2352785,
          "velocity": 0.3937007874015748
        },
        {
          "duration": 0.5294115000000019,
          "durationTicks": 288,
          "midi": 32,
          "name": "G#1",
          "ticks": 17280,
          "time": 31.76469,
          "velocity": 0.3937007874015748
        },
        {
          "duration": 0.5294115000000019,
          "durationTicks": 288,
          "midi": 44,
          "name": "G#2",
          "ticks": 17280,
          "time": 31.76469,
          "velocity": 0.3937007874015748
        },
        {
          "duration": 0.5294115000000019,
          "durationTicks": 288,
          "midi": 56,
          "name": "G#3",
          "ticks": 17280,
          "time": 31.76469,
          "velocity": 0.3937007874015748
        },
        {
          "duration": 0.5294115000000019,
          "durationTicks": 288,
          "midi": 60,
          "name": "C4",
          "ticks": 17280,
          "time": 31.76469,
          "velocity": 0.3937007874015748
        },
        {
          "duration": 0.5294115000000019,
          "durationTicks": 288,
          "midi": 63,
          "name": "D#4",
          "ticks": 17280,
          "time": 31.76469,
          "velocity": 0.3937007874015748
        },
        {
          "duration": 0.5294115000000019,
          "durationTicks": 288,
          "midi": 67,
          "name": "G4",
          "ticks": 17280,
          "time": 31.76469,
          "velocity": 0.3937007874015748
        },
        {
          "duration": 0.5294115000000019,
          "durationTicks": 288,
          "midi": 68,
          "name": "G#4",
          "ticks": 17280,
          "time": 31.76469,
          "velocity": 0.3937007874015748
        },
        {
          "duration": 0.5294114999999948,
          "durationTicks": 288,
          "midi": 32,
          "name": "G#1",
          "ticks": 17568,
          "time": 32.294101500000004,
          "velocity": 0.3937007874015748
        },
        {
          "duration": 0.5294114999999948,
          "durationTicks": 288,
          "midi": 44,
          "name": "G#2",
          "ticks": 17568,
          "time": 32.294101500000004,
          "velocity": 0.3937007874015748
        },
        {
          "duration": 0.5294114999999948,
          "durationTicks": 288,
          "midi": 56,
          "name": "G#3",
          "ticks": 17568,
          "time": 32.294101500000004,
          "velocity": 0.3937007874015748
        },
        {
          "duration": 0.5294114999999948,
          "durationTicks": 288,
          "midi": 60,
          "name": "C4",
          "ticks": 17568,
          "time": 32.294101500000004,
          "velocity": 0.3937007874015748
        },
        {
          "duration": 0.5294114999999948,
          "durationTicks": 288,
          "midi": 63,
          "name": "D#4",
          "ticks": 17568,
          "time": 32.294101500000004,
          "velocity": 0.3937007874015748
        },
        {
          "duration": 0.5294114999999948,
          "durationTicks": 288,
          "midi": 67,
          "name": "G4",
          "ticks": 17568,
          "time": 32.294101500000004,
          "velocity": 0.3937007874015748
        },
        {
          "duration": 0.5294114999999948,
          "durationTicks": 288,
          "midi": 68,
          "name": "G#4",
          "ticks": 17568,
          "time": 32.294101500000004,
          "velocity": 0.3937007874015748
        },
        {
          "duration": 0.5294115000000019,
          "durationTicks": 288,
          "midi": 32,
          "name": "G#1",
          "ticks": 17856,
          "time": 32.823513,
          "velocity": 0.3937007874015748
        },
        {
          "duration": 0.5294115000000019,
          "durationTicks": 288,
          "midi": 44,
          "name": "G#2",
          "ticks": 17856,
          "time": 32.823513,
          "velocity": 0.3937007874015748
        },
        {
          "duration": 0.5294115000000019,
          "durationTicks": 288,
          "midi": 56,
          "name": "G#3",
          "ticks": 17856,
          "time": 32.823513,
          "velocity": 0.3937007874015748
        },
        {
          "duration": 0.5294115000000019,
          "durationTicks": 288,
          "midi": 60,
          "name": "C4",
          "ticks": 17856,
          "time": 32.823513,
          "velocity": 0.3937007874015748
        },
        {
          "duration": 0.5294115000000019,
          "durationTicks": 288,
          "midi": 63,
          "name": "D#4",
          "ticks": 17856,
          "time": 32.823513,
          "velocity": 0.3937007874015748
        },
        {
          "duration": 0.5294115000000019,
          "durationTicks": 288,
          "midi": 67,
          "name": "G4",
          "ticks": 17856,
          "time": 32.823513,
          "velocity": 0.3937007874015748
        },
        {
          "duration": 0.5294115000000019,
          "durationTicks": 288,
          "midi": 68,
          "name": "G#4",
          "ticks": 17856,
          "time": 32.823513,
          "velocity": 0.3937007874015748
        },
        {
          "duration": 0.5294115000000019,
          "durationTicks": 288,
          "midi": 32,
          "name": "G#1",
          "ticks": 18144,
          "time": 33.3529245,
          "velocity": 0.3937007874015748
        },
        {
          "duration": 0.5294115000000019,
          "durationTicks": 288,
          "midi": 44,
          "name": "G#2",
          "ticks": 18144,
          "time": 33.3529245,
          "velocity": 0.3937007874015748
        },
        {
          "duration": 0.5294115000000019,
          "durationTicks": 288,
          "midi": 56,
          "name": "G#3",
          "ticks": 18144,
          "time": 33.3529245,
          "velocity": 0.3937007874015748
        },
        {
          "duration": 0.5294115000000019,
          "durationTicks": 288,
          "midi": 60,
          "name": "C4",
          "ticks": 18144,
          "time": 33.3529245,
          "velocity": 0.3937007874015748
        },
        {
          "duration": 0.5294115000000019,
          "durationTicks": 288,
          "midi": 63,
          "name": "D#4",
          "ticks": 18144,
          "time": 33.3529245,
          "velocity": 0.3937007874015748
        },
        {
          "duration": 0.5294115000000019,
          "durationTicks": 288,
          "midi": 67,
          "name": "G4",
          "ticks": 18144,
          "time": 33.3529245,
          "velocity": 0.3937007874015748
        },
        {
          "duration": 0.5294115000000019,
          "durationTicks": 288,
          "midi": 68,
          "name": "G#4",
          "ticks": 18144,
          "time": 33.3529245,
          "velocity": 0.3937007874015748
        },
        {
          "duration": 0.5294114999999948,
          "durationTicks": 288,
          "midi": 29,
          "name": "F1",
          "ticks": 18432,
          "time": 33.882336,
          "velocity": 0.3937007874015748
        },
        {
          "duration": 0.5294114999999948,
          "durationTicks": 288,
          "midi": 41,
          "name": "F2",
          "ticks": 18432,
          "time": 33.882336,
          "velocity": 0.3937007874015748
        },
        {
          "duration": 0.5294114999999948,
          "durationTicks": 288,
          "midi": 53,
          "name": "F3",
          "ticks": 18432,
          "time": 33.882336,
          "velocity": 0.3937007874015748
        },
        {
          "duration": 0.5294114999999948,
          "durationTicks": 288,
          "midi": 56,
          "name": "G#3",
          "ticks": 18432,
          "time": 33.882336,
          "velocity": 0.3937007874015748
        },
        {
          "duration": 0.5294114999999948,
          "durationTicks": 288,
          "midi": 60,
          "name": "C4",
          "ticks": 18432,
          "time": 33.882336,
          "velocity": 0.3937007874015748
        },
        {
          "duration": 0.5294114999999948,
          "durationTicks": 288,
          "midi": 63,
          "name": "D#4",
          "ticks": 18432,
          "time": 33.882336,
          "velocity": 0.3937007874015748
        },
        {
          "duration": 0.5294114999999948,
          "durationTicks": 288,
          "midi": 72,
          "name": "C5",
          "ticks": 18432,
          "time": 33.882336,
          "velocity": 0.3937007874015748
        },
        {
          "duration": 0.5294115000000019,
          "durationTicks": 288,
          "midi": 29,
          "name": "F1",
          "ticks": 18720,
          "time": 34.4117475,
          "velocity": 0.3937007874015748
        },
        {
          "duration": 0.5294115000000019,
          "durationTicks": 288,
          "midi": 41,
          "name": "F2",
          "ticks": 18720,
          "time": 34.4117475,
          "velocity": 0.3937007874015748
        },
        {
          "duration": 0.5294115000000019,
          "durationTicks": 288,
          "midi": 53,
          "name": "F3",
          "ticks": 18720,
          "time": 34.4117475,
          "velocity": 0.3937007874015748
        },
        {
          "duration": 0.5294115000000019,
          "durationTicks": 288,
          "midi": 56,
          "name": "G#3",
          "ticks": 18720,
          "time": 34.4117475,
          "velocity": 0.3937007874015748
        },
        {
          "duration": 0.5294115000000019,
          "durationTicks": 288,
          "midi": 60,
          "name": "C4",
          "ticks": 18720,
          "time": 34.4117475,
          "velocity": 0.3937007874015748
        },
        {
          "duration": 0.5294115000000019,
          "durationTicks": 288,
          "midi": 63,
          "name": "D#4",
          "ticks": 18720,
          "time": 34.4117475,
          "velocity": 0.3937007874015748
        },
        {
          "duration": 0.5294115000000019,
          "durationTicks": 288,
          "midi": 72,
          "name": "C5",
          "ticks": 18720,
          "time": 34.4117475,
          "velocity": 0.3937007874015748
        },
        {
          "duration": 0.3529410000000013,
          "durationTicks": 192,
          "midi": 29,
          "name": "F1",
          "ticks": 19008,
          "time": 34.941159,
          "velocity": 0.3937007874015748
        },
        {
          "duration": 0.3529410000000013,
          "durationTicks": 192,
          "midi": 41,
          "name": "F2",
          "ticks": 19008,
          "time": 34.941159,
          "velocity": 0.3937007874015748
        },
        {
          "duration": 0.3529410000000013,
          "durationTicks": 192,
          "midi": 53,
          "name": "F3",
          "ticks": 19008,
          "time": 34.941159,
          "velocity": 0.3937007874015748
        },
        {
          "duration": 0.3529410000000013,
          "durationTicks": 192,
          "midi": 56,
          "name": "G#3",
          "ticks": 19008,
          "time": 34.941159,
          "velocity": 0.3937007874015748
        },
        {
          "duration": 0.3529410000000013,
          "durationTicks": 192,
          "midi": 60,
          "name": "C4",
          "ticks": 19008,
          "time": 34.941159,
          "velocity": 0.3937007874015748
        },
        {
          "duration": 0.3529410000000013,
          "durationTicks": 192,
          "midi": 63,
          "name": "D#4",
          "ticks": 19008,
          "time": 34.941159,
          "velocity": 0.3937007874015748
        },
        {
          "duration": 0.3529410000000013,
          "durationTicks": 192,
          "midi": 72,
          "name": "C5",
          "ticks": 19008,
          "time": 34.941159,
          "velocity": 0.3937007874015748
        },
        {
          "duration": 0.5294115000000019,
          "durationTicks": 288,
          "midi": 32,
          "name": "G#1",
          "ticks": 19200,
          "time": 35.2941,
          "velocity": 0.3937007874015748
        },
        {
          "duration": 0.5294115000000019,
          "durationTicks": 288,
          "midi": 44,
          "name": "G#2",
          "ticks": 19200,
          "time": 35.2941,
          "velocity": 0.3937007874015748
        },
        {
          "duration": 0.5294115000000019,
          "durationTicks": 288,
          "midi": 56,
          "name": "G#3",
          "ticks": 19200,
          "time": 35.2941,
          "velocity": 0.3937007874015748
        },
        {
          "duration": 0.5294115000000019,
          "durationTicks": 288,
          "midi": 60,
          "name": "C4",
          "ticks": 19200,
          "time": 35.2941,
          "velocity": 0.3937007874015748
        },
        {
          "duration": 0.5294115000000019,
          "durationTicks": 288,
          "midi": 63,
          "name": "D#4",
          "ticks": 19200,
          "time": 35.2941,
          "velocity": 0.3937007874015748
        },
        {
          "duration": 0.5294115000000019,
          "durationTicks": 288,
          "midi": 67,
          "name": "G4",
          "ticks": 19200,
          "time": 35.2941,
          "velocity": 0.3937007874015748
        },
        {
          "duration": 0.5294115000000019,
          "durationTicks": 288,
          "midi": 68,
          "name": "G#4",
          "ticks": 19200,
          "time": 35.2941,
          "velocity": 0.3937007874015748
        },
        {
          "duration": 0.5294114999999948,
          "durationTicks": 288,
          "midi": 32,
          "name": "G#1",
          "ticks": 19488,
          "time": 35.8235115,
          "velocity": 0.3937007874015748
        },
        {
          "duration": 0.5294114999999948,
          "durationTicks": 288,
          "midi": 44,
          "name": "G#2",
          "ticks": 19488,
          "time": 35.8235115,
          "velocity": 0.3937007874015748
        },
        {
          "duration": 0.5294114999999948,
          "durationTicks": 288,
          "midi": 56,
          "name": "G#3",
          "ticks": 19488,
          "time": 35.8235115,
          "velocity": 0.3937007874015748
        },
        {
          "duration": 0.5294114999999948,
          "durationTicks": 288,
          "midi": 60,
          "name": "C4",
          "ticks": 19488,
          "time": 35.8235115,
          "velocity": 0.3937007874015748
        },
        {
          "duration": 0.5294114999999948,
          "durationTicks": 288,
          "midi": 63,
          "name": "D#4",
          "ticks": 19488,
          "time": 35.8235115,
          "velocity": 0.3937007874015748
        },
        {
          "duration": 0.5294114999999948,
          "durationTicks": 288,
          "midi": 67,
          "name": "G4",
          "ticks": 19488,
          "time": 35.8235115,
          "velocity": 0.3937007874015748
        },
        {
          "duration": 0.5294114999999948,
          "durationTicks": 288,
          "midi": 68,
          "name": "G#4",
          "ticks": 19488,
          "time": 35.8235115,
          "velocity": 0.3937007874015748
        },
        {
          "duration": 0.5294115000000019,
          "durationTicks": 288,
          "midi": 36,
          "name": "C2",
          "ticks": 19776,
          "time": 36.352923,
          "velocity": 0.3937007874015748
        },
        {
          "duration": 0.5294115000000019,
          "durationTicks": 288,
          "midi": 48,
          "name": "C3",
          "ticks": 19776,
          "time": 36.352923,
          "velocity": 0.3937007874015748
        },
        {
          "duration": 0.5294115000000019,
          "durationTicks": 288,
          "midi": 60,
          "name": "C4",
          "ticks": 19776,
          "time": 36.352923,
          "velocity": 0.3937007874015748
        },
        {
          "duration": 0.5294115000000019,
          "durationTicks": 288,
          "midi": 63,
          "name": "D#4",
          "ticks": 19776,
          "time": 36.352923,
          "velocity": 0.3937007874015748
        },
        {
          "duration": 0.5294115000000019,
          "durationTicks": 288,
          "midi": 65,
          "name": "F4",
          "ticks": 19776,
          "time": 36.352923,
          "velocity": 0.3937007874015748
        },
        {
          "duration": 0.5294115000000019,
          "durationTicks": 288,
          "midi": 67,
          "name": "G4",
          "ticks": 19776,
          "time": 36.352923,
          "velocity": 0.3937007874015748
        },
        {
          "duration": 0.5294115000000019,
          "durationTicks": 288,
          "midi": 70,
          "name": "A#4",
          "ticks": 19776,
          "time": 36.352923,
          "velocity": 0.3937007874015748
        },
        {
          "duration": 0.5294115000000019,
          "durationTicks": 288,
          "midi": 36,
          "name": "C2",
          "ticks": 20064,
          "time": 36.8823345,
          "velocity": 0.3937007874015748
        },
        {
          "duration": 0.5294115000000019,
          "durationTicks": 288,
          "midi": 48,
          "name": "C3",
          "ticks": 20064,
          "time": 36.8823345,
          "velocity": 0.3937007874015748
        },
        {
          "duration": 0.5294115000000019,
          "durationTicks": 288,
          "midi": 60,
          "name": "C4",
          "ticks": 20064,
          "time": 36.8823345,
          "velocity": 0.3937007874015748
        },
        {
          "duration": 0.5294115000000019,
          "durationTicks": 288,
          "midi": 63,
          "name": "D#4",
          "ticks": 20064,
          "time": 36.8823345,
          "velocity": 0.3937007874015748
        },
        {
          "duration": 0.5294115000000019,
          "durationTicks": 288,
          "midi": 65,
          "name": "F4",
          "ticks": 20064,
          "time": 36.8823345,
          "velocity": 0.3937007874015748
        },
        {
          "duration": 0.5294115000000019,
          "durationTicks": 288,
          "midi": 67,
          "name": "G4",
          "ticks": 20064,
          "time": 36.8823345,
          "velocity": 0.3937007874015748
        },
        {
          "duration": 0.5294115000000019,
          "durationTicks": 288,
          "midi": 70,
          "name": "A#4",
          "ticks": 20064,
          "time": 36.8823345,
          "velocity": 0.3937007874015748
        },
        {
          "duration": 0.5294115000000019,
          "durationTicks": 288,
          "midi": 36,
          "name": "C2",
          "ticks": 20352,
          "time": 37.411746,
          "velocity": 0.3937007874015748
        },
        {
          "duration": 0.5294115000000019,
          "durationTicks": 288,
          "midi": 48,
          "name": "C3",
          "ticks": 20352,
          "time": 37.411746,
          "velocity": 0.3937007874015748
        },
        {
          "duration": 0.5294115000000019,
          "durationTicks": 288,
          "midi": 60,
          "name": "C4",
          "ticks": 20352,
          "time": 37.411746,
          "velocity": 0.3937007874015748
        },
        {
          "duration": 0.5294115000000019,
          "durationTicks": 288,
          "midi": 63,
          "name": "D#4",
          "ticks": 20352,
          "time": 37.411746,
          "velocity": 0.3937007874015748
        },
        {
          "duration": 0.5294115000000019,
          "durationTicks": 288,
          "midi": 65,
          "name": "F4",
          "ticks": 20352,
          "time": 37.411746,
          "velocity": 0.3937007874015748
        },
        {
          "duration": 0.5294115000000019,
          "durationTicks": 288,
          "midi": 67,
          "name": "G4",
          "ticks": 20352,
          "time": 37.411746,
          "velocity": 0.3937007874015748
        },
        {
          "duration": 0.5294115000000019,
          "durationTicks": 288,
          "midi": 70,
          "name": "A#4",
          "ticks": 20352,
          "time": 37.411746,
          "velocity": 0.3937007874015748
        },
        {
          "duration": 0.5294114999999948,
          "durationTicks": 288,
          "midi": 36,
          "name": "C2",
          "ticks": 20640,
          "time": 37.9411575,
          "velocity": 0.3937007874015748
        },
        {
          "duration": 0.5294114999999948,
          "durationTicks": 288,
          "midi": 48,
          "name": "C3",
          "ticks": 20640,
          "time": 37.9411575,
          "velocity": 0.3937007874015748
        },
        {
          "duration": 0.5294114999999948,
          "durationTicks": 288,
          "midi": 60,
          "name": "C4",
          "ticks": 20640,
          "time": 37.9411575,
          "velocity": 0.3937007874015748
        },
        {
          "duration": 0.5294114999999948,
          "durationTicks": 288,
          "midi": 63,
          "name": "D#4",
          "ticks": 20640,
          "time": 37.9411575,
          "velocity": 0.3937007874015748
        },
        {
          "duration": 0.5294114999999948,
          "durationTicks": 288,
          "midi": 65,
          "name": "F4",
          "ticks": 20640,
          "time": 37.9411575,
          "velocity": 0.3937007874015748
        },
        {
          "duration": 0.5294114999999948,
          "durationTicks": 288,
          "midi": 67,
          "name": "G4",
          "ticks": 20640,
          "time": 37.9411575,
          "velocity": 0.3937007874015748
        },
        {
          "duration": 0.5294114999999948,
          "durationTicks": 288,
          "midi": 70,
          "name": "A#4",
          "ticks": 20640,
          "time": 37.9411575,
          "velocity": 0.3937007874015748
        },
        {
          "duration": 0.5294115000000019,
          "durationTicks": 288,
          "midi": 36,
          "name": "C2",
          "ticks": 20928,
          "time": 38.470569,
          "velocity": 0.3937007874015748
        },
        {
          "duration": 0.5294115000000019,
          "durationTicks": 288,
          "midi": 48,
          "name": "C3",
          "ticks": 20928,
          "time": 38.470569,
          "velocity": 0.3937007874015748
        },
        {
          "duration": 0.5294115000000019,
          "durationTicks": 288,
          "midi": 60,
          "name": "C4",
          "ticks": 20928,
          "time": 38.470569,
          "velocity": 0.3937007874015748
        },
        {
          "duration": 0.5294115000000019,
          "durationTicks": 288,
          "midi": 63,
          "name": "D#4",
          "ticks": 20928,
          "time": 38.470569,
          "velocity": 0.3937007874015748
        },
        {
          "duration": 0.5294115000000019,
          "durationTicks": 288,
          "midi": 65,
          "name": "F4",
          "ticks": 20928,
          "time": 38.470569,
          "velocity": 0.3937007874015748
        },
        {
          "duration": 0.5294115000000019,
          "durationTicks": 288,
          "midi": 67,
          "name": "G4",
          "ticks": 20928,
          "time": 38.470569,
          "velocity": 0.3937007874015748
        },
        {
          "duration": 0.5294115000000019,
          "durationTicks": 288,
          "midi": 70,
          "name": "A#4",
          "ticks": 20928,
          "time": 38.470569,
          "velocity": 0.3937007874015748
        },
        {
          "duration": 0.5294115000000019,
          "durationTicks": 288,
          "midi": 36,
          "name": "C2",
          "ticks": 21216,
          "time": 38.9999805,
          "velocity": 0.3937007874015748
        },
        {
          "duration": 0.5294115000000019,
          "durationTicks": 288,
          "midi": 48,
          "name": "C3",
          "ticks": 21216,
          "time": 38.9999805,
          "velocity": 0.3937007874015748
        },
        {
          "duration": 0.5294115000000019,
          "durationTicks": 288,
          "midi": 60,
          "name": "C4",
          "ticks": 21216,
          "time": 38.9999805,
          "velocity": 0.3937007874015748
        },
        {
          "duration": 0.5294115000000019,
          "durationTicks": 288,
          "midi": 63,
          "name": "D#4",
          "ticks": 21216,
          "time": 38.9999805,
          "velocity": 0.3937007874015748
        },
        {
          "duration": 0.5294115000000019,
          "durationTicks": 288,
          "midi": 65,
          "name": "F4",
          "ticks": 21216,
          "time": 38.9999805,
          "velocity": 0.3937007874015748
        },
        {
          "duration": 0.5294115000000019,
          "durationTicks": 288,
          "midi": 67,
          "name": "G4",
          "ticks": 21216,
          "time": 38.9999805,
          "velocity": 0.3937007874015748
        },
        {
          "duration": 0.5294115000000019,
          "durationTicks": 288,
          "midi": 70,
          "name": "A#4",
          "ticks": 21216,
          "time": 38.9999805,
          "velocity": 0.3937007874015748
        },
        {
          "duration": 0.5294115000000019,
          "durationTicks": 288,
          "midi": 29,
          "name": "F1",
          "ticks": 21504,
          "time": 39.529392,
          "velocity": 0.3937007874015748
        },
        {
          "duration": 0.5294115000000019,
          "durationTicks": 288,
          "midi": 41,
          "name": "F2",
          "ticks": 21504,
          "time": 39.529392,
          "velocity": 0.3937007874015748
        },
        {
          "duration": 0.5294115000000019,
          "durationTicks": 288,
          "midi": 53,
          "name": "F3",
          "ticks": 21504,
          "time": 39.529392,
          "velocity": 0.3937007874015748
        },
        {
          "duration": 0.5294115000000019,
          "durationTicks": 288,
          "midi": 56,
          "name": "G#3",
          "ticks": 21504,
          "time": 39.529392,
          "velocity": 0.3937007874015748
        },
        {
          "duration": 0.5294115000000019,
          "durationTicks": 288,
          "midi": 60,
          "name": "C4",
          "ticks": 21504,
          "time": 39.529392,
          "velocity": 0.3937007874015748
        },
        {
          "duration": 0.5294115000000019,
          "durationTicks": 288,
          "midi": 63,
          "name": "D#4",
          "ticks": 21504,
          "time": 39.529392,
          "velocity": 0.3937007874015748
        },
        {
          "duration": 0.5294115000000019,
          "durationTicks": 288,
          "midi": 68,
          "name": "G#4",
          "ticks": 21504,
          "time": 39.529392,
          "velocity": 0.3937007874015748
        },
        {
          "duration": 0.5294114999999948,
          "durationTicks": 288,
          "midi": 29,
          "name": "F1",
          "ticks": 21792,
          "time": 40.0588035,
          "velocity": 0.3937007874015748
        },
        {
          "duration": 0.5294114999999948,
          "durationTicks": 288,
          "midi": 41,
          "name": "F2",
          "ticks": 21792,
          "time": 40.0588035,
          "velocity": 0.3937007874015748
        },
        {
          "duration": 0.5294114999999948,
          "durationTicks": 288,
          "midi": 53,
          "name": "F3",
          "ticks": 21792,
          "time": 40.0588035,
          "velocity": 0.3937007874015748
        },
        {
          "duration": 0.5294114999999948,
          "durationTicks": 288,
          "midi": 56,
          "name": "G#3",
          "ticks": 21792,
          "time": 40.0588035,
          "velocity": 0.3937007874015748
        },
        {
          "duration": 0.5294114999999948,
          "durationTicks": 288,
          "midi": 60,
          "name": "C4",
          "ticks": 21792,
          "time": 40.0588035,
          "velocity": 0.3937007874015748
        },
        {
          "duration": 0.5294114999999948,
          "durationTicks": 288,
          "midi": 63,
          "name": "D#4",
          "ticks": 21792,
          "time": 40.0588035,
          "velocity": 0.3937007874015748
        },
        {
          "duration": 0.5294114999999948,
          "durationTicks": 288,
          "midi": 68,
          "name": "G#4",
          "ticks": 21792,
          "time": 40.0588035,
          "velocity": 0.3937007874015748
        },
        {
          "duration": 0.3529410000000013,
          "durationTicks": 192,
          "midi": 29,
          "name": "F1",
          "ticks": 22080,
          "time": 40.588215,
          "velocity": 0.3937007874015748
        },
        {
          "duration": 0.3529410000000013,
          "durationTicks": 192,
          "midi": 41,
          "name": "F2",
          "ticks": 22080,
          "time": 40.588215,
          "velocity": 0.3937007874015748
        },
        {
          "duration": 0.3529410000000013,
          "durationTicks": 192,
          "midi": 53,
          "name": "F3",
          "ticks": 22080,
          "time": 40.588215,
          "velocity": 0.3937007874015748
        },
        {
          "duration": 0.3529410000000013,
          "durationTicks": 192,
          "midi": 56,
          "name": "G#3",
          "ticks": 22080,
          "time": 40.588215,
          "velocity": 0.3937007874015748
        },
        {
          "duration": 0.3529410000000013,
          "durationTicks": 192,
          "midi": 60,
          "name": "C4",
          "ticks": 22080,
          "time": 40.588215,
          "velocity": 0.3937007874015748
        },
        {
          "duration": 0.3529410000000013,
          "durationTicks": 192,
          "midi": 63,
          "name": "D#4",
          "ticks": 22080,
          "time": 40.588215,
          "velocity": 0.3937007874015748
        },
        {
          "duration": 0.3529410000000013,
          "durationTicks": 192,
          "midi": 68,
          "name": "G#4",
          "ticks": 22080,
          "time": 40.588215,
          "velocity": 0.3937007874015748
        },
        {
          "duration": 0.5294115000000019,
          "durationTicks": 288,
          "midi": 34,
          "name": "A#1",
          "ticks": 22272,
          "time": 40.941156,
          "velocity": 0.3937007874015748
        },
        {
          "duration": 0.5294115000000019,
          "durationTicks": 288,
          "midi": 46,
          "name": "A#2",
          "ticks": 22272,
          "time": 40.941156,
          "velocity": 0.3937007874015748
        },
        {
          "duration": 0.5294115000000019,
          "durationTicks": 288,
          "midi": 58,
          "name": "A#3",
          "ticks": 22272,
          "time": 40.941156,
          "velocity": 0.3937007874015748
        },
        {
          "duration": 0.5294115000000019,
          "durationTicks": 288,
          "midi": 61,
          "name": "C#4",
          "ticks": 22272,
          "time": 40.941156,
          "velocity": 0.3937007874015748
        },
        {
          "duration": 0.5294115000000019,
          "durationTicks": 288,
          "midi": 65,
          "name": "F4",
          "ticks": 22272,
          "time": 40.941156,
          "velocity": 0.3937007874015748
        },
        {
          "duration": 0.5294115000000019,
          "durationTicks": 288,
          "midi": 67,
          "name": "G4",
          "ticks": 22272,
          "time": 40.941156,
          "velocity": 0.3937007874015748
        },
        {
          "duration": 0.5294115000000019,
          "durationTicks": 288,
          "midi": 68,
          "name": "G#4",
          "ticks": 22272,
          "time": 40.941156,
          "velocity": 0.3937007874015748
        },
        {
          "duration": 0.5294115000000019,
          "durationTicks": 288,
          "midi": 34,
          "name": "A#1",
          "ticks": 22560,
          "time": 41.4705675,
          "velocity": 0.3937007874015748
        },
        {
          "duration": 0.5294115000000019,
          "durationTicks": 288,
          "midi": 46,
          "name": "A#2",
          "ticks": 22560,
          "time": 41.4705675,
          "velocity": 0.3937007874015748
        },
        {
          "duration": 0.5294115000000019,
          "durationTicks": 288,
          "midi": 58,
          "name": "A#3",
          "ticks": 22560,
          "time": 41.4705675,
          "velocity": 0.3937007874015748
        },
        {
          "duration": 0.5294115000000019,
          "durationTicks": 288,
          "midi": 61,
          "name": "C#4",
          "ticks": 22560,
          "time": 41.4705675,
          "velocity": 0.3937007874015748
        },
        {
          "duration": 0.5294115000000019,
          "durationTicks": 288,
          "midi": 65,
          "name": "F4",
          "ticks": 22560,
          "time": 41.4705675,
          "velocity": 0.3937007874015748
        },
        {
          "duration": 0.5294115000000019,
          "durationTicks": 288,
          "midi": 67,
          "name": "G4",
          "ticks": 22560,
          "time": 41.4705675,
          "velocity": 0.3937007874015748
        },
        {
          "duration": 0.5294115000000019,
          "durationTicks": 288,
          "midi": 68,
          "name": "G#4",
          "ticks": 22560,
          "time": 41.4705675,
          "velocity": 0.3937007874015748
        },
        {
          "duration": 0.5294114999999948,
          "durationTicks": 288,
          "midi": 32,
          "name": "G#1",
          "ticks": 22848,
          "time": 41.999979,
          "velocity": 0.3937007874015748
        },
        {
          "duration": 0.5294114999999948,
          "durationTicks": 288,
          "midi": 44,
          "name": "G#2",
          "ticks": 22848,
          "time": 41.999979,
          "velocity": 0.3937007874015748
        },
        {
          "duration": 0.5294114999999948,
          "durationTicks": 288,
          "midi": 56,
          "name": "G#3",
          "ticks": 22848,
          "time": 41.999979,
          "velocity": 0.3937007874015748
        },
        {
          "duration": 0.5294114999999948,
          "durationTicks": 288,
          "midi": 60,
          "name": "C4",
          "ticks": 22848,
          "time": 41.999979,
          "velocity": 0.3937007874015748
        },
        {
          "duration": 0.5294114999999948,
          "durationTicks": 288,
          "midi": 63,
          "name": "D#4",
          "ticks": 22848,
          "time": 41.999979,
          "velocity": 0.3937007874015748
        },
        {
          "duration": 0.5294114999999948,
          "durationTicks": 288,
          "midi": 65,
          "name": "F4",
          "ticks": 22848,
          "time": 41.999979,
          "velocity": 0.3937007874015748
        },
        {
          "duration": 0.5294114999999948,
          "durationTicks": 288,
          "midi": 67,
          "name": "G4",
          "ticks": 22848,
          "time": 41.999979,
          "velocity": 0.3937007874015748
        },
        {
          "duration": 0.5294115000000019,
          "durationTicks": 288,
          "midi": 32,
          "name": "G#1",
          "ticks": 23136,
          "time": 42.5293905,
          "velocity": 0.3937007874015748
        },
        {
          "duration": 0.5294115000000019,
          "durationTicks": 288,
          "midi": 44,
          "name": "G#2",
          "ticks": 23136,
          "time": 42.5293905,
          "velocity": 0.3937007874015748
        },
        {
          "duration": 0.5294115000000019,
          "durationTicks": 288,
          "midi": 56,
          "name": "G#3",
          "ticks": 23136,
          "time": 42.5293905,
          "velocity": 0.3937007874015748
        },
        {
          "duration": 0.5294115000000019,
          "durationTicks": 288,
          "midi": 60,
          "name": "C4",
          "ticks": 23136,
          "time": 42.5293905,
          "velocity": 0.3937007874015748
        },
        {
          "duration": 0.5294115000000019,
          "durationTicks": 288,
          "midi": 63,
          "name": "D#4",
          "ticks": 23136,
          "time": 42.5293905,
          "velocity": 0.3937007874015748
        },
        {
          "duration": 0.5294115000000019,
          "durationTicks": 288,
          "midi": 65,
          "name": "F4",
          "ticks": 23136,
          "time": 42.5293905,
          "velocity": 0.3937007874015748
        },
        {
          "duration": 0.5294115000000019,
          "durationTicks": 288,
          "midi": 67,
          "name": "G4",
          "ticks": 23136,
          "time": 42.5293905,
          "velocity": 0.3937007874015748
        },
        {
          "duration": 0.5294115000000019,
          "durationTicks": 288,
          "midi": 32,
          "name": "G#1",
          "ticks": 23424,
          "time": 43.058802,
          "velocity": 0.3937007874015748
        },
        {
          "duration": 0.5294115000000019,
          "durationTicks": 288,
          "midi": 44,
          "name": "G#2",
          "ticks": 23424,
          "time": 43.058802,
          "velocity": 0.3937007874015748
        },
        {
          "duration": 0.5294115000000019,
          "durationTicks": 288,
          "midi": 56,
          "name": "G#3",
          "ticks": 23424,
          "time": 43.058802,
          "velocity": 0.3937007874015748
        },
        {
          "duration": 0.5294115000000019,
          "durationTicks": 288,
          "midi": 60,
          "name": "C4",
          "ticks": 23424,
          "time": 43.058802,
          "velocity": 0.3937007874015748
        },
        {
          "duration": 0.5294115000000019,
          "durationTicks": 288,
          "midi": 63,
          "name": "D#4",
          "ticks": 23424,
          "time": 43.058802,
          "velocity": 0.3937007874015748
        },
        {
          "duration": 0.5294115000000019,
          "durationTicks": 288,
          "midi": 65,
          "name": "F4",
          "ticks": 23424,
          "time": 43.058802,
          "velocity": 0.3937007874015748
        },
        {
          "duration": 0.5294115000000019,
          "durationTicks": 288,
          "midi": 67,
          "name": "G4",
          "ticks": 23424,
          "time": 43.058802,
          "velocity": 0.3937007874015748
        },
        {
          "duration": 0.5294115000000019,
          "durationTicks": 288,
          "midi": 32,
          "name": "G#1",
          "ticks": 23712,
          "time": 43.5882135,
          "velocity": 0.3937007874015748
        },
        {
          "duration": 0.5294115000000019,
          "durationTicks": 288,
          "midi": 44,
          "name": "G#2",
          "ticks": 23712,
          "time": 43.5882135,
          "velocity": 0.3937007874015748
        },
        {
          "duration": 0.5294115000000019,
          "durationTicks": 288,
          "midi": 56,
          "name": "G#3",
          "ticks": 23712,
          "time": 43.5882135,
          "velocity": 0.3937007874015748
        },
        {
          "duration": 0.5294115000000019,
          "durationTicks": 288,
          "midi": 60,
          "name": "C4",
          "ticks": 23712,
          "time": 43.5882135,
          "velocity": 0.3937007874015748
        },
        {
          "duration": 0.5294115000000019,
          "durationTicks": 288,
          "midi": 63,
          "name": "D#4",
          "ticks": 23712,
          "time": 43.5882135,
          "velocity": 0.3937007874015748
        },
        {
          "duration": 0.5294115000000019,
          "durationTicks": 288,
          "midi": 65,
          "name": "F4",
          "ticks": 23712,
          "time": 43.5882135,
          "velocity": 0.3937007874015748
        },
        {
          "duration": 0.5294115000000019,
          "durationTicks": 288,
          "midi": 67,
          "name": "G4",
          "ticks": 23712,
          "time": 43.5882135,
          "velocity": 0.3937007874015748
        },
        {
          "duration": 0.5294114999999948,
          "durationTicks": 288,
          "midi": 32,
          "name": "G#1",
          "ticks": 24000,
          "time": 44.117625000000004,
          "velocity": 0.3937007874015748
        },
        {
          "duration": 0.5294114999999948,
          "durationTicks": 288,
          "midi": 44,
          "name": "G#2",
          "ticks": 24000,
          "time": 44.117625000000004,
          "velocity": 0.3937007874015748
        },
        {
          "duration": 0.5294114999999948,
          "durationTicks": 288,
          "midi": 56,
          "name": "G#3",
          "ticks": 24000,
          "time": 44.117625000000004,
          "velocity": 0.3937007874015748
        },
        {
          "duration": 0.5294114999999948,
          "durationTicks": 288,
          "midi": 60,
          "name": "C4",
          "ticks": 24000,
          "time": 44.117625000000004,
          "velocity": 0.3937007874015748
        },
        {
          "duration": 0.5294114999999948,
          "durationTicks": 288,
          "midi": 63,
          "name": "D#4",
          "ticks": 24000,
          "time": 44.117625000000004,
          "velocity": 0.3937007874015748
        },
        {
          "duration": 0.5294114999999948,
          "durationTicks": 288,
          "midi": 65,
          "name": "F4",
          "ticks": 24000,
          "time": 44.117625000000004,
          "velocity": 0.3937007874015748
        },
        {
          "duration": 0.5294114999999948,
          "durationTicks": 288,
          "midi": 67,
          "name": "G4",
          "ticks": 24000,
          "time": 44.117625000000004,
          "velocity": 0.3937007874015748
        },
        {
          "duration": 0.5294115000000019,
          "durationTicks": 288,
          "midi": 32,
          "name": "G#1",
          "ticks": 24288,
          "time": 44.6470365,
          "velocity": 0.3937007874015748
        },
        {
          "duration": 0.5294115000000019,
          "durationTicks": 288,
          "midi": 44,
          "name": "G#2",
          "ticks": 24288,
          "time": 44.6470365,
          "velocity": 0.3937007874015748
        },
        {
          "duration": 0.5294115000000019,
          "durationTicks": 288,
          "midi": 56,
          "name": "G#3",
          "ticks": 24288,
          "time": 44.6470365,
          "velocity": 0.3937007874015748
        },
        {
          "duration": 0.5294115000000019,
          "durationTicks": 288,
          "midi": 60,
          "name": "C4",
          "ticks": 24288,
          "time": 44.6470365,
          "velocity": 0.3937007874015748
        },
        {
          "duration": 0.5294115000000019,
          "durationTicks": 288,
          "midi": 63,
          "name": "D#4",
          "ticks": 24288,
          "time": 44.6470365,
          "velocity": 0.3937007874015748
        },
        {
          "duration": 0.5294115000000019,
          "durationTicks": 288,
          "midi": 65,
          "name": "F4",
          "ticks": 24288,
          "time": 44.6470365,
          "velocity": 0.3937007874015748
        },
        {
          "duration": 0.5294115000000019,
          "durationTicks": 288,
          "midi": 67,
          "name": "G4",
          "ticks": 24288,
          "time": 44.6470365,
          "velocity": 0.3937007874015748
        },
        {
          "duration": 0.5294115000000019,
          "durationTicks": 288,
          "midi": 29,
          "name": "F1",
          "ticks": 24576,
          "time": 45.176448,
          "velocity": 0.3937007874015748
        },
        {
          "duration": 0.5294115000000019,
          "durationTicks": 288,
          "midi": 41,
          "name": "F2",
          "ticks": 24576,
          "time": 45.176448,
          "velocity": 0.3937007874015748
        },
        {
          "duration": 0.5294115000000019,
          "durationTicks": 288,
          "midi": 53,
          "name": "F3",
          "ticks": 24576,
          "time": 45.176448,
          "velocity": 0.3937007874015748
        },
        {
          "duration": 0.5294115000000019,
          "durationTicks": 288,
          "midi": 56,
          "name": "G#3",
          "ticks": 24576,
          "time": 45.176448,
          "velocity": 0.3937007874015748
        },
        {
          "duration": 0.5294115000000019,
          "durationTicks": 288,
          "midi": 60,
          "name": "C4",
          "ticks": 24576,
          "time": 45.176448,
          "velocity": 0.3937007874015748
        },
        {
          "duration": 0.5294115000000019,
          "durationTicks": 288,
          "midi": 63,
          "name": "D#4",
          "ticks": 24576,
          "time": 45.176448,
          "velocity": 0.3937007874015748
        },
        {
          "duration": 0.5294115000000019,
          "durationTicks": 288,
          "midi": 68,
          "name": "G#4",
          "ticks": 24576,
          "time": 45.176448,
          "velocity": 0.3937007874015748
        },
        {
          "duration": 0.5294114999999948,
          "durationTicks": 288,
          "midi": 29,
          "name": "F1",
          "ticks": 24864,
          "time": 45.7058595,
          "velocity": 0.3937007874015748
        },
        {
          "duration": 0.5294114999999948,
          "durationTicks": 288,
          "midi": 41,
          "name": "F2",
          "ticks": 24864,
          "time": 45.7058595,
          "velocity": 0.3937007874015748
        },
        {
          "duration": 0.5294114999999948,
          "durationTicks": 288,
          "midi": 53,
          "name": "F3",
          "ticks": 24864,
          "time": 45.7058595,
          "velocity": 0.3937007874015748
        },
        {
          "duration": 0.5294114999999948,
          "durationTicks": 288,
          "midi": 56,
          "name": "G#3",
          "ticks": 24864,
          "time": 45.7058595,
          "velocity": 0.3937007874015748
        },
        {
          "duration": 0.5294114999999948,
          "durationTicks": 288,
          "midi": 60,
          "name": "C4",
          "ticks": 24864,
          "time": 45.7058595,
          "velocity": 0.3937007874015748
        },
        {
          "duration": 0.5294114999999948,
          "durationTicks": 288,
          "midi": 63,
          "name": "D#4",
          "ticks": 24864,
          "time": 45.7058595,
          "velocity": 0.3937007874015748
        },
        {
          "duration": 0.5294114999999948,
          "durationTicks": 288,
          "midi": 68,
          "name": "G#4",
          "ticks": 24864,
          "time": 45.7058595,
          "velocity": 0.3937007874015748
        },
        {
          "duration": 0.3529410000000013,
          "durationTicks": 192,
          "midi": 29,
          "name": "F1",
          "ticks": 25152,
          "time": 46.235271,
          "velocity": 0.3937007874015748
        },
        {
          "duration": 0.3529410000000013,
          "durationTicks": 192,
          "midi": 41,
          "name": "F2",
          "ticks": 25152,
          "time": 46.235271,
          "velocity": 0.3937007874015748
        },
        {
          "duration": 0.3529410000000013,
          "durationTicks": 192,
          "midi": 53,
          "name": "F3",
          "ticks": 25152,
          "time": 46.235271,
          "velocity": 0.3937007874015748
        },
        {
          "duration": 0.3529410000000013,
          "durationTicks": 192,
          "midi": 56,
          "name": "G#3",
          "ticks": 25152,
          "time": 46.235271,
          "velocity": 0.3937007874015748
        },
        {
          "duration": 0.3529410000000013,
          "durationTicks": 192,
          "midi": 60,
          "name": "C4",
          "ticks": 25152,
          "time": 46.235271,
          "velocity": 0.3937007874015748
        },
        {
          "duration": 0.3529410000000013,
          "durationTicks": 192,
          "midi": 63,
          "name": "D#4",
          "ticks": 25152,
          "time": 46.235271,
          "velocity": 0.3937007874015748
        },
        {
          "duration": 0.3529410000000013,
          "durationTicks": 192,
          "midi": 68,
          "name": "G#4",
          "ticks": 25152,
          "time": 46.235271,
          "velocity": 0.3937007874015748
        },
        {
          "duration": 0.5294115000000019,
          "durationTicks": 288,
          "midi": 32,
          "name": "G#1",
          "ticks": 25344,
          "time": 46.588212,
          "velocity": 0.3937007874015748
        },
        {
          "duration": 0.5294115000000019,
          "durationTicks": 288,
          "midi": 44,
          "name": "G#2",
          "ticks": 25344,
          "time": 46.588212,
          "velocity": 0.3937007874015748
        },
        {
          "duration": 0.5294115000000019,
          "durationTicks": 288,
          "midi": 56,
          "name": "G#3",
          "ticks": 25344,
          "time": 46.588212,
          "velocity": 0.3937007874015748
        },
        {
          "duration": 0.5294115000000019,
          "durationTicks": 288,
          "midi": 60,
          "name": "C4",
          "ticks": 25344,
          "time": 46.588212,
          "velocity": 0.3937007874015748
        },
        {
          "duration": 0.5294115000000019,
          "durationTicks": 288,
          "midi": 63,
          "name": "D#4",
          "ticks": 25344,
          "time": 46.588212,
          "velocity": 0.3937007874015748
        },
        {
          "duration": 0.5294115000000019,
          "durationTicks": 288,
          "midi": 67,
          "name": "G4",
          "ticks": 25344,
          "time": 46.588212,
          "velocity": 0.3937007874015748
        },
        {
          "duration": 0.5294115000000019,
          "durationTicks": 288,
          "midi": 70,
          "name": "A#4",
          "ticks": 25344,
          "time": 46.588212,
          "velocity": 0.3937007874015748
        },
        {
          "duration": 0.5294115000000019,
          "durationTicks": 288,
          "midi": 32,
          "name": "G#1",
          "ticks": 25632,
          "time": 47.1176235,
          "velocity": 0.3937007874015748
        },
        {
          "duration": 0.5294115000000019,
          "durationTicks": 288,
          "midi": 44,
          "name": "G#2",
          "ticks": 25632,
          "time": 47.1176235,
          "velocity": 0.3937007874015748
        },
        {
          "duration": 0.5294115000000019,
          "durationTicks": 288,
          "midi": 56,
          "name": "G#3",
          "ticks": 25632,
          "time": 47.1176235,
          "velocity": 0.3937007874015748
        },
        {
          "duration": 0.5294115000000019,
          "durationTicks": 288,
          "midi": 60,
          "name": "C4",
          "ticks": 25632,
          "time": 47.1176235,
          "velocity": 0.3937007874015748
        },
        {
          "duration": 0.5294115000000019,
          "durationTicks": 288,
          "midi": 63,
          "name": "D#4",
          "ticks": 25632,
          "time": 47.1176235,
          "velocity": 0.3937007874015748
        },
        {
          "duration": 0.5294115000000019,
          "durationTicks": 288,
          "midi": 67,
          "name": "G4",
          "ticks": 25632,
          "time": 47.1176235,
          "velocity": 0.3937007874015748
        },
        {
          "duration": 0.5294115000000019,
          "durationTicks": 288,
          "midi": 70,
          "name": "A#4",
          "ticks": 25632,
          "time": 47.1176235,
          "velocity": 0.3937007874015748
        },
        {
          "duration": 0.5294114999999948,
          "durationTicks": 288,
          "midi": 36,
          "name": "C2",
          "ticks": 25920,
          "time": 47.647035,
          "velocity": 0.3937007874015748
        },
        {
          "duration": 0.5294114999999948,
          "durationTicks": 288,
          "midi": 48,
          "name": "C3",
          "ticks": 25920,
          "time": 47.647035,
          "velocity": 0.3937007874015748
        },
        {
          "duration": 0.5294114999999948,
          "durationTicks": 288,
          "midi": 60,
          "name": "C4",
          "ticks": 25920,
          "time": 47.647035,
          "velocity": 0.3937007874015748
        },
        {
          "duration": 0.5294114999999948,
          "durationTicks": 288,
          "midi": 63,
          "name": "D#4",
          "ticks": 25920,
          "time": 47.647035,
          "velocity": 0.3937007874015748
        },
        {
          "duration": 0.5294114999999948,
          "durationTicks": 288,
          "midi": 67,
          "name": "G4",
          "ticks": 25920,
          "time": 47.647035,
          "velocity": 0.3937007874015748
        },
        {
          "duration": 0.5294114999999948,
          "durationTicks": 288,
          "midi": 70,
          "name": "A#4",
          "ticks": 25920,
          "time": 47.647035,
          "velocity": 0.3937007874015748
        },
        {
          "duration": 0.5294114999999948,
          "durationTicks": 288,
          "midi": 72,
          "name": "C5",
          "ticks": 25920,
          "time": 47.647035,
          "velocity": 0.3937007874015748
        },
        {
          "duration": 0.5294115000000019,
          "durationTicks": 288,
          "midi": 36,
          "name": "C2",
          "ticks": 26208,
          "time": 48.1764465,
          "velocity": 0.3937007874015748
        },
        {
          "duration": 0.5294115000000019,
          "durationTicks": 288,
          "midi": 48,
          "name": "C3",
          "ticks": 26208,
          "time": 48.1764465,
          "velocity": 0.3937007874015748
        },
        {
          "duration": 0.5294115000000019,
          "durationTicks": 288,
          "midi": 60,
          "name": "C4",
          "ticks": 26208,
          "time": 48.1764465,
          "velocity": 0.3937007874015748
        },
        {
          "duration": 0.5294115000000019,
          "durationTicks": 288,
          "midi": 63,
          "name": "D#4",
          "ticks": 26208,
          "time": 48.1764465,
          "velocity": 0.3937007874015748
        },
        {
          "duration": 0.5294115000000019,
          "durationTicks": 288,
          "midi": 67,
          "name": "G4",
          "ticks": 26208,
          "time": 48.1764465,
          "velocity": 0.3937007874015748
        },
        {
          "duration": 0.5294115000000019,
          "durationTicks": 288,
          "midi": 70,
          "name": "A#4",
          "ticks": 26208,
          "time": 48.1764465,
          "velocity": 0.3937007874015748
        },
        {
          "duration": 0.5294115000000019,
          "durationTicks": 288,
          "midi": 72,
          "name": "C5",
          "ticks": 26208,
          "time": 48.1764465,
          "velocity": 0.3937007874015748
        },
        {
          "duration": 0.5294115000000019,
          "durationTicks": 288,
          "midi": 36,
          "name": "C2",
          "ticks": 26496,
          "time": 48.705858,
          "velocity": 0.3937007874015748
        },
        {
          "duration": 0.5294115000000019,
          "durationTicks": 288,
          "midi": 48,
          "name": "C3",
          "ticks": 26496,
          "time": 48.705858,
          "velocity": 0.3937007874015748
        },
        {
          "duration": 0.5294115000000019,
          "durationTicks": 288,
          "midi": 60,
          "name": "C4",
          "ticks": 26496,
          "time": 48.705858,
          "velocity": 0.3937007874015748
        },
        {
          "duration": 0.5294115000000019,
          "durationTicks": 288,
          "midi": 63,
          "name": "D#4",
          "ticks": 26496,
          "time": 48.705858,
          "velocity": 0.3937007874015748
        },
        {
          "duration": 0.5294115000000019,
          "durationTicks": 288,
          "midi": 67,
          "name": "G4",
          "ticks": 26496,
          "time": 48.705858,
          "velocity": 0.3937007874015748
        },
        {
          "duration": 0.5294115000000019,
          "durationTicks": 288,
          "midi": 70,
          "name": "A#4",
          "ticks": 26496,
          "time": 48.705858,
          "velocity": 0.3937007874015748
        },
        {
          "duration": 0.5294115000000019,
          "durationTicks": 288,
          "midi": 72,
          "name": "C5",
          "ticks": 26496,
          "time": 48.705858,
          "velocity": 0.3937007874015748
        },
        {
          "duration": 0.5294115000000019,
          "durationTicks": 288,
          "midi": 36,
          "name": "C2",
          "ticks": 26784,
          "time": 49.2352695,
          "velocity": 0.3937007874015748
        },
        {
          "duration": 0.5294115000000019,
          "durationTicks": 288,
          "midi": 48,
          "name": "C3",
          "ticks": 26784,
          "time": 49.2352695,
          "velocity": 0.3937007874015748
        },
        {
          "duration": 0.5294115000000019,
          "durationTicks": 288,
          "midi": 60,
          "name": "C4",
          "ticks": 26784,
          "time": 49.2352695,
          "velocity": 0.3937007874015748
        },
        {
          "duration": 0.5294115000000019,
          "durationTicks": 288,
          "midi": 63,
          "name": "D#4",
          "ticks": 26784,
          "time": 49.2352695,
          "velocity": 0.3937007874015748
        },
        {
          "duration": 0.5294115000000019,
          "durationTicks": 288,
          "midi": 67,
          "name": "G4",
          "ticks": 26784,
          "time": 49.2352695,
          "velocity": 0.3937007874015748
        },
        {
          "duration": 0.5294115000000019,
          "durationTicks": 288,
          "midi": 70,
          "name": "A#4",
          "ticks": 26784,
          "time": 49.2352695,
          "velocity": 0.3937007874015748
        },
        {
          "duration": 0.5294115000000019,
          "durationTicks": 288,
          "midi": 72,
          "name": "C5",
          "ticks": 26784,
          "time": 49.2352695,
          "velocity": 0.3937007874015748
        },
        {
          "duration": 0.5294114999999948,
          "durationTicks": 288,
          "midi": 36,
          "name": "C2",
          "ticks": 27072,
          "time": 49.764681,
          "velocity": 0.3937007874015748
        },
        {
          "duration": 0.5294114999999948,
          "durationTicks": 288,
          "midi": 48,
          "name": "C3",
          "ticks": 27072,
          "time": 49.764681,
          "velocity": 0.3937007874015748
        },
        {
          "duration": 0.5294114999999948,
          "durationTicks": 288,
          "midi": 60,
          "name": "C4",
          "ticks": 27072,
          "time": 49.764681,
          "velocity": 0.3937007874015748
        },
        {
          "duration": 0.5294114999999948,
          "durationTicks": 288,
          "midi": 63,
          "name": "D#4",
          "ticks": 27072,
          "time": 49.764681,
          "velocity": 0.3937007874015748
        },
        {
          "duration": 0.5294114999999948,
          "durationTicks": 288,
          "midi": 67,
          "name": "G4",
          "ticks": 27072,
          "time": 49.764681,
          "velocity": 0.3937007874015748
        },
        {
          "duration": 0.5294114999999948,
          "durationTicks": 288,
          "midi": 70,
          "name": "A#4",
          "ticks": 27072,
          "time": 49.764681,
          "velocity": 0.3937007874015748
        },
        {
          "duration": 0.5294114999999948,
          "durationTicks": 288,
          "midi": 72,
          "name": "C5",
          "ticks": 27072,
          "time": 49.764681,
          "velocity": 0.3937007874015748
        },
        {
          "duration": 0.5294115000000019,
          "durationTicks": 288,
          "midi": 36,
          "name": "C2",
          "ticks": 27360,
          "time": 50.2940925,
          "velocity": 0.3937007874015748
        },
        {
          "duration": 0.5294115000000019,
          "durationTicks": 288,
          "midi": 48,
          "name": "C3",
          "ticks": 27360,
          "time": 50.2940925,
          "velocity": 0.3937007874015748
        },
        {
          "duration": 0.5294115000000019,
          "durationTicks": 288,
          "midi": 60,
          "name": "C4",
          "ticks": 27360,
          "time": 50.2940925,
          "velocity": 0.3937007874015748
        },
        {
          "duration": 0.5294115000000019,
          "durationTicks": 288,
          "midi": 63,
          "name": "D#4",
          "ticks": 27360,
          "time": 50.2940925,
          "velocity": 0.3937007874015748
        },
        {
          "duration": 0.5294115000000019,
          "durationTicks": 288,
          "midi": 67,
          "name": "G4",
          "ticks": 27360,
          "time": 50.2940925,
          "velocity": 0.3937007874015748
        },
        {
          "duration": 0.5294115000000019,
          "durationTicks": 288,
          "midi": 70,
          "name": "A#4",
          "ticks": 27360,
          "time": 50.2940925,
          "velocity": 0.3937007874015748
        },
        {
          "duration": 0.5294115000000019,
          "durationTicks": 288,
          "midi": 72,
          "name": "C5",
          "ticks": 27360,
          "time": 50.2940925,
          "velocity": 0.3937007874015748
        },
        {
          "duration": 0.5294115000000019,
          "durationTicks": 288,
          "midi": 29,
          "name": "F1",
          "ticks": 27648,
          "time": 50.823504,
          "velocity": 0.3937007874015748
        },
        {
          "duration": 0.5294115000000019,
          "durationTicks": 288,
          "midi": 41,
          "name": "F2",
          "ticks": 27648,
          "time": 50.823504,
          "velocity": 0.3937007874015748
        },
        {
          "duration": 0.5294115000000019,
          "durationTicks": 288,
          "midi": 53,
          "name": "F3",
          "ticks": 27648,
          "time": 50.823504,
          "velocity": 0.3937007874015748
        },
        {
          "duration": 0.5294115000000019,
          "durationTicks": 288,
          "midi": 56,
          "name": "G#3",
          "ticks": 27648,
          "time": 50.823504,
          "velocity": 0.3937007874015748
        },
        {
          "duration": 0.5294115000000019,
          "durationTicks": 288,
          "midi": 60,
          "name": "C4",
          "ticks": 27648,
          "time": 50.823504,
          "velocity": 0.3937007874015748
        },
        {
          "duration": 0.5294115000000019,
          "durationTicks": 288,
          "midi": 63,
          "name": "D#4",
          "ticks": 27648,
          "time": 50.823504,
          "velocity": 0.3937007874015748
        },
        {
          "duration": 0.5294115000000019,
          "durationTicks": 288,
          "midi": 75,
          "name": "D#5",
          "ticks": 27648,
          "time": 50.823504,
          "velocity": 0.3937007874015748
        },
        {
          "duration": 0.5294115000000019,
          "durationTicks": 288,
          "midi": 29,
          "name": "F1",
          "ticks": 27936,
          "time": 51.3529155,
          "velocity": 0.3937007874015748
        },
        {
          "duration": 0.5294115000000019,
          "durationTicks": 288,
          "midi": 41,
          "name": "F2",
          "ticks": 27936,
          "time": 51.3529155,
          "velocity": 0.3937007874015748
        },
        {
          "duration": 0.5294115000000019,
          "durationTicks": 288,
          "midi": 53,
          "name": "F3",
          "ticks": 27936,
          "time": 51.3529155,
          "velocity": 0.3937007874015748
        },
        {
          "duration": 0.5294115000000019,
          "durationTicks": 288,
          "midi": 56,
          "name": "G#3",
          "ticks": 27936,
          "time": 51.3529155,
          "velocity": 0.3937007874015748
        },
        {
          "duration": 0.5294115000000019,
          "durationTicks": 288,
          "midi": 60,
          "name": "C4",
          "ticks": 27936,
          "time": 51.3529155,
          "velocity": 0.3937007874015748
        },
        {
          "duration": 0.5294115000000019,
          "durationTicks": 288,
          "midi": 63,
          "name": "D#4",
          "ticks": 27936,
          "time": 51.3529155,
          "velocity": 0.3937007874015748
        },
        {
          "duration": 0.5294115000000019,
          "durationTicks": 288,
          "midi": 75,
          "name": "D#5",
          "ticks": 27936,
          "time": 51.3529155,
          "velocity": 0.3937007874015748
        },
        {
          "duration": 0.3529409999999942,
          "durationTicks": 192,
          "midi": 29,
          "name": "F1",
          "ticks": 28224,
          "time": 51.882327000000004,
          "velocity": 0.3937007874015748
        },
        {
          "duration": 0.3529409999999942,
          "durationTicks": 192,
          "midi": 41,
          "name": "F2",
          "ticks": 28224,
          "time": 51.882327000000004,
          "velocity": 0.3937007874015748
        },
        {
          "duration": 0.3529409999999942,
          "durationTicks": 192,
          "midi": 53,
          "name": "F3",
          "ticks": 28224,
          "time": 51.882327000000004,
          "velocity": 0.3937007874015748
        },
        {
          "duration": 0.3529409999999942,
          "durationTicks": 192,
          "midi": 56,
          "name": "G#3",
          "ticks": 28224,
          "time": 51.882327000000004,
          "velocity": 0.3937007874015748
        },
        {
          "duration": 0.3529409999999942,
          "durationTicks": 192,
          "midi": 60,
          "name": "C4",
          "ticks": 28224,
          "time": 51.882327000000004,
          "velocity": 0.3937007874015748
        },
        {
          "duration": 0.3529409999999942,
          "durationTicks": 192,
          "midi": 63,
          "name": "D#4",
          "ticks": 28224,
          "time": 51.882327000000004,
          "velocity": 0.3937007874015748
        },
        {
          "duration": 0.3529409999999942,
          "durationTicks": 192,
          "midi": 75,
          "name": "D#5",
          "ticks": 28224,
          "time": 51.882327000000004,
          "velocity": 0.3937007874015748
        },
        {
          "duration": 0.5294115000000019,
          "durationTicks": 288,
          "midi": 34,
          "name": "A#1",
          "ticks": 28416,
          "time": 52.235268,
          "velocity": 0.3937007874015748
        },
        {
          "duration": 0.5294115000000019,
          "durationTicks": 288,
          "midi": 46,
          "name": "A#2",
          "ticks": 28416,
          "time": 52.235268,
          "velocity": 0.3937007874015748
        },
        {
          "duration": 0.5294115000000019,
          "durationTicks": 288,
          "midi": 58,
          "name": "A#3",
          "ticks": 28416,
          "time": 52.235268,
          "velocity": 0.3937007874015748
        },
        {
          "duration": 0.5294115000000019,
          "durationTicks": 288,
          "midi": 61,
          "name": "C#4",
          "ticks": 28416,
          "time": 52.235268,
          "velocity": 0.3937007874015748
        },
        {
          "duration": 0.5294115000000019,
          "durationTicks": 288,
          "midi": 65,
          "name": "F4",
          "ticks": 28416,
          "time": 52.235268,
          "velocity": 0.3937007874015748
        },
        {
          "duration": 0.5294115000000019,
          "durationTicks": 288,
          "midi": 68,
          "name": "G#4",
          "ticks": 28416,
          "time": 52.235268,
          "velocity": 0.3937007874015748
        },
        {
          "duration": 0.5294115000000019,
          "durationTicks": 288,
          "midi": 70,
          "name": "A#4",
          "ticks": 28416,
          "time": 52.235268,
          "velocity": 0.3937007874015748
        },
        {
          "duration": 0.5294115000000019,
          "durationTicks": 288,
          "midi": 34,
          "name": "A#1",
          "ticks": 28704,
          "time": 52.7646795,
          "velocity": 0.3937007874015748
        },
        {
          "duration": 0.5294115000000019,
          "durationTicks": 288,
          "midi": 46,
          "name": "A#2",
          "ticks": 28704,
          "time": 52.7646795,
          "velocity": 0.3937007874015748
        },
        {
          "duration": 0.5294115000000019,
          "durationTicks": 288,
          "midi": 58,
          "name": "A#3",
          "ticks": 28704,
          "time": 52.7646795,
          "velocity": 0.3937007874015748
        },
        {
          "duration": 0.5294115000000019,
          "durationTicks": 288,
          "midi": 61,
          "name": "C#4",
          "ticks": 28704,
          "time": 52.7646795,
          "velocity": 0.3937007874015748
        },
        {
          "duration": 0.5294115000000019,
          "durationTicks": 288,
          "midi": 65,
          "name": "F4",
          "ticks": 28704,
          "time": 52.7646795,
          "velocity": 0.3937007874015748
        },
        {
          "duration": 0.5294115000000019,
          "durationTicks": 288,
          "midi": 68,
          "name": "G#4",
          "ticks": 28704,
          "time": 52.7646795,
          "velocity": 0.3937007874015748
        },
        {
          "duration": 0.5294115000000019,
          "durationTicks": 288,
          "midi": 70,
          "name": "A#4",
          "ticks": 28704,
          "time": 52.7646795,
          "velocity": 0.3937007874015748
        },
        {
          "duration": 0.5294115000000019,
          "durationTicks": 288,
          "midi": 32,
          "name": "G#1",
          "ticks": 28992,
          "time": 53.294091,
          "velocity": 0.3937007874015748
        },
        {
          "duration": 0.5294115000000019,
          "durationTicks": 288,
          "midi": 44,
          "name": "G#2",
          "ticks": 28992,
          "time": 53.294091,
          "velocity": 0.3937007874015748
        },
        {
          "duration": 0.5294115000000019,
          "durationTicks": 288,
          "midi": 56,
          "name": "G#3",
          "ticks": 28992,
          "time": 53.294091,
          "velocity": 0.3937007874015748
        },
        {
          "duration": 0.5294115000000019,
          "durationTicks": 288,
          "midi": 60,
          "name": "C4",
          "ticks": 28992,
          "time": 53.294091,
          "velocity": 0.3937007874015748
        },
        {
          "duration": 0.5294115000000019,
          "durationTicks": 288,
          "midi": 63,
          "name": "D#4",
          "ticks": 28992,
          "time": 53.294091,
          "velocity": 0.3937007874015748
        },
        {
          "duration": 0.5294115000000019,
          "durationTicks": 288,
          "midi": 67,
          "name": "G4",
          "ticks": 28992,
          "time": 53.294091,
          "velocity": 0.3937007874015748
        },
        {
          "duration": 0.5294115000000019,
          "durationTicks": 288,
          "midi": 68,
          "name": "G#4",
          "ticks": 28992,
          "time": 53.294091,
          "velocity": 0.3937007874015748
        },
        {
          "duration": 0.5294114999999948,
          "durationTicks": 288,
          "midi": 32,
          "name": "G#1",
          "ticks": 29280,
          "time": 53.823502500000004,
          "velocity": 0.3937007874015748
        },
        {
          "duration": 0.5294114999999948,
          "durationTicks": 288,
          "midi": 44,
          "name": "G#2",
          "ticks": 29280,
          "time": 53.823502500000004,
          "velocity": 0.3937007874015748
        },
        {
          "duration": 0.5294114999999948,
          "durationTicks": 288,
          "midi": 56,
          "name": "G#3",
          "ticks": 29280,
          "time": 53.823502500000004,
          "velocity": 0.3937007874015748
        },
        {
          "duration": 0.5294114999999948,
          "durationTicks": 288,
          "midi": 60,
          "name": "C4",
          "ticks": 29280,
          "time": 53.823502500000004,
          "velocity": 0.3937007874015748
        },
        {
          "duration": 0.5294114999999948,
          "durationTicks": 288,
          "midi": 63,
          "name": "D#4",
          "ticks": 29280,
          "time": 53.823502500000004,
          "velocity": 0.3937007874015748
        },
        {
          "duration": 0.5294114999999948,
          "durationTicks": 288,
          "midi": 67,
          "name": "G4",
          "ticks": 29280,
          "time": 53.823502500000004,
          "velocity": 0.3937007874015748
        },
        {
          "duration": 0.5294114999999948,
          "durationTicks": 288,
          "midi": 68,
          "name": "G#4",
          "ticks": 29280,
          "time": 53.823502500000004,
          "velocity": 0.3937007874015748
        },
        {
          "duration": 0.5294115000000019,
          "durationTicks": 288,
          "midi": 32,
          "name": "G#1",
          "ticks": 29568,
          "time": 54.352914,
          "velocity": 0.3937007874015748
        },
        {
          "duration": 0.5294115000000019,
          "durationTicks": 288,
          "midi": 44,
          "name": "G#2",
          "ticks": 29568,
          "time": 54.352914,
          "velocity": 0.3937007874015748
        },
        {
          "duration": 0.5294115000000019,
          "durationTicks": 288,
          "midi": 56,
          "name": "G#3",
          "ticks": 29568,
          "time": 54.352914,
          "velocity": 0.3937007874015748
        },
        {
          "duration": 0.5294115000000019,
          "durationTicks": 288,
          "midi": 60,
          "name": "C4",
          "ticks": 29568,
          "time": 54.352914,
          "velocity": 0.3937007874015748
        },
        {
          "duration": 0.5294115000000019,
          "durationTicks": 288,
          "midi": 63,
          "name": "D#4",
          "ticks": 29568,
          "time": 54.352914,
          "velocity": 0.3937007874015748
        },
        {
          "duration": 0.5294115000000019,
          "durationTicks": 288,
          "midi": 67,
          "name": "G4",
          "ticks": 29568,
          "time": 54.352914,
          "velocity": 0.3937007874015748
        },
        {
          "duration": 0.5294115000000019,
          "durationTicks": 288,
          "midi": 68,
          "name": "G#4",
          "ticks": 29568,
          "time": 54.352914,
          "velocity": 0.3937007874015748
        },
        {
          "duration": 0.5294115000000019,
          "durationTicks": 288,
          "midi": 32,
          "name": "G#1",
          "ticks": 29856,
          "time": 54.8823255,
          "velocity": 0.3937007874015748
        },
        {
          "duration": 0.5294115000000019,
          "durationTicks": 288,
          "midi": 44,
          "name": "G#2",
          "ticks": 29856,
          "time": 54.8823255,
          "velocity": 0.3937007874015748
        },
        {
          "duration": 0.5294115000000019,
          "durationTicks": 288,
          "midi": 56,
          "name": "G#3",
          "ticks": 29856,
          "time": 54.8823255,
          "velocity": 0.3937007874015748
        },
        {
          "duration": 0.5294115000000019,
          "durationTicks": 288,
          "midi": 60,
          "name": "C4",
          "ticks": 29856,
          "time": 54.8823255,
          "velocity": 0.3937007874015748
        },
        {
          "duration": 0.5294115000000019,
          "durationTicks": 288,
          "midi": 63,
          "name": "D#4",
          "ticks": 29856,
          "time": 54.8823255,
          "velocity": 0.3937007874015748
        },
        {
          "duration": 0.5294115000000019,
          "durationTicks": 288,
          "midi": 67,
          "name": "G4",
          "ticks": 29856,
          "time": 54.8823255,
          "velocity": 0.3937007874015748
        },
        {
          "duration": 0.5294115000000019,
          "durationTicks": 288,
          "midi": 68,
          "name": "G#4",
          "ticks": 29856,
          "time": 54.8823255,
          "velocity": 0.3937007874015748
        },
        {
          "duration": 0.5294115000000019,
          "durationTicks": 288,
          "midi": 32,
          "name": "G#1",
          "ticks": 30144,
          "time": 55.411737,
          "velocity": 0.3937007874015748
        },
        {
          "duration": 0.5294115000000019,
          "durationTicks": 288,
          "midi": 44,
          "name": "G#2",
          "ticks": 30144,
          "time": 55.411737,
          "velocity": 0.3937007874015748
        },
        {
          "duration": 0.5294115000000019,
          "durationTicks": 288,
          "midi": 56,
          "name": "G#3",
          "ticks": 30144,
          "time": 55.411737,
          "velocity": 0.3937007874015748
        },
        {
          "duration": 0.5294115000000019,
          "durationTicks": 288,
          "midi": 60,
          "name": "C4",
          "ticks": 30144,
          "time": 55.411737,
          "velocity": 0.3937007874015748
        },
        {
          "duration": 0.5294115000000019,
          "durationTicks": 288,
          "midi": 63,
          "name": "D#4",
          "ticks": 30144,
          "time": 55.411737,
          "velocity": 0.3937007874015748
        },
        {
          "duration": 0.5294115000000019,
          "durationTicks": 288,
          "midi": 67,
          "name": "G4",
          "ticks": 30144,
          "time": 55.411737,
          "velocity": 0.3937007874015748
        },
        {
          "duration": 0.5294115000000019,
          "durationTicks": 288,
          "midi": 68,
          "name": "G#4",
          "ticks": 30144,
          "time": 55.411737,
          "velocity": 0.3937007874015748
        },
        {
          "duration": 0.5294114999999948,
          "durationTicks": 288,
          "midi": 32,
          "name": "G#1",
          "ticks": 30432,
          "time": 55.941148500000004,
          "velocity": 0.3937007874015748
        },
        {
          "duration": 0.5294114999999948,
          "durationTicks": 288,
          "midi": 44,
          "name": "G#2",
          "ticks": 30432,
          "time": 55.941148500000004,
          "velocity": 0.3937007874015748
        },
        {
          "duration": 0.5294114999999948,
          "durationTicks": 288,
          "midi": 56,
          "name": "G#3",
          "ticks": 30432,
          "time": 55.941148500000004,
          "velocity": 0.3937007874015748
        },
        {
          "duration": 0.5294114999999948,
          "durationTicks": 288,
          "midi": 60,
          "name": "C4",
          "ticks": 30432,
          "time": 55.941148500000004,
          "velocity": 0.3937007874015748
        },
        {
          "duration": 0.5294114999999948,
          "durationTicks": 288,
          "midi": 63,
          "name": "D#4",
          "ticks": 30432,
          "time": 55.941148500000004,
          "velocity": 0.3937007874015748
        },
        {
          "duration": 0.5294114999999948,
          "durationTicks": 288,
          "midi": 67,
          "name": "G4",
          "ticks": 30432,
          "time": 55.941148500000004,
          "velocity": 0.3937007874015748
        },
        {
          "duration": 0.5294114999999948,
          "durationTicks": 288,
          "midi": 68,
          "name": "G#4",
          "ticks": 30432,
          "time": 55.941148500000004,
          "velocity": 0.3937007874015748
        },
        {
          "duration": 0.5294115000000019,
          "durationTicks": 288,
          "midi": 29,
          "name": "F1",
          "ticks": 30720,
          "time": 56.47056,
          "velocity": 0.3937007874015748
        },
        {
          "duration": 0.5294115000000019,
          "durationTicks": 288,
          "midi": 41,
          "name": "F2",
          "ticks": 30720,
          "time": 56.47056,
          "velocity": 0.3937007874015748
        },
        {
          "duration": 0.5294115000000019,
          "durationTicks": 288,
          "midi": 53,
          "name": "F3",
          "ticks": 30720,
          "time": 56.47056,
          "velocity": 0.3937007874015748
        },
        {
          "duration": 0.5294115000000019,
          "durationTicks": 288,
          "midi": 56,
          "name": "G#3",
          "ticks": 30720,
          "time": 56.47056,
          "velocity": 0.3937007874015748
        },
        {
          "duration": 0.5294115000000019,
          "durationTicks": 288,
          "midi": 60,
          "name": "C4",
          "ticks": 30720,
          "time": 56.47056,
          "velocity": 0.3937007874015748
        },
        {
          "duration": 0.5294115000000019,
          "durationTicks": 288,
          "midi": 63,
          "name": "D#4",
          "ticks": 30720,
          "time": 56.47056,
          "velocity": 0.3937007874015748
        },
        {
          "duration": 0.5294115000000019,
          "durationTicks": 288,
          "midi": 72,
          "name": "C5",
          "ticks": 30720,
          "time": 56.47056,
          "velocity": 0.3937007874015748
        },
        {
          "duration": 0.5294115000000019,
          "durationTicks": 288,
          "midi": 29,
          "name": "F1",
          "ticks": 31008,
          "time": 56.9999715,
          "velocity": 0.3937007874015748
        },
        {
          "duration": 0.5294115000000019,
          "durationTicks": 288,
          "midi": 41,
          "name": "F2",
          "ticks": 31008,
          "time": 56.9999715,
          "velocity": 0.3937007874015748
        },
        {
          "duration": 0.5294115000000019,
          "durationTicks": 288,
          "midi": 53,
          "name": "F3",
          "ticks": 31008,
          "time": 56.9999715,
          "velocity": 0.3937007874015748
        },
        {
          "duration": 0.5294115000000019,
          "durationTicks": 288,
          "midi": 56,
          "name": "G#3",
          "ticks": 31008,
          "time": 56.9999715,
          "velocity": 0.3937007874015748
        },
        {
          "duration": 0.5294115000000019,
          "durationTicks": 288,
          "midi": 60,
          "name": "C4",
          "ticks": 31008,
          "time": 56.9999715,
          "velocity": 0.3937007874015748
        },
        {
          "duration": 0.5294115000000019,
          "durationTicks": 288,
          "midi": 63,
          "name": "D#4",
          "ticks": 31008,
          "time": 56.9999715,
          "velocity": 0.3937007874015748
        },
        {
          "duration": 0.5294115000000019,
          "durationTicks": 288,
          "midi": 72,
          "name": "C5",
          "ticks": 31008,
          "time": 56.9999715,
          "velocity": 0.3937007874015748
        },
        {
          "duration": 0.3529410000000013,
          "durationTicks": 192,
          "midi": 29,
          "name": "F1",
          "ticks": 31296,
          "time": 57.529383,
          "velocity": 0.3937007874015748
        },
        {
          "duration": 0.3529410000000013,
          "durationTicks": 192,
          "midi": 41,
          "name": "F2",
          "ticks": 31296,
          "time": 57.529383,
          "velocity": 0.3937007874015748
        },
        {
          "duration": 0.3529410000000013,
          "durationTicks": 192,
          "midi": 53,
          "name": "F3",
          "ticks": 31296,
          "time": 57.529383,
          "velocity": 0.3937007874015748
        },
        {
          "duration": 0.3529410000000013,
          "durationTicks": 192,
          "midi": 56,
          "name": "G#3",
          "ticks": 31296,
          "time": 57.529383,
          "velocity": 0.3937007874015748
        },
        {
          "duration": 0.3529410000000013,
          "durationTicks": 192,
          "midi": 60,
          "name": "C4",
          "ticks": 31296,
          "time": 57.529383,
          "velocity": 0.3937007874015748
        },
        {
          "duration": 0.3529410000000013,
          "durationTicks": 192,
          "midi": 63,
          "name": "D#4",
          "ticks": 31296,
          "time": 57.529383,
          "velocity": 0.3937007874015748
        },
        {
          "duration": 0.3529410000000013,
          "durationTicks": 192,
          "midi": 72,
          "name": "C5",
          "ticks": 31296,
          "time": 57.529383,
          "velocity": 0.3937007874015748
        },
        {
          "duration": 0.5294114999999948,
          "durationTicks": 288,
          "midi": 32,
          "name": "G#1",
          "ticks": 31488,
          "time": 57.882324000000004,
          "velocity": 0.3937007874015748
        },
        {
          "duration": 0.5294114999999948,
          "durationTicks": 288,
          "midi": 44,
          "name": "G#2",
          "ticks": 31488,
          "time": 57.882324000000004,
          "velocity": 0.3937007874015748
        },
        {
          "duration": 0.5294114999999948,
          "durationTicks": 288,
          "midi": 56,
          "name": "G#3",
          "ticks": 31488,
          "time": 57.882324000000004,
          "velocity": 0.3937007874015748
        },
        {
          "duration": 0.5294114999999948,
          "durationTicks": 288,
          "midi": 60,
          "name": "C4",
          "ticks": 31488,
          "time": 57.882324000000004,
          "velocity": 0.3937007874015748
        },
        {
          "duration": 0.5294114999999948,
          "durationTicks": 288,
          "midi": 63,
          "name": "D#4",
          "ticks": 31488,
          "time": 57.882324000000004,
          "velocity": 0.3937007874015748
        },
        {
          "duration": 0.5294114999999948,
          "durationTicks": 288,
          "midi": 67,
          "name": "G4",
          "ticks": 31488,
          "time": 57.882324000000004,
          "velocity": 0.3937007874015748
        },
        {
          "duration": 0.5294114999999948,
          "durationTicks": 288,
          "midi": 68,
          "name": "G#4",
          "ticks": 31488,
          "time": 57.882324000000004,
          "velocity": 0.3937007874015748
        },
        {
          "duration": 0.5294115000000019,
          "durationTicks": 288,
          "midi": 32,
          "name": "G#1",
          "ticks": 31776,
          "time": 58.4117355,
          "velocity": 0.3937007874015748
        },
        {
          "duration": 0.5294115000000019,
          "durationTicks": 288,
          "midi": 44,
          "name": "G#2",
          "ticks": 31776,
          "time": 58.4117355,
          "velocity": 0.3937007874015748
        },
        {
          "duration": 0.5294115000000019,
          "durationTicks": 288,
          "midi": 56,
          "name": "G#3",
          "ticks": 31776,
          "time": 58.4117355,
          "velocity": 0.3937007874015748
        },
        {
          "duration": 0.5294115000000019,
          "durationTicks": 288,
          "midi": 60,
          "name": "C4",
          "ticks": 31776,
          "time": 58.4117355,
          "velocity": 0.3937007874015748
        },
        {
          "duration": 0.5294115000000019,
          "durationTicks": 288,
          "midi": 63,
          "name": "D#4",
          "ticks": 31776,
          "time": 58.4117355,
          "velocity": 0.3937007874015748
        },
        {
          "duration": 0.5294115000000019,
          "durationTicks": 288,
          "midi": 67,
          "name": "G4",
          "ticks": 31776,
          "time": 58.4117355,
          "velocity": 0.3937007874015748
        },
        {
          "duration": 0.5294115000000019,
          "durationTicks": 288,
          "midi": 68,
          "name": "G#4",
          "ticks": 31776,
          "time": 58.4117355,
          "velocity": 0.3937007874015748
        },
        {
          "duration": 0.5294115000000019,
          "durationTicks": 288,
          "midi": 36,
          "name": "C2",
          "ticks": 32064,
          "time": 58.941147,
          "velocity": 0.3937007874015748
        },
        {
          "duration": 0.5294115000000019,
          "durationTicks": 288,
          "midi": 48,
          "name": "C3",
          "ticks": 32064,
          "time": 58.941147,
          "velocity": 0.3937007874015748
        },
        {
          "duration": 0.5294115000000019,
          "durationTicks": 288,
          "midi": 60,
          "name": "C4",
          "ticks": 32064,
          "time": 58.941147,
          "velocity": 0.3937007874015748
        },
        {
          "duration": 0.5294115000000019,
          "durationTicks": 288,
          "midi": 63,
          "name": "D#4",
          "ticks": 32064,
          "time": 58.941147,
          "velocity": 0.3937007874015748
        },
        {
          "duration": 0.5294115000000019,
          "durationTicks": 288,
          "midi": 65,
          "name": "F4",
          "ticks": 32064,
          "time": 58.941147,
          "velocity": 0.3937007874015748
        },
        {
          "duration": 0.5294115000000019,
          "durationTicks": 288,
          "midi": 67,
          "name": "G4",
          "ticks": 32064,
          "time": 58.941147,
          "velocity": 0.3937007874015748
        },
        {
          "duration": 0.5294115000000019,
          "durationTicks": 288,
          "midi": 70,
          "name": "A#4",
          "ticks": 32064,
          "time": 58.941147,
          "velocity": 0.3937007874015748
        },
        {
          "duration": 0.5294114999999948,
          "durationTicks": 288,
          "midi": 36,
          "name": "C2",
          "ticks": 32352,
          "time": 59.4705585,
          "velocity": 0.3937007874015748
        },
        {
          "duration": 0.5294114999999948,
          "durationTicks": 288,
          "midi": 48,
          "name": "C3",
          "ticks": 32352,
          "time": 59.4705585,
          "velocity": 0.3937007874015748
        },
        {
          "duration": 0.5294114999999948,
          "durationTicks": 288,
          "midi": 60,
          "name": "C4",
          "ticks": 32352,
          "time": 59.4705585,
          "velocity": 0.3937007874015748
        },
        {
          "duration": 0.5294114999999948,
          "durationTicks": 288,
          "midi": 63,
          "name": "D#4",
          "ticks": 32352,
          "time": 59.4705585,
          "velocity": 0.3937007874015748
        },
        {
          "duration": 0.5294114999999948,
          "durationTicks": 288,
          "midi": 65,
          "name": "F4",
          "ticks": 32352,
          "time": 59.4705585,
          "velocity": 0.3937007874015748
        },
        {
          "duration": 0.5294114999999948,
          "durationTicks": 288,
          "midi": 67,
          "name": "G4",
          "ticks": 32352,
          "time": 59.4705585,
          "velocity": 0.3937007874015748
        },
        {
          "duration": 0.5294114999999948,
          "durationTicks": 288,
          "midi": 70,
          "name": "A#4",
          "ticks": 32352,
          "time": 59.4705585,
          "velocity": 0.3937007874015748
        },
        {
          "duration": 0.5294115000000019,
          "durationTicks": 288,
          "midi": 36,
          "name": "C2",
          "ticks": 32640,
          "time": 59.99997,
          "velocity": 0.3937007874015748
        },
        {
          "duration": 0.5294115000000019,
          "durationTicks": 288,
          "midi": 48,
          "name": "C3",
          "ticks": 32640,
          "time": 59.99997,
          "velocity": 0.3937007874015748
        },
        {
          "duration": 0.5294115000000019,
          "durationTicks": 288,
          "midi": 60,
          "name": "C4",
          "ticks": 32640,
          "time": 59.99997,
          "velocity": 0.3937007874015748
        },
        {
          "duration": 0.5294115000000019,
          "durationTicks": 288,
          "midi": 63,
          "name": "D#4",
          "ticks": 32640,
          "time": 59.99997,
          "velocity": 0.3937007874015748
        },
        {
          "duration": 0.5294115000000019,
          "durationTicks": 288,
          "midi": 65,
          "name": "F4",
          "ticks": 32640,
          "time": 59.99997,
          "velocity": 0.3937007874015748
        },
        {
          "duration": 0.5294115000000019,
          "durationTicks": 288,
          "midi": 67,
          "name": "G4",
          "ticks": 32640,
          "time": 59.99997,
          "velocity": 0.3937007874015748
        },
        {
          "duration": 0.5294115000000019,
          "durationTicks": 288,
          "midi": 70,
          "name": "A#4",
          "ticks": 32640,
          "time": 59.99997,
          "velocity": 0.3937007874015748
        },
        {
          "duration": 0.5294115000000019,
          "durationTicks": 288,
          "midi": 36,
          "name": "C2",
          "ticks": 32928,
          "time": 60.5293815,
          "velocity": 0.3937007874015748
        },
        {
          "duration": 0.5294115000000019,
          "durationTicks": 288,
          "midi": 48,
          "name": "C3",
          "ticks": 32928,
          "time": 60.5293815,
          "velocity": 0.3937007874015748
        },
        {
          "duration": 0.5294115000000019,
          "durationTicks": 288,
          "midi": 60,
          "name": "C4",
          "ticks": 32928,
          "time": 60.5293815,
          "velocity": 0.3937007874015748
        },
        {
          "duration": 0.5294115000000019,
          "durationTicks": 288,
          "midi": 63,
          "name": "D#4",
          "ticks": 32928,
          "time": 60.5293815,
          "velocity": 0.3937007874015748
        },
        {
          "duration": 0.5294115000000019,
          "durationTicks": 288,
          "midi": 65,
          "name": "F4",
          "ticks": 32928,
          "time": 60.5293815,
          "velocity": 0.3937007874015748
        },
        {
          "duration": 0.5294115000000019,
          "durationTicks": 288,
          "midi": 67,
          "name": "G4",
          "ticks": 32928,
          "time": 60.5293815,
          "velocity": 0.3937007874015748
        },
        {
          "duration": 0.5294115000000019,
          "durationTicks": 288,
          "midi": 70,
          "name": "A#4",
          "ticks": 32928,
          "time": 60.5293815,
          "velocity": 0.3937007874015748
        },
        {
          "duration": 0.5294115000000019,
          "durationTicks": 288,
          "midi": 36,
          "name": "C2",
          "ticks": 33216,
          "time": 61.058793,
          "velocity": 0.3937007874015748
        },
        {
          "duration": 0.5294115000000019,
          "durationTicks": 288,
          "midi": 48,
          "name": "C3",
          "ticks": 33216,
          "time": 61.058793,
          "velocity": 0.3937007874015748
        },
        {
          "duration": 0.5294115000000019,
          "durationTicks": 288,
          "midi": 60,
          "name": "C4",
          "ticks": 33216,
          "time": 61.058793,
          "velocity": 0.3937007874015748
        },
        {
          "duration": 0.5294115000000019,
          "durationTicks": 288,
          "midi": 63,
          "name": "D#4",
          "ticks": 33216,
          "time": 61.058793,
          "velocity": 0.3937007874015748
        },
        {
          "duration": 0.5294115000000019,
          "durationTicks": 288,
          "midi": 65,
          "name": "F4",
          "ticks": 33216,
          "time": 61.058793,
          "velocity": 0.3937007874015748
        },
        {
          "duration": 0.5294115000000019,
          "durationTicks": 288,
          "midi": 67,
          "name": "G4",
          "ticks": 33216,
          "time": 61.058793,
          "velocity": 0.3937007874015748
        },
        {
          "duration": 0.5294115000000019,
          "durationTicks": 288,
          "midi": 70,
          "name": "A#4",
          "ticks": 33216,
          "time": 61.058793,
          "velocity": 0.3937007874015748
        },
        {
          "duration": 0.5294114999999948,
          "durationTicks": 288,
          "midi": 36,
          "name": "C2",
          "ticks": 33504,
          "time": 61.5882045,
          "velocity": 0.3937007874015748
        },
        {
          "duration": 0.5294114999999948,
          "durationTicks": 288,
          "midi": 48,
          "name": "C3",
          "ticks": 33504,
          "time": 61.5882045,
          "velocity": 0.3937007874015748
        },
        {
          "duration": 0.5294114999999948,
          "durationTicks": 288,
          "midi": 60,
          "name": "C4",
          "ticks": 33504,
          "time": 61.5882045,
          "velocity": 0.3937007874015748
        },
        {
          "duration": 0.5294114999999948,
          "durationTicks": 288,
          "midi": 63,
          "name": "D#4",
          "ticks": 33504,
          "time": 61.5882045,
          "velocity": 0.3937007874015748
        },
        {
          "duration": 0.5294114999999948,
          "durationTicks": 288,
          "midi": 65,
          "name": "F4",
          "ticks": 33504,
          "time": 61.5882045,
          "velocity": 0.3937007874015748
        },
        {
          "duration": 0.5294114999999948,
          "durationTicks": 288,
          "midi": 67,
          "name": "G4",
          "ticks": 33504,
          "time": 61.5882045,
          "velocity": 0.3937007874015748
        },
        {
          "duration": 0.5294114999999948,
          "durationTicks": 288,
          "midi": 70,
          "name": "A#4",
          "ticks": 33504,
          "time": 61.5882045,
          "velocity": 0.3937007874015748
        },
        {
          "duration": 0.5294115000000019,
          "durationTicks": 288,
          "midi": 29,
          "name": "F1",
          "ticks": 33792,
          "time": 62.117616,
          "velocity": 0.3937007874015748
        },
        {
          "duration": 0.5294115000000019,
          "durationTicks": 288,
          "midi": 41,
          "name": "F2",
          "ticks": 33792,
          "time": 62.117616,
          "velocity": 0.3937007874015748
        },
        {
          "duration": 0.5294115000000019,
          "durationTicks": 288,
          "midi": 53,
          "name": "F3",
          "ticks": 33792,
          "time": 62.117616,
          "velocity": 0.3937007874015748
        },
        {
          "duration": 0.5294115000000019,
          "durationTicks": 288,
          "midi": 56,
          "name": "G#3",
          "ticks": 33792,
          "time": 62.117616,
          "velocity": 0.3937007874015748
        },
        {
          "duration": 0.5294115000000019,
          "durationTicks": 288,
          "midi": 60,
          "name": "C4",
          "ticks": 33792,
          "time": 62.117616,
          "velocity": 0.3937007874015748
        },
        {
          "duration": 0.5294115000000019,
          "durationTicks": 288,
          "midi": 63,
          "name": "D#4",
          "ticks": 33792,
          "time": 62.117616,
          "velocity": 0.3937007874015748
        },
        {
          "duration": 0.5294115000000019,
          "durationTicks": 288,
          "midi": 68,
          "name": "G#4",
          "ticks": 33792,
          "time": 62.117616,
          "velocity": 0.3937007874015748
        },
        {
          "duration": 0.5294115000000019,
          "durationTicks": 288,
          "midi": 29,
          "name": "F1",
          "ticks": 34080,
          "time": 62.6470275,
          "velocity": 0.3937007874015748
        },
        {
          "duration": 0.5294115000000019,
          "durationTicks": 288,
          "midi": 41,
          "name": "F2",
          "ticks": 34080,
          "time": 62.6470275,
          "velocity": 0.3937007874015748
        },
        {
          "duration": 0.5294115000000019,
          "durationTicks": 288,
          "midi": 53,
          "name": "F3",
          "ticks": 34080,
          "time": 62.6470275,
          "velocity": 0.3937007874015748
        },
        {
          "duration": 0.5294115000000019,
          "durationTicks": 288,
          "midi": 56,
          "name": "G#3",
          "ticks": 34080,
          "time": 62.6470275,
          "velocity": 0.3937007874015748
        },
        {
          "duration": 0.5294115000000019,
          "durationTicks": 288,
          "midi": 60,
          "name": "C4",
          "ticks": 34080,
          "time": 62.6470275,
          "velocity": 0.3937007874015748
        },
        {
          "duration": 0.5294115000000019,
          "durationTicks": 288,
          "midi": 63,
          "name": "D#4",
          "ticks": 34080,
          "time": 62.6470275,
          "velocity": 0.3937007874015748
        },
        {
          "duration": 0.5294115000000019,
          "durationTicks": 288,
          "midi": 68,
          "name": "G#4",
          "ticks": 34080,
          "time": 62.6470275,
          "velocity": 0.3937007874015748
        },
        {
          "duration": 0.3529410000000013,
          "durationTicks": 192,
          "midi": 29,
          "name": "F1",
          "ticks": 34368,
          "time": 63.176439,
          "velocity": 0.3937007874015748
        },
        {
          "duration": 0.3529410000000013,
          "durationTicks": 192,
          "midi": 41,
          "name": "F2",
          "ticks": 34368,
          "time": 63.176439,
          "velocity": 0.3937007874015748
        },
        {
          "duration": 0.3529410000000013,
          "durationTicks": 192,
          "midi": 53,
          "name": "F3",
          "ticks": 34368,
          "time": 63.176439,
          "velocity": 0.3937007874015748
        },
        {
          "duration": 0.3529410000000013,
          "durationTicks": 192,
          "midi": 56,
          "name": "G#3",
          "ticks": 34368,
          "time": 63.176439,
          "velocity": 0.3937007874015748
        },
        {
          "duration": 0.3529410000000013,
          "durationTicks": 192,
          "midi": 60,
          "name": "C4",
          "ticks": 34368,
          "time": 63.176439,
          "velocity": 0.3937007874015748
        },
        {
          "duration": 0.3529410000000013,
          "durationTicks": 192,
          "midi": 63,
          "name": "D#4",
          "ticks": 34368,
          "time": 63.176439,
          "velocity": 0.3937007874015748
        },
        {
          "duration": 0.3529410000000013,
          "durationTicks": 192,
          "midi": 68,
          "name": "G#4",
          "ticks": 34368,
          "time": 63.176439,
          "velocity": 0.3937007874015748
        },
        {
          "duration": 0.5294114999999948,
          "durationTicks": 288,
          "midi": 34,
          "name": "A#1",
          "ticks": 34560,
          "time": 63.52938,
          "velocity": 0.3937007874015748
        },
        {
          "duration": 0.5294114999999948,
          "durationTicks": 288,
          "midi": 46,
          "name": "A#2",
          "ticks": 34560,
          "time": 63.52938,
          "velocity": 0.3937007874015748
        },
        {
          "duration": 0.5294114999999948,
          "durationTicks": 288,
          "midi": 58,
          "name": "A#3",
          "ticks": 34560,
          "time": 63.52938,
          "velocity": 0.3937007874015748
        },
        {
          "duration": 0.5294114999999948,
          "durationTicks": 288,
          "midi": 61,
          "name": "C#4",
          "ticks": 34560,
          "time": 63.52938,
          "velocity": 0.3937007874015748
        },
        {
          "duration": 0.5294114999999948,
          "durationTicks": 288,
          "midi": 65,
          "name": "F4",
          "ticks": 34560,
          "time": 63.52938,
          "velocity": 0.3937007874015748
        },
        {
          "duration": 0.5294114999999948,
          "durationTicks": 288,
          "midi": 67,
          "name": "G4",
          "ticks": 34560,
          "time": 63.52938,
          "velocity": 0.3937007874015748
        },
        {
          "duration": 0.5294114999999948,
          "durationTicks": 288,
          "midi": 68,
          "name": "G#4",
          "ticks": 34560,
          "time": 63.52938,
          "velocity": 0.3937007874015748
        },
        {
          "duration": 0.529411500000009,
          "durationTicks": 288,
          "midi": 34,
          "name": "A#1",
          "ticks": 34848,
          "time": 64.0587915,
          "velocity": 0.3937007874015748
        },
        {
          "duration": 0.529411500000009,
          "durationTicks": 288,
          "midi": 46,
          "name": "A#2",
          "ticks": 34848,
          "time": 64.0587915,
          "velocity": 0.3937007874015748
        },
        {
          "duration": 0.529411500000009,
          "durationTicks": 288,
          "midi": 58,
          "name": "A#3",
          "ticks": 34848,
          "time": 64.0587915,
          "velocity": 0.3937007874015748
        },
        {
          "duration": 0.529411500000009,
          "durationTicks": 288,
          "midi": 61,
          "name": "C#4",
          "ticks": 34848,
          "time": 64.0587915,
          "velocity": 0.3937007874015748
        },
        {
          "duration": 0.529411500000009,
          "durationTicks": 288,
          "midi": 65,
          "name": "F4",
          "ticks": 34848,
          "time": 64.0587915,
          "velocity": 0.3937007874015748
        },
        {
          "duration": 0.529411500000009,
          "durationTicks": 288,
          "midi": 67,
          "name": "G4",
          "ticks": 34848,
          "time": 64.0587915,
          "velocity": 0.3937007874015748
        },
        {
          "duration": 0.529411500000009,
          "durationTicks": 288,
          "midi": 68,
          "name": "G#4",
          "ticks": 34848,
          "time": 64.0587915,
          "velocity": 0.3937007874015748
        },
        {
          "duration": 0.5294114999999948,
          "durationTicks": 288,
          "midi": 32,
          "name": "G#1",
          "ticks": 35136,
          "time": 64.58820300000001,
          "velocity": 0.3937007874015748
        },
        {
          "duration": 0.5294114999999948,
          "durationTicks": 288,
          "midi": 44,
          "name": "G#2",
          "ticks": 35136,
          "time": 64.58820300000001,
          "velocity": 0.3937007874015748
        },
        {
          "duration": 0.5294114999999948,
          "durationTicks": 288,
          "midi": 56,
          "name": "G#3",
          "ticks": 35136,
          "time": 64.58820300000001,
          "velocity": 0.3937007874015748
        },
        {
          "duration": 0.5294114999999948,
          "durationTicks": 288,
          "midi": 60,
          "name": "C4",
          "ticks": 35136,
          "time": 64.58820300000001,
          "velocity": 0.3937007874015748
        },
        {
          "duration": 0.5294114999999948,
          "durationTicks": 288,
          "midi": 63,
          "name": "D#4",
          "ticks": 35136,
          "time": 64.58820300000001,
          "velocity": 0.3937007874015748
        },
        {
          "duration": 0.5294114999999948,
          "durationTicks": 288,
          "midi": 65,
          "name": "F4",
          "ticks": 35136,
          "time": 64.58820300000001,
          "velocity": 0.3937007874015748
        },
        {
          "duration": 0.5294114999999948,
          "durationTicks": 288,
          "midi": 67,
          "name": "G4",
          "ticks": 35136,
          "time": 64.58820300000001,
          "velocity": 0.3937007874015748
        },
        {
          "duration": 0.5294114999999948,
          "durationTicks": 288,
          "midi": 32,
          "name": "G#1",
          "ticks": 35424,
          "time": 65.1176145,
          "velocity": 0.3937007874015748
        },
        {
          "duration": 0.5294114999999948,
          "durationTicks": 288,
          "midi": 44,
          "name": "G#2",
          "ticks": 35424,
          "time": 65.1176145,
          "velocity": 0.3937007874015748
        },
        {
          "duration": 0.5294114999999948,
          "durationTicks": 288,
          "midi": 56,
          "name": "G#3",
          "ticks": 35424,
          "time": 65.1176145,
          "velocity": 0.3937007874015748
        },
        {
          "duration": 0.5294114999999948,
          "durationTicks": 288,
          "midi": 60,
          "name": "C4",
          "ticks": 35424,
          "time": 65.1176145,
          "velocity": 0.3937007874015748
        },
        {
          "duration": 0.5294114999999948,
          "durationTicks": 288,
          "midi": 63,
          "name": "D#4",
          "ticks": 35424,
          "time": 65.1176145,
          "velocity": 0.3937007874015748
        },
        {
          "duration": 0.5294114999999948,
          "durationTicks": 288,
          "midi": 65,
          "name": "F4",
          "ticks": 35424,
          "time": 65.1176145,
          "velocity": 0.3937007874015748
        },
        {
          "duration": 0.5294114999999948,
          "durationTicks": 288,
          "midi": 67,
          "name": "G4",
          "ticks": 35424,
          "time": 65.1176145,
          "velocity": 0.3937007874015748
        },
        {
          "duration": 0.529411500000009,
          "durationTicks": 288,
          "midi": 32,
          "name": "G#1",
          "ticks": 35712,
          "time": 65.647026,
          "velocity": 0.3937007874015748
        },
        {
          "duration": 0.529411500000009,
          "durationTicks": 288,
          "midi": 44,
          "name": "G#2",
          "ticks": 35712,
          "time": 65.647026,
          "velocity": 0.3937007874015748
        },
        {
          "duration": 0.529411500000009,
          "durationTicks": 288,
          "midi": 56,
          "name": "G#3",
          "ticks": 35712,
          "time": 65.647026,
          "velocity": 0.3937007874015748
        },
        {
          "duration": 0.529411500000009,
          "durationTicks": 288,
          "midi": 60,
          "name": "C4",
          "ticks": 35712,
          "time": 65.647026,
          "velocity": 0.3937007874015748
        },
        {
          "duration": 0.529411500000009,
          "durationTicks": 288,
          "midi": 63,
          "name": "D#4",
          "ticks": 35712,
          "time": 65.647026,
          "velocity": 0.3937007874015748
        },
        {
          "duration": 0.529411500000009,
          "durationTicks": 288,
          "midi": 65,
          "name": "F4",
          "ticks": 35712,
          "time": 65.647026,
          "velocity": 0.3937007874015748
        },
        {
          "duration": 0.529411500000009,
          "durationTicks": 288,
          "midi": 67,
          "name": "G4",
          "ticks": 35712,
          "time": 65.647026,
          "velocity": 0.3937007874015748
        },
        {
          "duration": 0.5294114999999948,
          "durationTicks": 288,
          "midi": 32,
          "name": "G#1",
          "ticks": 36000,
          "time": 66.1764375,
          "velocity": 0.3937007874015748
        },
        {
          "duration": 0.5294114999999948,
          "durationTicks": 288,
          "midi": 44,
          "name": "G#2",
          "ticks": 36000,
          "time": 66.1764375,
          "velocity": 0.3937007874015748
        },
        {
          "duration": 0.5294114999999948,
          "durationTicks": 288,
          "midi": 56,
          "name": "G#3",
          "ticks": 36000,
          "time": 66.1764375,
          "velocity": 0.3937007874015748
        },
        {
          "duration": 0.5294114999999948,
          "durationTicks": 288,
          "midi": 60,
          "name": "C4",
          "ticks": 36000,
          "time": 66.1764375,
          "velocity": 0.3937007874015748
        },
        {
          "duration": 0.5294114999999948,
          "durationTicks": 288,
          "midi": 63,
          "name": "D#4",
          "ticks": 36000,
          "time": 66.1764375,
          "velocity": 0.3937007874015748
        },
        {
          "duration": 0.5294114999999948,
          "durationTicks": 288,
          "midi": 65,
          "name": "F4",
          "ticks": 36000,
          "time": 66.1764375,
          "velocity": 0.3937007874015748
        },
        {
          "duration": 0.5294114999999948,
          "durationTicks": 288,
          "midi": 67,
          "name": "G4",
          "ticks": 36000,
          "time": 66.1764375,
          "velocity": 0.3937007874015748
        },
        {
          "duration": 0.5294114999999948,
          "durationTicks": 288,
          "midi": 32,
          "name": "G#1",
          "ticks": 36288,
          "time": 66.705849,
          "velocity": 0.3937007874015748
        },
        {
          "duration": 0.5294114999999948,
          "durationTicks": 288,
          "midi": 44,
          "name": "G#2",
          "ticks": 36288,
          "time": 66.705849,
          "velocity": 0.3937007874015748
        },
        {
          "duration": 0.5294114999999948,
          "durationTicks": 288,
          "midi": 56,
          "name": "G#3",
          "ticks": 36288,
          "time": 66.705849,
          "velocity": 0.3937007874015748
        },
        {
          "duration": 0.5294114999999948,
          "durationTicks": 288,
          "midi": 60,
          "name": "C4",
          "ticks": 36288,
          "time": 66.705849,
          "velocity": 0.3937007874015748
        },
        {
          "duration": 0.5294114999999948,
          "durationTicks": 288,
          "midi": 63,
          "name": "D#4",
          "ticks": 36288,
          "time": 66.705849,
          "velocity": 0.3937007874015748
        },
        {
          "duration": 0.5294114999999948,
          "durationTicks": 288,
          "midi": 65,
          "name": "F4",
          "ticks": 36288,
          "time": 66.705849,
          "velocity": 0.3937007874015748
        },
        {
          "duration": 0.5294114999999948,
          "durationTicks": 288,
          "midi": 67,
          "name": "G4",
          "ticks": 36288,
          "time": 66.705849,
          "velocity": 0.3937007874015748
        },
        {
          "duration": 0.529411500000009,
          "durationTicks": 288,
          "midi": 32,
          "name": "G#1",
          "ticks": 36576,
          "time": 67.2352605,
          "velocity": 0.3937007874015748
        },
        {
          "duration": 0.529411500000009,
          "durationTicks": 288,
          "midi": 44,
          "name": "G#2",
          "ticks": 36576,
          "time": 67.2352605,
          "velocity": 0.3937007874015748
        },
        {
          "duration": 0.529411500000009,
          "durationTicks": 288,
          "midi": 56,
          "name": "G#3",
          "ticks": 36576,
          "time": 67.2352605,
          "velocity": 0.3937007874015748
        },
        {
          "duration": 0.529411500000009,
          "durationTicks": 288,
          "midi": 60,
          "name": "C4",
          "ticks": 36576,
          "time": 67.2352605,
          "velocity": 0.3937007874015748
        },
        {
          "duration": 0.529411500000009,
          "durationTicks": 288,
          "midi": 63,
          "name": "D#4",
          "ticks": 36576,
          "time": 67.2352605,
          "velocity": 0.3937007874015748
        },
        {
          "duration": 0.529411500000009,
          "durationTicks": 288,
          "midi": 65,
          "name": "F4",
          "ticks": 36576,
          "time": 67.2352605,
          "velocity": 0.3937007874015748
        },
        {
          "duration": 0.529411500000009,
          "durationTicks": 288,
          "midi": 67,
          "name": "G4",
          "ticks": 36576,
          "time": 67.2352605,
          "velocity": 0.3937007874015748
        },
        {
          "duration": 0.5294114999999948,
          "durationTicks": 288,
          "midi": 29,
          "name": "F1",
          "ticks": 36864,
          "time": 67.764672,
          "velocity": 0.3937007874015748
        },
        {
          "duration": 0.5294114999999948,
          "durationTicks": 288,
          "midi": 41,
          "name": "F2",
          "ticks": 36864,
          "time": 67.764672,
          "velocity": 0.3937007874015748
        },
        {
          "duration": 0.5294114999999948,
          "durationTicks": 288,
          "midi": 53,
          "name": "F3",
          "ticks": 36864,
          "time": 67.764672,
          "velocity": 0.3937007874015748
        },
        {
          "duration": 0.5294114999999948,
          "durationTicks": 288,
          "midi": 56,
          "name": "G#3",
          "ticks": 36864,
          "time": 67.764672,
          "velocity": 0.3937007874015748
        },
        {
          "duration": 0.5294114999999948,
          "durationTicks": 288,
          "midi": 60,
          "name": "C4",
          "ticks": 36864,
          "time": 67.764672,
          "velocity": 0.3937007874015748
        },
        {
          "duration": 0.5294114999999948,
          "durationTicks": 288,
          "midi": 63,
          "name": "D#4",
          "ticks": 36864,
          "time": 67.764672,
          "velocity": 0.3937007874015748
        },
        {
          "duration": 0.5294114999999948,
          "durationTicks": 288,
          "midi": 68,
          "name": "G#4",
          "ticks": 36864,
          "time": 67.764672,
          "velocity": 0.3937007874015748
        },
        {
          "duration": 0.5294114999999948,
          "durationTicks": 288,
          "midi": 29,
          "name": "F1",
          "ticks": 37152,
          "time": 68.2940835,
          "velocity": 0.3937007874015748
        },
        {
          "duration": 0.5294114999999948,
          "durationTicks": 288,
          "midi": 41,
          "name": "F2",
          "ticks": 37152,
          "time": 68.2940835,
          "velocity": 0.3937007874015748
        },
        {
          "duration": 0.5294114999999948,
          "durationTicks": 288,
          "midi": 53,
          "name": "F3",
          "ticks": 37152,
          "time": 68.2940835,
          "velocity": 0.3937007874015748
        },
        {
          "duration": 0.5294114999999948,
          "durationTicks": 288,
          "midi": 56,
          "name": "G#3",
          "ticks": 37152,
          "time": 68.2940835,
          "velocity": 0.3937007874015748
        },
        {
          "duration": 0.5294114999999948,
          "durationTicks": 288,
          "midi": 60,
          "name": "C4",
          "ticks": 37152,
          "time": 68.2940835,
          "velocity": 0.3937007874015748
        },
        {
          "duration": 0.5294114999999948,
          "durationTicks": 288,
          "midi": 63,
          "name": "D#4",
          "ticks": 37152,
          "time": 68.2940835,
          "velocity": 0.3937007874015748
        },
        {
          "duration": 0.5294114999999948,
          "durationTicks": 288,
          "midi": 68,
          "name": "G#4",
          "ticks": 37152,
          "time": 68.2940835,
          "velocity": 0.3937007874015748
        },
        {
          "duration": 0.3529410000000013,
          "durationTicks": 192,
          "midi": 29,
          "name": "F1",
          "ticks": 37440,
          "time": 68.823495,
          "velocity": 0.3937007874015748
        },
        {
          "duration": 0.3529410000000013,
          "durationTicks": 192,
          "midi": 41,
          "name": "F2",
          "ticks": 37440,
          "time": 68.823495,
          "velocity": 0.3937007874015748
        },
        {
          "duration": 0.3529410000000013,
          "durationTicks": 192,
          "midi": 53,
          "name": "F3",
          "ticks": 37440,
          "time": 68.823495,
          "velocity": 0.3937007874015748
        },
        {
          "duration": 0.3529410000000013,
          "durationTicks": 192,
          "midi": 56,
          "name": "G#3",
          "ticks": 37440,
          "time": 68.823495,
          "velocity": 0.3937007874015748
        },
        {
          "duration": 0.3529410000000013,
          "durationTicks": 192,
          "midi": 60,
          "name": "C4",
          "ticks": 37440,
          "time": 68.823495,
          "velocity": 0.3937007874015748
        },
        {
          "duration": 0.3529410000000013,
          "durationTicks": 192,
          "midi": 63,
          "name": "D#4",
          "ticks": 37440,
          "time": 68.823495,
          "velocity": 0.3937007874015748
        },
        {
          "duration": 0.3529410000000013,
          "durationTicks": 192,
          "midi": 68,
          "name": "G#4",
          "ticks": 37440,
          "time": 68.823495,
          "velocity": 0.3937007874015748
        },
        {
          "duration": 0.529411500000009,
          "durationTicks": 288,
          "midi": 32,
          "name": "G#1",
          "ticks": 37632,
          "time": 69.176436,
          "velocity": 0.3937007874015748
        },
        {
          "duration": 0.529411500000009,
          "durationTicks": 288,
          "midi": 44,
          "name": "G#2",
          "ticks": 37632,
          "time": 69.176436,
          "velocity": 0.3937007874015748
        },
        {
          "duration": 0.529411500000009,
          "durationTicks": 288,
          "midi": 56,
          "name": "G#3",
          "ticks": 37632,
          "time": 69.176436,
          "velocity": 0.3937007874015748
        },
        {
          "duration": 0.529411500000009,
          "durationTicks": 288,
          "midi": 60,
          "name": "C4",
          "ticks": 37632,
          "time": 69.176436,
          "velocity": 0.3937007874015748
        },
        {
          "duration": 0.529411500000009,
          "durationTicks": 288,
          "midi": 63,
          "name": "D#4",
          "ticks": 37632,
          "time": 69.176436,
          "velocity": 0.3937007874015748
        },
        {
          "duration": 0.529411500000009,
          "durationTicks": 288,
          "midi": 67,
          "name": "G4",
          "ticks": 37632,
          "time": 69.176436,
          "velocity": 0.3937007874015748
        },
        {
          "duration": 0.529411500000009,
          "durationTicks": 288,
          "midi": 70,
          "name": "A#4",
          "ticks": 37632,
          "time": 69.176436,
          "velocity": 0.3937007874015748
        },
        {
          "duration": 0.5294114999999948,
          "durationTicks": 288,
          "midi": 32,
          "name": "G#1",
          "ticks": 37920,
          "time": 69.7058475,
          "velocity": 0.3937007874015748
        },
        {
          "duration": 0.5294114999999948,
          "durationTicks": 288,
          "midi": 44,
          "name": "G#2",
          "ticks": 37920,
          "time": 69.7058475,
          "velocity": 0.3937007874015748
        },
        {
          "duration": 0.5294114999999948,
          "durationTicks": 288,
          "midi": 56,
          "name": "G#3",
          "ticks": 37920,
          "time": 69.7058475,
          "velocity": 0.3937007874015748
        },
        {
          "duration": 0.5294114999999948,
          "durationTicks": 288,
          "midi": 60,
          "name": "C4",
          "ticks": 37920,
          "time": 69.7058475,
          "velocity": 0.3937007874015748
        },
        {
          "duration": 0.5294114999999948,
          "durationTicks": 288,
          "midi": 63,
          "name": "D#4",
          "ticks": 37920,
          "time": 69.7058475,
          "velocity": 0.3937007874015748
        },
        {
          "duration": 0.5294114999999948,
          "durationTicks": 288,
          "midi": 67,
          "name": "G4",
          "ticks": 37920,
          "time": 69.7058475,
          "velocity": 0.3937007874015748
        },
        {
          "duration": 0.5294114999999948,
          "durationTicks": 288,
          "midi": 70,
          "name": "A#4",
          "ticks": 37920,
          "time": 69.7058475,
          "velocity": 0.3937007874015748
        },
        {
          "duration": 0.5294114999999948,
          "durationTicks": 288,
          "midi": 36,
          "name": "C2",
          "ticks": 38208,
          "time": 70.235259,
          "velocity": 0.3937007874015748
        },
        {
          "duration": 0.5294114999999948,
          "durationTicks": 288,
          "midi": 48,
          "name": "C3",
          "ticks": 38208,
          "time": 70.235259,
          "velocity": 0.3937007874015748
        },
        {
          "duration": 0.5294114999999948,
          "durationTicks": 288,
          "midi": 60,
          "name": "C4",
          "ticks": 38208,
          "time": 70.235259,
          "velocity": 0.3937007874015748
        },
        {
          "duration": 0.5294114999999948,
          "durationTicks": 288,
          "midi": 63,
          "name": "D#4",
          "ticks": 38208,
          "time": 70.235259,
          "velocity": 0.3937007874015748
        },
        {
          "duration": 0.5294114999999948,
          "durationTicks": 288,
          "midi": 67,
          "name": "G4",
          "ticks": 38208,
          "time": 70.235259,
          "velocity": 0.3937007874015748
        },
        {
          "duration": 0.5294114999999948,
          "durationTicks": 288,
          "midi": 70,
          "name": "A#4",
          "ticks": 38208,
          "time": 70.235259,
          "velocity": 0.3937007874015748
        },
        {
          "duration": 0.5294114999999948,
          "durationTicks": 288,
          "midi": 72,
          "name": "C5",
          "ticks": 38208,
          "time": 70.235259,
          "velocity": 0.3937007874015748
        },
        {
          "duration": 0.529411500000009,
          "durationTicks": 288,
          "midi": 36,
          "name": "C2",
          "ticks": 38496,
          "time": 70.7646705,
          "velocity": 0.3937007874015748
        },
        {
          "duration": 0.529411500000009,
          "durationTicks": 288,
          "midi": 48,
          "name": "C3",
          "ticks": 38496,
          "time": 70.7646705,
          "velocity": 0.3937007874015748
        },
        {
          "duration": 0.529411500000009,
          "durationTicks": 288,
          "midi": 60,
          "name": "C4",
          "ticks": 38496,
          "time": 70.7646705,
          "velocity": 0.3937007874015748
        },
        {
          "duration": 0.529411500000009,
          "durationTicks": 288,
          "midi": 63,
          "name": "D#4",
          "ticks": 38496,
          "time": 70.7646705,
          "velocity": 0.3937007874015748
        },
        {
          "duration": 0.529411500000009,
          "durationTicks": 288,
          "midi": 67,
          "name": "G4",
          "ticks": 38496,
          "time": 70.7646705,
          "velocity": 0.3937007874015748
        },
        {
          "duration": 0.529411500000009,
          "durationTicks": 288,
          "midi": 70,
          "name": "A#4",
          "ticks": 38496,
          "time": 70.7646705,
          "velocity": 0.3937007874015748
        },
        {
          "duration": 0.529411500000009,
          "durationTicks": 288,
          "midi": 72,
          "name": "C5",
          "ticks": 38496,
          "time": 70.7646705,
          "velocity": 0.3937007874015748
        },
        {
          "duration": 0.5294114999999948,
          "durationTicks": 288,
          "midi": 36,
          "name": "C2",
          "ticks": 38784,
          "time": 71.294082,
          "velocity": 0.3937007874015748
        },
        {
          "duration": 0.5294114999999948,
          "durationTicks": 288,
          "midi": 48,
          "name": "C3",
          "ticks": 38784,
          "time": 71.294082,
          "velocity": 0.3937007874015748
        },
        {
          "duration": 0.5294114999999948,
          "durationTicks": 288,
          "midi": 60,
          "name": "C4",
          "ticks": 38784,
          "time": 71.294082,
          "velocity": 0.3937007874015748
        },
        {
          "duration": 0.5294114999999948,
          "durationTicks": 288,
          "midi": 63,
          "name": "D#4",
          "ticks": 38784,
          "time": 71.294082,
          "velocity": 0.3937007874015748
        },
        {
          "duration": 0.5294114999999948,
          "durationTicks": 288,
          "midi": 67,
          "name": "G4",
          "ticks": 38784,
          "time": 71.294082,
          "velocity": 0.3937007874015748
        },
        {
          "duration": 0.5294114999999948,
          "durationTicks": 288,
          "midi": 70,
          "name": "A#4",
          "ticks": 38784,
          "time": 71.294082,
          "velocity": 0.3937007874015748
        },
        {
          "duration": 0.5294114999999948,
          "durationTicks": 288,
          "midi": 72,
          "name": "C5",
          "ticks": 38784,
          "time": 71.294082,
          "velocity": 0.3937007874015748
        },
        {
          "duration": 0.529411500000009,
          "durationTicks": 288,
          "midi": 36,
          "name": "C2",
          "ticks": 39072,
          "time": 71.8234935,
          "velocity": 0.3937007874015748
        },
        {
          "duration": 0.529411500000009,
          "durationTicks": 288,
          "midi": 48,
          "name": "C3",
          "ticks": 39072,
          "time": 71.8234935,
          "velocity": 0.3937007874015748
        },
        {
          "duration": 0.529411500000009,
          "durationTicks": 288,
          "midi": 60,
          "name": "C4",
          "ticks": 39072,
          "time": 71.8234935,
          "velocity": 0.3937007874015748
        },
        {
          "duration": 0.529411500000009,
          "durationTicks": 288,
          "midi": 63,
          "name": "D#4",
          "ticks": 39072,
          "time": 71.8234935,
          "velocity": 0.3937007874015748
        },
        {
          "duration": 0.529411500000009,
          "durationTicks": 288,
          "midi": 67,
          "name": "G4",
          "ticks": 39072,
          "time": 71.8234935,
          "velocity": 0.3937007874015748
        },
        {
          "duration": 0.529411500000009,
          "durationTicks": 288,
          "midi": 70,
          "name": "A#4",
          "ticks": 39072,
          "time": 71.8234935,
          "velocity": 0.3937007874015748
        },
        {
          "duration": 0.529411500000009,
          "durationTicks": 288,
          "midi": 72,
          "name": "C5",
          "ticks": 39072,
          "time": 71.8234935,
          "velocity": 0.3937007874015748
        },
        {
          "duration": 0.5294114999999948,
          "durationTicks": 288,
          "midi": 36,
          "name": "C2",
          "ticks": 39360,
          "time": 72.352905,
          "velocity": 0.3937007874015748
        },
        {
          "duration": 0.5294114999999948,
          "durationTicks": 288,
          "midi": 48,
          "name": "C3",
          "ticks": 39360,
          "time": 72.352905,
          "velocity": 0.3937007874015748
        },
        {
          "duration": 0.5294114999999948,
          "durationTicks": 288,
          "midi": 60,
          "name": "C4",
          "ticks": 39360,
          "time": 72.352905,
          "velocity": 0.3937007874015748
        },
        {
          "duration": 0.5294114999999948,
          "durationTicks": 288,
          "midi": 63,
          "name": "D#4",
          "ticks": 39360,
          "time": 72.352905,
          "velocity": 0.3937007874015748
        },
        {
          "duration": 0.5294114999999948,
          "durationTicks": 288,
          "midi": 67,
          "name": "G4",
          "ticks": 39360,
          "time": 72.352905,
          "velocity": 0.3937007874015748
        },
        {
          "duration": 0.5294114999999948,
          "durationTicks": 288,
          "midi": 70,
          "name": "A#4",
          "ticks": 39360,
          "time": 72.352905,
          "velocity": 0.3937007874015748
        },
        {
          "duration": 0.5294114999999948,
          "durationTicks": 288,
          "midi": 72,
          "name": "C5",
          "ticks": 39360,
          "time": 72.352905,
          "velocity": 0.3937007874015748
        },
        {
          "duration": 0.5294114999999948,
          "durationTicks": 288,
          "midi": 36,
          "name": "C2",
          "ticks": 39648,
          "time": 72.8823165,
          "velocity": 0.3937007874015748
        },
        {
          "duration": 0.5294114999999948,
          "durationTicks": 288,
          "midi": 48,
          "name": "C3",
          "ticks": 39648,
          "time": 72.8823165,
          "velocity": 0.3937007874015748
        },
        {
          "duration": 0.5294114999999948,
          "durationTicks": 288,
          "midi": 60,
          "name": "C4",
          "ticks": 39648,
          "time": 72.8823165,
          "velocity": 0.3937007874015748
        },
        {
          "duration": 0.5294114999999948,
          "durationTicks": 288,
          "midi": 63,
          "name": "D#4",
          "ticks": 39648,
          "time": 72.8823165,
          "velocity": 0.3937007874015748
        },
        {
          "duration": 0.5294114999999948,
          "durationTicks": 288,
          "midi": 67,
          "name": "G4",
          "ticks": 39648,
          "time": 72.8823165,
          "velocity": 0.3937007874015748
        },
        {
          "duration": 0.5294114999999948,
          "durationTicks": 288,
          "midi": 70,
          "name": "A#4",
          "ticks": 39648,
          "time": 72.8823165,
          "velocity": 0.3937007874015748
        },
        {
          "duration": 0.5294114999999948,
          "durationTicks": 288,
          "midi": 72,
          "name": "C5",
          "ticks": 39648,
          "time": 72.8823165,
          "velocity": 0.3937007874015748
        },
        {
          "duration": 0.529411500000009,
          "durationTicks": 288,
          "midi": 29,
          "name": "F1",
          "ticks": 39936,
          "time": 73.411728,
          "velocity": 0.3937007874015748
        },
        {
          "duration": 0.529411500000009,
          "durationTicks": 288,
          "midi": 41,
          "name": "F2",
          "ticks": 39936,
          "time": 73.411728,
          "velocity": 0.3937007874015748
        },
        {
          "duration": 0.529411500000009,
          "durationTicks": 288,
          "midi": 53,
          "name": "F3",
          "ticks": 39936,
          "time": 73.411728,
          "velocity": 0.3937007874015748
        },
        {
          "duration": 0.529411500000009,
          "durationTicks": 288,
          "midi": 56,
          "name": "G#3",
          "ticks": 39936,
          "time": 73.411728,
          "velocity": 0.3937007874015748
        },
        {
          "duration": 0.529411500000009,
          "durationTicks": 288,
          "midi": 60,
          "name": "C4",
          "ticks": 39936,
          "time": 73.411728,
          "velocity": 0.3937007874015748
        },
        {
          "duration": 0.529411500000009,
          "durationTicks": 288,
          "midi": 63,
          "name": "D#4",
          "ticks": 39936,
          "time": 73.411728,
          "velocity": 0.3937007874015748
        },
        {
          "duration": 0.529411500000009,
          "durationTicks": 288,
          "midi": 75,
          "name": "D#5",
          "ticks": 39936,
          "time": 73.411728,
          "velocity": 0.3937007874015748
        },
        {
          "duration": 0.5294114999999948,
          "durationTicks": 288,
          "midi": 29,
          "name": "F1",
          "ticks": 40224,
          "time": 73.9411395,
          "velocity": 0.3937007874015748
        },
        {
          "duration": 0.5294114999999948,
          "durationTicks": 288,
          "midi": 41,
          "name": "F2",
          "ticks": 40224,
          "time": 73.9411395,
          "velocity": 0.3937007874015748
        },
        {
          "duration": 0.5294114999999948,
          "durationTicks": 288,
          "midi": 53,
          "name": "F3",
          "ticks": 40224,
          "time": 73.9411395,
          "velocity": 0.3937007874015748
        },
        {
          "duration": 0.5294114999999948,
          "durationTicks": 288,
          "midi": 56,
          "name": "G#3",
          "ticks": 40224,
          "time": 73.9411395,
          "velocity": 0.3937007874015748
        },
        {
          "duration": 0.5294114999999948,
          "durationTicks": 288,
          "midi": 60,
          "name": "C4",
          "ticks": 40224,
          "time": 73.9411395,
          "velocity": 0.3937007874015748
        },
        {
          "duration": 0.5294114999999948,
          "durationTicks": 288,
          "midi": 63,
          "name": "D#4",
          "ticks": 40224,
          "time": 73.9411395,
          "velocity": 0.3937007874015748
        },
        {
          "duration": 0.5294114999999948,
          "durationTicks": 288,
          "midi": 75,
          "name": "D#5",
          "ticks": 40224,
          "time": 73.9411395,
          "velocity": 0.3937007874015748
        },
        {
          "duration": 0.3529410000000013,
          "durationTicks": 192,
          "midi": 29,
          "name": "F1",
          "ticks": 40512,
          "time": 74.470551,
          "velocity": 0.3937007874015748
        },
        {
          "duration": 0.3529410000000013,
          "durationTicks": 192,
          "midi": 41,
          "name": "F2",
          "ticks": 40512,
          "time": 74.470551,
          "velocity": 0.3937007874015748
        },
        {
          "duration": 0.3529410000000013,
          "durationTicks": 192,
          "midi": 53,
          "name": "F3",
          "ticks": 40512,
          "time": 74.470551,
          "velocity": 0.3937007874015748
        },
        {
          "duration": 0.3529410000000013,
          "durationTicks": 192,
          "midi": 56,
          "name": "G#3",
          "ticks": 40512,
          "time": 74.470551,
          "velocity": 0.3937007874015748
        },
        {
          "duration": 0.3529410000000013,
          "durationTicks": 192,
          "midi": 60,
          "name": "C4",
          "ticks": 40512,
          "time": 74.470551,
          "velocity": 0.3937007874015748
        },
        {
          "duration": 0.3529410000000013,
          "durationTicks": 192,
          "midi": 63,
          "name": "D#4",
          "ticks": 40512,
          "time": 74.470551,
          "velocity": 0.3937007874015748
        },
        {
          "duration": 0.3529410000000013,
          "durationTicks": 192,
          "midi": 75,
          "name": "D#5",
          "ticks": 40512,
          "time": 74.470551,
          "velocity": 0.3937007874015748
        },
        {
          "duration": 0.5294114999999948,
          "durationTicks": 288,
          "midi": 34,
          "name": "A#1",
          "ticks": 40704,
          "time": 74.823492,
          "velocity": 0.3937007874015748
        },
        {
          "duration": 0.5294114999999948,
          "durationTicks": 288,
          "midi": 46,
          "name": "A#2",
          "ticks": 40704,
          "time": 74.823492,
          "velocity": 0.3937007874015748
        },
        {
          "duration": 0.5294114999999948,
          "durationTicks": 288,
          "midi": 58,
          "name": "A#3",
          "ticks": 40704,
          "time": 74.823492,
          "velocity": 0.3937007874015748
        },
        {
          "duration": 0.5294114999999948,
          "durationTicks": 288,
          "midi": 61,
          "name": "C#4",
          "ticks": 40704,
          "time": 74.823492,
          "velocity": 0.3937007874015748
        },
        {
          "duration": 0.5294114999999948,
          "durationTicks": 288,
          "midi": 65,
          "name": "F4",
          "ticks": 40704,
          "time": 74.823492,
          "velocity": 0.3937007874015748
        },
        {
          "duration": 0.5294114999999948,
          "durationTicks": 288,
          "midi": 68,
          "name": "G#4",
          "ticks": 40704,
          "time": 74.823492,
          "velocity": 0.3937007874015748
        },
        {
          "duration": 0.5294114999999948,
          "durationTicks": 288,
          "midi": 70,
          "name": "A#4",
          "ticks": 40704,
          "time": 74.823492,
          "velocity": 0.3937007874015748
        },
        {
          "duration": 0.529411500000009,
          "durationTicks": 288,
          "midi": 34,
          "name": "A#1",
          "ticks": 40992,
          "time": 75.3529035,
          "velocity": 0.3937007874015748
        },
        {
          "duration": 0.529411500000009,
          "durationTicks": 288,
          "midi": 46,
          "name": "A#2",
          "ticks": 40992,
          "time": 75.3529035,
          "velocity": 0.3937007874015748
        },
        {
          "duration": 0.529411500000009,
          "durationTicks": 288,
          "midi": 58,
          "name": "A#3",
          "ticks": 40992,
          "time": 75.3529035,
          "velocity": 0.3937007874015748
        },
        {
          "duration": 0.529411500000009,
          "durationTicks": 288,
          "midi": 61,
          "name": "C#4",
          "ticks": 40992,
          "time": 75.3529035,
          "velocity": 0.3937007874015748
        },
        {
          "duration": 0.529411500000009,
          "durationTicks": 288,
          "midi": 65,
          "name": "F4",
          "ticks": 40992,
          "time": 75.3529035,
          "velocity": 0.3937007874015748
        },
        {
          "duration": 0.529411500000009,
          "durationTicks": 288,
          "midi": 68,
          "name": "G#4",
          "ticks": 40992,
          "time": 75.3529035,
          "velocity": 0.3937007874015748
        },
        {
          "duration": 0.529411500000009,
          "durationTicks": 288,
          "midi": 70,
          "name": "A#4",
          "ticks": 40992,
          "time": 75.3529035,
          "velocity": 0.3937007874015748
        },
        {
          "duration": 0.5294114999999948,
          "durationTicks": 288,
          "midi": 32,
          "name": "G#1",
          "ticks": 41280,
          "time": 75.882315,
          "velocity": 0.3937007874015748
        },
        {
          "duration": 0.5294114999999948,
          "durationTicks": 288,
          "midi": 44,
          "name": "G#2",
          "ticks": 41280,
          "time": 75.882315,
          "velocity": 0.3937007874015748
        },
        {
          "duration": 0.5294114999999948,
          "durationTicks": 288,
          "midi": 56,
          "name": "G#3",
          "ticks": 41280,
          "time": 75.882315,
          "velocity": 0.3937007874015748
        },
        {
          "duration": 0.5294114999999948,
          "durationTicks": 288,
          "midi": 60,
          "name": "C4",
          "ticks": 41280,
          "time": 75.882315,
          "velocity": 0.3937007874015748
        },
        {
          "duration": 0.5294114999999948,
          "durationTicks": 288,
          "midi": 63,
          "name": "D#4",
          "ticks": 41280,
          "time": 75.882315,
          "velocity": 0.3937007874015748
        },
        {
          "duration": 0.5294114999999948,
          "durationTicks": 288,
          "midi": 67,
          "name": "G4",
          "ticks": 41280,
          "time": 75.882315,
          "velocity": 0.3937007874015748
        },
        {
          "duration": 0.5294114999999948,
          "durationTicks": 288,
          "midi": 68,
          "name": "G#4",
          "ticks": 41280,
          "time": 75.882315,
          "velocity": 0.3937007874015748
        },
        {
          "duration": 0.5294114999999948,
          "durationTicks": 288,
          "midi": 32,
          "name": "G#1",
          "ticks": 41568,
          "time": 76.4117265,
          "velocity": 0.3937007874015748
        },
        {
          "duration": 0.5294114999999948,
          "durationTicks": 288,
          "midi": 44,
          "name": "G#2",
          "ticks": 41568,
          "time": 76.4117265,
          "velocity": 0.3937007874015748
        },
        {
          "duration": 0.5294114999999948,
          "durationTicks": 288,
          "midi": 56,
          "name": "G#3",
          "ticks": 41568,
          "time": 76.4117265,
          "velocity": 0.3937007874015748
        },
        {
          "duration": 0.5294114999999948,
          "durationTicks": 288,
          "midi": 60,
          "name": "C4",
          "ticks": 41568,
          "time": 76.4117265,
          "velocity": 0.3937007874015748
        },
        {
          "duration": 0.5294114999999948,
          "durationTicks": 288,
          "midi": 63,
          "name": "D#4",
          "ticks": 41568,
          "time": 76.4117265,
          "velocity": 0.3937007874015748
        },
        {
          "duration": 0.5294114999999948,
          "durationTicks": 288,
          "midi": 67,
          "name": "G4",
          "ticks": 41568,
          "time": 76.4117265,
          "velocity": 0.3937007874015748
        },
        {
          "duration": 0.5294114999999948,
          "durationTicks": 288,
          "midi": 68,
          "name": "G#4",
          "ticks": 41568,
          "time": 76.4117265,
          "velocity": 0.3937007874015748
        },
        {
          "duration": 0.529411500000009,
          "durationTicks": 288,
          "midi": 32,
          "name": "G#1",
          "ticks": 41856,
          "time": 76.941138,
          "velocity": 0.3937007874015748
        },
        {
          "duration": 0.529411500000009,
          "durationTicks": 288,
          "midi": 44,
          "name": "G#2",
          "ticks": 41856,
          "time": 76.941138,
          "velocity": 0.3937007874015748
        },
        {
          "duration": 0.529411500000009,
          "durationTicks": 288,
          "midi": 56,
          "name": "G#3",
          "ticks": 41856,
          "time": 76.941138,
          "velocity": 0.3937007874015748
        },
        {
          "duration": 0.529411500000009,
          "durationTicks": 288,
          "midi": 60,
          "name": "C4",
          "ticks": 41856,
          "time": 76.941138,
          "velocity": 0.3937007874015748
        },
        {
          "duration": 0.529411500000009,
          "durationTicks": 288,
          "midi": 63,
          "name": "D#4",
          "ticks": 41856,
          "time": 76.941138,
          "velocity": 0.3937007874015748
        },
        {
          "duration": 0.529411500000009,
          "durationTicks": 288,
          "midi": 67,
          "name": "G4",
          "ticks": 41856,
          "time": 76.941138,
          "velocity": 0.3937007874015748
        },
        {
          "duration": 0.529411500000009,
          "durationTicks": 288,
          "midi": 68,
          "name": "G#4",
          "ticks": 41856,
          "time": 76.941138,
          "velocity": 0.3937007874015748
        },
        {
          "duration": 0.5294114999999948,
          "durationTicks": 288,
          "midi": 32,
          "name": "G#1",
          "ticks": 42144,
          "time": 77.4705495,
          "velocity": 0.3937007874015748
        },
        {
          "duration": 0.5294114999999948,
          "durationTicks": 288,
          "midi": 44,
          "name": "G#2",
          "ticks": 42144,
          "time": 77.4705495,
          "velocity": 0.3937007874015748
        },
        {
          "duration": 0.5294114999999948,
          "durationTicks": 288,
          "midi": 56,
          "name": "G#3",
          "ticks": 42144,
          "time": 77.4705495,
          "velocity": 0.3937007874015748
        },
        {
          "duration": 0.5294114999999948,
          "durationTicks": 288,
          "midi": 60,
          "name": "C4",
          "ticks": 42144,
          "time": 77.4705495,
          "velocity": 0.3937007874015748
        },
        {
          "duration": 0.5294114999999948,
          "durationTicks": 288,
          "midi": 63,
          "name": "D#4",
          "ticks": 42144,
          "time": 77.4705495,
          "velocity": 0.3937007874015748
        },
        {
          "duration": 0.5294114999999948,
          "durationTicks": 288,
          "midi": 67,
          "name": "G4",
          "ticks": 42144,
          "time": 77.4705495,
          "velocity": 0.3937007874015748
        },
        {
          "duration": 0.5294114999999948,
          "durationTicks": 288,
          "midi": 68,
          "name": "G#4",
          "ticks": 42144,
          "time": 77.4705495,
          "velocity": 0.3937007874015748
        },
        {
          "duration": 0.529411500000009,
          "durationTicks": 288,
          "midi": 32,
          "name": "G#1",
          "ticks": 42432,
          "time": 77.999961,
          "velocity": 0.3937007874015748
        },
        {
          "duration": 0.529411500000009,
          "durationTicks": 288,
          "midi": 44,
          "name": "G#2",
          "ticks": 42432,
          "time": 77.999961,
          "velocity": 0.3937007874015748
        },
        {
          "duration": 0.529411500000009,
          "durationTicks": 288,
          "midi": 56,
          "name": "G#3",
          "ticks": 42432,
          "time": 77.999961,
          "velocity": 0.3937007874015748
        },
        {
          "duration": 0.529411500000009,
          "durationTicks": 288,
          "midi": 60,
          "name": "C4",
          "ticks": 42432,
          "time": 77.999961,
          "velocity": 0.3937007874015748
        },
        {
          "duration": 0.529411500000009,
          "durationTicks": 288,
          "midi": 63,
          "name": "D#4",
          "ticks": 42432,
          "time": 77.999961,
          "velocity": 0.3937007874015748
        },
        {
          "duration": 0.529411500000009,
          "durationTicks": 288,
          "midi": 67,
          "name": "G4",
          "ticks": 42432,
          "time": 77.999961,
          "velocity": 0.3937007874015748
        },
        {
          "duration": 0.529411500000009,
          "durationTicks": 288,
          "midi": 68,
          "name": "G#4",
          "ticks": 42432,
          "time": 77.999961,
          "velocity": 0.3937007874015748
        },
        {
          "duration": 0.5294114999999948,
          "durationTicks": 288,
          "midi": 32,
          "name": "G#1",
          "ticks": 42720,
          "time": 78.52937250000001,
          "velocity": 0.3937007874015748
        },
        {
          "duration": 0.5294114999999948,
          "durationTicks": 288,
          "midi": 44,
          "name": "G#2",
          "ticks": 42720,
          "time": 78.52937250000001,
          "velocity": 0.3937007874015748
        },
        {
          "duration": 0.5294114999999948,
          "durationTicks": 288,
          "midi": 56,
          "name": "G#3",
          "ticks": 42720,
          "time": 78.52937250000001,
          "velocity": 0.3937007874015748
        },
        {
          "duration": 0.5294114999999948,
          "durationTicks": 288,
          "midi": 60,
          "name": "C4",
          "ticks": 42720,
          "time": 78.52937250000001,
          "velocity": 0.3937007874015748
        },
        {
          "duration": 0.5294114999999948,
          "durationTicks": 288,
          "midi": 63,
          "name": "D#4",
          "ticks": 42720,
          "time": 78.52937250000001,
          "velocity": 0.3937007874015748
        },
        {
          "duration": 0.5294114999999948,
          "durationTicks": 288,
          "midi": 67,
          "name": "G4",
          "ticks": 42720,
          "time": 78.52937250000001,
          "velocity": 0.3937007874015748
        },
        {
          "duration": 0.5294114999999948,
          "durationTicks": 288,
          "midi": 68,
          "name": "G#4",
          "ticks": 42720,
          "time": 78.52937250000001,
          "velocity": 0.3937007874015748
        },
        {
          "duration": 0.5294114999999948,
          "durationTicks": 288,
          "midi": 29,
          "name": "F1",
          "ticks": 43008,
          "time": 79.058784,
          "velocity": 0.3937007874015748
        },
        {
          "duration": 0.5294114999999948,
          "durationTicks": 288,
          "midi": 41,
          "name": "F2",
          "ticks": 43008,
          "time": 79.058784,
          "velocity": 0.3937007874015748
        },
        {
          "duration": 0.5294114999999948,
          "durationTicks": 288,
          "midi": 53,
          "name": "F3",
          "ticks": 43008,
          "time": 79.058784,
          "velocity": 0.3937007874015748
        },
        {
          "duration": 0.5294114999999948,
          "durationTicks": 288,
          "midi": 56,
          "name": "G#3",
          "ticks": 43008,
          "time": 79.058784,
          "velocity": 0.3937007874015748
        },
        {
          "duration": 0.5294114999999948,
          "durationTicks": 288,
          "midi": 60,
          "name": "C4",
          "ticks": 43008,
          "time": 79.058784,
          "velocity": 0.3937007874015748
        },
        {
          "duration": 0.5294114999999948,
          "durationTicks": 288,
          "midi": 63,
          "name": "D#4",
          "ticks": 43008,
          "time": 79.058784,
          "velocity": 0.3937007874015748
        },
        {
          "duration": 0.5294114999999948,
          "durationTicks": 288,
          "midi": 72,
          "name": "C5",
          "ticks": 43008,
          "time": 79.058784,
          "velocity": 0.3937007874015748
        },
        {
          "duration": 0.529411500000009,
          "durationTicks": 288,
          "midi": 29,
          "name": "F1",
          "ticks": 43296,
          "time": 79.5881955,
          "velocity": 0.3937007874015748
        },
        {
          "duration": 0.529411500000009,
          "durationTicks": 288,
          "midi": 41,
          "name": "F2",
          "ticks": 43296,
          "time": 79.5881955,
          "velocity": 0.3937007874015748
        },
        {
          "duration": 0.529411500000009,
          "durationTicks": 288,
          "midi": 53,
          "name": "F3",
          "ticks": 43296,
          "time": 79.5881955,
          "velocity": 0.3937007874015748
        },
        {
          "duration": 0.529411500000009,
          "durationTicks": 288,
          "midi": 56,
          "name": "G#3",
          "ticks": 43296,
          "time": 79.5881955,
          "velocity": 0.3937007874015748
        },
        {
          "duration": 0.529411500000009,
          "durationTicks": 288,
          "midi": 60,
          "name": "C4",
          "ticks": 43296,
          "time": 79.5881955,
          "velocity": 0.3937007874015748
        },
        {
          "duration": 0.529411500000009,
          "durationTicks": 288,
          "midi": 63,
          "name": "D#4",
          "ticks": 43296,
          "time": 79.5881955,
          "velocity": 0.3937007874015748
        },
        {
          "duration": 0.529411500000009,
          "durationTicks": 288,
          "midi": 72,
          "name": "C5",
          "ticks": 43296,
          "time": 79.5881955,
          "velocity": 0.3937007874015748
        },
        {
          "duration": 0.3529410000000013,
          "durationTicks": 192,
          "midi": 29,
          "name": "F1",
          "ticks": 43584,
          "time": 80.117607,
          "velocity": 0.3937007874015748
        },
        {
          "duration": 0.3529410000000013,
          "durationTicks": 192,
          "midi": 41,
          "name": "F2",
          "ticks": 43584,
          "time": 80.117607,
          "velocity": 0.3937007874015748
        },
        {
          "duration": 0.3529410000000013,
          "durationTicks": 192,
          "midi": 53,
          "name": "F3",
          "ticks": 43584,
          "time": 80.117607,
          "velocity": 0.3937007874015748
        },
        {
          "duration": 0.3529410000000013,
          "durationTicks": 192,
          "midi": 56,
          "name": "G#3",
          "ticks": 43584,
          "time": 80.117607,
          "velocity": 0.3937007874015748
        },
        {
          "duration": 0.3529410000000013,
          "durationTicks": 192,
          "midi": 60,
          "name": "C4",
          "ticks": 43584,
          "time": 80.117607,
          "velocity": 0.3937007874015748
        },
        {
          "duration": 0.3529410000000013,
          "durationTicks": 192,
          "midi": 63,
          "name": "D#4",
          "ticks": 43584,
          "time": 80.117607,
          "velocity": 0.3937007874015748
        },
        {
          "duration": 0.3529410000000013,
          "durationTicks": 192,
          "midi": 72,
          "name": "C5",
          "ticks": 43584,
          "time": 80.117607,
          "velocity": 0.3937007874015748
        },
        {
          "duration": 0.5294114999999948,
          "durationTicks": 288,
          "midi": 32,
          "name": "G#1",
          "ticks": 43776,
          "time": 80.47054800000001,
          "velocity": 0.3937007874015748
        },
        {
          "duration": 0.5294114999999948,
          "durationTicks": 288,
          "midi": 44,
          "name": "G#2",
          "ticks": 43776,
          "time": 80.47054800000001,
          "velocity": 0.3937007874015748
        },
        {
          "duration": 0.5294114999999948,
          "durationTicks": 288,
          "midi": 56,
          "name": "G#3",
          "ticks": 43776,
          "time": 80.47054800000001,
          "velocity": 0.3937007874015748
        },
        {
          "duration": 0.5294114999999948,
          "durationTicks": 288,
          "midi": 60,
          "name": "C4",
          "ticks": 43776,
          "time": 80.47054800000001,
          "velocity": 0.3937007874015748
        },
        {
          "duration": 0.5294114999999948,
          "durationTicks": 288,
          "midi": 63,
          "name": "D#4",
          "ticks": 43776,
          "time": 80.47054800000001,
          "velocity": 0.3937007874015748
        },
        {
          "duration": 0.5294114999999948,
          "durationTicks": 288,
          "midi": 67,
          "name": "G4",
          "ticks": 43776,
          "time": 80.47054800000001,
          "velocity": 0.3937007874015748
        },
        {
          "duration": 0.5294114999999948,
          "durationTicks": 288,
          "midi": 68,
          "name": "G#4",
          "ticks": 43776,
          "time": 80.47054800000001,
          "velocity": 0.3937007874015748
        },
        {
          "duration": 0.5294114999999948,
          "durationTicks": 288,
          "midi": 32,
          "name": "G#1",
          "ticks": 44064,
          "time": 80.9999595,
          "velocity": 0.3937007874015748
        },
        {
          "duration": 0.5294114999999948,
          "durationTicks": 288,
          "midi": 44,
          "name": "G#2",
          "ticks": 44064,
          "time": 80.9999595,
          "velocity": 0.3937007874015748
        },
        {
          "duration": 0.5294114999999948,
          "durationTicks": 288,
          "midi": 56,
          "name": "G#3",
          "ticks": 44064,
          "time": 80.9999595,
          "velocity": 0.3937007874015748
        },
        {
          "duration": 0.5294114999999948,
          "durationTicks": 288,
          "midi": 60,
          "name": "C4",
          "ticks": 44064,
          "time": 80.9999595,
          "velocity": 0.3937007874015748
        },
        {
          "duration": 0.5294114999999948,
          "durationTicks": 288,
          "midi": 63,
          "name": "D#4",
          "ticks": 44064,
          "time": 80.9999595,
          "velocity": 0.3937007874015748
        },
        {
          "duration": 0.5294114999999948,
          "durationTicks": 288,
          "midi": 67,
          "name": "G4",
          "ticks": 44064,
          "time": 80.9999595,
          "velocity": 0.3937007874015748
        },
        {
          "duration": 0.5294114999999948,
          "durationTicks": 288,
          "midi": 68,
          "name": "G#4",
          "ticks": 44064,
          "time": 80.9999595,
          "velocity": 0.3937007874015748
        },
        {
          "duration": 0.529411500000009,
          "durationTicks": 288,
          "midi": 36,
          "name": "C2",
          "ticks": 44352,
          "time": 81.529371,
          "velocity": 0.3937007874015748
        },
        {
          "duration": 0.529411500000009,
          "durationTicks": 288,
          "midi": 48,
          "name": "C3",
          "ticks": 44352,
          "time": 81.529371,
          "velocity": 0.3937007874015748
        },
        {
          "duration": 0.529411500000009,
          "durationTicks": 288,
          "midi": 60,
          "name": "C4",
          "ticks": 44352,
          "time": 81.529371,
          "velocity": 0.3937007874015748
        },
        {
          "duration": 0.529411500000009,
          "durationTicks": 288,
          "midi": 63,
          "name": "D#4",
          "ticks": 44352,
          "time": 81.529371,
          "velocity": 0.3937007874015748
        },
        {
          "duration": 0.529411500000009,
          "durationTicks": 288,
          "midi": 65,
          "name": "F4",
          "ticks": 44352,
          "time": 81.529371,
          "velocity": 0.3937007874015748
        },
        {
          "duration": 0.529411500000009,
          "durationTicks": 288,
          "midi": 67,
          "name": "G4",
          "ticks": 44352,
          "time": 81.529371,
          "velocity": 0.3937007874015748
        },
        {
          "duration": 0.529411500000009,
          "durationTicks": 288,
          "midi": 70,
          "name": "A#4",
          "ticks": 44352,
          "time": 81.529371,
          "velocity": 0.3937007874015748
        },
        {
          "duration": 0.5294114999999948,
          "durationTicks": 288,
          "midi": 36,
          "name": "C2",
          "ticks": 44640,
          "time": 82.0587825,
          "velocity": 0.3937007874015748
        },
        {
          "duration": 0.5294114999999948,
          "durationTicks": 288,
          "midi": 48,
          "name": "C3",
          "ticks": 44640,
          "time": 82.0587825,
          "velocity": 0.3937007874015748
        },
        {
          "duration": 0.5294114999999948,
          "durationTicks": 288,
          "midi": 60,
          "name": "C4",
          "ticks": 44640,
          "time": 82.0587825,
          "velocity": 0.3937007874015748
        },
        {
          "duration": 0.5294114999999948,
          "durationTicks": 288,
          "midi": 63,
          "name": "D#4",
          "ticks": 44640,
          "time": 82.0587825,
          "velocity": 0.3937007874015748
        },
        {
          "duration": 0.5294114999999948,
          "durationTicks": 288,
          "midi": 65,
          "name": "F4",
          "ticks": 44640,
          "time": 82.0587825,
          "velocity": 0.3937007874015748
        },
        {
          "duration": 0.5294114999999948,
          "durationTicks": 288,
          "midi": 67,
          "name": "G4",
          "ticks": 44640,
          "time": 82.0587825,
          "velocity": 0.3937007874015748
        },
        {
          "duration": 0.5294114999999948,
          "durationTicks": 288,
          "midi": 70,
          "name": "A#4",
          "ticks": 44640,
          "time": 82.0587825,
          "velocity": 0.3937007874015748
        },
        {
          "duration": 0.5294114999999948,
          "durationTicks": 288,
          "midi": 36,
          "name": "C2",
          "ticks": 44928,
          "time": 82.588194,
          "velocity": 0.3937007874015748
        },
        {
          "duration": 0.5294114999999948,
          "durationTicks": 288,
          "midi": 48,
          "name": "C3",
          "ticks": 44928,
          "time": 82.588194,
          "velocity": 0.3937007874015748
        },
        {
          "duration": 0.5294114999999948,
          "durationTicks": 288,
          "midi": 60,
          "name": "C4",
          "ticks": 44928,
          "time": 82.588194,
          "velocity": 0.3937007874015748
        },
        {
          "duration": 0.5294114999999948,
          "durationTicks": 288,
          "midi": 63,
          "name": "D#4",
          "ticks": 44928,
          "time": 82.588194,
          "velocity": 0.3937007874015748
        },
        {
          "duration": 0.5294114999999948,
          "durationTicks": 288,
          "midi": 65,
          "name": "F4",
          "ticks": 44928,
          "time": 82.588194,
          "velocity": 0.3937007874015748
        },
        {
          "duration": 0.5294114999999948,
          "durationTicks": 288,
          "midi": 67,
          "name": "G4",
          "ticks": 44928,
          "time": 82.588194,
          "velocity": 0.3937007874015748
        },
        {
          "duration": 0.5294114999999948,
          "durationTicks": 288,
          "midi": 70,
          "name": "A#4",
          "ticks": 44928,
          "time": 82.588194,
          "velocity": 0.3937007874015748
        },
        {
          "duration": 0.529411500000009,
          "durationTicks": 288,
          "midi": 36,
          "name": "C2",
          "ticks": 45216,
          "time": 83.1176055,
          "velocity": 0.3937007874015748
        },
        {
          "duration": 0.529411500000009,
          "durationTicks": 288,
          "midi": 48,
          "name": "C3",
          "ticks": 45216,
          "time": 83.1176055,
          "velocity": 0.3937007874015748
        },
        {
          "duration": 0.529411500000009,
          "durationTicks": 288,
          "midi": 60,
          "name": "C4",
          "ticks": 45216,
          "time": 83.1176055,
          "velocity": 0.3937007874015748
        },
        {
          "duration": 0.529411500000009,
          "durationTicks": 288,
          "midi": 63,
          "name": "D#4",
          "ticks": 45216,
          "time": 83.1176055,
          "velocity": 0.3937007874015748
        },
        {
          "duration": 0.529411500000009,
          "durationTicks": 288,
          "midi": 65,
          "name": "F4",
          "ticks": 45216,
          "time": 83.1176055,
          "velocity": 0.3937007874015748
        },
        {
          "duration": 0.529411500000009,
          "durationTicks": 288,
          "midi": 67,
          "name": "G4",
          "ticks": 45216,
          "time": 83.1176055,
          "velocity": 0.3937007874015748
        },
        {
          "duration": 0.529411500000009,
          "durationTicks": 288,
          "midi": 70,
          "name": "A#4",
          "ticks": 45216,
          "time": 83.1176055,
          "velocity": 0.3937007874015748
        },
        {
          "duration": 0.5294114999999948,
          "durationTicks": 288,
          "midi": 36,
          "name": "C2",
          "ticks": 45504,
          "time": 83.647017,
          "velocity": 0.3937007874015748
        },
        {
          "duration": 0.5294114999999948,
          "durationTicks": 288,
          "midi": 48,
          "name": "C3",
          "ticks": 45504,
          "time": 83.647017,
          "velocity": 0.3937007874015748
        },
        {
          "duration": 0.5294114999999948,
          "durationTicks": 288,
          "midi": 60,
          "name": "C4",
          "ticks": 45504,
          "time": 83.647017,
          "velocity": 0.3937007874015748
        },
        {
          "duration": 0.5294114999999948,
          "durationTicks": 288,
          "midi": 63,
          "name": "D#4",
          "ticks": 45504,
          "time": 83.647017,
          "velocity": 0.3937007874015748
        },
        {
          "duration": 0.5294114999999948,
          "durationTicks": 288,
          "midi": 65,
          "name": "F4",
          "ticks": 45504,
          "time": 83.647017,
          "velocity": 0.3937007874015748
        },
        {
          "duration": 0.5294114999999948,
          "durationTicks": 288,
          "midi": 67,
          "name": "G4",
          "ticks": 45504,
          "time": 83.647017,
          "velocity": 0.3937007874015748
        },
        {
          "duration": 0.5294114999999948,
          "durationTicks": 288,
          "midi": 70,
          "name": "A#4",
          "ticks": 45504,
          "time": 83.647017,
          "velocity": 0.3937007874015748
        },
        {
          "duration": 0.5294114999999948,
          "durationTicks": 288,
          "midi": 36,
          "name": "C2",
          "ticks": 45792,
          "time": 84.1764285,
          "velocity": 0.3937007874015748
        },
        {
          "duration": 0.5294114999999948,
          "durationTicks": 288,
          "midi": 48,
          "name": "C3",
          "ticks": 45792,
          "time": 84.1764285,
          "velocity": 0.3937007874015748
        },
        {
          "duration": 0.5294114999999948,
          "durationTicks": 288,
          "midi": 60,
          "name": "C4",
          "ticks": 45792,
          "time": 84.1764285,
          "velocity": 0.3937007874015748
        },
        {
          "duration": 0.5294114999999948,
          "durationTicks": 288,
          "midi": 63,
          "name": "D#4",
          "ticks": 45792,
          "time": 84.1764285,
          "velocity": 0.3937007874015748
        },
        {
          "duration": 0.5294114999999948,
          "durationTicks": 288,
          "midi": 65,
          "name": "F4",
          "ticks": 45792,
          "time": 84.1764285,
          "velocity": 0.3937007874015748
        },
        {
          "duration": 0.5294114999999948,
          "durationTicks": 288,
          "midi": 67,
          "name": "G4",
          "ticks": 45792,
          "time": 84.1764285,
          "velocity": 0.3937007874015748
        },
        {
          "duration": 0.5294114999999948,
          "durationTicks": 288,
          "midi": 70,
          "name": "A#4",
          "ticks": 45792,
          "time": 84.1764285,
          "velocity": 0.3937007874015748
        },
        {
          "duration": 0.529411500000009,
          "durationTicks": 288,
          "midi": 29,
          "name": "F1",
          "ticks": 46080,
          "time": 84.70584,
          "velocity": 0.3937007874015748
        },
        {
          "duration": 0.529411500000009,
          "durationTicks": 288,
          "midi": 41,
          "name": "F2",
          "ticks": 46080,
          "time": 84.70584,
          "velocity": 0.3937007874015748
        },
        {
          "duration": 0.529411500000009,
          "durationTicks": 288,
          "midi": 53,
          "name": "F3",
          "ticks": 46080,
          "time": 84.70584,
          "velocity": 0.3937007874015748
        },
        {
          "duration": 0.529411500000009,
          "durationTicks": 288,
          "midi": 56,
          "name": "G#3",
          "ticks": 46080,
          "time": 84.70584,
          "velocity": 0.3937007874015748
        },
        {
          "duration": 0.529411500000009,
          "durationTicks": 288,
          "midi": 60,
          "name": "C4",
          "ticks": 46080,
          "time": 84.70584,
          "velocity": 0.3937007874015748
        },
        {
          "duration": 0.529411500000009,
          "durationTicks": 288,
          "midi": 63,
          "name": "D#4",
          "ticks": 46080,
          "time": 84.70584,
          "velocity": 0.3937007874015748
        },
        {
          "duration": 0.529411500000009,
          "durationTicks": 288,
          "midi": 68,
          "name": "G#4",
          "ticks": 46080,
          "time": 84.70584,
          "velocity": 0.3937007874015748
        },
        {
          "duration": 0.5294114999999948,
          "durationTicks": 288,
          "midi": 29,
          "name": "F1",
          "ticks": 46368,
          "time": 85.2352515,
          "velocity": 0.3937007874015748
        },
        {
          "duration": 0.5294114999999948,
          "durationTicks": 288,
          "midi": 41,
          "name": "F2",
          "ticks": 46368,
          "time": 85.2352515,
          "velocity": 0.3937007874015748
        },
        {
          "duration": 0.5294114999999948,
          "durationTicks": 288,
          "midi": 53,
          "name": "F3",
          "ticks": 46368,
          "time": 85.2352515,
          "velocity": 0.3937007874015748
        },
        {
          "duration": 0.5294114999999948,
          "durationTicks": 288,
          "midi": 56,
          "name": "G#3",
          "ticks": 46368,
          "time": 85.2352515,
          "velocity": 0.3937007874015748
        },
        {
          "duration": 0.5294114999999948,
          "durationTicks": 288,
          "midi": 60,
          "name": "C4",
          "ticks": 46368,
          "time": 85.2352515,
          "velocity": 0.3937007874015748
        },
        {
          "duration": 0.5294114999999948,
          "durationTicks": 288,
          "midi": 63,
          "name": "D#4",
          "ticks": 46368,
          "time": 85.2352515,
          "velocity": 0.3937007874015748
        },
        {
          "duration": 0.5294114999999948,
          "durationTicks": 288,
          "midi": 68,
          "name": "G#4",
          "ticks": 46368,
          "time": 85.2352515,
          "velocity": 0.3937007874015748
        },
        {
          "duration": 0.3529410000000013,
          "durationTicks": 192,
          "midi": 29,
          "name": "F1",
          "ticks": 46656,
          "time": 85.764663,
          "velocity": 0.3937007874015748
        },
        {
          "duration": 0.3529410000000013,
          "durationTicks": 192,
          "midi": 41,
          "name": "F2",
          "ticks": 46656,
          "time": 85.764663,
          "velocity": 0.3937007874015748
        },
        {
          "duration": 0.3529410000000013,
          "durationTicks": 192,
          "midi": 53,
          "name": "F3",
          "ticks": 46656,
          "time": 85.764663,
          "velocity": 0.3937007874015748
        },
        {
          "duration": 0.3529410000000013,
          "durationTicks": 192,
          "midi": 56,
          "name": "G#3",
          "ticks": 46656,
          "time": 85.764663,
          "velocity": 0.3937007874015748
        },
        {
          "duration": 0.3529410000000013,
          "durationTicks": 192,
          "midi": 60,
          "name": "C4",
          "ticks": 46656,
          "time": 85.764663,
          "velocity": 0.3937007874015748
        },
        {
          "duration": 0.3529410000000013,
          "durationTicks": 192,
          "midi": 63,
          "name": "D#4",
          "ticks": 46656,
          "time": 85.764663,
          "velocity": 0.3937007874015748
        },
        {
          "duration": 0.3529410000000013,
          "durationTicks": 192,
          "midi": 68,
          "name": "G#4",
          "ticks": 46656,
          "time": 85.764663,
          "velocity": 0.3937007874015748
        },
        {
          "duration": 0.5294114999999948,
          "durationTicks": 288,
          "midi": 34,
          "name": "A#1",
          "ticks": 46848,
          "time": 86.117604,
          "velocity": 0.3937007874015748
        },
        {
          "duration": 0.5294114999999948,
          "durationTicks": 288,
          "midi": 46,
          "name": "A#2",
          "ticks": 46848,
          "time": 86.117604,
          "velocity": 0.3937007874015748
        },
        {
          "duration": 0.5294114999999948,
          "durationTicks": 288,
          "midi": 58,
          "name": "A#3",
          "ticks": 46848,
          "time": 86.117604,
          "velocity": 0.3937007874015748
        },
        {
          "duration": 0.5294114999999948,
          "durationTicks": 288,
          "midi": 61,
          "name": "C#4",
          "ticks": 46848,
          "time": 86.117604,
          "velocity": 0.3937007874015748
        },
        {
          "duration": 0.5294114999999948,
          "durationTicks": 288,
          "midi": 65,
          "name": "F4",
          "ticks": 46848,
          "time": 86.117604,
          "velocity": 0.3937007874015748
        },
        {
          "duration": 0.5294114999999948,
          "durationTicks": 288,
          "midi": 67,
          "name": "G4",
          "ticks": 46848,
          "time": 86.117604,
          "velocity": 0.3937007874015748
        },
        {
          "duration": 0.5294114999999948,
          "durationTicks": 288,
          "midi": 68,
          "name": "G#4",
          "ticks": 46848,
          "time": 86.117604,
          "velocity": 0.3937007874015748
        },
        {
          "duration": 0.529411500000009,
          "durationTicks": 288,
          "midi": 34,
          "name": "A#1",
          "ticks": 47136,
          "time": 86.6470155,
          "velocity": 0.3937007874015748
        },
        {
          "duration": 0.529411500000009,
          "durationTicks": 288,
          "midi": 46,
          "name": "A#2",
          "ticks": 47136,
          "time": 86.6470155,
          "velocity": 0.3937007874015748
        },
        {
          "duration": 0.529411500000009,
          "durationTicks": 288,
          "midi": 58,
          "name": "A#3",
          "ticks": 47136,
          "time": 86.6470155,
          "velocity": 0.3937007874015748
        },
        {
          "duration": 0.529411500000009,
          "durationTicks": 288,
          "midi": 61,
          "name": "C#4",
          "ticks": 47136,
          "time": 86.6470155,
          "velocity": 0.3937007874015748
        },
        {
          "duration": 0.529411500000009,
          "durationTicks": 288,
          "midi": 65,
          "name": "F4",
          "ticks": 47136,
          "time": 86.6470155,
          "velocity": 0.3937007874015748
        },
        {
          "duration": 0.529411500000009,
          "durationTicks": 288,
          "midi": 67,
          "name": "G4",
          "ticks": 47136,
          "time": 86.6470155,
          "velocity": 0.3937007874015748
        },
        {
          "duration": 0.529411500000009,
          "durationTicks": 288,
          "midi": 68,
          "name": "G#4",
          "ticks": 47136,
          "time": 86.6470155,
          "velocity": 0.3937007874015748
        },
        {
          "duration": 0.5294114999999948,
          "durationTicks": 288,
          "midi": 32,
          "name": "G#1",
          "ticks": 47424,
          "time": 87.176427,
          "velocity": 0.3937007874015748
        },
        {
          "duration": 0.5294114999999948,
          "durationTicks": 288,
          "midi": 44,
          "name": "G#2",
          "ticks": 47424,
          "time": 87.176427,
          "velocity": 0.3937007874015748
        },
        {
          "duration": 0.5294114999999948,
          "durationTicks": 288,
          "midi": 56,
          "name": "G#3",
          "ticks": 47424,
          "time": 87.176427,
          "velocity": 0.3937007874015748
        },
        {
          "duration": 0.5294114999999948,
          "durationTicks": 288,
          "midi": 60,
          "name": "C4",
          "ticks": 47424,
          "time": 87.176427,
          "velocity": 0.3937007874015748
        },
        {
          "duration": 0.5294114999999948,
          "durationTicks": 288,
          "midi": 63,
          "name": "D#4",
          "ticks": 47424,
          "time": 87.176427,
          "velocity": 0.3937007874015748
        },
        {
          "duration": 0.5294114999999948,
          "durationTicks": 288,
          "midi": 65,
          "name": "F4",
          "ticks": 47424,
          "time": 87.176427,
          "velocity": 0.3937007874015748
        },
        {
          "duration": 0.5294114999999948,
          "durationTicks": 288,
          "midi": 67,
          "name": "G4",
          "ticks": 47424,
          "time": 87.176427,
          "velocity": 0.3937007874015748
        },
        {
          "duration": 0.529411500000009,
          "durationTicks": 288,
          "midi": 32,
          "name": "G#1",
          "ticks": 47712,
          "time": 87.7058385,
          "velocity": 0.3937007874015748
        },
        {
          "duration": 0.529411500000009,
          "durationTicks": 288,
          "midi": 44,
          "name": "G#2",
          "ticks": 47712,
          "time": 87.7058385,
          "velocity": 0.3937007874015748
        },
        {
          "duration": 0.529411500000009,
          "durationTicks": 288,
          "midi": 56,
          "name": "G#3",
          "ticks": 47712,
          "time": 87.7058385,
          "velocity": 0.3937007874015748
        },
        {
          "duration": 0.529411500000009,
          "durationTicks": 288,
          "midi": 60,
          "name": "C4",
          "ticks": 47712,
          "time": 87.7058385,
          "velocity": 0.3937007874015748
        },
        {
          "duration": 0.529411500000009,
          "durationTicks": 288,
          "midi": 63,
          "name": "D#4",
          "ticks": 47712,
          "time": 87.7058385,
          "velocity": 0.3937007874015748
        },
        {
          "duration": 0.529411500000009,
          "durationTicks": 288,
          "midi": 65,
          "name": "F4",
          "ticks": 47712,
          "time": 87.7058385,
          "velocity": 0.3937007874015748
        },
        {
          "duration": 0.529411500000009,
          "durationTicks": 288,
          "midi": 67,
          "name": "G4",
          "ticks": 47712,
          "time": 87.7058385,
          "velocity": 0.3937007874015748
        },
        {
          "duration": 0.5294114999999948,
          "durationTicks": 288,
          "midi": 32,
          "name": "G#1",
          "ticks": 48000,
          "time": 88.23525000000001,
          "velocity": 0.3937007874015748
        },
        {
          "duration": 0.5294114999999948,
          "durationTicks": 288,
          "midi": 44,
          "name": "G#2",
          "ticks": 48000,
          "time": 88.23525000000001,
          "velocity": 0.3937007874015748
        },
        {
          "duration": 0.5294114999999948,
          "durationTicks": 288,
          "midi": 56,
          "name": "G#3",
          "ticks": 48000,
          "time": 88.23525000000001,
          "velocity": 0.3937007874015748
        },
        {
          "duration": 0.5294114999999948,
          "durationTicks": 288,
          "midi": 60,
          "name": "C4",
          "ticks": 48000,
          "time": 88.23525000000001,
          "velocity": 0.3937007874015748
        },
        {
          "duration": 0.5294114999999948,
          "durationTicks": 288,
          "midi": 63,
          "name": "D#4",
          "ticks": 48000,
          "time": 88.23525000000001,
          "velocity": 0.3937007874015748
        },
        {
          "duration": 0.5294114999999948,
          "durationTicks": 288,
          "midi": 65,
          "name": "F4",
          "ticks": 48000,
          "time": 88.23525000000001,
          "velocity": 0.3937007874015748
        },
        {
          "duration": 0.5294114999999948,
          "durationTicks": 288,
          "midi": 67,
          "name": "G4",
          "ticks": 48000,
          "time": 88.23525000000001,
          "velocity": 0.3937007874015748
        },
        {
          "duration": 0.5294114999999948,
          "durationTicks": 288,
          "midi": 32,
          "name": "G#1",
          "ticks": 48288,
          "time": 88.7646615,
          "velocity": 0.3937007874015748
        },
        {
          "duration": 0.5294114999999948,
          "durationTicks": 288,
          "midi": 44,
          "name": "G#2",
          "ticks": 48288,
          "time": 88.7646615,
          "velocity": 0.3937007874015748
        },
        {
          "duration": 0.5294114999999948,
          "durationTicks": 288,
          "midi": 56,
          "name": "G#3",
          "ticks": 48288,
          "time": 88.7646615,
          "velocity": 0.3937007874015748
        },
        {
          "duration": 0.5294114999999948,
          "durationTicks": 288,
          "midi": 60,
          "name": "C4",
          "ticks": 48288,
          "time": 88.7646615,
          "velocity": 0.3937007874015748
        },
        {
          "duration": 0.5294114999999948,
          "durationTicks": 288,
          "midi": 63,
          "name": "D#4",
          "ticks": 48288,
          "time": 88.7646615,
          "velocity": 0.3937007874015748
        },
        {
          "duration": 0.5294114999999948,
          "durationTicks": 288,
          "midi": 65,
          "name": "F4",
          "ticks": 48288,
          "time": 88.7646615,
          "velocity": 0.3937007874015748
        },
        {
          "duration": 0.5294114999999948,
          "durationTicks": 288,
          "midi": 67,
          "name": "G4",
          "ticks": 48288,
          "time": 88.7646615,
          "velocity": 0.3937007874015748
        },
        {
          "duration": 0.529411500000009,
          "durationTicks": 288,
          "midi": 32,
          "name": "G#1",
          "ticks": 48576,
          "time": 89.294073,
          "velocity": 0.3937007874015748
        },
        {
          "duration": 0.529411500000009,
          "durationTicks": 288,
          "midi": 44,
          "name": "G#2",
          "ticks": 48576,
          "time": 89.294073,
          "velocity": 0.3937007874015748
        },
        {
          "duration": 0.529411500000009,
          "durationTicks": 288,
          "midi": 56,
          "name": "G#3",
          "ticks": 48576,
          "time": 89.294073,
          "velocity": 0.3937007874015748
        },
        {
          "duration": 0.529411500000009,
          "durationTicks": 288,
          "midi": 60,
          "name": "C4",
          "ticks": 48576,
          "time": 89.294073,
          "velocity": 0.3937007874015748
        },
        {
          "duration": 0.529411500000009,
          "durationTicks": 288,
          "midi": 63,
          "name": "D#4",
          "ticks": 48576,
          "time": 89.294073,
          "velocity": 0.3937007874015748
        },
        {
          "duration": 0.529411500000009,
          "durationTicks": 288,
          "midi": 65,
          "name": "F4",
          "ticks": 48576,
          "time": 89.294073,
          "velocity": 0.3937007874015748
        },
        {
          "duration": 0.529411500000009,
          "durationTicks": 288,
          "midi": 67,
          "name": "G4",
          "ticks": 48576,
          "time": 89.294073,
          "velocity": 0.3937007874015748
        },
        {
          "duration": 0.5294114999999948,
          "durationTicks": 288,
          "midi": 32,
          "name": "G#1",
          "ticks": 48864,
          "time": 89.8234845,
          "velocity": 0.3937007874015748
        },
        {
          "duration": 0.5294114999999948,
          "durationTicks": 288,
          "midi": 44,
          "name": "G#2",
          "ticks": 48864,
          "time": 89.8234845,
          "velocity": 0.3937007874015748
        },
        {
          "duration": 0.5294114999999948,
          "durationTicks": 288,
          "midi": 56,
          "name": "G#3",
          "ticks": 48864,
          "time": 89.8234845,
          "velocity": 0.3937007874015748
        },
        {
          "duration": 0.5294114999999948,
          "durationTicks": 288,
          "midi": 60,
          "name": "C4",
          "ticks": 48864,
          "time": 89.8234845,
          "velocity": 0.3937007874015748
        },
        {
          "duration": 0.5294114999999948,
          "durationTicks": 288,
          "midi": 63,
          "name": "D#4",
          "ticks": 48864,
          "time": 89.8234845,
          "velocity": 0.3937007874015748
        },
        {
          "duration": 0.5294114999999948,
          "durationTicks": 288,
          "midi": 65,
          "name": "F4",
          "ticks": 48864,
          "time": 89.8234845,
          "velocity": 0.3937007874015748
        },
        {
          "duration": 0.5294114999999948,
          "durationTicks": 288,
          "midi": 67,
          "name": "G4",
          "ticks": 48864,
          "time": 89.8234845,
          "velocity": 0.3937007874015748
        },
        {
          "duration": 0.5294114999999948,
          "durationTicks": 288,
          "midi": 29,
          "name": "F1",
          "ticks": 49152,
          "time": 90.352896,
          "velocity": 0.3937007874015748
        },
        {
          "duration": 0.5294114999999948,
          "durationTicks": 288,
          "midi": 41,
          "name": "F2",
          "ticks": 49152,
          "time": 90.352896,
          "velocity": 0.3937007874015748
        },
        {
          "duration": 0.5294114999999948,
          "durationTicks": 288,
          "midi": 53,
          "name": "F3",
          "ticks": 49152,
          "time": 90.352896,
          "velocity": 0.3937007874015748
        },
        {
          "duration": 0.5294114999999948,
          "durationTicks": 288,
          "midi": 56,
          "name": "G#3",
          "ticks": 49152,
          "time": 90.352896,
          "velocity": 0.3937007874015748
        },
        {
          "duration": 0.5294114999999948,
          "durationTicks": 288,
          "midi": 60,
          "name": "C4",
          "ticks": 49152,
          "time": 90.352896,
          "velocity": 0.3937007874015748
        },
        {
          "duration": 0.5294114999999948,
          "durationTicks": 288,
          "midi": 63,
          "name": "D#4",
          "ticks": 49152,
          "time": 90.352896,
          "velocity": 0.3937007874015748
        },
        {
          "duration": 0.5294114999999948,
          "durationTicks": 288,
          "midi": 68,
          "name": "G#4",
          "ticks": 49152,
          "time": 90.352896,
          "velocity": 0.3937007874015748
        },
        {
          "duration": 0.529411500000009,
          "durationTicks": 288,
          "midi": 29,
          "name": "F1",
          "ticks": 49440,
          "time": 90.8823075,
          "velocity": 0.3937007874015748
        },
        {
          "duration": 0.529411500000009,
          "durationTicks": 288,
          "midi": 41,
          "name": "F2",
          "ticks": 49440,
          "time": 90.8823075,
          "velocity": 0.3937007874015748
        },
        {
          "duration": 0.529411500000009,
          "durationTicks": 288,
          "midi": 53,
          "name": "F3",
          "ticks": 49440,
          "time": 90.8823075,
          "velocity": 0.3937007874015748
        },
        {
          "duration": 0.529411500000009,
          "durationTicks": 288,
          "midi": 56,
          "name": "G#3",
          "ticks": 49440,
          "time": 90.8823075,
          "velocity": 0.3937007874015748
        },
        {
          "duration": 0.529411500000009,
          "durationTicks": 288,
          "midi": 60,
          "name": "C4",
          "ticks": 49440,
          "time": 90.8823075,
          "velocity": 0.3937007874015748
        },
        {
          "duration": 0.529411500000009,
          "durationTicks": 288,
          "midi": 63,
          "name": "D#4",
          "ticks": 49440,
          "time": 90.8823075,
          "velocity": 0.3937007874015748
        },
        {
          "duration": 0.529411500000009,
          "durationTicks": 288,
          "midi": 68,
          "name": "G#4",
          "ticks": 49440,
          "time": 90.8823075,
          "velocity": 0.3937007874015748
        },
        {
          "duration": 0.3529410000000013,
          "durationTicks": 192,
          "midi": 29,
          "name": "F1",
          "ticks": 49728,
          "time": 91.411719,
          "velocity": 0.3937007874015748
        },
        {
          "duration": 0.3529410000000013,
          "durationTicks": 192,
          "midi": 41,
          "name": "F2",
          "ticks": 49728,
          "time": 91.411719,
          "velocity": 0.3937007874015748
        },
        {
          "duration": 0.3529410000000013,
          "durationTicks": 192,
          "midi": 53,
          "name": "F3",
          "ticks": 49728,
          "time": 91.411719,
          "velocity": 0.3937007874015748
        },
        {
          "duration": 0.3529410000000013,
          "durationTicks": 192,
          "midi": 56,
          "name": "G#3",
          "ticks": 49728,
          "time": 91.411719,
          "velocity": 0.3937007874015748
        },
        {
          "duration": 0.3529410000000013,
          "durationTicks": 192,
          "midi": 60,
          "name": "C4",
          "ticks": 49728,
          "time": 91.411719,
          "velocity": 0.3937007874015748
        },
        {
          "duration": 0.3529410000000013,
          "durationTicks": 192,
          "midi": 63,
          "name": "D#4",
          "ticks": 49728,
          "time": 91.411719,
          "velocity": 0.3937007874015748
        },
        {
          "duration": 0.3529410000000013,
          "durationTicks": 192,
          "midi": 68,
          "name": "G#4",
          "ticks": 49728,
          "time": 91.411719,
          "velocity": 0.3937007874015748
        },
        {
          "duration": 0.5294114999999948,
          "durationTicks": 288,
          "midi": 32,
          "name": "G#1",
          "ticks": 49920,
          "time": 91.76466,
          "velocity": 0.3937007874015748
        },
        {
          "duration": 0.5294114999999948,
          "durationTicks": 288,
          "midi": 44,
          "name": "G#2",
          "ticks": 49920,
          "time": 91.76466,
          "velocity": 0.3937007874015748
        },
        {
          "duration": 0.5294114999999948,
          "durationTicks": 288,
          "midi": 56,
          "name": "G#3",
          "ticks": 49920,
          "time": 91.76466,
          "velocity": 0.3937007874015748
        },
        {
          "duration": 0.5294114999999948,
          "durationTicks": 288,
          "midi": 60,
          "name": "C4",
          "ticks": 49920,
          "time": 91.76466,
          "velocity": 0.3937007874015748
        },
        {
          "duration": 0.5294114999999948,
          "durationTicks": 288,
          "midi": 63,
          "name": "D#4",
          "ticks": 49920,
          "time": 91.76466,
          "velocity": 0.3937007874015748
        },
        {
          "duration": 0.5294114999999948,
          "durationTicks": 288,
          "midi": 67,
          "name": "G4",
          "ticks": 49920,
          "time": 91.76466,
          "velocity": 0.3937007874015748
        },
        {
          "duration": 0.5294114999999948,
          "durationTicks": 288,
          "midi": 70,
          "name": "A#4",
          "ticks": 49920,
          "time": 91.76466,
          "velocity": 0.3937007874015748
        },
        {
          "duration": 0.5294114999999948,
          "durationTicks": 288,
          "midi": 32,
          "name": "G#1",
          "ticks": 50208,
          "time": 92.2940715,
          "velocity": 0.3937007874015748
        },
        {
          "duration": 0.5294114999999948,
          "durationTicks": 288,
          "midi": 44,
          "name": "G#2",
          "ticks": 50208,
          "time": 92.2940715,
          "velocity": 0.3937007874015748
        },
        {
          "duration": 0.5294114999999948,
          "durationTicks": 288,
          "midi": 56,
          "name": "G#3",
          "ticks": 50208,
          "time": 92.2940715,
          "velocity": 0.3937007874015748
        },
        {
          "duration": 0.5294114999999948,
          "durationTicks": 288,
          "midi": 60,
          "name": "C4",
          "ticks": 50208,
          "time": 92.2940715,
          "velocity": 0.3937007874015748
        },
        {
          "duration": 0.5294114999999948,
          "durationTicks": 288,
          "midi": 63,
          "name": "D#4",
          "ticks": 50208,
          "time": 92.2940715,
          "velocity": 0.3937007874015748
        },
        {
          "duration": 0.5294114999999948,
          "durationTicks": 288,
          "midi": 67,
          "name": "G4",
          "ticks": 50208,
          "time": 92.2940715,
          "velocity": 0.3937007874015748
        },
        {
          "duration": 0.5294114999999948,
          "durationTicks": 288,
          "midi": 70,
          "name": "A#4",
          "ticks": 50208,
          "time": 92.2940715,
          "velocity": 0.3937007874015748
        },
        {
          "duration": 0.529411500000009,
          "durationTicks": 288,
          "midi": 36,
          "name": "C2",
          "ticks": 50496,
          "time": 92.823483,
          "velocity": 0.3937007874015748
        },
        {
          "duration": 0.529411500000009,
          "durationTicks": 288,
          "midi": 48,
          "name": "C3",
          "ticks": 50496,
          "time": 92.823483,
          "velocity": 0.3937007874015748
        },
        {
          "duration": 0.529411500000009,
          "durationTicks": 288,
          "midi": 60,
          "name": "C4",
          "ticks": 50496,
          "time": 92.823483,
          "velocity": 0.3937007874015748
        },
        {
          "duration": 0.529411500000009,
          "durationTicks": 288,
          "midi": 63,
          "name": "D#4",
          "ticks": 50496,
          "time": 92.823483,
          "velocity": 0.3937007874015748
        },
        {
          "duration": 0.529411500000009,
          "durationTicks": 288,
          "midi": 67,
          "name": "G4",
          "ticks": 50496,
          "time": 92.823483,
          "velocity": 0.3937007874015748
        },
        {
          "duration": 0.529411500000009,
          "durationTicks": 288,
          "midi": 70,
          "name": "A#4",
          "ticks": 50496,
          "time": 92.823483,
          "velocity": 0.3937007874015748
        },
        {
          "duration": 0.529411500000009,
          "durationTicks": 288,
          "midi": 72,
          "name": "C5",
          "ticks": 50496,
          "time": 92.823483,
          "velocity": 0.3937007874015748
        },
        {
          "duration": 0.5294114999999948,
          "durationTicks": 288,
          "midi": 36,
          "name": "C2",
          "ticks": 50784,
          "time": 93.3528945,
          "velocity": 0.3937007874015748
        },
        {
          "duration": 0.5294114999999948,
          "durationTicks": 288,
          "midi": 48,
          "name": "C3",
          "ticks": 50784,
          "time": 93.3528945,
          "velocity": 0.3937007874015748
        },
        {
          "duration": 0.5294114999999948,
          "durationTicks": 288,
          "midi": 60,
          "name": "C4",
          "ticks": 50784,
          "time": 93.3528945,
          "velocity": 0.3937007874015748
        },
        {
          "duration": 0.5294114999999948,
          "durationTicks": 288,
          "midi": 63,
          "name": "D#4",
          "ticks": 50784,
          "time": 93.3528945,
          "velocity": 0.3937007874015748
        },
        {
          "duration": 0.5294114999999948,
          "durationTicks": 288,
          "midi": 67,
          "name": "G4",
          "ticks": 50784,
          "time": 93.3528945,
          "velocity": 0.3937007874015748
        },
        {
          "duration": 0.5294114999999948,
          "durationTicks": 288,
          "midi": 70,
          "name": "A#4",
          "ticks": 50784,
          "time": 93.3528945,
          "velocity": 0.3937007874015748
        },
        {
          "duration": 0.5294114999999948,
          "durationTicks": 288,
          "midi": 72,
          "name": "C5",
          "ticks": 50784,
          "time": 93.3528945,
          "velocity": 0.3937007874015748
        },
        {
          "duration": 0.5294114999999948,
          "durationTicks": 288,
          "midi": 36,
          "name": "C2",
          "ticks": 51072,
          "time": 93.882306,
          "velocity": 0.3937007874015748
        },
        {
          "duration": 0.5294114999999948,
          "durationTicks": 288,
          "midi": 48,
          "name": "C3",
          "ticks": 51072,
          "time": 93.882306,
          "velocity": 0.3937007874015748
        },
        {
          "duration": 0.5294114999999948,
          "durationTicks": 288,
          "midi": 60,
          "name": "C4",
          "ticks": 51072,
          "time": 93.882306,
          "velocity": 0.3937007874015748
        },
        {
          "duration": 0.5294114999999948,
          "durationTicks": 288,
          "midi": 63,
          "name": "D#4",
          "ticks": 51072,
          "time": 93.882306,
          "velocity": 0.3937007874015748
        },
        {
          "duration": 0.5294114999999948,
          "durationTicks": 288,
          "midi": 67,
          "name": "G4",
          "ticks": 51072,
          "time": 93.882306,
          "velocity": 0.3937007874015748
        },
        {
          "duration": 0.5294114999999948,
          "durationTicks": 288,
          "midi": 70,
          "name": "A#4",
          "ticks": 51072,
          "time": 93.882306,
          "velocity": 0.3937007874015748
        },
        {
          "duration": 0.5294114999999948,
          "durationTicks": 288,
          "midi": 72,
          "name": "C5",
          "ticks": 51072,
          "time": 93.882306,
          "velocity": 0.3937007874015748
        },
        {
          "duration": 0.529411500000009,
          "durationTicks": 288,
          "midi": 36,
          "name": "C2",
          "ticks": 51360,
          "time": 94.4117175,
          "velocity": 0.3937007874015748
        },
        {
          "duration": 0.529411500000009,
          "durationTicks": 288,
          "midi": 48,
          "name": "C3",
          "ticks": 51360,
          "time": 94.4117175,
          "velocity": 0.3937007874015748
        },
        {
          "duration": 0.529411500000009,
          "durationTicks": 288,
          "midi": 60,
          "name": "C4",
          "ticks": 51360,
          "time": 94.4117175,
          "velocity": 0.3937007874015748
        },
        {
          "duration": 0.529411500000009,
          "durationTicks": 288,
          "midi": 63,
          "name": "D#4",
          "ticks": 51360,
          "time": 94.4117175,
          "velocity": 0.3937007874015748
        },
        {
          "duration": 0.529411500000009,
          "durationTicks": 288,
          "midi": 67,
          "name": "G4",
          "ticks": 51360,
          "time": 94.4117175,
          "velocity": 0.3937007874015748
        },
        {
          "duration": 0.529411500000009,
          "durationTicks": 288,
          "midi": 70,
          "name": "A#4",
          "ticks": 51360,
          "time": 94.4117175,
          "velocity": 0.3937007874015748
        },
        {
          "duration": 0.529411500000009,
          "durationTicks": 288,
          "midi": 72,
          "name": "C5",
          "ticks": 51360,
          "time": 94.4117175,
          "velocity": 0.3937007874015748
        },
        {
          "duration": 0.5294114999999948,
          "durationTicks": 288,
          "midi": 36,
          "name": "C2",
          "ticks": 51648,
          "time": 94.941129,
          "velocity": 0.3937007874015748
        },
        {
          "duration": 0.5294114999999948,
          "durationTicks": 288,
          "midi": 48,
          "name": "C3",
          "ticks": 51648,
          "time": 94.941129,
          "velocity": 0.3937007874015748
        },
        {
          "duration": 0.5294114999999948,
          "durationTicks": 288,
          "midi": 60,
          "name": "C4",
          "ticks": 51648,
          "time": 94.941129,
          "velocity": 0.3937007874015748
        },
        {
          "duration": 0.5294114999999948,
          "durationTicks": 288,
          "midi": 63,
          "name": "D#4",
          "ticks": 51648,
          "time": 94.941129,
          "velocity": 0.3937007874015748
        },
        {
          "duration": 0.5294114999999948,
          "durationTicks": 288,
          "midi": 67,
          "name": "G4",
          "ticks": 51648,
          "time": 94.941129,
          "velocity": 0.3937007874015748
        },
        {
          "duration": 0.5294114999999948,
          "durationTicks": 288,
          "midi": 70,
          "name": "A#4",
          "ticks": 51648,
          "time": 94.941129,
          "velocity": 0.3937007874015748
        },
        {
          "duration": 0.5294114999999948,
          "durationTicks": 288,
          "midi": 72,
          "name": "C5",
          "ticks": 51648,
          "time": 94.941129,
          "velocity": 0.3937007874015748
        },
        {
          "duration": 0.529411500000009,
          "durationTicks": 288,
          "midi": 36,
          "name": "C2",
          "ticks": 51936,
          "time": 95.4705405,
          "velocity": 0.3937007874015748
        },
        {
          "duration": 0.529411500000009,
          "durationTicks": 288,
          "midi": 48,
          "name": "C3",
          "ticks": 51936,
          "time": 95.4705405,
          "velocity": 0.3937007874015748
        },
        {
          "duration": 0.529411500000009,
          "durationTicks": 288,
          "midi": 60,
          "name": "C4",
          "ticks": 51936,
          "time": 95.4705405,
          "velocity": 0.3937007874015748
        },
        {
          "duration": 0.529411500000009,
          "durationTicks": 288,
          "midi": 63,
          "name": "D#4",
          "ticks": 51936,
          "time": 95.4705405,
          "velocity": 0.3937007874015748
        },
        {
          "duration": 0.529411500000009,
          "durationTicks": 288,
          "midi": 67,
          "name": "G4",
          "ticks": 51936,
          "time": 95.4705405,
          "velocity": 0.3937007874015748
        },
        {
          "duration": 0.529411500000009,
          "durationTicks": 288,
          "midi": 70,
          "name": "A#4",
          "ticks": 51936,
          "time": 95.4705405,
          "velocity": 0.3937007874015748
        },
        {
          "duration": 0.529411500000009,
          "durationTicks": 288,
          "midi": 72,
          "name": "C5",
          "ticks": 51936,
          "time": 95.4705405,
          "velocity": 0.3937007874015748
        },
        {
          "duration": 0.5294114999999948,
          "durationTicks": 288,
          "midi": 29,
          "name": "F1",
          "ticks": 52224,
          "time": 95.99995200000001,
          "velocity": 0.3937007874015748
        },
        {
          "duration": 0.5294114999999948,
          "durationTicks": 288,
          "midi": 41,
          "name": "F2",
          "ticks": 52224,
          "time": 95.99995200000001,
          "velocity": 0.3937007874015748
        },
        {
          "duration": 0.5294114999999948,
          "durationTicks": 288,
          "midi": 53,
          "name": "F3",
          "ticks": 52224,
          "time": 95.99995200000001,
          "velocity": 0.3937007874015748
        },
        {
          "duration": 0.5294114999999948,
          "durationTicks": 288,
          "midi": 56,
          "name": "G#3",
          "ticks": 52224,
          "time": 95.99995200000001,
          "velocity": 0.3937007874015748
        },
        {
          "duration": 0.5294114999999948,
          "durationTicks": 288,
          "midi": 60,
          "name": "C4",
          "ticks": 52224,
          "time": 95.99995200000001,
          "velocity": 0.3937007874015748
        },
        {
          "duration": 0.5294114999999948,
          "durationTicks": 288,
          "midi": 63,
          "name": "D#4",
          "ticks": 52224,
          "time": 95.99995200000001,
          "velocity": 0.3937007874015748
        },
        {
          "duration": 0.5294114999999948,
          "durationTicks": 288,
          "midi": 75,
          "name": "D#5",
          "ticks": 52224,
          "time": 95.99995200000001,
          "velocity": 0.3937007874015748
        },
        {
          "duration": 0.5294114999999948,
          "durationTicks": 288,
          "midi": 29,
          "name": "F1",
          "ticks": 52512,
          "time": 96.5293635,
          "velocity": 0.3937007874015748
        },
        {
          "duration": 0.5294114999999948,
          "durationTicks": 288,
          "midi": 41,
          "name": "F2",
          "ticks": 52512,
          "time": 96.5293635,
          "velocity": 0.3937007874015748
        },
        {
          "duration": 0.5294114999999948,
          "durationTicks": 288,
          "midi": 53,
          "name": "F3",
          "ticks": 52512,
          "time": 96.5293635,
          "velocity": 0.3937007874015748
        },
        {
          "duration": 0.5294114999999948,
          "durationTicks": 288,
          "midi": 56,
          "name": "G#3",
          "ticks": 52512,
          "time": 96.5293635,
          "velocity": 0.3937007874015748
        },
        {
          "duration": 0.5294114999999948,
          "durationTicks": 288,
          "midi": 60,
          "name": "C4",
          "ticks": 52512,
          "time": 96.5293635,
          "velocity": 0.3937007874015748
        },
        {
          "duration": 0.5294114999999948,
          "durationTicks": 288,
          "midi": 63,
          "name": "D#4",
          "ticks": 52512,
          "time": 96.5293635,
          "velocity": 0.3937007874015748
        },
        {
          "duration": 0.5294114999999948,
          "durationTicks": 288,
          "midi": 75,
          "name": "D#5",
          "ticks": 52512,
          "time": 96.5293635,
          "velocity": 0.3937007874015748
        },
        {
          "duration": 0.3529410000000013,
          "durationTicks": 192,
          "midi": 29,
          "name": "F1",
          "ticks": 52800,
          "time": 97.058775,
          "velocity": 0.3937007874015748
        },
        {
          "duration": 0.3529410000000013,
          "durationTicks": 192,
          "midi": 41,
          "name": "F2",
          "ticks": 52800,
          "time": 97.058775,
          "velocity": 0.3937007874015748
        },
        {
          "duration": 0.3529410000000013,
          "durationTicks": 192,
          "midi": 53,
          "name": "F3",
          "ticks": 52800,
          "time": 97.058775,
          "velocity": 0.3937007874015748
        },
        {
          "duration": 0.3529410000000013,
          "durationTicks": 192,
          "midi": 56,
          "name": "G#3",
          "ticks": 52800,
          "time": 97.058775,
          "velocity": 0.3937007874015748
        },
        {
          "duration": 0.3529410000000013,
          "durationTicks": 192,
          "midi": 60,
          "name": "C4",
          "ticks": 52800,
          "time": 97.058775,
          "velocity": 0.3937007874015748
        },
        {
          "duration": 0.3529410000000013,
          "durationTicks": 192,
          "midi": 63,
          "name": "D#4",
          "ticks": 52800,
          "time": 97.058775,
          "velocity": 0.3937007874015748
        },
        {
          "duration": 0.3529410000000013,
          "durationTicks": 192,
          "midi": 75,
          "name": "D#5",
          "ticks": 52800,
          "time": 97.058775,
          "velocity": 0.3937007874015748
        },
        {
          "duration": 0.529411500000009,
          "durationTicks": 288,
          "midi": 34,
          "name": "A#1",
          "ticks": 52992,
          "time": 97.411716,
          "velocity": 0.3937007874015748
        },
        {
          "duration": 0.529411500000009,
          "durationTicks": 288,
          "midi": 46,
          "name": "A#2",
          "ticks": 52992,
          "time": 97.411716,
          "velocity": 0.3937007874015748
        },
        {
          "duration": 0.529411500000009,
          "durationTicks": 288,
          "midi": 58,
          "name": "A#3",
          "ticks": 52992,
          "time": 97.411716,
          "velocity": 0.3937007874015748
        },
        {
          "duration": 0.529411500000009,
          "durationTicks": 288,
          "midi": 61,
          "name": "C#4",
          "ticks": 52992,
          "time": 97.411716,
          "velocity": 0.3937007874015748
        },
        {
          "duration": 0.529411500000009,
          "durationTicks": 288,
          "midi": 65,
          "name": "F4",
          "ticks": 52992,
          "time": 97.411716,
          "velocity": 0.3937007874015748
        },
        {
          "duration": 0.529411500000009,
          "durationTicks": 288,
          "midi": 68,
          "name": "G#4",
          "ticks": 52992,
          "time": 97.411716,
          "velocity": 0.3937007874015748
        },
        {
          "duration": 0.529411500000009,
          "durationTicks": 288,
          "midi": 70,
          "name": "A#4",
          "ticks": 52992,
          "time": 97.411716,
          "velocity": 0.3937007874015748
        },
        {
          "duration": 0.5294114999999948,
          "durationTicks": 288,
          "midi": 34,
          "name": "A#1",
          "ticks": 53280,
          "time": 97.94112750000001,
          "velocity": 0.3937007874015748
        },
        {
          "duration": 0.5294114999999948,
          "durationTicks": 288,
          "midi": 46,
          "name": "A#2",
          "ticks": 53280,
          "time": 97.94112750000001,
          "velocity": 0.3937007874015748
        },
        {
          "duration": 0.5294114999999948,
          "durationTicks": 288,
          "midi": 58,
          "name": "A#3",
          "ticks": 53280,
          "time": 97.94112750000001,
          "velocity": 0.3937007874015748
        },
        {
          "duration": 0.5294114999999948,
          "durationTicks": 288,
          "midi": 61,
          "name": "C#4",
          "ticks": 53280,
          "time": 97.94112750000001,
          "velocity": 0.3937007874015748
        },
        {
          "duration": 0.5294114999999948,
          "durationTicks": 288,
          "midi": 65,
          "name": "F4",
          "ticks": 53280,
          "time": 97.94112750000001,
          "velocity": 0.3937007874015748
        },
        {
          "duration": 0.5294114999999948,
          "durationTicks": 288,
          "midi": 68,
          "name": "G#4",
          "ticks": 53280,
          "time": 97.94112750000001,
          "velocity": 0.3937007874015748
        },
        {
          "duration": 0.5294114999999948,
          "durationTicks": 288,
          "midi": 70,
          "name": "A#4",
          "ticks": 53280,
          "time": 97.94112750000001,
          "velocity": 0.3937007874015748
        },
        {
          "duration": 0.5294114999999948,
          "durationTicks": 288,
          "midi": 32,
          "name": "G#1",
          "ticks": 53568,
          "time": 98.470539,
          "velocity": 0.3937007874015748
        },
        {
          "duration": 0.5294114999999948,
          "durationTicks": 288,
          "midi": 44,
          "name": "G#2",
          "ticks": 53568,
          "time": 98.470539,
          "velocity": 0.3937007874015748
        },
        {
          "duration": 0.5294114999999948,
          "durationTicks": 288,
          "midi": 56,
          "name": "G#3",
          "ticks": 53568,
          "time": 98.470539,
          "velocity": 0.3937007874015748
        },
        {
          "duration": 0.5294114999999948,
          "durationTicks": 288,
          "midi": 60,
          "name": "C4",
          "ticks": 53568,
          "time": 98.470539,
          "velocity": 0.3937007874015748
        },
        {
          "duration": 0.5294114999999948,
          "durationTicks": 288,
          "midi": 63,
          "name": "D#4",
          "ticks": 53568,
          "time": 98.470539,
          "velocity": 0.3937007874015748
        },
        {
          "duration": 0.5294114999999948,
          "durationTicks": 288,
          "midi": 67,
          "name": "G4",
          "ticks": 53568,
          "time": 98.470539,
          "velocity": 0.3937007874015748
        },
        {
          "duration": 0.5294114999999948,
          "durationTicks": 288,
          "midi": 68,
          "name": "G#4",
          "ticks": 53568,
          "time": 98.470539,
          "velocity": 0.3937007874015748
        },
        {
          "duration": 0.529411500000009,
          "durationTicks": 288,
          "midi": 32,
          "name": "G#1",
          "ticks": 53856,
          "time": 98.9999505,
          "velocity": 0.3937007874015748
        },
        {
          "duration": 0.529411500000009,
          "durationTicks": 288,
          "midi": 44,
          "name": "G#2",
          "ticks": 53856,
          "time": 98.9999505,
          "velocity": 0.3937007874015748
        },
        {
          "duration": 0.529411500000009,
          "durationTicks": 288,
          "midi": 56,
          "name": "G#3",
          "ticks": 53856,
          "time": 98.9999505,
          "velocity": 0.3937007874015748
        },
        {
          "duration": 0.529411500000009,
          "durationTicks": 288,
          "midi": 60,
          "name": "C4",
          "ticks": 53856,
          "time": 98.9999505,
          "velocity": 0.3937007874015748
        },
        {
          "duration": 0.529411500000009,
          "durationTicks": 288,
          "midi": 63,
          "name": "D#4",
          "ticks": 53856,
          "time": 98.9999505,
          "velocity": 0.3937007874015748
        },
        {
          "duration": 0.529411500000009,
          "durationTicks": 288,
          "midi": 67,
          "name": "G4",
          "ticks": 53856,
          "time": 98.9999505,
          "velocity": 0.3937007874015748
        },
        {
          "duration": 0.529411500000009,
          "durationTicks": 288,
          "midi": 68,
          "name": "G#4",
          "ticks": 53856,
          "time": 98.9999505,
          "velocity": 0.3937007874015748
        },
        {
          "duration": 0.5294114999999948,
          "durationTicks": 288,
          "midi": 32,
          "name": "G#1",
          "ticks": 54144,
          "time": 99.529362,
          "velocity": 0.3937007874015748
        },
        {
          "duration": 0.5294114999999948,
          "durationTicks": 288,
          "midi": 44,
          "name": "G#2",
          "ticks": 54144,
          "time": 99.529362,
          "velocity": 0.3937007874015748
        },
        {
          "duration": 0.5294114999999948,
          "durationTicks": 288,
          "midi": 56,
          "name": "G#3",
          "ticks": 54144,
          "time": 99.529362,
          "velocity": 0.3937007874015748
        },
        {
          "duration": 0.5294114999999948,
          "durationTicks": 288,
          "midi": 60,
          "name": "C4",
          "ticks": 54144,
          "time": 99.529362,
          "velocity": 0.3937007874015748
        },
        {
          "duration": 0.5294114999999948,
          "durationTicks": 288,
          "midi": 63,
          "name": "D#4",
          "ticks": 54144,
          "time": 99.529362,
          "velocity": 0.3937007874015748
        },
        {
          "duration": 0.5294114999999948,
          "durationTicks": 288,
          "midi": 67,
          "name": "G4",
          "ticks": 54144,
          "time": 99.529362,
          "velocity": 0.3937007874015748
        },
        {
          "duration": 0.5294114999999948,
          "durationTicks": 288,
          "midi": 68,
          "name": "G#4",
          "ticks": 54144,
          "time": 99.529362,
          "velocity": 0.3937007874015748
        },
        {
          "duration": 0.5294114999999948,
          "durationTicks": 288,
          "midi": 32,
          "name": "G#1",
          "ticks": 54432,
          "time": 100.0587735,
          "velocity": 0.3937007874015748
        },
        {
          "duration": 0.5294114999999948,
          "durationTicks": 288,
          "midi": 44,
          "name": "G#2",
          "ticks": 54432,
          "time": 100.0587735,
          "velocity": 0.3937007874015748
        },
        {
          "duration": 0.5294114999999948,
          "durationTicks": 288,
          "midi": 56,
          "name": "G#3",
          "ticks": 54432,
          "time": 100.0587735,
          "velocity": 0.3937007874015748
        },
        {
          "duration": 0.5294114999999948,
          "durationTicks": 288,
          "midi": 60,
          "name": "C4",
          "ticks": 54432,
          "time": 100.0587735,
          "velocity": 0.3937007874015748
        },
        {
          "duration": 0.5294114999999948,
          "durationTicks": 288,
          "midi": 63,
          "name": "D#4",
          "ticks": 54432,
          "time": 100.0587735,
          "velocity": 0.3937007874015748
        },
        {
          "duration": 0.5294114999999948,
          "durationTicks": 288,
          "midi": 67,
          "name": "G4",
          "ticks": 54432,
          "time": 100.0587735,
          "velocity": 0.3937007874015748
        },
        {
          "duration": 0.5294114999999948,
          "durationTicks": 288,
          "midi": 68,
          "name": "G#4",
          "ticks": 54432,
          "time": 100.0587735,
          "velocity": 0.3937007874015748
        },
        {
          "duration": 0.529411500000009,
          "durationTicks": 288,
          "midi": 32,
          "name": "G#1",
          "ticks": 54720,
          "time": 100.588185,
          "velocity": 0.3937007874015748
        },
        {
          "duration": 0.529411500000009,
          "durationTicks": 288,
          "midi": 44,
          "name": "G#2",
          "ticks": 54720,
          "time": 100.588185,
          "velocity": 0.3937007874015748
        },
        {
          "duration": 0.529411500000009,
          "durationTicks": 288,
          "midi": 56,
          "name": "G#3",
          "ticks": 54720,
          "time": 100.588185,
          "velocity": 0.3937007874015748
        },
        {
          "duration": 0.529411500000009,
          "durationTicks": 288,
          "midi": 60,
          "name": "C4",
          "ticks": 54720,
          "time": 100.588185,
          "velocity": 0.3937007874015748
        },
        {
          "duration": 0.529411500000009,
          "durationTicks": 288,
          "midi": 63,
          "name": "D#4",
          "ticks": 54720,
          "time": 100.588185,
          "velocity": 0.3937007874015748
        },
        {
          "duration": 0.529411500000009,
          "durationTicks": 288,
          "midi": 67,
          "name": "G4",
          "ticks": 54720,
          "time": 100.588185,
          "velocity": 0.3937007874015748
        },
        {
          "duration": 0.529411500000009,
          "durationTicks": 288,
          "midi": 68,
          "name": "G#4",
          "ticks": 54720,
          "time": 100.588185,
          "velocity": 0.3937007874015748
        },
        {
          "duration": 0.5294114999999948,
          "durationTicks": 288,
          "midi": 32,
          "name": "G#1",
          "ticks": 55008,
          "time": 101.1175965,
          "velocity": 0.3937007874015748
        },
        {
          "duration": 0.5294114999999948,
          "durationTicks": 288,
          "midi": 44,
          "name": "G#2",
          "ticks": 55008,
          "time": 101.1175965,
          "velocity": 0.3937007874015748
        },
        {
          "duration": 0.5294114999999948,
          "durationTicks": 288,
          "midi": 56,
          "name": "G#3",
          "ticks": 55008,
          "time": 101.1175965,
          "velocity": 0.3937007874015748
        },
        {
          "duration": 0.5294114999999948,
          "durationTicks": 288,
          "midi": 60,
          "name": "C4",
          "ticks": 55008,
          "time": 101.1175965,
          "velocity": 0.3937007874015748
        },
        {
          "duration": 0.5294114999999948,
          "durationTicks": 288,
          "midi": 63,
          "name": "D#4",
          "ticks": 55008,
          "time": 101.1175965,
          "velocity": 0.3937007874015748
        },
        {
          "duration": 0.5294114999999948,
          "durationTicks": 288,
          "midi": 67,
          "name": "G4",
          "ticks": 55008,
          "time": 101.1175965,
          "velocity": 0.3937007874015748
        },
        {
          "duration": 0.5294114999999948,
          "durationTicks": 288,
          "midi": 68,
          "name": "G#4",
          "ticks": 55008,
          "time": 101.1175965,
          "velocity": 0.3937007874015748
        },
        {
          "duration": 0.5294114999999948,
          "durationTicks": 288,
          "midi": 29,
          "name": "F1",
          "ticks": 55296,
          "time": 101.647008,
          "velocity": 0.3937007874015748
        },
        {
          "duration": 0.5294114999999948,
          "durationTicks": 288,
          "midi": 41,
          "name": "F2",
          "ticks": 55296,
          "time": 101.647008,
          "velocity": 0.3937007874015748
        },
        {
          "duration": 0.5294114999999948,
          "durationTicks": 288,
          "midi": 53,
          "name": "F3",
          "ticks": 55296,
          "time": 101.647008,
          "velocity": 0.3937007874015748
        },
        {
          "duration": 0.5294114999999948,
          "durationTicks": 288,
          "midi": 56,
          "name": "G#3",
          "ticks": 55296,
          "time": 101.647008,
          "velocity": 0.3937007874015748
        },
        {
          "duration": 0.5294114999999948,
          "durationTicks": 288,
          "midi": 60,
          "name": "C4",
          "ticks": 55296,
          "time": 101.647008,
          "velocity": 0.3937007874015748
        },
        {
          "duration": 0.5294114999999948,
          "durationTicks": 288,
          "midi": 63,
          "name": "D#4",
          "ticks": 55296,
          "time": 101.647008,
          "velocity": 0.3937007874015748
        },
        {
          "duration": 0.5294114999999948,
          "durationTicks": 288,
          "midi": 72,
          "name": "C5",
          "ticks": 55296,
          "time": 101.647008,
          "velocity": 0.3937007874015748
        },
        {
          "duration": 0.529411500000009,
          "durationTicks": 288,
          "midi": 29,
          "name": "F1",
          "ticks": 55584,
          "time": 102.1764195,
          "velocity": 0.3937007874015748
        },
        {
          "duration": 0.529411500000009,
          "durationTicks": 288,
          "midi": 41,
          "name": "F2",
          "ticks": 55584,
          "time": 102.1764195,
          "velocity": 0.3937007874015748
        },
        {
          "duration": 0.529411500000009,
          "durationTicks": 288,
          "midi": 53,
          "name": "F3",
          "ticks": 55584,
          "time": 102.1764195,
          "velocity": 0.3937007874015748
        },
        {
          "duration": 0.529411500000009,
          "durationTicks": 288,
          "midi": 56,
          "name": "G#3",
          "ticks": 55584,
          "time": 102.1764195,
          "velocity": 0.3937007874015748
        },
        {
          "duration": 0.529411500000009,
          "durationTicks": 288,
          "midi": 60,
          "name": "C4",
          "ticks": 55584,
          "time": 102.1764195,
          "velocity": 0.3937007874015748
        },
        {
          "duration": 0.529411500000009,
          "durationTicks": 288,
          "midi": 63,
          "name": "D#4",
          "ticks": 55584,
          "time": 102.1764195,
          "velocity": 0.3937007874015748
        },
        {
          "duration": 0.529411500000009,
          "durationTicks": 288,
          "midi": 72,
          "name": "C5",
          "ticks": 55584,
          "time": 102.1764195,
          "velocity": 0.3937007874015748
        },
        {
          "duration": 0.3529410000000013,
          "durationTicks": 192,
          "midi": 29,
          "name": "F1",
          "ticks": 55872,
          "time": 102.705831,
          "velocity": 0.3937007874015748
        },
        {
          "duration": 0.3529410000000013,
          "durationTicks": 192,
          "midi": 41,
          "name": "F2",
          "ticks": 55872,
          "time": 102.705831,
          "velocity": 0.3937007874015748
        },
        {
          "duration": 0.3529410000000013,
          "durationTicks": 192,
          "midi": 53,
          "name": "F3",
          "ticks": 55872,
          "time": 102.705831,
          "velocity": 0.3937007874015748
        },
        {
          "duration": 0.3529410000000013,
          "durationTicks": 192,
          "midi": 56,
          "name": "G#3",
          "ticks": 55872,
          "time": 102.705831,
          "velocity": 0.3937007874015748
        },
        {
          "duration": 0.3529410000000013,
          "durationTicks": 192,
          "midi": 60,
          "name": "C4",
          "ticks": 55872,
          "time": 102.705831,
          "velocity": 0.3937007874015748
        },
        {
          "duration": 0.3529410000000013,
          "durationTicks": 192,
          "midi": 63,
          "name": "D#4",
          "ticks": 55872,
          "time": 102.705831,
          "velocity": 0.3937007874015748
        },
        {
          "duration": 0.3529410000000013,
          "durationTicks": 192,
          "midi": 72,
          "name": "C5",
          "ticks": 55872,
          "time": 102.705831,
          "velocity": 0.3937007874015748
        },
        {
          "duration": 0.5294114999999948,
          "durationTicks": 288,
          "midi": 32,
          "name": "G#1",
          "ticks": 56064,
          "time": 103.058772,
          "velocity": 0.3937007874015748
        },
        {
          "duration": 0.5294114999999948,
          "durationTicks": 288,
          "midi": 44,
          "name": "G#2",
          "ticks": 56064,
          "time": 103.058772,
          "velocity": 0.3937007874015748
        },
        {
          "duration": 0.5294114999999948,
          "durationTicks": 288,
          "midi": 56,
          "name": "G#3",
          "ticks": 56064,
          "time": 103.058772,
          "velocity": 0.3937007874015748
        },
        {
          "duration": 0.5294114999999948,
          "durationTicks": 288,
          "midi": 60,
          "name": "C4",
          "ticks": 56064,
          "time": 103.058772,
          "velocity": 0.3937007874015748
        },
        {
          "duration": 0.5294114999999948,
          "durationTicks": 288,
          "midi": 63,
          "name": "D#4",
          "ticks": 56064,
          "time": 103.058772,
          "velocity": 0.3937007874015748
        },
        {
          "duration": 0.5294114999999948,
          "durationTicks": 288,
          "midi": 67,
          "name": "G4",
          "ticks": 56064,
          "time": 103.058772,
          "velocity": 0.3937007874015748
        },
        {
          "duration": 0.5294114999999948,
          "durationTicks": 288,
          "midi": 68,
          "name": "G#4",
          "ticks": 56064,
          "time": 103.058772,
          "velocity": 0.3937007874015748
        },
        {
          "duration": 0.5294114999999948,
          "durationTicks": 288,
          "midi": 32,
          "name": "G#1",
          "ticks": 56352,
          "time": 103.5881835,
          "velocity": 0.3937007874015748
        },
        {
          "duration": 0.5294114999999948,
          "durationTicks": 288,
          "midi": 44,
          "name": "G#2",
          "ticks": 56352,
          "time": 103.5881835,
          "velocity": 0.3937007874015748
        },
        {
          "duration": 0.5294114999999948,
          "durationTicks": 288,
          "midi": 56,
          "name": "G#3",
          "ticks": 56352,
          "time": 103.5881835,
          "velocity": 0.3937007874015748
        },
        {
          "duration": 0.5294114999999948,
          "durationTicks": 288,
          "midi": 60,
          "name": "C4",
          "ticks": 56352,
          "time": 103.5881835,
          "velocity": 0.3937007874015748
        },
        {
          "duration": 0.5294114999999948,
          "durationTicks": 288,
          "midi": 63,
          "name": "D#4",
          "ticks": 56352,
          "time": 103.5881835,
          "velocity": 0.3937007874015748
        },
        {
          "duration": 0.5294114999999948,
          "durationTicks": 288,
          "midi": 67,
          "name": "G4",
          "ticks": 56352,
          "time": 103.5881835,
          "velocity": 0.3937007874015748
        },
        {
          "duration": 0.5294114999999948,
          "durationTicks": 288,
          "midi": 68,
          "name": "G#4",
          "ticks": 56352,
          "time": 103.5881835,
          "velocity": 0.3937007874015748
        },
        {
          "duration": 0.529411500000009,
          "durationTicks": 288,
          "midi": 36,
          "name": "C2",
          "ticks": 56640,
          "time": 104.117595,
          "velocity": 0.3937007874015748
        },
        {
          "duration": 0.529411500000009,
          "durationTicks": 288,
          "midi": 48,
          "name": "C3",
          "ticks": 56640,
          "time": 104.117595,
          "velocity": 0.3937007874015748
        },
        {
          "duration": 0.529411500000009,
          "durationTicks": 288,
          "midi": 60,
          "name": "C4",
          "ticks": 56640,
          "time": 104.117595,
          "velocity": 0.3937007874015748
        },
        {
          "duration": 0.529411500000009,
          "durationTicks": 288,
          "midi": 63,
          "name": "D#4",
          "ticks": 56640,
          "time": 104.117595,
          "velocity": 0.3937007874015748
        },
        {
          "duration": 0.529411500000009,
          "durationTicks": 288,
          "midi": 65,
          "name": "F4",
          "ticks": 56640,
          "time": 104.117595,
          "velocity": 0.3937007874015748
        },
        {
          "duration": 0.529411500000009,
          "durationTicks": 288,
          "midi": 67,
          "name": "G4",
          "ticks": 56640,
          "time": 104.117595,
          "velocity": 0.3937007874015748
        },
        {
          "duration": 0.529411500000009,
          "durationTicks": 288,
          "midi": 70,
          "name": "A#4",
          "ticks": 56640,
          "time": 104.117595,
          "velocity": 0.3937007874015748
        },
        {
          "duration": 0.5294114999999948,
          "durationTicks": 288,
          "midi": 36,
          "name": "C2",
          "ticks": 56928,
          "time": 104.6470065,
          "velocity": 0.3937007874015748
        },
        {
          "duration": 0.5294114999999948,
          "durationTicks": 288,
          "midi": 48,
          "name": "C3",
          "ticks": 56928,
          "time": 104.6470065,
          "velocity": 0.3937007874015748
        },
        {
          "duration": 0.5294114999999948,
          "durationTicks": 288,
          "midi": 60,
          "name": "C4",
          "ticks": 56928,
          "time": 104.6470065,
          "velocity": 0.3937007874015748
        },
        {
          "duration": 0.5294114999999948,
          "durationTicks": 288,
          "midi": 63,
          "name": "D#4",
          "ticks": 56928,
          "time": 104.6470065,
          "velocity": 0.3937007874015748
        },
        {
          "duration": 0.5294114999999948,
          "durationTicks": 288,
          "midi": 65,
          "name": "F4",
          "ticks": 56928,
          "time": 104.6470065,
          "velocity": 0.3937007874015748
        },
        {
          "duration": 0.5294114999999948,
          "durationTicks": 288,
          "midi": 67,
          "name": "G4",
          "ticks": 56928,
          "time": 104.6470065,
          "velocity": 0.3937007874015748
        },
        {
          "duration": 0.5294114999999948,
          "durationTicks": 288,
          "midi": 70,
          "name": "A#4",
          "ticks": 56928,
          "time": 104.6470065,
          "velocity": 0.3937007874015748
        },
        {
          "duration": 0.529411500000009,
          "durationTicks": 288,
          "midi": 36,
          "name": "C2",
          "ticks": 57216,
          "time": 105.176418,
          "velocity": 0.3937007874015748
        },
        {
          "duration": 0.529411500000009,
          "durationTicks": 288,
          "midi": 48,
          "name": "C3",
          "ticks": 57216,
          "time": 105.176418,
          "velocity": 0.3937007874015748
        },
        {
          "duration": 0.529411500000009,
          "durationTicks": 288,
          "midi": 60,
          "name": "C4",
          "ticks": 57216,
          "time": 105.176418,
          "velocity": 0.3937007874015748
        },
        {
          "duration": 0.529411500000009,
          "durationTicks": 288,
          "midi": 63,
          "name": "D#4",
          "ticks": 57216,
          "time": 105.176418,
          "velocity": 0.3937007874015748
        },
        {
          "duration": 0.529411500000009,
          "durationTicks": 288,
          "midi": 65,
          "name": "F4",
          "ticks": 57216,
          "time": 105.176418,
          "velocity": 0.3937007874015748
        },
        {
          "duration": 0.529411500000009,
          "durationTicks": 288,
          "midi": 67,
          "name": "G4",
          "ticks": 57216,
          "time": 105.176418,
          "velocity": 0.3937007874015748
        },
        {
          "duration": 0.529411500000009,
          "durationTicks": 288,
          "midi": 70,
          "name": "A#4",
          "ticks": 57216,
          "time": 105.176418,
          "velocity": 0.3937007874015748
        },
        {
          "duration": 0.5294114999999948,
          "durationTicks": 288,
          "midi": 36,
          "name": "C2",
          "ticks": 57504,
          "time": 105.70582950000001,
          "velocity": 0.3937007874015748
        },
        {
          "duration": 0.5294114999999948,
          "durationTicks": 288,
          "midi": 48,
          "name": "C3",
          "ticks": 57504,
          "time": 105.70582950000001,
          "velocity": 0.3937007874015748
        },
        {
          "duration": 0.5294114999999948,
          "durationTicks": 288,
          "midi": 60,
          "name": "C4",
          "ticks": 57504,
          "time": 105.70582950000001,
          "velocity": 0.3937007874015748
        },
        {
          "duration": 0.5294114999999948,
          "durationTicks": 288,
          "midi": 63,
          "name": "D#4",
          "ticks": 57504,
          "time": 105.70582950000001,
          "velocity": 0.3937007874015748
        },
        {
          "duration": 0.5294114999999948,
          "durationTicks": 288,
          "midi": 65,
          "name": "F4",
          "ticks": 57504,
          "time": 105.70582950000001,
          "velocity": 0.3937007874015748
        },
        {
          "duration": 0.5294114999999948,
          "durationTicks": 288,
          "midi": 67,
          "name": "G4",
          "ticks": 57504,
          "time": 105.70582950000001,
          "velocity": 0.3937007874015748
        },
        {
          "duration": 0.5294114999999948,
          "durationTicks": 288,
          "midi": 70,
          "name": "A#4",
          "ticks": 57504,
          "time": 105.70582950000001,
          "velocity": 0.3937007874015748
        },
        {
          "duration": 0.5294114999999948,
          "durationTicks": 288,
          "midi": 36,
          "name": "C2",
          "ticks": 57792,
          "time": 106.235241,
          "velocity": 0.3937007874015748
        },
        {
          "duration": 0.5294114999999948,
          "durationTicks": 288,
          "midi": 48,
          "name": "C3",
          "ticks": 57792,
          "time": 106.235241,
          "velocity": 0.3937007874015748
        },
        {
          "duration": 0.5294114999999948,
          "durationTicks": 288,
          "midi": 60,
          "name": "C4",
          "ticks": 57792,
          "time": 106.235241,
          "velocity": 0.3937007874015748
        },
        {
          "duration": 0.5294114999999948,
          "durationTicks": 288,
          "midi": 63,
          "name": "D#4",
          "ticks": 57792,
          "time": 106.235241,
          "velocity": 0.3937007874015748
        },
        {
          "duration": 0.5294114999999948,
          "durationTicks": 288,
          "midi": 65,
          "name": "F4",
          "ticks": 57792,
          "time": 106.235241,
          "velocity": 0.3937007874015748
        },
        {
          "duration": 0.5294114999999948,
          "durationTicks": 288,
          "midi": 67,
          "name": "G4",
          "ticks": 57792,
          "time": 106.235241,
          "velocity": 0.3937007874015748
        },
        {
          "duration": 0.5294114999999948,
          "durationTicks": 288,
          "midi": 70,
          "name": "A#4",
          "ticks": 57792,
          "time": 106.235241,
          "velocity": 0.3937007874015748
        },
        {
          "duration": 0.529411500000009,
          "durationTicks": 288,
          "midi": 36,
          "name": "C2",
          "ticks": 58080,
          "time": 106.7646525,
          "velocity": 0.3937007874015748
        },
        {
          "duration": 0.529411500000009,
          "durationTicks": 288,
          "midi": 48,
          "name": "C3",
          "ticks": 58080,
          "time": 106.7646525,
          "velocity": 0.3937007874015748
        },
        {
          "duration": 0.529411500000009,
          "durationTicks": 288,
          "midi": 60,
          "name": "C4",
          "ticks": 58080,
          "time": 106.7646525,
          "velocity": 0.3937007874015748
        },
        {
          "duration": 0.529411500000009,
          "durationTicks": 288,
          "midi": 63,
          "name": "D#4",
          "ticks": 58080,
          "time": 106.7646525,
          "velocity": 0.3937007874015748
        },
        {
          "duration": 0.529411500000009,
          "durationTicks": 288,
          "midi": 65,
          "name": "F4",
          "ticks": 58080,
          "time": 106.7646525,
          "velocity": 0.3937007874015748
        },
        {
          "duration": 0.529411500000009,
          "durationTicks": 288,
          "midi": 67,
          "name": "G4",
          "ticks": 58080,
          "time": 106.7646525,
          "velocity": 0.3937007874015748
        },
        {
          "duration": 0.529411500000009,
          "durationTicks": 288,
          "midi": 70,
          "name": "A#4",
          "ticks": 58080,
          "time": 106.7646525,
          "velocity": 0.3937007874015748
        },
        {
          "duration": 0.5294114999999948,
          "durationTicks": 288,
          "midi": 29,
          "name": "F1",
          "ticks": 58368,
          "time": 107.294064,
          "velocity": 0.3937007874015748
        },
        {
          "duration": 0.5294114999999948,
          "durationTicks": 288,
          "midi": 41,
          "name": "F2",
          "ticks": 58368,
          "time": 107.294064,
          "velocity": 0.3937007874015748
        },
        {
          "duration": 0.5294114999999948,
          "durationTicks": 288,
          "midi": 53,
          "name": "F3",
          "ticks": 58368,
          "time": 107.294064,
          "velocity": 0.3937007874015748
        },
        {
          "duration": 0.5294114999999948,
          "durationTicks": 288,
          "midi": 56,
          "name": "G#3",
          "ticks": 58368,
          "time": 107.294064,
          "velocity": 0.3937007874015748
        },
        {
          "duration": 0.5294114999999948,
          "durationTicks": 288,
          "midi": 60,
          "name": "C4",
          "ticks": 58368,
          "time": 107.294064,
          "velocity": 0.3937007874015748
        },
        {
          "duration": 0.5294114999999948,
          "durationTicks": 288,
          "midi": 63,
          "name": "D#4",
          "ticks": 58368,
          "time": 107.294064,
          "velocity": 0.3937007874015748
        },
        {
          "duration": 0.5294114999999948,
          "durationTicks": 288,
          "midi": 68,
          "name": "G#4",
          "ticks": 58368,
          "time": 107.294064,
          "velocity": 0.3937007874015748
        },
        {
          "duration": 0.5294114999999948,
          "durationTicks": 288,
          "midi": 29,
          "name": "F1",
          "ticks": 58656,
          "time": 107.8234755,
          "velocity": 0.3937007874015748
        },
        {
          "duration": 0.5294114999999948,
          "durationTicks": 288,
          "midi": 41,
          "name": "F2",
          "ticks": 58656,
          "time": 107.8234755,
          "velocity": 0.3937007874015748
        },
        {
          "duration": 0.5294114999999948,
          "durationTicks": 288,
          "midi": 53,
          "name": "F3",
          "ticks": 58656,
          "time": 107.8234755,
          "velocity": 0.3937007874015748
        },
        {
          "duration": 0.5294114999999948,
          "durationTicks": 288,
          "midi": 56,
          "name": "G#3",
          "ticks": 58656,
          "time": 107.8234755,
          "velocity": 0.3937007874015748
        },
        {
          "duration": 0.5294114999999948,
          "durationTicks": 288,
          "midi": 60,
          "name": "C4",
          "ticks": 58656,
          "time": 107.8234755,
          "velocity": 0.3937007874015748
        },
        {
          "duration": 0.5294114999999948,
          "durationTicks": 288,
          "midi": 63,
          "name": "D#4",
          "ticks": 58656,
          "time": 107.8234755,
          "velocity": 0.3937007874015748
        },
        {
          "duration": 0.5294114999999948,
          "durationTicks": 288,
          "midi": 68,
          "name": "G#4",
          "ticks": 58656,
          "time": 107.8234755,
          "velocity": 0.3937007874015748
        },
        {
          "duration": 0.3529410000000013,
          "durationTicks": 192,
          "midi": 29,
          "name": "F1",
          "ticks": 58944,
          "time": 108.352887,
          "velocity": 0.3937007874015748
        },
        {
          "duration": 0.3529410000000013,
          "durationTicks": 192,
          "midi": 41,
          "name": "F2",
          "ticks": 58944,
          "time": 108.352887,
          "velocity": 0.3937007874015748
        },
        {
          "duration": 0.3529410000000013,
          "durationTicks": 192,
          "midi": 53,
          "name": "F3",
          "ticks": 58944,
          "time": 108.352887,
          "velocity": 0.3937007874015748
        },
        {
          "duration": 0.3529410000000013,
          "durationTicks": 192,
          "midi": 56,
          "name": "G#3",
          "ticks": 58944,
          "time": 108.352887,
          "velocity": 0.3937007874015748
        },
        {
          "duration": 0.3529410000000013,
          "durationTicks": 192,
          "midi": 60,
          "name": "C4",
          "ticks": 58944,
          "time": 108.352887,
          "velocity": 0.3937007874015748
        },
        {
          "duration": 0.3529410000000013,
          "durationTicks": 192,
          "midi": 63,
          "name": "D#4",
          "ticks": 58944,
          "time": 108.352887,
          "velocity": 0.3937007874015748
        },
        {
          "duration": 0.3529410000000013,
          "durationTicks": 192,
          "midi": 68,
          "name": "G#4",
          "ticks": 58944,
          "time": 108.352887,
          "velocity": 0.3937007874015748
        },
        {
          "duration": 0.529411500000009,
          "durationTicks": 288,
          "midi": 34,
          "name": "A#1",
          "ticks": 59136,
          "time": 108.705828,
          "velocity": 0.3937007874015748
        },
        {
          "duration": 0.529411500000009,
          "durationTicks": 288,
          "midi": 46,
          "name": "A#2",
          "ticks": 59136,
          "time": 108.705828,
          "velocity": 0.3937007874015748
        },
        {
          "duration": 0.529411500000009,
          "durationTicks": 288,
          "midi": 58,
          "name": "A#3",
          "ticks": 59136,
          "time": 108.705828,
          "velocity": 0.3937007874015748
        },
        {
          "duration": 0.529411500000009,
          "durationTicks": 288,
          "midi": 61,
          "name": "C#4",
          "ticks": 59136,
          "time": 108.705828,
          "velocity": 0.3937007874015748
        },
        {
          "duration": 0.529411500000009,
          "durationTicks": 288,
          "midi": 65,
          "name": "F4",
          "ticks": 59136,
          "time": 108.705828,
          "velocity": 0.3937007874015748
        },
        {
          "duration": 0.529411500000009,
          "durationTicks": 288,
          "midi": 67,
          "name": "G4",
          "ticks": 59136,
          "time": 108.705828,
          "velocity": 0.3937007874015748
        },
        {
          "duration": 0.529411500000009,
          "durationTicks": 288,
          "midi": 68,
          "name": "G#4",
          "ticks": 59136,
          "time": 108.705828,
          "velocity": 0.3937007874015748
        },
        {
          "duration": 0.5294114999999948,
          "durationTicks": 288,
          "midi": 34,
          "name": "A#1",
          "ticks": 59424,
          "time": 109.2352395,
          "velocity": 0.3937007874015748
        },
        {
          "duration": 0.5294114999999948,
          "durationTicks": 288,
          "midi": 46,
          "name": "A#2",
          "ticks": 59424,
          "time": 109.2352395,
          "velocity": 0.3937007874015748
        },
        {
          "duration": 0.5294114999999948,
          "durationTicks": 288,
          "midi": 58,
          "name": "A#3",
          "ticks": 59424,
          "time": 109.2352395,
          "velocity": 0.3937007874015748
        },
        {
          "duration": 0.5294114999999948,
          "durationTicks": 288,
          "midi": 61,
          "name": "C#4",
          "ticks": 59424,
          "time": 109.2352395,
          "velocity": 0.3937007874015748
        },
        {
          "duration": 0.5294114999999948,
          "durationTicks": 288,
          "midi": 65,
          "name": "F4",
          "ticks": 59424,
          "time": 109.2352395,
          "velocity": 0.3937007874015748
        },
        {
          "duration": 0.5294114999999948,
          "durationTicks": 288,
          "midi": 67,
          "name": "G4",
          "ticks": 59424,
          "time": 109.2352395,
          "velocity": 0.3937007874015748
        },
        {
          "duration": 0.5294114999999948,
          "durationTicks": 288,
          "midi": 68,
          "name": "G#4",
          "ticks": 59424,
          "time": 109.2352395,
          "velocity": 0.3937007874015748
        },
        {
          "duration": 0.5294114999999948,
          "durationTicks": 288,
          "midi": 32,
          "name": "G#1",
          "ticks": 59712,
          "time": 109.764651,
          "velocity": 0.3937007874015748
        },
        {
          "duration": 0.5294114999999948,
          "durationTicks": 288,
          "midi": 44,
          "name": "G#2",
          "ticks": 59712,
          "time": 109.764651,
          "velocity": 0.3937007874015748
        },
        {
          "duration": 0.5294114999999948,
          "durationTicks": 288,
          "midi": 56,
          "name": "G#3",
          "ticks": 59712,
          "time": 109.764651,
          "velocity": 0.3937007874015748
        },
        {
          "duration": 0.5294114999999948,
          "durationTicks": 288,
          "midi": 60,
          "name": "C4",
          "ticks": 59712,
          "time": 109.764651,
          "velocity": 0.3937007874015748
        },
        {
          "duration": 0.5294114999999948,
          "durationTicks": 288,
          "midi": 63,
          "name": "D#4",
          "ticks": 59712,
          "time": 109.764651,
          "velocity": 0.3937007874015748
        },
        {
          "duration": 0.5294114999999948,
          "durationTicks": 288,
          "midi": 65,
          "name": "F4",
          "ticks": 59712,
          "time": 109.764651,
          "velocity": 0.3937007874015748
        },
        {
          "duration": 0.5294114999999948,
          "durationTicks": 288,
          "midi": 67,
          "name": "G4",
          "ticks": 59712,
          "time": 109.764651,
          "velocity": 0.3937007874015748
        },
        {
          "duration": 0.529411500000009,
          "durationTicks": 288,
          "midi": 32,
          "name": "G#1",
          "ticks": 60000,
          "time": 110.2940625,
          "velocity": 0.3937007874015748
        },
        {
          "duration": 0.529411500000009,
          "durationTicks": 288,
          "midi": 44,
          "name": "G#2",
          "ticks": 60000,
          "time": 110.2940625,
          "velocity": 0.3937007874015748
        },
        {
          "duration": 0.529411500000009,
          "durationTicks": 288,
          "midi": 56,
          "name": "G#3",
          "ticks": 60000,
          "time": 110.2940625,
          "velocity": 0.3937007874015748
        },
        {
          "duration": 0.529411500000009,
          "durationTicks": 288,
          "midi": 60,
          "name": "C4",
          "ticks": 60000,
          "time": 110.2940625,
          "velocity": 0.3937007874015748
        },
        {
          "duration": 0.529411500000009,
          "durationTicks": 288,
          "midi": 63,
          "name": "D#4",
          "ticks": 60000,
          "time": 110.2940625,
          "velocity": 0.3937007874015748
        },
        {
          "duration": 0.529411500000009,
          "durationTicks": 288,
          "midi": 65,
          "name": "F4",
          "ticks": 60000,
          "time": 110.2940625,
          "velocity": 0.3937007874015748
        },
        {
          "duration": 0.529411500000009,
          "durationTicks": 288,
          "midi": 67,
          "name": "G4",
          "ticks": 60000,
          "time": 110.2940625,
          "velocity": 0.3937007874015748
        },
        {
          "duration": 0.5294114999999948,
          "durationTicks": 288,
          "midi": 32,
          "name": "G#1",
          "ticks": 60288,
          "time": 110.823474,
          "velocity": 0.3937007874015748
        },
        {
          "duration": 0.5294114999999948,
          "durationTicks": 288,
          "midi": 44,
          "name": "G#2",
          "ticks": 60288,
          "time": 110.823474,
          "velocity": 0.3937007874015748
        },
        {
          "duration": 0.5294114999999948,
          "durationTicks": 288,
          "midi": 56,
          "name": "G#3",
          "ticks": 60288,
          "time": 110.823474,
          "velocity": 0.3937007874015748
        },
        {
          "duration": 0.5294114999999948,
          "durationTicks": 288,
          "midi": 60,
          "name": "C4",
          "ticks": 60288,
          "time": 110.823474,
          "velocity": 0.3937007874015748
        },
        {
          "duration": 0.5294114999999948,
          "durationTicks": 288,
          "midi": 63,
          "name": "D#4",
          "ticks": 60288,
          "time": 110.823474,
          "velocity": 0.3937007874015748
        },
        {
          "duration": 0.5294114999999948,
          "durationTicks": 288,
          "midi": 65,
          "name": "F4",
          "ticks": 60288,
          "time": 110.823474,
          "velocity": 0.3937007874015748
        },
        {
          "duration": 0.5294114999999948,
          "durationTicks": 288,
          "midi": 67,
          "name": "G4",
          "ticks": 60288,
          "time": 110.823474,
          "velocity": 0.3937007874015748
        },
        {
          "duration": 0.529411500000009,
          "durationTicks": 288,
          "midi": 32,
          "name": "G#1",
          "ticks": 60576,
          "time": 111.3528855,
          "velocity": 0.3937007874015748
        },
        {
          "duration": 0.529411500000009,
          "durationTicks": 288,
          "midi": 44,
          "name": "G#2",
          "ticks": 60576,
          "time": 111.3528855,
          "velocity": 0.3937007874015748
        },
        {
          "duration": 0.529411500000009,
          "durationTicks": 288,
          "midi": 56,
          "name": "G#3",
          "ticks": 60576,
          "time": 111.3528855,
          "velocity": 0.3937007874015748
        },
        {
          "duration": 0.529411500000009,
          "durationTicks": 288,
          "midi": 60,
          "name": "C4",
          "ticks": 60576,
          "time": 111.3528855,
          "velocity": 0.3937007874015748
        },
        {
          "duration": 0.529411500000009,
          "durationTicks": 288,
          "midi": 63,
          "name": "D#4",
          "ticks": 60576,
          "time": 111.3528855,
          "velocity": 0.3937007874015748
        },
        {
          "duration": 0.529411500000009,
          "durationTicks": 288,
          "midi": 65,
          "name": "F4",
          "ticks": 60576,
          "time": 111.3528855,
          "velocity": 0.3937007874015748
        },
        {
          "duration": 0.529411500000009,
          "durationTicks": 288,
          "midi": 67,
          "name": "G4",
          "ticks": 60576,
          "time": 111.3528855,
          "velocity": 0.3937007874015748
        },
        {
          "duration": 0.5294114999999948,
          "durationTicks": 288,
          "midi": 32,
          "name": "G#1",
          "ticks": 60864,
          "time": 111.88229700000001,
          "velocity": 0.3937007874015748
        },
        {
          "duration": 0.5294114999999948,
          "durationTicks": 288,
          "midi": 44,
          "name": "G#2",
          "ticks": 60864,
          "time": 111.88229700000001,
          "velocity": 0.3937007874015748
        },
        {
          "duration": 0.5294114999999948,
          "durationTicks": 288,
          "midi": 56,
          "name": "G#3",
          "ticks": 60864,
          "time": 111.88229700000001,
          "velocity": 0.3937007874015748
        },
        {
          "duration": 0.5294114999999948,
          "durationTicks": 288,
          "midi": 60,
          "name": "C4",
          "ticks": 60864,
          "time": 111.88229700000001,
          "velocity": 0.3937007874015748
        },
        {
          "duration": 0.5294114999999948,
          "durationTicks": 288,
          "midi": 63,
          "name": "D#4",
          "ticks": 60864,
          "time": 111.88229700000001,
          "velocity": 0.3937007874015748
        },
        {
          "duration": 0.5294114999999948,
          "durationTicks": 288,
          "midi": 65,
          "name": "F4",
          "ticks": 60864,
          "time": 111.88229700000001,
          "velocity": 0.3937007874015748
        },
        {
          "duration": 0.5294114999999948,
          "durationTicks": 288,
          "midi": 67,
          "name": "G4",
          "ticks": 60864,
          "time": 111.88229700000001,
          "velocity": 0.3937007874015748
        },
        {
          "duration": 0.5294114999999948,
          "durationTicks": 288,
          "midi": 32,
          "name": "G#1",
          "ticks": 61152,
          "time": 112.4117085,
          "velocity": 0.3937007874015748
        },
        {
          "duration": 0.5294114999999948,
          "durationTicks": 288,
          "midi": 44,
          "name": "G#2",
          "ticks": 61152,
          "time": 112.4117085,
          "velocity": 0.3937007874015748
        },
        {
          "duration": 0.5294114999999948,
          "durationTicks": 288,
          "midi": 56,
          "name": "G#3",
          "ticks": 61152,
          "time": 112.4117085,
          "velocity": 0.3937007874015748
        },
        {
          "duration": 0.5294114999999948,
          "durationTicks": 288,
          "midi": 60,
          "name": "C4",
          "ticks": 61152,
          "time": 112.4117085,
          "velocity": 0.3937007874015748
        },
        {
          "duration": 0.5294114999999948,
          "durationTicks": 288,
          "midi": 63,
          "name": "D#4",
          "ticks": 61152,
          "time": 112.4117085,
          "velocity": 0.3937007874015748
        },
        {
          "duration": 0.5294114999999948,
          "durationTicks": 288,
          "midi": 65,
          "name": "F4",
          "ticks": 61152,
          "time": 112.4117085,
          "velocity": 0.3937007874015748
        },
        {
          "duration": 0.5294114999999948,
          "durationTicks": 288,
          "midi": 67,
          "name": "G4",
          "ticks": 61152,
          "time": 112.4117085,
          "velocity": 0.3937007874015748
        },
        {
          "duration": 0.529411500000009,
          "durationTicks": 288,
          "midi": 29,
          "name": "F1",
          "ticks": 61440,
          "time": 112.94112,
          "velocity": 0.3937007874015748
        },
        {
          "duration": 0.529411500000009,
          "durationTicks": 288,
          "midi": 41,
          "name": "F2",
          "ticks": 61440,
          "time": 112.94112,
          "velocity": 0.3937007874015748
        },
        {
          "duration": 0.529411500000009,
          "durationTicks": 288,
          "midi": 53,
          "name": "F3",
          "ticks": 61440,
          "time": 112.94112,
          "velocity": 0.3937007874015748
        },
        {
          "duration": 0.529411500000009,
          "durationTicks": 288,
          "midi": 56,
          "name": "G#3",
          "ticks": 61440,
          "time": 112.94112,
          "velocity": 0.3937007874015748
        },
        {
          "duration": 0.529411500000009,
          "durationTicks": 288,
          "midi": 60,
          "name": "C4",
          "ticks": 61440,
          "time": 112.94112,
          "velocity": 0.3937007874015748
        },
        {
          "duration": 0.529411500000009,
          "durationTicks": 288,
          "midi": 63,
          "name": "D#4",
          "ticks": 61440,
          "time": 112.94112,
          "velocity": 0.3937007874015748
        },
        {
          "duration": 0.529411500000009,
          "durationTicks": 288,
          "midi": 68,
          "name": "G#4",
          "ticks": 61440,
          "time": 112.94112,
          "velocity": 0.3937007874015748
        },
        {
          "duration": 0.5294114999999948,
          "durationTicks": 288,
          "midi": 29,
          "name": "F1",
          "ticks": 61728,
          "time": 113.4705315,
          "velocity": 0.3937007874015748
        },
        {
          "duration": 0.5294114999999948,
          "durationTicks": 288,
          "midi": 41,
          "name": "F2",
          "ticks": 61728,
          "time": 113.4705315,
          "velocity": 0.3937007874015748
        },
        {
          "duration": 0.5294114999999948,
          "durationTicks": 288,
          "midi": 53,
          "name": "F3",
          "ticks": 61728,
          "time": 113.4705315,
          "velocity": 0.3937007874015748
        },
        {
          "duration": 0.5294114999999948,
          "durationTicks": 288,
          "midi": 56,
          "name": "G#3",
          "ticks": 61728,
          "time": 113.4705315,
          "velocity": 0.3937007874015748
        },
        {
          "duration": 0.5294114999999948,
          "durationTicks": 288,
          "midi": 60,
          "name": "C4",
          "ticks": 61728,
          "time": 113.4705315,
          "velocity": 0.3937007874015748
        },
        {
          "duration": 0.5294114999999948,
          "durationTicks": 288,
          "midi": 63,
          "name": "D#4",
          "ticks": 61728,
          "time": 113.4705315,
          "velocity": 0.3937007874015748
        },
        {
          "duration": 0.5294114999999948,
          "durationTicks": 288,
          "midi": 68,
          "name": "G#4",
          "ticks": 61728,
          "time": 113.4705315,
          "velocity": 0.3937007874015748
        },
        {
          "duration": 0.3529410000000013,
          "durationTicks": 192,
          "midi": 29,
          "name": "F1",
          "ticks": 62016,
          "time": 113.999943,
          "velocity": 0.3937007874015748
        },
        {
          "duration": 0.3529410000000013,
          "durationTicks": 192,
          "midi": 41,
          "name": "F2",
          "ticks": 62016,
          "time": 113.999943,
          "velocity": 0.3937007874015748
        },
        {
          "duration": 0.3529410000000013,
          "durationTicks": 192,
          "midi": 53,
          "name": "F3",
          "ticks": 62016,
          "time": 113.999943,
          "velocity": 0.3937007874015748
        },
        {
          "duration": 0.3529410000000013,
          "durationTicks": 192,
          "midi": 56,
          "name": "G#3",
          "ticks": 62016,
          "time": 113.999943,
          "velocity": 0.3937007874015748
        },
        {
          "duration": 0.3529410000000013,
          "durationTicks": 192,
          "midi": 60,
          "name": "C4",
          "ticks": 62016,
          "time": 113.999943,
          "velocity": 0.3937007874015748
        },
        {
          "duration": 0.3529410000000013,
          "durationTicks": 192,
          "midi": 63,
          "name": "D#4",
          "ticks": 62016,
          "time": 113.999943,
          "velocity": 0.3937007874015748
        },
        {
          "duration": 0.3529410000000013,
          "durationTicks": 192,
          "midi": 68,
          "name": "G#4",
          "ticks": 62016,
          "time": 113.999943,
          "velocity": 0.3937007874015748
        },
        {
          "duration": 0.5294114999999948,
          "durationTicks": 288,
          "midi": 32,
          "name": "G#1",
          "ticks": 62208,
          "time": 114.352884,
          "velocity": 0.3937007874015748
        },
        {
          "duration": 0.5294114999999948,
          "durationTicks": 288,
          "midi": 44,
          "name": "G#2",
          "ticks": 62208,
          "time": 114.352884,
          "velocity": 0.3937007874015748
        },
        {
          "duration": 0.5294114999999948,
          "durationTicks": 288,
          "midi": 56,
          "name": "G#3",
          "ticks": 62208,
          "time": 114.352884,
          "velocity": 0.3937007874015748
        },
        {
          "duration": 0.5294114999999948,
          "durationTicks": 288,
          "midi": 60,
          "name": "C4",
          "ticks": 62208,
          "time": 114.352884,
          "velocity": 0.3937007874015748
        },
        {
          "duration": 0.5294114999999948,
          "durationTicks": 288,
          "midi": 63,
          "name": "D#4",
          "ticks": 62208,
          "time": 114.352884,
          "velocity": 0.3937007874015748
        },
        {
          "duration": 0.5294114999999948,
          "durationTicks": 288,
          "midi": 67,
          "name": "G4",
          "ticks": 62208,
          "time": 114.352884,
          "velocity": 0.3937007874015748
        },
        {
          "duration": 0.5294114999999948,
          "durationTicks": 288,
          "midi": 70,
          "name": "A#4",
          "ticks": 62208,
          "time": 114.352884,
          "velocity": 0.3937007874015748
        },
        {
          "duration": 0.529411500000009,
          "durationTicks": 288,
          "midi": 32,
          "name": "G#1",
          "ticks": 62496,
          "time": 114.8822955,
          "velocity": 0.3937007874015748
        },
        {
          "duration": 0.529411500000009,
          "durationTicks": 288,
          "midi": 44,
          "name": "G#2",
          "ticks": 62496,
          "time": 114.8822955,
          "velocity": 0.3937007874015748
        },
        {
          "duration": 0.529411500000009,
          "durationTicks": 288,
          "midi": 56,
          "name": "G#3",
          "ticks": 62496,
          "time": 114.8822955,
          "velocity": 0.3937007874015748
        },
        {
          "duration": 0.529411500000009,
          "durationTicks": 288,
          "midi": 60,
          "name": "C4",
          "ticks": 62496,
          "time": 114.8822955,
          "velocity": 0.3937007874015748
        },
        {
          "duration": 0.529411500000009,
          "durationTicks": 288,
          "midi": 63,
          "name": "D#4",
          "ticks": 62496,
          "time": 114.8822955,
          "velocity": 0.3937007874015748
        },
        {
          "duration": 0.529411500000009,
          "durationTicks": 288,
          "midi": 67,
          "name": "G4",
          "ticks": 62496,
          "time": 114.8822955,
          "velocity": 0.3937007874015748
        },
        {
          "duration": 0.529411500000009,
          "durationTicks": 288,
          "midi": 70,
          "name": "A#4",
          "ticks": 62496,
          "time": 114.8822955,
          "velocity": 0.3937007874015748
        },
        {
          "duration": 0.5294114999999948,
          "durationTicks": 288,
          "midi": 36,
          "name": "C2",
          "ticks": 62784,
          "time": 115.411707,
          "velocity": 0.3937007874015748
        },
        {
          "duration": 0.5294114999999948,
          "durationTicks": 288,
          "midi": 48,
          "name": "C3",
          "ticks": 62784,
          "time": 115.411707,
          "velocity": 0.3937007874015748
        },
        {
          "duration": 0.5294114999999948,
          "durationTicks": 288,
          "midi": 60,
          "name": "C4",
          "ticks": 62784,
          "time": 115.411707,
          "velocity": 0.3937007874015748
        },
        {
          "duration": 0.5294114999999948,
          "durationTicks": 288,
          "midi": 63,
          "name": "D#4",
          "ticks": 62784,
          "time": 115.411707,
          "velocity": 0.3937007874015748
        },
        {
          "duration": 0.5294114999999948,
          "durationTicks": 288,
          "midi": 67,
          "name": "G4",
          "ticks": 62784,
          "time": 115.411707,
          "velocity": 0.3937007874015748
        },
        {
          "duration": 0.5294114999999948,
          "durationTicks": 288,
          "midi": 70,
          "name": "A#4",
          "ticks": 62784,
          "time": 115.411707,
          "velocity": 0.3937007874015748
        },
        {
          "duration": 0.5294114999999948,
          "durationTicks": 288,
          "midi": 72,
          "name": "C5",
          "ticks": 62784,
          "time": 115.411707,
          "velocity": 0.3937007874015748
        },
        {
          "duration": 0.5294114999999948,
          "durationTicks": 288,
          "midi": 36,
          "name": "C2",
          "ticks": 63072,
          "time": 115.9411185,
          "velocity": 0.3937007874015748
        },
        {
          "duration": 0.5294114999999948,
          "durationTicks": 288,
          "midi": 48,
          "name": "C3",
          "ticks": 63072,
          "time": 115.9411185,
          "velocity": 0.3937007874015748
        },
        {
          "duration": 0.5294114999999948,
          "durationTicks": 288,
          "midi": 60,
          "name": "C4",
          "ticks": 63072,
          "time": 115.9411185,
          "velocity": 0.3937007874015748
        },
        {
          "duration": 0.5294114999999948,
          "durationTicks": 288,
          "midi": 63,
          "name": "D#4",
          "ticks": 63072,
          "time": 115.9411185,
          "velocity": 0.3937007874015748
        },
        {
          "duration": 0.5294114999999948,
          "durationTicks": 288,
          "midi": 67,
          "name": "G4",
          "ticks": 63072,
          "time": 115.9411185,
          "velocity": 0.3937007874015748
        },
        {
          "duration": 0.5294114999999948,
          "durationTicks": 288,
          "midi": 70,
          "name": "A#4",
          "ticks": 63072,
          "time": 115.9411185,
          "velocity": 0.3937007874015748
        },
        {
          "duration": 0.5294114999999948,
          "durationTicks": 288,
          "midi": 72,
          "name": "C5",
          "ticks": 63072,
          "time": 115.9411185,
          "velocity": 0.3937007874015748
        },
        {
          "duration": 0.529411500000009,
          "durationTicks": 288,
          "midi": 36,
          "name": "C2",
          "ticks": 63360,
          "time": 116.47053,
          "velocity": 0.3937007874015748
        },
        {
          "duration": 0.529411500000009,
          "durationTicks": 288,
          "midi": 48,
          "name": "C3",
          "ticks": 63360,
          "time": 116.47053,
          "velocity": 0.3937007874015748
        },
        {
          "duration": 0.529411500000009,
          "durationTicks": 288,
          "midi": 60,
          "name": "C4",
          "ticks": 63360,
          "time": 116.47053,
          "velocity": 0.3937007874015748
        },
        {
          "duration": 0.529411500000009,
          "durationTicks": 288,
          "midi": 63,
          "name": "D#4",
          "ticks": 63360,
          "time": 116.47053,
          "velocity": 0.3937007874015748
        },
        {
          "duration": 0.529411500000009,
          "durationTicks": 288,
          "midi": 67,
          "name": "G4",
          "ticks": 63360,
          "time": 116.47053,
          "velocity": 0.3937007874015748
        },
        {
          "duration": 0.529411500000009,
          "durationTicks": 288,
          "midi": 70,
          "name": "A#4",
          "ticks": 63360,
          "time": 116.47053,
          "velocity": 0.3937007874015748
        },
        {
          "duration": 0.529411500000009,
          "durationTicks": 288,
          "midi": 72,
          "name": "C5",
          "ticks": 63360,
          "time": 116.47053,
          "velocity": 0.3937007874015748
        },
        {
          "duration": 0.5294114999999948,
          "durationTicks": 288,
          "midi": 36,
          "name": "C2",
          "ticks": 63648,
          "time": 116.9999415,
          "velocity": 0.3937007874015748
        },
        {
          "duration": 0.5294114999999948,
          "durationTicks": 288,
          "midi": 48,
          "name": "C3",
          "ticks": 63648,
          "time": 116.9999415,
          "velocity": 0.3937007874015748
        },
        {
          "duration": 0.5294114999999948,
          "durationTicks": 288,
          "midi": 60,
          "name": "C4",
          "ticks": 63648,
          "time": 116.9999415,
          "velocity": 0.3937007874015748
        },
        {
          "duration": 0.5294114999999948,
          "durationTicks": 288,
          "midi": 63,
          "name": "D#4",
          "ticks": 63648,
          "time": 116.9999415,
          "velocity": 0.3937007874015748
        },
        {
          "duration": 0.5294114999999948,
          "durationTicks": 288,
          "midi": 67,
          "name": "G4",
          "ticks": 63648,
          "time": 116.9999415,
          "velocity": 0.3937007874015748
        },
        {
          "duration": 0.5294114999999948,
          "durationTicks": 288,
          "midi": 70,
          "name": "A#4",
          "ticks": 63648,
          "time": 116.9999415,
          "velocity": 0.3937007874015748
        },
        {
          "duration": 0.5294114999999948,
          "durationTicks": 288,
          "midi": 72,
          "name": "C5",
          "ticks": 63648,
          "time": 116.9999415,
          "velocity": 0.3937007874015748
        },
        {
          "duration": 0.5294114999999948,
          "durationTicks": 288,
          "midi": 36,
          "name": "C2",
          "ticks": 63936,
          "time": 117.529353,
          "velocity": 0.3937007874015748
        },
        {
          "duration": 0.5294114999999948,
          "durationTicks": 288,
          "midi": 48,
          "name": "C3",
          "ticks": 63936,
          "time": 117.529353,
          "velocity": 0.3937007874015748
        },
        {
          "duration": 0.5294114999999948,
          "durationTicks": 288,
          "midi": 60,
          "name": "C4",
          "ticks": 63936,
          "time": 117.529353,
          "velocity": 0.3937007874015748
        },
        {
          "duration": 0.5294114999999948,
          "durationTicks": 288,
          "midi": 63,
          "name": "D#4",
          "ticks": 63936,
          "time": 117.529353,
          "velocity": 0.3937007874015748
        },
        {
          "duration": 0.5294114999999948,
          "durationTicks": 288,
          "midi": 67,
          "name": "G4",
          "ticks": 63936,
          "time": 117.529353,
          "velocity": 0.3937007874015748
        },
        {
          "duration": 0.5294114999999948,
          "durationTicks": 288,
          "midi": 70,
          "name": "A#4",
          "ticks": 63936,
          "time": 117.529353,
          "velocity": 0.3937007874015748
        },
        {
          "duration": 0.5294114999999948,
          "durationTicks": 288,
          "midi": 72,
          "name": "C5",
          "ticks": 63936,
          "time": 117.529353,
          "velocity": 0.3937007874015748
        },
        {
          "duration": 0.529411500000009,
          "durationTicks": 288,
          "midi": 36,
          "name": "C2",
          "ticks": 64224,
          "time": 118.0587645,
          "velocity": 0.3937007874015748
        },
        {
          "duration": 0.529411500000009,
          "durationTicks": 288,
          "midi": 48,
          "name": "C3",
          "ticks": 64224,
          "time": 118.0587645,
          "velocity": 0.3937007874015748
        },
        {
          "duration": 0.529411500000009,
          "durationTicks": 288,
          "midi": 60,
          "name": "C4",
          "ticks": 64224,
          "time": 118.0587645,
          "velocity": 0.3937007874015748
        },
        {
          "duration": 0.529411500000009,
          "durationTicks": 288,
          "midi": 63,
          "name": "D#4",
          "ticks": 64224,
          "time": 118.0587645,
          "velocity": 0.3937007874015748
        },
        {
          "duration": 0.529411500000009,
          "durationTicks": 288,
          "midi": 67,
          "name": "G4",
          "ticks": 64224,
          "time": 118.0587645,
          "velocity": 0.3937007874015748
        },
        {
          "duration": 0.529411500000009,
          "durationTicks": 288,
          "midi": 70,
          "name": "A#4",
          "ticks": 64224,
          "time": 118.0587645,
          "velocity": 0.3937007874015748
        },
        {
          "duration": 0.529411500000009,
          "durationTicks": 288,
          "midi": 72,
          "name": "C5",
          "ticks": 64224,
          "time": 118.0587645,
          "velocity": 0.3937007874015748
        },
        {
          "duration": 0.5294114999999948,
          "durationTicks": 288,
          "midi": 29,
          "name": "F1",
          "ticks": 64512,
          "time": 118.588176,
          "velocity": 0.3937007874015748
        },
        {
          "duration": 0.5294114999999948,
          "durationTicks": 288,
          "midi": 41,
          "name": "F2",
          "ticks": 64512,
          "time": 118.588176,
          "velocity": 0.3937007874015748
        },
        {
          "duration": 0.5294114999999948,
          "durationTicks": 288,
          "midi": 53,
          "name": "F3",
          "ticks": 64512,
          "time": 118.588176,
          "velocity": 0.3937007874015748
        },
        {
          "duration": 0.5294114999999948,
          "durationTicks": 288,
          "midi": 56,
          "name": "G#3",
          "ticks": 64512,
          "time": 118.588176,
          "velocity": 0.3937007874015748
        },
        {
          "duration": 0.5294114999999948,
          "durationTicks": 288,
          "midi": 60,
          "name": "C4",
          "ticks": 64512,
          "time": 118.588176,
          "velocity": 0.3937007874015748
        },
        {
          "duration": 0.5294114999999948,
          "durationTicks": 288,
          "midi": 63,
          "name": "D#4",
          "ticks": 64512,
          "time": 118.588176,
          "velocity": 0.3937007874015748
        },
        {
          "duration": 0.5294114999999948,
          "durationTicks": 288,
          "midi": 75,
          "name": "D#5",
          "ticks": 64512,
          "time": 118.588176,
          "velocity": 0.3937007874015748
        },
        {
          "duration": 0.529411500000009,
          "durationTicks": 288,
          "midi": 29,
          "name": "F1",
          "ticks": 64800,
          "time": 119.1175875,
          "velocity": 0.3937007874015748
        },
        {
          "duration": 0.529411500000009,
          "durationTicks": 288,
          "midi": 41,
          "name": "F2",
          "ticks": 64800,
          "time": 119.1175875,
          "velocity": 0.3937007874015748
        },
        {
          "duration": 0.529411500000009,
          "durationTicks": 288,
          "midi": 53,
          "name": "F3",
          "ticks": 64800,
          "time": 119.1175875,
          "velocity": 0.3937007874015748
        },
        {
          "duration": 0.529411500000009,
          "durationTicks": 288,
          "midi": 56,
          "name": "G#3",
          "ticks": 64800,
          "time": 119.1175875,
          "velocity": 0.3937007874015748
        },
        {
          "duration": 0.529411500000009,
          "durationTicks": 288,
          "midi": 60,
          "name": "C4",
          "ticks": 64800,
          "time": 119.1175875,
          "velocity": 0.3937007874015748
        },
        {
          "duration": 0.529411500000009,
          "durationTicks": 288,
          "midi": 63,
          "name": "D#4",
          "ticks": 64800,
          "time": 119.1175875,
          "velocity": 0.3937007874015748
        },
        {
          "duration": 0.529411500000009,
          "durationTicks": 288,
          "midi": 75,
          "name": "D#5",
          "ticks": 64800,
          "time": 119.1175875,
          "velocity": 0.3937007874015748
        },
        {
          "duration": 0.35294099999998707,
          "durationTicks": 192,
          "midi": 29,
          "name": "F1",
          "ticks": 65088,
          "time": 119.64699900000001,
          "velocity": 0.3937007874015748
        },
        {
          "duration": 0.35294099999998707,
          "durationTicks": 192,
          "midi": 41,
          "name": "F2",
          "ticks": 65088,
          "time": 119.64699900000001,
          "velocity": 0.3937007874015748
        },
        {
          "duration": 0.35294099999998707,
          "durationTicks": 192,
          "midi": 53,
          "name": "F3",
          "ticks": 65088,
          "time": 119.64699900000001,
          "velocity": 0.3937007874015748
        },
        {
          "duration": 0.35294099999998707,
          "durationTicks": 192,
          "midi": 56,
          "name": "G#3",
          "ticks": 65088,
          "time": 119.64699900000001,
          "velocity": 0.3937007874015748
        },
        {
          "duration": 0.35294099999998707,
          "durationTicks": 192,
          "midi": 60,
          "name": "C4",
          "ticks": 65088,
          "time": 119.64699900000001,
          "velocity": 0.3937007874015748
        },
        {
          "duration": 0.35294099999998707,
          "durationTicks": 192,
          "midi": 63,
          "name": "D#4",
          "ticks": 65088,
          "time": 119.64699900000001,
          "velocity": 0.3937007874015748
        },
        {
          "duration": 0.35294099999998707,
          "durationTicks": 192,
          "midi": 75,
          "name": "D#5",
          "ticks": 65088,
          "time": 119.64699900000001,
          "velocity": 0.3937007874015748
        },
        {
          "duration": 0.529411500000009,
          "durationTicks": 288,
          "midi": 34,
          "name": "A#1",
          "ticks": 65280,
          "time": 119.99994,
          "velocity": 0.3937007874015748
        },
        {
          "duration": 0.529411500000009,
          "durationTicks": 288,
          "midi": 46,
          "name": "A#2",
          "ticks": 65280,
          "time": 119.99994,
          "velocity": 0.3937007874015748
        },
        {
          "duration": 0.529411500000009,
          "durationTicks": 288,
          "midi": 58,
          "name": "A#3",
          "ticks": 65280,
          "time": 119.99994,
          "velocity": 0.3937007874015748
        },
        {
          "duration": 0.529411500000009,
          "durationTicks": 288,
          "midi": 61,
          "name": "C#4",
          "ticks": 65280,
          "time": 119.99994,
          "velocity": 0.3937007874015748
        },
        {
          "duration": 0.529411500000009,
          "durationTicks": 288,
          "midi": 65,
          "name": "F4",
          "ticks": 65280,
          "time": 119.99994,
          "velocity": 0.3937007874015748
        },
        {
          "duration": 0.529411500000009,
          "durationTicks": 288,
          "midi": 68,
          "name": "G#4",
          "ticks": 65280,
          "time": 119.99994,
          "velocity": 0.3937007874015748
        },
        {
          "duration": 0.529411500000009,
          "durationTicks": 288,
          "midi": 70,
          "name": "A#4",
          "ticks": 65280,
          "time": 119.99994,
          "velocity": 0.3937007874015748
        },
        {
          "duration": 0.5294114999999948,
          "durationTicks": 288,
          "midi": 34,
          "name": "A#1",
          "ticks": 65568,
          "time": 120.5293515,
          "velocity": 0.3937007874015748
        },
        {
          "duration": 0.5294114999999948,
          "durationTicks": 288,
          "midi": 46,
          "name": "A#2",
          "ticks": 65568,
          "time": 120.5293515,
          "velocity": 0.3937007874015748
        },
        {
          "duration": 0.5294114999999948,
          "durationTicks": 288,
          "midi": 58,
          "name": "A#3",
          "ticks": 65568,
          "time": 120.5293515,
          "velocity": 0.3937007874015748
        },
        {
          "duration": 0.5294114999999948,
          "durationTicks": 288,
          "midi": 61,
          "name": "C#4",
          "ticks": 65568,
          "time": 120.5293515,
          "velocity": 0.3937007874015748
        },
        {
          "duration": 0.5294114999999948,
          "durationTicks": 288,
          "midi": 65,
          "name": "F4",
          "ticks": 65568,
          "time": 120.5293515,
          "velocity": 0.3937007874015748
        },
        {
          "duration": 0.5294114999999948,
          "durationTicks": 288,
          "midi": 68,
          "name": "G#4",
          "ticks": 65568,
          "time": 120.5293515,
          "velocity": 0.3937007874015748
        },
        {
          "duration": 0.5294114999999948,
          "durationTicks": 288,
          "midi": 70,
          "name": "A#4",
          "ticks": 65568,
          "time": 120.5293515,
          "velocity": 0.3937007874015748
        },
        {
          "duration": 0.529411500000009,
          "durationTicks": 288,
          "midi": 32,
          "name": "G#1",
          "ticks": 65856,
          "time": 121.058763,
          "velocity": 0.3937007874015748
        },
        {
          "duration": 0.529411500000009,
          "durationTicks": 288,
          "midi": 44,
          "name": "G#2",
          "ticks": 65856,
          "time": 121.058763,
          "velocity": 0.3937007874015748
        },
        {
          "duration": 0.529411500000009,
          "durationTicks": 288,
          "midi": 56,
          "name": "G#3",
          "ticks": 65856,
          "time": 121.058763,
          "velocity": 0.3937007874015748
        },
        {
          "duration": 0.529411500000009,
          "durationTicks": 288,
          "midi": 60,
          "name": "C4",
          "ticks": 65856,
          "time": 121.058763,
          "velocity": 0.3937007874015748
        },
        {
          "duration": 0.529411500000009,
          "durationTicks": 288,
          "midi": 63,
          "name": "D#4",
          "ticks": 65856,
          "time": 121.058763,
          "velocity": 0.3937007874015748
        },
        {
          "duration": 0.529411500000009,
          "durationTicks": 288,
          "midi": 67,
          "name": "G4",
          "ticks": 65856,
          "time": 121.058763,
          "velocity": 0.3937007874015748
        },
        {
          "duration": 0.529411500000009,
          "durationTicks": 288,
          "midi": 68,
          "name": "G#4",
          "ticks": 65856,
          "time": 121.058763,
          "velocity": 0.3937007874015748
        },
        {
          "duration": 0.5294114999999948,
          "durationTicks": 288,
          "midi": 32,
          "name": "G#1",
          "ticks": 66144,
          "time": 121.58817450000001,
          "velocity": 0.3937007874015748
        },
        {
          "duration": 0.5294114999999948,
          "durationTicks": 288,
          "midi": 44,
          "name": "G#2",
          "ticks": 66144,
          "time": 121.58817450000001,
          "velocity": 0.3937007874015748
        },
        {
          "duration": 0.5294114999999948,
          "durationTicks": 288,
          "midi": 56,
          "name": "G#3",
          "ticks": 66144,
          "time": 121.58817450000001,
          "velocity": 0.3937007874015748
        },
        {
          "duration": 0.5294114999999948,
          "durationTicks": 288,
          "midi": 60,
          "name": "C4",
          "ticks": 66144,
          "time": 121.58817450000001,
          "velocity": 0.3937007874015748
        },
        {
          "duration": 0.5294114999999948,
          "durationTicks": 288,
          "midi": 63,
          "name": "D#4",
          "ticks": 66144,
          "time": 121.58817450000001,
          "velocity": 0.3937007874015748
        },
        {
          "duration": 0.5294114999999948,
          "durationTicks": 288,
          "midi": 67,
          "name": "G4",
          "ticks": 66144,
          "time": 121.58817450000001,
          "velocity": 0.3937007874015748
        },
        {
          "duration": 0.5294114999999948,
          "durationTicks": 288,
          "midi": 68,
          "name": "G#4",
          "ticks": 66144,
          "time": 121.58817450000001,
          "velocity": 0.3937007874015748
        },
        {
          "duration": 0.5294114999999948,
          "durationTicks": 288,
          "midi": 32,
          "name": "G#1",
          "ticks": 66432,
          "time": 122.117586,
          "velocity": 0.3937007874015748
        },
        {
          "duration": 0.5294114999999948,
          "durationTicks": 288,
          "midi": 44,
          "name": "G#2",
          "ticks": 66432,
          "time": 122.117586,
          "velocity": 0.3937007874015748
        },
        {
          "duration": 0.5294114999999948,
          "durationTicks": 288,
          "midi": 56,
          "name": "G#3",
          "ticks": 66432,
          "time": 122.117586,
          "velocity": 0.3937007874015748
        },
        {
          "duration": 0.5294114999999948,
          "durationTicks": 288,
          "midi": 60,
          "name": "C4",
          "ticks": 66432,
          "time": 122.117586,
          "velocity": 0.3937007874015748
        },
        {
          "duration": 0.5294114999999948,
          "durationTicks": 288,
          "midi": 63,
          "name": "D#4",
          "ticks": 66432,
          "time": 122.117586,
          "velocity": 0.3937007874015748
        },
        {
          "duration": 0.5294114999999948,
          "durationTicks": 288,
          "midi": 67,
          "name": "G4",
          "ticks": 66432,
          "time": 122.117586,
          "velocity": 0.3937007874015748
        },
        {
          "duration": 0.5294114999999948,
          "durationTicks": 288,
          "midi": 68,
          "name": "G#4",
          "ticks": 66432,
          "time": 122.117586,
          "velocity": 0.3937007874015748
        },
        {
          "duration": 0.529411500000009,
          "durationTicks": 288,
          "midi": 32,
          "name": "G#1",
          "ticks": 66720,
          "time": 122.6469975,
          "velocity": 0.3937007874015748
        },
        {
          "duration": 0.529411500000009,
          "durationTicks": 288,
          "midi": 44,
          "name": "G#2",
          "ticks": 66720,
          "time": 122.6469975,
          "velocity": 0.3937007874015748
        },
        {
          "duration": 0.529411500000009,
          "durationTicks": 288,
          "midi": 56,
          "name": "G#3",
          "ticks": 66720,
          "time": 122.6469975,
          "velocity": 0.3937007874015748
        },
        {
          "duration": 0.529411500000009,
          "durationTicks": 288,
          "midi": 60,
          "name": "C4",
          "ticks": 66720,
          "time": 122.6469975,
          "velocity": 0.3937007874015748
        },
        {
          "duration": 0.529411500000009,
          "durationTicks": 288,
          "midi": 63,
          "name": "D#4",
          "ticks": 66720,
          "time": 122.6469975,
          "velocity": 0.3937007874015748
        },
        {
          "duration": 0.529411500000009,
          "durationTicks": 288,
          "midi": 67,
          "name": "G4",
          "ticks": 66720,
          "time": 122.6469975,
          "velocity": 0.3937007874015748
        },
        {
          "duration": 0.529411500000009,
          "durationTicks": 288,
          "midi": 68,
          "name": "G#4",
          "ticks": 66720,
          "time": 122.6469975,
          "velocity": 0.3937007874015748
        },
        {
          "duration": 0.5294114999999948,
          "durationTicks": 288,
          "midi": 32,
          "name": "G#1",
          "ticks": 67008,
          "time": 123.176409,
          "velocity": 0.3937007874015748
        },
        {
          "duration": 0.5294114999999948,
          "durationTicks": 288,
          "midi": 44,
          "name": "G#2",
          "ticks": 67008,
          "time": 123.176409,
          "velocity": 0.3937007874015748
        },
        {
          "duration": 0.5294114999999948,
          "durationTicks": 288,
          "midi": 56,
          "name": "G#3",
          "ticks": 67008,
          "time": 123.176409,
          "velocity": 0.3937007874015748
        },
        {
          "duration": 0.5294114999999948,
          "durationTicks": 288,
          "midi": 60,
          "name": "C4",
          "ticks": 67008,
          "time": 123.176409,
          "velocity": 0.3937007874015748
        },
        {
          "duration": 0.5294114999999948,
          "durationTicks": 288,
          "midi": 63,
          "name": "D#4",
          "ticks": 67008,
          "time": 123.176409,
          "velocity": 0.3937007874015748
        },
        {
          "duration": 0.5294114999999948,
          "durationTicks": 288,
          "midi": 67,
          "name": "G4",
          "ticks": 67008,
          "time": 123.176409,
          "velocity": 0.3937007874015748
        },
        {
          "duration": 0.5294114999999948,
          "durationTicks": 288,
          "midi": 68,
          "name": "G#4",
          "ticks": 67008,
          "time": 123.176409,
          "velocity": 0.3937007874015748
        },
        {
          "duration": 0.5294114999999948,
          "durationTicks": 288,
          "midi": 32,
          "name": "G#1",
          "ticks": 67296,
          "time": 123.7058205,
          "velocity": 0.3937007874015748
        },
        {
          "duration": 0.5294114999999948,
          "durationTicks": 288,
          "midi": 44,
          "name": "G#2",
          "ticks": 67296,
          "time": 123.7058205,
          "velocity": 0.3937007874015748
        },
        {
          "duration": 0.5294114999999948,
          "durationTicks": 288,
          "midi": 56,
          "name": "G#3",
          "ticks": 67296,
          "time": 123.7058205,
          "velocity": 0.3937007874015748
        },
        {
          "duration": 0.5294114999999948,
          "durationTicks": 288,
          "midi": 60,
          "name": "C4",
          "ticks": 67296,
          "time": 123.7058205,
          "velocity": 0.3937007874015748
        },
        {
          "duration": 0.5294114999999948,
          "durationTicks": 288,
          "midi": 63,
          "name": "D#4",
          "ticks": 67296,
          "time": 123.7058205,
          "velocity": 0.3937007874015748
        },
        {
          "duration": 0.5294114999999948,
          "durationTicks": 288,
          "midi": 67,
          "name": "G4",
          "ticks": 67296,
          "time": 123.7058205,
          "velocity": 0.3937007874015748
        },
        {
          "duration": 0.5294114999999948,
          "durationTicks": 288,
          "midi": 68,
          "name": "G#4",
          "ticks": 67296,
          "time": 123.7058205,
          "velocity": 0.3937007874015748
        },
        {
          "duration": 0.529411500000009,
          "durationTicks": 288,
          "midi": 29,
          "name": "F1",
          "ticks": 67584,
          "time": 124.235232,
          "velocity": 0.3937007874015748
        },
        {
          "duration": 0.529411500000009,
          "durationTicks": 288,
          "midi": 41,
          "name": "F2",
          "ticks": 67584,
          "time": 124.235232,
          "velocity": 0.3937007874015748
        },
        {
          "duration": 0.529411500000009,
          "durationTicks": 288,
          "midi": 53,
          "name": "F3",
          "ticks": 67584,
          "time": 124.235232,
          "velocity": 0.3937007874015748
        },
        {
          "duration": 0.529411500000009,
          "durationTicks": 288,
          "midi": 56,
          "name": "G#3",
          "ticks": 67584,
          "time": 124.235232,
          "velocity": 0.3937007874015748
        },
        {
          "duration": 0.529411500000009,
          "durationTicks": 288,
          "midi": 60,
          "name": "C4",
          "ticks": 67584,
          "time": 124.235232,
          "velocity": 0.3937007874015748
        },
        {
          "duration": 0.529411500000009,
          "durationTicks": 288,
          "midi": 63,
          "name": "D#4",
          "ticks": 67584,
          "time": 124.235232,
          "velocity": 0.3937007874015748
        },
        {
          "duration": 0.529411500000009,
          "durationTicks": 288,
          "midi": 72,
          "name": "C5",
          "ticks": 67584,
          "time": 124.235232,
          "velocity": 0.3937007874015748
        },
        {
          "duration": 0.5294114999999948,
          "durationTicks": 288,
          "midi": 29,
          "name": "F1",
          "ticks": 67872,
          "time": 124.7646435,
          "velocity": 0.3937007874015748
        },
        {
          "duration": 0.5294114999999948,
          "durationTicks": 288,
          "midi": 41,
          "name": "F2",
          "ticks": 67872,
          "time": 124.7646435,
          "velocity": 0.3937007874015748
        },
        {
          "duration": 0.5294114999999948,
          "durationTicks": 288,
          "midi": 53,
          "name": "F3",
          "ticks": 67872,
          "time": 124.7646435,
          "velocity": 0.3937007874015748
        },
        {
          "duration": 0.5294114999999948,
          "durationTicks": 288,
          "midi": 56,
          "name": "G#3",
          "ticks": 67872,
          "time": 124.7646435,
          "velocity": 0.3937007874015748
        },
        {
          "duration": 0.5294114999999948,
          "durationTicks": 288,
          "midi": 60,
          "name": "C4",
          "ticks": 67872,
          "time": 124.7646435,
          "velocity": 0.3937007874015748
        },
        {
          "duration": 0.5294114999999948,
          "durationTicks": 288,
          "midi": 63,
          "name": "D#4",
          "ticks": 67872,
          "time": 124.7646435,
          "velocity": 0.3937007874015748
        },
        {
          "duration": 0.5294114999999948,
          "durationTicks": 288,
          "midi": 72,
          "name": "C5",
          "ticks": 67872,
          "time": 124.7646435,
          "velocity": 0.3937007874015748
        },
        {
          "duration": 0.3529410000000013,
          "durationTicks": 192,
          "midi": 29,
          "name": "F1",
          "ticks": 68160,
          "time": 125.294055,
          "velocity": 0.3937007874015748
        },
        {
          "duration": 0.3529410000000013,
          "durationTicks": 192,
          "midi": 41,
          "name": "F2",
          "ticks": 68160,
          "time": 125.294055,
          "velocity": 0.3937007874015748
        },
        {
          "duration": 0.3529410000000013,
          "durationTicks": 192,
          "midi": 53,
          "name": "F3",
          "ticks": 68160,
          "time": 125.294055,
          "velocity": 0.3937007874015748
        },
        {
          "duration": 0.3529410000000013,
          "durationTicks": 192,
          "midi": 56,
          "name": "G#3",
          "ticks": 68160,
          "time": 125.294055,
          "velocity": 0.3937007874015748
        },
        {
          "duration": 0.3529410000000013,
          "durationTicks": 192,
          "midi": 60,
          "name": "C4",
          "ticks": 68160,
          "time": 125.294055,
          "velocity": 0.3937007874015748
        },
        {
          "duration": 0.3529410000000013,
          "durationTicks": 192,
          "midi": 63,
          "name": "D#4",
          "ticks": 68160,
          "time": 125.294055,
          "velocity": 0.3937007874015748
        },
        {
          "duration": 0.3529410000000013,
          "durationTicks": 192,
          "midi": 72,
          "name": "C5",
          "ticks": 68160,
          "time": 125.294055,
          "velocity": 0.3937007874015748
        },
        {
          "duration": 0.5294114999999948,
          "durationTicks": 288,
          "midi": 32,
          "name": "G#1",
          "ticks": 68352,
          "time": 125.646996,
          "velocity": 0.3937007874015748
        },
        {
          "duration": 0.5294114999999948,
          "durationTicks": 288,
          "midi": 44,
          "name": "G#2",
          "ticks": 68352,
          "time": 125.646996,
          "velocity": 0.3937007874015748
        },
        {
          "duration": 0.5294114999999948,
          "durationTicks": 288,
          "midi": 56,
          "name": "G#3",
          "ticks": 68352,
          "time": 125.646996,
          "velocity": 0.3937007874015748
        },
        {
          "duration": 0.5294114999999948,
          "durationTicks": 288,
          "midi": 60,
          "name": "C4",
          "ticks": 68352,
          "time": 125.646996,
          "velocity": 0.3937007874015748
        },
        {
          "duration": 0.5294114999999948,
          "durationTicks": 288,
          "midi": 63,
          "name": "D#4",
          "ticks": 68352,
          "time": 125.646996,
          "velocity": 0.3937007874015748
        },
        {
          "duration": 0.5294114999999948,
          "durationTicks": 288,
          "midi": 67,
          "name": "G4",
          "ticks": 68352,
          "time": 125.646996,
          "velocity": 0.3937007874015748
        },
        {
          "duration": 0.5294114999999948,
          "durationTicks": 288,
          "midi": 68,
          "name": "G#4",
          "ticks": 68352,
          "time": 125.646996,
          "velocity": 0.3937007874015748
        },
        {
          "duration": 0.529411500000009,
          "durationTicks": 288,
          "midi": 32,
          "name": "G#1",
          "ticks": 68640,
          "time": 126.1764075,
          "velocity": 0.3937007874015748
        },
        {
          "duration": 0.529411500000009,
          "durationTicks": 288,
          "midi": 44,
          "name": "G#2",
          "ticks": 68640,
          "time": 126.1764075,
          "velocity": 0.3937007874015748
        },
        {
          "duration": 0.529411500000009,
          "durationTicks": 288,
          "midi": 56,
          "name": "G#3",
          "ticks": 68640,
          "time": 126.1764075,
          "velocity": 0.3937007874015748
        },
        {
          "duration": 0.529411500000009,
          "durationTicks": 288,
          "midi": 60,
          "name": "C4",
          "ticks": 68640,
          "time": 126.1764075,
          "velocity": 0.3937007874015748
        },
        {
          "duration": 0.529411500000009,
          "durationTicks": 288,
          "midi": 63,
          "name": "D#4",
          "ticks": 68640,
          "time": 126.1764075,
          "velocity": 0.3937007874015748
        },
        {
          "duration": 0.529411500000009,
          "durationTicks": 288,
          "midi": 67,
          "name": "G4",
          "ticks": 68640,
          "time": 126.1764075,
          "velocity": 0.3937007874015748
        },
        {
          "duration": 0.529411500000009,
          "durationTicks": 288,
          "midi": 68,
          "name": "G#4",
          "ticks": 68640,
          "time": 126.1764075,
          "velocity": 0.3937007874015748
        },
        {
          "duration": 0.5294114999999948,
          "durationTicks": 288,
          "midi": 36,
          "name": "C2",
          "ticks": 68928,
          "time": 126.705819,
          "velocity": 0.3937007874015748
        },
        {
          "duration": 0.5294114999999948,
          "durationTicks": 288,
          "midi": 48,
          "name": "C3",
          "ticks": 68928,
          "time": 126.705819,
          "velocity": 0.3937007874015748
        },
        {
          "duration": 0.5294114999999948,
          "durationTicks": 288,
          "midi": 60,
          "name": "C4",
          "ticks": 68928,
          "time": 126.705819,
          "velocity": 0.3937007874015748
        },
        {
          "duration": 0.5294114999999948,
          "durationTicks": 288,
          "midi": 63,
          "name": "D#4",
          "ticks": 68928,
          "time": 126.705819,
          "velocity": 0.3937007874015748
        },
        {
          "duration": 0.5294114999999948,
          "durationTicks": 288,
          "midi": 65,
          "name": "F4",
          "ticks": 68928,
          "time": 126.705819,
          "velocity": 0.3937007874015748
        },
        {
          "duration": 0.5294114999999948,
          "durationTicks": 288,
          "midi": 67,
          "name": "G4",
          "ticks": 68928,
          "time": 126.705819,
          "velocity": 0.3937007874015748
        },
        {
          "duration": 0.5294114999999948,
          "durationTicks": 288,
          "midi": 70,
          "name": "A#4",
          "ticks": 68928,
          "time": 126.705819,
          "velocity": 0.3937007874015748
        },
        {
          "duration": 0.5294114999999948,
          "durationTicks": 288,
          "midi": 36,
          "name": "C2",
          "ticks": 69216,
          "time": 127.2352305,
          "velocity": 0.3937007874015748
        },
        {
          "duration": 0.5294114999999948,
          "durationTicks": 288,
          "midi": 48,
          "name": "C3",
          "ticks": 69216,
          "time": 127.2352305,
          "velocity": 0.3937007874015748
        },
        {
          "duration": 0.5294114999999948,
          "durationTicks": 288,
          "midi": 60,
          "name": "C4",
          "ticks": 69216,
          "time": 127.2352305,
          "velocity": 0.3937007874015748
        },
        {
          "duration": 0.5294114999999948,
          "durationTicks": 288,
          "midi": 63,
          "name": "D#4",
          "ticks": 69216,
          "time": 127.2352305,
          "velocity": 0.3937007874015748
        },
        {
          "duration": 0.5294114999999948,
          "durationTicks": 288,
          "midi": 65,
          "name": "F4",
          "ticks": 69216,
          "time": 127.2352305,
          "velocity": 0.3937007874015748
        },
        {
          "duration": 0.5294114999999948,
          "durationTicks": 288,
          "midi": 67,
          "name": "G4",
          "ticks": 69216,
          "time": 127.2352305,
          "velocity": 0.3937007874015748
        },
        {
          "duration": 0.5294114999999948,
          "durationTicks": 288,
          "midi": 70,
          "name": "A#4",
          "ticks": 69216,
          "time": 127.2352305,
          "velocity": 0.3937007874015748
        },
        {
          "duration": 0.5294114999999948,
          "durationTicks": 288,
          "midi": 36,
          "name": "C2",
          "ticks": 69504,
          "time": 127.764642,
          "velocity": 0.3937007874015748
        },
        {
          "duration": 0.5294114999999948,
          "durationTicks": 288,
          "midi": 48,
          "name": "C3",
          "ticks": 69504,
          "time": 127.764642,
          "velocity": 0.3937007874015748
        },
        {
          "duration": 0.5294114999999948,
          "durationTicks": 288,
          "midi": 60,
          "name": "C4",
          "ticks": 69504,
          "time": 127.764642,
          "velocity": 0.3937007874015748
        },
        {
          "duration": 0.5294114999999948,
          "durationTicks": 288,
          "midi": 63,
          "name": "D#4",
          "ticks": 69504,
          "time": 127.764642,
          "velocity": 0.3937007874015748
        },
        {
          "duration": 0.5294114999999948,
          "durationTicks": 288,
          "midi": 65,
          "name": "F4",
          "ticks": 69504,
          "time": 127.764642,
          "velocity": 0.3937007874015748
        },
        {
          "duration": 0.5294114999999948,
          "durationTicks": 288,
          "midi": 67,
          "name": "G4",
          "ticks": 69504,
          "time": 127.764642,
          "velocity": 0.3937007874015748
        },
        {
          "duration": 0.5294114999999948,
          "durationTicks": 288,
          "midi": 70,
          "name": "A#4",
          "ticks": 69504,
          "time": 127.764642,
          "velocity": 0.3937007874015748
        },
        {
          "duration": 0.529411500000009,
          "durationTicks": 288,
          "midi": 36,
          "name": "C2",
          "ticks": 69792,
          "time": 128.2940535,
          "velocity": 0.3937007874015748
        },
        {
          "duration": 0.529411500000009,
          "durationTicks": 288,
          "midi": 48,
          "name": "C3",
          "ticks": 69792,
          "time": 128.2940535,
          "velocity": 0.3937007874015748
        },
        {
          "duration": 0.529411500000009,
          "durationTicks": 288,
          "midi": 60,
          "name": "C4",
          "ticks": 69792,
          "time": 128.2940535,
          "velocity": 0.3937007874015748
        },
        {
          "duration": 0.529411500000009,
          "durationTicks": 288,
          "midi": 63,
          "name": "D#4",
          "ticks": 69792,
          "time": 128.2940535,
          "velocity": 0.3937007874015748
        },
        {
          "duration": 0.529411500000009,
          "durationTicks": 288,
          "midi": 65,
          "name": "F4",
          "ticks": 69792,
          "time": 128.2940535,
          "velocity": 0.3937007874015748
        },
        {
          "duration": 0.529411500000009,
          "durationTicks": 288,
          "midi": 67,
          "name": "G4",
          "ticks": 69792,
          "time": 128.2940535,
          "velocity": 0.3937007874015748
        },
        {
          "duration": 0.529411500000009,
          "durationTicks": 288,
          "midi": 70,
          "name": "A#4",
          "ticks": 69792,
          "time": 128.2940535,
          "velocity": 0.3937007874015748
        },
        {
          "duration": 0.529411500000009,
          "durationTicks": 288,
          "midi": 36,
          "name": "C2",
          "ticks": 70080,
          "time": 128.823465,
          "velocity": 0.3937007874015748
        },
        {
          "duration": 0.529411500000009,
          "durationTicks": 288,
          "midi": 48,
          "name": "C3",
          "ticks": 70080,
          "time": 128.823465,
          "velocity": 0.3937007874015748
        },
        {
          "duration": 0.529411500000009,
          "durationTicks": 288,
          "midi": 60,
          "name": "C4",
          "ticks": 70080,
          "time": 128.823465,
          "velocity": 0.3937007874015748
        },
        {
          "duration": 0.529411500000009,
          "durationTicks": 288,
          "midi": 63,
          "name": "D#4",
          "ticks": 70080,
          "time": 128.823465,
          "velocity": 0.3937007874015748
        },
        {
          "duration": 0.529411500000009,
          "durationTicks": 288,
          "midi": 65,
          "name": "F4",
          "ticks": 70080,
          "time": 128.823465,
          "velocity": 0.3937007874015748
        },
        {
          "duration": 0.529411500000009,
          "durationTicks": 288,
          "midi": 67,
          "name": "G4",
          "ticks": 70080,
          "time": 128.823465,
          "velocity": 0.3937007874015748
        },
        {
          "duration": 0.529411500000009,
          "durationTicks": 288,
          "midi": 70,
          "name": "A#4",
          "ticks": 70080,
          "time": 128.823465,
          "velocity": 0.3937007874015748
        },
        {
          "duration": 0.5294114999999806,
          "durationTicks": 288,
          "midi": 36,
          "name": "C2",
          "ticks": 70368,
          "time": 129.3528765,
          "velocity": 0.3937007874015748
        },
        {
          "duration": 0.5294114999999806,
          "durationTicks": 288,
          "midi": 48,
          "name": "C3",
          "ticks": 70368,
          "time": 129.3528765,
          "velocity": 0.3937007874015748
        },
        {
          "duration": 0.5294114999999806,
          "durationTicks": 288,
          "midi": 60,
          "name": "C4",
          "ticks": 70368,
          "time": 129.3528765,
          "velocity": 0.3937007874015748
        },
        {
          "duration": 0.5294114999999806,
          "durationTicks": 288,
          "midi": 63,
          "name": "D#4",
          "ticks": 70368,
          "time": 129.3528765,
          "velocity": 0.3937007874015748
        },
        {
          "duration": 0.5294114999999806,
          "durationTicks": 288,
          "midi": 65,
          "name": "F4",
          "ticks": 70368,
          "time": 129.3528765,
          "velocity": 0.3937007874015748
        },
        {
          "duration": 0.5294114999999806,
          "durationTicks": 288,
          "midi": 67,
          "name": "G4",
          "ticks": 70368,
          "time": 129.3528765,
          "velocity": 0.3937007874015748
        },
        {
          "duration": 0.5294114999999806,
          "durationTicks": 288,
          "midi": 70,
          "name": "A#4",
          "ticks": 70368,
          "time": 129.3528765,
          "velocity": 0.3937007874015748
        },
        {
          "duration": 0.529411500000009,
          "durationTicks": 288,
          "midi": 29,
          "name": "F1",
          "ticks": 70656,
          "time": 129.882288,
          "velocity": 0.3937007874015748
        },
        {
          "duration": 0.529411500000009,
          "durationTicks": 288,
          "midi": 41,
          "name": "F2",
          "ticks": 70656,
          "time": 129.882288,
          "velocity": 0.3937007874015748
        },
        {
          "duration": 0.529411500000009,
          "durationTicks": 288,
          "midi": 53,
          "name": "F3",
          "ticks": 70656,
          "time": 129.882288,
          "velocity": 0.3937007874015748
        },
        {
          "duration": 0.529411500000009,
          "durationTicks": 288,
          "midi": 56,
          "name": "G#3",
          "ticks": 70656,
          "time": 129.882288,
          "velocity": 0.3937007874015748
        },
        {
          "duration": 0.529411500000009,
          "durationTicks": 288,
          "midi": 60,
          "name": "C4",
          "ticks": 70656,
          "time": 129.882288,
          "velocity": 0.3937007874015748
        },
        {
          "duration": 0.529411500000009,
          "durationTicks": 288,
          "midi": 63,
          "name": "D#4",
          "ticks": 70656,
          "time": 129.882288,
          "velocity": 0.3937007874015748
        },
        {
          "duration": 0.529411500000009,
          "durationTicks": 288,
          "midi": 68,
          "name": "G#4",
          "ticks": 70656,
          "time": 129.882288,
          "velocity": 0.3937007874015748
        },
        {
          "duration": 0.529411500000009,
          "durationTicks": 288,
          "midi": 29,
          "name": "F1",
          "ticks": 70944,
          "time": 130.4116995,
          "velocity": 0.3937007874015748
        },
        {
          "duration": 0.529411500000009,
          "durationTicks": 288,
          "midi": 41,
          "name": "F2",
          "ticks": 70944,
          "time": 130.4116995,
          "velocity": 0.3937007874015748
        },
        {
          "duration": 0.529411500000009,
          "durationTicks": 288,
          "midi": 53,
          "name": "F3",
          "ticks": 70944,
          "time": 130.4116995,
          "velocity": 0.3937007874015748
        },
        {
          "duration": 0.529411500000009,
          "durationTicks": 288,
          "midi": 56,
          "name": "G#3",
          "ticks": 70944,
          "time": 130.4116995,
          "velocity": 0.3937007874015748
        },
        {
          "duration": 0.529411500000009,
          "durationTicks": 288,
          "midi": 60,
          "name": "C4",
          "ticks": 70944,
          "time": 130.4116995,
          "velocity": 0.3937007874015748
        },
        {
          "duration": 0.529411500000009,
          "durationTicks": 288,
          "midi": 63,
          "name": "D#4",
          "ticks": 70944,
          "time": 130.4116995,
          "velocity": 0.3937007874015748
        },
        {
          "duration": 0.529411500000009,
          "durationTicks": 288,
          "midi": 68,
          "name": "G#4",
          "ticks": 70944,
          "time": 130.4116995,
          "velocity": 0.3937007874015748
        },
        {
          "duration": 0.35294099999998707,
          "durationTicks": 192,
          "midi": 29,
          "name": "F1",
          "ticks": 71232,
          "time": 130.941111,
          "velocity": 0.3937007874015748
        },
        {
          "duration": 0.35294099999998707,
          "durationTicks": 192,
          "midi": 41,
          "name": "F2",
          "ticks": 71232,
          "time": 130.941111,
          "velocity": 0.3937007874015748
        },
        {
          "duration": 0.35294099999998707,
          "durationTicks": 192,
          "midi": 53,
          "name": "F3",
          "ticks": 71232,
          "time": 130.941111,
          "velocity": 0.3937007874015748
        },
        {
          "duration": 0.35294099999998707,
          "durationTicks": 192,
          "midi": 56,
          "name": "G#3",
          "ticks": 71232,
          "time": 130.941111,
          "velocity": 0.3937007874015748
        },
        {
          "duration": 0.35294099999998707,
          "durationTicks": 192,
          "midi": 60,
          "name": "C4",
          "ticks": 71232,
          "time": 130.941111,
          "velocity": 0.3937007874015748
        },
        {
          "duration": 0.35294099999998707,
          "durationTicks": 192,
          "midi": 63,
          "name": "D#4",
          "ticks": 71232,
          "time": 130.941111,
          "velocity": 0.3937007874015748
        },
        {
          "duration": 0.35294099999998707,
          "durationTicks": 192,
          "midi": 68,
          "name": "G#4",
          "ticks": 71232,
          "time": 130.941111,
          "velocity": 0.3937007874015748
        },
        {
          "duration": 0.529411500000009,
          "durationTicks": 288,
          "midi": 34,
          "name": "A#1",
          "ticks": 71424,
          "time": 131.294052,
          "velocity": 0.3937007874015748
        },
        {
          "duration": 0.529411500000009,
          "durationTicks": 288,
          "midi": 46,
          "name": "A#2",
          "ticks": 71424,
          "time": 131.294052,
          "velocity": 0.3937007874015748
        },
        {
          "duration": 0.529411500000009,
          "durationTicks": 288,
          "midi": 58,
          "name": "A#3",
          "ticks": 71424,
          "time": 131.294052,
          "velocity": 0.3937007874015748
        },
        {
          "duration": 0.529411500000009,
          "durationTicks": 288,
          "midi": 61,
          "name": "C#4",
          "ticks": 71424,
          "time": 131.294052,
          "velocity": 0.3937007874015748
        },
        {
          "duration": 0.529411500000009,
          "durationTicks": 288,
          "midi": 65,
          "name": "F4",
          "ticks": 71424,
          "time": 131.294052,
          "velocity": 0.3937007874015748
        },
        {
          "duration": 0.529411500000009,
          "durationTicks": 288,
          "midi": 67,
          "name": "G4",
          "ticks": 71424,
          "time": 131.294052,
          "velocity": 0.3937007874015748
        },
        {
          "duration": 0.529411500000009,
          "durationTicks": 288,
          "midi": 68,
          "name": "G#4",
          "ticks": 71424,
          "time": 131.294052,
          "velocity": 0.3937007874015748
        },
        {
          "duration": 0.529411500000009,
          "durationTicks": 288,
          "midi": 34,
          "name": "A#1",
          "ticks": 71712,
          "time": 131.8234635,
          "velocity": 0.3937007874015748
        },
        {
          "duration": 0.529411500000009,
          "durationTicks": 288,
          "midi": 46,
          "name": "A#2",
          "ticks": 71712,
          "time": 131.8234635,
          "velocity": 0.3937007874015748
        },
        {
          "duration": 0.529411500000009,
          "durationTicks": 288,
          "midi": 58,
          "name": "A#3",
          "ticks": 71712,
          "time": 131.8234635,
          "velocity": 0.3937007874015748
        },
        {
          "duration": 0.529411500000009,
          "durationTicks": 288,
          "midi": 61,
          "name": "C#4",
          "ticks": 71712,
          "time": 131.8234635,
          "velocity": 0.3937007874015748
        },
        {
          "duration": 0.529411500000009,
          "durationTicks": 288,
          "midi": 65,
          "name": "F4",
          "ticks": 71712,
          "time": 131.8234635,
          "velocity": 0.3937007874015748
        },
        {
          "duration": 0.529411500000009,
          "durationTicks": 288,
          "midi": 67,
          "name": "G4",
          "ticks": 71712,
          "time": 131.8234635,
          "velocity": 0.3937007874015748
        },
        {
          "duration": 0.529411500000009,
          "durationTicks": 288,
          "midi": 68,
          "name": "G#4",
          "ticks": 71712,
          "time": 131.8234635,
          "velocity": 0.3937007874015748
        },
        {
          "duration": 0.5294114999999806,
          "durationTicks": 288,
          "midi": 32,
          "name": "G#1",
          "ticks": 72000,
          "time": 132.352875,
          "velocity": 0.3937007874015748
        },
        {
          "duration": 0.5294114999999806,
          "durationTicks": 288,
          "midi": 44,
          "name": "G#2",
          "ticks": 72000,
          "time": 132.352875,
          "velocity": 0.3937007874015748
        },
        {
          "duration": 0.5294114999999806,
          "durationTicks": 288,
          "midi": 56,
          "name": "G#3",
          "ticks": 72000,
          "time": 132.352875,
          "velocity": 0.3937007874015748
        },
        {
          "duration": 0.5294114999999806,
          "durationTicks": 288,
          "midi": 60,
          "name": "C4",
          "ticks": 72000,
          "time": 132.352875,
          "velocity": 0.3937007874015748
        },
        {
          "duration": 0.5294114999999806,
          "durationTicks": 288,
          "midi": 63,
          "name": "D#4",
          "ticks": 72000,
          "time": 132.352875,
          "velocity": 0.3937007874015748
        },
        {
          "duration": 0.5294114999999806,
          "durationTicks": 288,
          "midi": 65,
          "name": "F4",
          "ticks": 72000,
          "time": 132.352875,
          "velocity": 0.3937007874015748
        },
        {
          "duration": 0.5294114999999806,
          "durationTicks": 288,
          "midi": 67,
          "name": "G4",
          "ticks": 72000,
          "time": 132.352875,
          "velocity": 0.3937007874015748
        },
        {
          "duration": 0.529411500000009,
          "durationTicks": 288,
          "midi": 32,
          "name": "G#1",
          "ticks": 72288,
          "time": 132.8822865,
          "velocity": 0.3937007874015748
        },
        {
          "duration": 0.529411500000009,
          "durationTicks": 288,
          "midi": 44,
          "name": "G#2",
          "ticks": 72288,
          "time": 132.8822865,
          "velocity": 0.3937007874015748
        },
        {
          "duration": 0.529411500000009,
          "durationTicks": 288,
          "midi": 56,
          "name": "G#3",
          "ticks": 72288,
          "time": 132.8822865,
          "velocity": 0.3937007874015748
        },
        {
          "duration": 0.529411500000009,
          "durationTicks": 288,
          "midi": 60,
          "name": "C4",
          "ticks": 72288,
          "time": 132.8822865,
          "velocity": 0.3937007874015748
        },
        {
          "duration": 0.529411500000009,
          "durationTicks": 288,
          "midi": 63,
          "name": "D#4",
          "ticks": 72288,
          "time": 132.8822865,
          "velocity": 0.3937007874015748
        },
        {
          "duration": 0.529411500000009,
          "durationTicks": 288,
          "midi": 65,
          "name": "F4",
          "ticks": 72288,
          "time": 132.8822865,
          "velocity": 0.3937007874015748
        },
        {
          "duration": 0.529411500000009,
          "durationTicks": 288,
          "midi": 67,
          "name": "G4",
          "ticks": 72288,
          "time": 132.8822865,
          "velocity": 0.3937007874015748
        },
        {
          "duration": 0.529411500000009,
          "durationTicks": 288,
          "midi": 32,
          "name": "G#1",
          "ticks": 72576,
          "time": 133.411698,
          "velocity": 0.3937007874015748
        },
        {
          "duration": 0.529411500000009,
          "durationTicks": 288,
          "midi": 44,
          "name": "G#2",
          "ticks": 72576,
          "time": 133.411698,
          "velocity": 0.3937007874015748
        },
        {
          "duration": 0.529411500000009,
          "durationTicks": 288,
          "midi": 56,
          "name": "G#3",
          "ticks": 72576,
          "time": 133.411698,
          "velocity": 0.3937007874015748
        },
        {
          "duration": 0.529411500000009,
          "durationTicks": 288,
          "midi": 60,
          "name": "C4",
          "ticks": 72576,
          "time": 133.411698,
          "velocity": 0.3937007874015748
        },
        {
          "duration": 0.529411500000009,
          "durationTicks": 288,
          "midi": 63,
          "name": "D#4",
          "ticks": 72576,
          "time": 133.411698,
          "velocity": 0.3937007874015748
        },
        {
          "duration": 0.529411500000009,
          "durationTicks": 288,
          "midi": 65,
          "name": "F4",
          "ticks": 72576,
          "time": 133.411698,
          "velocity": 0.3937007874015748
        },
        {
          "duration": 0.529411500000009,
          "durationTicks": 288,
          "midi": 67,
          "name": "G4",
          "ticks": 72576,
          "time": 133.411698,
          "velocity": 0.3937007874015748
        },
        {
          "duration": 0.5294114999999806,
          "durationTicks": 288,
          "midi": 32,
          "name": "G#1",
          "ticks": 72864,
          "time": 133.9411095,
          "velocity": 0.3937007874015748
        },
        {
          "duration": 0.5294114999999806,
          "durationTicks": 288,
          "midi": 44,
          "name": "G#2",
          "ticks": 72864,
          "time": 133.9411095,
          "velocity": 0.3937007874015748
        },
        {
          "duration": 0.5294114999999806,
          "durationTicks": 288,
          "midi": 56,
          "name": "G#3",
          "ticks": 72864,
          "time": 133.9411095,
          "velocity": 0.3937007874015748
        },
        {
          "duration": 0.5294114999999806,
          "durationTicks": 288,
          "midi": 60,
          "name": "C4",
          "ticks": 72864,
          "time": 133.9411095,
          "velocity": 0.3937007874015748
        },
        {
          "duration": 0.5294114999999806,
          "durationTicks": 288,
          "midi": 63,
          "name": "D#4",
          "ticks": 72864,
          "time": 133.9411095,
          "velocity": 0.3937007874015748
        },
        {
          "duration": 0.5294114999999806,
          "durationTicks": 288,
          "midi": 65,
          "name": "F4",
          "ticks": 72864,
          "time": 133.9411095,
          "velocity": 0.3937007874015748
        },
        {
          "duration": 0.5294114999999806,
          "durationTicks": 288,
          "midi": 67,
          "name": "G4",
          "ticks": 72864,
          "time": 133.9411095,
          "velocity": 0.3937007874015748
        },
        {
          "duration": 0.529411500000009,
          "durationTicks": 288,
          "midi": 32,
          "name": "G#1",
          "ticks": 73152,
          "time": 134.470521,
          "velocity": 0.3937007874015748
        },
        {
          "duration": 0.529411500000009,
          "durationTicks": 288,
          "midi": 44,
          "name": "G#2",
          "ticks": 73152,
          "time": 134.470521,
          "velocity": 0.3937007874015748
        },
        {
          "duration": 0.529411500000009,
          "durationTicks": 288,
          "midi": 56,
          "name": "G#3",
          "ticks": 73152,
          "time": 134.470521,
          "velocity": 0.3937007874015748
        },
        {
          "duration": 0.529411500000009,
          "durationTicks": 288,
          "midi": 60,
          "name": "C4",
          "ticks": 73152,
          "time": 134.470521,
          "velocity": 0.3937007874015748
        },
        {
          "duration": 0.529411500000009,
          "durationTicks": 288,
          "midi": 63,
          "name": "D#4",
          "ticks": 73152,
          "time": 134.470521,
          "velocity": 0.3937007874015748
        },
        {
          "duration": 0.529411500000009,
          "durationTicks": 288,
          "midi": 65,
          "name": "F4",
          "ticks": 73152,
          "time": 134.470521,
          "velocity": 0.3937007874015748
        },
        {
          "duration": 0.529411500000009,
          "durationTicks": 288,
          "midi": 67,
          "name": "G4",
          "ticks": 73152,
          "time": 134.470521,
          "velocity": 0.3937007874015748
        },
        {
          "duration": 0.529411500000009,
          "durationTicks": 288,
          "midi": 32,
          "name": "G#1",
          "ticks": 73440,
          "time": 134.9999325,
          "velocity": 0.3937007874015748
        },
        {
          "duration": 0.529411500000009,
          "durationTicks": 288,
          "midi": 44,
          "name": "G#2",
          "ticks": 73440,
          "time": 134.9999325,
          "velocity": 0.3937007874015748
        },
        {
          "duration": 0.529411500000009,
          "durationTicks": 288,
          "midi": 56,
          "name": "G#3",
          "ticks": 73440,
          "time": 134.9999325,
          "velocity": 0.3937007874015748
        },
        {
          "duration": 0.529411500000009,
          "durationTicks": 288,
          "midi": 60,
          "name": "C4",
          "ticks": 73440,
          "time": 134.9999325,
          "velocity": 0.3937007874015748
        },
        {
          "duration": 0.529411500000009,
          "durationTicks": 288,
          "midi": 63,
          "name": "D#4",
          "ticks": 73440,
          "time": 134.9999325,
          "velocity": 0.3937007874015748
        },
        {
          "duration": 0.529411500000009,
          "durationTicks": 288,
          "midi": 65,
          "name": "F4",
          "ticks": 73440,
          "time": 134.9999325,
          "velocity": 0.3937007874015748
        },
        {
          "duration": 0.529411500000009,
          "durationTicks": 288,
          "midi": 67,
          "name": "G4",
          "ticks": 73440,
          "time": 134.9999325,
          "velocity": 0.3937007874015748
        },
        {
          "duration": 0.5294114999999806,
          "durationTicks": 288,
          "midi": 29,
          "name": "F1",
          "ticks": 73728,
          "time": 135.529344,
          "velocity": 0.3937007874015748
        },
        {
          "duration": 0.5294114999999806,
          "durationTicks": 288,
          "midi": 41,
          "name": "F2",
          "ticks": 73728,
          "time": 135.529344,
          "velocity": 0.3937007874015748
        },
        {
          "duration": 0.5294114999999806,
          "durationTicks": 288,
          "midi": 53,
          "name": "F3",
          "ticks": 73728,
          "time": 135.529344,
          "velocity": 0.3937007874015748
        },
        {
          "duration": 0.5294114999999806,
          "durationTicks": 288,
          "midi": 56,
          "name": "G#3",
          "ticks": 73728,
          "time": 135.529344,
          "velocity": 0.3937007874015748
        },
        {
          "duration": 0.5294114999999806,
          "durationTicks": 288,
          "midi": 60,
          "name": "C4",
          "ticks": 73728,
          "time": 135.529344,
          "velocity": 0.3937007874015748
        },
        {
          "duration": 0.5294114999999806,
          "durationTicks": 288,
          "midi": 63,
          "name": "D#4",
          "ticks": 73728,
          "time": 135.529344,
          "velocity": 0.3937007874015748
        },
        {
          "duration": 0.5294114999999806,
          "durationTicks": 288,
          "midi": 68,
          "name": "G#4",
          "ticks": 73728,
          "time": 135.529344,
          "velocity": 0.3937007874015748
        },
        {
          "duration": 0.529411500000009,
          "durationTicks": 288,
          "midi": 29,
          "name": "F1",
          "ticks": 74016,
          "time": 136.0587555,
          "velocity": 0.3937007874015748
        },
        {
          "duration": 0.529411500000009,
          "durationTicks": 288,
          "midi": 41,
          "name": "F2",
          "ticks": 74016,
          "time": 136.0587555,
          "velocity": 0.3937007874015748
        },
        {
          "duration": 0.529411500000009,
          "durationTicks": 288,
          "midi": 53,
          "name": "F3",
          "ticks": 74016,
          "time": 136.0587555,
          "velocity": 0.3937007874015748
        },
        {
          "duration": 0.529411500000009,
          "durationTicks": 288,
          "midi": 56,
          "name": "G#3",
          "ticks": 74016,
          "time": 136.0587555,
          "velocity": 0.3937007874015748
        },
        {
          "duration": 0.529411500000009,
          "durationTicks": 288,
          "midi": 60,
          "name": "C4",
          "ticks": 74016,
          "time": 136.0587555,
          "velocity": 0.3937007874015748
        },
        {
          "duration": 0.529411500000009,
          "durationTicks": 288,
          "midi": 63,
          "name": "D#4",
          "ticks": 74016,
          "time": 136.0587555,
          "velocity": 0.3937007874015748
        },
        {
          "duration": 0.529411500000009,
          "durationTicks": 288,
          "midi": 68,
          "name": "G#4",
          "ticks": 74016,
          "time": 136.0587555,
          "velocity": 0.3937007874015748
        },
        {
          "duration": 0.3529410000000155,
          "durationTicks": 192,
          "midi": 29,
          "name": "F1",
          "ticks": 74304,
          "time": 136.588167,
          "velocity": 0.3937007874015748
        },
        {
          "duration": 0.3529410000000155,
          "durationTicks": 192,
          "midi": 41,
          "name": "F2",
          "ticks": 74304,
          "time": 136.588167,
          "velocity": 0.3937007874015748
        },
        {
          "duration": 0.3529410000000155,
          "durationTicks": 192,
          "midi": 53,
          "name": "F3",
          "ticks": 74304,
          "time": 136.588167,
          "velocity": 0.3937007874015748
        },
        {
          "duration": 0.3529410000000155,
          "durationTicks": 192,
          "midi": 56,
          "name": "G#3",
          "ticks": 74304,
          "time": 136.588167,
          "velocity": 0.3937007874015748
        },
        {
          "duration": 0.3529410000000155,
          "durationTicks": 192,
          "midi": 60,
          "name": "C4",
          "ticks": 74304,
          "time": 136.588167,
          "velocity": 0.3937007874015748
        },
        {
          "duration": 0.3529410000000155,
          "durationTicks": 192,
          "midi": 63,
          "name": "D#4",
          "ticks": 74304,
          "time": 136.588167,
          "velocity": 0.3937007874015748
        },
        {
          "duration": 0.3529410000000155,
          "durationTicks": 192,
          "midi": 68,
          "name": "G#4",
          "ticks": 74304,
          "time": 136.588167,
          "velocity": 0.3937007874015748
        },
        {
          "duration": 0.5294114999999806,
          "durationTicks": 288,
          "midi": 32,
          "name": "G#1",
          "ticks": 74496,
          "time": 136.941108,
          "velocity": 0.3937007874015748
        },
        {
          "duration": 0.5294114999999806,
          "durationTicks": 288,
          "midi": 44,
          "name": "G#2",
          "ticks": 74496,
          "time": 136.941108,
          "velocity": 0.3937007874015748
        },
        {
          "duration": 0.5294114999999806,
          "durationTicks": 288,
          "midi": 56,
          "name": "G#3",
          "ticks": 74496,
          "time": 136.941108,
          "velocity": 0.3937007874015748
        },
        {
          "duration": 0.5294114999999806,
          "durationTicks": 288,
          "midi": 60,
          "name": "C4",
          "ticks": 74496,
          "time": 136.941108,
          "velocity": 0.3937007874015748
        },
        {
          "duration": 0.5294114999999806,
          "durationTicks": 288,
          "midi": 63,
          "name": "D#4",
          "ticks": 74496,
          "time": 136.941108,
          "velocity": 0.3937007874015748
        },
        {
          "duration": 0.5294114999999806,
          "durationTicks": 288,
          "midi": 67,
          "name": "G4",
          "ticks": 74496,
          "time": 136.941108,
          "velocity": 0.3937007874015748
        },
        {
          "duration": 0.5294114999999806,
          "durationTicks": 288,
          "midi": 70,
          "name": "A#4",
          "ticks": 74496,
          "time": 136.941108,
          "velocity": 0.3937007874015748
        },
        {
          "duration": 0.529411500000009,
          "durationTicks": 288,
          "midi": 32,
          "name": "G#1",
          "ticks": 74784,
          "time": 137.4705195,
          "velocity": 0.3937007874015748
        },
        {
          "duration": 0.529411500000009,
          "durationTicks": 288,
          "midi": 44,
          "name": "G#2",
          "ticks": 74784,
          "time": 137.4705195,
          "velocity": 0.3937007874015748
        },
        {
          "duration": 0.529411500000009,
          "durationTicks": 288,
          "midi": 56,
          "name": "G#3",
          "ticks": 74784,
          "time": 137.4705195,
          "velocity": 0.3937007874015748
        },
        {
          "duration": 0.529411500000009,
          "durationTicks": 288,
          "midi": 60,
          "name": "C4",
          "ticks": 74784,
          "time": 137.4705195,
          "velocity": 0.3937007874015748
        },
        {
          "duration": 0.529411500000009,
          "durationTicks": 288,
          "midi": 63,
          "name": "D#4",
          "ticks": 74784,
          "time": 137.4705195,
          "velocity": 0.3937007874015748
        },
        {
          "duration": 0.529411500000009,
          "durationTicks": 288,
          "midi": 67,
          "name": "G4",
          "ticks": 74784,
          "time": 137.4705195,
          "velocity": 0.3937007874015748
        },
        {
          "duration": 0.529411500000009,
          "durationTicks": 288,
          "midi": 70,
          "name": "A#4",
          "ticks": 74784,
          "time": 137.4705195,
          "velocity": 0.3937007874015748
        },
        {
          "duration": 0.529411500000009,
          "durationTicks": 288,
          "midi": 36,
          "name": "C2",
          "ticks": 75072,
          "time": 137.999931,
          "velocity": 0.3937007874015748
        },
        {
          "duration": 0.529411500000009,
          "durationTicks": 288,
          "midi": 48,
          "name": "C3",
          "ticks": 75072,
          "time": 137.999931,
          "velocity": 0.3937007874015748
        },
        {
          "duration": 0.529411500000009,
          "durationTicks": 288,
          "midi": 60,
          "name": "C4",
          "ticks": 75072,
          "time": 137.999931,
          "velocity": 0.3937007874015748
        },
        {
          "duration": 0.529411500000009,
          "durationTicks": 288,
          "midi": 63,
          "name": "D#4",
          "ticks": 75072,
          "time": 137.999931,
          "velocity": 0.3937007874015748
        },
        {
          "duration": 0.529411500000009,
          "durationTicks": 288,
          "midi": 67,
          "name": "G4",
          "ticks": 75072,
          "time": 137.999931,
          "velocity": 0.3937007874015748
        },
        {
          "duration": 0.529411500000009,
          "durationTicks": 288,
          "midi": 70,
          "name": "A#4",
          "ticks": 75072,
          "time": 137.999931,
          "velocity": 0.3937007874015748
        },
        {
          "duration": 0.529411500000009,
          "durationTicks": 288,
          "midi": 72,
          "name": "C5",
          "ticks": 75072,
          "time": 137.999931,
          "velocity": 0.3937007874015748
        },
        {
          "duration": 0.5294114999999806,
          "durationTicks": 288,
          "midi": 36,
          "name": "C2",
          "ticks": 75360,
          "time": 138.5293425,
          "velocity": 0.3937007874015748
        },
        {
          "duration": 0.5294114999999806,
          "durationTicks": 288,
          "midi": 48,
          "name": "C3",
          "ticks": 75360,
          "time": 138.5293425,
          "velocity": 0.3937007874015748
        },
        {
          "duration": 0.5294114999999806,
          "durationTicks": 288,
          "midi": 60,
          "name": "C4",
          "ticks": 75360,
          "time": 138.5293425,
          "velocity": 0.3937007874015748
        },
        {
          "duration": 0.5294114999999806,
          "durationTicks": 288,
          "midi": 63,
          "name": "D#4",
          "ticks": 75360,
          "time": 138.5293425,
          "velocity": 0.3937007874015748
        },
        {
          "duration": 0.5294114999999806,
          "durationTicks": 288,
          "midi": 67,
          "name": "G4",
          "ticks": 75360,
          "time": 138.5293425,
          "velocity": 0.3937007874015748
        },
        {
          "duration": 0.5294114999999806,
          "durationTicks": 288,
          "midi": 70,
          "name": "A#4",
          "ticks": 75360,
          "time": 138.5293425,
          "velocity": 0.3937007874015748
        },
        {
          "duration": 0.5294114999999806,
          "durationTicks": 288,
          "midi": 72,
          "name": "C5",
          "ticks": 75360,
          "time": 138.5293425,
          "velocity": 0.3937007874015748
        },
        {
          "duration": 0.529411500000009,
          "durationTicks": 288,
          "midi": 36,
          "name": "C2",
          "ticks": 75648,
          "time": 139.058754,
          "velocity": 0.3937007874015748
        },
        {
          "duration": 0.529411500000009,
          "durationTicks": 288,
          "midi": 48,
          "name": "C3",
          "ticks": 75648,
          "time": 139.058754,
          "velocity": 0.3937007874015748
        },
        {
          "duration": 0.529411500000009,
          "durationTicks": 288,
          "midi": 60,
          "name": "C4",
          "ticks": 75648,
          "time": 139.058754,
          "velocity": 0.3937007874015748
        },
        {
          "duration": 0.529411500000009,
          "durationTicks": 288,
          "midi": 63,
          "name": "D#4",
          "ticks": 75648,
          "time": 139.058754,
          "velocity": 0.3937007874015748
        },
        {
          "duration": 0.529411500000009,
          "durationTicks": 288,
          "midi": 67,
          "name": "G4",
          "ticks": 75648,
          "time": 139.058754,
          "velocity": 0.3937007874015748
        },
        {
          "duration": 0.529411500000009,
          "durationTicks": 288,
          "midi": 70,
          "name": "A#4",
          "ticks": 75648,
          "time": 139.058754,
          "velocity": 0.3937007874015748
        },
        {
          "duration": 0.529411500000009,
          "durationTicks": 288,
          "midi": 72,
          "name": "C5",
          "ticks": 75648,
          "time": 139.058754,
          "velocity": 0.3937007874015748
        },
        {
          "duration": 0.529411500000009,
          "durationTicks": 288,
          "midi": 36,
          "name": "C2",
          "ticks": 75936,
          "time": 139.5881655,
          "velocity": 0.3937007874015748
        },
        {
          "duration": 0.529411500000009,
          "durationTicks": 288,
          "midi": 48,
          "name": "C3",
          "ticks": 75936,
          "time": 139.5881655,
          "velocity": 0.3937007874015748
        },
        {
          "duration": 0.529411500000009,
          "durationTicks": 288,
          "midi": 60,
          "name": "C4",
          "ticks": 75936,
          "time": 139.5881655,
          "velocity": 0.3937007874015748
        },
        {
          "duration": 0.529411500000009,
          "durationTicks": 288,
          "midi": 63,
          "name": "D#4",
          "ticks": 75936,
          "time": 139.5881655,
          "velocity": 0.3937007874015748
        },
        {
          "duration": 0.529411500000009,
          "durationTicks": 288,
          "midi": 67,
          "name": "G4",
          "ticks": 75936,
          "time": 139.5881655,
          "velocity": 0.3937007874015748
        },
        {
          "duration": 0.529411500000009,
          "durationTicks": 288,
          "midi": 70,
          "name": "A#4",
          "ticks": 75936,
          "time": 139.5881655,
          "velocity": 0.3937007874015748
        },
        {
          "duration": 0.529411500000009,
          "durationTicks": 288,
          "midi": 72,
          "name": "C5",
          "ticks": 75936,
          "time": 139.5881655,
          "velocity": 0.3937007874015748
        },
        {
          "duration": 0.5294114999999806,
          "durationTicks": 288,
          "midi": 36,
          "name": "C2",
          "ticks": 76224,
          "time": 140.117577,
          "velocity": 0.3937007874015748
        },
        {
          "duration": 0.5294114999999806,
          "durationTicks": 288,
          "midi": 48,
          "name": "C3",
          "ticks": 76224,
          "time": 140.117577,
          "velocity": 0.3937007874015748
        },
        {
          "duration": 0.5294114999999806,
          "durationTicks": 288,
          "midi": 60,
          "name": "C4",
          "ticks": 76224,
          "time": 140.117577,
          "velocity": 0.3937007874015748
        },
        {
          "duration": 0.5294114999999806,
          "durationTicks": 288,
          "midi": 63,
          "name": "D#4",
          "ticks": 76224,
          "time": 140.117577,
          "velocity": 0.3937007874015748
        },
        {
          "duration": 0.5294114999999806,
          "durationTicks": 288,
          "midi": 67,
          "name": "G4",
          "ticks": 76224,
          "time": 140.117577,
          "velocity": 0.3937007874015748
        },
        {
          "duration": 0.5294114999999806,
          "durationTicks": 288,
          "midi": 70,
          "name": "A#4",
          "ticks": 76224,
          "time": 140.117577,
          "velocity": 0.3937007874015748
        },
        {
          "duration": 0.5294114999999806,
          "durationTicks": 288,
          "midi": 72,
          "name": "C5",
          "ticks": 76224,
          "time": 140.117577,
          "velocity": 0.3937007874015748
        },
        {
          "duration": 0.529411500000009,
          "durationTicks": 288,
          "midi": 36,
          "name": "C2",
          "ticks": 76512,
          "time": 140.6469885,
          "velocity": 0.3937007874015748
        },
        {
          "duration": 0.529411500000009,
          "durationTicks": 288,
          "midi": 48,
          "name": "C3",
          "ticks": 76512,
          "time": 140.6469885,
          "velocity": 0.3937007874015748
        },
        {
          "duration": 0.529411500000009,
          "durationTicks": 288,
          "midi": 60,
          "name": "C4",
          "ticks": 76512,
          "time": 140.6469885,
          "velocity": 0.3937007874015748
        },
        {
          "duration": 0.529411500000009,
          "durationTicks": 288,
          "midi": 63,
          "name": "D#4",
          "ticks": 76512,
          "time": 140.6469885,
          "velocity": 0.3937007874015748
        },
        {
          "duration": 0.529411500000009,
          "durationTicks": 288,
          "midi": 67,
          "name": "G4",
          "ticks": 76512,
          "time": 140.6469885,
          "velocity": 0.3937007874015748
        },
        {
          "duration": 0.529411500000009,
          "durationTicks": 288,
          "midi": 70,
          "name": "A#4",
          "ticks": 76512,
          "time": 140.6469885,
          "velocity": 0.3937007874015748
        },
        {
          "duration": 0.529411500000009,
          "durationTicks": 288,
          "midi": 72,
          "name": "C5",
          "ticks": 76512,
          "time": 140.6469885,
          "velocity": 0.3937007874015748
        },
        {
          "duration": 0.529411500000009,
          "durationTicks": 288,
          "midi": 29,
          "name": "F1",
          "ticks": 76800,
          "time": 141.1764,
          "velocity": 0.3937007874015748
        },
        {
          "duration": 0.529411500000009,
          "durationTicks": 288,
          "midi": 41,
          "name": "F2",
          "ticks": 76800,
          "time": 141.1764,
          "velocity": 0.3937007874015748
        },
        {
          "duration": 0.529411500000009,
          "durationTicks": 288,
          "midi": 53,
          "name": "F3",
          "ticks": 76800,
          "time": 141.1764,
          "velocity": 0.3937007874015748
        },
        {
          "duration": 0.529411500000009,
          "durationTicks": 288,
          "midi": 56,
          "name": "G#3",
          "ticks": 76800,
          "time": 141.1764,
          "velocity": 0.3937007874015748
        },
        {
          "duration": 0.529411500000009,
          "durationTicks": 288,
          "midi": 60,
          "name": "C4",
          "ticks": 76800,
          "time": 141.1764,
          "velocity": 0.3937007874015748
        },
        {
          "duration": 0.529411500000009,
          "durationTicks": 288,
          "midi": 63,
          "name": "D#4",
          "ticks": 76800,
          "time": 141.1764,
          "velocity": 0.3937007874015748
        },
        {
          "duration": 0.529411500000009,
          "durationTicks": 288,
          "midi": 75,
          "name": "D#5",
          "ticks": 76800,
          "time": 141.1764,
          "velocity": 0.3937007874015748
        },
        {
          "duration": 0.5294114999999806,
          "durationTicks": 288,
          "midi": 29,
          "name": "F1",
          "ticks": 77088,
          "time": 141.7058115,
          "velocity": 0.3937007874015748
        },
        {
          "duration": 0.5294114999999806,
          "durationTicks": 288,
          "midi": 41,
          "name": "F2",
          "ticks": 77088,
          "time": 141.7058115,
          "velocity": 0.3937007874015748
        },
        {
          "duration": 0.5294114999999806,
          "durationTicks": 288,
          "midi": 53,
          "name": "F3",
          "ticks": 77088,
          "time": 141.7058115,
          "velocity": 0.3937007874015748
        },
        {
          "duration": 0.5294114999999806,
          "durationTicks": 288,
          "midi": 56,
          "name": "G#3",
          "ticks": 77088,
          "time": 141.7058115,
          "velocity": 0.3937007874015748
        },
        {
          "duration": 0.5294114999999806,
          "durationTicks": 288,
          "midi": 60,
          "name": "C4",
          "ticks": 77088,
          "time": 141.7058115,
          "velocity": 0.3937007874015748
        },
        {
          "duration": 0.5294114999999806,
          "durationTicks": 288,
          "midi": 63,
          "name": "D#4",
          "ticks": 77088,
          "time": 141.7058115,
          "velocity": 0.3937007874015748
        },
        {
          "duration": 0.5294114999999806,
          "durationTicks": 288,
          "midi": 75,
          "name": "D#5",
          "ticks": 77088,
          "time": 141.7058115,
          "velocity": 0.3937007874015748
        },
        {
          "duration": 0.3529410000000155,
          "durationTicks": 192,
          "midi": 29,
          "name": "F1",
          "ticks": 77376,
          "time": 142.235223,
          "velocity": 0.3937007874015748
        },
        {
          "duration": 0.3529410000000155,
          "durationTicks": 192,
          "midi": 41,
          "name": "F2",
          "ticks": 77376,
          "time": 142.235223,
          "velocity": 0.3937007874015748
        },
        {
          "duration": 0.3529410000000155,
          "durationTicks": 192,
          "midi": 53,
          "name": "F3",
          "ticks": 77376,
          "time": 142.235223,
          "velocity": 0.3937007874015748
        },
        {
          "duration": 0.3529410000000155,
          "durationTicks": 192,
          "midi": 56,
          "name": "G#3",
          "ticks": 77376,
          "time": 142.235223,
          "velocity": 0.3937007874015748
        },
        {
          "duration": 0.3529410000000155,
          "durationTicks": 192,
          "midi": 60,
          "name": "C4",
          "ticks": 77376,
          "time": 142.235223,
          "velocity": 0.3937007874015748
        },
        {
          "duration": 0.3529410000000155,
          "durationTicks": 192,
          "midi": 63,
          "name": "D#4",
          "ticks": 77376,
          "time": 142.235223,
          "velocity": 0.3937007874015748
        },
        {
          "duration": 0.3529410000000155,
          "durationTicks": 192,
          "midi": 75,
          "name": "D#5",
          "ticks": 77376,
          "time": 142.235223,
          "velocity": 0.3937007874015748
        },
        {
          "duration": 0.529411500000009,
          "durationTicks": 288,
          "midi": 34,
          "name": "A#1",
          "ticks": 77568,
          "time": 142.588164,
          "velocity": 0.3937007874015748
        },
        {
          "duration": 0.529411500000009,
          "durationTicks": 288,
          "midi": 46,
          "name": "A#2",
          "ticks": 77568,
          "time": 142.588164,
          "velocity": 0.3937007874015748
        },
        {
          "duration": 0.529411500000009,
          "durationTicks": 288,
          "midi": 58,
          "name": "A#3",
          "ticks": 77568,
          "time": 142.588164,
          "velocity": 0.3937007874015748
        },
        {
          "duration": 0.529411500000009,
          "durationTicks": 288,
          "midi": 61,
          "name": "C#4",
          "ticks": 77568,
          "time": 142.588164,
          "velocity": 0.3937007874015748
        },
        {
          "duration": 0.529411500000009,
          "durationTicks": 288,
          "midi": 65,
          "name": "F4",
          "ticks": 77568,
          "time": 142.588164,
          "velocity": 0.3937007874015748
        },
        {
          "duration": 0.529411500000009,
          "durationTicks": 288,
          "midi": 68,
          "name": "G#4",
          "ticks": 77568,
          "time": 142.588164,
          "velocity": 0.3937007874015748
        },
        {
          "duration": 0.529411500000009,
          "durationTicks": 288,
          "midi": 70,
          "name": "A#4",
          "ticks": 77568,
          "time": 142.588164,
          "velocity": 0.3937007874015748
        },
        {
          "duration": 0.5294114999999806,
          "durationTicks": 288,
          "midi": 34,
          "name": "A#1",
          "ticks": 77856,
          "time": 143.11757550000002,
          "velocity": 0.3937007874015748
        },
        {
          "duration": 0.5294114999999806,
          "durationTicks": 288,
          "midi": 46,
          "name": "A#2",
          "ticks": 77856,
          "time": 143.11757550000002,
          "velocity": 0.3937007874015748
        },
        {
          "duration": 0.5294114999999806,
          "durationTicks": 288,
          "midi": 58,
          "name": "A#3",
          "ticks": 77856,
          "time": 143.11757550000002,
          "velocity": 0.3937007874015748
        },
        {
          "duration": 0.5294114999999806,
          "durationTicks": 288,
          "midi": 61,
          "name": "C#4",
          "ticks": 77856,
          "time": 143.11757550000002,
          "velocity": 0.3937007874015748
        },
        {
          "duration": 0.5294114999999806,
          "durationTicks": 288,
          "midi": 65,
          "name": "F4",
          "ticks": 77856,
          "time": 143.11757550000002,
          "velocity": 0.3937007874015748
        },
        {
          "duration": 0.5294114999999806,
          "durationTicks": 288,
          "midi": 68,
          "name": "G#4",
          "ticks": 77856,
          "time": 143.11757550000002,
          "velocity": 0.3937007874015748
        },
        {
          "duration": 0.5294114999999806,
          "durationTicks": 288,
          "midi": 70,
          "name": "A#4",
          "ticks": 77856,
          "time": 143.11757550000002,
          "velocity": 0.3937007874015748
        },
        {
          "duration": 0.529411500000009,
          "durationTicks": 288,
          "midi": 32,
          "name": "G#1",
          "ticks": 78144,
          "time": 143.646987,
          "velocity": 0.3937007874015748
        },
        {
          "duration": 0.529411500000009,
          "durationTicks": 288,
          "midi": 44,
          "name": "G#2",
          "ticks": 78144,
          "time": 143.646987,
          "velocity": 0.3937007874015748
        },
        {
          "duration": 0.529411500000009,
          "durationTicks": 288,
          "midi": 56,
          "name": "G#3",
          "ticks": 78144,
          "time": 143.646987,
          "velocity": 0.3937007874015748
        },
        {
          "duration": 0.529411500000009,
          "durationTicks": 288,
          "midi": 60,
          "name": "C4",
          "ticks": 78144,
          "time": 143.646987,
          "velocity": 0.3937007874015748
        },
        {
          "duration": 0.529411500000009,
          "durationTicks": 288,
          "midi": 63,
          "name": "D#4",
          "ticks": 78144,
          "time": 143.646987,
          "velocity": 0.3937007874015748
        },
        {
          "duration": 0.529411500000009,
          "durationTicks": 288,
          "midi": 67,
          "name": "G4",
          "ticks": 78144,
          "time": 143.646987,
          "velocity": 0.3937007874015748
        },
        {
          "duration": 0.529411500000009,
          "durationTicks": 288,
          "midi": 68,
          "name": "G#4",
          "ticks": 78144,
          "time": 143.646987,
          "velocity": 0.3937007874015748
        },
        {
          "duration": 0.529411500000009,
          "durationTicks": 288,
          "midi": 32,
          "name": "G#1",
          "ticks": 78432,
          "time": 144.1763985,
          "velocity": 0.3937007874015748
        },
        {
          "duration": 0.529411500000009,
          "durationTicks": 288,
          "midi": 44,
          "name": "G#2",
          "ticks": 78432,
          "time": 144.1763985,
          "velocity": 0.3937007874015748
        },
        {
          "duration": 0.529411500000009,
          "durationTicks": 288,
          "midi": 56,
          "name": "G#3",
          "ticks": 78432,
          "time": 144.1763985,
          "velocity": 0.3937007874015748
        },
        {
          "duration": 0.529411500000009,
          "durationTicks": 288,
          "midi": 60,
          "name": "C4",
          "ticks": 78432,
          "time": 144.1763985,
          "velocity": 0.3937007874015748
        },
        {
          "duration": 0.529411500000009,
          "durationTicks": 288,
          "midi": 63,
          "name": "D#4",
          "ticks": 78432,
          "time": 144.1763985,
          "velocity": 0.3937007874015748
        },
        {
          "duration": 0.529411500000009,
          "durationTicks": 288,
          "midi": 67,
          "name": "G4",
          "ticks": 78432,
          "time": 144.1763985,
          "velocity": 0.3937007874015748
        },
        {
          "duration": 0.529411500000009,
          "durationTicks": 288,
          "midi": 68,
          "name": "G#4",
          "ticks": 78432,
          "time": 144.1763985,
          "velocity": 0.3937007874015748
        },
        {
          "duration": 0.5294114999999806,
          "durationTicks": 288,
          "midi": 32,
          "name": "G#1",
          "ticks": 78720,
          "time": 144.70581,
          "velocity": 0.3937007874015748
        },
        {
          "duration": 0.5294114999999806,
          "durationTicks": 288,
          "midi": 44,
          "name": "G#2",
          "ticks": 78720,
          "time": 144.70581,
          "velocity": 0.3937007874015748
        },
        {
          "duration": 0.5294114999999806,
          "durationTicks": 288,
          "midi": 56,
          "name": "G#3",
          "ticks": 78720,
          "time": 144.70581,
          "velocity": 0.3937007874015748
        },
        {
          "duration": 0.5294114999999806,
          "durationTicks": 288,
          "midi": 60,
          "name": "C4",
          "ticks": 78720,
          "time": 144.70581,
          "velocity": 0.3937007874015748
        },
        {
          "duration": 0.5294114999999806,
          "durationTicks": 288,
          "midi": 63,
          "name": "D#4",
          "ticks": 78720,
          "time": 144.70581,
          "velocity": 0.3937007874015748
        },
        {
          "duration": 0.5294114999999806,
          "durationTicks": 288,
          "midi": 67,
          "name": "G4",
          "ticks": 78720,
          "time": 144.70581,
          "velocity": 0.3937007874015748
        },
        {
          "duration": 0.5294114999999806,
          "durationTicks": 288,
          "midi": 68,
          "name": "G#4",
          "ticks": 78720,
          "time": 144.70581,
          "velocity": 0.3937007874015748
        },
        {
          "duration": 0.529411500000009,
          "durationTicks": 288,
          "midi": 32,
          "name": "G#1",
          "ticks": 79008,
          "time": 145.2352215,
          "velocity": 0.3937007874015748
        },
        {
          "duration": 0.529411500000009,
          "durationTicks": 288,
          "midi": 44,
          "name": "G#2",
          "ticks": 79008,
          "time": 145.2352215,
          "velocity": 0.3937007874015748
        },
        {
          "duration": 0.529411500000009,
          "durationTicks": 288,
          "midi": 56,
          "name": "G#3",
          "ticks": 79008,
          "time": 145.2352215,
          "velocity": 0.3937007874015748
        },
        {
          "duration": 0.529411500000009,
          "durationTicks": 288,
          "midi": 60,
          "name": "C4",
          "ticks": 79008,
          "time": 145.2352215,
          "velocity": 0.3937007874015748
        },
        {
          "duration": 0.529411500000009,
          "durationTicks": 288,
          "midi": 63,
          "name": "D#4",
          "ticks": 79008,
          "time": 145.2352215,
          "velocity": 0.3937007874015748
        },
        {
          "duration": 0.529411500000009,
          "durationTicks": 288,
          "midi": 67,
          "name": "G4",
          "ticks": 79008,
          "time": 145.2352215,
          "velocity": 0.3937007874015748
        },
        {
          "duration": 0.529411500000009,
          "durationTicks": 288,
          "midi": 68,
          "name": "G#4",
          "ticks": 79008,
          "time": 145.2352215,
          "velocity": 0.3937007874015748
        },
        {
          "duration": 0.529411500000009,
          "durationTicks": 288,
          "midi": 32,
          "name": "G#1",
          "ticks": 79296,
          "time": 145.764633,
          "velocity": 0.3937007874015748
        },
        {
          "duration": 0.529411500000009,
          "durationTicks": 288,
          "midi": 44,
          "name": "G#2",
          "ticks": 79296,
          "time": 145.764633,
          "velocity": 0.3937007874015748
        },
        {
          "duration": 0.529411500000009,
          "durationTicks": 288,
          "midi": 56,
          "name": "G#3",
          "ticks": 79296,
          "time": 145.764633,
          "velocity": 0.3937007874015748
        },
        {
          "duration": 0.529411500000009,
          "durationTicks": 288,
          "midi": 60,
          "name": "C4",
          "ticks": 79296,
          "time": 145.764633,
          "velocity": 0.3937007874015748
        },
        {
          "duration": 0.529411500000009,
          "durationTicks": 288,
          "midi": 63,
          "name": "D#4",
          "ticks": 79296,
          "time": 145.764633,
          "velocity": 0.3937007874015748
        },
        {
          "duration": 0.529411500000009,
          "durationTicks": 288,
          "midi": 67,
          "name": "G4",
          "ticks": 79296,
          "time": 145.764633,
          "velocity": 0.3937007874015748
        },
        {
          "duration": 0.529411500000009,
          "durationTicks": 288,
          "midi": 68,
          "name": "G#4",
          "ticks": 79296,
          "time": 145.764633,
          "velocity": 0.3937007874015748
        },
        {
          "duration": 0.5294114999999806,
          "durationTicks": 288,
          "midi": 32,
          "name": "G#1",
          "ticks": 79584,
          "time": 146.2940445,
          "velocity": 0.3937007874015748
        },
        {
          "duration": 0.5294114999999806,
          "durationTicks": 288,
          "midi": 44,
          "name": "G#2",
          "ticks": 79584,
          "time": 146.2940445,
          "velocity": 0.3937007874015748
        },
        {
          "duration": 0.5294114999999806,
          "durationTicks": 288,
          "midi": 56,
          "name": "G#3",
          "ticks": 79584,
          "time": 146.2940445,
          "velocity": 0.3937007874015748
        },
        {
          "duration": 0.5294114999999806,
          "durationTicks": 288,
          "midi": 60,
          "name": "C4",
          "ticks": 79584,
          "time": 146.2940445,
          "velocity": 0.3937007874015748
        },
        {
          "duration": 0.5294114999999806,
          "durationTicks": 288,
          "midi": 63,
          "name": "D#4",
          "ticks": 79584,
          "time": 146.2940445,
          "velocity": 0.3937007874015748
        },
        {
          "duration": 0.5294114999999806,
          "durationTicks": 288,
          "midi": 67,
          "name": "G4",
          "ticks": 79584,
          "time": 146.2940445,
          "velocity": 0.3937007874015748
        },
        {
          "duration": 0.5294114999999806,
          "durationTicks": 288,
          "midi": 68,
          "name": "G#4",
          "ticks": 79584,
          "time": 146.2940445,
          "velocity": 0.3937007874015748
        },
        {
          "duration": 0.529411500000009,
          "durationTicks": 288,
          "midi": 29,
          "name": "F1",
          "ticks": 79872,
          "time": 146.823456,
          "velocity": 0.3937007874015748
        },
        {
          "duration": 0.529411500000009,
          "durationTicks": 288,
          "midi": 41,
          "name": "F2",
          "ticks": 79872,
          "time": 146.823456,
          "velocity": 0.3937007874015748
        },
        {
          "duration": 0.529411500000009,
          "durationTicks": 288,
          "midi": 53,
          "name": "F3",
          "ticks": 79872,
          "time": 146.823456,
          "velocity": 0.3937007874015748
        },
        {
          "duration": 0.529411500000009,
          "durationTicks": 288,
          "midi": 56,
          "name": "G#3",
          "ticks": 79872,
          "time": 146.823456,
          "velocity": 0.3937007874015748
        },
        {
          "duration": 0.529411500000009,
          "durationTicks": 288,
          "midi": 60,
          "name": "C4",
          "ticks": 79872,
          "time": 146.823456,
          "velocity": 0.3937007874015748
        },
        {
          "duration": 0.529411500000009,
          "durationTicks": 288,
          "midi": 63,
          "name": "D#4",
          "ticks": 79872,
          "time": 146.823456,
          "velocity": 0.3937007874015748
        },
        {
          "duration": 0.529411500000009,
          "durationTicks": 288,
          "midi": 72,
          "name": "C5",
          "ticks": 79872,
          "time": 146.823456,
          "velocity": 0.3937007874015748
        },
        {
          "duration": 0.529411500000009,
          "durationTicks": 288,
          "midi": 29,
          "name": "F1",
          "ticks": 80160,
          "time": 147.3528675,
          "velocity": 0.3937007874015748
        },
        {
          "duration": 0.529411500000009,
          "durationTicks": 288,
          "midi": 41,
          "name": "F2",
          "ticks": 80160,
          "time": 147.3528675,
          "velocity": 0.3937007874015748
        },
        {
          "duration": 0.529411500000009,
          "durationTicks": 288,
          "midi": 53,
          "name": "F3",
          "ticks": 80160,
          "time": 147.3528675,
          "velocity": 0.3937007874015748
        },
        {
          "duration": 0.529411500000009,
          "durationTicks": 288,
          "midi": 56,
          "name": "G#3",
          "ticks": 80160,
          "time": 147.3528675,
          "velocity": 0.3937007874015748
        },
        {
          "duration": 0.529411500000009,
          "durationTicks": 288,
          "midi": 60,
          "name": "C4",
          "ticks": 80160,
          "time": 147.3528675,
          "velocity": 0.3937007874015748
        },
        {
          "duration": 0.529411500000009,
          "durationTicks": 288,
          "midi": 63,
          "name": "D#4",
          "ticks": 80160,
          "time": 147.3528675,
          "velocity": 0.3937007874015748
        },
        {
          "duration": 0.529411500000009,
          "durationTicks": 288,
          "midi": 72,
          "name": "C5",
          "ticks": 80160,
          "time": 147.3528675,
          "velocity": 0.3937007874015748
        },
        {
          "duration": 0.35294099999998707,
          "durationTicks": 192,
          "midi": 29,
          "name": "F1",
          "ticks": 80448,
          "time": 147.882279,
          "velocity": 0.3937007874015748
        },
        {
          "duration": 0.35294099999998707,
          "durationTicks": 192,
          "midi": 41,
          "name": "F2",
          "ticks": 80448,
          "time": 147.882279,
          "velocity": 0.3937007874015748
        },
        {
          "duration": 0.35294099999998707,
          "durationTicks": 192,
          "midi": 53,
          "name": "F3",
          "ticks": 80448,
          "time": 147.882279,
          "velocity": 0.3937007874015748
        },
        {
          "duration": 0.35294099999998707,
          "durationTicks": 192,
          "midi": 56,
          "name": "G#3",
          "ticks": 80448,
          "time": 147.882279,
          "velocity": 0.3937007874015748
        },
        {
          "duration": 0.35294099999998707,
          "durationTicks": 192,
          "midi": 60,
          "name": "C4",
          "ticks": 80448,
          "time": 147.882279,
          "velocity": 0.3937007874015748
        },
        {
          "duration": 0.35294099999998707,
          "durationTicks": 192,
          "midi": 63,
          "name": "D#4",
          "ticks": 80448,
          "time": 147.882279,
          "velocity": 0.3937007874015748
        },
        {
          "duration": 0.35294099999998707,
          "durationTicks": 192,
          "midi": 72,
          "name": "C5",
          "ticks": 80448,
          "time": 147.882279,
          "velocity": 0.3937007874015748
        },
        {
          "duration": 0.529411500000009,
          "durationTicks": 288,
          "midi": 32,
          "name": "G#1",
          "ticks": 80640,
          "time": 148.23522,
          "velocity": 0.3937007874015748
        },
        {
          "duration": 0.529411500000009,
          "durationTicks": 288,
          "midi": 44,
          "name": "G#2",
          "ticks": 80640,
          "time": 148.23522,
          "velocity": 0.3937007874015748
        },
        {
          "duration": 0.529411500000009,
          "durationTicks": 288,
          "midi": 56,
          "name": "G#3",
          "ticks": 80640,
          "time": 148.23522,
          "velocity": 0.3937007874015748
        },
        {
          "duration": 0.529411500000009,
          "durationTicks": 288,
          "midi": 60,
          "name": "C4",
          "ticks": 80640,
          "time": 148.23522,
          "velocity": 0.3937007874015748
        },
        {
          "duration": 0.529411500000009,
          "durationTicks": 288,
          "midi": 63,
          "name": "D#4",
          "ticks": 80640,
          "time": 148.23522,
          "velocity": 0.3937007874015748
        },
        {
          "duration": 0.529411500000009,
          "durationTicks": 288,
          "midi": 67,
          "name": "G4",
          "ticks": 80640,
          "time": 148.23522,
          "velocity": 0.3937007874015748
        },
        {
          "duration": 0.529411500000009,
          "durationTicks": 288,
          "midi": 68,
          "name": "G#4",
          "ticks": 80640,
          "time": 148.23522,
          "velocity": 0.3937007874015748
        },
        {
          "duration": 0.5294114999999806,
          "durationTicks": 288,
          "midi": 32,
          "name": "G#1",
          "ticks": 80928,
          "time": 148.7646315,
          "velocity": 0.3937007874015748
        },
        {
          "duration": 0.5294114999999806,
          "durationTicks": 288,
          "midi": 44,
          "name": "G#2",
          "ticks": 80928,
          "time": 148.7646315,
          "velocity": 0.3937007874015748
        },
        {
          "duration": 0.5294114999999806,
          "durationTicks": 288,
          "midi": 56,
          "name": "G#3",
          "ticks": 80928,
          "time": 148.7646315,
          "velocity": 0.3937007874015748
        },
        {
          "duration": 0.5294114999999806,
          "durationTicks": 288,
          "midi": 60,
          "name": "C4",
          "ticks": 80928,
          "time": 148.7646315,
          "velocity": 0.3937007874015748
        },
        {
          "duration": 0.5294114999999806,
          "durationTicks": 288,
          "midi": 63,
          "name": "D#4",
          "ticks": 80928,
          "time": 148.7646315,
          "velocity": 0.3937007874015748
        },
        {
          "duration": 0.5294114999999806,
          "durationTicks": 288,
          "midi": 67,
          "name": "G4",
          "ticks": 80928,
          "time": 148.7646315,
          "velocity": 0.3937007874015748
        },
        {
          "duration": 0.5294114999999806,
          "durationTicks": 288,
          "midi": 68,
          "name": "G#4",
          "ticks": 80928,
          "time": 148.7646315,
          "velocity": 0.3937007874015748
        },
        {
          "duration": 0.529411500000009,
          "durationTicks": 288,
          "midi": 36,
          "name": "C2",
          "ticks": 81216,
          "time": 149.294043,
          "velocity": 0.3937007874015748
        },
        {
          "duration": 0.529411500000009,
          "durationTicks": 288,
          "midi": 48,
          "name": "C3",
          "ticks": 81216,
          "time": 149.294043,
          "velocity": 0.3937007874015748
        },
        {
          "duration": 0.529411500000009,
          "durationTicks": 288,
          "midi": 60,
          "name": "C4",
          "ticks": 81216,
          "time": 149.294043,
          "velocity": 0.3937007874015748
        },
        {
          "duration": 0.529411500000009,
          "durationTicks": 288,
          "midi": 63,
          "name": "D#4",
          "ticks": 81216,
          "time": 149.294043,
          "velocity": 0.3937007874015748
        },
        {
          "duration": 0.529411500000009,
          "durationTicks": 288,
          "midi": 65,
          "name": "F4",
          "ticks": 81216,
          "time": 149.294043,
          "velocity": 0.3937007874015748
        },
        {
          "duration": 0.529411500000009,
          "durationTicks": 288,
          "midi": 67,
          "name": "G4",
          "ticks": 81216,
          "time": 149.294043,
          "velocity": 0.3937007874015748
        },
        {
          "duration": 0.529411500000009,
          "durationTicks": 288,
          "midi": 70,
          "name": "A#4",
          "ticks": 81216,
          "time": 149.294043,
          "velocity": 0.3937007874015748
        },
        {
          "duration": 0.529411500000009,
          "durationTicks": 288,
          "midi": 36,
          "name": "C2",
          "ticks": 81504,
          "time": 149.8234545,
          "velocity": 0.3937007874015748
        },
        {
          "duration": 0.529411500000009,
          "durationTicks": 288,
          "midi": 48,
          "name": "C3",
          "ticks": 81504,
          "time": 149.8234545,
          "velocity": 0.3937007874015748
        },
        {
          "duration": 0.529411500000009,
          "durationTicks": 288,
          "midi": 60,
          "name": "C4",
          "ticks": 81504,
          "time": 149.8234545,
          "velocity": 0.3937007874015748
        },
        {
          "duration": 0.529411500000009,
          "durationTicks": 288,
          "midi": 63,
          "name": "D#4",
          "ticks": 81504,
          "time": 149.8234545,
          "velocity": 0.3937007874015748
        },
        {
          "duration": 0.529411500000009,
          "durationTicks": 288,
          "midi": 65,
          "name": "F4",
          "ticks": 81504,
          "time": 149.8234545,
          "velocity": 0.3937007874015748
        },
        {
          "duration": 0.529411500000009,
          "durationTicks": 288,
          "midi": 67,
          "name": "G4",
          "ticks": 81504,
          "time": 149.8234545,
          "velocity": 0.3937007874015748
        },
        {
          "duration": 0.529411500000009,
          "durationTicks": 288,
          "midi": 70,
          "name": "A#4",
          "ticks": 81504,
          "time": 149.8234545,
          "velocity": 0.3937007874015748
        },
        {
          "duration": 0.529411500000009,
          "durationTicks": 288,
          "midi": 36,
          "name": "C2",
          "ticks": 81792,
          "time": 150.352866,
          "velocity": 0.3937007874015748
        },
        {
          "duration": 0.529411500000009,
          "durationTicks": 288,
          "midi": 48,
          "name": "C3",
          "ticks": 81792,
          "time": 150.352866,
          "velocity": 0.3937007874015748
        },
        {
          "duration": 0.529411500000009,
          "durationTicks": 288,
          "midi": 60,
          "name": "C4",
          "ticks": 81792,
          "time": 150.352866,
          "velocity": 0.3937007874015748
        },
        {
          "duration": 0.529411500000009,
          "durationTicks": 288,
          "midi": 63,
          "name": "D#4",
          "ticks": 81792,
          "time": 150.352866,
          "velocity": 0.3937007874015748
        },
        {
          "duration": 0.529411500000009,
          "durationTicks": 288,
          "midi": 65,
          "name": "F4",
          "ticks": 81792,
          "time": 150.352866,
          "velocity": 0.3937007874015748
        },
        {
          "duration": 0.529411500000009,
          "durationTicks": 288,
          "midi": 67,
          "name": "G4",
          "ticks": 81792,
          "time": 150.352866,
          "velocity": 0.3937007874015748
        },
        {
          "duration": 0.529411500000009,
          "durationTicks": 288,
          "midi": 70,
          "name": "A#4",
          "ticks": 81792,
          "time": 150.352866,
          "velocity": 0.3937007874015748
        },
        {
          "duration": 0.5294114999999806,
          "durationTicks": 288,
          "midi": 36,
          "name": "C2",
          "ticks": 82080,
          "time": 150.88227750000001,
          "velocity": 0.3937007874015748
        },
        {
          "duration": 0.5294114999999806,
          "durationTicks": 288,
          "midi": 48,
          "name": "C3",
          "ticks": 82080,
          "time": 150.88227750000001,
          "velocity": 0.3937007874015748
        },
        {
          "duration": 0.5294114999999806,
          "durationTicks": 288,
          "midi": 60,
          "name": "C4",
          "ticks": 82080,
          "time": 150.88227750000001,
          "velocity": 0.3937007874015748
        },
        {
          "duration": 0.5294114999999806,
          "durationTicks": 288,
          "midi": 63,
          "name": "D#4",
          "ticks": 82080,
          "time": 150.88227750000001,
          "velocity": 0.3937007874015748
        },
        {
          "duration": 0.5294114999999806,
          "durationTicks": 288,
          "midi": 65,
          "name": "F4",
          "ticks": 82080,
          "time": 150.88227750000001,
          "velocity": 0.3937007874015748
        },
        {
          "duration": 0.5294114999999806,
          "durationTicks": 288,
          "midi": 67,
          "name": "G4",
          "ticks": 82080,
          "time": 150.88227750000001,
          "velocity": 0.3937007874015748
        },
        {
          "duration": 0.5294114999999806,
          "durationTicks": 288,
          "midi": 70,
          "name": "A#4",
          "ticks": 82080,
          "time": 150.88227750000001,
          "velocity": 0.3937007874015748
        },
        {
          "duration": 0.529411500000009,
          "durationTicks": 288,
          "midi": 36,
          "name": "C2",
          "ticks": 82368,
          "time": 151.411689,
          "velocity": 0.3937007874015748
        },
        {
          "duration": 0.529411500000009,
          "durationTicks": 288,
          "midi": 48,
          "name": "C3",
          "ticks": 82368,
          "time": 151.411689,
          "velocity": 0.3937007874015748
        },
        {
          "duration": 0.529411500000009,
          "durationTicks": 288,
          "midi": 60,
          "name": "C4",
          "ticks": 82368,
          "time": 151.411689,
          "velocity": 0.3937007874015748
        },
        {
          "duration": 0.529411500000009,
          "durationTicks": 288,
          "midi": 63,
          "name": "D#4",
          "ticks": 82368,
          "time": 151.411689,
          "velocity": 0.3937007874015748
        },
        {
          "duration": 0.529411500000009,
          "durationTicks": 288,
          "midi": 65,
          "name": "F4",
          "ticks": 82368,
          "time": 151.411689,
          "velocity": 0.3937007874015748
        },
        {
          "duration": 0.529411500000009,
          "durationTicks": 288,
          "midi": 67,
          "name": "G4",
          "ticks": 82368,
          "time": 151.411689,
          "velocity": 0.3937007874015748
        },
        {
          "duration": 0.529411500000009,
          "durationTicks": 288,
          "midi": 70,
          "name": "A#4",
          "ticks": 82368,
          "time": 151.411689,
          "velocity": 0.3937007874015748
        },
        {
          "duration": 0.529411500000009,
          "durationTicks": 288,
          "midi": 36,
          "name": "C2",
          "ticks": 82656,
          "time": 151.9411005,
          "velocity": 0.3937007874015748
        },
        {
          "duration": 0.529411500000009,
          "durationTicks": 288,
          "midi": 48,
          "name": "C3",
          "ticks": 82656,
          "time": 151.9411005,
          "velocity": 0.3937007874015748
        },
        {
          "duration": 0.529411500000009,
          "durationTicks": 288,
          "midi": 60,
          "name": "C4",
          "ticks": 82656,
          "time": 151.9411005,
          "velocity": 0.3937007874015748
        },
        {
          "duration": 0.529411500000009,
          "durationTicks": 288,
          "midi": 63,
          "name": "D#4",
          "ticks": 82656,
          "time": 151.9411005,
          "velocity": 0.3937007874015748
        },
        {
          "duration": 0.529411500000009,
          "durationTicks": 288,
          "midi": 65,
          "name": "F4",
          "ticks": 82656,
          "time": 151.9411005,
          "velocity": 0.3937007874015748
        },
        {
          "duration": 0.529411500000009,
          "durationTicks": 288,
          "midi": 67,
          "name": "G4",
          "ticks": 82656,
          "time": 151.9411005,
          "velocity": 0.3937007874015748
        },
        {
          "duration": 0.529411500000009,
          "durationTicks": 288,
          "midi": 70,
          "name": "A#4",
          "ticks": 82656,
          "time": 151.9411005,
          "velocity": 0.3937007874015748
        },
        {
          "duration": 0.5294114999999806,
          "durationTicks": 288,
          "midi": 29,
          "name": "F1",
          "ticks": 82944,
          "time": 152.470512,
          "velocity": 0.3937007874015748
        },
        {
          "duration": 0.5294114999999806,
          "durationTicks": 288,
          "midi": 41,
          "name": "F2",
          "ticks": 82944,
          "time": 152.470512,
          "velocity": 0.3937007874015748
        },
        {
          "duration": 0.5294114999999806,
          "durationTicks": 288,
          "midi": 53,
          "name": "F3",
          "ticks": 82944,
          "time": 152.470512,
          "velocity": 0.3937007874015748
        },
        {
          "duration": 0.5294114999999806,
          "durationTicks": 288,
          "midi": 56,
          "name": "G#3",
          "ticks": 82944,
          "time": 152.470512,
          "velocity": 0.3937007874015748
        },
        {
          "duration": 0.5294114999999806,
          "durationTicks": 288,
          "midi": 60,
          "name": "C4",
          "ticks": 82944,
          "time": 152.470512,
          "velocity": 0.3937007874015748
        },
        {
          "duration": 0.5294114999999806,
          "durationTicks": 288,
          "midi": 63,
          "name": "D#4",
          "ticks": 82944,
          "time": 152.470512,
          "velocity": 0.3937007874015748
        },
        {
          "duration": 0.5294114999999806,
          "durationTicks": 288,
          "midi": 68,
          "name": "G#4",
          "ticks": 82944,
          "time": 152.470512,
          "velocity": 0.3937007874015748
        },
        {
          "duration": 0.529411500000009,
          "durationTicks": 288,
          "midi": 29,
          "name": "F1",
          "ticks": 83232,
          "time": 152.9999235,
          "velocity": 0.3937007874015748
        },
        {
          "duration": 0.529411500000009,
          "durationTicks": 288,
          "midi": 41,
          "name": "F2",
          "ticks": 83232,
          "time": 152.9999235,
          "velocity": 0.3937007874015748
        },
        {
          "duration": 0.529411500000009,
          "durationTicks": 288,
          "midi": 53,
          "name": "F3",
          "ticks": 83232,
          "time": 152.9999235,
          "velocity": 0.3937007874015748
        },
        {
          "duration": 0.529411500000009,
          "durationTicks": 288,
          "midi": 56,
          "name": "G#3",
          "ticks": 83232,
          "time": 152.9999235,
          "velocity": 0.3937007874015748
        },
        {
          "duration": 0.529411500000009,
          "durationTicks": 288,
          "midi": 60,
          "name": "C4",
          "ticks": 83232,
          "time": 152.9999235,
          "velocity": 0.3937007874015748
        },
        {
          "duration": 0.529411500000009,
          "durationTicks": 288,
          "midi": 63,
          "name": "D#4",
          "ticks": 83232,
          "time": 152.9999235,
          "velocity": 0.3937007874015748
        },
        {
          "duration": 0.529411500000009,
          "durationTicks": 288,
          "midi": 68,
          "name": "G#4",
          "ticks": 83232,
          "time": 152.9999235,
          "velocity": 0.3937007874015748
        },
        {
          "duration": 0.35294099999998707,
          "durationTicks": 192,
          "midi": 29,
          "name": "F1",
          "ticks": 83520,
          "time": 153.529335,
          "velocity": 0.3937007874015748
        },
        {
          "duration": 0.35294099999998707,
          "durationTicks": 192,
          "midi": 41,
          "name": "F2",
          "ticks": 83520,
          "time": 153.529335,
          "velocity": 0.3937007874015748
        },
        {
          "duration": 0.35294099999998707,
          "durationTicks": 192,
          "midi": 53,
          "name": "F3",
          "ticks": 83520,
          "time": 153.529335,
          "velocity": 0.3937007874015748
        },
        {
          "duration": 0.35294099999998707,
          "durationTicks": 192,
          "midi": 56,
          "name": "G#3",
          "ticks": 83520,
          "time": 153.529335,
          "velocity": 0.3937007874015748
        },
        {
          "duration": 0.35294099999998707,
          "durationTicks": 192,
          "midi": 60,
          "name": "C4",
          "ticks": 83520,
          "time": 153.529335,
          "velocity": 0.3937007874015748
        },
        {
          "duration": 0.35294099999998707,
          "durationTicks": 192,
          "midi": 63,
          "name": "D#4",
          "ticks": 83520,
          "time": 153.529335,
          "velocity": 0.3937007874015748
        },
        {
          "duration": 0.35294099999998707,
          "durationTicks": 192,
          "midi": 68,
          "name": "G#4",
          "ticks": 83520,
          "time": 153.529335,
          "velocity": 0.3937007874015748
        },
        {
          "duration": 0.529411500000009,
          "durationTicks": 288,
          "midi": 34,
          "name": "A#1",
          "ticks": 83712,
          "time": 153.882276,
          "velocity": 0.3937007874015748
        },
        {
          "duration": 0.529411500000009,
          "durationTicks": 288,
          "midi": 46,
          "name": "A#2",
          "ticks": 83712,
          "time": 153.882276,
          "velocity": 0.3937007874015748
        },
        {
          "duration": 0.529411500000009,
          "durationTicks": 288,
          "midi": 58,
          "name": "A#3",
          "ticks": 83712,
          "time": 153.882276,
          "velocity": 0.3937007874015748
        },
        {
          "duration": 0.529411500000009,
          "durationTicks": 288,
          "midi": 61,
          "name": "C#4",
          "ticks": 83712,
          "time": 153.882276,
          "velocity": 0.3937007874015748
        },
        {
          "duration": 0.529411500000009,
          "durationTicks": 288,
          "midi": 65,
          "name": "F4",
          "ticks": 83712,
          "time": 153.882276,
          "velocity": 0.3937007874015748
        },
        {
          "duration": 0.529411500000009,
          "durationTicks": 288,
          "midi": 67,
          "name": "G4",
          "ticks": 83712,
          "time": 153.882276,
          "velocity": 0.3937007874015748
        },
        {
          "duration": 0.529411500000009,
          "durationTicks": 288,
          "midi": 68,
          "name": "G#4",
          "ticks": 83712,
          "time": 153.882276,
          "velocity": 0.3937007874015748
        },
        {
          "duration": 0.529411500000009,
          "durationTicks": 288,
          "midi": 34,
          "name": "A#1",
          "ticks": 84000,
          "time": 154.4116875,
          "velocity": 0.3937007874015748
        },
        {
          "duration": 0.529411500000009,
          "durationTicks": 288,
          "midi": 46,
          "name": "A#2",
          "ticks": 84000,
          "time": 154.4116875,
          "velocity": 0.3937007874015748
        },
        {
          "duration": 0.529411500000009,
          "durationTicks": 288,
          "midi": 58,
          "name": "A#3",
          "ticks": 84000,
          "time": 154.4116875,
          "velocity": 0.3937007874015748
        },
        {
          "duration": 0.529411500000009,
          "durationTicks": 288,
          "midi": 61,
          "name": "C#4",
          "ticks": 84000,
          "time": 154.4116875,
          "velocity": 0.3937007874015748
        },
        {
          "duration": 0.529411500000009,
          "durationTicks": 288,
          "midi": 65,
          "name": "F4",
          "ticks": 84000,
          "time": 154.4116875,
          "velocity": 0.3937007874015748
        },
        {
          "duration": 0.529411500000009,
          "durationTicks": 288,
          "midi": 67,
          "name": "G4",
          "ticks": 84000,
          "time": 154.4116875,
          "velocity": 0.3937007874015748
        },
        {
          "duration": 0.529411500000009,
          "durationTicks": 288,
          "midi": 68,
          "name": "G#4",
          "ticks": 84000,
          "time": 154.4116875,
          "velocity": 0.3937007874015748
        },
        {
          "duration": 0.5294114999999806,
          "durationTicks": 288,
          "midi": 32,
          "name": "G#1",
          "ticks": 84288,
          "time": 154.941099,
          "velocity": 0.3937007874015748
        },
        {
          "duration": 0.5294114999999806,
          "durationTicks": 288,
          "midi": 44,
          "name": "G#2",
          "ticks": 84288,
          "time": 154.941099,
          "velocity": 0.3937007874015748
        },
        {
          "duration": 0.5294114999999806,
          "durationTicks": 288,
          "midi": 56,
          "name": "G#3",
          "ticks": 84288,
          "time": 154.941099,
          "velocity": 0.3937007874015748
        },
        {
          "duration": 0.5294114999999806,
          "durationTicks": 288,
          "midi": 60,
          "name": "C4",
          "ticks": 84288,
          "time": 154.941099,
          "velocity": 0.3937007874015748
        },
        {
          "duration": 0.5294114999999806,
          "durationTicks": 288,
          "midi": 63,
          "name": "D#4",
          "ticks": 84288,
          "time": 154.941099,
          "velocity": 0.3937007874015748
        },
        {
          "duration": 0.5294114999999806,
          "durationTicks": 288,
          "midi": 65,
          "name": "F4",
          "ticks": 84288,
          "time": 154.941099,
          "velocity": 0.3937007874015748
        },
        {
          "duration": 0.5294114999999806,
          "durationTicks": 288,
          "midi": 67,
          "name": "G4",
          "ticks": 84288,
          "time": 154.941099,
          "velocity": 0.3937007874015748
        },
        {
          "duration": 0.529411500000009,
          "durationTicks": 288,
          "midi": 32,
          "name": "G#1",
          "ticks": 84576,
          "time": 155.4705105,
          "velocity": 0.3937007874015748
        },
        {
          "duration": 0.529411500000009,
          "durationTicks": 288,
          "midi": 44,
          "name": "G#2",
          "ticks": 84576,
          "time": 155.4705105,
          "velocity": 0.3937007874015748
        },
        {
          "duration": 0.529411500000009,
          "durationTicks": 288,
          "midi": 56,
          "name": "G#3",
          "ticks": 84576,
          "time": 155.4705105,
          "velocity": 0.3937007874015748
        },
        {
          "duration": 0.529411500000009,
          "durationTicks": 288,
          "midi": 60,
          "name": "C4",
          "ticks": 84576,
          "time": 155.4705105,
          "velocity": 0.3937007874015748
        },
        {
          "duration": 0.529411500000009,
          "durationTicks": 288,
          "midi": 63,
          "name": "D#4",
          "ticks": 84576,
          "time": 155.4705105,
          "velocity": 0.3937007874015748
        },
        {
          "duration": 0.529411500000009,
          "durationTicks": 288,
          "midi": 65,
          "name": "F4",
          "ticks": 84576,
          "time": 155.4705105,
          "velocity": 0.3937007874015748
        },
        {
          "duration": 0.529411500000009,
          "durationTicks": 288,
          "midi": 67,
          "name": "G4",
          "ticks": 84576,
          "time": 155.4705105,
          "velocity": 0.3937007874015748
        },
        {
          "duration": 0.529411500000009,
          "durationTicks": 288,
          "midi": 32,
          "name": "G#1",
          "ticks": 84864,
          "time": 155.999922,
          "velocity": 0.3937007874015748
        },
        {
          "duration": 0.529411500000009,
          "durationTicks": 288,
          "midi": 44,
          "name": "G#2",
          "ticks": 84864,
          "time": 155.999922,
          "velocity": 0.3937007874015748
        },
        {
          "duration": 0.529411500000009,
          "durationTicks": 288,
          "midi": 56,
          "name": "G#3",
          "ticks": 84864,
          "time": 155.999922,
          "velocity": 0.3937007874015748
        },
        {
          "duration": 0.529411500000009,
          "durationTicks": 288,
          "midi": 60,
          "name": "C4",
          "ticks": 84864,
          "time": 155.999922,
          "velocity": 0.3937007874015748
        },
        {
          "duration": 0.529411500000009,
          "durationTicks": 288,
          "midi": 63,
          "name": "D#4",
          "ticks": 84864,
          "time": 155.999922,
          "velocity": 0.3937007874015748
        },
        {
          "duration": 0.529411500000009,
          "durationTicks": 288,
          "midi": 65,
          "name": "F4",
          "ticks": 84864,
          "time": 155.999922,
          "velocity": 0.3937007874015748
        },
        {
          "duration": 0.529411500000009,
          "durationTicks": 288,
          "midi": 67,
          "name": "G4",
          "ticks": 84864,
          "time": 155.999922,
          "velocity": 0.3937007874015748
        },
        {
          "duration": 0.529411500000009,
          "durationTicks": 288,
          "midi": 32,
          "name": "G#1",
          "ticks": 85152,
          "time": 156.5293335,
          "velocity": 0.3937007874015748
        },
        {
          "duration": 0.529411500000009,
          "durationTicks": 288,
          "midi": 44,
          "name": "G#2",
          "ticks": 85152,
          "time": 156.5293335,
          "velocity": 0.3937007874015748
        },
        {
          "duration": 0.529411500000009,
          "durationTicks": 288,
          "midi": 56,
          "name": "G#3",
          "ticks": 85152,
          "time": 156.5293335,
          "velocity": 0.3937007874015748
        },
        {
          "duration": 0.529411500000009,
          "durationTicks": 288,
          "midi": 60,
          "name": "C4",
          "ticks": 85152,
          "time": 156.5293335,
          "velocity": 0.3937007874015748
        },
        {
          "duration": 0.529411500000009,
          "durationTicks": 288,
          "midi": 63,
          "name": "D#4",
          "ticks": 85152,
          "time": 156.5293335,
          "velocity": 0.3937007874015748
        },
        {
          "duration": 0.529411500000009,
          "durationTicks": 288,
          "midi": 65,
          "name": "F4",
          "ticks": 85152,
          "time": 156.5293335,
          "velocity": 0.3937007874015748
        },
        {
          "duration": 0.529411500000009,
          "durationTicks": 288,
          "midi": 67,
          "name": "G4",
          "ticks": 85152,
          "time": 156.5293335,
          "velocity": 0.3937007874015748
        },
        {
          "duration": 0.5294114999999806,
          "durationTicks": 288,
          "midi": 32,
          "name": "G#1",
          "ticks": 85440,
          "time": 157.05874500000002,
          "velocity": 0.3937007874015748
        },
        {
          "duration": 0.5294114999999806,
          "durationTicks": 288,
          "midi": 44,
          "name": "G#2",
          "ticks": 85440,
          "time": 157.05874500000002,
          "velocity": 0.3937007874015748
        },
        {
          "duration": 0.5294114999999806,
          "durationTicks": 288,
          "midi": 56,
          "name": "G#3",
          "ticks": 85440,
          "time": 157.05874500000002,
          "velocity": 0.3937007874015748
        },
        {
          "duration": 0.5294114999999806,
          "durationTicks": 288,
          "midi": 60,
          "name": "C4",
          "ticks": 85440,
          "time": 157.05874500000002,
          "velocity": 0.3937007874015748
        },
        {
          "duration": 0.5294114999999806,
          "durationTicks": 288,
          "midi": 63,
          "name": "D#4",
          "ticks": 85440,
          "time": 157.05874500000002,
          "velocity": 0.3937007874015748
        },
        {
          "duration": 0.5294114999999806,
          "durationTicks": 288,
          "midi": 65,
          "name": "F4",
          "ticks": 85440,
          "time": 157.05874500000002,
          "velocity": 0.3937007874015748
        },
        {
          "duration": 0.5294114999999806,
          "durationTicks": 288,
          "midi": 67,
          "name": "G4",
          "ticks": 85440,
          "time": 157.05874500000002,
          "velocity": 0.3937007874015748
        },
        {
          "duration": 0.529411500000009,
          "durationTicks": 288,
          "midi": 32,
          "name": "G#1",
          "ticks": 85728,
          "time": 157.5881565,
          "velocity": 0.3937007874015748
        },
        {
          "duration": 0.529411500000009,
          "durationTicks": 288,
          "midi": 44,
          "name": "G#2",
          "ticks": 85728,
          "time": 157.5881565,
          "velocity": 0.3937007874015748
        },
        {
          "duration": 0.529411500000009,
          "durationTicks": 288,
          "midi": 56,
          "name": "G#3",
          "ticks": 85728,
          "time": 157.5881565,
          "velocity": 0.3937007874015748
        },
        {
          "duration": 0.529411500000009,
          "durationTicks": 288,
          "midi": 60,
          "name": "C4",
          "ticks": 85728,
          "time": 157.5881565,
          "velocity": 0.3937007874015748
        },
        {
          "duration": 0.529411500000009,
          "durationTicks": 288,
          "midi": 63,
          "name": "D#4",
          "ticks": 85728,
          "time": 157.5881565,
          "velocity": 0.3937007874015748
        },
        {
          "duration": 0.529411500000009,
          "durationTicks": 288,
          "midi": 65,
          "name": "F4",
          "ticks": 85728,
          "time": 157.5881565,
          "velocity": 0.3937007874015748
        },
        {
          "duration": 0.529411500000009,
          "durationTicks": 288,
          "midi": 67,
          "name": "G4",
          "ticks": 85728,
          "time": 157.5881565,
          "velocity": 0.3937007874015748
        },
        {
          "duration": 0.529411500000009,
          "durationTicks": 288,
          "midi": 29,
          "name": "F1",
          "ticks": 86016,
          "time": 158.117568,
          "velocity": 0.3937007874015748
        },
        {
          "duration": 0.529411500000009,
          "durationTicks": 288,
          "midi": 41,
          "name": "F2",
          "ticks": 86016,
          "time": 158.117568,
          "velocity": 0.3937007874015748
        },
        {
          "duration": 0.529411500000009,
          "durationTicks": 288,
          "midi": 53,
          "name": "F3",
          "ticks": 86016,
          "time": 158.117568,
          "velocity": 0.3937007874015748
        },
        {
          "duration": 0.529411500000009,
          "durationTicks": 288,
          "midi": 56,
          "name": "G#3",
          "ticks": 86016,
          "time": 158.117568,
          "velocity": 0.3937007874015748
        },
        {
          "duration": 0.529411500000009,
          "durationTicks": 288,
          "midi": 60,
          "name": "C4",
          "ticks": 86016,
          "time": 158.117568,
          "velocity": 0.3937007874015748
        },
        {
          "duration": 0.529411500000009,
          "durationTicks": 288,
          "midi": 63,
          "name": "D#4",
          "ticks": 86016,
          "time": 158.117568,
          "velocity": 0.3937007874015748
        },
        {
          "duration": 0.529411500000009,
          "durationTicks": 288,
          "midi": 68,
          "name": "G#4",
          "ticks": 86016,
          "time": 158.117568,
          "velocity": 0.3937007874015748
        },
        {
          "duration": 0.5294114999999806,
          "durationTicks": 288,
          "midi": 29,
          "name": "F1",
          "ticks": 86304,
          "time": 158.64697950000001,
          "velocity": 0.3937007874015748
        },
        {
          "duration": 0.5294114999999806,
          "durationTicks": 288,
          "midi": 41,
          "name": "F2",
          "ticks": 86304,
          "time": 158.64697950000001,
          "velocity": 0.3937007874015748
        },
        {
          "duration": 0.5294114999999806,
          "durationTicks": 288,
          "midi": 53,
          "name": "F3",
          "ticks": 86304,
          "time": 158.64697950000001,
          "velocity": 0.3937007874015748
        },
        {
          "duration": 0.5294114999999806,
          "durationTicks": 288,
          "midi": 56,
          "name": "G#3",
          "ticks": 86304,
          "time": 158.64697950000001,
          "velocity": 0.3937007874015748
        },
        {
          "duration": 0.5294114999999806,
          "durationTicks": 288,
          "midi": 60,
          "name": "C4",
          "ticks": 86304,
          "time": 158.64697950000001,
          "velocity": 0.3937007874015748
        },
        {
          "duration": 0.5294114999999806,
          "durationTicks": 288,
          "midi": 63,
          "name": "D#4",
          "ticks": 86304,
          "time": 158.64697950000001,
          "velocity": 0.3937007874015748
        },
        {
          "duration": 0.5294114999999806,
          "durationTicks": 288,
          "midi": 68,
          "name": "G#4",
          "ticks": 86304,
          "time": 158.64697950000001,
          "velocity": 0.3937007874015748
        },
        {
          "duration": 0.3529410000000155,
          "durationTicks": 192,
          "midi": 29,
          "name": "F1",
          "ticks": 86592,
          "time": 159.176391,
          "velocity": 0.3937007874015748
        },
        {
          "duration": 0.3529410000000155,
          "durationTicks": 192,
          "midi": 41,
          "name": "F2",
          "ticks": 86592,
          "time": 159.176391,
          "velocity": 0.3937007874015748
        },
        {
          "duration": 0.3529410000000155,
          "durationTicks": 192,
          "midi": 53,
          "name": "F3",
          "ticks": 86592,
          "time": 159.176391,
          "velocity": 0.3937007874015748
        },
        {
          "duration": 0.3529410000000155,
          "durationTicks": 192,
          "midi": 56,
          "name": "G#3",
          "ticks": 86592,
          "time": 159.176391,
          "velocity": 0.3937007874015748
        },
        {
          "duration": 0.3529410000000155,
          "durationTicks": 192,
          "midi": 60,
          "name": "C4",
          "ticks": 86592,
          "time": 159.176391,
          "velocity": 0.3937007874015748
        },
        {
          "duration": 0.3529410000000155,
          "durationTicks": 192,
          "midi": 63,
          "name": "D#4",
          "ticks": 86592,
          "time": 159.176391,
          "velocity": 0.3937007874015748
        },
        {
          "duration": 0.3529410000000155,
          "durationTicks": 192,
          "midi": 68,
          "name": "G#4",
          "ticks": 86592,
          "time": 159.176391,
          "velocity": 0.3937007874015748
        },
        {
          "duration": 0.5294114999999806,
          "durationTicks": 288,
          "midi": 32,
          "name": "G#1",
          "ticks": 86784,
          "time": 159.529332,
          "velocity": 0.3937007874015748
        },
        {
          "duration": 0.5294114999999806,
          "durationTicks": 288,
          "midi": 44,
          "name": "G#2",
          "ticks": 86784,
          "time": 159.529332,
          "velocity": 0.3937007874015748
        },
        {
          "duration": 0.5294114999999806,
          "durationTicks": 288,
          "midi": 56,
          "name": "G#3",
          "ticks": 86784,
          "time": 159.529332,
          "velocity": 0.3937007874015748
        },
        {
          "duration": 0.5294114999999806,
          "durationTicks": 288,
          "midi": 60,
          "name": "C4",
          "ticks": 86784,
          "time": 159.529332,
          "velocity": 0.3937007874015748
        },
        {
          "duration": 0.5294114999999806,
          "durationTicks": 288,
          "midi": 63,
          "name": "D#4",
          "ticks": 86784,
          "time": 159.529332,
          "velocity": 0.3937007874015748
        },
        {
          "duration": 0.5294114999999806,
          "durationTicks": 288,
          "midi": 67,
          "name": "G4",
          "ticks": 86784,
          "time": 159.529332,
          "velocity": 0.3937007874015748
        },
        {
          "duration": 0.5294114999999806,
          "durationTicks": 288,
          "midi": 70,
          "name": "A#4",
          "ticks": 86784,
          "time": 159.529332,
          "velocity": 0.3937007874015748
        },
        {
          "duration": 0.529411500000009,
          "durationTicks": 288,
          "midi": 32,
          "name": "G#1",
          "ticks": 87072,
          "time": 160.0587435,
          "velocity": 0.3937007874015748
        },
        {
          "duration": 0.529411500000009,
          "durationTicks": 288,
          "midi": 44,
          "name": "G#2",
          "ticks": 87072,
          "time": 160.0587435,
          "velocity": 0.3937007874015748
        },
        {
          "duration": 0.529411500000009,
          "durationTicks": 288,
          "midi": 56,
          "name": "G#3",
          "ticks": 87072,
          "time": 160.0587435,
          "velocity": 0.3937007874015748
        },
        {
          "duration": 0.529411500000009,
          "durationTicks": 288,
          "midi": 60,
          "name": "C4",
          "ticks": 87072,
          "time": 160.0587435,
          "velocity": 0.3937007874015748
        },
        {
          "duration": 0.529411500000009,
          "durationTicks": 288,
          "midi": 63,
          "name": "D#4",
          "ticks": 87072,
          "time": 160.0587435,
          "velocity": 0.3937007874015748
        },
        {
          "duration": 0.529411500000009,
          "durationTicks": 288,
          "midi": 67,
          "name": "G4",
          "ticks": 87072,
          "time": 160.0587435,
          "velocity": 0.3937007874015748
        },
        {
          "duration": 0.529411500000009,
          "durationTicks": 288,
          "midi": 70,
          "name": "A#4",
          "ticks": 87072,
          "time": 160.0587435,
          "velocity": 0.3937007874015748
        },
        {
          "duration": 0.529411500000009,
          "durationTicks": 288,
          "midi": 36,
          "name": "C2",
          "ticks": 87360,
          "time": 160.588155,
          "velocity": 0.3937007874015748
        },
        {
          "duration": 0.529411500000009,
          "durationTicks": 288,
          "midi": 48,
          "name": "C3",
          "ticks": 87360,
          "time": 160.588155,
          "velocity": 0.3937007874015748
        },
        {
          "duration": 0.529411500000009,
          "durationTicks": 288,
          "midi": 60,
          "name": "C4",
          "ticks": 87360,
          "time": 160.588155,
          "velocity": 0.3937007874015748
        },
        {
          "duration": 0.529411500000009,
          "durationTicks": 288,
          "midi": 63,
          "name": "D#4",
          "ticks": 87360,
          "time": 160.588155,
          "velocity": 0.3937007874015748
        },
        {
          "duration": 0.529411500000009,
          "durationTicks": 288,
          "midi": 67,
          "name": "G4",
          "ticks": 87360,
          "time": 160.588155,
          "velocity": 0.3937007874015748
        },
        {
          "duration": 0.529411500000009,
          "durationTicks": 288,
          "midi": 70,
          "name": "A#4",
          "ticks": 87360,
          "time": 160.588155,
          "velocity": 0.3937007874015748
        },
        {
          "duration": 0.529411500000009,
          "durationTicks": 288,
          "midi": 72,
          "name": "C5",
          "ticks": 87360,
          "time": 160.588155,
          "velocity": 0.3937007874015748
        },
        {
          "duration": 0.5294114999999806,
          "durationTicks": 288,
          "midi": 36,
          "name": "C2",
          "ticks": 87648,
          "time": 161.1175665,
          "velocity": 0.3937007874015748
        },
        {
          "duration": 0.5294114999999806,
          "durationTicks": 288,
          "midi": 48,
          "name": "C3",
          "ticks": 87648,
          "time": 161.1175665,
          "velocity": 0.3937007874015748
        },
        {
          "duration": 0.5294114999999806,
          "durationTicks": 288,
          "midi": 60,
          "name": "C4",
          "ticks": 87648,
          "time": 161.1175665,
          "velocity": 0.3937007874015748
        },
        {
          "duration": 0.5294114999999806,
          "durationTicks": 288,
          "midi": 63,
          "name": "D#4",
          "ticks": 87648,
          "time": 161.1175665,
          "velocity": 0.3937007874015748
        },
        {
          "duration": 0.5294114999999806,
          "durationTicks": 288,
          "midi": 67,
          "name": "G4",
          "ticks": 87648,
          "time": 161.1175665,
          "velocity": 0.3937007874015748
        },
        {
          "duration": 0.5294114999999806,
          "durationTicks": 288,
          "midi": 70,
          "name": "A#4",
          "ticks": 87648,
          "time": 161.1175665,
          "velocity": 0.3937007874015748
        },
        {
          "duration": 0.5294114999999806,
          "durationTicks": 288,
          "midi": 72,
          "name": "C5",
          "ticks": 87648,
          "time": 161.1175665,
          "velocity": 0.3937007874015748
        },
        {
          "duration": 0.529411500000009,
          "durationTicks": 288,
          "midi": 36,
          "name": "C2",
          "ticks": 87936,
          "time": 161.646978,
          "velocity": 0.3937007874015748
        },
        {
          "duration": 0.529411500000009,
          "durationTicks": 288,
          "midi": 48,
          "name": "C3",
          "ticks": 87936,
          "time": 161.646978,
          "velocity": 0.3937007874015748
        },
        {
          "duration": 0.529411500000009,
          "durationTicks": 288,
          "midi": 60,
          "name": "C4",
          "ticks": 87936,
          "time": 161.646978,
          "velocity": 0.3937007874015748
        },
        {
          "duration": 0.529411500000009,
          "durationTicks": 288,
          "midi": 63,
          "name": "D#4",
          "ticks": 87936,
          "time": 161.646978,
          "velocity": 0.3937007874015748
        },
        {
          "duration": 0.529411500000009,
          "durationTicks": 288,
          "midi": 67,
          "name": "G4",
          "ticks": 87936,
          "time": 161.646978,
          "velocity": 0.3937007874015748
        },
        {
          "duration": 0.529411500000009,
          "durationTicks": 288,
          "midi": 70,
          "name": "A#4",
          "ticks": 87936,
          "time": 161.646978,
          "velocity": 0.3937007874015748
        },
        {
          "duration": 0.529411500000009,
          "durationTicks": 288,
          "midi": 72,
          "name": "C5",
          "ticks": 87936,
          "time": 161.646978,
          "velocity": 0.3937007874015748
        },
        {
          "duration": 0.529411500000009,
          "durationTicks": 288,
          "midi": 36,
          "name": "C2",
          "ticks": 88224,
          "time": 162.1763895,
          "velocity": 0.3937007874015748
        },
        {
          "duration": 0.529411500000009,
          "durationTicks": 288,
          "midi": 48,
          "name": "C3",
          "ticks": 88224,
          "time": 162.1763895,
          "velocity": 0.3937007874015748
        },
        {
          "duration": 0.529411500000009,
          "durationTicks": 288,
          "midi": 60,
          "name": "C4",
          "ticks": 88224,
          "time": 162.1763895,
          "velocity": 0.3937007874015748
        },
        {
          "duration": 0.529411500000009,
          "durationTicks": 288,
          "midi": 63,
          "name": "D#4",
          "ticks": 88224,
          "time": 162.1763895,
          "velocity": 0.3937007874015748
        },
        {
          "duration": 0.529411500000009,
          "durationTicks": 288,
          "midi": 67,
          "name": "G4",
          "ticks": 88224,
          "time": 162.1763895,
          "velocity": 0.3937007874015748
        },
        {
          "duration": 0.529411500000009,
          "durationTicks": 288,
          "midi": 70,
          "name": "A#4",
          "ticks": 88224,
          "time": 162.1763895,
          "velocity": 0.3937007874015748
        },
        {
          "duration": 0.529411500000009,
          "durationTicks": 288,
          "midi": 72,
          "name": "C5",
          "ticks": 88224,
          "time": 162.1763895,
          "velocity": 0.3937007874015748
        },
        {
          "duration": 0.5294114999999806,
          "durationTicks": 288,
          "midi": 36,
          "name": "C2",
          "ticks": 88512,
          "time": 162.705801,
          "velocity": 0.3937007874015748
        },
        {
          "duration": 0.5294114999999806,
          "durationTicks": 288,
          "midi": 48,
          "name": "C3",
          "ticks": 88512,
          "time": 162.705801,
          "velocity": 0.3937007874015748
        },
        {
          "duration": 0.5294114999999806,
          "durationTicks": 288,
          "midi": 60,
          "name": "C4",
          "ticks": 88512,
          "time": 162.705801,
          "velocity": 0.3937007874015748
        },
        {
          "duration": 0.5294114999999806,
          "durationTicks": 288,
          "midi": 63,
          "name": "D#4",
          "ticks": 88512,
          "time": 162.705801,
          "velocity": 0.3937007874015748
        },
        {
          "duration": 0.5294114999999806,
          "durationTicks": 288,
          "midi": 67,
          "name": "G4",
          "ticks": 88512,
          "time": 162.705801,
          "velocity": 0.3937007874015748
        },
        {
          "duration": 0.5294114999999806,
          "durationTicks": 288,
          "midi": 70,
          "name": "A#4",
          "ticks": 88512,
          "time": 162.705801,
          "velocity": 0.3937007874015748
        },
        {
          "duration": 0.5294114999999806,
          "durationTicks": 288,
          "midi": 72,
          "name": "C5",
          "ticks": 88512,
          "time": 162.705801,
          "velocity": 0.3937007874015748
        },
        {
          "duration": 0.529411500000009,
          "durationTicks": 288,
          "midi": 36,
          "name": "C2",
          "ticks": 88800,
          "time": 163.2352125,
          "velocity": 0.3937007874015748
        },
        {
          "duration": 0.529411500000009,
          "durationTicks": 288,
          "midi": 48,
          "name": "C3",
          "ticks": 88800,
          "time": 163.2352125,
          "velocity": 0.3937007874015748
        },
        {
          "duration": 0.529411500000009,
          "durationTicks": 288,
          "midi": 60,
          "name": "C4",
          "ticks": 88800,
          "time": 163.2352125,
          "velocity": 0.3937007874015748
        },
        {
          "duration": 0.529411500000009,
          "durationTicks": 288,
          "midi": 63,
          "name": "D#4",
          "ticks": 88800,
          "time": 163.2352125,
          "velocity": 0.3937007874015748
        },
        {
          "duration": 0.529411500000009,
          "durationTicks": 288,
          "midi": 67,
          "name": "G4",
          "ticks": 88800,
          "time": 163.2352125,
          "velocity": 0.3937007874015748
        },
        {
          "duration": 0.529411500000009,
          "durationTicks": 288,
          "midi": 70,
          "name": "A#4",
          "ticks": 88800,
          "time": 163.2352125,
          "velocity": 0.3937007874015748
        },
        {
          "duration": 0.529411500000009,
          "durationTicks": 288,
          "midi": 72,
          "name": "C5",
          "ticks": 88800,
          "time": 163.2352125,
          "velocity": 0.3937007874015748
        },
        {
          "duration": 0.529411500000009,
          "durationTicks": 288,
          "midi": 29,
          "name": "F1",
          "ticks": 89088,
          "time": 163.764624,
          "velocity": 0.3937007874015748
        },
        {
          "duration": 0.529411500000009,
          "durationTicks": 288,
          "midi": 41,
          "name": "F2",
          "ticks": 89088,
          "time": 163.764624,
          "velocity": 0.3937007874015748
        },
        {
          "duration": 0.529411500000009,
          "durationTicks": 288,
          "midi": 53,
          "name": "F3",
          "ticks": 89088,
          "time": 163.764624,
          "velocity": 0.3937007874015748
        },
        {
          "duration": 0.529411500000009,
          "durationTicks": 288,
          "midi": 56,
          "name": "G#3",
          "ticks": 89088,
          "time": 163.764624,
          "velocity": 0.3937007874015748
        },
        {
          "duration": 0.529411500000009,
          "durationTicks": 288,
          "midi": 60,
          "name": "C4",
          "ticks": 89088,
          "time": 163.764624,
          "velocity": 0.3937007874015748
        },
        {
          "duration": 0.529411500000009,
          "durationTicks": 288,
          "midi": 63,
          "name": "D#4",
          "ticks": 89088,
          "time": 163.764624,
          "velocity": 0.3937007874015748
        },
        {
          "duration": 0.529411500000009,
          "durationTicks": 288,
          "midi": 75,
          "name": "D#5",
          "ticks": 89088,
          "time": 163.764624,
          "velocity": 0.3937007874015748
        },
        {
          "duration": 0.529411500000009,
          "durationTicks": 288,
          "midi": 29,
          "name": "F1",
          "ticks": 89376,
          "time": 164.2940355,
          "velocity": 0.3937007874015748
        },
        {
          "duration": 0.529411500000009,
          "durationTicks": 288,
          "midi": 41,
          "name": "F2",
          "ticks": 89376,
          "time": 164.2940355,
          "velocity": 0.3937007874015748
        },
        {
          "duration": 0.529411500000009,
          "durationTicks": 288,
          "midi": 53,
          "name": "F3",
          "ticks": 89376,
          "time": 164.2940355,
          "velocity": 0.3937007874015748
        },
        {
          "duration": 0.529411500000009,
          "durationTicks": 288,
          "midi": 56,
          "name": "G#3",
          "ticks": 89376,
          "time": 164.2940355,
          "velocity": 0.3937007874015748
        },
        {
          "duration": 0.529411500000009,
          "durationTicks": 288,
          "midi": 60,
          "name": "C4",
          "ticks": 89376,
          "time": 164.2940355,
          "velocity": 0.3937007874015748
        },
        {
          "duration": 0.529411500000009,
          "durationTicks": 288,
          "midi": 63,
          "name": "D#4",
          "ticks": 89376,
          "time": 164.2940355,
          "velocity": 0.3937007874015748
        },
        {
          "duration": 0.529411500000009,
          "durationTicks": 288,
          "midi": 75,
          "name": "D#5",
          "ticks": 89376,
          "time": 164.2940355,
          "velocity": 0.3937007874015748
        },
        {
          "duration": 0.35294099999998707,
          "durationTicks": 192,
          "midi": 29,
          "name": "F1",
          "ticks": 89664,
          "time": 164.82344700000002,
          "velocity": 0.3937007874015748
        },
        {
          "duration": 0.35294099999998707,
          "durationTicks": 192,
          "midi": 41,
          "name": "F2",
          "ticks": 89664,
          "time": 164.82344700000002,
          "velocity": 0.3937007874015748
        },
        {
          "duration": 0.35294099999998707,
          "durationTicks": 192,
          "midi": 53,
          "name": "F3",
          "ticks": 89664,
          "time": 164.82344700000002,
          "velocity": 0.3937007874015748
        },
        {
          "duration": 0.35294099999998707,
          "durationTicks": 192,
          "midi": 56,
          "name": "G#3",
          "ticks": 89664,
          "time": 164.82344700000002,
          "velocity": 0.3937007874015748
        },
        {
          "duration": 0.35294099999998707,
          "durationTicks": 192,
          "midi": 60,
          "name": "C4",
          "ticks": 89664,
          "time": 164.82344700000002,
          "velocity": 0.3937007874015748
        },
        {
          "duration": 0.35294099999998707,
          "durationTicks": 192,
          "midi": 63,
          "name": "D#4",
          "ticks": 89664,
          "time": 164.82344700000002,
          "velocity": 0.3937007874015748
        },
        {
          "duration": 0.35294099999998707,
          "durationTicks": 192,
          "midi": 75,
          "name": "D#5",
          "ticks": 89664,
          "time": 164.82344700000002,
          "velocity": 0.3937007874015748
        },
        {
          "duration": 0.529411500000009,
          "durationTicks": 288,
          "midi": 34,
          "name": "A#1",
          "ticks": 89856,
          "time": 165.176388,
          "velocity": 0.3937007874015748
        },
        {
          "duration": 0.529411500000009,
          "durationTicks": 288,
          "midi": 46,
          "name": "A#2",
          "ticks": 89856,
          "time": 165.176388,
          "velocity": 0.3937007874015748
        },
        {
          "duration": 0.529411500000009,
          "durationTicks": 288,
          "midi": 58,
          "name": "A#3",
          "ticks": 89856,
          "time": 165.176388,
          "velocity": 0.3937007874015748
        },
        {
          "duration": 0.529411500000009,
          "durationTicks": 288,
          "midi": 61,
          "name": "C#4",
          "ticks": 89856,
          "time": 165.176388,
          "velocity": 0.3937007874015748
        },
        {
          "duration": 0.529411500000009,
          "durationTicks": 288,
          "midi": 65,
          "name": "F4",
          "ticks": 89856,
          "time": 165.176388,
          "velocity": 0.3937007874015748
        },
        {
          "duration": 0.529411500000009,
          "durationTicks": 288,
          "midi": 68,
          "name": "G#4",
          "ticks": 89856,
          "time": 165.176388,
          "velocity": 0.3937007874015748
        },
        {
          "duration": 0.529411500000009,
          "durationTicks": 288,
          "midi": 70,
          "name": "A#4",
          "ticks": 89856,
          "time": 165.176388,
          "velocity": 0.3937007874015748
        },
        {
          "duration": 0.5294114999999806,
          "durationTicks": 288,
          "midi": 34,
          "name": "A#1",
          "ticks": 90144,
          "time": 165.7057995,
          "velocity": 0.3937007874015748
        },
        {
          "duration": 0.5294114999999806,
          "durationTicks": 288,
          "midi": 46,
          "name": "A#2",
          "ticks": 90144,
          "time": 165.7057995,
          "velocity": 0.3937007874015748
        },
        {
          "duration": 0.5294114999999806,
          "durationTicks": 288,
          "midi": 58,
          "name": "A#3",
          "ticks": 90144,
          "time": 165.7057995,
          "velocity": 0.3937007874015748
        },
        {
          "duration": 0.5294114999999806,
          "durationTicks": 288,
          "midi": 61,
          "name": "C#4",
          "ticks": 90144,
          "time": 165.7057995,
          "velocity": 0.3937007874015748
        },
        {
          "duration": 0.5294114999999806,
          "durationTicks": 288,
          "midi": 65,
          "name": "F4",
          "ticks": 90144,
          "time": 165.7057995,
          "velocity": 0.3937007874015748
        },
        {
          "duration": 0.5294114999999806,
          "durationTicks": 288,
          "midi": 68,
          "name": "G#4",
          "ticks": 90144,
          "time": 165.7057995,
          "velocity": 0.3937007874015748
        },
        {
          "duration": 0.5294114999999806,
          "durationTicks": 288,
          "midi": 70,
          "name": "A#4",
          "ticks": 90144,
          "time": 165.7057995,
          "velocity": 0.3937007874015748
        },
        {
          "duration": 0.529411500000009,
          "durationTicks": 288,
          "midi": 32,
          "name": "G#1",
          "ticks": 90432,
          "time": 166.235211,
          "velocity": 0.3937007874015748
        },
        {
          "duration": 0.529411500000009,
          "durationTicks": 288,
          "midi": 44,
          "name": "G#2",
          "ticks": 90432,
          "time": 166.235211,
          "velocity": 0.3937007874015748
        },
        {
          "duration": 0.529411500000009,
          "durationTicks": 288,
          "midi": 56,
          "name": "G#3",
          "ticks": 90432,
          "time": 166.235211,
          "velocity": 0.3937007874015748
        },
        {
          "duration": 0.529411500000009,
          "durationTicks": 288,
          "midi": 60,
          "name": "C4",
          "ticks": 90432,
          "time": 166.235211,
          "velocity": 0.3937007874015748
        },
        {
          "duration": 0.529411500000009,
          "durationTicks": 288,
          "midi": 63,
          "name": "D#4",
          "ticks": 90432,
          "time": 166.235211,
          "velocity": 0.3937007874015748
        },
        {
          "duration": 0.529411500000009,
          "durationTicks": 288,
          "midi": 67,
          "name": "G4",
          "ticks": 90432,
          "time": 166.235211,
          "velocity": 0.3937007874015748
        },
        {
          "duration": 0.529411500000009,
          "durationTicks": 288,
          "midi": 68,
          "name": "G#4",
          "ticks": 90432,
          "time": 166.235211,
          "velocity": 0.3937007874015748
        },
        {
          "duration": 0.529411500000009,
          "durationTicks": 288,
          "midi": 32,
          "name": "G#1",
          "ticks": 90720,
          "time": 166.7646225,
          "velocity": 0.3937007874015748
        },
        {
          "duration": 0.529411500000009,
          "durationTicks": 288,
          "midi": 44,
          "name": "G#2",
          "ticks": 90720,
          "time": 166.7646225,
          "velocity": 0.3937007874015748
        },
        {
          "duration": 0.529411500000009,
          "durationTicks": 288,
          "midi": 56,
          "name": "G#3",
          "ticks": 90720,
          "time": 166.7646225,
          "velocity": 0.3937007874015748
        },
        {
          "duration": 0.529411500000009,
          "durationTicks": 288,
          "midi": 60,
          "name": "C4",
          "ticks": 90720,
          "time": 166.7646225,
          "velocity": 0.3937007874015748
        },
        {
          "duration": 0.529411500000009,
          "durationTicks": 288,
          "midi": 63,
          "name": "D#4",
          "ticks": 90720,
          "time": 166.7646225,
          "velocity": 0.3937007874015748
        },
        {
          "duration": 0.529411500000009,
          "durationTicks": 288,
          "midi": 67,
          "name": "G4",
          "ticks": 90720,
          "time": 166.7646225,
          "velocity": 0.3937007874015748
        },
        {
          "duration": 0.529411500000009,
          "durationTicks": 288,
          "midi": 68,
          "name": "G#4",
          "ticks": 90720,
          "time": 166.7646225,
          "velocity": 0.3937007874015748
        },
        {
          "duration": 0.5294114999999806,
          "durationTicks": 288,
          "midi": 32,
          "name": "G#1",
          "ticks": 91008,
          "time": 167.294034,
          "velocity": 0.3937007874015748
        },
        {
          "duration": 0.5294114999999806,
          "durationTicks": 288,
          "midi": 44,
          "name": "G#2",
          "ticks": 91008,
          "time": 167.294034,
          "velocity": 0.3937007874015748
        },
        {
          "duration": 0.5294114999999806,
          "durationTicks": 288,
          "midi": 56,
          "name": "G#3",
          "ticks": 91008,
          "time": 167.294034,
          "velocity": 0.3937007874015748
        },
        {
          "duration": 0.5294114999999806,
          "durationTicks": 288,
          "midi": 60,
          "name": "C4",
          "ticks": 91008,
          "time": 167.294034,
          "velocity": 0.3937007874015748
        },
        {
          "duration": 0.5294114999999806,
          "durationTicks": 288,
          "midi": 63,
          "name": "D#4",
          "ticks": 91008,
          "time": 167.294034,
          "velocity": 0.3937007874015748
        },
        {
          "duration": 0.5294114999999806,
          "durationTicks": 288,
          "midi": 67,
          "name": "G4",
          "ticks": 91008,
          "time": 167.294034,
          "velocity": 0.3937007874015748
        },
        {
          "duration": 0.5294114999999806,
          "durationTicks": 288,
          "midi": 68,
          "name": "G#4",
          "ticks": 91008,
          "time": 167.294034,
          "velocity": 0.3937007874015748
        },
        {
          "duration": 0.529411500000009,
          "durationTicks": 288,
          "midi": 32,
          "name": "G#1",
          "ticks": 91296,
          "time": 167.8234455,
          "velocity": 0.3937007874015748
        },
        {
          "duration": 0.529411500000009,
          "durationTicks": 288,
          "midi": 44,
          "name": "G#2",
          "ticks": 91296,
          "time": 167.8234455,
          "velocity": 0.3937007874015748
        },
        {
          "duration": 0.529411500000009,
          "durationTicks": 288,
          "midi": 56,
          "name": "G#3",
          "ticks": 91296,
          "time": 167.8234455,
          "velocity": 0.3937007874015748
        },
        {
          "duration": 0.529411500000009,
          "durationTicks": 288,
          "midi": 60,
          "name": "C4",
          "ticks": 91296,
          "time": 167.8234455,
          "velocity": 0.3937007874015748
        },
        {
          "duration": 0.529411500000009,
          "durationTicks": 288,
          "midi": 63,
          "name": "D#4",
          "ticks": 91296,
          "time": 167.8234455,
          "velocity": 0.3937007874015748
        },
        {
          "duration": 0.529411500000009,
          "durationTicks": 288,
          "midi": 67,
          "name": "G4",
          "ticks": 91296,
          "time": 167.8234455,
          "velocity": 0.3937007874015748
        },
        {
          "duration": 0.529411500000009,
          "durationTicks": 288,
          "midi": 68,
          "name": "G#4",
          "ticks": 91296,
          "time": 167.8234455,
          "velocity": 0.3937007874015748
        },
        {
          "duration": 0.529411500000009,
          "durationTicks": 288,
          "midi": 32,
          "name": "G#1",
          "ticks": 91584,
          "time": 168.352857,
          "velocity": 0.3937007874015748
        },
        {
          "duration": 0.529411500000009,
          "durationTicks": 288,
          "midi": 44,
          "name": "G#2",
          "ticks": 91584,
          "time": 168.352857,
          "velocity": 0.3937007874015748
        },
        {
          "duration": 0.529411500000009,
          "durationTicks": 288,
          "midi": 56,
          "name": "G#3",
          "ticks": 91584,
          "time": 168.352857,
          "velocity": 0.3937007874015748
        },
        {
          "duration": 0.529411500000009,
          "durationTicks": 288,
          "midi": 60,
          "name": "C4",
          "ticks": 91584,
          "time": 168.352857,
          "velocity": 0.3937007874015748
        },
        {
          "duration": 0.529411500000009,
          "durationTicks": 288,
          "midi": 63,
          "name": "D#4",
          "ticks": 91584,
          "time": 168.352857,
          "velocity": 0.3937007874015748
        },
        {
          "duration": 0.529411500000009,
          "durationTicks": 288,
          "midi": 67,
          "name": "G4",
          "ticks": 91584,
          "time": 168.352857,
          "velocity": 0.3937007874015748
        },
        {
          "duration": 0.529411500000009,
          "durationTicks": 288,
          "midi": 68,
          "name": "G#4",
          "ticks": 91584,
          "time": 168.352857,
          "velocity": 0.3937007874015748
        },
        {
          "duration": 0.5294114999999806,
          "durationTicks": 288,
          "midi": 32,
          "name": "G#1",
          "ticks": 91872,
          "time": 168.8822685,
          "velocity": 0.3937007874015748
        },
        {
          "duration": 0.5294114999999806,
          "durationTicks": 288,
          "midi": 44,
          "name": "G#2",
          "ticks": 91872,
          "time": 168.8822685,
          "velocity": 0.3937007874015748
        },
        {
          "duration": 0.5294114999999806,
          "durationTicks": 288,
          "midi": 56,
          "name": "G#3",
          "ticks": 91872,
          "time": 168.8822685,
          "velocity": 0.3937007874015748
        },
        {
          "duration": 0.5294114999999806,
          "durationTicks": 288,
          "midi": 60,
          "name": "C4",
          "ticks": 91872,
          "time": 168.8822685,
          "velocity": 0.3937007874015748
        },
        {
          "duration": 0.5294114999999806,
          "durationTicks": 288,
          "midi": 63,
          "name": "D#4",
          "ticks": 91872,
          "time": 168.8822685,
          "velocity": 0.3937007874015748
        },
        {
          "duration": 0.5294114999999806,
          "durationTicks": 288,
          "midi": 67,
          "name": "G4",
          "ticks": 91872,
          "time": 168.8822685,
          "velocity": 0.3937007874015748
        },
        {
          "duration": 0.5294114999999806,
          "durationTicks": 288,
          "midi": 68,
          "name": "G#4",
          "ticks": 91872,
          "time": 168.8822685,
          "velocity": 0.3937007874015748
        },
        {
          "duration": 0.529411500000009,
          "durationTicks": 288,
          "midi": 29,
          "name": "F1",
          "ticks": 92160,
          "time": 169.41168,
          "velocity": 0.3937007874015748
        },
        {
          "duration": 0.529411500000009,
          "durationTicks": 288,
          "midi": 41,
          "name": "F2",
          "ticks": 92160,
          "time": 169.41168,
          "velocity": 0.3937007874015748
        },
        {
          "duration": 0.529411500000009,
          "durationTicks": 288,
          "midi": 53,
          "name": "F3",
          "ticks": 92160,
          "time": 169.41168,
          "velocity": 0.3937007874015748
        },
        {
          "duration": 0.529411500000009,
          "durationTicks": 288,
          "midi": 56,
          "name": "G#3",
          "ticks": 92160,
          "time": 169.41168,
          "velocity": 0.3937007874015748
        },
        {
          "duration": 0.529411500000009,
          "durationTicks": 288,
          "midi": 60,
          "name": "C4",
          "ticks": 92160,
          "time": 169.41168,
          "velocity": 0.3937007874015748
        },
        {
          "duration": 0.529411500000009,
          "durationTicks": 288,
          "midi": 63,
          "name": "D#4",
          "ticks": 92160,
          "time": 169.41168,
          "velocity": 0.3937007874015748
        },
        {
          "duration": 0.529411500000009,
          "durationTicks": 288,
          "midi": 72,
          "name": "C5",
          "ticks": 92160,
          "time": 169.41168,
          "velocity": 0.3937007874015748
        },
        {
          "duration": 0.529411500000009,
          "durationTicks": 288,
          "midi": 29,
          "name": "F1",
          "ticks": 92448,
          "time": 169.9410915,
          "velocity": 0.3937007874015748
        },
        {
          "duration": 0.529411500000009,
          "durationTicks": 288,
          "midi": 41,
          "name": "F2",
          "ticks": 92448,
          "time": 169.9410915,
          "velocity": 0.3937007874015748
        },
        {
          "duration": 0.529411500000009,
          "durationTicks": 288,
          "midi": 53,
          "name": "F3",
          "ticks": 92448,
          "time": 169.9410915,
          "velocity": 0.3937007874015748
        },
        {
          "duration": 0.529411500000009,
          "durationTicks": 288,
          "midi": 56,
          "name": "G#3",
          "ticks": 92448,
          "time": 169.9410915,
          "velocity": 0.3937007874015748
        },
        {
          "duration": 0.529411500000009,
          "durationTicks": 288,
          "midi": 60,
          "name": "C4",
          "ticks": 92448,
          "time": 169.9410915,
          "velocity": 0.3937007874015748
        },
        {
          "duration": 0.529411500000009,
          "durationTicks": 288,
          "midi": 63,
          "name": "D#4",
          "ticks": 92448,
          "time": 169.9410915,
          "velocity": 0.3937007874015748
        },
        {
          "duration": 0.529411500000009,
          "durationTicks": 288,
          "midi": 72,
          "name": "C5",
          "ticks": 92448,
          "time": 169.9410915,
          "velocity": 0.3937007874015748
        },
        {
          "duration": 0.35294099999998707,
          "durationTicks": 192,
          "midi": 29,
          "name": "F1",
          "ticks": 92736,
          "time": 170.470503,
          "velocity": 0.3937007874015748
        },
        {
          "duration": 0.35294099999998707,
          "durationTicks": 192,
          "midi": 41,
          "name": "F2",
          "ticks": 92736,
          "time": 170.470503,
          "velocity": 0.3937007874015748
        },
        {
          "duration": 0.35294099999998707,
          "durationTicks": 192,
          "midi": 53,
          "name": "F3",
          "ticks": 92736,
          "time": 170.470503,
          "velocity": 0.3937007874015748
        },
        {
          "duration": 0.35294099999998707,
          "durationTicks": 192,
          "midi": 56,
          "name": "G#3",
          "ticks": 92736,
          "time": 170.470503,
          "velocity": 0.3937007874015748
        },
        {
          "duration": 0.35294099999998707,
          "durationTicks": 192,
          "midi": 60,
          "name": "C4",
          "ticks": 92736,
          "time": 170.470503,
          "velocity": 0.3937007874015748
        },
        {
          "duration": 0.35294099999998707,
          "durationTicks": 192,
          "midi": 63,
          "name": "D#4",
          "ticks": 92736,
          "time": 170.470503,
          "velocity": 0.3937007874015748
        },
        {
          "duration": 0.35294099999998707,
          "durationTicks": 192,
          "midi": 72,
          "name": "C5",
          "ticks": 92736,
          "time": 170.470503,
          "velocity": 0.3937007874015748
        },
        {
          "duration": 0.529411500000009,
          "durationTicks": 288,
          "midi": 32,
          "name": "G#1",
          "ticks": 92928,
          "time": 170.823444,
          "velocity": 0.3937007874015748
        },
        {
          "duration": 0.529411500000009,
          "durationTicks": 288,
          "midi": 44,
          "name": "G#2",
          "ticks": 92928,
          "time": 170.823444,
          "velocity": 0.3937007874015748
        },
        {
          "duration": 0.529411500000009,
          "durationTicks": 288,
          "midi": 56,
          "name": "G#3",
          "ticks": 92928,
          "time": 170.823444,
          "velocity": 0.3937007874015748
        },
        {
          "duration": 0.529411500000009,
          "durationTicks": 288,
          "midi": 60,
          "name": "C4",
          "ticks": 92928,
          "time": 170.823444,
          "velocity": 0.3937007874015748
        },
        {
          "duration": 0.529411500000009,
          "durationTicks": 288,
          "midi": 63,
          "name": "D#4",
          "ticks": 92928,
          "time": 170.823444,
          "velocity": 0.3937007874015748
        },
        {
          "duration": 0.529411500000009,
          "durationTicks": 288,
          "midi": 67,
          "name": "G4",
          "ticks": 92928,
          "time": 170.823444,
          "velocity": 0.3937007874015748
        },
        {
          "duration": 0.529411500000009,
          "durationTicks": 288,
          "midi": 68,
          "name": "G#4",
          "ticks": 92928,
          "time": 170.823444,
          "velocity": 0.3937007874015748
        },
        {
          "duration": 0.529411500000009,
          "durationTicks": 288,
          "midi": 32,
          "name": "G#1",
          "ticks": 93216,
          "time": 171.3528555,
          "velocity": 0.3937007874015748
        },
        {
          "duration": 0.529411500000009,
          "durationTicks": 288,
          "midi": 44,
          "name": "G#2",
          "ticks": 93216,
          "time": 171.3528555,
          "velocity": 0.3937007874015748
        },
        {
          "duration": 0.529411500000009,
          "durationTicks": 288,
          "midi": 56,
          "name": "G#3",
          "ticks": 93216,
          "time": 171.3528555,
          "velocity": 0.3937007874015748
        },
        {
          "duration": 0.529411500000009,
          "durationTicks": 288,
          "midi": 60,
          "name": "C4",
          "ticks": 93216,
          "time": 171.3528555,
          "velocity": 0.3937007874015748
        },
        {
          "duration": 0.529411500000009,
          "durationTicks": 288,
          "midi": 63,
          "name": "D#4",
          "ticks": 93216,
          "time": 171.3528555,
          "velocity": 0.3937007874015748
        },
        {
          "duration": 0.529411500000009,
          "durationTicks": 288,
          "midi": 67,
          "name": "G4",
          "ticks": 93216,
          "time": 171.3528555,
          "velocity": 0.3937007874015748
        },
        {
          "duration": 0.529411500000009,
          "durationTicks": 288,
          "midi": 68,
          "name": "G#4",
          "ticks": 93216,
          "time": 171.3528555,
          "velocity": 0.3937007874015748
        },
        {
          "duration": 0.5294114999999806,
          "durationTicks": 288,
          "midi": 36,
          "name": "C2",
          "ticks": 93504,
          "time": 171.882267,
          "velocity": 0.3937007874015748
        },
        {
          "duration": 0.5294114999999806,
          "durationTicks": 288,
          "midi": 48,
          "name": "C3",
          "ticks": 93504,
          "time": 171.882267,
          "velocity": 0.3937007874015748
        },
        {
          "duration": 0.5294114999999806,
          "durationTicks": 288,
          "midi": 60,
          "name": "C4",
          "ticks": 93504,
          "time": 171.882267,
          "velocity": 0.3937007874015748
        },
        {
          "duration": 0.5294114999999806,
          "durationTicks": 288,
          "midi": 63,
          "name": "D#4",
          "ticks": 93504,
          "time": 171.882267,
          "velocity": 0.3937007874015748
        },
        {
          "duration": 0.5294114999999806,
          "durationTicks": 288,
          "midi": 65,
          "name": "F4",
          "ticks": 93504,
          "time": 171.882267,
          "velocity": 0.3937007874015748
        },
        {
          "duration": 0.5294114999999806,
          "durationTicks": 288,
          "midi": 67,
          "name": "G4",
          "ticks": 93504,
          "time": 171.882267,
          "velocity": 0.3937007874015748
        },
        {
          "duration": 0.5294114999999806,
          "durationTicks": 288,
          "midi": 70,
          "name": "A#4",
          "ticks": 93504,
          "time": 171.882267,
          "velocity": 0.3937007874015748
        },
        {
          "duration": 0.529411500000009,
          "durationTicks": 288,
          "midi": 36,
          "name": "C2",
          "ticks": 93792,
          "time": 172.4116785,
          "velocity": 0.3937007874015748
        },
        {
          "duration": 0.529411500000009,
          "durationTicks": 288,
          "midi": 48,
          "name": "C3",
          "ticks": 93792,
          "time": 172.4116785,
          "velocity": 0.3937007874015748
        },
        {
          "duration": 0.529411500000009,
          "durationTicks": 288,
          "midi": 60,
          "name": "C4",
          "ticks": 93792,
          "time": 172.4116785,
          "velocity": 0.3937007874015748
        },
        {
          "duration": 0.529411500000009,
          "durationTicks": 288,
          "midi": 63,
          "name": "D#4",
          "ticks": 93792,
          "time": 172.4116785,
          "velocity": 0.3937007874015748
        },
        {
          "duration": 0.529411500000009,
          "durationTicks": 288,
          "midi": 65,
          "name": "F4",
          "ticks": 93792,
          "time": 172.4116785,
          "velocity": 0.3937007874015748
        },
        {
          "duration": 0.529411500000009,
          "durationTicks": 288,
          "midi": 67,
          "name": "G4",
          "ticks": 93792,
          "time": 172.4116785,
          "velocity": 0.3937007874015748
        },
        {
          "duration": 0.529411500000009,
          "durationTicks": 288,
          "midi": 70,
          "name": "A#4",
          "ticks": 93792,
          "time": 172.4116785,
          "velocity": 0.3937007874015748
        },
        {
          "duration": 0.529411500000009,
          "durationTicks": 288,
          "midi": 36,
          "name": "C2",
          "ticks": 94080,
          "time": 172.94109,
          "velocity": 0.3937007874015748
        },
        {
          "duration": 0.529411500000009,
          "durationTicks": 288,
          "midi": 48,
          "name": "C3",
          "ticks": 94080,
          "time": 172.94109,
          "velocity": 0.3937007874015748
        },
        {
          "duration": 0.529411500000009,
          "durationTicks": 288,
          "midi": 60,
          "name": "C4",
          "ticks": 94080,
          "time": 172.94109,
          "velocity": 0.3937007874015748
        },
        {
          "duration": 0.529411500000009,
          "durationTicks": 288,
          "midi": 63,
          "name": "D#4",
          "ticks": 94080,
          "time": 172.94109,
          "velocity": 0.3937007874015748
        },
        {
          "duration": 0.529411500000009,
          "durationTicks": 288,
          "midi": 65,
          "name": "F4",
          "ticks": 94080,
          "time": 172.94109,
          "velocity": 0.3937007874015748
        },
        {
          "duration": 0.529411500000009,
          "durationTicks": 288,
          "midi": 67,
          "name": "G4",
          "ticks": 94080,
          "time": 172.94109,
          "velocity": 0.3937007874015748
        },
        {
          "duration": 0.529411500000009,
          "durationTicks": 288,
          "midi": 70,
          "name": "A#4",
          "ticks": 94080,
          "time": 172.94109,
          "velocity": 0.3937007874015748
        },
        {
          "duration": 0.5294114999999806,
          "durationTicks": 288,
          "midi": 36,
          "name": "C2",
          "ticks": 94368,
          "time": 173.4705015,
          "velocity": 0.3937007874015748
        },
        {
          "duration": 0.5294114999999806,
          "durationTicks": 288,
          "midi": 48,
          "name": "C3",
          "ticks": 94368,
          "time": 173.4705015,
          "velocity": 0.3937007874015748
        },
        {
          "duration": 0.5294114999999806,
          "durationTicks": 288,
          "midi": 60,
          "name": "C4",
          "ticks": 94368,
          "time": 173.4705015,
          "velocity": 0.3937007874015748
        },
        {
          "duration": 0.5294114999999806,
          "durationTicks": 288,
          "midi": 63,
          "name": "D#4",
          "ticks": 94368,
          "time": 173.4705015,
          "velocity": 0.3937007874015748
        },
        {
          "duration": 0.5294114999999806,
          "durationTicks": 288,
          "midi": 65,
          "name": "F4",
          "ticks": 94368,
          "time": 173.4705015,
          "velocity": 0.3937007874015748
        },
        {
          "duration": 0.5294114999999806,
          "durationTicks": 288,
          "midi": 67,
          "name": "G4",
          "ticks": 94368,
          "time": 173.4705015,
          "velocity": 0.3937007874015748
        },
        {
          "duration": 0.5294114999999806,
          "durationTicks": 288,
          "midi": 70,
          "name": "A#4",
          "ticks": 94368,
          "time": 173.4705015,
          "velocity": 0.3937007874015748
        },
        {
          "duration": 0.529411500000009,
          "durationTicks": 288,
          "midi": 36,
          "name": "C2",
          "ticks": 94656,
          "time": 173.999913,
          "velocity": 0.3937007874015748
        },
        {
          "duration": 0.529411500000009,
          "durationTicks": 288,
          "midi": 48,
          "name": "C3",
          "ticks": 94656,
          "time": 173.999913,
          "velocity": 0.3937007874015748
        },
        {
          "duration": 0.529411500000009,
          "durationTicks": 288,
          "midi": 60,
          "name": "C4",
          "ticks": 94656,
          "time": 173.999913,
          "velocity": 0.3937007874015748
        },
        {
          "duration": 0.529411500000009,
          "durationTicks": 288,
          "midi": 63,
          "name": "D#4",
          "ticks": 94656,
          "time": 173.999913,
          "velocity": 0.3937007874015748
        },
        {
          "duration": 0.529411500000009,
          "durationTicks": 288,
          "midi": 65,
          "name": "F4",
          "ticks": 94656,
          "time": 173.999913,
          "velocity": 0.3937007874015748
        },
        {
          "duration": 0.529411500000009,
          "durationTicks": 288,
          "midi": 67,
          "name": "G4",
          "ticks": 94656,
          "time": 173.999913,
          "velocity": 0.3937007874015748
        },
        {
          "duration": 0.529411500000009,
          "durationTicks": 288,
          "midi": 70,
          "name": "A#4",
          "ticks": 94656,
          "time": 173.999913,
          "velocity": 0.3937007874015748
        },
        {
          "duration": 0.529411500000009,
          "durationTicks": 288,
          "midi": 36,
          "name": "C2",
          "ticks": 94944,
          "time": 174.5293245,
          "velocity": 0.3937007874015748
        },
        {
          "duration": 0.529411500000009,
          "durationTicks": 288,
          "midi": 48,
          "name": "C3",
          "ticks": 94944,
          "time": 174.5293245,
          "velocity": 0.3937007874015748
        },
        {
          "duration": 0.529411500000009,
          "durationTicks": 288,
          "midi": 60,
          "name": "C4",
          "ticks": 94944,
          "time": 174.5293245,
          "velocity": 0.3937007874015748
        },
        {
          "duration": 0.529411500000009,
          "durationTicks": 288,
          "midi": 63,
          "name": "D#4",
          "ticks": 94944,
          "time": 174.5293245,
          "velocity": 0.3937007874015748
        },
        {
          "duration": 0.529411500000009,
          "durationTicks": 288,
          "midi": 65,
          "name": "F4",
          "ticks": 94944,
          "time": 174.5293245,
          "velocity": 0.3937007874015748
        },
        {
          "duration": 0.529411500000009,
          "durationTicks": 288,
          "midi": 67,
          "name": "G4",
          "ticks": 94944,
          "time": 174.5293245,
          "velocity": 0.3937007874015748
        },
        {
          "duration": 0.529411500000009,
          "durationTicks": 288,
          "midi": 70,
          "name": "A#4",
          "ticks": 94944,
          "time": 174.5293245,
          "velocity": 0.3937007874015748
        },
        {
          "duration": 0.5294114999999806,
          "durationTicks": 288,
          "midi": 29,
          "name": "F1",
          "ticks": 95232,
          "time": 175.058736,
          "velocity": 0.3937007874015748
        },
        {
          "duration": 0.5294114999999806,
          "durationTicks": 288,
          "midi": 41,
          "name": "F2",
          "ticks": 95232,
          "time": 175.058736,
          "velocity": 0.3937007874015748
        },
        {
          "duration": 0.5294114999999806,
          "durationTicks": 288,
          "midi": 53,
          "name": "F3",
          "ticks": 95232,
          "time": 175.058736,
          "velocity": 0.3937007874015748
        },
        {
          "duration": 0.5294114999999806,
          "durationTicks": 288,
          "midi": 56,
          "name": "G#3",
          "ticks": 95232,
          "time": 175.058736,
          "velocity": 0.3937007874015748
        },
        {
          "duration": 0.5294114999999806,
          "durationTicks": 288,
          "midi": 60,
          "name": "C4",
          "ticks": 95232,
          "time": 175.058736,
          "velocity": 0.3937007874015748
        },
        {
          "duration": 0.5294114999999806,
          "durationTicks": 288,
          "midi": 63,
          "name": "D#4",
          "ticks": 95232,
          "time": 175.058736,
          "velocity": 0.3937007874015748
        },
        {
          "duration": 0.5294114999999806,
          "durationTicks": 288,
          "midi": 68,
          "name": "G#4",
          "ticks": 95232,
          "time": 175.058736,
          "velocity": 0.3937007874015748
        },
        {
          "duration": 0.529411500000009,
          "durationTicks": 288,
          "midi": 29,
          "name": "F1",
          "ticks": 95520,
          "time": 175.5881475,
          "velocity": 0.3937007874015748
        },
        {
          "duration": 0.529411500000009,
          "durationTicks": 288,
          "midi": 41,
          "name": "F2",
          "ticks": 95520,
          "time": 175.5881475,
          "velocity": 0.3937007874015748
        },
        {
          "duration": 0.529411500000009,
          "durationTicks": 288,
          "midi": 53,
          "name": "F3",
          "ticks": 95520,
          "time": 175.5881475,
          "velocity": 0.3937007874015748
        },
        {
          "duration": 0.529411500000009,
          "durationTicks": 288,
          "midi": 56,
          "name": "G#3",
          "ticks": 95520,
          "time": 175.5881475,
          "velocity": 0.3937007874015748
        },
        {
          "duration": 0.529411500000009,
          "durationTicks": 288,
          "midi": 60,
          "name": "C4",
          "ticks": 95520,
          "time": 175.5881475,
          "velocity": 0.3937007874015748
        },
        {
          "duration": 0.529411500000009,
          "durationTicks": 288,
          "midi": 63,
          "name": "D#4",
          "ticks": 95520,
          "time": 175.5881475,
          "velocity": 0.3937007874015748
        },
        {
          "duration": 0.529411500000009,
          "durationTicks": 288,
          "midi": 68,
          "name": "G#4",
          "ticks": 95520,
          "time": 175.5881475,
          "velocity": 0.3937007874015748
        },
        {
          "duration": 0.3529410000000155,
          "durationTicks": 192,
          "midi": 29,
          "name": "F1",
          "ticks": 95808,
          "time": 176.117559,
          "velocity": 0.3937007874015748
        },
        {
          "duration": 0.3529410000000155,
          "durationTicks": 192,
          "midi": 41,
          "name": "F2",
          "ticks": 95808,
          "time": 176.117559,
          "velocity": 0.3937007874015748
        },
        {
          "duration": 0.3529410000000155,
          "durationTicks": 192,
          "midi": 53,
          "name": "F3",
          "ticks": 95808,
          "time": 176.117559,
          "velocity": 0.3937007874015748
        },
        {
          "duration": 0.3529410000000155,
          "durationTicks": 192,
          "midi": 56,
          "name": "G#3",
          "ticks": 95808,
          "time": 176.117559,
          "velocity": 0.3937007874015748
        },
        {
          "duration": 0.3529410000000155,
          "durationTicks": 192,
          "midi": 60,
          "name": "C4",
          "ticks": 95808,
          "time": 176.117559,
          "velocity": 0.3937007874015748
        },
        {
          "duration": 0.3529410000000155,
          "durationTicks": 192,
          "midi": 63,
          "name": "D#4",
          "ticks": 95808,
          "time": 176.117559,
          "velocity": 0.3937007874015748
        },
        {
          "duration": 0.3529410000000155,
          "durationTicks": 192,
          "midi": 68,
          "name": "G#4",
          "ticks": 95808,
          "time": 176.117559,
          "velocity": 0.3937007874015748
        },
        {
          "duration": 0.5294114999999806,
          "durationTicks": 288,
          "midi": 34,
          "name": "A#1",
          "ticks": 96000,
          "time": 176.47050000000002,
          "velocity": 0.3937007874015748
        },
        {
          "duration": 0.5294114999999806,
          "durationTicks": 288,
          "midi": 46,
          "name": "A#2",
          "ticks": 96000,
          "time": 176.47050000000002,
          "velocity": 0.3937007874015748
        },
        {
          "duration": 0.5294114999999806,
          "durationTicks": 288,
          "midi": 58,
          "name": "A#3",
          "ticks": 96000,
          "time": 176.47050000000002,
          "velocity": 0.3937007874015748
        },
        {
          "duration": 0.5294114999999806,
          "durationTicks": 288,
          "midi": 61,
          "name": "C#4",
          "ticks": 96000,
          "time": 176.47050000000002,
          "velocity": 0.3937007874015748
        },
        {
          "duration": 0.5294114999999806,
          "durationTicks": 288,
          "midi": 65,
          "name": "F4",
          "ticks": 96000,
          "time": 176.47050000000002,
          "velocity": 0.3937007874015748
        },
        {
          "duration": 0.5294114999999806,
          "durationTicks": 288,
          "midi": 67,
          "name": "G4",
          "ticks": 96000,
          "time": 176.47050000000002,
          "velocity": 0.3937007874015748
        },
        {
          "duration": 0.5294114999999806,
          "durationTicks": 288,
          "midi": 68,
          "name": "G#4",
          "ticks": 96000,
          "time": 176.47050000000002,
          "velocity": 0.3937007874015748
        },
        {
          "duration": 0.529411500000009,
          "durationTicks": 288,
          "midi": 34,
          "name": "A#1",
          "ticks": 96288,
          "time": 176.9999115,
          "velocity": 0.3937007874015748
        },
        {
          "duration": 0.529411500000009,
          "durationTicks": 288,
          "midi": 46,
          "name": "A#2",
          "ticks": 96288,
          "time": 176.9999115,
          "velocity": 0.3937007874015748
        },
        {
          "duration": 0.529411500000009,
          "durationTicks": 288,
          "midi": 58,
          "name": "A#3",
          "ticks": 96288,
          "time": 176.9999115,
          "velocity": 0.3937007874015748
        },
        {
          "duration": 0.529411500000009,
          "durationTicks": 288,
          "midi": 61,
          "name": "C#4",
          "ticks": 96288,
          "time": 176.9999115,
          "velocity": 0.3937007874015748
        },
        {
          "duration": 0.529411500000009,
          "durationTicks": 288,
          "midi": 65,
          "name": "F4",
          "ticks": 96288,
          "time": 176.9999115,
          "velocity": 0.3937007874015748
        },
        {
          "duration": 0.529411500000009,
          "durationTicks": 288,
          "midi": 67,
          "name": "G4",
          "ticks": 96288,
          "time": 176.9999115,
          "velocity": 0.3937007874015748
        },
        {
          "duration": 0.529411500000009,
          "durationTicks": 288,
          "midi": 68,
          "name": "G#4",
          "ticks": 96288,
          "time": 176.9999115,
          "velocity": 0.3937007874015748
        },
        {
          "duration": 0.529411500000009,
          "durationTicks": 288,
          "midi": 32,
          "name": "G#1",
          "ticks": 96576,
          "time": 177.529323,
          "velocity": 0.3937007874015748
        },
        {
          "duration": 0.529411500000009,
          "durationTicks": 288,
          "midi": 44,
          "name": "G#2",
          "ticks": 96576,
          "time": 177.529323,
          "velocity": 0.3937007874015748
        },
        {
          "duration": 0.529411500000009,
          "durationTicks": 288,
          "midi": 56,
          "name": "G#3",
          "ticks": 96576,
          "time": 177.529323,
          "velocity": 0.3937007874015748
        },
        {
          "duration": 0.529411500000009,
          "durationTicks": 288,
          "midi": 60,
          "name": "C4",
          "ticks": 96576,
          "time": 177.529323,
          "velocity": 0.3937007874015748
        },
        {
          "duration": 0.529411500000009,
          "durationTicks": 288,
          "midi": 63,
          "name": "D#4",
          "ticks": 96576,
          "time": 177.529323,
          "velocity": 0.3937007874015748
        },
        {
          "duration": 0.529411500000009,
          "durationTicks": 288,
          "midi": 65,
          "name": "F4",
          "ticks": 96576,
          "time": 177.529323,
          "velocity": 0.3937007874015748
        },
        {
          "duration": 0.529411500000009,
          "durationTicks": 288,
          "midi": 67,
          "name": "G4",
          "ticks": 96576,
          "time": 177.529323,
          "velocity": 0.3937007874015748
        },
        {
          "duration": 0.5294114999999806,
          "durationTicks": 288,
          "midi": 32,
          "name": "G#1",
          "ticks": 96864,
          "time": 178.0587345,
          "velocity": 0.3937007874015748
        },
        {
          "duration": 0.5294114999999806,
          "durationTicks": 288,
          "midi": 44,
          "name": "G#2",
          "ticks": 96864,
          "time": 178.0587345,
          "velocity": 0.3937007874015748
        },
        {
          "duration": 0.5294114999999806,
          "durationTicks": 288,
          "midi": 56,
          "name": "G#3",
          "ticks": 96864,
          "time": 178.0587345,
          "velocity": 0.3937007874015748
        },
        {
          "duration": 0.5294114999999806,
          "durationTicks": 288,
          "midi": 60,
          "name": "C4",
          "ticks": 96864,
          "time": 178.0587345,
          "velocity": 0.3937007874015748
        },
        {
          "duration": 0.5294114999999806,
          "durationTicks": 288,
          "midi": 63,
          "name": "D#4",
          "ticks": 96864,
          "time": 178.0587345,
          "velocity": 0.3937007874015748
        },
        {
          "duration": 0.5294114999999806,
          "durationTicks": 288,
          "midi": 65,
          "name": "F4",
          "ticks": 96864,
          "time": 178.0587345,
          "velocity": 0.3937007874015748
        },
        {
          "duration": 0.5294114999999806,
          "durationTicks": 288,
          "midi": 67,
          "name": "G4",
          "ticks": 96864,
          "time": 178.0587345,
          "velocity": 0.3937007874015748
        },
        {
          "duration": 0.529411500000009,
          "durationTicks": 288,
          "midi": 32,
          "name": "G#1",
          "ticks": 97152,
          "time": 178.588146,
          "velocity": 0.3937007874015748
        },
        {
          "duration": 0.529411500000009,
          "durationTicks": 288,
          "midi": 44,
          "name": "G#2",
          "ticks": 97152,
          "time": 178.588146,
          "velocity": 0.3937007874015748
        },
        {
          "duration": 0.529411500000009,
          "durationTicks": 288,
          "midi": 56,
          "name": "G#3",
          "ticks": 97152,
          "time": 178.588146,
          "velocity": 0.3937007874015748
        },
        {
          "duration": 0.529411500000009,
          "durationTicks": 288,
          "midi": 60,
          "name": "C4",
          "ticks": 97152,
          "time": 178.588146,
          "velocity": 0.3937007874015748
        },
        {
          "duration": 0.529411500000009,
          "durationTicks": 288,
          "midi": 63,
          "name": "D#4",
          "ticks": 97152,
          "time": 178.588146,
          "velocity": 0.3937007874015748
        },
        {
          "duration": 0.529411500000009,
          "durationTicks": 288,
          "midi": 65,
          "name": "F4",
          "ticks": 97152,
          "time": 178.588146,
          "velocity": 0.3937007874015748
        },
        {
          "duration": 0.529411500000009,
          "durationTicks": 288,
          "midi": 67,
          "name": "G4",
          "ticks": 97152,
          "time": 178.588146,
          "velocity": 0.3937007874015748
        },
        {
          "duration": 0.529411500000009,
          "durationTicks": 288,
          "midi": 32,
          "name": "G#1",
          "ticks": 97440,
          "time": 179.1175575,
          "velocity": 0.3937007874015748
        },
        {
          "duration": 0.529411500000009,
          "durationTicks": 288,
          "midi": 44,
          "name": "G#2",
          "ticks": 97440,
          "time": 179.1175575,
          "velocity": 0.3937007874015748
        },
        {
          "duration": 0.529411500000009,
          "durationTicks": 288,
          "midi": 56,
          "name": "G#3",
          "ticks": 97440,
          "time": 179.1175575,
          "velocity": 0.3937007874015748
        },
        {
          "duration": 0.529411500000009,
          "durationTicks": 288,
          "midi": 60,
          "name": "C4",
          "ticks": 97440,
          "time": 179.1175575,
          "velocity": 0.3937007874015748
        },
        {
          "duration": 0.529411500000009,
          "durationTicks": 288,
          "midi": 63,
          "name": "D#4",
          "ticks": 97440,
          "time": 179.1175575,
          "velocity": 0.3937007874015748
        },
        {
          "duration": 0.529411500000009,
          "durationTicks": 288,
          "midi": 65,
          "name": "F4",
          "ticks": 97440,
          "time": 179.1175575,
          "velocity": 0.3937007874015748
        },
        {
          "duration": 0.529411500000009,
          "durationTicks": 288,
          "midi": 67,
          "name": "G4",
          "ticks": 97440,
          "time": 179.1175575,
          "velocity": 0.3937007874015748
        },
        {
          "duration": 0.5294114999999806,
          "durationTicks": 288,
          "midi": 32,
          "name": "G#1",
          "ticks": 97728,
          "time": 179.646969,
          "velocity": 0.3937007874015748
        },
        {
          "duration": 0.5294114999999806,
          "durationTicks": 288,
          "midi": 44,
          "name": "G#2",
          "ticks": 97728,
          "time": 179.646969,
          "velocity": 0.3937007874015748
        },
        {
          "duration": 0.5294114999999806,
          "durationTicks": 288,
          "midi": 56,
          "name": "G#3",
          "ticks": 97728,
          "time": 179.646969,
          "velocity": 0.3937007874015748
        },
        {
          "duration": 0.5294114999999806,
          "durationTicks": 288,
          "midi": 60,
          "name": "C4",
          "ticks": 97728,
          "time": 179.646969,
          "velocity": 0.3937007874015748
        },
        {
          "duration": 0.5294114999999806,
          "durationTicks": 288,
          "midi": 63,
          "name": "D#4",
          "ticks": 97728,
          "time": 179.646969,
          "velocity": 0.3937007874015748
        },
        {
          "duration": 0.5294114999999806,
          "durationTicks": 288,
          "midi": 65,
          "name": "F4",
          "ticks": 97728,
          "time": 179.646969,
          "velocity": 0.3937007874015748
        },
        {
          "duration": 0.5294114999999806,
          "durationTicks": 288,
          "midi": 67,
          "name": "G4",
          "ticks": 97728,
          "time": 179.646969,
          "velocity": 0.3937007874015748
        },
        {
          "duration": 0.529411500000009,
          "durationTicks": 288,
          "midi": 32,
          "name": "G#1",
          "ticks": 98016,
          "time": 180.1763805,
          "velocity": 0.3937007874015748
        },
        {
          "duration": 0.529411500000009,
          "durationTicks": 288,
          "midi": 44,
          "name": "G#2",
          "ticks": 98016,
          "time": 180.1763805,
          "velocity": 0.3937007874015748
        },
        {
          "duration": 0.529411500000009,
          "durationTicks": 288,
          "midi": 56,
          "name": "G#3",
          "ticks": 98016,
          "time": 180.1763805,
          "velocity": 0.3937007874015748
        },
        {
          "duration": 0.529411500000009,
          "durationTicks": 288,
          "midi": 60,
          "name": "C4",
          "ticks": 98016,
          "time": 180.1763805,
          "velocity": 0.3937007874015748
        },
        {
          "duration": 0.529411500000009,
          "durationTicks": 288,
          "midi": 63,
          "name": "D#4",
          "ticks": 98016,
          "time": 180.1763805,
          "velocity": 0.3937007874015748
        },
        {
          "duration": 0.529411500000009,
          "durationTicks": 288,
          "midi": 65,
          "name": "F4",
          "ticks": 98016,
          "time": 180.1763805,
          "velocity": 0.3937007874015748
        },
        {
          "duration": 0.529411500000009,
          "durationTicks": 288,
          "midi": 67,
          "name": "G4",
          "ticks": 98016,
          "time": 180.1763805,
          "velocity": 0.3937007874015748
        },
        {
          "duration": 0.529411500000009,
          "durationTicks": 288,
          "midi": 29,
          "name": "F1",
          "ticks": 98304,
          "time": 180.705792,
          "velocity": 0.3937007874015748
        },
        {
          "duration": 0.529411500000009,
          "durationTicks": 288,
          "midi": 41,
          "name": "F2",
          "ticks": 98304,
          "time": 180.705792,
          "velocity": 0.3937007874015748
        },
        {
          "duration": 0.529411500000009,
          "durationTicks": 288,
          "midi": 53,
          "name": "F3",
          "ticks": 98304,
          "time": 180.705792,
          "velocity": 0.3937007874015748
        },
        {
          "duration": 0.529411500000009,
          "durationTicks": 288,
          "midi": 56,
          "name": "G#3",
          "ticks": 98304,
          "time": 180.705792,
          "velocity": 0.3937007874015748
        },
        {
          "duration": 0.529411500000009,
          "durationTicks": 288,
          "midi": 60,
          "name": "C4",
          "ticks": 98304,
          "time": 180.705792,
          "velocity": 0.3937007874015748
        },
        {
          "duration": 0.529411500000009,
          "durationTicks": 288,
          "midi": 63,
          "name": "D#4",
          "ticks": 98304,
          "time": 180.705792,
          "velocity": 0.3937007874015748
        },
        {
          "duration": 0.529411500000009,
          "durationTicks": 288,
          "midi": 68,
          "name": "G#4",
          "ticks": 98304,
          "time": 180.705792,
          "velocity": 0.3937007874015748
        },
        {
          "duration": 0.5294114999999806,
          "durationTicks": 288,
          "midi": 29,
          "name": "F1",
          "ticks": 98592,
          "time": 181.2352035,
          "velocity": 0.3937007874015748
        },
        {
          "duration": 0.5294114999999806,
          "durationTicks": 288,
          "midi": 41,
          "name": "F2",
          "ticks": 98592,
          "time": 181.2352035,
          "velocity": 0.3937007874015748
        },
        {
          "duration": 0.5294114999999806,
          "durationTicks": 288,
          "midi": 53,
          "name": "F3",
          "ticks": 98592,
          "time": 181.2352035,
          "velocity": 0.3937007874015748
        },
        {
          "duration": 0.5294114999999806,
          "durationTicks": 288,
          "midi": 56,
          "name": "G#3",
          "ticks": 98592,
          "time": 181.2352035,
          "velocity": 0.3937007874015748
        },
        {
          "duration": 0.5294114999999806,
          "durationTicks": 288,
          "midi": 60,
          "name": "C4",
          "ticks": 98592,
          "time": 181.2352035,
          "velocity": 0.3937007874015748
        },
        {
          "duration": 0.5294114999999806,
          "durationTicks": 288,
          "midi": 63,
          "name": "D#4",
          "ticks": 98592,
          "time": 181.2352035,
          "velocity": 0.3937007874015748
        },
        {
          "duration": 0.5294114999999806,
          "durationTicks": 288,
          "midi": 68,
          "name": "G#4",
          "ticks": 98592,
          "time": 181.2352035,
          "velocity": 0.3937007874015748
        },
        {
          "duration": 0.3529410000000155,
          "durationTicks": 192,
          "midi": 29,
          "name": "F1",
          "ticks": 98880,
          "time": 181.764615,
          "velocity": 0.3937007874015748
        },
        {
          "duration": 0.3529410000000155,
          "durationTicks": 192,
          "midi": 41,
          "name": "F2",
          "ticks": 98880,
          "time": 181.764615,
          "velocity": 0.3937007874015748
        },
        {
          "duration": 0.3529410000000155,
          "durationTicks": 192,
          "midi": 53,
          "name": "F3",
          "ticks": 98880,
          "time": 181.764615,
          "velocity": 0.3937007874015748
        },
        {
          "duration": 0.3529410000000155,
          "durationTicks": 192,
          "midi": 56,
          "name": "G#3",
          "ticks": 98880,
          "time": 181.764615,
          "velocity": 0.3937007874015748
        },
        {
          "duration": 0.3529410000000155,
          "durationTicks": 192,
          "midi": 60,
          "name": "C4",
          "ticks": 98880,
          "time": 181.764615,
          "velocity": 0.3937007874015748
        },
        {
          "duration": 0.3529410000000155,
          "durationTicks": 192,
          "midi": 63,
          "name": "D#4",
          "ticks": 98880,
          "time": 181.764615,
          "velocity": 0.3937007874015748
        },
        {
          "duration": 0.3529410000000155,
          "durationTicks": 192,
          "midi": 68,
          "name": "G#4",
          "ticks": 98880,
          "time": 181.764615,
          "velocity": 0.3937007874015748
        },
        {
          "duration": 0.529411500000009,
          "durationTicks": 288,
          "midi": 32,
          "name": "G#1",
          "ticks": 99072,
          "time": 182.117556,
          "velocity": 0.3937007874015748
        },
        {
          "duration": 0.529411500000009,
          "durationTicks": 288,
          "midi": 44,
          "name": "G#2",
          "ticks": 99072,
          "time": 182.117556,
          "velocity": 0.3937007874015748
        },
        {
          "duration": 0.529411500000009,
          "durationTicks": 288,
          "midi": 56,
          "name": "G#3",
          "ticks": 99072,
          "time": 182.117556,
          "velocity": 0.3937007874015748
        },
        {
          "duration": 0.529411500000009,
          "durationTicks": 288,
          "midi": 60,
          "name": "C4",
          "ticks": 99072,
          "time": 182.117556,
          "velocity": 0.3937007874015748
        },
        {
          "duration": 0.529411500000009,
          "durationTicks": 288,
          "midi": 63,
          "name": "D#4",
          "ticks": 99072,
          "time": 182.117556,
          "velocity": 0.3937007874015748
        },
        {
          "duration": 0.529411500000009,
          "durationTicks": 288,
          "midi": 67,
          "name": "G4",
          "ticks": 99072,
          "time": 182.117556,
          "velocity": 0.3937007874015748
        },
        {
          "duration": 0.529411500000009,
          "durationTicks": 288,
          "midi": 70,
          "name": "A#4",
          "ticks": 99072,
          "time": 182.117556,
          "velocity": 0.3937007874015748
        },
        {
          "duration": 0.5294114999999806,
          "durationTicks": 288,
          "midi": 32,
          "name": "G#1",
          "ticks": 99360,
          "time": 182.64696750000002,
          "velocity": 0.3937007874015748
        },
        {
          "duration": 0.5294114999999806,
          "durationTicks": 288,
          "midi": 44,
          "name": "G#2",
          "ticks": 99360,
          "time": 182.64696750000002,
          "velocity": 0.3937007874015748
        },
        {
          "duration": 0.5294114999999806,
          "durationTicks": 288,
          "midi": 56,
          "name": "G#3",
          "ticks": 99360,
          "time": 182.64696750000002,
          "velocity": 0.3937007874015748
        },
        {
          "duration": 0.5294114999999806,
          "durationTicks": 288,
          "midi": 60,
          "name": "C4",
          "ticks": 99360,
          "time": 182.64696750000002,
          "velocity": 0.3937007874015748
        },
        {
          "duration": 0.5294114999999806,
          "durationTicks": 288,
          "midi": 63,
          "name": "D#4",
          "ticks": 99360,
          "time": 182.64696750000002,
          "velocity": 0.3937007874015748
        },
        {
          "duration": 0.5294114999999806,
          "durationTicks": 288,
          "midi": 67,
          "name": "G4",
          "ticks": 99360,
          "time": 182.64696750000002,
          "velocity": 0.3937007874015748
        },
        {
          "duration": 0.5294114999999806,
          "durationTicks": 288,
          "midi": 70,
          "name": "A#4",
          "ticks": 99360,
          "time": 182.64696750000002,
          "velocity": 0.3937007874015748
        },
        {
          "duration": 0.529411500000009,
          "durationTicks": 288,
          "midi": 36,
          "name": "C2",
          "ticks": 99648,
          "time": 183.176379,
          "velocity": 0.3937007874015748
        },
        {
          "duration": 0.529411500000009,
          "durationTicks": 288,
          "midi": 48,
          "name": "C3",
          "ticks": 99648,
          "time": 183.176379,
          "velocity": 0.3937007874015748
        },
        {
          "duration": 0.529411500000009,
          "durationTicks": 288,
          "midi": 60,
          "name": "C4",
          "ticks": 99648,
          "time": 183.176379,
          "velocity": 0.3937007874015748
        },
        {
          "duration": 0.529411500000009,
          "durationTicks": 288,
          "midi": 63,
          "name": "D#4",
          "ticks": 99648,
          "time": 183.176379,
          "velocity": 0.3937007874015748
        },
        {
          "duration": 0.529411500000009,
          "durationTicks": 288,
          "midi": 67,
          "name": "G4",
          "ticks": 99648,
          "time": 183.176379,
          "velocity": 0.3937007874015748
        },
        {
          "duration": 0.529411500000009,
          "durationTicks": 288,
          "midi": 70,
          "name": "A#4",
          "ticks": 99648,
          "time": 183.176379,
          "velocity": 0.3937007874015748
        },
        {
          "duration": 0.529411500000009,
          "durationTicks": 288,
          "midi": 72,
          "name": "C5",
          "ticks": 99648,
          "time": 183.176379,
          "velocity": 0.3937007874015748
        },
        {
          "duration": 0.529411500000009,
          "durationTicks": 288,
          "midi": 36,
          "name": "C2",
          "ticks": 99936,
          "time": 183.7057905,
          "velocity": 0.3937007874015748
        },
        {
          "duration": 0.529411500000009,
          "durationTicks": 288,
          "midi": 48,
          "name": "C3",
          "ticks": 99936,
          "time": 183.7057905,
          "velocity": 0.3937007874015748
        },
        {
          "duration": 0.529411500000009,
          "durationTicks": 288,
          "midi": 60,
          "name": "C4",
          "ticks": 99936,
          "time": 183.7057905,
          "velocity": 0.3937007874015748
        },
        {
          "duration": 0.529411500000009,
          "durationTicks": 288,
          "midi": 63,
          "name": "D#4",
          "ticks": 99936,
          "time": 183.7057905,
          "velocity": 0.3937007874015748
        },
        {
          "duration": 0.529411500000009,
          "durationTicks": 288,
          "midi": 67,
          "name": "G4",
          "ticks": 99936,
          "time": 183.7057905,
          "velocity": 0.3937007874015748
        },
        {
          "duration": 0.529411500000009,
          "durationTicks": 288,
          "midi": 70,
          "name": "A#4",
          "ticks": 99936,
          "time": 183.7057905,
          "velocity": 0.3937007874015748
        },
        {
          "duration": 0.529411500000009,
          "durationTicks": 288,
          "midi": 72,
          "name": "C5",
          "ticks": 99936,
          "time": 183.7057905,
          "velocity": 0.3937007874015748
        },
        {
          "duration": 0.5294114999999806,
          "durationTicks": 288,
          "midi": 36,
          "name": "C2",
          "ticks": 100224,
          "time": 184.23520200000002,
          "velocity": 0.3937007874015748
        },
        {
          "duration": 0.5294114999999806,
          "durationTicks": 288,
          "midi": 48,
          "name": "C3",
          "ticks": 100224,
          "time": 184.23520200000002,
          "velocity": 0.3937007874015748
        },
        {
          "duration": 0.5294114999999806,
          "durationTicks": 288,
          "midi": 60,
          "name": "C4",
          "ticks": 100224,
          "time": 184.23520200000002,
          "velocity": 0.3937007874015748
        },
        {
          "duration": 0.5294114999999806,
          "durationTicks": 288,
          "midi": 63,
          "name": "D#4",
          "ticks": 100224,
          "time": 184.23520200000002,
          "velocity": 0.3937007874015748
        },
        {
          "duration": 0.5294114999999806,
          "durationTicks": 288,
          "midi": 67,
          "name": "G4",
          "ticks": 100224,
          "time": 184.23520200000002,
          "velocity": 0.3937007874015748
        },
        {
          "duration": 0.5294114999999806,
          "durationTicks": 288,
          "midi": 70,
          "name": "A#4",
          "ticks": 100224,
          "time": 184.23520200000002,
          "velocity": 0.3937007874015748
        },
        {
          "duration": 0.5294114999999806,
          "durationTicks": 288,
          "midi": 72,
          "name": "C5",
          "ticks": 100224,
          "time": 184.23520200000002,
          "velocity": 0.3937007874015748
        },
        {
          "duration": 0.529411500000009,
          "durationTicks": 288,
          "midi": 36,
          "name": "C2",
          "ticks": 100512,
          "time": 184.7646135,
          "velocity": 0.3937007874015748
        },
        {
          "duration": 0.529411500000009,
          "durationTicks": 288,
          "midi": 48,
          "name": "C3",
          "ticks": 100512,
          "time": 184.7646135,
          "velocity": 0.3937007874015748
        },
        {
          "duration": 0.529411500000009,
          "durationTicks": 288,
          "midi": 60,
          "name": "C4",
          "ticks": 100512,
          "time": 184.7646135,
          "velocity": 0.3937007874015748
        },
        {
          "duration": 0.529411500000009,
          "durationTicks": 288,
          "midi": 63,
          "name": "D#4",
          "ticks": 100512,
          "time": 184.7646135,
          "velocity": 0.3937007874015748
        },
        {
          "duration": 0.529411500000009,
          "durationTicks": 288,
          "midi": 67,
          "name": "G4",
          "ticks": 100512,
          "time": 184.7646135,
          "velocity": 0.3937007874015748
        },
        {
          "duration": 0.529411500000009,
          "durationTicks": 288,
          "midi": 70,
          "name": "A#4",
          "ticks": 100512,
          "time": 184.7646135,
          "velocity": 0.3937007874015748
        },
        {
          "duration": 0.529411500000009,
          "durationTicks": 288,
          "midi": 72,
          "name": "C5",
          "ticks": 100512,
          "time": 184.7646135,
          "velocity": 0.3937007874015748
        },
        {
          "duration": 0.529411500000009,
          "durationTicks": 288,
          "midi": 36,
          "name": "C2",
          "ticks": 100800,
          "time": 185.294025,
          "velocity": 0.3937007874015748
        },
        {
          "duration": 0.529411500000009,
          "durationTicks": 288,
          "midi": 48,
          "name": "C3",
          "ticks": 100800,
          "time": 185.294025,
          "velocity": 0.3937007874015748
        },
        {
          "duration": 0.529411500000009,
          "durationTicks": 288,
          "midi": 60,
          "name": "C4",
          "ticks": 100800,
          "time": 185.294025,
          "velocity": 0.3937007874015748
        },
        {
          "duration": 0.529411500000009,
          "durationTicks": 288,
          "midi": 63,
          "name": "D#4",
          "ticks": 100800,
          "time": 185.294025,
          "velocity": 0.3937007874015748
        },
        {
          "duration": 0.529411500000009,
          "durationTicks": 288,
          "midi": 67,
          "name": "G4",
          "ticks": 100800,
          "time": 185.294025,
          "velocity": 0.3937007874015748
        },
        {
          "duration": 0.529411500000009,
          "durationTicks": 288,
          "midi": 70,
          "name": "A#4",
          "ticks": 100800,
          "time": 185.294025,
          "velocity": 0.3937007874015748
        },
        {
          "duration": 0.529411500000009,
          "durationTicks": 288,
          "midi": 72,
          "name": "C5",
          "ticks": 100800,
          "time": 185.294025,
          "velocity": 0.3937007874015748
        },
        {
          "duration": 0.5294114999999806,
          "durationTicks": 288,
          "midi": 36,
          "name": "C2",
          "ticks": 101088,
          "time": 185.8234365,
          "velocity": 0.3937007874015748
        },
        {
          "duration": 0.5294114999999806,
          "durationTicks": 288,
          "midi": 48,
          "name": "C3",
          "ticks": 101088,
          "time": 185.8234365,
          "velocity": 0.3937007874015748
        },
        {
          "duration": 0.5294114999999806,
          "durationTicks": 288,
          "midi": 60,
          "name": "C4",
          "ticks": 101088,
          "time": 185.8234365,
          "velocity": 0.3937007874015748
        },
        {
          "duration": 0.5294114999999806,
          "durationTicks": 288,
          "midi": 63,
          "name": "D#4",
          "ticks": 101088,
          "time": 185.8234365,
          "velocity": 0.3937007874015748
        },
        {
          "duration": 0.5294114999999806,
          "durationTicks": 288,
          "midi": 67,
          "name": "G4",
          "ticks": 101088,
          "time": 185.8234365,
          "velocity": 0.3937007874015748
        },
        {
          "duration": 0.5294114999999806,
          "durationTicks": 288,
          "midi": 70,
          "name": "A#4",
          "ticks": 101088,
          "time": 185.8234365,
          "velocity": 0.3937007874015748
        },
        {
          "duration": 0.5294114999999806,
          "durationTicks": 288,
          "midi": 72,
          "name": "C5",
          "ticks": 101088,
          "time": 185.8234365,
          "velocity": 0.3937007874015748
        },
        {
          "duration": 0.529411500000009,
          "durationTicks": 288,
          "midi": 29,
          "name": "F1",
          "ticks": 101376,
          "time": 186.352848,
          "velocity": 0.3937007874015748
        },
        {
          "duration": 0.529411500000009,
          "durationTicks": 288,
          "midi": 41,
          "name": "F2",
          "ticks": 101376,
          "time": 186.352848,
          "velocity": 0.3937007874015748
        },
        {
          "duration": 0.529411500000009,
          "durationTicks": 288,
          "midi": 53,
          "name": "F3",
          "ticks": 101376,
          "time": 186.352848,
          "velocity": 0.3937007874015748
        },
        {
          "duration": 0.529411500000009,
          "durationTicks": 288,
          "midi": 56,
          "name": "G#3",
          "ticks": 101376,
          "time": 186.352848,
          "velocity": 0.3937007874015748
        },
        {
          "duration": 0.529411500000009,
          "durationTicks": 288,
          "midi": 60,
          "name": "C4",
          "ticks": 101376,
          "time": 186.352848,
          "velocity": 0.3937007874015748
        },
        {
          "duration": 0.529411500000009,
          "durationTicks": 288,
          "midi": 63,
          "name": "D#4",
          "ticks": 101376,
          "time": 186.352848,
          "velocity": 0.3937007874015748
        },
        {
          "duration": 0.529411500000009,
          "durationTicks": 288,
          "midi": 75,
          "name": "D#5",
          "ticks": 101376,
          "time": 186.352848,
          "velocity": 0.3937007874015748
        },
        {
          "duration": 0.529411500000009,
          "durationTicks": 288,
          "midi": 29,
          "name": "F1",
          "ticks": 101664,
          "time": 186.8822595,
          "velocity": 0.3937007874015748
        },
        {
          "duration": 0.529411500000009,
          "durationTicks": 288,
          "midi": 41,
          "name": "F2",
          "ticks": 101664,
          "time": 186.8822595,
          "velocity": 0.3937007874015748
        },
        {
          "duration": 0.529411500000009,
          "durationTicks": 288,
          "midi": 53,
          "name": "F3",
          "ticks": 101664,
          "time": 186.8822595,
          "velocity": 0.3937007874015748
        },
        {
          "duration": 0.529411500000009,
          "durationTicks": 288,
          "midi": 56,
          "name": "G#3",
          "ticks": 101664,
          "time": 186.8822595,
          "velocity": 0.3937007874015748
        },
        {
          "duration": 0.529411500000009,
          "durationTicks": 288,
          "midi": 60,
          "name": "C4",
          "ticks": 101664,
          "time": 186.8822595,
          "velocity": 0.3937007874015748
        },
        {
          "duration": 0.529411500000009,
          "durationTicks": 288,
          "midi": 63,
          "name": "D#4",
          "ticks": 101664,
          "time": 186.8822595,
          "velocity": 0.3937007874015748
        },
        {
          "duration": 0.529411500000009,
          "durationTicks": 288,
          "midi": 75,
          "name": "D#5",
          "ticks": 101664,
          "time": 186.8822595,
          "velocity": 0.3937007874015748
        },
        {
          "duration": 0.35294099999998707,
          "durationTicks": 192,
          "midi": 29,
          "name": "F1",
          "ticks": 101952,
          "time": 187.411671,
          "velocity": 0.3937007874015748
        },
        {
          "duration": 0.35294099999998707,
          "durationTicks": 192,
          "midi": 41,
          "name": "F2",
          "ticks": 101952,
          "time": 187.411671,
          "velocity": 0.3937007874015748
        },
        {
          "duration": 0.35294099999998707,
          "durationTicks": 192,
          "midi": 53,
          "name": "F3",
          "ticks": 101952,
          "time": 187.411671,
          "velocity": 0.3937007874015748
        },
        {
          "duration": 0.35294099999998707,
          "durationTicks": 192,
          "midi": 56,
          "name": "G#3",
          "ticks": 101952,
          "time": 187.411671,
          "velocity": 0.3937007874015748
        },
        {
          "duration": 0.35294099999998707,
          "durationTicks": 192,
          "midi": 60,
          "name": "C4",
          "ticks": 101952,
          "time": 187.411671,
          "velocity": 0.3937007874015748
        },
        {
          "duration": 0.35294099999998707,
          "durationTicks": 192,
          "midi": 63,
          "name": "D#4",
          "ticks": 101952,
          "time": 187.411671,
          "velocity": 0.3937007874015748
        },
        {
          "duration": 0.35294099999998707,
          "durationTicks": 192,
          "midi": 75,
          "name": "D#5",
          "ticks": 101952,
          "time": 187.411671,
          "velocity": 0.3937007874015748
        },
        {
          "duration": 0.529411500000009,
          "durationTicks": 288,
          "midi": 34,
          "name": "A#1",
          "ticks": 102144,
          "time": 187.764612,
          "velocity": 0.3937007874015748
        },
        {
          "duration": 0.529411500000009,
          "durationTicks": 288,
          "midi": 46,
          "name": "A#2",
          "ticks": 102144,
          "time": 187.764612,
          "velocity": 0.3937007874015748
        },
        {
          "duration": 0.529411500000009,
          "durationTicks": 288,
          "midi": 58,
          "name": "A#3",
          "ticks": 102144,
          "time": 187.764612,
          "velocity": 0.3937007874015748
        },
        {
          "duration": 0.529411500000009,
          "durationTicks": 288,
          "midi": 61,
          "name": "C#4",
          "ticks": 102144,
          "time": 187.764612,
          "velocity": 0.3937007874015748
        },
        {
          "duration": 0.529411500000009,
          "durationTicks": 288,
          "midi": 65,
          "name": "F4",
          "ticks": 102144,
          "time": 187.764612,
          "velocity": 0.3937007874015748
        },
        {
          "duration": 0.529411500000009,
          "durationTicks": 288,
          "midi": 68,
          "name": "G#4",
          "ticks": 102144,
          "time": 187.764612,
          "velocity": 0.3937007874015748
        },
        {
          "duration": 0.529411500000009,
          "durationTicks": 288,
          "midi": 70,
          "name": "A#4",
          "ticks": 102144,
          "time": 187.764612,
          "velocity": 0.3937007874015748
        },
        {
          "duration": 0.5294114999999806,
          "durationTicks": 288,
          "midi": 34,
          "name": "A#1",
          "ticks": 102432,
          "time": 188.2940235,
          "velocity": 0.3937007874015748
        },
        {
          "duration": 0.5294114999999806,
          "durationTicks": 288,
          "midi": 46,
          "name": "A#2",
          "ticks": 102432,
          "time": 188.2940235,
          "velocity": 0.3937007874015748
        },
        {
          "duration": 0.5294114999999806,
          "durationTicks": 288,
          "midi": 58,
          "name": "A#3",
          "ticks": 102432,
          "time": 188.2940235,
          "velocity": 0.3937007874015748
        },
        {
          "duration": 0.5294114999999806,
          "durationTicks": 288,
          "midi": 61,
          "name": "C#4",
          "ticks": 102432,
          "time": 188.2940235,
          "velocity": 0.3937007874015748
        },
        {
          "duration": 0.5294114999999806,
          "durationTicks": 288,
          "midi": 65,
          "name": "F4",
          "ticks": 102432,
          "time": 188.2940235,
          "velocity": 0.3937007874015748
        },
        {
          "duration": 0.5294114999999806,
          "durationTicks": 288,
          "midi": 68,
          "name": "G#4",
          "ticks": 102432,
          "time": 188.2940235,
          "velocity": 0.3937007874015748
        },
        {
          "duration": 0.5294114999999806,
          "durationTicks": 288,
          "midi": 70,
          "name": "A#4",
          "ticks": 102432,
          "time": 188.2940235,
          "velocity": 0.3937007874015748
        },
        {
          "duration": 0.529411500000009,
          "durationTicks": 288,
          "midi": 32,
          "name": "G#1",
          "ticks": 102720,
          "time": 188.823435,
          "velocity": 0.3937007874015748
        },
        {
          "duration": 0.529411500000009,
          "durationTicks": 288,
          "midi": 44,
          "name": "G#2",
          "ticks": 102720,
          "time": 188.823435,
          "velocity": 0.3937007874015748
        },
        {
          "duration": 0.529411500000009,
          "durationTicks": 288,
          "midi": 56,
          "name": "G#3",
          "ticks": 102720,
          "time": 188.823435,
          "velocity": 0.3937007874015748
        },
        {
          "duration": 0.529411500000009,
          "durationTicks": 288,
          "midi": 60,
          "name": "C4",
          "ticks": 102720,
          "time": 188.823435,
          "velocity": 0.3937007874015748
        },
        {
          "duration": 0.529411500000009,
          "durationTicks": 288,
          "midi": 63,
          "name": "D#4",
          "ticks": 102720,
          "time": 188.823435,
          "velocity": 0.3937007874015748
        },
        {
          "duration": 0.529411500000009,
          "durationTicks": 288,
          "midi": 67,
          "name": "G4",
          "ticks": 102720,
          "time": 188.823435,
          "velocity": 0.3937007874015748
        },
        {
          "duration": 0.529411500000009,
          "durationTicks": 288,
          "midi": 68,
          "name": "G#4",
          "ticks": 102720,
          "time": 188.823435,
          "velocity": 0.3937007874015748
        },
        {
          "duration": 0.529411500000009,
          "durationTicks": 288,
          "midi": 32,
          "name": "G#1",
          "ticks": 103008,
          "time": 189.3528465,
          "velocity": 0.3937007874015748
        },
        {
          "duration": 0.529411500000009,
          "durationTicks": 288,
          "midi": 44,
          "name": "G#2",
          "ticks": 103008,
          "time": 189.3528465,
          "velocity": 0.3937007874015748
        },
        {
          "duration": 0.529411500000009,
          "durationTicks": 288,
          "midi": 56,
          "name": "G#3",
          "ticks": 103008,
          "time": 189.3528465,
          "velocity": 0.3937007874015748
        },
        {
          "duration": 0.529411500000009,
          "durationTicks": 288,
          "midi": 60,
          "name": "C4",
          "ticks": 103008,
          "time": 189.3528465,
          "velocity": 0.3937007874015748
        },
        {
          "duration": 0.529411500000009,
          "durationTicks": 288,
          "midi": 63,
          "name": "D#4",
          "ticks": 103008,
          "time": 189.3528465,
          "velocity": 0.3937007874015748
        },
        {
          "duration": 0.529411500000009,
          "durationTicks": 288,
          "midi": 67,
          "name": "G4",
          "ticks": 103008,
          "time": 189.3528465,
          "velocity": 0.3937007874015748
        },
        {
          "duration": 0.529411500000009,
          "durationTicks": 288,
          "midi": 68,
          "name": "G#4",
          "ticks": 103008,
          "time": 189.3528465,
          "velocity": 0.3937007874015748
        },
        {
          "duration": 0.529411500000009,
          "durationTicks": 288,
          "midi": 32,
          "name": "G#1",
          "ticks": 103296,
          "time": 189.882258,
          "velocity": 0.3937007874015748
        },
        {
          "duration": 0.529411500000009,
          "durationTicks": 288,
          "midi": 44,
          "name": "G#2",
          "ticks": 103296,
          "time": 189.882258,
          "velocity": 0.3937007874015748
        },
        {
          "duration": 0.529411500000009,
          "durationTicks": 288,
          "midi": 56,
          "name": "G#3",
          "ticks": 103296,
          "time": 189.882258,
          "velocity": 0.3937007874015748
        },
        {
          "duration": 0.529411500000009,
          "durationTicks": 288,
          "midi": 60,
          "name": "C4",
          "ticks": 103296,
          "time": 189.882258,
          "velocity": 0.3937007874015748
        },
        {
          "duration": 0.529411500000009,
          "durationTicks": 288,
          "midi": 63,
          "name": "D#4",
          "ticks": 103296,
          "time": 189.882258,
          "velocity": 0.3937007874015748
        },
        {
          "duration": 0.529411500000009,
          "durationTicks": 288,
          "midi": 67,
          "name": "G4",
          "ticks": 103296,
          "time": 189.882258,
          "velocity": 0.3937007874015748
        },
        {
          "duration": 0.529411500000009,
          "durationTicks": 288,
          "midi": 68,
          "name": "G#4",
          "ticks": 103296,
          "time": 189.882258,
          "velocity": 0.3937007874015748
        },
        {
          "duration": 0.5294114999999806,
          "durationTicks": 288,
          "midi": 32,
          "name": "G#1",
          "ticks": 103584,
          "time": 190.41166950000002,
          "velocity": 0.3937007874015748
        },
        {
          "duration": 0.5294114999999806,
          "durationTicks": 288,
          "midi": 44,
          "name": "G#2",
          "ticks": 103584,
          "time": 190.41166950000002,
          "velocity": 0.3937007874015748
        },
        {
          "duration": 0.5294114999999806,
          "durationTicks": 288,
          "midi": 56,
          "name": "G#3",
          "ticks": 103584,
          "time": 190.41166950000002,
          "velocity": 0.3937007874015748
        },
        {
          "duration": 0.5294114999999806,
          "durationTicks": 288,
          "midi": 60,
          "name": "C4",
          "ticks": 103584,
          "time": 190.41166950000002,
          "velocity": 0.3937007874015748
        },
        {
          "duration": 0.5294114999999806,
          "durationTicks": 288,
          "midi": 63,
          "name": "D#4",
          "ticks": 103584,
          "time": 190.41166950000002,
          "velocity": 0.3937007874015748
        },
        {
          "duration": 0.5294114999999806,
          "durationTicks": 288,
          "midi": 67,
          "name": "G4",
          "ticks": 103584,
          "time": 190.41166950000002,
          "velocity": 0.3937007874015748
        },
        {
          "duration": 0.5294114999999806,
          "durationTicks": 288,
          "midi": 68,
          "name": "G#4",
          "ticks": 103584,
          "time": 190.41166950000002,
          "velocity": 0.3937007874015748
        },
        {
          "duration": 0.529411500000009,
          "durationTicks": 288,
          "midi": 32,
          "name": "G#1",
          "ticks": 103872,
          "time": 190.941081,
          "velocity": 0.3937007874015748
        },
        {
          "duration": 0.529411500000009,
          "durationTicks": 288,
          "midi": 44,
          "name": "G#2",
          "ticks": 103872,
          "time": 190.941081,
          "velocity": 0.3937007874015748
        },
        {
          "duration": 0.529411500000009,
          "durationTicks": 288,
          "midi": 56,
          "name": "G#3",
          "ticks": 103872,
          "time": 190.941081,
          "velocity": 0.3937007874015748
        },
        {
          "duration": 0.529411500000009,
          "durationTicks": 288,
          "midi": 60,
          "name": "C4",
          "ticks": 103872,
          "time": 190.941081,
          "velocity": 0.3937007874015748
        },
        {
          "duration": 0.529411500000009,
          "durationTicks": 288,
          "midi": 63,
          "name": "D#4",
          "ticks": 103872,
          "time": 190.941081,
          "velocity": 0.3937007874015748
        },
        {
          "duration": 0.529411500000009,
          "durationTicks": 288,
          "midi": 67,
          "name": "G4",
          "ticks": 103872,
          "time": 190.941081,
          "velocity": 0.3937007874015748
        },
        {
          "duration": 0.529411500000009,
          "durationTicks": 288,
          "midi": 68,
          "name": "G#4",
          "ticks": 103872,
          "time": 190.941081,
          "velocity": 0.3937007874015748
        },
        {
          "duration": 0.529411500000009,
          "durationTicks": 288,
          "midi": 32,
          "name": "G#1",
          "ticks": 104160,
          "time": 191.4704925,
          "velocity": 0.3937007874015748
        },
        {
          "duration": 0.529411500000009,
          "durationTicks": 288,
          "midi": 44,
          "name": "G#2",
          "ticks": 104160,
          "time": 191.4704925,
          "velocity": 0.3937007874015748
        },
        {
          "duration": 0.529411500000009,
          "durationTicks": 288,
          "midi": 56,
          "name": "G#3",
          "ticks": 104160,
          "time": 191.4704925,
          "velocity": 0.3937007874015748
        },
        {
          "duration": 0.529411500000009,
          "durationTicks": 288,
          "midi": 60,
          "name": "C4",
          "ticks": 104160,
          "time": 191.4704925,
          "velocity": 0.3937007874015748
        },
        {
          "duration": 0.529411500000009,
          "durationTicks": 288,
          "midi": 63,
          "name": "D#4",
          "ticks": 104160,
          "time": 191.4704925,
          "velocity": 0.3937007874015748
        },
        {
          "duration": 0.529411500000009,
          "durationTicks": 288,
          "midi": 67,
          "name": "G4",
          "ticks": 104160,
          "time": 191.4704925,
          "velocity": 0.3937007874015748
        },
        {
          "duration": 0.529411500000009,
          "durationTicks": 288,
          "midi": 68,
          "name": "G#4",
          "ticks": 104160,
          "time": 191.4704925,
          "velocity": 0.3937007874015748
        },
        {
          "duration": 0.5294114999999806,
          "durationTicks": 288,
          "midi": 29,
          "name": "F1",
          "ticks": 104448,
          "time": 191.99990400000002,
          "velocity": 0.3937007874015748
        },
        {
          "duration": 0.5294114999999806,
          "durationTicks": 288,
          "midi": 41,
          "name": "F2",
          "ticks": 104448,
          "time": 191.99990400000002,
          "velocity": 0.3937007874015748
        },
        {
          "duration": 0.5294114999999806,
          "durationTicks": 288,
          "midi": 53,
          "name": "F3",
          "ticks": 104448,
          "time": 191.99990400000002,
          "velocity": 0.3937007874015748
        },
        {
          "duration": 0.5294114999999806,
          "durationTicks": 288,
          "midi": 56,
          "name": "G#3",
          "ticks": 104448,
          "time": 191.99990400000002,
          "velocity": 0.3937007874015748
        },
        {
          "duration": 0.5294114999999806,
          "durationTicks": 288,
          "midi": 60,
          "name": "C4",
          "ticks": 104448,
          "time": 191.99990400000002,
          "velocity": 0.3937007874015748
        },
        {
          "duration": 0.5294114999999806,
          "durationTicks": 288,
          "midi": 63,
          "name": "D#4",
          "ticks": 104448,
          "time": 191.99990400000002,
          "velocity": 0.3937007874015748
        },
        {
          "duration": 0.5294114999999806,
          "durationTicks": 288,
          "midi": 72,
          "name": "C5",
          "ticks": 104448,
          "time": 191.99990400000002,
          "velocity": 0.3937007874015748
        },
        {
          "duration": 0.529411500000009,
          "durationTicks": 288,
          "midi": 29,
          "name": "F1",
          "ticks": 104736,
          "time": 192.5293155,
          "velocity": 0.3937007874015748
        },
        {
          "duration": 0.529411500000009,
          "durationTicks": 288,
          "midi": 41,
          "name": "F2",
          "ticks": 104736,
          "time": 192.5293155,
          "velocity": 0.3937007874015748
        },
        {
          "duration": 0.529411500000009,
          "durationTicks": 288,
          "midi": 53,
          "name": "F3",
          "ticks": 104736,
          "time": 192.5293155,
          "velocity": 0.3937007874015748
        },
        {
          "duration": 0.529411500000009,
          "durationTicks": 288,
          "midi": 56,
          "name": "G#3",
          "ticks": 104736,
          "time": 192.5293155,
          "velocity": 0.3937007874015748
        },
        {
          "duration": 0.529411500000009,
          "durationTicks": 288,
          "midi": 60,
          "name": "C4",
          "ticks": 104736,
          "time": 192.5293155,
          "velocity": 0.3937007874015748
        },
        {
          "duration": 0.529411500000009,
          "durationTicks": 288,
          "midi": 63,
          "name": "D#4",
          "ticks": 104736,
          "time": 192.5293155,
          "velocity": 0.3937007874015748
        },
        {
          "duration": 0.529411500000009,
          "durationTicks": 288,
          "midi": 72,
          "name": "C5",
          "ticks": 104736,
          "time": 192.5293155,
          "velocity": 0.3937007874015748
        },
        {
          "duration": 0.35294099999998707,
          "durationTicks": 192,
          "midi": 29,
          "name": "F1",
          "ticks": 105024,
          "time": 193.058727,
          "velocity": 0.3937007874015748
        },
        {
          "duration": 0.35294099999998707,
          "durationTicks": 192,
          "midi": 41,
          "name": "F2",
          "ticks": 105024,
          "time": 193.058727,
          "velocity": 0.3937007874015748
        },
        {
          "duration": 0.35294099999998707,
          "durationTicks": 192,
          "midi": 53,
          "name": "F3",
          "ticks": 105024,
          "time": 193.058727,
          "velocity": 0.3937007874015748
        },
        {
          "duration": 0.35294099999998707,
          "durationTicks": 192,
          "midi": 56,
          "name": "G#3",
          "ticks": 105024,
          "time": 193.058727,
          "velocity": 0.3937007874015748
        },
        {
          "duration": 0.35294099999998707,
          "durationTicks": 192,
          "midi": 60,
          "name": "C4",
          "ticks": 105024,
          "time": 193.058727,
          "velocity": 0.3937007874015748
        },
        {
          "duration": 0.35294099999998707,
          "durationTicks": 192,
          "midi": 63,
          "name": "D#4",
          "ticks": 105024,
          "time": 193.058727,
          "velocity": 0.3937007874015748
        },
        {
          "duration": 0.35294099999998707,
          "durationTicks": 192,
          "midi": 72,
          "name": "C5",
          "ticks": 105024,
          "time": 193.058727,
          "velocity": 0.3937007874015748
        },
        {
          "duration": 0.529411500000009,
          "durationTicks": 288,
          "midi": 32,
          "name": "G#1",
          "ticks": 105216,
          "time": 193.411668,
          "velocity": 0.3937007874015748
        },
        {
          "duration": 0.529411500000009,
          "durationTicks": 288,
          "midi": 44,
          "name": "G#2",
          "ticks": 105216,
          "time": 193.411668,
          "velocity": 0.3937007874015748
        },
        {
          "duration": 0.529411500000009,
          "durationTicks": 288,
          "midi": 56,
          "name": "G#3",
          "ticks": 105216,
          "time": 193.411668,
          "velocity": 0.3937007874015748
        },
        {
          "duration": 0.529411500000009,
          "durationTicks": 288,
          "midi": 60,
          "name": "C4",
          "ticks": 105216,
          "time": 193.411668,
          "velocity": 0.3937007874015748
        },
        {
          "duration": 0.529411500000009,
          "durationTicks": 288,
          "midi": 63,
          "name": "D#4",
          "ticks": 105216,
          "time": 193.411668,
          "velocity": 0.3937007874015748
        },
        {
          "duration": 0.529411500000009,
          "durationTicks": 288,
          "midi": 67,
          "name": "G4",
          "ticks": 105216,
          "time": 193.411668,
          "velocity": 0.3937007874015748
        },
        {
          "duration": 0.529411500000009,
          "durationTicks": 288,
          "midi": 68,
          "name": "G#4",
          "ticks": 105216,
          "time": 193.411668,
          "velocity": 0.3937007874015748
        },
        {
          "duration": 0.529411500000009,
          "durationTicks": 288,
          "midi": 32,
          "name": "G#1",
          "ticks": 105504,
          "time": 193.9410795,
          "velocity": 0.3937007874015748
        },
        {
          "duration": 0.529411500000009,
          "durationTicks": 288,
          "midi": 44,
          "name": "G#2",
          "ticks": 105504,
          "time": 193.9410795,
          "velocity": 0.3937007874015748
        },
        {
          "duration": 0.529411500000009,
          "durationTicks": 288,
          "midi": 56,
          "name": "G#3",
          "ticks": 105504,
          "time": 193.9410795,
          "velocity": 0.3937007874015748
        },
        {
          "duration": 0.529411500000009,
          "durationTicks": 288,
          "midi": 60,
          "name": "C4",
          "ticks": 105504,
          "time": 193.9410795,
          "velocity": 0.3937007874015748
        },
        {
          "duration": 0.529411500000009,
          "durationTicks": 288,
          "midi": 63,
          "name": "D#4",
          "ticks": 105504,
          "time": 193.9410795,
          "velocity": 0.3937007874015748
        },
        {
          "duration": 0.529411500000009,
          "durationTicks": 288,
          "midi": 67,
          "name": "G4",
          "ticks": 105504,
          "time": 193.9410795,
          "velocity": 0.3937007874015748
        },
        {
          "duration": 0.529411500000009,
          "durationTicks": 288,
          "midi": 68,
          "name": "G#4",
          "ticks": 105504,
          "time": 193.9410795,
          "velocity": 0.3937007874015748
        },
        {
          "duration": 0.5294114999999806,
          "durationTicks": 288,
          "midi": 36,
          "name": "C2",
          "ticks": 105792,
          "time": 194.470491,
          "velocity": 0.3937007874015748
        },
        {
          "duration": 0.5294114999999806,
          "durationTicks": 288,
          "midi": 48,
          "name": "C3",
          "ticks": 105792,
          "time": 194.470491,
          "velocity": 0.3937007874015748
        },
        {
          "duration": 0.5294114999999806,
          "durationTicks": 288,
          "midi": 60,
          "name": "C4",
          "ticks": 105792,
          "time": 194.470491,
          "velocity": 0.3937007874015748
        },
        {
          "duration": 0.5294114999999806,
          "durationTicks": 288,
          "midi": 63,
          "name": "D#4",
          "ticks": 105792,
          "time": 194.470491,
          "velocity": 0.3937007874015748
        },
        {
          "duration": 0.5294114999999806,
          "durationTicks": 288,
          "midi": 65,
          "name": "F4",
          "ticks": 105792,
          "time": 194.470491,
          "velocity": 0.3937007874015748
        },
        {
          "duration": 0.5294114999999806,
          "durationTicks": 288,
          "midi": 67,
          "name": "G4",
          "ticks": 105792,
          "time": 194.470491,
          "velocity": 0.3937007874015748
        },
        {
          "duration": 0.5294114999999806,
          "durationTicks": 288,
          "midi": 70,
          "name": "A#4",
          "ticks": 105792,
          "time": 194.470491,
          "velocity": 0.3937007874015748
        },
        {
          "duration": 0.529411500000009,
          "durationTicks": 288,
          "midi": 36,
          "name": "C2",
          "ticks": 106080,
          "time": 194.9999025,
          "velocity": 0.3937007874015748
        },
        {
          "duration": 0.529411500000009,
          "durationTicks": 288,
          "midi": 48,
          "name": "C3",
          "ticks": 106080,
          "time": 194.9999025,
          "velocity": 0.3937007874015748
        },
        {
          "duration": 0.529411500000009,
          "durationTicks": 288,
          "midi": 60,
          "name": "C4",
          "ticks": 106080,
          "time": 194.9999025,
          "velocity": 0.3937007874015748
        },
        {
          "duration": 0.529411500000009,
          "durationTicks": 288,
          "midi": 63,
          "name": "D#4",
          "ticks": 106080,
          "time": 194.9999025,
          "velocity": 0.3937007874015748
        },
        {
          "duration": 0.529411500000009,
          "durationTicks": 288,
          "midi": 65,
          "name": "F4",
          "ticks": 106080,
          "time": 194.9999025,
          "velocity": 0.3937007874015748
        },
        {
          "duration": 0.529411500000009,
          "durationTicks": 288,
          "midi": 67,
          "name": "G4",
          "ticks": 106080,
          "time": 194.9999025,
          "velocity": 0.3937007874015748
        },
        {
          "duration": 0.529411500000009,
          "durationTicks": 288,
          "midi": 70,
          "name": "A#4",
          "ticks": 106080,
          "time": 194.9999025,
          "velocity": 0.3937007874015748
        },
        {
          "duration": 0.529411500000009,
          "durationTicks": 288,
          "midi": 36,
          "name": "C2",
          "ticks": 106368,
          "time": 195.529314,
          "velocity": 0.3937007874015748
        },
        {
          "duration": 0.529411500000009,
          "durationTicks": 288,
          "midi": 48,
          "name": "C3",
          "ticks": 106368,
          "time": 195.529314,
          "velocity": 0.3937007874015748
        },
        {
          "duration": 0.529411500000009,
          "durationTicks": 288,
          "midi": 60,
          "name": "C4",
          "ticks": 106368,
          "time": 195.529314,
          "velocity": 0.3937007874015748
        },
        {
          "duration": 0.529411500000009,
          "durationTicks": 288,
          "midi": 63,
          "name": "D#4",
          "ticks": 106368,
          "time": 195.529314,
          "velocity": 0.3937007874015748
        },
        {
          "duration": 0.529411500000009,
          "durationTicks": 288,
          "midi": 65,
          "name": "F4",
          "ticks": 106368,
          "time": 195.529314,
          "velocity": 0.3937007874015748
        },
        {
          "duration": 0.529411500000009,
          "durationTicks": 288,
          "midi": 67,
          "name": "G4",
          "ticks": 106368,
          "time": 195.529314,
          "velocity": 0.3937007874015748
        },
        {
          "duration": 0.529411500000009,
          "durationTicks": 288,
          "midi": 70,
          "name": "A#4",
          "ticks": 106368,
          "time": 195.529314,
          "velocity": 0.3937007874015748
        },
        {
          "duration": 0.5294114999999806,
          "durationTicks": 288,
          "midi": 36,
          "name": "C2",
          "ticks": 106656,
          "time": 196.0587255,
          "velocity": 0.3937007874015748
        },
        {
          "duration": 0.5294114999999806,
          "durationTicks": 288,
          "midi": 48,
          "name": "C3",
          "ticks": 106656,
          "time": 196.0587255,
          "velocity": 0.3937007874015748
        },
        {
          "duration": 0.5294114999999806,
          "durationTicks": 288,
          "midi": 60,
          "name": "C4",
          "ticks": 106656,
          "time": 196.0587255,
          "velocity": 0.3937007874015748
        },
        {
          "duration": 0.5294114999999806,
          "durationTicks": 288,
          "midi": 63,
          "name": "D#4",
          "ticks": 106656,
          "time": 196.0587255,
          "velocity": 0.3937007874015748
        },
        {
          "duration": 0.5294114999999806,
          "durationTicks": 288,
          "midi": 65,
          "name": "F4",
          "ticks": 106656,
          "time": 196.0587255,
          "velocity": 0.3937007874015748
        },
        {
          "duration": 0.5294114999999806,
          "durationTicks": 288,
          "midi": 67,
          "name": "G4",
          "ticks": 106656,
          "time": 196.0587255,
          "velocity": 0.3937007874015748
        },
        {
          "duration": 0.5294114999999806,
          "durationTicks": 288,
          "midi": 70,
          "name": "A#4",
          "ticks": 106656,
          "time": 196.0587255,
          "velocity": 0.3937007874015748
        },
        {
          "duration": 0.529411500000009,
          "durationTicks": 288,
          "midi": 36,
          "name": "C2",
          "ticks": 106944,
          "time": 196.588137,
          "velocity": 0.3937007874015748
        },
        {
          "duration": 0.529411500000009,
          "durationTicks": 288,
          "midi": 48,
          "name": "C3",
          "ticks": 106944,
          "time": 196.588137,
          "velocity": 0.3937007874015748
        },
        {
          "duration": 0.529411500000009,
          "durationTicks": 288,
          "midi": 60,
          "name": "C4",
          "ticks": 106944,
          "time": 196.588137,
          "velocity": 0.3937007874015748
        },
        {
          "duration": 0.529411500000009,
          "durationTicks": 288,
          "midi": 63,
          "name": "D#4",
          "ticks": 106944,
          "time": 196.588137,
          "velocity": 0.3937007874015748
        },
        {
          "duration": 0.529411500000009,
          "durationTicks": 288,
          "midi": 65,
          "name": "F4",
          "ticks": 106944,
          "time": 196.588137,
          "velocity": 0.3937007874015748
        },
        {
          "duration": 0.529411500000009,
          "durationTicks": 288,
          "midi": 67,
          "name": "G4",
          "ticks": 106944,
          "time": 196.588137,
          "velocity": 0.3937007874015748
        },
        {
          "duration": 0.529411500000009,
          "durationTicks": 288,
          "midi": 70,
          "name": "A#4",
          "ticks": 106944,
          "time": 196.588137,
          "velocity": 0.3937007874015748
        },
        {
          "duration": 0.529411500000009,
          "durationTicks": 288,
          "midi": 36,
          "name": "C2",
          "ticks": 107232,
          "time": 197.1175485,
          "velocity": 0.3937007874015748
        },
        {
          "duration": 0.529411500000009,
          "durationTicks": 288,
          "midi": 48,
          "name": "C3",
          "ticks": 107232,
          "time": 197.1175485,
          "velocity": 0.3937007874015748
        },
        {
          "duration": 0.529411500000009,
          "durationTicks": 288,
          "midi": 60,
          "name": "C4",
          "ticks": 107232,
          "time": 197.1175485,
          "velocity": 0.3937007874015748
        },
        {
          "duration": 0.529411500000009,
          "durationTicks": 288,
          "midi": 63,
          "name": "D#4",
          "ticks": 107232,
          "time": 197.1175485,
          "velocity": 0.3937007874015748
        },
        {
          "duration": 0.529411500000009,
          "durationTicks": 288,
          "midi": 65,
          "name": "F4",
          "ticks": 107232,
          "time": 197.1175485,
          "velocity": 0.3937007874015748
        },
        {
          "duration": 0.529411500000009,
          "durationTicks": 288,
          "midi": 67,
          "name": "G4",
          "ticks": 107232,
          "time": 197.1175485,
          "velocity": 0.3937007874015748
        },
        {
          "duration": 0.529411500000009,
          "durationTicks": 288,
          "midi": 70,
          "name": "A#4",
          "ticks": 107232,
          "time": 197.1175485,
          "velocity": 0.3937007874015748
        },
        {
          "duration": 0.529411500000009,
          "durationTicks": 288,
          "midi": 29,
          "name": "F1",
          "ticks": 107520,
          "time": 197.64696,
          "velocity": 0.3937007874015748
        },
        {
          "duration": 0.529411500000009,
          "durationTicks": 288,
          "midi": 41,
          "name": "F2",
          "ticks": 107520,
          "time": 197.64696,
          "velocity": 0.3937007874015748
        },
        {
          "duration": 0.529411500000009,
          "durationTicks": 288,
          "midi": 53,
          "name": "F3",
          "ticks": 107520,
          "time": 197.64696,
          "velocity": 0.3937007874015748
        },
        {
          "duration": 0.529411500000009,
          "durationTicks": 288,
          "midi": 56,
          "name": "G#3",
          "ticks": 107520,
          "time": 197.64696,
          "velocity": 0.3937007874015748
        },
        {
          "duration": 0.529411500000009,
          "durationTicks": 288,
          "midi": 60,
          "name": "C4",
          "ticks": 107520,
          "time": 197.64696,
          "velocity": 0.3937007874015748
        },
        {
          "duration": 0.529411500000009,
          "durationTicks": 288,
          "midi": 63,
          "name": "D#4",
          "ticks": 107520,
          "time": 197.64696,
          "velocity": 0.3937007874015748
        },
        {
          "duration": 0.529411500000009,
          "durationTicks": 288,
          "midi": 68,
          "name": "G#4",
          "ticks": 107520,
          "time": 197.64696,
          "velocity": 0.3937007874015748
        },
        {
          "duration": 0.5294114999999806,
          "durationTicks": 288,
          "midi": 29,
          "name": "F1",
          "ticks": 107808,
          "time": 198.17637150000002,
          "velocity": 0.3937007874015748
        },
        {
          "duration": 0.5294114999999806,
          "durationTicks": 288,
          "midi": 41,
          "name": "F2",
          "ticks": 107808,
          "time": 198.17637150000002,
          "velocity": 0.3937007874015748
        },
        {
          "duration": 0.5294114999999806,
          "durationTicks": 288,
          "midi": 53,
          "name": "F3",
          "ticks": 107808,
          "time": 198.17637150000002,
          "velocity": 0.3937007874015748
        },
        {
          "duration": 0.5294114999999806,
          "durationTicks": 288,
          "midi": 56,
          "name": "G#3",
          "ticks": 107808,
          "time": 198.17637150000002,
          "velocity": 0.3937007874015748
        },
        {
          "duration": 0.5294114999999806,
          "durationTicks": 288,
          "midi": 60,
          "name": "C4",
          "ticks": 107808,
          "time": 198.17637150000002,
          "velocity": 0.3937007874015748
        },
        {
          "duration": 0.5294114999999806,
          "durationTicks": 288,
          "midi": 63,
          "name": "D#4",
          "ticks": 107808,
          "time": 198.17637150000002,
          "velocity": 0.3937007874015748
        },
        {
          "duration": 0.5294114999999806,
          "durationTicks": 288,
          "midi": 68,
          "name": "G#4",
          "ticks": 107808,
          "time": 198.17637150000002,
          "velocity": 0.3937007874015748
        },
        {
          "duration": 0.3529410000000155,
          "durationTicks": 192,
          "midi": 29,
          "name": "F1",
          "ticks": 108096,
          "time": 198.705783,
          "velocity": 0.3937007874015748
        },
        {
          "duration": 0.3529410000000155,
          "durationTicks": 192,
          "midi": 41,
          "name": "F2",
          "ticks": 108096,
          "time": 198.705783,
          "velocity": 0.3937007874015748
        },
        {
          "duration": 0.3529410000000155,
          "durationTicks": 192,
          "midi": 53,
          "name": "F3",
          "ticks": 108096,
          "time": 198.705783,
          "velocity": 0.3937007874015748
        },
        {
          "duration": 0.3529410000000155,
          "durationTicks": 192,
          "midi": 56,
          "name": "G#3",
          "ticks": 108096,
          "time": 198.705783,
          "velocity": 0.3937007874015748
        },
        {
          "duration": 0.3529410000000155,
          "durationTicks": 192,
          "midi": 60,
          "name": "C4",
          "ticks": 108096,
          "time": 198.705783,
          "velocity": 0.3937007874015748
        },
        {
          "duration": 0.3529410000000155,
          "durationTicks": 192,
          "midi": 63,
          "name": "D#4",
          "ticks": 108096,
          "time": 198.705783,
          "velocity": 0.3937007874015748
        },
        {
          "duration": 0.3529410000000155,
          "durationTicks": 192,
          "midi": 68,
          "name": "G#4",
          "ticks": 108096,
          "time": 198.705783,
          "velocity": 0.3937007874015748
        },
        {
          "duration": 0.5294114999999806,
          "durationTicks": 288,
          "midi": 34,
          "name": "A#1",
          "ticks": 108288,
          "time": 199.058724,
          "velocity": 0.3937007874015748
        },
        {
          "duration": 0.5294114999999806,
          "durationTicks": 288,
          "midi": 46,
          "name": "A#2",
          "ticks": 108288,
          "time": 199.058724,
          "velocity": 0.3937007874015748
        },
        {
          "duration": 0.5294114999999806,
          "durationTicks": 288,
          "midi": 58,
          "name": "A#3",
          "ticks": 108288,
          "time": 199.058724,
          "velocity": 0.3937007874015748
        },
        {
          "duration": 0.5294114999999806,
          "durationTicks": 288,
          "midi": 65,
          "name": "F4",
          "ticks": 108288,
          "time": 199.058724,
          "velocity": 0.3937007874015748
        },
        {
          "duration": 0.5294114999999806,
          "durationTicks": 288,
          "midi": 67,
          "name": "G4",
          "ticks": 108288,
          "time": 199.058724,
          "velocity": 0.3937007874015748
        },
        {
          "duration": 0.5294114999999806,
          "durationTicks": 288,
          "midi": 68,
          "name": "G#4",
          "ticks": 108288,
          "time": 199.058724,
          "velocity": 0.3937007874015748
        },
        {
          "duration": 0.5294114999999806,
          "durationTicks": 288,
          "midi": 61,
          "name": "C#4",
          "ticks": 108288,
          "time": 199.058724,
          "velocity": 0.3937007874015748
        },
        {
          "duration": 0.529411500000009,
          "durationTicks": 288,
          "midi": 34,
          "name": "A#1",
          "ticks": 108576,
          "time": 199.5881355,
          "velocity": 0.3937007874015748
        },
        {
          "duration": 0.529411500000009,
          "durationTicks": 288,
          "midi": 46,
          "name": "A#2",
          "ticks": 108576,
          "time": 199.5881355,
          "velocity": 0.3937007874015748
        }
      ],
      "endOfTrackTicks": 108864
    },
    {
      "channel": 1,
      "controlChanges": {},
      "pitchBends": [],
      "instrument": {
        "family": "synth effects",
        "number": 99,
        "name": "fx 4 (atmosphere)"
      },
      "name": "Scifi",
      "notes": [
        {
          "duration": 0.17647050000000064,
          "durationTicks": 96,
          "midi": 68,
          "name": "G#4",
          "ticks": 12288,
          "time": 22.588224,
          "velocity": 0.3937007874015748
        },
        {
          "duration": 0.17647050000000064,
          "durationTicks": 96,
          "midi": 65,
          "name": "F4",
          "ticks": 12384,
          "time": 22.7646945,
          "velocity": 0.3937007874015748
        },
        {
          "duration": 0.1764704999999971,
          "durationTicks": 96,
          "midi": 72,
          "name": "C5",
          "ticks": 12480,
          "time": 22.941165,
          "velocity": 0.3937007874015748
        },
        {
          "duration": 0.17647050000000064,
          "durationTicks": 96,
          "midi": 68,
          "name": "G#4",
          "ticks": 12576,
          "time": 23.1176355,
          "velocity": 0.3937007874015748
        },
        {
          "duration": 0.17647050000000064,
          "durationTicks": 96,
          "midi": 75,
          "name": "D#5",
          "ticks": 12672,
          "time": 23.294106,
          "velocity": 0.3937007874015748
        },
        {
          "duration": 0.17647050000000064,
          "durationTicks": 96,
          "midi": 72,
          "name": "C5",
          "ticks": 12768,
          "time": 23.4705765,
          "velocity": 0.3937007874015748
        },
        {
          "duration": 0.17647050000000064,
          "durationTicks": 96,
          "midi": 80,
          "name": "G#5",
          "ticks": 12864,
          "time": 23.647047,
          "velocity": 0.3937007874015748
        },
        {
          "duration": 0.17647050000000064,
          "durationTicks": 96,
          "midi": 75,
          "name": "D#5",
          "ticks": 12960,
          "time": 23.8235175,
          "velocity": 0.3937007874015748
        },
        {
          "duration": 0.1764704999999971,
          "durationTicks": 96,
          "midi": 72,
          "name": "C5",
          "ticks": 13056,
          "time": 23.999988000000002,
          "velocity": 0.3937007874015748
        },
        {
          "duration": 0.17647050000000064,
          "durationTicks": 96,
          "midi": 68,
          "name": "G#4",
          "ticks": 13152,
          "time": 24.1764585,
          "velocity": 0.3937007874015748
        },
        {
          "duration": 0.17647050000000064,
          "durationTicks": 96,
          "midi": 75,
          "name": "D#5",
          "ticks": 13248,
          "time": 24.352929,
          "velocity": 0.3937007874015748
        },
        {
          "duration": 0.17647050000000064,
          "durationTicks": 96,
          "midi": 72,
          "name": "C5",
          "ticks": 13344,
          "time": 24.5293995,
          "velocity": 0.3937007874015748
        },
        {
          "duration": 0.17647050000000064,
          "durationTicks": 96,
          "midi": 79,
          "name": "G5",
          "ticks": 13440,
          "time": 24.70587,
          "velocity": 0.3937007874015748
        },
        {
          "duration": 0.1764704999999971,
          "durationTicks": 96,
          "midi": 75,
          "name": "D#5",
          "ticks": 13536,
          "time": 24.8823405,
          "velocity": 0.3937007874015748
        },
        {
          "duration": 0.17647050000000064,
          "durationTicks": 96,
          "midi": 75,
          "name": "D#5",
          "ticks": 13632,
          "time": 25.058811,
          "velocity": 0.3937007874015748
        },
        {
          "duration": 0.17647050000000064,
          "durationTicks": 96,
          "midi": 72,
          "name": "C5",
          "ticks": 13728,
          "time": 25.2352815,
          "velocity": 0.3937007874015748
        },
        {
          "duration": 0.17647050000000064,
          "durationTicks": 96,
          "midi": 79,
          "name": "G5",
          "ticks": 13824,
          "time": 25.411752,
          "velocity": 0.3937007874015748
        },
        {
          "duration": 0.17647050000000064,
          "durationTicks": 96,
          "midi": 75,
          "name": "D#5",
          "ticks": 13920,
          "time": 25.5882225,
          "velocity": 0.3937007874015748
        },
        {
          "duration": 0.17647050000000064,
          "durationTicks": 96,
          "midi": 82,
          "name": "A#5",
          "ticks": 14016,
          "time": 25.764693,
          "velocity": 0.3937007874015748
        },
        {
          "duration": 0.1764704999999971,
          "durationTicks": 96,
          "midi": 79,
          "name": "G5",
          "ticks": 14112,
          "time": 25.941163500000002,
          "velocity": 0.3937007874015748
        },
        {
          "duration": 0.17647050000000064,
          "durationTicks": 96,
          "midi": 84,
          "name": "C6",
          "ticks": 14208,
          "time": 26.117634,
          "velocity": 0.3937007874015748
        },
        {
          "duration": 0.17647050000000064,
          "durationTicks": 96,
          "midi": 75,
          "name": "D#5",
          "ticks": 14304,
          "time": 26.2941045,
          "velocity": 0.3937007874015748
        },
        {
          "duration": 0.17647050000000064,
          "durationTicks": 96,
          "midi": 72,
          "name": "C5",
          "ticks": 14400,
          "time": 26.470575,
          "velocity": 0.3937007874015748
        },
        {
          "duration": 0.17647050000000064,
          "durationTicks": 96,
          "midi": 79,
          "name": "G5",
          "ticks": 14496,
          "time": 26.6470455,
          "velocity": 0.3937007874015748
        },
        {
          "duration": 0.17647050000000064,
          "durationTicks": 96,
          "midi": 75,
          "name": "D#5",
          "ticks": 14592,
          "time": 26.823516,
          "velocity": 0.3937007874015748
        },
        {
          "duration": 0.1764704999999971,
          "durationTicks": 96,
          "midi": 82,
          "name": "A#5",
          "ticks": 14688,
          "time": 26.999986500000002,
          "velocity": 0.3937007874015748
        },
        {
          "duration": 0.17647050000000064,
          "durationTicks": 96,
          "midi": 79,
          "name": "G5",
          "ticks": 14784,
          "time": 27.176457,
          "velocity": 0.3937007874015748
        },
        {
          "duration": 0.17647050000000064,
          "durationTicks": 96,
          "midi": 84,
          "name": "C6",
          "ticks": 14880,
          "time": 27.3529275,
          "velocity": 0.3937007874015748
        },
        {
          "duration": 0.17647050000000064,
          "durationTicks": 96,
          "midi": 75,
          "name": "D#5",
          "ticks": 14976,
          "time": 27.529398,
          "velocity": 0.3937007874015748
        },
        {
          "duration": 0.17647050000000064,
          "durationTicks": 96,
          "midi": 72,
          "name": "C5",
          "ticks": 15072,
          "time": 27.7058685,
          "velocity": 0.3937007874015748
        },
        {
          "duration": 0.1764704999999971,
          "durationTicks": 96,
          "midi": 79,
          "name": "G5",
          "ticks": 15168,
          "time": 27.882339,
          "velocity": 0.3937007874015748
        },
        {
          "duration": 0.17647050000000064,
          "durationTicks": 96,
          "midi": 75,
          "name": "D#5",
          "ticks": 15264,
          "time": 28.0588095,
          "velocity": 0.3937007874015748
        },
        {
          "duration": 0.17647050000000064,
          "durationTicks": 96,
          "midi": 68,
          "name": "G#4",
          "ticks": 15360,
          "time": 28.23528,
          "velocity": 0.3937007874015748
        },
        {
          "duration": 0.17647050000000064,
          "durationTicks": 96,
          "midi": 65,
          "name": "F4",
          "ticks": 15456,
          "time": 28.4117505,
          "velocity": 0.3937007874015748
        },
        {
          "duration": 0.17647050000000064,
          "durationTicks": 96,
          "midi": 72,
          "name": "C5",
          "ticks": 15552,
          "time": 28.588221,
          "velocity": 0.3937007874015748
        },
        {
          "duration": 0.17647050000000064,
          "durationTicks": 96,
          "midi": 68,
          "name": "G#4",
          "ticks": 15648,
          "time": 28.7646915,
          "velocity": 0.3937007874015748
        },
        {
          "duration": 0.1764704999999971,
          "durationTicks": 96,
          "midi": 75,
          "name": "D#5",
          "ticks": 15744,
          "time": 28.941162000000002,
          "velocity": 0.3937007874015748
        },
        {
          "duration": 0.17647050000000064,
          "durationTicks": 96,
          "midi": 72,
          "name": "C5",
          "ticks": 15840,
          "time": 29.1176325,
          "velocity": 0.3937007874015748
        },
        {
          "duration": 0.17647050000000064,
          "durationTicks": 96,
          "midi": 87,
          "name": "D#6",
          "ticks": 15936,
          "time": 29.294103,
          "velocity": 0.3937007874015748
        },
        {
          "duration": 0.17647050000000064,
          "durationTicks": 96,
          "midi": 75,
          "name": "D#5",
          "ticks": 16032,
          "time": 29.4705735,
          "velocity": 0.3937007874015748
        },
        {
          "duration": 0.17647050000000064,
          "durationTicks": 96,
          "midi": 73,
          "name": "C#5",
          "ticks": 16128,
          "time": 29.647044,
          "velocity": 0.3937007874015748
        },
        {
          "duration": 0.1764704999999971,
          "durationTicks": 96,
          "midi": 70,
          "name": "A#4",
          "ticks": 16224,
          "time": 29.8235145,
          "velocity": 0.3937007874015748
        },
        {
          "duration": 0.17647050000000064,
          "durationTicks": 96,
          "midi": 77,
          "name": "F5",
          "ticks": 16320,
          "time": 29.999985,
          "velocity": 0.3937007874015748
        },
        {
          "duration": 0.17647050000000064,
          "durationTicks": 96,
          "midi": 73,
          "name": "C#5",
          "ticks": 16416,
          "time": 30.1764555,
          "velocity": 0.3937007874015748
        },
        {
          "duration": 0.17647050000000064,
          "durationTicks": 96,
          "midi": 80,
          "name": "G#5",
          "ticks": 16512,
          "time": 30.352926,
          "velocity": 0.3937007874015748
        },
        {
          "duration": 0.17647050000000064,
          "durationTicks": 96,
          "midi": 77,
          "name": "F5",
          "ticks": 16608,
          "time": 30.5293965,
          "velocity": 0.3937007874015748
        },
        {
          "duration": 0.17647050000000064,
          "durationTicks": 96,
          "midi": 72,
          "name": "C5",
          "ticks": 16704,
          "time": 30.705867,
          "velocity": 0.3937007874015748
        },
        {
          "duration": 0.1764704999999971,
          "durationTicks": 96,
          "midi": 68,
          "name": "G#4",
          "ticks": 16800,
          "time": 30.882337500000002,
          "velocity": 0.3937007874015748
        },
        {
          "duration": 0.17647050000000064,
          "durationTicks": 96,
          "midi": 75,
          "name": "D#5",
          "ticks": 16896,
          "time": 31.058808,
          "velocity": 0.3937007874015748
        },
        {
          "duration": 0.17647050000000064,
          "durationTicks": 96,
          "midi": 72,
          "name": "C5",
          "ticks": 16992,
          "time": 31.2352785,
          "velocity": 0.3937007874015748
        },
        {
          "duration": 0.17647050000000064,
          "durationTicks": 96,
          "midi": 79,
          "name": "G5",
          "ticks": 17088,
          "time": 31.411749,
          "velocity": 0.3937007874015748
        },
        {
          "duration": 0.17647050000000064,
          "durationTicks": 96,
          "midi": 75,
          "name": "D#5",
          "ticks": 17184,
          "time": 31.5882195,
          "velocity": 0.3937007874015748
        },
        {
          "duration": 0.1764704999999971,
          "durationTicks": 96,
          "midi": 80,
          "name": "G#5",
          "ticks": 17280,
          "time": 31.76469,
          "velocity": 0.3937007874015748
        },
        {
          "duration": 0.1764705000000042,
          "durationTicks": 96,
          "midi": 72,
          "name": "C5",
          "ticks": 17376,
          "time": 31.9411605,
          "velocity": 0.3937007874015748
        },
        {
          "duration": 0.17647050000000064,
          "durationTicks": 96,
          "midi": 68,
          "name": "G#4",
          "ticks": 17472,
          "time": 32.117631,
          "velocity": 0.3937007874015748
        },
        {
          "duration": 0.17647049999999354,
          "durationTicks": 96,
          "midi": 75,
          "name": "D#5",
          "ticks": 17568,
          "time": 32.294101500000004,
          "velocity": 0.3937007874015748
        },
        {
          "duration": 0.17647050000000064,
          "durationTicks": 96,
          "midi": 72,
          "name": "C5",
          "ticks": 17664,
          "time": 32.470572,
          "velocity": 0.3937007874015748
        },
        {
          "duration": 0.17647050000000064,
          "durationTicks": 96,
          "midi": 79,
          "name": "G5",
          "ticks": 17760,
          "time": 32.6470425,
          "velocity": 0.3937007874015748
        },
        {
          "duration": 0.17647050000000064,
          "durationTicks": 96,
          "midi": 75,
          "name": "D#5",
          "ticks": 17856,
          "time": 32.823513,
          "velocity": 0.3937007874015748
        },
        {
          "duration": 0.17647050000000064,
          "durationTicks": 96,
          "midi": 80,
          "name": "G#5",
          "ticks": 17952,
          "time": 32.9999835,
          "velocity": 0.3937007874015748
        },
        {
          "duration": 0.17647050000000064,
          "durationTicks": 96,
          "midi": 72,
          "name": "C5",
          "ticks": 18048,
          "time": 33.176454,
          "velocity": 0.3937007874015748
        },
        {
          "duration": 0.17647050000000064,
          "durationTicks": 96,
          "midi": 68,
          "name": "G#4",
          "ticks": 18144,
          "time": 33.3529245,
          "velocity": 0.3937007874015748
        },
        {
          "duration": 0.17647050000000064,
          "durationTicks": 96,
          "midi": 75,
          "name": "D#5",
          "ticks": 18240,
          "time": 33.529395,
          "velocity": 0.3937007874015748
        },
        {
          "duration": 0.17647050000000064,
          "durationTicks": 96,
          "midi": 72,
          "name": "C5",
          "ticks": 18336,
          "time": 33.7058655,
          "velocity": 0.3937007874015748
        },
        {
          "duration": 0.17647050000000064,
          "durationTicks": 96,
          "midi": 68,
          "name": "G#4",
          "ticks": 18432,
          "time": 33.882336,
          "velocity": 0.3937007874015748
        },
        {
          "duration": 0.17647050000000064,
          "durationTicks": 96,
          "midi": 65,
          "name": "F4",
          "ticks": 18528,
          "time": 34.0588065,
          "velocity": 0.3937007874015748
        },
        {
          "duration": 0.17647049999999354,
          "durationTicks": 96,
          "midi": 72,
          "name": "C5",
          "ticks": 18624,
          "time": 34.235277,
          "velocity": 0.3937007874015748
        },
        {
          "duration": 0.17647050000000064,
          "durationTicks": 96,
          "midi": 68,
          "name": "G#4",
          "ticks": 18720,
          "time": 34.4117475,
          "velocity": 0.3937007874015748
        },
        {
          "duration": 0.17647050000000064,
          "durationTicks": 96,
          "midi": 75,
          "name": "D#5",
          "ticks": 18816,
          "time": 34.588218,
          "velocity": 0.3937007874015748
        },
        {
          "duration": 0.17647050000000064,
          "durationTicks": 96,
          "midi": 72,
          "name": "C5",
          "ticks": 18912,
          "time": 34.7646885,
          "velocity": 0.3937007874015748
        },
        {
          "duration": 0.17647050000000064,
          "durationTicks": 96,
          "midi": 84,
          "name": "C6",
          "ticks": 19008,
          "time": 34.941159,
          "velocity": 0.3937007874015748
        },
        {
          "duration": 0.17647050000000064,
          "durationTicks": 96,
          "midi": 75,
          "name": "D#5",
          "ticks": 19104,
          "time": 35.1176295,
          "velocity": 0.3937007874015748
        },
        {
          "duration": 0.17647050000000064,
          "durationTicks": 96,
          "midi": 72,
          "name": "C5",
          "ticks": 19200,
          "time": 35.2941,
          "velocity": 0.3937007874015748
        },
        {
          "duration": 0.17647050000000064,
          "durationTicks": 96,
          "midi": 68,
          "name": "G#4",
          "ticks": 19296,
          "time": 35.4705705,
          "velocity": 0.3937007874015748
        },
        {
          "duration": 0.17647050000000064,
          "durationTicks": 96,
          "midi": 75,
          "name": "D#5",
          "ticks": 19392,
          "time": 35.647041,
          "velocity": 0.3937007874015748
        },
        {
          "duration": 0.17647050000000064,
          "durationTicks": 96,
          "midi": 72,
          "name": "C5",
          "ticks": 19488,
          "time": 35.8235115,
          "velocity": 0.3937007874015748
        },
        {
          "duration": 0.17647050000000064,
          "durationTicks": 96,
          "midi": 79,
          "name": "G5",
          "ticks": 19584,
          "time": 35.999982,
          "velocity": 0.3937007874015748
        },
        {
          "duration": 0.17647049999999354,
          "durationTicks": 96,
          "midi": 75,
          "name": "D#5",
          "ticks": 19680,
          "time": 36.1764525,
          "velocity": 0.3937007874015748
        },
        {
          "duration": 0.17647050000000064,
          "durationTicks": 96,
          "midi": 75,
          "name": "D#5",
          "ticks": 19776,
          "time": 36.352923,
          "velocity": 0.3937007874015748
        },
        {
          "duration": 0.17647050000000064,
          "durationTicks": 96,
          "midi": 72,
          "name": "C5",
          "ticks": 19872,
          "time": 36.5293935,
          "velocity": 0.3937007874015748
        },
        {
          "duration": 0.17647050000000064,
          "durationTicks": 96,
          "midi": 77,
          "name": "F5",
          "ticks": 19968,
          "time": 36.705864,
          "velocity": 0.3937007874015748
        },
        {
          "duration": 0.17647050000000064,
          "durationTicks": 96,
          "midi": 75,
          "name": "D#5",
          "ticks": 20064,
          "time": 36.8823345,
          "velocity": 0.3937007874015748
        },
        {
          "duration": 0.17647050000000064,
          "durationTicks": 96,
          "midi": 79,
          "name": "G5",
          "ticks": 20160,
          "time": 37.058805,
          "velocity": 0.3937007874015748
        },
        {
          "duration": 0.17647050000000064,
          "durationTicks": 96,
          "midi": 77,
          "name": "F5",
          "ticks": 20256,
          "time": 37.2352755,
          "velocity": 0.3937007874015748
        },
        {
          "duration": 0.17647050000000064,
          "durationTicks": 96,
          "midi": 82,
          "name": "A#5",
          "ticks": 20352,
          "time": 37.411746,
          "velocity": 0.3937007874015748
        },
        {
          "duration": 0.17647050000000064,
          "durationTicks": 96,
          "midi": 75,
          "name": "D#5",
          "ticks": 20448,
          "time": 37.5882165,
          "velocity": 0.3937007874015748
        },
        {
          "duration": 0.17647050000000064,
          "durationTicks": 96,
          "midi": 72,
          "name": "C5",
          "ticks": 20544,
          "time": 37.764687,
          "velocity": 0.3937007874015748
        },
        {
          "duration": 0.17647050000000064,
          "durationTicks": 96,
          "midi": 77,
          "name": "F5",
          "ticks": 20640,
          "time": 37.9411575,
          "velocity": 0.3937007874015748
        },
        {
          "duration": 0.17647050000000064,
          "durationTicks": 96,
          "midi": 75,
          "name": "D#5",
          "ticks": 20736,
          "time": 38.117628,
          "velocity": 0.3937007874015748
        },
        {
          "duration": 0.17647049999999354,
          "durationTicks": 96,
          "midi": 79,
          "name": "G5",
          "ticks": 20832,
          "time": 38.294098500000004,
          "velocity": 0.3937007874015748
        },
        {
          "duration": 0.17647050000000064,
          "durationTicks": 96,
          "midi": 77,
          "name": "F5",
          "ticks": 20928,
          "time": 38.470569,
          "velocity": 0.3937007874015748
        },
        {
          "duration": 0.17647050000000064,
          "durationTicks": 96,
          "midi": 82,
          "name": "A#5",
          "ticks": 21024,
          "time": 38.6470395,
          "velocity": 0.3937007874015748
        },
        {
          "duration": 0.17647050000000064,
          "durationTicks": 96,
          "midi": 75,
          "name": "D#5",
          "ticks": 21120,
          "time": 38.82351,
          "velocity": 0.3937007874015748
        },
        {
          "duration": 0.17647050000000064,
          "durationTicks": 96,
          "midi": 72,
          "name": "C5",
          "ticks": 21216,
          "time": 38.9999805,
          "velocity": 0.3937007874015748
        },
        {
          "duration": 0.17647050000000064,
          "durationTicks": 96,
          "midi": 77,
          "name": "F5",
          "ticks": 21312,
          "time": 39.176451,
          "velocity": 0.3937007874015748
        },
        {
          "duration": 0.17647050000000064,
          "durationTicks": 96,
          "midi": 75,
          "name": "D#5",
          "ticks": 21408,
          "time": 39.3529215,
          "velocity": 0.3937007874015748
        },
        {
          "duration": 0.17647050000000064,
          "durationTicks": 96,
          "midi": 68,
          "name": "G#4",
          "ticks": 21504,
          "time": 39.529392,
          "velocity": 0.3937007874015748
        },
        {
          "duration": 0.17647050000000064,
          "durationTicks": 96,
          "midi": 65,
          "name": "F4",
          "ticks": 21600,
          "time": 39.7058625,
          "velocity": 0.3937007874015748
        },
        {
          "duration": 0.17647050000000064,
          "durationTicks": 96,
          "midi": 72,
          "name": "C5",
          "ticks": 21696,
          "time": 39.882333,
          "velocity": 0.3937007874015748
        },
        {
          "duration": 0.17647050000000064,
          "durationTicks": 96,
          "midi": 68,
          "name": "G#4",
          "ticks": 21792,
          "time": 40.0588035,
          "velocity": 0.3937007874015748
        },
        {
          "duration": 0.17647049999999354,
          "durationTicks": 96,
          "midi": 75,
          "name": "D#5",
          "ticks": 21888,
          "time": 40.235274000000004,
          "velocity": 0.3937007874015748
        },
        {
          "duration": 0.17647050000000064,
          "durationTicks": 96,
          "midi": 72,
          "name": "C5",
          "ticks": 21984,
          "time": 40.4117445,
          "velocity": 0.3937007874015748
        },
        {
          "duration": 0.17647050000000064,
          "durationTicks": 96,
          "midi": 80,
          "name": "G#5",
          "ticks": 22080,
          "time": 40.588215,
          "velocity": 0.3937007874015748
        },
        {
          "duration": 0.17647050000000064,
          "durationTicks": 96,
          "midi": 75,
          "name": "D#5",
          "ticks": 22176,
          "time": 40.7646855,
          "velocity": 0.3937007874015748
        },
        {
          "duration": 0.17647050000000064,
          "durationTicks": 96,
          "midi": 73,
          "name": "C#5",
          "ticks": 22272,
          "time": 40.941156,
          "velocity": 0.3937007874015748
        },
        {
          "duration": 0.17647050000000064,
          "durationTicks": 96,
          "midi": 70,
          "name": "A#4",
          "ticks": 22368,
          "time": 41.1176265,
          "velocity": 0.3937007874015748
        },
        {
          "duration": 0.17647050000000064,
          "durationTicks": 96,
          "midi": 77,
          "name": "F5",
          "ticks": 22464,
          "time": 41.294097,
          "velocity": 0.3937007874015748
        },
        {
          "duration": 0.17647050000000064,
          "durationTicks": 96,
          "midi": 73,
          "name": "C#5",
          "ticks": 22560,
          "time": 41.4705675,
          "velocity": 0.3937007874015748
        },
        {
          "duration": 0.17647050000000064,
          "durationTicks": 96,
          "midi": 79,
          "name": "G5",
          "ticks": 22656,
          "time": 41.647038,
          "velocity": 0.3937007874015748
        },
        {
          "duration": 0.17647050000000064,
          "durationTicks": 96,
          "midi": 77,
          "name": "F5",
          "ticks": 22752,
          "time": 41.8235085,
          "velocity": 0.3937007874015748
        },
        {
          "duration": 0.17647050000000064,
          "durationTicks": 96,
          "midi": 72,
          "name": "C5",
          "ticks": 22848,
          "time": 41.999979,
          "velocity": 0.3937007874015748
        },
        {
          "duration": 0.17647049999999354,
          "durationTicks": 96,
          "midi": 68,
          "name": "G#4",
          "ticks": 22944,
          "time": 42.176449500000004,
          "velocity": 0.3937007874015748
        },
        {
          "duration": 0.17647050000000064,
          "durationTicks": 96,
          "midi": 75,
          "name": "D#5",
          "ticks": 23040,
          "time": 42.35292,
          "velocity": 0.3937007874015748
        },
        {
          "duration": 0.17647050000000064,
          "durationTicks": 96,
          "midi": 72,
          "name": "C5",
          "ticks": 23136,
          "time": 42.5293905,
          "velocity": 0.3937007874015748
        },
        {
          "duration": 0.17647050000000064,
          "durationTicks": 96,
          "midi": 77,
          "name": "F5",
          "ticks": 23232,
          "time": 42.705861,
          "velocity": 0.3937007874015748
        },
        {
          "duration": 0.17647050000000064,
          "durationTicks": 96,
          "midi": 75,
          "name": "D#5",
          "ticks": 23328,
          "time": 42.8823315,
          "velocity": 0.3937007874015748
        },
        {
          "duration": 0.17647050000000064,
          "durationTicks": 96,
          "midi": 79,
          "name": "G5",
          "ticks": 23424,
          "time": 43.058802,
          "velocity": 0.3937007874015748
        },
        {
          "duration": 0.17647050000000064,
          "durationTicks": 96,
          "midi": 72,
          "name": "C5",
          "ticks": 23520,
          "time": 43.2352725,
          "velocity": 0.3937007874015748
        },
        {
          "duration": 0.17647050000000064,
          "durationTicks": 96,
          "midi": 68,
          "name": "G#4",
          "ticks": 23616,
          "time": 43.411743,
          "velocity": 0.3937007874015748
        },
        {
          "duration": 0.17647050000000064,
          "durationTicks": 96,
          "midi": 75,
          "name": "D#5",
          "ticks": 23712,
          "time": 43.5882135,
          "velocity": 0.3937007874015748
        },
        {
          "duration": 0.17647050000000064,
          "durationTicks": 96,
          "midi": 72,
          "name": "C5",
          "ticks": 23808,
          "time": 43.764684,
          "velocity": 0.3937007874015748
        },
        {
          "duration": 0.17647050000000064,
          "durationTicks": 96,
          "midi": 77,
          "name": "F5",
          "ticks": 23904,
          "time": 43.9411545,
          "velocity": 0.3937007874015748
        },
        {
          "duration": 0.17647049999999354,
          "durationTicks": 96,
          "midi": 75,
          "name": "D#5",
          "ticks": 24000,
          "time": 44.117625000000004,
          "velocity": 0.3937007874015748
        },
        {
          "duration": 0.17647050000000064,
          "durationTicks": 96,
          "midi": 79,
          "name": "G5",
          "ticks": 24096,
          "time": 44.2940955,
          "velocity": 0.3937007874015748
        },
        {
          "duration": 0.17647050000000064,
          "durationTicks": 96,
          "midi": 72,
          "name": "C5",
          "ticks": 24192,
          "time": 44.470566,
          "velocity": 0.3937007874015748
        },
        {
          "duration": 0.17647050000000064,
          "durationTicks": 96,
          "midi": 68,
          "name": "G#4",
          "ticks": 24288,
          "time": 44.6470365,
          "velocity": 0.3937007874015748
        },
        {
          "duration": 0.17647050000000064,
          "durationTicks": 96,
          "midi": 75,
          "name": "D#5",
          "ticks": 24384,
          "time": 44.823507,
          "velocity": 0.3937007874015748
        },
        {
          "duration": 0.17647050000000064,
          "durationTicks": 96,
          "midi": 72,
          "name": "C5",
          "ticks": 24480,
          "time": 44.9999775,
          "velocity": 0.3937007874015748
        },
        {
          "duration": 0.17647050000000064,
          "durationTicks": 96,
          "midi": 68,
          "name": "G#4",
          "ticks": 24576,
          "time": 45.176448,
          "velocity": 0.3937007874015748
        },
        {
          "duration": 0.17647050000000064,
          "durationTicks": 96,
          "midi": 65,
          "name": "F4",
          "ticks": 24672,
          "time": 45.3529185,
          "velocity": 0.3937007874015748
        },
        {
          "duration": 0.17647050000000064,
          "durationTicks": 96,
          "midi": 72,
          "name": "C5",
          "ticks": 24768,
          "time": 45.529389,
          "velocity": 0.3937007874015748
        },
        {
          "duration": 0.17647050000000064,
          "durationTicks": 96,
          "midi": 68,
          "name": "G#4",
          "ticks": 24864,
          "time": 45.7058595,
          "velocity": 0.3937007874015748
        },
        {
          "duration": 0.17647050000000064,
          "durationTicks": 96,
          "midi": 75,
          "name": "D#5",
          "ticks": 24960,
          "time": 45.88233,
          "velocity": 0.3937007874015748
        },
        {
          "duration": 0.17647049999999354,
          "durationTicks": 96,
          "midi": 72,
          "name": "C5",
          "ticks": 25056,
          "time": 46.058800500000004,
          "velocity": 0.3937007874015748
        },
        {
          "duration": 0.17647050000000064,
          "durationTicks": 96,
          "midi": 80,
          "name": "G#5",
          "ticks": 25152,
          "time": 46.235271,
          "velocity": 0.3937007874015748
        },
        {
          "duration": 0.17647050000000064,
          "durationTicks": 96,
          "midi": 75,
          "name": "D#5",
          "ticks": 25248,
          "time": 46.4117415,
          "velocity": 0.3937007874015748
        },
        {
          "duration": 0.17647050000000064,
          "durationTicks": 96,
          "midi": 72,
          "name": "C5",
          "ticks": 25344,
          "time": 46.588212,
          "velocity": 0.3937007874015748
        },
        {
          "duration": 0.17647050000000064,
          "durationTicks": 96,
          "midi": 68,
          "name": "G#4",
          "ticks": 25440,
          "time": 46.7646825,
          "velocity": 0.3937007874015748
        },
        {
          "duration": 0.17647050000000064,
          "durationTicks": 96,
          "midi": 75,
          "name": "D#5",
          "ticks": 25536,
          "time": 46.941153,
          "velocity": 0.3937007874015748
        },
        {
          "duration": 0.17647050000000064,
          "durationTicks": 96,
          "midi": 72,
          "name": "C5",
          "ticks": 25632,
          "time": 47.1176235,
          "velocity": 0.3937007874015748
        },
        {
          "duration": 0.17647050000000064,
          "durationTicks": 96,
          "midi": 79,
          "name": "G5",
          "ticks": 25728,
          "time": 47.294094,
          "velocity": 0.3937007874015748
        },
        {
          "duration": 0.17647050000000064,
          "durationTicks": 96,
          "midi": 75,
          "name": "D#5",
          "ticks": 25824,
          "time": 47.4705645,
          "velocity": 0.3937007874015748
        },
        {
          "duration": 0.17647050000000064,
          "durationTicks": 96,
          "midi": 75,
          "name": "D#5",
          "ticks": 25920,
          "time": 47.647035,
          "velocity": 0.3937007874015748
        },
        {
          "duration": 0.17647050000000064,
          "durationTicks": 96,
          "midi": 72,
          "name": "C5",
          "ticks": 26016,
          "time": 47.8235055,
          "velocity": 0.3937007874015748
        },
        {
          "duration": 0.17647049999999354,
          "durationTicks": 96,
          "midi": 79,
          "name": "G5",
          "ticks": 26112,
          "time": 47.999976000000004,
          "velocity": 0.3937007874015748
        },
        {
          "duration": 0.17647050000000064,
          "durationTicks": 96,
          "midi": 75,
          "name": "D#5",
          "ticks": 26208,
          "time": 48.1764465,
          "velocity": 0.3937007874015748
        },
        {
          "duration": 0.17647050000000064,
          "durationTicks": 96,
          "midi": 82,
          "name": "A#5",
          "ticks": 26304,
          "time": 48.352917,
          "velocity": 0.3937007874015748
        },
        {
          "duration": 0.17647050000000064,
          "durationTicks": 96,
          "midi": 79,
          "name": "G5",
          "ticks": 26400,
          "time": 48.5293875,
          "velocity": 0.3937007874015748
        },
        {
          "duration": 0.17647050000000064,
          "durationTicks": 96,
          "midi": 84,
          "name": "C6",
          "ticks": 26496,
          "time": 48.705858,
          "velocity": 0.3937007874015748
        },
        {
          "duration": 0.17647050000000064,
          "durationTicks": 96,
          "midi": 75,
          "name": "D#5",
          "ticks": 26592,
          "time": 48.8823285,
          "velocity": 0.3937007874015748
        },
        {
          "duration": 0.17647050000000064,
          "durationTicks": 96,
          "midi": 72,
          "name": "C5",
          "ticks": 26688,
          "time": 49.058799,
          "velocity": 0.3937007874015748
        },
        {
          "duration": 0.17647050000000064,
          "durationTicks": 96,
          "midi": 79,
          "name": "G5",
          "ticks": 26784,
          "time": 49.2352695,
          "velocity": 0.3937007874015748
        },
        {
          "duration": 0.17647050000000064,
          "durationTicks": 96,
          "midi": 75,
          "name": "D#5",
          "ticks": 26880,
          "time": 49.41174,
          "velocity": 0.3937007874015748
        },
        {
          "duration": 0.17647050000000064,
          "durationTicks": 96,
          "midi": 82,
          "name": "A#5",
          "ticks": 26976,
          "time": 49.5882105,
          "velocity": 0.3937007874015748
        },
        {
          "duration": 0.17647050000000064,
          "durationTicks": 96,
          "midi": 79,
          "name": "G5",
          "ticks": 27072,
          "time": 49.764681,
          "velocity": 0.3937007874015748
        },
        {
          "duration": 0.17647049999999354,
          "durationTicks": 96,
          "midi": 84,
          "name": "C6",
          "ticks": 27168,
          "time": 49.941151500000004,
          "velocity": 0.3937007874015748
        },
        {
          "duration": 0.17647050000000064,
          "durationTicks": 96,
          "midi": 75,
          "name": "D#5",
          "ticks": 27264,
          "time": 50.117622,
          "velocity": 0.3937007874015748
        },
        {
          "duration": 0.17647050000000064,
          "durationTicks": 96,
          "midi": 72,
          "name": "C5",
          "ticks": 27360,
          "time": 50.2940925,
          "velocity": 0.3937007874015748
        },
        {
          "duration": 0.17647050000000064,
          "durationTicks": 96,
          "midi": 79,
          "name": "G5",
          "ticks": 27456,
          "time": 50.470563,
          "velocity": 0.3937007874015748
        },
        {
          "duration": 0.17647050000000064,
          "durationTicks": 96,
          "midi": 75,
          "name": "D#5",
          "ticks": 27552,
          "time": 50.6470335,
          "velocity": 0.3937007874015748
        },
        {
          "duration": 0.17647050000000064,
          "durationTicks": 96,
          "midi": 68,
          "name": "G#4",
          "ticks": 27648,
          "time": 50.823504,
          "velocity": 0.3937007874015748
        },
        {
          "duration": 0.17647050000000064,
          "durationTicks": 96,
          "midi": 65,
          "name": "F4",
          "ticks": 27744,
          "time": 50.9999745,
          "velocity": 0.3937007874015748
        },
        {
          "duration": 0.17647050000000064,
          "durationTicks": 96,
          "midi": 72,
          "name": "C5",
          "ticks": 27840,
          "time": 51.176445,
          "velocity": 0.3937007874015748
        },
        {
          "duration": 0.17647050000000064,
          "durationTicks": 96,
          "midi": 68,
          "name": "G#4",
          "ticks": 27936,
          "time": 51.3529155,
          "velocity": 0.3937007874015748
        },
        {
          "duration": 0.17647050000000064,
          "durationTicks": 96,
          "midi": 75,
          "name": "D#5",
          "ticks": 28032,
          "time": 51.529386,
          "velocity": 0.3937007874015748
        },
        {
          "duration": 0.17647050000000064,
          "durationTicks": 96,
          "midi": 72,
          "name": "C5",
          "ticks": 28128,
          "time": 51.7058565,
          "velocity": 0.3937007874015748
        },
        {
          "duration": 0.17647049999999354,
          "durationTicks": 96,
          "midi": 87,
          "name": "D#6",
          "ticks": 28224,
          "time": 51.882327000000004,
          "velocity": 0.3937007874015748
        },
        {
          "duration": 0.17647050000000064,
          "durationTicks": 96,
          "midi": 75,
          "name": "D#5",
          "ticks": 28320,
          "time": 52.0587975,
          "velocity": 0.3937007874015748
        },
        {
          "duration": 0.17647050000000064,
          "durationTicks": 96,
          "midi": 73,
          "name": "C#5",
          "ticks": 28416,
          "time": 52.235268,
          "velocity": 0.3937007874015748
        },
        {
          "duration": 0.17647050000000064,
          "durationTicks": 96,
          "midi": 70,
          "name": "A#4",
          "ticks": 28512,
          "time": 52.4117385,
          "velocity": 0.3937007874015748
        },
        {
          "duration": 0.17647050000000064,
          "durationTicks": 96,
          "midi": 77,
          "name": "F5",
          "ticks": 28608,
          "time": 52.588209,
          "velocity": 0.3937007874015748
        },
        {
          "duration": 0.17647050000000064,
          "durationTicks": 96,
          "midi": 73,
          "name": "C#5",
          "ticks": 28704,
          "time": 52.7646795,
          "velocity": 0.3937007874015748
        },
        {
          "duration": 0.17647050000000064,
          "durationTicks": 96,
          "midi": 80,
          "name": "G#5",
          "ticks": 28800,
          "time": 52.94115,
          "velocity": 0.3937007874015748
        },
        {
          "duration": 0.17647050000000064,
          "durationTicks": 96,
          "midi": 77,
          "name": "F5",
          "ticks": 28896,
          "time": 53.1176205,
          "velocity": 0.3937007874015748
        },
        {
          "duration": 0.17647050000000064,
          "durationTicks": 96,
          "midi": 72,
          "name": "C5",
          "ticks": 28992,
          "time": 53.294091,
          "velocity": 0.3937007874015748
        },
        {
          "duration": 0.17647050000000064,
          "durationTicks": 96,
          "midi": 68,
          "name": "G#4",
          "ticks": 29088,
          "time": 53.4705615,
          "velocity": 0.3937007874015748
        },
        {
          "duration": 0.17647050000000064,
          "durationTicks": 96,
          "midi": 75,
          "name": "D#5",
          "ticks": 29184,
          "time": 53.647032,
          "velocity": 0.3937007874015748
        },
        {
          "duration": 0.17647050000000064,
          "durationTicks": 96,
          "midi": 72,
          "name": "C5",
          "ticks": 29280,
          "time": 53.823502500000004,
          "velocity": 0.3937007874015748
        },
        {
          "duration": 0.17647049999999354,
          "durationTicks": 96,
          "midi": 79,
          "name": "G5",
          "ticks": 29376,
          "time": 53.999973000000004,
          "velocity": 0.3937007874015748
        },
        {
          "duration": 0.17647050000000064,
          "durationTicks": 96,
          "midi": 75,
          "name": "D#5",
          "ticks": 29472,
          "time": 54.1764435,
          "velocity": 0.3937007874015748
        },
        {
          "duration": 0.17647050000000064,
          "durationTicks": 96,
          "midi": 80,
          "name": "G#5",
          "ticks": 29568,
          "time": 54.352914,
          "velocity": 0.3937007874015748
        },
        {
          "duration": 0.17647050000000064,
          "durationTicks": 96,
          "midi": 72,
          "name": "C5",
          "ticks": 29664,
          "time": 54.5293845,
          "velocity": 0.3937007874015748
        },
        {
          "duration": 0.17647050000000064,
          "durationTicks": 96,
          "midi": 68,
          "name": "G#4",
          "ticks": 29760,
          "time": 54.705855,
          "velocity": 0.3937007874015748
        },
        {
          "duration": 0.17647050000000064,
          "durationTicks": 96,
          "midi": 75,
          "name": "D#5",
          "ticks": 29856,
          "time": 54.8823255,
          "velocity": 0.3937007874015748
        },
        {
          "duration": 0.17647050000000064,
          "durationTicks": 96,
          "midi": 72,
          "name": "C5",
          "ticks": 29952,
          "time": 55.058796,
          "velocity": 0.3937007874015748
        },
        {
          "duration": 0.17647050000000064,
          "durationTicks": 96,
          "midi": 79,
          "name": "G5",
          "ticks": 30048,
          "time": 55.2352665,
          "velocity": 0.3937007874015748
        },
        {
          "duration": 0.17647050000000064,
          "durationTicks": 96,
          "midi": 75,
          "name": "D#5",
          "ticks": 30144,
          "time": 55.411737,
          "velocity": 0.3937007874015748
        },
        {
          "duration": 0.17647050000000064,
          "durationTicks": 96,
          "midi": 80,
          "name": "G#5",
          "ticks": 30240,
          "time": 55.5882075,
          "velocity": 0.3937007874015748
        },
        {
          "duration": 0.17647050000000064,
          "durationTicks": 96,
          "midi": 72,
          "name": "C5",
          "ticks": 30336,
          "time": 55.764678,
          "velocity": 0.3937007874015748
        },
        {
          "duration": 0.17647049999999354,
          "durationTicks": 96,
          "midi": 68,
          "name": "G#4",
          "ticks": 30432,
          "time": 55.941148500000004,
          "velocity": 0.3937007874015748
        },
        {
          "duration": 0.17647050000000064,
          "durationTicks": 96,
          "midi": 75,
          "name": "D#5",
          "ticks": 30528,
          "time": 56.117619,
          "velocity": 0.3937007874015748
        },
        {
          "duration": 0.17647050000000064,
          "durationTicks": 96,
          "midi": 72,
          "name": "C5",
          "ticks": 30624,
          "time": 56.2940895,
          "velocity": 0.3937007874015748
        },
        {
          "duration": 0.17647050000000064,
          "durationTicks": 96,
          "midi": 68,
          "name": "G#4",
          "ticks": 30720,
          "time": 56.47056,
          "velocity": 0.3937007874015748
        },
        {
          "duration": 0.17647050000000064,
          "durationTicks": 96,
          "midi": 65,
          "name": "F4",
          "ticks": 30816,
          "time": 56.6470305,
          "velocity": 0.3937007874015748
        },
        {
          "duration": 0.17647050000000064,
          "durationTicks": 96,
          "midi": 72,
          "name": "C5",
          "ticks": 30912,
          "time": 56.823501,
          "velocity": 0.3937007874015748
        },
        {
          "duration": 0.17647050000000064,
          "durationTicks": 96,
          "midi": 68,
          "name": "G#4",
          "ticks": 31008,
          "time": 56.9999715,
          "velocity": 0.3937007874015748
        },
        {
          "duration": 0.17647050000000064,
          "durationTicks": 96,
          "midi": 75,
          "name": "D#5",
          "ticks": 31104,
          "time": 57.176442,
          "velocity": 0.3937007874015748
        },
        {
          "duration": 0.17647050000000064,
          "durationTicks": 96,
          "midi": 72,
          "name": "C5",
          "ticks": 31200,
          "time": 57.3529125,
          "velocity": 0.3937007874015748
        },
        {
          "duration": 0.17647050000000064,
          "durationTicks": 96,
          "midi": 84,
          "name": "C6",
          "ticks": 31296,
          "time": 57.529383,
          "velocity": 0.3937007874015748
        },
        {
          "duration": 0.17647050000000064,
          "durationTicks": 96,
          "midi": 75,
          "name": "D#5",
          "ticks": 31392,
          "time": 57.7058535,
          "velocity": 0.3937007874015748
        },
        {
          "duration": 0.17647049999999354,
          "durationTicks": 96,
          "midi": 72,
          "name": "C5",
          "ticks": 31488,
          "time": 57.882324000000004,
          "velocity": 0.3937007874015748
        },
        {
          "duration": 0.17647050000000064,
          "durationTicks": 96,
          "midi": 68,
          "name": "G#4",
          "ticks": 31584,
          "time": 58.0587945,
          "velocity": 0.3937007874015748
        },
        {
          "duration": 0.17647050000000064,
          "durationTicks": 96,
          "midi": 75,
          "name": "D#5",
          "ticks": 31680,
          "time": 58.235265,
          "velocity": 0.3937007874015748
        },
        {
          "duration": 0.17647050000000064,
          "durationTicks": 96,
          "midi": 72,
          "name": "C5",
          "ticks": 31776,
          "time": 58.4117355,
          "velocity": 0.3937007874015748
        },
        {
          "duration": 0.17647050000000064,
          "durationTicks": 96,
          "midi": 79,
          "name": "G5",
          "ticks": 31872,
          "time": 58.588206,
          "velocity": 0.3937007874015748
        },
        {
          "duration": 0.17647050000000064,
          "durationTicks": 96,
          "midi": 75,
          "name": "D#5",
          "ticks": 31968,
          "time": 58.7646765,
          "velocity": 0.3937007874015748
        },
        {
          "duration": 0.17647050000000064,
          "durationTicks": 96,
          "midi": 75,
          "name": "D#5",
          "ticks": 32064,
          "time": 58.941147,
          "velocity": 0.3937007874015748
        },
        {
          "duration": 0.17647050000000064,
          "durationTicks": 96,
          "midi": 72,
          "name": "C5",
          "ticks": 32160,
          "time": 59.1176175,
          "velocity": 0.3937007874015748
        },
        {
          "duration": 0.17647050000000064,
          "durationTicks": 96,
          "midi": 77,
          "name": "F5",
          "ticks": 32256,
          "time": 59.294088,
          "velocity": 0.3937007874015748
        },
        {
          "duration": 0.17647050000000064,
          "durationTicks": 96,
          "midi": 75,
          "name": "D#5",
          "ticks": 32352,
          "time": 59.4705585,
          "velocity": 0.3937007874015748
        },
        {
          "duration": 0.17647050000000064,
          "durationTicks": 96,
          "midi": 79,
          "name": "G5",
          "ticks": 32448,
          "time": 59.647029,
          "velocity": 0.3937007874015748
        },
        {
          "duration": 0.17647049999999354,
          "durationTicks": 96,
          "midi": 77,
          "name": "F5",
          "ticks": 32544,
          "time": 59.823499500000004,
          "velocity": 0.3937007874015748
        },
        {
          "duration": 0.17647050000000064,
          "durationTicks": 96,
          "midi": 82,
          "name": "A#5",
          "ticks": 32640,
          "time": 59.99997,
          "velocity": 0.3937007874015748
        },
        {
          "duration": 0.17647050000000064,
          "durationTicks": 96,
          "midi": 75,
          "name": "D#5",
          "ticks": 32736,
          "time": 60.1764405,
          "velocity": 0.3937007874015748
        },
        {
          "duration": 0.17647050000000064,
          "durationTicks": 96,
          "midi": 72,
          "name": "C5",
          "ticks": 32832,
          "time": 60.352911,
          "velocity": 0.3937007874015748
        },
        {
          "duration": 0.17647050000000064,
          "durationTicks": 96,
          "midi": 77,
          "name": "F5",
          "ticks": 32928,
          "time": 60.5293815,
          "velocity": 0.3937007874015748
        },
        {
          "duration": 0.17647050000000064,
          "durationTicks": 96,
          "midi": 75,
          "name": "D#5",
          "ticks": 33024,
          "time": 60.705852,
          "velocity": 0.3937007874015748
        },
        {
          "duration": 0.17647050000000064,
          "durationTicks": 96,
          "midi": 79,
          "name": "G5",
          "ticks": 33120,
          "time": 60.8823225,
          "velocity": 0.3937007874015748
        },
        {
          "duration": 0.17647050000000064,
          "durationTicks": 96,
          "midi": 77,
          "name": "F5",
          "ticks": 33216,
          "time": 61.058793,
          "velocity": 0.3937007874015748
        },
        {
          "duration": 0.17647050000000064,
          "durationTicks": 96,
          "midi": 82,
          "name": "A#5",
          "ticks": 33312,
          "time": 61.2352635,
          "velocity": 0.3937007874015748
        },
        {
          "duration": 0.17647050000000064,
          "durationTicks": 96,
          "midi": 75,
          "name": "D#5",
          "ticks": 33408,
          "time": 61.411734,
          "velocity": 0.3937007874015748
        },
        {
          "duration": 0.17647050000000064,
          "durationTicks": 96,
          "midi": 72,
          "name": "C5",
          "ticks": 33504,
          "time": 61.5882045,
          "velocity": 0.3937007874015748
        },
        {
          "duration": 0.17647049999999354,
          "durationTicks": 96,
          "midi": 77,
          "name": "F5",
          "ticks": 33600,
          "time": 61.764675000000004,
          "velocity": 0.3937007874015748
        },
        {
          "duration": 0.17647050000000064,
          "durationTicks": 96,
          "midi": 75,
          "name": "D#5",
          "ticks": 33696,
          "time": 61.9411455,
          "velocity": 0.3937007874015748
        },
        {
          "duration": 0.17647050000000064,
          "durationTicks": 96,
          "midi": 68,
          "name": "G#4",
          "ticks": 33792,
          "time": 62.117616,
          "velocity": 0.3937007874015748
        },
        {
          "duration": 0.17647050000000064,
          "durationTicks": 96,
          "midi": 65,
          "name": "F4",
          "ticks": 33888,
          "time": 62.2940865,
          "velocity": 0.3937007874015748
        },
        {
          "duration": 0.17647050000000064,
          "durationTicks": 96,
          "midi": 72,
          "name": "C5",
          "ticks": 33984,
          "time": 62.470557,
          "velocity": 0.3937007874015748
        },
        {
          "duration": 0.17647050000000064,
          "durationTicks": 96,
          "midi": 68,
          "name": "G#4",
          "ticks": 34080,
          "time": 62.6470275,
          "velocity": 0.3937007874015748
        },
        {
          "duration": 0.17647050000000064,
          "durationTicks": 96,
          "midi": 75,
          "name": "D#5",
          "ticks": 34176,
          "time": 62.823498,
          "velocity": 0.3937007874015748
        },
        {
          "duration": 0.17647050000000064,
          "durationTicks": 96,
          "midi": 72,
          "name": "C5",
          "ticks": 34272,
          "time": 62.9999685,
          "velocity": 0.3937007874015748
        },
        {
          "duration": 0.17647050000000064,
          "durationTicks": 96,
          "midi": 80,
          "name": "G#5",
          "ticks": 34368,
          "time": 63.176439,
          "velocity": 0.3937007874015748
        },
        {
          "duration": 0.17647050000000064,
          "durationTicks": 96,
          "midi": 75,
          "name": "D#5",
          "ticks": 34464,
          "time": 63.3529095,
          "velocity": 0.3937007874015748
        },
        {
          "duration": 0.17647050000000064,
          "durationTicks": 96,
          "midi": 73,
          "name": "C#5",
          "ticks": 34560,
          "time": 63.52938,
          "velocity": 0.3937007874015748
        },
        {
          "duration": 0.17647049999999354,
          "durationTicks": 96,
          "midi": 70,
          "name": "A#4",
          "ticks": 34656,
          "time": 63.705850500000004,
          "velocity": 0.3937007874015748
        },
        {
          "duration": 0.17647050000000064,
          "durationTicks": 96,
          "midi": 77,
          "name": "F5",
          "ticks": 34752,
          "time": 63.882321,
          "velocity": 0.3937007874015748
        },
        {
          "duration": 0.17647050000000775,
          "durationTicks": 96,
          "midi": 73,
          "name": "C#5",
          "ticks": 34848,
          "time": 64.0587915,
          "velocity": 0.3937007874015748
        },
        {
          "duration": 0.17647049999999354,
          "durationTicks": 96,
          "midi": 79,
          "name": "G5",
          "ticks": 34944,
          "time": 64.235262,
          "velocity": 0.3937007874015748
        },
        {
          "duration": 0.17647050000000775,
          "durationTicks": 96,
          "midi": 77,
          "name": "F5",
          "ticks": 35040,
          "time": 64.4117325,
          "velocity": 0.3937007874015748
        },
        {
          "duration": 0.17647049999999354,
          "durationTicks": 96,
          "midi": 72,
          "name": "C5",
          "ticks": 35136,
          "time": 64.58820300000001,
          "velocity": 0.3937007874015748
        },
        {
          "duration": 0.17647049999999354,
          "durationTicks": 96,
          "midi": 68,
          "name": "G#4",
          "ticks": 35232,
          "time": 64.7646735,
          "velocity": 0.3937007874015748
        },
        {
          "duration": 0.17647050000000775,
          "durationTicks": 96,
          "midi": 75,
          "name": "D#5",
          "ticks": 35328,
          "time": 64.941144,
          "velocity": 0.3937007874015748
        },
        {
          "duration": 0.17647049999999354,
          "durationTicks": 96,
          "midi": 72,
          "name": "C5",
          "ticks": 35424,
          "time": 65.1176145,
          "velocity": 0.3937007874015748
        },
        {
          "duration": 0.17647050000000775,
          "durationTicks": 96,
          "midi": 77,
          "name": "F5",
          "ticks": 35520,
          "time": 65.294085,
          "velocity": 0.3937007874015748
        },
        {
          "duration": 0.17647049999999354,
          "durationTicks": 96,
          "midi": 75,
          "name": "D#5",
          "ticks": 35616,
          "time": 65.4705555,
          "velocity": 0.3937007874015748
        },
        {
          "duration": 0.17647050000000775,
          "durationTicks": 96,
          "midi": 79,
          "name": "G5",
          "ticks": 35712,
          "time": 65.647026,
          "velocity": 0.3937007874015748
        },
        {
          "duration": 0.17647049999999354,
          "durationTicks": 96,
          "midi": 72,
          "name": "C5",
          "ticks": 35808,
          "time": 65.8234965,
          "velocity": 0.3937007874015748
        },
        {
          "duration": 0.17647050000000775,
          "durationTicks": 96,
          "midi": 68,
          "name": "G#4",
          "ticks": 35904,
          "time": 65.999967,
          "velocity": 0.3937007874015748
        },
        {
          "duration": 0.17647049999999354,
          "durationTicks": 96,
          "midi": 75,
          "name": "D#5",
          "ticks": 36000,
          "time": 66.1764375,
          "velocity": 0.3937007874015748
        },
        {
          "duration": 0.17647050000000775,
          "durationTicks": 96,
          "midi": 72,
          "name": "C5",
          "ticks": 36096,
          "time": 66.352908,
          "velocity": 0.3937007874015748
        },
        {
          "duration": 0.17647049999999354,
          "durationTicks": 96,
          "midi": 77,
          "name": "F5",
          "ticks": 36192,
          "time": 66.5293785,
          "velocity": 0.3937007874015748
        },
        {
          "duration": 0.17647049999999354,
          "durationTicks": 96,
          "midi": 75,
          "name": "D#5",
          "ticks": 36288,
          "time": 66.705849,
          "velocity": 0.3937007874015748
        },
        {
          "duration": 0.17647050000000775,
          "durationTicks": 96,
          "midi": 79,
          "name": "G5",
          "ticks": 36384,
          "time": 66.8823195,
          "velocity": 0.3937007874015748
        },
        {
          "duration": 0.17647049999999354,
          "durationTicks": 96,
          "midi": 72,
          "name": "C5",
          "ticks": 36480,
          "time": 67.05879,
          "velocity": 0.3937007874015748
        },
        {
          "duration": 0.17647050000000775,
          "durationTicks": 96,
          "midi": 68,
          "name": "G#4",
          "ticks": 36576,
          "time": 67.2352605,
          "velocity": 0.3937007874015748
        },
        {
          "duration": 0.17647049999999354,
          "durationTicks": 96,
          "midi": 75,
          "name": "D#5",
          "ticks": 36672,
          "time": 67.411731,
          "velocity": 0.3937007874015748
        },
        {
          "duration": 0.17647050000000775,
          "durationTicks": 96,
          "midi": 72,
          "name": "C5",
          "ticks": 36768,
          "time": 67.5882015,
          "velocity": 0.3937007874015748
        },
        {
          "duration": 0.17647049999999354,
          "durationTicks": 96,
          "midi": 68,
          "name": "G#4",
          "ticks": 36864,
          "time": 67.764672,
          "velocity": 0.3937007874015748
        },
        {
          "duration": 0.17647050000000775,
          "durationTicks": 96,
          "midi": 65,
          "name": "F4",
          "ticks": 36960,
          "time": 67.9411425,
          "velocity": 0.3937007874015748
        },
        {
          "duration": 0.17647049999999354,
          "durationTicks": 96,
          "midi": 72,
          "name": "C5",
          "ticks": 37056,
          "time": 68.117613,
          "velocity": 0.3937007874015748
        },
        {
          "duration": 0.17647050000000775,
          "durationTicks": 96,
          "midi": 68,
          "name": "G#4",
          "ticks": 37152,
          "time": 68.2940835,
          "velocity": 0.3937007874015748
        },
        {
          "duration": 0.17647049999999354,
          "durationTicks": 96,
          "midi": 75,
          "name": "D#5",
          "ticks": 37248,
          "time": 68.470554,
          "velocity": 0.3937007874015748
        },
        {
          "duration": 0.17647049999999354,
          "durationTicks": 96,
          "midi": 72,
          "name": "C5",
          "ticks": 37344,
          "time": 68.6470245,
          "velocity": 0.3937007874015748
        },
        {
          "duration": 0.17647050000000775,
          "durationTicks": 96,
          "midi": 80,
          "name": "G#5",
          "ticks": 37440,
          "time": 68.823495,
          "velocity": 0.3937007874015748
        },
        {
          "duration": 0.17647049999999354,
          "durationTicks": 96,
          "midi": 75,
          "name": "D#5",
          "ticks": 37536,
          "time": 68.9999655,
          "velocity": 0.3937007874015748
        },
        {
          "duration": 0.17647050000000775,
          "durationTicks": 96,
          "midi": 72,
          "name": "C5",
          "ticks": 37632,
          "time": 69.176436,
          "velocity": 0.3937007874015748
        },
        {
          "duration": 0.17647049999999354,
          "durationTicks": 96,
          "midi": 68,
          "name": "G#4",
          "ticks": 37728,
          "time": 69.3529065,
          "velocity": 0.3937007874015748
        },
        {
          "duration": 0.17647050000000775,
          "durationTicks": 96,
          "midi": 75,
          "name": "D#5",
          "ticks": 37824,
          "time": 69.529377,
          "velocity": 0.3937007874015748
        },
        {
          "duration": 0.17647049999999354,
          "durationTicks": 96,
          "midi": 72,
          "name": "C5",
          "ticks": 37920,
          "time": 69.7058475,
          "velocity": 0.3937007874015748
        },
        {
          "duration": 0.17647050000000775,
          "durationTicks": 96,
          "midi": 79,
          "name": "G5",
          "ticks": 38016,
          "time": 69.882318,
          "velocity": 0.3937007874015748
        },
        {
          "duration": 0.17647049999999354,
          "durationTicks": 96,
          "midi": 75,
          "name": "D#5",
          "ticks": 38112,
          "time": 70.0587885,
          "velocity": 0.3937007874015748
        },
        {
          "duration": 0.17647050000000775,
          "durationTicks": 96,
          "midi": 75,
          "name": "D#5",
          "ticks": 38208,
          "time": 70.235259,
          "velocity": 0.3937007874015748
        },
        {
          "duration": 0.17647049999999354,
          "durationTicks": 96,
          "midi": 72,
          "name": "C5",
          "ticks": 38304,
          "time": 70.4117295,
          "velocity": 0.3937007874015748
        },
        {
          "duration": 0.17647049999999354,
          "durationTicks": 96,
          "midi": 79,
          "name": "G5",
          "ticks": 38400,
          "time": 70.5882,
          "velocity": 0.3937007874015748
        },
        {
          "duration": 0.17647050000000775,
          "durationTicks": 96,
          "midi": 75,
          "name": "D#5",
          "ticks": 38496,
          "time": 70.7646705,
          "velocity": 0.3937007874015748
        },
        {
          "duration": 0.17647049999999354,
          "durationTicks": 96,
          "midi": 82,
          "name": "A#5",
          "ticks": 38592,
          "time": 70.941141,
          "velocity": 0.3937007874015748
        },
        {
          "duration": 0.17647050000000775,
          "durationTicks": 96,
          "midi": 79,
          "name": "G5",
          "ticks": 38688,
          "time": 71.1176115,
          "velocity": 0.3937007874015748
        },
        {
          "duration": 0.17647049999999354,
          "durationTicks": 96,
          "midi": 84,
          "name": "C6",
          "ticks": 38784,
          "time": 71.294082,
          "velocity": 0.3937007874015748
        },
        {
          "duration": 0.17647050000000775,
          "durationTicks": 96,
          "midi": 75,
          "name": "D#5",
          "ticks": 38880,
          "time": 71.4705525,
          "velocity": 0.3937007874015748
        },
        {
          "duration": 0.17647049999999354,
          "durationTicks": 96,
          "midi": 72,
          "name": "C5",
          "ticks": 38976,
          "time": 71.647023,
          "velocity": 0.3937007874015748
        },
        {
          "duration": 0.17647050000000775,
          "durationTicks": 96,
          "midi": 79,
          "name": "G5",
          "ticks": 39072,
          "time": 71.8234935,
          "velocity": 0.3937007874015748
        },
        {
          "duration": 0.17647049999999354,
          "durationTicks": 96,
          "midi": 75,
          "name": "D#5",
          "ticks": 39168,
          "time": 71.999964,
          "velocity": 0.3937007874015748
        },
        {
          "duration": 0.17647050000000775,
          "durationTicks": 96,
          "midi": 82,
          "name": "A#5",
          "ticks": 39264,
          "time": 72.1764345,
          "velocity": 0.3937007874015748
        },
        {
          "duration": 0.17647049999999354,
          "durationTicks": 96,
          "midi": 79,
          "name": "G5",
          "ticks": 39360,
          "time": 72.352905,
          "velocity": 0.3937007874015748
        },
        {
          "duration": 0.17647049999999354,
          "durationTicks": 96,
          "midi": 84,
          "name": "C6",
          "ticks": 39456,
          "time": 72.5293755,
          "velocity": 0.3937007874015748
        },
        {
          "duration": 0.17647050000000775,
          "durationTicks": 96,
          "midi": 75,
          "name": "D#5",
          "ticks": 39552,
          "time": 72.705846,
          "velocity": 0.3937007874015748
        },
        {
          "duration": 0.17647049999999354,
          "durationTicks": 96,
          "midi": 72,
          "name": "C5",
          "ticks": 39648,
          "time": 72.8823165,
          "velocity": 0.3937007874015748
        },
        {
          "duration": 0.17647050000000775,
          "durationTicks": 96,
          "midi": 79,
          "name": "G5",
          "ticks": 39744,
          "time": 73.058787,
          "velocity": 0.3937007874015748
        },
        {
          "duration": 0.17647049999999354,
          "durationTicks": 96,
          "midi": 75,
          "name": "D#5",
          "ticks": 39840,
          "time": 73.2352575,
          "velocity": 0.3937007874015748
        },
        {
          "duration": 0.17647050000000775,
          "durationTicks": 96,
          "midi": 68,
          "name": "G#4",
          "ticks": 39936,
          "time": 73.411728,
          "velocity": 0.3937007874015748
        },
        {
          "duration": 0.17647049999999354,
          "durationTicks": 96,
          "midi": 65,
          "name": "F4",
          "ticks": 40032,
          "time": 73.5881985,
          "velocity": 0.3937007874015748
        },
        {
          "duration": 0.17647050000000775,
          "durationTicks": 96,
          "midi": 72,
          "name": "C5",
          "ticks": 40128,
          "time": 73.764669,
          "velocity": 0.3937007874015748
        },
        {
          "duration": 0.17647049999999354,
          "durationTicks": 96,
          "midi": 68,
          "name": "G#4",
          "ticks": 40224,
          "time": 73.9411395,
          "velocity": 0.3937007874015748
        },
        {
          "duration": 0.17647050000000775,
          "durationTicks": 96,
          "midi": 75,
          "name": "D#5",
          "ticks": 40320,
          "time": 74.11761,
          "velocity": 0.3937007874015748
        },
        {
          "duration": 0.17647049999999354,
          "durationTicks": 96,
          "midi": 72,
          "name": "C5",
          "ticks": 40416,
          "time": 74.2940805,
          "velocity": 0.3937007874015748
        },
        {
          "duration": 0.17647049999999354,
          "durationTicks": 96,
          "midi": 87,
          "name": "D#6",
          "ticks": 40512,
          "time": 74.470551,
          "velocity": 0.3937007874015748
        },
        {
          "duration": 0.17647050000000775,
          "durationTicks": 96,
          "midi": 75,
          "name": "D#5",
          "ticks": 40608,
          "time": 74.6470215,
          "velocity": 0.3937007874015748
        },
        {
          "duration": 0.17647049999999354,
          "durationTicks": 96,
          "midi": 73,
          "name": "C#5",
          "ticks": 40704,
          "time": 74.823492,
          "velocity": 0.3937007874015748
        },
        {
          "duration": 0.17647050000000775,
          "durationTicks": 96,
          "midi": 70,
          "name": "A#4",
          "ticks": 40800,
          "time": 74.9999625,
          "velocity": 0.3937007874015748
        },
        {
          "duration": 0.17647049999999354,
          "durationTicks": 96,
          "midi": 77,
          "name": "F5",
          "ticks": 40896,
          "time": 75.176433,
          "velocity": 0.3937007874015748
        },
        {
          "duration": 0.17647050000000775,
          "durationTicks": 96,
          "midi": 73,
          "name": "C#5",
          "ticks": 40992,
          "time": 75.3529035,
          "velocity": 0.3937007874015748
        },
        {
          "duration": 0.17647049999999354,
          "durationTicks": 96,
          "midi": 80,
          "name": "G#5",
          "ticks": 41088,
          "time": 75.529374,
          "velocity": 0.3937007874015748
        },
        {
          "duration": 0.17647050000000775,
          "durationTicks": 96,
          "midi": 77,
          "name": "F5",
          "ticks": 41184,
          "time": 75.7058445,
          "velocity": 0.3937007874015748
        },
        {
          "duration": 0.17647049999999354,
          "durationTicks": 96,
          "midi": 72,
          "name": "C5",
          "ticks": 41280,
          "time": 75.882315,
          "velocity": 0.3937007874015748
        },
        {
          "duration": 0.17647050000000775,
          "durationTicks": 96,
          "midi": 68,
          "name": "G#4",
          "ticks": 41376,
          "time": 76.0587855,
          "velocity": 0.3937007874015748
        },
        {
          "duration": 0.17647049999999354,
          "durationTicks": 96,
          "midi": 75,
          "name": "D#5",
          "ticks": 41472,
          "time": 76.235256,
          "velocity": 0.3937007874015748
        },
        {
          "duration": 0.17647050000000775,
          "durationTicks": 96,
          "midi": 72,
          "name": "C5",
          "ticks": 41568,
          "time": 76.4117265,
          "velocity": 0.3937007874015748
        },
        {
          "duration": 0.17647049999999354,
          "durationTicks": 96,
          "midi": 79,
          "name": "G5",
          "ticks": 41664,
          "time": 76.58819700000001,
          "velocity": 0.3937007874015748
        },
        {
          "duration": 0.17647049999999354,
          "durationTicks": 96,
          "midi": 75,
          "name": "D#5",
          "ticks": 41760,
          "time": 76.7646675,
          "velocity": 0.3937007874015748
        },
        {
          "duration": 0.17647050000000775,
          "durationTicks": 96,
          "midi": 80,
          "name": "G#5",
          "ticks": 41856,
          "time": 76.941138,
          "velocity": 0.3937007874015748
        },
        {
          "duration": 0.17647049999999354,
          "durationTicks": 96,
          "midi": 72,
          "name": "C5",
          "ticks": 41952,
          "time": 77.1176085,
          "velocity": 0.3937007874015748
        },
        {
          "duration": 0.17647050000000775,
          "durationTicks": 96,
          "midi": 68,
          "name": "G#4",
          "ticks": 42048,
          "time": 77.294079,
          "velocity": 0.3937007874015748
        },
        {
          "duration": 0.17647049999999354,
          "durationTicks": 96,
          "midi": 75,
          "name": "D#5",
          "ticks": 42144,
          "time": 77.4705495,
          "velocity": 0.3937007874015748
        },
        {
          "duration": 0.17647050000000775,
          "durationTicks": 96,
          "midi": 72,
          "name": "C5",
          "ticks": 42240,
          "time": 77.64702,
          "velocity": 0.3937007874015748
        },
        {
          "duration": 0.17647049999999354,
          "durationTicks": 96,
          "midi": 79,
          "name": "G5",
          "ticks": 42336,
          "time": 77.8234905,
          "velocity": 0.3937007874015748
        },
        {
          "duration": 0.17647050000000775,
          "durationTicks": 96,
          "midi": 75,
          "name": "D#5",
          "ticks": 42432,
          "time": 77.999961,
          "velocity": 0.3937007874015748
        },
        {
          "duration": 0.17647049999999354,
          "durationTicks": 96,
          "midi": 80,
          "name": "G#5",
          "ticks": 42528,
          "time": 78.1764315,
          "velocity": 0.3937007874015748
        },
        {
          "duration": 0.17647050000000775,
          "durationTicks": 96,
          "midi": 72,
          "name": "C5",
          "ticks": 42624,
          "time": 78.352902,
          "velocity": 0.3937007874015748
        },
        {
          "duration": 0.17647049999999354,
          "durationTicks": 96,
          "midi": 68,
          "name": "G#4",
          "ticks": 42720,
          "time": 78.52937250000001,
          "velocity": 0.3937007874015748
        },
        {
          "duration": 0.17647049999999354,
          "durationTicks": 96,
          "midi": 75,
          "name": "D#5",
          "ticks": 42816,
          "time": 78.705843,
          "velocity": 0.3937007874015748
        },
        {
          "duration": 0.17647050000000775,
          "durationTicks": 96,
          "midi": 72,
          "name": "C5",
          "ticks": 42912,
          "time": 78.8823135,
          "velocity": 0.3937007874015748
        },
        {
          "duration": 0.17647049999999354,
          "durationTicks": 96,
          "midi": 68,
          "name": "G#4",
          "ticks": 43008,
          "time": 79.058784,
          "velocity": 0.3937007874015748
        },
        {
          "duration": 0.17647050000000775,
          "durationTicks": 96,
          "midi": 65,
          "name": "F4",
          "ticks": 43104,
          "time": 79.2352545,
          "velocity": 0.3937007874015748
        },
        {
          "duration": 0.17647049999999354,
          "durationTicks": 96,
          "midi": 72,
          "name": "C5",
          "ticks": 43200,
          "time": 79.411725,
          "velocity": 0.3937007874015748
        },
        {
          "duration": 0.17647050000000775,
          "durationTicks": 96,
          "midi": 68,
          "name": "G#4",
          "ticks": 43296,
          "time": 79.5881955,
          "velocity": 0.3937007874015748
        },
        {
          "duration": 0.17647049999999354,
          "durationTicks": 96,
          "midi": 75,
          "name": "D#5",
          "ticks": 43392,
          "time": 79.764666,
          "velocity": 0.3937007874015748
        },
        {
          "duration": 0.17647050000000775,
          "durationTicks": 96,
          "midi": 72,
          "name": "C5",
          "ticks": 43488,
          "time": 79.9411365,
          "velocity": 0.3937007874015748
        },
        {
          "duration": 0.17647049999999354,
          "durationTicks": 96,
          "midi": 84,
          "name": "C6",
          "ticks": 43584,
          "time": 80.117607,
          "velocity": 0.3937007874015748
        },
        {
          "duration": 0.17647050000000775,
          "durationTicks": 96,
          "midi": 75,
          "name": "D#5",
          "ticks": 43680,
          "time": 80.2940775,
          "velocity": 0.3937007874015748
        },
        {
          "duration": 0.17647049999999354,
          "durationTicks": 96,
          "midi": 72,
          "name": "C5",
          "ticks": 43776,
          "time": 80.47054800000001,
          "velocity": 0.3937007874015748
        },
        {
          "duration": 0.17647049999999354,
          "durationTicks": 96,
          "midi": 68,
          "name": "G#4",
          "ticks": 43872,
          "time": 80.6470185,
          "velocity": 0.3937007874015748
        },
        {
          "duration": 0.17647050000000775,
          "durationTicks": 96,
          "midi": 75,
          "name": "D#5",
          "ticks": 43968,
          "time": 80.823489,
          "velocity": 0.3937007874015748
        },
        {
          "duration": 0.17647049999999354,
          "durationTicks": 96,
          "midi": 72,
          "name": "C5",
          "ticks": 44064,
          "time": 80.9999595,
          "velocity": 0.3937007874015748
        },
        {
          "duration": 0.17647050000000775,
          "durationTicks": 96,
          "midi": 79,
          "name": "G5",
          "ticks": 44160,
          "time": 81.17643,
          "velocity": 0.3937007874015748
        },
        {
          "duration": 0.17647049999999354,
          "durationTicks": 96,
          "midi": 75,
          "name": "D#5",
          "ticks": 44256,
          "time": 81.3529005,
          "velocity": 0.3937007874015748
        },
        {
          "duration": 0.17647050000000775,
          "durationTicks": 96,
          "midi": 75,
          "name": "D#5",
          "ticks": 44352,
          "time": 81.529371,
          "velocity": 0.3937007874015748
        },
        {
          "duration": 0.17647049999999354,
          "durationTicks": 96,
          "midi": 72,
          "name": "C5",
          "ticks": 44448,
          "time": 81.7058415,
          "velocity": 0.3937007874015748
        },
        {
          "duration": 0.17647050000000775,
          "durationTicks": 96,
          "midi": 77,
          "name": "F5",
          "ticks": 44544,
          "time": 81.882312,
          "velocity": 0.3937007874015748
        },
        {
          "duration": 0.17647049999999354,
          "durationTicks": 96,
          "midi": 75,
          "name": "D#5",
          "ticks": 44640,
          "time": 82.0587825,
          "velocity": 0.3937007874015748
        },
        {
          "duration": 0.17647050000000775,
          "durationTicks": 96,
          "midi": 79,
          "name": "G5",
          "ticks": 44736,
          "time": 82.235253,
          "velocity": 0.3937007874015748
        },
        {
          "duration": 0.17647049999999354,
          "durationTicks": 96,
          "midi": 77,
          "name": "F5",
          "ticks": 44832,
          "time": 82.41172350000001,
          "velocity": 0.3937007874015748
        },
        {
          "duration": 0.17647049999999354,
          "durationTicks": 96,
          "midi": 82,
          "name": "A#5",
          "ticks": 44928,
          "time": 82.588194,
          "velocity": 0.3937007874015748
        },
        {
          "duration": 0.17647050000000775,
          "durationTicks": 96,
          "midi": 75,
          "name": "D#5",
          "ticks": 45024,
          "time": 82.7646645,
          "velocity": 0.3937007874015748
        },
        {
          "duration": 0.17647049999999354,
          "durationTicks": 96,
          "midi": 72,
          "name": "C5",
          "ticks": 45120,
          "time": 82.941135,
          "velocity": 0.3937007874015748
        },
        {
          "duration": 0.17647050000000775,
          "durationTicks": 96,
          "midi": 77,
          "name": "F5",
          "ticks": 45216,
          "time": 83.1176055,
          "velocity": 0.3937007874015748
        },
        {
          "duration": 0.17647049999999354,
          "durationTicks": 96,
          "midi": 75,
          "name": "D#5",
          "ticks": 45312,
          "time": 83.294076,
          "velocity": 0.3937007874015748
        },
        {
          "duration": 0.17647050000000775,
          "durationTicks": 96,
          "midi": 79,
          "name": "G5",
          "ticks": 45408,
          "time": 83.4705465,
          "velocity": 0.3937007874015748
        },
        {
          "duration": 0.17647049999999354,
          "durationTicks": 96,
          "midi": 77,
          "name": "F5",
          "ticks": 45504,
          "time": 83.647017,
          "velocity": 0.3937007874015748
        },
        {
          "duration": 0.17647050000000775,
          "durationTicks": 96,
          "midi": 82,
          "name": "A#5",
          "ticks": 45600,
          "time": 83.8234875,
          "velocity": 0.3937007874015748
        },
        {
          "duration": 0.17647049999999354,
          "durationTicks": 96,
          "midi": 75,
          "name": "D#5",
          "ticks": 45696,
          "time": 83.999958,
          "velocity": 0.3937007874015748
        },
        {
          "duration": 0.17647050000000775,
          "durationTicks": 96,
          "midi": 72,
          "name": "C5",
          "ticks": 45792,
          "time": 84.1764285,
          "velocity": 0.3937007874015748
        },
        {
          "duration": 0.17647049999999354,
          "durationTicks": 96,
          "midi": 77,
          "name": "F5",
          "ticks": 45888,
          "time": 84.35289900000001,
          "velocity": 0.3937007874015748
        },
        {
          "duration": 0.17647049999999354,
          "durationTicks": 96,
          "midi": 75,
          "name": "D#5",
          "ticks": 45984,
          "time": 84.5293695,
          "velocity": 0.3937007874015748
        },
        {
          "duration": 0.17647050000000775,
          "durationTicks": 96,
          "midi": 68,
          "name": "G#4",
          "ticks": 46080,
          "time": 84.70584,
          "velocity": 0.3937007874015748
        },
        {
          "duration": 0.17647049999999354,
          "durationTicks": 96,
          "midi": 65,
          "name": "F4",
          "ticks": 46176,
          "time": 84.8823105,
          "velocity": 0.3937007874015748
        },
        {
          "duration": 0.17647050000000775,
          "durationTicks": 96,
          "midi": 72,
          "name": "C5",
          "ticks": 46272,
          "time": 85.058781,
          "velocity": 0.3937007874015748
        },
        {
          "duration": 0.17647049999999354,
          "durationTicks": 96,
          "midi": 68,
          "name": "G#4",
          "ticks": 46368,
          "time": 85.2352515,
          "velocity": 0.3937007874015748
        },
        {
          "duration": 0.17647050000000775,
          "durationTicks": 96,
          "midi": 75,
          "name": "D#5",
          "ticks": 46464,
          "time": 85.411722,
          "velocity": 0.3937007874015748
        },
        {
          "duration": 0.17647049999999354,
          "durationTicks": 96,
          "midi": 72,
          "name": "C5",
          "ticks": 46560,
          "time": 85.5881925,
          "velocity": 0.3937007874015748
        },
        {
          "duration": 0.17647050000000775,
          "durationTicks": 96,
          "midi": 80,
          "name": "G#5",
          "ticks": 46656,
          "time": 85.764663,
          "velocity": 0.3937007874015748
        },
        {
          "duration": 0.17647049999999354,
          "durationTicks": 96,
          "midi": 75,
          "name": "D#5",
          "ticks": 46752,
          "time": 85.9411335,
          "velocity": 0.3937007874015748
        },
        {
          "duration": 0.17647050000000775,
          "durationTicks": 96,
          "midi": 73,
          "name": "C#5",
          "ticks": 46848,
          "time": 86.117604,
          "velocity": 0.3937007874015748
        },
        {
          "duration": 0.17647049999999354,
          "durationTicks": 96,
          "midi": 70,
          "name": "A#4",
          "ticks": 46944,
          "time": 86.29407450000001,
          "velocity": 0.3937007874015748
        },
        {
          "duration": 0.17647049999999354,
          "durationTicks": 96,
          "midi": 77,
          "name": "F5",
          "ticks": 47040,
          "time": 86.470545,
          "velocity": 0.3937007874015748
        },
        {
          "duration": 0.17647050000000775,
          "durationTicks": 96,
          "midi": 73,
          "name": "C#5",
          "ticks": 47136,
          "time": 86.6470155,
          "velocity": 0.3937007874015748
        },
        {
          "duration": 0.17647049999999354,
          "durationTicks": 96,
          "midi": 79,
          "name": "G5",
          "ticks": 47232,
          "time": 86.823486,
          "velocity": 0.3937007874015748
        },
        {
          "duration": 0.17647050000000775,
          "durationTicks": 96,
          "midi": 77,
          "name": "F5",
          "ticks": 47328,
          "time": 86.9999565,
          "velocity": 0.3937007874015748
        },
        {
          "duration": 0.17647049999999354,
          "durationTicks": 96,
          "midi": 72,
          "name": "C5",
          "ticks": 47424,
          "time": 87.176427,
          "velocity": 0.3937007874015748
        },
        {
          "duration": 0.17647050000000775,
          "durationTicks": 96,
          "midi": 68,
          "name": "G#4",
          "ticks": 47520,
          "time": 87.3528975,
          "velocity": 0.3937007874015748
        },
        {
          "duration": 0.17647049999999354,
          "durationTicks": 96,
          "midi": 75,
          "name": "D#5",
          "ticks": 47616,
          "time": 87.529368,
          "velocity": 0.3937007874015748
        },
        {
          "duration": 0.17647050000000775,
          "durationTicks": 96,
          "midi": 72,
          "name": "C5",
          "ticks": 47712,
          "time": 87.7058385,
          "velocity": 0.3937007874015748
        },
        {
          "duration": 0.17647049999999354,
          "durationTicks": 96,
          "midi": 77,
          "name": "F5",
          "ticks": 47808,
          "time": 87.882309,
          "velocity": 0.3937007874015748
        },
        {
          "duration": 0.17647050000000775,
          "durationTicks": 96,
          "midi": 75,
          "name": "D#5",
          "ticks": 47904,
          "time": 88.0587795,
          "velocity": 0.3937007874015748
        },
        {
          "duration": 0.17647049999999354,
          "durationTicks": 96,
          "midi": 79,
          "name": "G5",
          "ticks": 48000,
          "time": 88.23525000000001,
          "velocity": 0.3937007874015748
        },
        {
          "duration": 0.17647049999999354,
          "durationTicks": 96,
          "midi": 72,
          "name": "C5",
          "ticks": 48096,
          "time": 88.4117205,
          "velocity": 0.3937007874015748
        },
        {
          "duration": 0.17647050000000775,
          "durationTicks": 96,
          "midi": 68,
          "name": "G#4",
          "ticks": 48192,
          "time": 88.588191,
          "velocity": 0.3937007874015748
        },
        {
          "duration": 0.17647049999999354,
          "durationTicks": 96,
          "midi": 75,
          "name": "D#5",
          "ticks": 48288,
          "time": 88.7646615,
          "velocity": 0.3937007874015748
        },
        {
          "duration": 0.17647050000000775,
          "durationTicks": 96,
          "midi": 72,
          "name": "C5",
          "ticks": 48384,
          "time": 88.941132,
          "velocity": 0.3937007874015748
        },
        {
          "duration": 0.17647049999999354,
          "durationTicks": 96,
          "midi": 77,
          "name": "F5",
          "ticks": 48480,
          "time": 89.1176025,
          "velocity": 0.3937007874015748
        },
        {
          "duration": 0.17647050000000775,
          "durationTicks": 96,
          "midi": 75,
          "name": "D#5",
          "ticks": 48576,
          "time": 89.294073,
          "velocity": 0.3937007874015748
        },
        {
          "duration": 0.17647049999999354,
          "durationTicks": 96,
          "midi": 79,
          "name": "G5",
          "ticks": 48672,
          "time": 89.4705435,
          "velocity": 0.3937007874015748
        },
        {
          "duration": 0.17647050000000775,
          "durationTicks": 96,
          "midi": 72,
          "name": "C5",
          "ticks": 48768,
          "time": 89.647014,
          "velocity": 0.3937007874015748
        },
        {
          "duration": 0.17647049999999354,
          "durationTicks": 96,
          "midi": 68,
          "name": "G#4",
          "ticks": 48864,
          "time": 89.8234845,
          "velocity": 0.3937007874015748
        },
        {
          "duration": 0.17647050000000775,
          "durationTicks": 96,
          "midi": 75,
          "name": "D#5",
          "ticks": 48960,
          "time": 89.999955,
          "velocity": 0.3937007874015748
        },
        {
          "duration": 0.17647049999999354,
          "durationTicks": 96,
          "midi": 72,
          "name": "C5",
          "ticks": 49056,
          "time": 90.17642550000001,
          "velocity": 0.3937007874015748
        },
        {
          "duration": 0.17647049999999354,
          "durationTicks": 96,
          "midi": 68,
          "name": "G#4",
          "ticks": 49152,
          "time": 90.352896,
          "velocity": 0.3937007874015748
        },
        {
          "duration": 0.17647050000000775,
          "durationTicks": 96,
          "midi": 65,
          "name": "F4",
          "ticks": 49248,
          "time": 90.5293665,
          "velocity": 0.3937007874015748
        },
        {
          "duration": 0.17647049999999354,
          "durationTicks": 96,
          "midi": 72,
          "name": "C5",
          "ticks": 49344,
          "time": 90.705837,
          "velocity": 0.3937007874015748
        },
        {
          "duration": 0.17647050000000775,
          "durationTicks": 96,
          "midi": 68,
          "name": "G#4",
          "ticks": 49440,
          "time": 90.8823075,
          "velocity": 0.3937007874015748
        },
        {
          "duration": 0.17647049999999354,
          "durationTicks": 96,
          "midi": 75,
          "name": "D#5",
          "ticks": 49536,
          "time": 91.058778,
          "velocity": 0.3937007874015748
        },
        {
          "duration": 0.17647050000000775,
          "durationTicks": 96,
          "midi": 72,
          "name": "C5",
          "ticks": 49632,
          "time": 91.2352485,
          "velocity": 0.3937007874015748
        },
        {
          "duration": 0.17647049999999354,
          "durationTicks": 96,
          "midi": 80,
          "name": "G#5",
          "ticks": 49728,
          "time": 91.411719,
          "velocity": 0.3937007874015748
        },
        {
          "duration": 0.17647050000000775,
          "durationTicks": 96,
          "midi": 75,
          "name": "D#5",
          "ticks": 49824,
          "time": 91.5881895,
          "velocity": 0.3937007874015748
        },
        {
          "duration": 0.17647049999999354,
          "durationTicks": 96,
          "midi": 72,
          "name": "C5",
          "ticks": 49920,
          "time": 91.76466,
          "velocity": 0.3937007874015748
        },
        {
          "duration": 0.17647050000000775,
          "durationTicks": 96,
          "midi": 68,
          "name": "G#4",
          "ticks": 50016,
          "time": 91.9411305,
          "velocity": 0.3937007874015748
        },
        {
          "duration": 0.17647049999999354,
          "durationTicks": 96,
          "midi": 75,
          "name": "D#5",
          "ticks": 50112,
          "time": 92.11760100000001,
          "velocity": 0.3937007874015748
        },
        {
          "duration": 0.17647049999999354,
          "durationTicks": 96,
          "midi": 72,
          "name": "C5",
          "ticks": 50208,
          "time": 92.2940715,
          "velocity": 0.3937007874015748
        },
        {
          "duration": 0.17647050000000775,
          "durationTicks": 96,
          "midi": 79,
          "name": "G5",
          "ticks": 50304,
          "time": 92.470542,
          "velocity": 0.3937007874015748
        },
        {
          "duration": 0.17647049999999354,
          "durationTicks": 96,
          "midi": 75,
          "name": "D#5",
          "ticks": 50400,
          "time": 92.6470125,
          "velocity": 0.3937007874015748
        },
        {
          "duration": 0.17647050000000775,
          "durationTicks": 96,
          "midi": 75,
          "name": "D#5",
          "ticks": 50496,
          "time": 92.823483,
          "velocity": 0.3937007874015748
        },
        {
          "duration": 0.17647049999999354,
          "durationTicks": 96,
          "midi": 72,
          "name": "C5",
          "ticks": 50592,
          "time": 92.9999535,
          "velocity": 0.3937007874015748
        },
        {
          "duration": 0.17647050000000775,
          "durationTicks": 96,
          "midi": 79,
          "name": "G5",
          "ticks": 50688,
          "time": 93.176424,
          "velocity": 0.3937007874015748
        },
        {
          "duration": 0.17647049999999354,
          "durationTicks": 96,
          "midi": 75,
          "name": "D#5",
          "ticks": 50784,
          "time": 93.3528945,
          "velocity": 0.3937007874015748
        },
        {
          "duration": 0.17647050000000775,
          "durationTicks": 96,
          "midi": 82,
          "name": "A#5",
          "ticks": 50880,
          "time": 93.529365,
          "velocity": 0.3937007874015748
        },
        {
          "duration": 0.17647049999999354,
          "durationTicks": 96,
          "midi": 79,
          "name": "G5",
          "ticks": 50976,
          "time": 93.7058355,
          "velocity": 0.3937007874015748
        },
        {
          "duration": 0.17647050000000775,
          "durationTicks": 96,
          "midi": 84,
          "name": "C6",
          "ticks": 51072,
          "time": 93.882306,
          "velocity": 0.3937007874015748
        },
        {
          "duration": 0.17647049999999354,
          "durationTicks": 96,
          "midi": 75,
          "name": "D#5",
          "ticks": 51168,
          "time": 94.05877650000001,
          "velocity": 0.3937007874015748
        },
        {
          "duration": 0.17647049999999354,
          "durationTicks": 96,
          "midi": 72,
          "name": "C5",
          "ticks": 51264,
          "time": 94.235247,
          "velocity": 0.3937007874015748
        },
        {
          "duration": 0.17647050000000775,
          "durationTicks": 96,
          "midi": 79,
          "name": "G5",
          "ticks": 51360,
          "time": 94.4117175,
          "velocity": 0.3937007874015748
        },
        {
          "duration": 0.17647049999999354,
          "durationTicks": 96,
          "midi": 75,
          "name": "D#5",
          "ticks": 51456,
          "time": 94.588188,
          "velocity": 0.3937007874015748
        },
        {
          "duration": 0.17647050000000775,
          "durationTicks": 96,
          "midi": 82,
          "name": "A#5",
          "ticks": 51552,
          "time": 94.7646585,
          "velocity": 0.3937007874015748
        },
        {
          "duration": 0.17647049999999354,
          "durationTicks": 96,
          "midi": 79,
          "name": "G5",
          "ticks": 51648,
          "time": 94.941129,
          "velocity": 0.3937007874015748
        },
        {
          "duration": 0.17647050000000775,
          "durationTicks": 96,
          "midi": 84,
          "name": "C6",
          "ticks": 51744,
          "time": 95.1175995,
          "velocity": 0.3937007874015748
        },
        {
          "duration": 0.17647049999999354,
          "durationTicks": 96,
          "midi": 75,
          "name": "D#5",
          "ticks": 51840,
          "time": 95.29407,
          "velocity": 0.3937007874015748
        },
        {
          "duration": 0.17647050000000775,
          "durationTicks": 96,
          "midi": 72,
          "name": "C5",
          "ticks": 51936,
          "time": 95.4705405,
          "velocity": 0.3937007874015748
        },
        {
          "duration": 0.17647049999999354,
          "durationTicks": 96,
          "midi": 79,
          "name": "G5",
          "ticks": 52032,
          "time": 95.647011,
          "velocity": 0.3937007874015748
        },
        {
          "duration": 0.17647050000000775,
          "durationTicks": 96,
          "midi": 75,
          "name": "D#5",
          "ticks": 52128,
          "time": 95.8234815,
          "velocity": 0.3937007874015748
        },
        {
          "duration": 0.17647049999999354,
          "durationTicks": 96,
          "midi": 68,
          "name": "G#4",
          "ticks": 52224,
          "time": 95.99995200000001,
          "velocity": 0.3937007874015748
        },
        {
          "duration": 0.17647049999999354,
          "durationTicks": 96,
          "midi": 65,
          "name": "F4",
          "ticks": 52320,
          "time": 96.1764225,
          "velocity": 0.3937007874015748
        },
        {
          "duration": 0.17647050000000775,
          "durationTicks": 96,
          "midi": 72,
          "name": "C5",
          "ticks": 52416,
          "time": 96.352893,
          "velocity": 0.3937007874015748
        },
        {
          "duration": 0.17647049999999354,
          "durationTicks": 96,
          "midi": 68,
          "name": "G#4",
          "ticks": 52512,
          "time": 96.5293635,
          "velocity": 0.3937007874015748
        },
        {
          "duration": 0.17647050000000775,
          "durationTicks": 96,
          "midi": 75,
          "name": "D#5",
          "ticks": 52608,
          "time": 96.705834,
          "velocity": 0.3937007874015748
        },
        {
          "duration": 0.17647049999999354,
          "durationTicks": 96,
          "midi": 72,
          "name": "C5",
          "ticks": 52704,
          "time": 96.8823045,
          "velocity": 0.3937007874015748
        },
        {
          "duration": 0.17647050000000775,
          "durationTicks": 96,
          "midi": 87,
          "name": "D#6",
          "ticks": 52800,
          "time": 97.058775,
          "velocity": 0.3937007874015748
        },
        {
          "duration": 0.17647049999999354,
          "durationTicks": 96,
          "midi": 75,
          "name": "D#5",
          "ticks": 52896,
          "time": 97.2352455,
          "velocity": 0.3937007874015748
        },
        {
          "duration": 0.17647050000000775,
          "durationTicks": 96,
          "midi": 73,
          "name": "C#5",
          "ticks": 52992,
          "time": 97.411716,
          "velocity": 0.3937007874015748
        },
        {
          "duration": 0.17647049999999354,
          "durationTicks": 96,
          "midi": 70,
          "name": "A#4",
          "ticks": 53088,
          "time": 97.5881865,
          "velocity": 0.3937007874015748
        },
        {
          "duration": 0.17647050000000775,
          "durationTicks": 96,
          "midi": 77,
          "name": "F5",
          "ticks": 53184,
          "time": 97.764657,
          "velocity": 0.3937007874015748
        },
        {
          "duration": 0.17647049999999354,
          "durationTicks": 96,
          "midi": 73,
          "name": "C#5",
          "ticks": 53280,
          "time": 97.94112750000001,
          "velocity": 0.3937007874015748
        },
        {
          "duration": 0.17647049999999354,
          "durationTicks": 96,
          "midi": 80,
          "name": "G#5",
          "ticks": 53376,
          "time": 98.117598,
          "velocity": 0.3937007874015748
        },
        {
          "duration": 0.17647050000000775,
          "durationTicks": 96,
          "midi": 77,
          "name": "F5",
          "ticks": 53472,
          "time": 98.2940685,
          "velocity": 0.3937007874015748
        },
        {
          "duration": 0.17647049999999354,
          "durationTicks": 96,
          "midi": 72,
          "name": "C5",
          "ticks": 53568,
          "time": 98.470539,
          "velocity": 0.3937007874015748
        },
        {
          "duration": 0.17647050000000775,
          "durationTicks": 96,
          "midi": 68,
          "name": "G#4",
          "ticks": 53664,
          "time": 98.6470095,
          "velocity": 0.3937007874015748
        },
        {
          "duration": 0.17647049999999354,
          "durationTicks": 96,
          "midi": 75,
          "name": "D#5",
          "ticks": 53760,
          "time": 98.82348,
          "velocity": 0.3937007874015748
        },
        {
          "duration": 0.17647050000000775,
          "durationTicks": 96,
          "midi": 72,
          "name": "C5",
          "ticks": 53856,
          "time": 98.9999505,
          "velocity": 0.3937007874015748
        },
        {
          "duration": 0.17647049999999354,
          "durationTicks": 96,
          "midi": 79,
          "name": "G5",
          "ticks": 53952,
          "time": 99.176421,
          "velocity": 0.3937007874015748
        },
        {
          "duration": 0.17647050000000775,
          "durationTicks": 96,
          "midi": 75,
          "name": "D#5",
          "ticks": 54048,
          "time": 99.3528915,
          "velocity": 0.3937007874015748
        },
        {
          "duration": 0.17647049999999354,
          "durationTicks": 96,
          "midi": 80,
          "name": "G#5",
          "ticks": 54144,
          "time": 99.529362,
          "velocity": 0.3937007874015748
        },
        {
          "duration": 0.17647050000000775,
          "durationTicks": 96,
          "midi": 72,
          "name": "C5",
          "ticks": 54240,
          "time": 99.7058325,
          "velocity": 0.3937007874015748
        },
        {
          "duration": 0.17647049999999354,
          "durationTicks": 96,
          "midi": 68,
          "name": "G#4",
          "ticks": 54336,
          "time": 99.88230300000001,
          "velocity": 0.3937007874015748
        },
        {
          "duration": 0.17647049999999354,
          "durationTicks": 96,
          "midi": 75,
          "name": "D#5",
          "ticks": 54432,
          "time": 100.0587735,
          "velocity": 0.3937007874015748
        },
        {
          "duration": 0.17647050000000775,
          "durationTicks": 96,
          "midi": 72,
          "name": "C5",
          "ticks": 54528,
          "time": 100.235244,
          "velocity": 0.3937007874015748
        },
        {
          "duration": 0.17647049999999354,
          "durationTicks": 96,
          "midi": 79,
          "name": "G5",
          "ticks": 54624,
          "time": 100.4117145,
          "velocity": 0.3937007874015748
        },
        {
          "duration": 0.17647050000000775,
          "durationTicks": 96,
          "midi": 75,
          "name": "D#5",
          "ticks": 54720,
          "time": 100.588185,
          "velocity": 0.3937007874015748
        },
        {
          "duration": 0.17647049999999354,
          "durationTicks": 96,
          "midi": 80,
          "name": "G#5",
          "ticks": 54816,
          "time": 100.7646555,
          "velocity": 0.3937007874015748
        },
        {
          "duration": 0.17647050000000775,
          "durationTicks": 96,
          "midi": 72,
          "name": "C5",
          "ticks": 54912,
          "time": 100.941126,
          "velocity": 0.3937007874015748
        },
        {
          "duration": 0.17647049999999354,
          "durationTicks": 96,
          "midi": 68,
          "name": "G#4",
          "ticks": 55008,
          "time": 101.1175965,
          "velocity": 0.3937007874015748
        },
        {
          "duration": 0.17647050000000775,
          "durationTicks": 96,
          "midi": 75,
          "name": "D#5",
          "ticks": 55104,
          "time": 101.294067,
          "velocity": 0.3937007874015748
        },
        {
          "duration": 0.17647049999999354,
          "durationTicks": 96,
          "midi": 72,
          "name": "C5",
          "ticks": 55200,
          "time": 101.4705375,
          "velocity": 0.3937007874015748
        },
        {
          "duration": 0.17647050000000775,
          "durationTicks": 96,
          "midi": 68,
          "name": "G#4",
          "ticks": 55296,
          "time": 101.647008,
          "velocity": 0.3937007874015748
        },
        {
          "duration": 0.17647049999999354,
          "durationTicks": 96,
          "midi": 65,
          "name": "F4",
          "ticks": 55392,
          "time": 101.82347850000001,
          "velocity": 0.3937007874015748
        },
        {
          "duration": 0.17647049999999354,
          "durationTicks": 96,
          "midi": 72,
          "name": "C5",
          "ticks": 55488,
          "time": 101.999949,
          "velocity": 0.3937007874015748
        },
        {
          "duration": 0.17647050000000775,
          "durationTicks": 96,
          "midi": 68,
          "name": "G#4",
          "ticks": 55584,
          "time": 102.1764195,
          "velocity": 0.3937007874015748
        },
        {
          "duration": 0.17647049999999354,
          "durationTicks": 96,
          "midi": 75,
          "name": "D#5",
          "ticks": 55680,
          "time": 102.35289,
          "velocity": 0.3937007874015748
        },
        {
          "duration": 0.17647050000000775,
          "durationTicks": 96,
          "midi": 72,
          "name": "C5",
          "ticks": 55776,
          "time": 102.5293605,
          "velocity": 0.3937007874015748
        },
        {
          "duration": 0.17647049999999354,
          "durationTicks": 96,
          "midi": 84,
          "name": "C6",
          "ticks": 55872,
          "time": 102.705831,
          "velocity": 0.3937007874015748
        },
        {
          "duration": 0.17647050000000775,
          "durationTicks": 96,
          "midi": 75,
          "name": "D#5",
          "ticks": 55968,
          "time": 102.8823015,
          "velocity": 0.3937007874015748
        },
        {
          "duration": 0.17647049999999354,
          "durationTicks": 96,
          "midi": 72,
          "name": "C5",
          "ticks": 56064,
          "time": 103.058772,
          "velocity": 0.3937007874015748
        },
        {
          "duration": 0.17647050000000775,
          "durationTicks": 96,
          "midi": 68,
          "name": "G#4",
          "ticks": 56160,
          "time": 103.2352425,
          "velocity": 0.3937007874015748
        },
        {
          "duration": 0.17647049999999354,
          "durationTicks": 96,
          "midi": 75,
          "name": "D#5",
          "ticks": 56256,
          "time": 103.411713,
          "velocity": 0.3937007874015748
        },
        {
          "duration": 0.17647050000000775,
          "durationTicks": 96,
          "midi": 72,
          "name": "C5",
          "ticks": 56352,
          "time": 103.5881835,
          "velocity": 0.3937007874015748
        },
        {
          "duration": 0.17647049999999354,
          "durationTicks": 96,
          "midi": 79,
          "name": "G5",
          "ticks": 56448,
          "time": 103.76465400000001,
          "velocity": 0.3937007874015748
        },
        {
          "duration": 0.17647049999999354,
          "durationTicks": 96,
          "midi": 75,
          "name": "D#5",
          "ticks": 56544,
          "time": 103.9411245,
          "velocity": 0.3937007874015748
        },
        {
          "duration": 0.17647050000000775,
          "durationTicks": 96,
          "midi": 75,
          "name": "D#5",
          "ticks": 56640,
          "time": 104.117595,
          "velocity": 0.3937007874015748
        },
        {
          "duration": 0.17647049999999354,
          "durationTicks": 96,
          "midi": 72,
          "name": "C5",
          "ticks": 56736,
          "time": 104.2940655,
          "velocity": 0.3937007874015748
        },
        {
          "duration": 0.17647050000000775,
          "durationTicks": 96,
          "midi": 77,
          "name": "F5",
          "ticks": 56832,
          "time": 104.470536,
          "velocity": 0.3937007874015748
        },
        {
          "duration": 0.17647049999999354,
          "durationTicks": 96,
          "midi": 75,
          "name": "D#5",
          "ticks": 56928,
          "time": 104.6470065,
          "velocity": 0.3937007874015748
        },
        {
          "duration": 0.17647050000000775,
          "durationTicks": 96,
          "midi": 79,
          "name": "G5",
          "ticks": 57024,
          "time": 104.823477,
          "velocity": 0.3937007874015748
        },
        {
          "duration": 0.17647049999999354,
          "durationTicks": 96,
          "midi": 77,
          "name": "F5",
          "ticks": 57120,
          "time": 104.9999475,
          "velocity": 0.3937007874015748
        },
        {
          "duration": 0.17647050000000775,
          "durationTicks": 96,
          "midi": 82,
          "name": "A#5",
          "ticks": 57216,
          "time": 105.176418,
          "velocity": 0.3937007874015748
        },
        {
          "duration": 0.17647049999999354,
          "durationTicks": 96,
          "midi": 75,
          "name": "D#5",
          "ticks": 57312,
          "time": 105.3528885,
          "velocity": 0.3937007874015748
        },
        {
          "duration": 0.17647050000000775,
          "durationTicks": 96,
          "midi": 72,
          "name": "C5",
          "ticks": 57408,
          "time": 105.529359,
          "velocity": 0.3937007874015748
        },
        {
          "duration": 0.17647049999999354,
          "durationTicks": 96,
          "midi": 77,
          "name": "F5",
          "ticks": 57504,
          "time": 105.70582950000001,
          "velocity": 0.3937007874015748
        },
        {
          "duration": 0.17647050000000775,
          "durationTicks": 96,
          "midi": 75,
          "name": "D#5",
          "ticks": 57600,
          "time": 105.8823,
          "velocity": 0.3937007874015748
        },
        {
          "duration": 0.17647049999999354,
          "durationTicks": 96,
          "midi": 79,
          "name": "G5",
          "ticks": 57696,
          "time": 106.05877050000001,
          "velocity": 0.3937007874015748
        },
        {
          "duration": 0.17647049999999354,
          "durationTicks": 96,
          "midi": 77,
          "name": "F5",
          "ticks": 57792,
          "time": 106.235241,
          "velocity": 0.3937007874015748
        },
        {
          "duration": 0.17647050000000775,
          "durationTicks": 96,
          "midi": 82,
          "name": "A#5",
          "ticks": 57888,
          "time": 106.4117115,
          "velocity": 0.3937007874015748
        },
        {
          "duration": 0.17647049999999354,
          "durationTicks": 96,
          "midi": 75,
          "name": "D#5",
          "ticks": 57984,
          "time": 106.588182,
          "velocity": 0.3937007874015748
        },
        {
          "duration": 0.17647050000000775,
          "durationTicks": 96,
          "midi": 72,
          "name": "C5",
          "ticks": 58080,
          "time": 106.7646525,
          "velocity": 0.3937007874015748
        },
        {
          "duration": 0.17647049999999354,
          "durationTicks": 96,
          "midi": 77,
          "name": "F5",
          "ticks": 58176,
          "time": 106.941123,
          "velocity": 0.3937007874015748
        },
        {
          "duration": 0.17647050000000775,
          "durationTicks": 96,
          "midi": 75,
          "name": "D#5",
          "ticks": 58272,
          "time": 107.1175935,
          "velocity": 0.3937007874015748
        },
        {
          "duration": 0.17647049999999354,
          "durationTicks": 96,
          "midi": 68,
          "name": "G#4",
          "ticks": 58368,
          "time": 107.294064,
          "velocity": 0.3937007874015748
        },
        {
          "duration": 0.17647050000000775,
          "durationTicks": 96,
          "midi": 65,
          "name": "F4",
          "ticks": 58464,
          "time": 107.4705345,
          "velocity": 0.3937007874015748
        },
        {
          "duration": 0.17647049999999354,
          "durationTicks": 96,
          "midi": 72,
          "name": "C5",
          "ticks": 58560,
          "time": 107.64700500000001,
          "velocity": 0.3937007874015748
        },
        {
          "duration": 0.17647050000000775,
          "durationTicks": 96,
          "midi": 68,
          "name": "G#4",
          "ticks": 58656,
          "time": 107.8234755,
          "velocity": 0.3937007874015748
        },
        {
          "duration": 0.17647049999999354,
          "durationTicks": 96,
          "midi": 75,
          "name": "D#5",
          "ticks": 58752,
          "time": 107.99994600000001,
          "velocity": 0.3937007874015748
        },
        {
          "duration": 0.17647049999999354,
          "durationTicks": 96,
          "midi": 72,
          "name": "C5",
          "ticks": 58848,
          "time": 108.1764165,
          "velocity": 0.3937007874015748
        },
        {
          "duration": 0.17647050000000775,
          "durationTicks": 96,
          "midi": 80,
          "name": "G#5",
          "ticks": 58944,
          "time": 108.352887,
          "velocity": 0.3937007874015748
        },
        {
          "duration": 0.17647049999999354,
          "durationTicks": 96,
          "midi": 75,
          "name": "D#5",
          "ticks": 59040,
          "time": 108.5293575,
          "velocity": 0.3937007874015748
        },
        {
          "duration": 0.17647050000000775,
          "durationTicks": 96,
          "midi": 73,
          "name": "C#5",
          "ticks": 59136,
          "time": 108.705828,
          "velocity": 0.3937007874015748
        },
        {
          "duration": 0.17647049999999354,
          "durationTicks": 96,
          "midi": 70,
          "name": "A#4",
          "ticks": 59232,
          "time": 108.8822985,
          "velocity": 0.3937007874015748
        },
        {
          "duration": 0.17647050000000775,
          "durationTicks": 96,
          "midi": 77,
          "name": "F5",
          "ticks": 59328,
          "time": 109.058769,
          "velocity": 0.3937007874015748
        },
        {
          "duration": 0.17647049999999354,
          "durationTicks": 96,
          "midi": 73,
          "name": "C#5",
          "ticks": 59424,
          "time": 109.2352395,
          "velocity": 0.3937007874015748
        },
        {
          "duration": 0.17647050000000775,
          "durationTicks": 96,
          "midi": 79,
          "name": "G5",
          "ticks": 59520,
          "time": 109.41171,
          "velocity": 0.3937007874015748
        },
        {
          "duration": 0.17647049999999354,
          "durationTicks": 96,
          "midi": 77,
          "name": "F5",
          "ticks": 59616,
          "time": 109.5881805,
          "velocity": 0.3937007874015748
        },
        {
          "duration": 0.17647050000000775,
          "durationTicks": 96,
          "midi": 72,
          "name": "C5",
          "ticks": 59712,
          "time": 109.764651,
          "velocity": 0.3937007874015748
        },
        {
          "duration": 0.17647049999999354,
          "durationTicks": 96,
          "midi": 68,
          "name": "G#4",
          "ticks": 59808,
          "time": 109.94112150000001,
          "velocity": 0.3937007874015748
        },
        {
          "duration": 0.17647049999999354,
          "durationTicks": 96,
          "midi": 75,
          "name": "D#5",
          "ticks": 59904,
          "time": 110.117592,
          "velocity": 0.3937007874015748
        },
        {
          "duration": 0.17647050000000775,
          "durationTicks": 96,
          "midi": 72,
          "name": "C5",
          "ticks": 60000,
          "time": 110.2940625,
          "velocity": 0.3937007874015748
        },
        {
          "duration": 0.17647049999999354,
          "durationTicks": 96,
          "midi": 77,
          "name": "F5",
          "ticks": 60096,
          "time": 110.470533,
          "velocity": 0.3937007874015748
        },
        {
          "duration": 0.17647050000000775,
          "durationTicks": 96,
          "midi": 75,
          "name": "D#5",
          "ticks": 60192,
          "time": 110.6470035,
          "velocity": 0.3937007874015748
        },
        {
          "duration": 0.17647049999999354,
          "durationTicks": 96,
          "midi": 79,
          "name": "G5",
          "ticks": 60288,
          "time": 110.823474,
          "velocity": 0.3937007874015748
        },
        {
          "duration": 0.17647050000000775,
          "durationTicks": 96,
          "midi": 72,
          "name": "C5",
          "ticks": 60384,
          "time": 110.9999445,
          "velocity": 0.3937007874015748
        },
        {
          "duration": 0.17647049999999354,
          "durationTicks": 96,
          "midi": 68,
          "name": "G#4",
          "ticks": 60480,
          "time": 111.176415,
          "velocity": 0.3937007874015748
        },
        {
          "duration": 0.17647050000000775,
          "durationTicks": 96,
          "midi": 75,
          "name": "D#5",
          "ticks": 60576,
          "time": 111.3528855,
          "velocity": 0.3937007874015748
        },
        {
          "duration": 0.17647049999999354,
          "durationTicks": 96,
          "midi": 72,
          "name": "C5",
          "ticks": 60672,
          "time": 111.529356,
          "velocity": 0.3937007874015748
        },
        {
          "duration": 0.17647050000000775,
          "durationTicks": 96,
          "midi": 77,
          "name": "F5",
          "ticks": 60768,
          "time": 111.7058265,
          "velocity": 0.3937007874015748
        },
        {
          "duration": 0.17647049999999354,
          "durationTicks": 96,
          "midi": 75,
          "name": "D#5",
          "ticks": 60864,
          "time": 111.88229700000001,
          "velocity": 0.3937007874015748
        },
        {
          "duration": 0.17647049999999354,
          "durationTicks": 96,
          "midi": 79,
          "name": "G5",
          "ticks": 60960,
          "time": 112.0587675,
          "velocity": 0.3937007874015748
        },
        {
          "duration": 0.17647050000000775,
          "durationTicks": 96,
          "midi": 72,
          "name": "C5",
          "ticks": 61056,
          "time": 112.235238,
          "velocity": 0.3937007874015748
        },
        {
          "duration": 0.17647049999999354,
          "durationTicks": 96,
          "midi": 68,
          "name": "G#4",
          "ticks": 61152,
          "time": 112.4117085,
          "velocity": 0.3937007874015748
        },
        {
          "duration": 0.17647050000000775,
          "durationTicks": 96,
          "midi": 75,
          "name": "D#5",
          "ticks": 61248,
          "time": 112.588179,
          "velocity": 0.3937007874015748
        },
        {
          "duration": 0.17647049999999354,
          "durationTicks": 96,
          "midi": 72,
          "name": "C5",
          "ticks": 61344,
          "time": 112.7646495,
          "velocity": 0.3937007874015748
        },
        {
          "duration": 0.17647050000000775,
          "durationTicks": 96,
          "midi": 68,
          "name": "G#4",
          "ticks": 61440,
          "time": 112.94112,
          "velocity": 0.3937007874015748
        },
        {
          "duration": 0.17647049999999354,
          "durationTicks": 96,
          "midi": 65,
          "name": "F4",
          "ticks": 61536,
          "time": 113.1175905,
          "velocity": 0.3937007874015748
        },
        {
          "duration": 0.17647050000000775,
          "durationTicks": 96,
          "midi": 72,
          "name": "C5",
          "ticks": 61632,
          "time": 113.294061,
          "velocity": 0.3937007874015748
        },
        {
          "duration": 0.17647049999999354,
          "durationTicks": 96,
          "midi": 68,
          "name": "G#4",
          "ticks": 61728,
          "time": 113.4705315,
          "velocity": 0.3937007874015748
        },
        {
          "duration": 0.17647050000000775,
          "durationTicks": 96,
          "midi": 75,
          "name": "D#5",
          "ticks": 61824,
          "time": 113.647002,
          "velocity": 0.3937007874015748
        },
        {
          "duration": 0.17647049999999354,
          "durationTicks": 96,
          "midi": 72,
          "name": "C5",
          "ticks": 61920,
          "time": 113.82347250000001,
          "velocity": 0.3937007874015748
        },
        {
          "duration": 0.17647049999999354,
          "durationTicks": 96,
          "midi": 80,
          "name": "G#5",
          "ticks": 62016,
          "time": 113.999943,
          "velocity": 0.3937007874015748
        },
        {
          "duration": 0.17647050000000775,
          "durationTicks": 96,
          "midi": 75,
          "name": "D#5",
          "ticks": 62112,
          "time": 114.1764135,
          "velocity": 0.3937007874015748
        },
        {
          "duration": 0.17647049999999354,
          "durationTicks": 96,
          "midi": 72,
          "name": "C5",
          "ticks": 62208,
          "time": 114.352884,
          "velocity": 0.3937007874015748
        },
        {
          "duration": 0.17647050000000775,
          "durationTicks": 96,
          "midi": 68,
          "name": "G#4",
          "ticks": 62304,
          "time": 114.5293545,
          "velocity": 0.3937007874015748
        },
        {
          "duration": 0.17647049999999354,
          "durationTicks": 96,
          "midi": 75,
          "name": "D#5",
          "ticks": 62400,
          "time": 114.705825,
          "velocity": 0.3937007874015748
        },
        {
          "duration": 0.17647050000000775,
          "durationTicks": 96,
          "midi": 72,
          "name": "C5",
          "ticks": 62496,
          "time": 114.8822955,
          "velocity": 0.3937007874015748
        },
        {
          "duration": 0.17647049999999354,
          "durationTicks": 96,
          "midi": 79,
          "name": "G5",
          "ticks": 62592,
          "time": 115.058766,
          "velocity": 0.3937007874015748
        },
        {
          "duration": 0.17647050000000775,
          "durationTicks": 96,
          "midi": 75,
          "name": "D#5",
          "ticks": 62688,
          "time": 115.2352365,
          "velocity": 0.3937007874015748
        },
        {
          "duration": 0.17647049999999354,
          "durationTicks": 96,
          "midi": 75,
          "name": "D#5",
          "ticks": 62784,
          "time": 115.411707,
          "velocity": 0.3937007874015748
        },
        {
          "duration": 0.17647050000000775,
          "durationTicks": 96,
          "midi": 72,
          "name": "C5",
          "ticks": 62880,
          "time": 115.5881775,
          "velocity": 0.3937007874015748
        },
        {
          "duration": 0.17647049999999354,
          "durationTicks": 96,
          "midi": 79,
          "name": "G5",
          "ticks": 62976,
          "time": 115.76464800000001,
          "velocity": 0.3937007874015748
        },
        {
          "duration": 0.17647049999999354,
          "durationTicks": 96,
          "midi": 75,
          "name": "D#5",
          "ticks": 63072,
          "time": 115.9411185,
          "velocity": 0.3937007874015748
        },
        {
          "duration": 0.17647050000000775,
          "durationTicks": 96,
          "midi": 82,
          "name": "A#5",
          "ticks": 63168,
          "time": 116.117589,
          "velocity": 0.3937007874015748
        },
        {
          "duration": 0.17647049999999354,
          "durationTicks": 96,
          "midi": 79,
          "name": "G5",
          "ticks": 63264,
          "time": 116.2940595,
          "velocity": 0.3937007874015748
        },
        {
          "duration": 0.17647050000000775,
          "durationTicks": 96,
          "midi": 84,
          "name": "C6",
          "ticks": 63360,
          "time": 116.47053,
          "velocity": 0.3937007874015748
        },
        {
          "duration": 0.17647049999999354,
          "durationTicks": 96,
          "midi": 75,
          "name": "D#5",
          "ticks": 63456,
          "time": 116.6470005,
          "velocity": 0.3937007874015748
        },
        {
          "duration": 0.17647050000000775,
          "durationTicks": 96,
          "midi": 72,
          "name": "C5",
          "ticks": 63552,
          "time": 116.823471,
          "velocity": 0.3937007874015748
        },
        {
          "duration": 0.17647049999999354,
          "durationTicks": 96,
          "midi": 79,
          "name": "G5",
          "ticks": 63648,
          "time": 116.9999415,
          "velocity": 0.3937007874015748
        },
        {
          "duration": 0.17647050000000775,
          "durationTicks": 96,
          "midi": 75,
          "name": "D#5",
          "ticks": 63744,
          "time": 117.176412,
          "velocity": 0.3937007874015748
        },
        {
          "duration": 0.17647049999999354,
          "durationTicks": 96,
          "midi": 82,
          "name": "A#5",
          "ticks": 63840,
          "time": 117.3528825,
          "velocity": 0.3937007874015748
        },
        {
          "duration": 0.17647050000000775,
          "durationTicks": 96,
          "midi": 79,
          "name": "G5",
          "ticks": 63936,
          "time": 117.529353,
          "velocity": 0.3937007874015748
        },
        {
          "duration": 0.17647049999999354,
          "durationTicks": 96,
          "midi": 84,
          "name": "C6",
          "ticks": 64032,
          "time": 117.70582350000001,
          "velocity": 0.3937007874015748
        },
        {
          "duration": 0.17647049999999354,
          "durationTicks": 96,
          "midi": 75,
          "name": "D#5",
          "ticks": 64128,
          "time": 117.882294,
          "velocity": 0.3937007874015748
        },
        {
          "duration": 0.17647050000000775,
          "durationTicks": 96,
          "midi": 72,
          "name": "C5",
          "ticks": 64224,
          "time": 118.0587645,
          "velocity": 0.3937007874015748
        },
        {
          "duration": 0.17647049999999354,
          "durationTicks": 96,
          "midi": 79,
          "name": "G5",
          "ticks": 64320,
          "time": 118.235235,
          "velocity": 0.3937007874015748
        },
        {
          "duration": 0.17647050000000775,
          "durationTicks": 96,
          "midi": 75,
          "name": "D#5",
          "ticks": 64416,
          "time": 118.4117055,
          "velocity": 0.3937007874015748
        },
        {
          "duration": 0.17647049999999354,
          "durationTicks": 96,
          "midi": 68,
          "name": "G#4",
          "ticks": 64512,
          "time": 118.588176,
          "velocity": 0.3937007874015748
        },
        {
          "duration": 0.17647050000000775,
          "durationTicks": 96,
          "midi": 65,
          "name": "F4",
          "ticks": 64608,
          "time": 118.7646465,
          "velocity": 0.3937007874015748
        },
        {
          "duration": 0.17647049999999354,
          "durationTicks": 96,
          "midi": 72,
          "name": "C5",
          "ticks": 64704,
          "time": 118.941117,
          "velocity": 0.3937007874015748
        },
        {
          "duration": 0.17647050000000775,
          "durationTicks": 96,
          "midi": 68,
          "name": "G#4",
          "ticks": 64800,
          "time": 119.1175875,
          "velocity": 0.3937007874015748
        },
        {
          "duration": 0.17647049999999354,
          "durationTicks": 96,
          "midi": 75,
          "name": "D#5",
          "ticks": 64896,
          "time": 119.294058,
          "velocity": 0.3937007874015748
        },
        {
          "duration": 0.17647050000000775,
          "durationTicks": 96,
          "midi": 72,
          "name": "C5",
          "ticks": 64992,
          "time": 119.4705285,
          "velocity": 0.3937007874015748
        },
        {
          "duration": 0.17647049999999354,
          "durationTicks": 96,
          "midi": 87,
          "name": "D#6",
          "ticks": 65088,
          "time": 119.64699900000001,
          "velocity": 0.3937007874015748
        },
        {
          "duration": 0.17647049999999354,
          "durationTicks": 96,
          "midi": 75,
          "name": "D#5",
          "ticks": 65184,
          "time": 119.8234695,
          "velocity": 0.3937007874015748
        },
        {
          "duration": 0.17647050000000775,
          "durationTicks": 96,
          "midi": 73,
          "name": "C#5",
          "ticks": 65280,
          "time": 119.99994,
          "velocity": 0.3937007874015748
        },
        {
          "duration": 0.17647049999999354,
          "durationTicks": 96,
          "midi": 70,
          "name": "A#4",
          "ticks": 65376,
          "time": 120.1764105,
          "velocity": 0.3937007874015748
        },
        {
          "duration": 0.17647050000000775,
          "durationTicks": 96,
          "midi": 77,
          "name": "F5",
          "ticks": 65472,
          "time": 120.352881,
          "velocity": 0.3937007874015748
        },
        {
          "duration": 0.17647049999999354,
          "durationTicks": 96,
          "midi": 73,
          "name": "C#5",
          "ticks": 65568,
          "time": 120.5293515,
          "velocity": 0.3937007874015748
        },
        {
          "duration": 0.17647050000000775,
          "durationTicks": 96,
          "midi": 80,
          "name": "G#5",
          "ticks": 65664,
          "time": 120.705822,
          "velocity": 0.3937007874015748
        },
        {
          "duration": 0.17647049999999354,
          "durationTicks": 96,
          "midi": 77,
          "name": "F5",
          "ticks": 65760,
          "time": 120.8822925,
          "velocity": 0.3937007874015748
        },
        {
          "duration": 0.17647050000000775,
          "durationTicks": 96,
          "midi": 72,
          "name": "C5",
          "ticks": 65856,
          "time": 121.058763,
          "velocity": 0.3937007874015748
        },
        {
          "duration": 0.17647049999999354,
          "durationTicks": 96,
          "midi": 68,
          "name": "G#4",
          "ticks": 65952,
          "time": 121.2352335,
          "velocity": 0.3937007874015748
        },
        {
          "duration": 0.17647050000000775,
          "durationTicks": 96,
          "midi": 75,
          "name": "D#5",
          "ticks": 66048,
          "time": 121.411704,
          "velocity": 0.3937007874015748
        },
        {
          "duration": 0.17647049999999354,
          "durationTicks": 96,
          "midi": 72,
          "name": "C5",
          "ticks": 66144,
          "time": 121.58817450000001,
          "velocity": 0.3937007874015748
        },
        {
          "duration": 0.17647049999999354,
          "durationTicks": 96,
          "midi": 79,
          "name": "G5",
          "ticks": 66240,
          "time": 121.764645,
          "velocity": 0.3937007874015748
        },
        {
          "duration": 0.17647050000000775,
          "durationTicks": 96,
          "midi": 75,
          "name": "D#5",
          "ticks": 66336,
          "time": 121.9411155,
          "velocity": 0.3937007874015748
        },
        {
          "duration": 0.17647049999999354,
          "durationTicks": 96,
          "midi": 80,
          "name": "G#5",
          "ticks": 66432,
          "time": 122.117586,
          "velocity": 0.3937007874015748
        },
        {
          "duration": 0.17647050000000775,
          "durationTicks": 96,
          "midi": 72,
          "name": "C5",
          "ticks": 66528,
          "time": 122.2940565,
          "velocity": 0.3937007874015748
        },
        {
          "duration": 0.17647049999999354,
          "durationTicks": 96,
          "midi": 68,
          "name": "G#4",
          "ticks": 66624,
          "time": 122.470527,
          "velocity": 0.3937007874015748
        },
        {
          "duration": 0.17647050000000775,
          "durationTicks": 96,
          "midi": 75,
          "name": "D#5",
          "ticks": 66720,
          "time": 122.6469975,
          "velocity": 0.3937007874015748
        },
        {
          "duration": 0.17647049999999354,
          "durationTicks": 96,
          "midi": 72,
          "name": "C5",
          "ticks": 66816,
          "time": 122.823468,
          "velocity": 0.3937007874015748
        },
        {
          "duration": 0.17647050000000775,
          "durationTicks": 96,
          "midi": 79,
          "name": "G5",
          "ticks": 66912,
          "time": 122.9999385,
          "velocity": 0.3937007874015748
        },
        {
          "duration": 0.17647049999999354,
          "durationTicks": 96,
          "midi": 75,
          "name": "D#5",
          "ticks": 67008,
          "time": 123.176409,
          "velocity": 0.3937007874015748
        },
        {
          "duration": 0.17647050000000775,
          "durationTicks": 96,
          "midi": 80,
          "name": "G#5",
          "ticks": 67104,
          "time": 123.3528795,
          "velocity": 0.3937007874015748
        },
        {
          "duration": 0.17647049999999354,
          "durationTicks": 96,
          "midi": 72,
          "name": "C5",
          "ticks": 67200,
          "time": 123.52935000000001,
          "velocity": 0.3937007874015748
        },
        {
          "duration": 0.17647049999999354,
          "durationTicks": 96,
          "midi": 68,
          "name": "G#4",
          "ticks": 67296,
          "time": 123.7058205,
          "velocity": 0.3937007874015748
        },
        {
          "duration": 0.17647050000000775,
          "durationTicks": 96,
          "midi": 75,
          "name": "D#5",
          "ticks": 67392,
          "time": 123.882291,
          "velocity": 0.3937007874015748
        },
        {
          "duration": 0.17647049999999354,
          "durationTicks": 96,
          "midi": 72,
          "name": "C5",
          "ticks": 67488,
          "time": 124.0587615,
          "velocity": 0.3937007874015748
        },
        {
          "duration": 0.17647050000000775,
          "durationTicks": 96,
          "midi": 68,
          "name": "G#4",
          "ticks": 67584,
          "time": 124.235232,
          "velocity": 0.3937007874015748
        },
        {
          "duration": 0.17647049999999354,
          "durationTicks": 96,
          "midi": 65,
          "name": "F4",
          "ticks": 67680,
          "time": 124.4117025,
          "velocity": 0.3937007874015748
        },
        {
          "duration": 0.17647050000000775,
          "durationTicks": 96,
          "midi": 72,
          "name": "C5",
          "ticks": 67776,
          "time": 124.588173,
          "velocity": 0.3937007874015748
        },
        {
          "duration": 0.17647049999999354,
          "durationTicks": 96,
          "midi": 68,
          "name": "G#4",
          "ticks": 67872,
          "time": 124.7646435,
          "velocity": 0.3937007874015748
        },
        {
          "duration": 0.17647050000000775,
          "durationTicks": 96,
          "midi": 75,
          "name": "D#5",
          "ticks": 67968,
          "time": 124.941114,
          "velocity": 0.3937007874015748
        },
        {
          "duration": 0.17647049999999354,
          "durationTicks": 96,
          "midi": 72,
          "name": "C5",
          "ticks": 68064,
          "time": 125.1175845,
          "velocity": 0.3937007874015748
        },
        {
          "duration": 0.17647050000000775,
          "durationTicks": 96,
          "midi": 84,
          "name": "C6",
          "ticks": 68160,
          "time": 125.294055,
          "velocity": 0.3937007874015748
        },
        {
          "duration": 0.17647049999999354,
          "durationTicks": 96,
          "midi": 75,
          "name": "D#5",
          "ticks": 68256,
          "time": 125.47052550000001,
          "velocity": 0.3937007874015748
        },
        {
          "duration": 0.17647049999999354,
          "durationTicks": 96,
          "midi": 72,
          "name": "C5",
          "ticks": 68352,
          "time": 125.646996,
          "velocity": 0.3937007874015748
        },
        {
          "duration": 0.17647050000000775,
          "durationTicks": 96,
          "midi": 68,
          "name": "G#4",
          "ticks": 68448,
          "time": 125.8234665,
          "velocity": 0.3937007874015748
        },
        {
          "duration": 0.17647049999999354,
          "durationTicks": 96,
          "midi": 75,
          "name": "D#5",
          "ticks": 68544,
          "time": 125.999937,
          "velocity": 0.3937007874015748
        },
        {
          "duration": 0.17647050000000775,
          "durationTicks": 96,
          "midi": 72,
          "name": "C5",
          "ticks": 68640,
          "time": 126.1764075,
          "velocity": 0.3937007874015748
        },
        {
          "duration": 0.17647049999999354,
          "durationTicks": 96,
          "midi": 79,
          "name": "G5",
          "ticks": 68736,
          "time": 126.352878,
          "velocity": 0.3937007874015748
        },
        {
          "duration": 0.17647050000000775,
          "durationTicks": 96,
          "midi": 75,
          "name": "D#5",
          "ticks": 68832,
          "time": 126.5293485,
          "velocity": 0.3937007874015748
        },
        {
          "duration": 0.17647049999999354,
          "durationTicks": 96,
          "midi": 75,
          "name": "D#5",
          "ticks": 68928,
          "time": 126.705819,
          "velocity": 0.3937007874015748
        },
        {
          "duration": 0.17647050000000775,
          "durationTicks": 96,
          "midi": 72,
          "name": "C5",
          "ticks": 69024,
          "time": 126.8822895,
          "velocity": 0.3937007874015748
        },
        {
          "duration": 0.17647049999999354,
          "durationTicks": 96,
          "midi": 77,
          "name": "F5",
          "ticks": 69120,
          "time": 127.05876,
          "velocity": 0.3937007874015748
        },
        {
          "duration": 0.17647050000000775,
          "durationTicks": 96,
          "midi": 75,
          "name": "D#5",
          "ticks": 69216,
          "time": 127.2352305,
          "velocity": 0.3937007874015748
        },
        {
          "duration": 0.17647049999999354,
          "durationTicks": 96,
          "midi": 79,
          "name": "G5",
          "ticks": 69312,
          "time": 127.41170100000001,
          "velocity": 0.3937007874015748
        },
        {
          "duration": 0.17647049999999354,
          "durationTicks": 96,
          "midi": 77,
          "name": "F5",
          "ticks": 69408,
          "time": 127.5881715,
          "velocity": 0.3937007874015748
        },
        {
          "duration": 0.17647050000000775,
          "durationTicks": 96,
          "midi": 82,
          "name": "A#5",
          "ticks": 69504,
          "time": 127.764642,
          "velocity": 0.3937007874015748
        },
        {
          "duration": 0.17647049999999354,
          "durationTicks": 96,
          "midi": 75,
          "name": "D#5",
          "ticks": 69600,
          "time": 127.9411125,
          "velocity": 0.3937007874015748
        },
        {
          "duration": 0.17647049999999354,
          "durationTicks": 96,
          "midi": 72,
          "name": "C5",
          "ticks": 69696,
          "time": 128.117583,
          "velocity": 0.3937007874015748
        },
        {
          "duration": 0.17647050000002196,
          "durationTicks": 96,
          "midi": 77,
          "name": "F5",
          "ticks": 69792,
          "time": 128.2940535,
          "velocity": 0.3937007874015748
        },
        {
          "duration": 0.17647049999999354,
          "durationTicks": 96,
          "midi": 75,
          "name": "D#5",
          "ticks": 69888,
          "time": 128.470524,
          "velocity": 0.3937007874015748
        },
        {
          "duration": 0.17647049999999354,
          "durationTicks": 96,
          "midi": 79,
          "name": "G5",
          "ticks": 69984,
          "time": 128.6469945,
          "velocity": 0.3937007874015748
        },
        {
          "duration": 0.17647049999999354,
          "durationTicks": 96,
          "midi": 77,
          "name": "F5",
          "ticks": 70080,
          "time": 128.823465,
          "velocity": 0.3937007874015748
        },
        {
          "duration": 0.17647050000002196,
          "durationTicks": 96,
          "midi": 82,
          "name": "A#5",
          "ticks": 70176,
          "time": 128.9999355,
          "velocity": 0.3937007874015748
        },
        {
          "duration": 0.17647049999999354,
          "durationTicks": 96,
          "midi": 75,
          "name": "D#5",
          "ticks": 70272,
          "time": 129.17640600000001,
          "velocity": 0.3937007874015748
        },
        {
          "duration": 0.17647049999999354,
          "durationTicks": 96,
          "midi": 72,
          "name": "C5",
          "ticks": 70368,
          "time": 129.3528765,
          "velocity": 0.3937007874015748
        },
        {
          "duration": 0.17647049999999354,
          "durationTicks": 96,
          "midi": 77,
          "name": "F5",
          "ticks": 70464,
          "time": 129.529347,
          "velocity": 0.3937007874015748
        },
        {
          "duration": 0.17647049999999354,
          "durationTicks": 96,
          "midi": 75,
          "name": "D#5",
          "ticks": 70560,
          "time": 129.7058175,
          "velocity": 0.3937007874015748
        },
        {
          "duration": 0.17647050000002196,
          "durationTicks": 96,
          "midi": 68,
          "name": "G#4",
          "ticks": 70656,
          "time": 129.882288,
          "velocity": 0.3937007874015748
        },
        {
          "duration": 0.17647049999999354,
          "durationTicks": 96,
          "midi": 65,
          "name": "F4",
          "ticks": 70752,
          "time": 130.0587585,
          "velocity": 0.3937007874015748
        },
        {
          "duration": 0.17647049999999354,
          "durationTicks": 96,
          "midi": 72,
          "name": "C5",
          "ticks": 70848,
          "time": 130.235229,
          "velocity": 0.3937007874015748
        },
        {
          "duration": 0.17647049999999354,
          "durationTicks": 96,
          "midi": 68,
          "name": "G#4",
          "ticks": 70944,
          "time": 130.4116995,
          "velocity": 0.3937007874015748
        },
        {
          "duration": 0.17647050000002196,
          "durationTicks": 96,
          "midi": 75,
          "name": "D#5",
          "ticks": 71040,
          "time": 130.58817,
          "velocity": 0.3937007874015748
        },
        {
          "duration": 0.17647049999999354,
          "durationTicks": 96,
          "midi": 72,
          "name": "C5",
          "ticks": 71136,
          "time": 130.7646405,
          "velocity": 0.3937007874015748
        },
        {
          "duration": 0.17647049999999354,
          "durationTicks": 96,
          "midi": 80,
          "name": "G#5",
          "ticks": 71232,
          "time": 130.941111,
          "velocity": 0.3937007874015748
        },
        {
          "duration": 0.17647049999999354,
          "durationTicks": 96,
          "midi": 75,
          "name": "D#5",
          "ticks": 71328,
          "time": 131.1175815,
          "velocity": 0.3937007874015748
        },
        {
          "duration": 0.17647050000002196,
          "durationTicks": 96,
          "midi": 73,
          "name": "C#5",
          "ticks": 71424,
          "time": 131.294052,
          "velocity": 0.3937007874015748
        },
        {
          "duration": 0.17647049999999354,
          "durationTicks": 96,
          "midi": 70,
          "name": "A#4",
          "ticks": 71520,
          "time": 131.47052250000002,
          "velocity": 0.3937007874015748
        },
        {
          "duration": 0.17647049999999354,
          "durationTicks": 96,
          "midi": 77,
          "name": "F5",
          "ticks": 71616,
          "time": 131.646993,
          "velocity": 0.3937007874015748
        },
        {
          "duration": 0.17647049999999354,
          "durationTicks": 96,
          "midi": 73,
          "name": "C#5",
          "ticks": 71712,
          "time": 131.8234635,
          "velocity": 0.3937007874015748
        },
        {
          "duration": 0.17647049999999354,
          "durationTicks": 96,
          "midi": 79,
          "name": "G5",
          "ticks": 71808,
          "time": 131.999934,
          "velocity": 0.3937007874015748
        },
        {
          "duration": 0.17647050000002196,
          "durationTicks": 96,
          "midi": 77,
          "name": "F5",
          "ticks": 71904,
          "time": 132.1764045,
          "velocity": 0.3937007874015748
        },
        {
          "duration": 0.17647049999999354,
          "durationTicks": 96,
          "midi": 72,
          "name": "C5",
          "ticks": 72000,
          "time": 132.352875,
          "velocity": 0.3937007874015748
        },
        {
          "duration": 0.17647049999999354,
          "durationTicks": 96,
          "midi": 68,
          "name": "G#4",
          "ticks": 72096,
          "time": 132.5293455,
          "velocity": 0.3937007874015748
        },
        {
          "duration": 0.17647049999999354,
          "durationTicks": 96,
          "midi": 75,
          "name": "D#5",
          "ticks": 72192,
          "time": 132.705816,
          "velocity": 0.3937007874015748
        },
        {
          "duration": 0.17647050000002196,
          "durationTicks": 96,
          "midi": 72,
          "name": "C5",
          "ticks": 72288,
          "time": 132.8822865,
          "velocity": 0.3937007874015748
        },
        {
          "duration": 0.17647049999999354,
          "durationTicks": 96,
          "midi": 77,
          "name": "F5",
          "ticks": 72384,
          "time": 133.058757,
          "velocity": 0.3937007874015748
        },
        {
          "duration": 0.17647049999999354,
          "durationTicks": 96,
          "midi": 75,
          "name": "D#5",
          "ticks": 72480,
          "time": 133.2352275,
          "velocity": 0.3937007874015748
        },
        {
          "duration": 0.17647049999999354,
          "durationTicks": 96,
          "midi": 79,
          "name": "G5",
          "ticks": 72576,
          "time": 133.411698,
          "velocity": 0.3937007874015748
        },
        {
          "duration": 0.17647049999999354,
          "durationTicks": 96,
          "midi": 72,
          "name": "C5",
          "ticks": 72672,
          "time": 133.5881685,
          "velocity": 0.3937007874015748
        },
        {
          "duration": 0.17647050000002196,
          "durationTicks": 96,
          "midi": 68,
          "name": "G#4",
          "ticks": 72768,
          "time": 133.764639,
          "velocity": 0.3937007874015748
        },
        {
          "duration": 0.17647049999999354,
          "durationTicks": 96,
          "midi": 75,
          "name": "D#5",
          "ticks": 72864,
          "time": 133.9411095,
          "velocity": 0.3937007874015748
        },
        {
          "duration": 0.17647049999999354,
          "durationTicks": 96,
          "midi": 72,
          "name": "C5",
          "ticks": 72960,
          "time": 134.11758,
          "velocity": 0.3937007874015748
        },
        {
          "duration": 0.17647049999999354,
          "durationTicks": 96,
          "midi": 77,
          "name": "F5",
          "ticks": 73056,
          "time": 134.2940505,
          "velocity": 0.3937007874015748
        },
        {
          "duration": 0.17647050000002196,
          "durationTicks": 96,
          "midi": 75,
          "name": "D#5",
          "ticks": 73152,
          "time": 134.470521,
          "velocity": 0.3937007874015748
        },
        {
          "duration": 0.17647049999999354,
          "durationTicks": 96,
          "midi": 79,
          "name": "G5",
          "ticks": 73248,
          "time": 134.6469915,
          "velocity": 0.3937007874015748
        },
        {
          "duration": 0.17647049999999354,
          "durationTicks": 96,
          "midi": 72,
          "name": "C5",
          "ticks": 73344,
          "time": 134.823462,
          "velocity": 0.3937007874015748
        },
        {
          "duration": 0.17647049999999354,
          "durationTicks": 96,
          "midi": 68,
          "name": "G#4",
          "ticks": 73440,
          "time": 134.9999325,
          "velocity": 0.3937007874015748
        },
        {
          "duration": 0.17647050000002196,
          "durationTicks": 96,
          "midi": 75,
          "name": "D#5",
          "ticks": 73536,
          "time": 135.176403,
          "velocity": 0.3937007874015748
        },
        {
          "duration": 0.17647049999999354,
          "durationTicks": 96,
          "midi": 72,
          "name": "C5",
          "ticks": 73632,
          "time": 135.35287350000002,
          "velocity": 0.3937007874015748
        },
        {
          "duration": 0.17647049999999354,
          "durationTicks": 96,
          "midi": 68,
          "name": "G#4",
          "ticks": 73728,
          "time": 135.529344,
          "velocity": 0.3937007874015748
        },
        {
          "duration": 0.17647049999999354,
          "durationTicks": 96,
          "midi": 65,
          "name": "F4",
          "ticks": 73824,
          "time": 135.7058145,
          "velocity": 0.3937007874015748
        },
        {
          "duration": 0.17647049999999354,
          "durationTicks": 96,
          "midi": 72,
          "name": "C5",
          "ticks": 73920,
          "time": 135.882285,
          "velocity": 0.3937007874015748
        },
        {
          "duration": 0.17647050000002196,
          "durationTicks": 96,
          "midi": 68,
          "name": "G#4",
          "ticks": 74016,
          "time": 136.0587555,
          "velocity": 0.3937007874015748
        },
        {
          "duration": 0.17647049999999354,
          "durationTicks": 96,
          "midi": 75,
          "name": "D#5",
          "ticks": 74112,
          "time": 136.235226,
          "velocity": 0.3937007874015748
        },
        {
          "duration": 0.17647049999999354,
          "durationTicks": 96,
          "midi": 72,
          "name": "C5",
          "ticks": 74208,
          "time": 136.4116965,
          "velocity": 0.3937007874015748
        },
        {
          "duration": 0.17647049999999354,
          "durationTicks": 96,
          "midi": 80,
          "name": "G#5",
          "ticks": 74304,
          "time": 136.588167,
          "velocity": 0.3937007874015748
        },
        {
          "duration": 0.17647050000002196,
          "durationTicks": 96,
          "midi": 75,
          "name": "D#5",
          "ticks": 74400,
          "time": 136.7646375,
          "velocity": 0.3937007874015748
        },
        {
          "duration": 0.17647049999999354,
          "durationTicks": 96,
          "midi": 72,
          "name": "C5",
          "ticks": 74496,
          "time": 136.941108,
          "velocity": 0.3937007874015748
        },
        {
          "duration": 0.17647049999999354,
          "durationTicks": 96,
          "midi": 68,
          "name": "G#4",
          "ticks": 74592,
          "time": 137.1175785,
          "velocity": 0.3937007874015748
        },
        {
          "duration": 0.17647049999999354,
          "durationTicks": 96,
          "midi": 75,
          "name": "D#5",
          "ticks": 74688,
          "time": 137.294049,
          "velocity": 0.3937007874015748
        },
        {
          "duration": 0.17647049999999354,
          "durationTicks": 96,
          "midi": 72,
          "name": "C5",
          "ticks": 74784,
          "time": 137.4705195,
          "velocity": 0.3937007874015748
        },
        {
          "duration": 0.17647050000002196,
          "durationTicks": 96,
          "midi": 79,
          "name": "G5",
          "ticks": 74880,
          "time": 137.64699,
          "velocity": 0.3937007874015748
        },
        {
          "duration": 0.17647049999999354,
          "durationTicks": 96,
          "midi": 75,
          "name": "D#5",
          "ticks": 74976,
          "time": 137.8234605,
          "velocity": 0.3937007874015748
        },
        {
          "duration": 0.17647049999999354,
          "durationTicks": 96,
          "midi": 75,
          "name": "D#5",
          "ticks": 75072,
          "time": 137.999931,
          "velocity": 0.3937007874015748
        },
        {
          "duration": 0.17647049999999354,
          "durationTicks": 96,
          "midi": 72,
          "name": "C5",
          "ticks": 75168,
          "time": 138.1764015,
          "velocity": 0.3937007874015748
        },
        {
          "duration": 0.17647050000002196,
          "durationTicks": 96,
          "midi": 79,
          "name": "G5",
          "ticks": 75264,
          "time": 138.352872,
          "velocity": 0.3937007874015748
        },
        {
          "duration": 0.17647049999999354,
          "durationTicks": 96,
          "midi": 75,
          "name": "D#5",
          "ticks": 75360,
          "time": 138.5293425,
          "velocity": 0.3937007874015748
        },
        {
          "duration": 0.17647049999999354,
          "durationTicks": 96,
          "midi": 82,
          "name": "A#5",
          "ticks": 75456,
          "time": 138.705813,
          "velocity": 0.3937007874015748
        },
        {
          "duration": 0.17647049999999354,
          "durationTicks": 96,
          "midi": 79,
          "name": "G5",
          "ticks": 75552,
          "time": 138.8822835,
          "velocity": 0.3937007874015748
        },
        {
          "duration": 0.17647050000002196,
          "durationTicks": 96,
          "midi": 84,
          "name": "C6",
          "ticks": 75648,
          "time": 139.058754,
          "velocity": 0.3937007874015748
        },
        {
          "duration": 0.17647049999999354,
          "durationTicks": 96,
          "midi": 75,
          "name": "D#5",
          "ticks": 75744,
          "time": 139.23522450000002,
          "velocity": 0.3937007874015748
        },
        {
          "duration": 0.17647049999999354,
          "durationTicks": 96,
          "midi": 72,
          "name": "C5",
          "ticks": 75840,
          "time": 139.411695,
          "velocity": 0.3937007874015748
        },
        {
          "duration": 0.17647049999999354,
          "durationTicks": 96,
          "midi": 79,
          "name": "G5",
          "ticks": 75936,
          "time": 139.5881655,
          "velocity": 0.3937007874015748
        },
        {
          "duration": 0.17647049999999354,
          "durationTicks": 96,
          "midi": 75,
          "name": "D#5",
          "ticks": 76032,
          "time": 139.764636,
          "velocity": 0.3937007874015748
        },
        {
          "duration": 0.17647050000002196,
          "durationTicks": 96,
          "midi": 82,
          "name": "A#5",
          "ticks": 76128,
          "time": 139.9411065,
          "velocity": 0.3937007874015748
        },
        {
          "duration": 0.17647049999999354,
          "durationTicks": 96,
          "midi": 79,
          "name": "G5",
          "ticks": 76224,
          "time": 140.117577,
          "velocity": 0.3937007874015748
        },
        {
          "duration": 0.17647049999999354,
          "durationTicks": 96,
          "midi": 84,
          "name": "C6",
          "ticks": 76320,
          "time": 140.2940475,
          "velocity": 0.3937007874015748
        },
        {
          "duration": 0.17647049999999354,
          "durationTicks": 96,
          "midi": 75,
          "name": "D#5",
          "ticks": 76416,
          "time": 140.470518,
          "velocity": 0.3937007874015748
        },
        {
          "duration": 0.17647050000002196,
          "durationTicks": 96,
          "midi": 72,
          "name": "C5",
          "ticks": 76512,
          "time": 140.6469885,
          "velocity": 0.3937007874015748
        },
        {
          "duration": 0.17647049999999354,
          "durationTicks": 96,
          "midi": 79,
          "name": "G5",
          "ticks": 76608,
          "time": 140.823459,
          "velocity": 0.3937007874015748
        },
        {
          "duration": 0.17647049999999354,
          "durationTicks": 96,
          "midi": 75,
          "name": "D#5",
          "ticks": 76704,
          "time": 140.9999295,
          "velocity": 0.3937007874015748
        },
        {
          "duration": 0.17647049999999354,
          "durationTicks": 96,
          "midi": 68,
          "name": "G#4",
          "ticks": 76800,
          "time": 141.1764,
          "velocity": 0.3937007874015748
        },
        {
          "duration": 0.17647049999999354,
          "durationTicks": 96,
          "midi": 65,
          "name": "F4",
          "ticks": 76896,
          "time": 141.3528705,
          "velocity": 0.3937007874015748
        },
        {
          "duration": 0.17647050000002196,
          "durationTicks": 96,
          "midi": 72,
          "name": "C5",
          "ticks": 76992,
          "time": 141.529341,
          "velocity": 0.3937007874015748
        },
        {
          "duration": 0.17647049999999354,
          "durationTicks": 96,
          "midi": 68,
          "name": "G#4",
          "ticks": 77088,
          "time": 141.7058115,
          "velocity": 0.3937007874015748
        },
        {
          "duration": 0.17647049999999354,
          "durationTicks": 96,
          "midi": 75,
          "name": "D#5",
          "ticks": 77184,
          "time": 141.882282,
          "velocity": 0.3937007874015748
        },
        {
          "duration": 0.17647049999999354,
          "durationTicks": 96,
          "midi": 72,
          "name": "C5",
          "ticks": 77280,
          "time": 142.0587525,
          "velocity": 0.3937007874015748
        },
        {
          "duration": 0.17647050000002196,
          "durationTicks": 96,
          "midi": 87,
          "name": "D#6",
          "ticks": 77376,
          "time": 142.235223,
          "velocity": 0.3937007874015748
        },
        {
          "duration": 0.17647049999999354,
          "durationTicks": 96,
          "midi": 75,
          "name": "D#5",
          "ticks": 77472,
          "time": 142.4116935,
          "velocity": 0.3937007874015748
        },
        {
          "duration": 0.17647049999999354,
          "durationTicks": 96,
          "midi": 73,
          "name": "C#5",
          "ticks": 77568,
          "time": 142.588164,
          "velocity": 0.3937007874015748
        },
        {
          "duration": 0.17647049999999354,
          "durationTicks": 96,
          "midi": 70,
          "name": "A#4",
          "ticks": 77664,
          "time": 142.7646345,
          "velocity": 0.3937007874015748
        },
        {
          "duration": 0.17647050000002196,
          "durationTicks": 96,
          "midi": 77,
          "name": "F5",
          "ticks": 77760,
          "time": 142.941105,
          "velocity": 0.3937007874015748
        },
        {
          "duration": 0.17647049999999354,
          "durationTicks": 96,
          "midi": 73,
          "name": "C#5",
          "ticks": 77856,
          "time": 143.11757550000002,
          "velocity": 0.3937007874015748
        },
        {
          "duration": 0.17647049999999354,
          "durationTicks": 96,
          "midi": 80,
          "name": "G#5",
          "ticks": 77952,
          "time": 143.294046,
          "velocity": 0.3937007874015748
        },
        {
          "duration": 0.17647049999999354,
          "durationTicks": 96,
          "midi": 77,
          "name": "F5",
          "ticks": 78048,
          "time": 143.4705165,
          "velocity": 0.3937007874015748
        },
        {
          "duration": 0.17647049999999354,
          "durationTicks": 96,
          "midi": 72,
          "name": "C5",
          "ticks": 78144,
          "time": 143.646987,
          "velocity": 0.3937007874015748
        },
        {
          "duration": 0.17647050000002196,
          "durationTicks": 96,
          "midi": 68,
          "name": "G#4",
          "ticks": 78240,
          "time": 143.8234575,
          "velocity": 0.3937007874015748
        },
        {
          "duration": 0.17647049999999354,
          "durationTicks": 96,
          "midi": 75,
          "name": "D#5",
          "ticks": 78336,
          "time": 143.999928,
          "velocity": 0.3937007874015748
        },
        {
          "duration": 0.17647049999999354,
          "durationTicks": 96,
          "midi": 72,
          "name": "C5",
          "ticks": 78432,
          "time": 144.1763985,
          "velocity": 0.3937007874015748
        },
        {
          "duration": 0.17647049999999354,
          "durationTicks": 96,
          "midi": 79,
          "name": "G5",
          "ticks": 78528,
          "time": 144.352869,
          "velocity": 0.3937007874015748
        },
        {
          "duration": 0.17647050000002196,
          "durationTicks": 96,
          "midi": 75,
          "name": "D#5",
          "ticks": 78624,
          "time": 144.5293395,
          "velocity": 0.3937007874015748
        },
        {
          "duration": 0.17647049999999354,
          "durationTicks": 96,
          "midi": 80,
          "name": "G#5",
          "ticks": 78720,
          "time": 144.70581,
          "velocity": 0.3937007874015748
        },
        {
          "duration": 0.17647049999999354,
          "durationTicks": 96,
          "midi": 72,
          "name": "C5",
          "ticks": 78816,
          "time": 144.8822805,
          "velocity": 0.3937007874015748
        },
        {
          "duration": 0.17647049999999354,
          "durationTicks": 96,
          "midi": 68,
          "name": "G#4",
          "ticks": 78912,
          "time": 145.058751,
          "velocity": 0.3937007874015748
        },
        {
          "duration": 0.17647049999999354,
          "durationTicks": 96,
          "midi": 75,
          "name": "D#5",
          "ticks": 79008,
          "time": 145.2352215,
          "velocity": 0.3937007874015748
        },
        {
          "duration": 0.17647050000002196,
          "durationTicks": 96,
          "midi": 72,
          "name": "C5",
          "ticks": 79104,
          "time": 145.411692,
          "velocity": 0.3937007874015748
        },
        {
          "duration": 0.17647049999999354,
          "durationTicks": 96,
          "midi": 79,
          "name": "G5",
          "ticks": 79200,
          "time": 145.5881625,
          "velocity": 0.3937007874015748
        },
        {
          "duration": 0.17647049999999354,
          "durationTicks": 96,
          "midi": 75,
          "name": "D#5",
          "ticks": 79296,
          "time": 145.764633,
          "velocity": 0.3937007874015748
        },
        {
          "duration": 0.17647049999999354,
          "durationTicks": 96,
          "midi": 80,
          "name": "G#5",
          "ticks": 79392,
          "time": 145.9411035,
          "velocity": 0.3937007874015748
        },
        {
          "duration": 0.17647050000002196,
          "durationTicks": 96,
          "midi": 72,
          "name": "C5",
          "ticks": 79488,
          "time": 146.117574,
          "velocity": 0.3937007874015748
        },
        {
          "duration": 0.17647049999999354,
          "durationTicks": 96,
          "midi": 68,
          "name": "G#4",
          "ticks": 79584,
          "time": 146.2940445,
          "velocity": 0.3937007874015748
        },
        {
          "duration": 0.17647049999999354,
          "durationTicks": 96,
          "midi": 75,
          "name": "D#5",
          "ticks": 79680,
          "time": 146.470515,
          "velocity": 0.3937007874015748
        },
        {
          "duration": 0.17647049999999354,
          "durationTicks": 96,
          "midi": 72,
          "name": "C5",
          "ticks": 79776,
          "time": 146.6469855,
          "velocity": 0.3937007874015748
        },
        {
          "duration": 0.17647050000002196,
          "durationTicks": 96,
          "midi": 68,
          "name": "G#4",
          "ticks": 79872,
          "time": 146.823456,
          "velocity": 0.3937007874015748
        },
        {
          "duration": 0.17647049999999354,
          "durationTicks": 96,
          "midi": 65,
          "name": "F4",
          "ticks": 79968,
          "time": 146.99992650000002,
          "velocity": 0.3937007874015748
        },
        {
          "duration": 0.17647049999999354,
          "durationTicks": 96,
          "midi": 72,
          "name": "C5",
          "ticks": 80064,
          "time": 147.176397,
          "velocity": 0.3937007874015748
        },
        {
          "duration": 0.17647049999999354,
          "durationTicks": 96,
          "midi": 68,
          "name": "G#4",
          "ticks": 80160,
          "time": 147.3528675,
          "velocity": 0.3937007874015748
        },
        {
          "duration": 0.17647049999999354,
          "durationTicks": 96,
          "midi": 75,
          "name": "D#5",
          "ticks": 80256,
          "time": 147.529338,
          "velocity": 0.3937007874015748
        },
        {
          "duration": 0.17647050000002196,
          "durationTicks": 96,
          "midi": 72,
          "name": "C5",
          "ticks": 80352,
          "time": 147.7058085,
          "velocity": 0.3937007874015748
        },
        {
          "duration": 0.17647049999999354,
          "durationTicks": 96,
          "midi": 84,
          "name": "C6",
          "ticks": 80448,
          "time": 147.882279,
          "velocity": 0.3937007874015748
        },
        {
          "duration": 0.17647049999999354,
          "durationTicks": 96,
          "midi": 75,
          "name": "D#5",
          "ticks": 80544,
          "time": 148.0587495,
          "velocity": 0.3937007874015748
        },
        {
          "duration": 0.17647049999999354,
          "durationTicks": 96,
          "midi": 72,
          "name": "C5",
          "ticks": 80640,
          "time": 148.23522,
          "velocity": 0.3937007874015748
        },
        {
          "duration": 0.17647050000002196,
          "durationTicks": 96,
          "midi": 68,
          "name": "G#4",
          "ticks": 80736,
          "time": 148.4116905,
          "velocity": 0.3937007874015748
        },
        {
          "duration": 0.17647049999999354,
          "durationTicks": 96,
          "midi": 75,
          "name": "D#5",
          "ticks": 80832,
          "time": 148.588161,
          "velocity": 0.3937007874015748
        },
        {
          "duration": 0.17647049999999354,
          "durationTicks": 96,
          "midi": 72,
          "name": "C5",
          "ticks": 80928,
          "time": 148.7646315,
          "velocity": 0.3937007874015748
        },
        {
          "duration": 0.17647049999999354,
          "durationTicks": 96,
          "midi": 79,
          "name": "G5",
          "ticks": 81024,
          "time": 148.941102,
          "velocity": 0.3937007874015748
        },
        {
          "duration": 0.17647049999999354,
          "durationTicks": 96,
          "midi": 75,
          "name": "D#5",
          "ticks": 81120,
          "time": 149.1175725,
          "velocity": 0.3937007874015748
        },
        {
          "duration": 0.17647050000002196,
          "durationTicks": 96,
          "midi": 75,
          "name": "D#5",
          "ticks": 81216,
          "time": 149.294043,
          "velocity": 0.3937007874015748
        },
        {
          "duration": 0.17647049999999354,
          "durationTicks": 96,
          "midi": 72,
          "name": "C5",
          "ticks": 81312,
          "time": 149.4705135,
          "velocity": 0.3937007874015748
        },
        {
          "duration": 0.17647049999999354,
          "durationTicks": 96,
          "midi": 77,
          "name": "F5",
          "ticks": 81408,
          "time": 149.646984,
          "velocity": 0.3937007874015748
        },
        {
          "duration": 0.17647049999999354,
          "durationTicks": 96,
          "midi": 75,
          "name": "D#5",
          "ticks": 81504,
          "time": 149.8234545,
          "velocity": 0.3937007874015748
        },
        {
          "duration": 0.17647050000002196,
          "durationTicks": 96,
          "midi": 79,
          "name": "G5",
          "ticks": 81600,
          "time": 149.999925,
          "velocity": 0.3937007874015748
        },
        {
          "duration": 0.17647049999999354,
          "durationTicks": 96,
          "midi": 77,
          "name": "F5",
          "ticks": 81696,
          "time": 150.1763955,
          "velocity": 0.3937007874015748
        },
        {
          "duration": 0.17647049999999354,
          "durationTicks": 96,
          "midi": 82,
          "name": "A#5",
          "ticks": 81792,
          "time": 150.352866,
          "velocity": 0.3937007874015748
        },
        {
          "duration": 0.17647049999999354,
          "durationTicks": 96,
          "midi": 75,
          "name": "D#5",
          "ticks": 81888,
          "time": 150.5293365,
          "velocity": 0.3937007874015748
        },
        {
          "duration": 0.17647050000002196,
          "durationTicks": 96,
          "midi": 72,
          "name": "C5",
          "ticks": 81984,
          "time": 150.705807,
          "velocity": 0.3937007874015748
        },
        {
          "duration": 0.17647049999999354,
          "durationTicks": 96,
          "midi": 77,
          "name": "F5",
          "ticks": 82080,
          "time": 150.88227750000001,
          "velocity": 0.3937007874015748
        },
        {
          "duration": 0.17647049999999354,
          "durationTicks": 96,
          "midi": 75,
          "name": "D#5",
          "ticks": 82176,
          "time": 151.058748,
          "velocity": 0.3937007874015748
        },
        {
          "duration": 0.17647049999999354,
          "durationTicks": 96,
          "midi": 79,
          "name": "G5",
          "ticks": 82272,
          "time": 151.2352185,
          "velocity": 0.3937007874015748
        },
        {
          "duration": 0.17647049999999354,
          "durationTicks": 96,
          "midi": 77,
          "name": "F5",
          "ticks": 82368,
          "time": 151.411689,
          "velocity": 0.3937007874015748
        },
        {
          "duration": 0.17647050000002196,
          "durationTicks": 96,
          "midi": 82,
          "name": "A#5",
          "ticks": 82464,
          "time": 151.5881595,
          "velocity": 0.3937007874015748
        },
        {
          "duration": 0.17647049999999354,
          "durationTicks": 96,
          "midi": 75,
          "name": "D#5",
          "ticks": 82560,
          "time": 151.76463,
          "velocity": 0.3937007874015748
        },
        {
          "duration": 0.17647049999999354,
          "durationTicks": 96,
          "midi": 72,
          "name": "C5",
          "ticks": 82656,
          "time": 151.9411005,
          "velocity": 0.3937007874015748
        },
        {
          "duration": 0.17647049999999354,
          "durationTicks": 96,
          "midi": 77,
          "name": "F5",
          "ticks": 82752,
          "time": 152.117571,
          "velocity": 0.3937007874015748
        },
        {
          "duration": 0.17647050000002196,
          "durationTicks": 96,
          "midi": 75,
          "name": "D#5",
          "ticks": 82848,
          "time": 152.2940415,
          "velocity": 0.3937007874015748
        },
        {
          "duration": 0.17647049999999354,
          "durationTicks": 96,
          "midi": 68,
          "name": "G#4",
          "ticks": 82944,
          "time": 152.470512,
          "velocity": 0.3937007874015748
        },
        {
          "duration": 0.17647049999999354,
          "durationTicks": 96,
          "midi": 65,
          "name": "F4",
          "ticks": 83040,
          "time": 152.6469825,
          "velocity": 0.3937007874015748
        },
        {
          "duration": 0.17647049999999354,
          "durationTicks": 96,
          "midi": 72,
          "name": "C5",
          "ticks": 83136,
          "time": 152.823453,
          "velocity": 0.3937007874015748
        },
        {
          "duration": 0.17647050000002196,
          "durationTicks": 96,
          "midi": 68,
          "name": "G#4",
          "ticks": 83232,
          "time": 152.9999235,
          "velocity": 0.3937007874015748
        },
        {
          "duration": 0.17647049999999354,
          "durationTicks": 96,
          "midi": 75,
          "name": "D#5",
          "ticks": 83328,
          "time": 153.17639400000002,
          "velocity": 0.3937007874015748
        },
        {
          "duration": 0.17647049999999354,
          "durationTicks": 96,
          "midi": 72,
          "name": "C5",
          "ticks": 83424,
          "time": 153.3528645,
          "velocity": 0.3937007874015748
        },
        {
          "duration": 0.17647049999999354,
          "durationTicks": 96,
          "midi": 80,
          "name": "G#5",
          "ticks": 83520,
          "time": 153.529335,
          "velocity": 0.3937007874015748
        },
        {
          "duration": 0.17647049999999354,
          "durationTicks": 96,
          "midi": 75,
          "name": "D#5",
          "ticks": 83616,
          "time": 153.7058055,
          "velocity": 0.3937007874015748
        },
        {
          "duration": 0.17647050000002196,
          "durationTicks": 96,
          "midi": 73,
          "name": "C#5",
          "ticks": 83712,
          "time": 153.882276,
          "velocity": 0.3937007874015748
        },
        {
          "duration": 0.17647049999999354,
          "durationTicks": 96,
          "midi": 70,
          "name": "A#4",
          "ticks": 83808,
          "time": 154.0587465,
          "velocity": 0.3937007874015748
        },
        {
          "duration": 0.17647049999999354,
          "durationTicks": 96,
          "midi": 77,
          "name": "F5",
          "ticks": 83904,
          "time": 154.235217,
          "velocity": 0.3937007874015748
        },
        {
          "duration": 0.17647049999999354,
          "durationTicks": 96,
          "midi": 73,
          "name": "C#5",
          "ticks": 84000,
          "time": 154.4116875,
          "velocity": 0.3937007874015748
        },
        {
          "duration": 0.17647050000002196,
          "durationTicks": 96,
          "midi": 79,
          "name": "G5",
          "ticks": 84096,
          "time": 154.588158,
          "velocity": 0.3937007874015748
        },
        {
          "duration": 0.17647049999999354,
          "durationTicks": 96,
          "midi": 77,
          "name": "F5",
          "ticks": 84192,
          "time": 154.76462850000001,
          "velocity": 0.3937007874015748
        },
        {
          "duration": 0.17647049999999354,
          "durationTicks": 96,
          "midi": 72,
          "name": "C5",
          "ticks": 84288,
          "time": 154.941099,
          "velocity": 0.3937007874015748
        },
        {
          "duration": 0.17647049999999354,
          "durationTicks": 96,
          "midi": 68,
          "name": "G#4",
          "ticks": 84384,
          "time": 155.1175695,
          "velocity": 0.3937007874015748
        },
        {
          "duration": 0.17647049999999354,
          "durationTicks": 96,
          "midi": 75,
          "name": "D#5",
          "ticks": 84480,
          "time": 155.29404,
          "velocity": 0.3937007874015748
        },
        {
          "duration": 0.17647050000002196,
          "durationTicks": 96,
          "midi": 72,
          "name": "C5",
          "ticks": 84576,
          "time": 155.4705105,
          "velocity": 0.3937007874015748
        },
        {
          "duration": 0.17647049999999354,
          "durationTicks": 96,
          "midi": 77,
          "name": "F5",
          "ticks": 84672,
          "time": 155.646981,
          "velocity": 0.3937007874015748
        },
        {
          "duration": 0.17647049999999354,
          "durationTicks": 96,
          "midi": 75,
          "name": "D#5",
          "ticks": 84768,
          "time": 155.8234515,
          "velocity": 0.3937007874015748
        },
        {
          "duration": 0.17647049999999354,
          "durationTicks": 96,
          "midi": 79,
          "name": "G5",
          "ticks": 84864,
          "time": 155.999922,
          "velocity": 0.3937007874015748
        },
        {
          "duration": 0.17647050000002196,
          "durationTicks": 96,
          "midi": 72,
          "name": "C5",
          "ticks": 84960,
          "time": 156.1763925,
          "velocity": 0.3937007874015748
        },
        {
          "duration": 0.17647049999999354,
          "durationTicks": 96,
          "midi": 68,
          "name": "G#4",
          "ticks": 85056,
          "time": 156.352863,
          "velocity": 0.3937007874015748
        },
        {
          "duration": 0.17647049999999354,
          "durationTicks": 96,
          "midi": 75,
          "name": "D#5",
          "ticks": 85152,
          "time": 156.5293335,
          "velocity": 0.3937007874015748
        },
        {
          "duration": 0.17647049999999354,
          "durationTicks": 96,
          "midi": 72,
          "name": "C5",
          "ticks": 85248,
          "time": 156.705804,
          "velocity": 0.3937007874015748
        },
        {
          "duration": 0.17647050000002196,
          "durationTicks": 96,
          "midi": 77,
          "name": "F5",
          "ticks": 85344,
          "time": 156.8822745,
          "velocity": 0.3937007874015748
        },
        {
          "duration": 0.17647049999999354,
          "durationTicks": 96,
          "midi": 75,
          "name": "D#5",
          "ticks": 85440,
          "time": 157.05874500000002,
          "velocity": 0.3937007874015748
        },
        {
          "duration": 0.17647049999999354,
          "durationTicks": 96,
          "midi": 79,
          "name": "G5",
          "ticks": 85536,
          "time": 157.2352155,
          "velocity": 0.3937007874015748
        },
        {
          "duration": 0.17647049999999354,
          "durationTicks": 96,
          "midi": 72,
          "name": "C5",
          "ticks": 85632,
          "time": 157.411686,
          "velocity": 0.3937007874015748
        },
        {
          "duration": 0.17647049999999354,
          "durationTicks": 96,
          "midi": 68,
          "name": "G#4",
          "ticks": 85728,
          "time": 157.5881565,
          "velocity": 0.3937007874015748
        },
        {
          "duration": 0.17647050000002196,
          "durationTicks": 96,
          "midi": 75,
          "name": "D#5",
          "ticks": 85824,
          "time": 157.764627,
          "velocity": 0.3937007874015748
        },
        {
          "duration": 0.17647049999999354,
          "durationTicks": 96,
          "midi": 72,
          "name": "C5",
          "ticks": 85920,
          "time": 157.9410975,
          "velocity": 0.3937007874015748
        },
        {
          "duration": 0.17647049999999354,
          "durationTicks": 96,
          "midi": 68,
          "name": "G#4",
          "ticks": 86016,
          "time": 158.117568,
          "velocity": 0.3937007874015748
        },
        {
          "duration": 0.17647049999999354,
          "durationTicks": 96,
          "midi": 65,
          "name": "F4",
          "ticks": 86112,
          "time": 158.2940385,
          "velocity": 0.3937007874015748
        },
        {
          "duration": 0.17647050000002196,
          "durationTicks": 96,
          "midi": 72,
          "name": "C5",
          "ticks": 86208,
          "time": 158.470509,
          "velocity": 0.3937007874015748
        },
        {
          "duration": 0.17647049999999354,
          "durationTicks": 96,
          "midi": 68,
          "name": "G#4",
          "ticks": 86304,
          "time": 158.64697950000001,
          "velocity": 0.3937007874015748
        },
        {
          "duration": 0.17647049999999354,
          "durationTicks": 96,
          "midi": 75,
          "name": "D#5",
          "ticks": 86400,
          "time": 158.82345,
          "velocity": 0.3937007874015748
        },
        {
          "duration": 0.17647049999999354,
          "durationTicks": 96,
          "midi": 72,
          "name": "C5",
          "ticks": 86496,
          "time": 158.9999205,
          "velocity": 0.3937007874015748
        },
        {
          "duration": 0.17647049999999354,
          "durationTicks": 96,
          "midi": 80,
          "name": "G#5",
          "ticks": 86592,
          "time": 159.176391,
          "velocity": 0.3937007874015748
        },
        {
          "duration": 0.17647050000002196,
          "durationTicks": 96,
          "midi": 75,
          "name": "D#5",
          "ticks": 86688,
          "time": 159.3528615,
          "velocity": 0.3937007874015748
        },
        {
          "duration": 0.17647049999999354,
          "durationTicks": 96,
          "midi": 72,
          "name": "C5",
          "ticks": 86784,
          "time": 159.529332,
          "velocity": 0.3937007874015748
        },
        {
          "duration": 0.17647049999999354,
          "durationTicks": 96,
          "midi": 68,
          "name": "G#4",
          "ticks": 86880,
          "time": 159.7058025,
          "velocity": 0.3937007874015748
        },
        {
          "duration": 0.17647049999999354,
          "durationTicks": 96,
          "midi": 75,
          "name": "D#5",
          "ticks": 86976,
          "time": 159.882273,
          "velocity": 0.3937007874015748
        },
        {
          "duration": 0.17647050000002196,
          "durationTicks": 96,
          "midi": 72,
          "name": "C5",
          "ticks": 87072,
          "time": 160.0587435,
          "velocity": 0.3937007874015748
        },
        {
          "duration": 0.17647049999999354,
          "durationTicks": 96,
          "midi": 79,
          "name": "G5",
          "ticks": 87168,
          "time": 160.235214,
          "velocity": 0.3937007874015748
        },
        {
          "duration": 0.17647049999999354,
          "durationTicks": 96,
          "midi": 75,
          "name": "D#5",
          "ticks": 87264,
          "time": 160.4116845,
          "velocity": 0.3937007874015748
        },
        {
          "duration": 0.17647049999999354,
          "durationTicks": 96,
          "midi": 75,
          "name": "D#5",
          "ticks": 87360,
          "time": 160.588155,
          "velocity": 0.3937007874015748
        },
        {
          "duration": 0.17647050000002196,
          "durationTicks": 96,
          "midi": 72,
          "name": "C5",
          "ticks": 87456,
          "time": 160.7646255,
          "velocity": 0.3937007874015748
        },
        {
          "duration": 0.17647049999999354,
          "durationTicks": 96,
          "midi": 79,
          "name": "G5",
          "ticks": 87552,
          "time": 160.94109600000002,
          "velocity": 0.3937007874015748
        },
        {
          "duration": 0.17647049999999354,
          "durationTicks": 96,
          "midi": 75,
          "name": "D#5",
          "ticks": 87648,
          "time": 161.1175665,
          "velocity": 0.3937007874015748
        },
        {
          "duration": 0.17647049999999354,
          "durationTicks": 96,
          "midi": 82,
          "name": "A#5",
          "ticks": 87744,
          "time": 161.294037,
          "velocity": 0.3937007874015748
        },
        {
          "duration": 0.17647049999999354,
          "durationTicks": 96,
          "midi": 79,
          "name": "G5",
          "ticks": 87840,
          "time": 161.4705075,
          "velocity": 0.3937007874015748
        },
        {
          "duration": 0.17647050000002196,
          "durationTicks": 96,
          "midi": 84,
          "name": "C6",
          "ticks": 87936,
          "time": 161.646978,
          "velocity": 0.3937007874015748
        },
        {
          "duration": 0.17647049999999354,
          "durationTicks": 96,
          "midi": 75,
          "name": "D#5",
          "ticks": 88032,
          "time": 161.8234485,
          "velocity": 0.3937007874015748
        },
        {
          "duration": 0.17647049999999354,
          "durationTicks": 96,
          "midi": 72,
          "name": "C5",
          "ticks": 88128,
          "time": 161.999919,
          "velocity": 0.3937007874015748
        },
        {
          "duration": 0.17647049999999354,
          "durationTicks": 96,
          "midi": 79,
          "name": "G5",
          "ticks": 88224,
          "time": 162.1763895,
          "velocity": 0.3937007874015748
        },
        {
          "duration": 0.17647050000002196,
          "durationTicks": 96,
          "midi": 75,
          "name": "D#5",
          "ticks": 88320,
          "time": 162.35286,
          "velocity": 0.3937007874015748
        },
        {
          "duration": 0.17647049999999354,
          "durationTicks": 96,
          "midi": 82,
          "name": "A#5",
          "ticks": 88416,
          "time": 162.52933050000001,
          "velocity": 0.3937007874015748
        },
        {
          "duration": 0.17647049999999354,
          "durationTicks": 96,
          "midi": 79,
          "name": "G5",
          "ticks": 88512,
          "time": 162.705801,
          "velocity": 0.3937007874015748
        },
        {
          "duration": 0.17647049999999354,
          "durationTicks": 96,
          "midi": 84,
          "name": "C6",
          "ticks": 88608,
          "time": 162.8822715,
          "velocity": 0.3937007874015748
        },
        {
          "duration": 0.17647049999999354,
          "durationTicks": 96,
          "midi": 75,
          "name": "D#5",
          "ticks": 88704,
          "time": 163.058742,
          "velocity": 0.3937007874015748
        },
        {
          "duration": 0.17647050000002196,
          "durationTicks": 96,
          "midi": 72,
          "name": "C5",
          "ticks": 88800,
          "time": 163.2352125,
          "velocity": 0.3937007874015748
        },
        {
          "duration": 0.17647049999999354,
          "durationTicks": 96,
          "midi": 79,
          "name": "G5",
          "ticks": 88896,
          "time": 163.411683,
          "velocity": 0.3937007874015748
        },
        {
          "duration": 0.17647049999999354,
          "durationTicks": 96,
          "midi": 75,
          "name": "D#5",
          "ticks": 88992,
          "time": 163.5881535,
          "velocity": 0.3937007874015748
        },
        {
          "duration": 0.17647049999999354,
          "durationTicks": 96,
          "midi": 68,
          "name": "G#4",
          "ticks": 89088,
          "time": 163.764624,
          "velocity": 0.3937007874015748
        },
        {
          "duration": 0.17647050000002196,
          "durationTicks": 96,
          "midi": 65,
          "name": "F4",
          "ticks": 89184,
          "time": 163.9410945,
          "velocity": 0.3937007874015748
        },
        {
          "duration": 0.17647049999999354,
          "durationTicks": 96,
          "midi": 72,
          "name": "C5",
          "ticks": 89280,
          "time": 164.117565,
          "velocity": 0.3937007874015748
        },
        {
          "duration": 0.17647049999999354,
          "durationTicks": 96,
          "midi": 68,
          "name": "G#4",
          "ticks": 89376,
          "time": 164.2940355,
          "velocity": 0.3937007874015748
        },
        {
          "duration": 0.17647049999999354,
          "durationTicks": 96,
          "midi": 75,
          "name": "D#5",
          "ticks": 89472,
          "time": 164.470506,
          "velocity": 0.3937007874015748
        },
        {
          "duration": 0.17647050000002196,
          "durationTicks": 96,
          "midi": 72,
          "name": "C5",
          "ticks": 89568,
          "time": 164.6469765,
          "velocity": 0.3937007874015748
        },
        {
          "duration": 0.17647049999999354,
          "durationTicks": 96,
          "midi": 87,
          "name": "D#6",
          "ticks": 89664,
          "time": 164.82344700000002,
          "velocity": 0.3937007874015748
        },
        {
          "duration": 0.17647049999999354,
          "durationTicks": 96,
          "midi": 75,
          "name": "D#5",
          "ticks": 89760,
          "time": 164.9999175,
          "velocity": 0.3937007874015748
        },
        {
          "duration": 0.17647049999999354,
          "durationTicks": 96,
          "midi": 73,
          "name": "C#5",
          "ticks": 89856,
          "time": 165.176388,
          "velocity": 0.3937007874015748
        },
        {
          "duration": 0.17647049999999354,
          "durationTicks": 96,
          "midi": 70,
          "name": "A#4",
          "ticks": 89952,
          "time": 165.3528585,
          "velocity": 0.3937007874015748
        },
        {
          "duration": 0.17647050000002196,
          "durationTicks": 96,
          "midi": 77,
          "name": "F5",
          "ticks": 90048,
          "time": 165.529329,
          "velocity": 0.3937007874015748
        },
        {
          "duration": 0.17647049999999354,
          "durationTicks": 96,
          "midi": 73,
          "name": "C#5",
          "ticks": 90144,
          "time": 165.7057995,
          "velocity": 0.3937007874015748
        },
        {
          "duration": 0.17647049999999354,
          "durationTicks": 96,
          "midi": 80,
          "name": "G#5",
          "ticks": 90240,
          "time": 165.88227,
          "velocity": 0.3937007874015748
        },
        {
          "duration": 0.17647049999999354,
          "durationTicks": 96,
          "midi": 77,
          "name": "F5",
          "ticks": 90336,
          "time": 166.0587405,
          "velocity": 0.3937007874015748
        },
        {
          "duration": 0.17647050000002196,
          "durationTicks": 96,
          "midi": 72,
          "name": "C5",
          "ticks": 90432,
          "time": 166.235211,
          "velocity": 0.3937007874015748
        },
        {
          "duration": 0.17647049999999354,
          "durationTicks": 96,
          "midi": 68,
          "name": "G#4",
          "ticks": 90528,
          "time": 166.41168150000001,
          "velocity": 0.3937007874015748
        },
        {
          "duration": 0.17647049999999354,
          "durationTicks": 96,
          "midi": 75,
          "name": "D#5",
          "ticks": 90624,
          "time": 166.588152,
          "velocity": 0.3937007874015748
        },
        {
          "duration": 0.17647049999999354,
          "durationTicks": 96,
          "midi": 72,
          "name": "C5",
          "ticks": 90720,
          "time": 166.7646225,
          "velocity": 0.3937007874015748
        },
        {
          "duration": 0.17647049999999354,
          "durationTicks": 96,
          "midi": 79,
          "name": "G5",
          "ticks": 90816,
          "time": 166.941093,
          "velocity": 0.3937007874015748
        },
        {
          "duration": 0.17647050000002196,
          "durationTicks": 96,
          "midi": 75,
          "name": "D#5",
          "ticks": 90912,
          "time": 167.1175635,
          "velocity": 0.3937007874015748
        },
        {
          "duration": 0.17647049999999354,
          "durationTicks": 96,
          "midi": 80,
          "name": "G#5",
          "ticks": 91008,
          "time": 167.294034,
          "velocity": 0.3937007874015748
        },
        {
          "duration": 0.17647049999999354,
          "durationTicks": 96,
          "midi": 72,
          "name": "C5",
          "ticks": 91104,
          "time": 167.4705045,
          "velocity": 0.3937007874015748
        },
        {
          "duration": 0.17647049999999354,
          "durationTicks": 96,
          "midi": 68,
          "name": "G#4",
          "ticks": 91200,
          "time": 167.646975,
          "velocity": 0.3937007874015748
        },
        {
          "duration": 0.17647050000002196,
          "durationTicks": 96,
          "midi": 75,
          "name": "D#5",
          "ticks": 91296,
          "time": 167.8234455,
          "velocity": 0.3937007874015748
        },
        {
          "duration": 0.17647049999999354,
          "durationTicks": 96,
          "midi": 72,
          "name": "C5",
          "ticks": 91392,
          "time": 167.999916,
          "velocity": 0.3937007874015748
        },
        {
          "duration": 0.17647049999999354,
          "durationTicks": 96,
          "midi": 79,
          "name": "G5",
          "ticks": 91488,
          "time": 168.1763865,
          "velocity": 0.3937007874015748
        },
        {
          "duration": 0.17647049999999354,
          "durationTicks": 96,
          "midi": 75,
          "name": "D#5",
          "ticks": 91584,
          "time": 168.352857,
          "velocity": 0.3937007874015748
        },
        {
          "duration": 0.17647050000002196,
          "durationTicks": 96,
          "midi": 80,
          "name": "G#5",
          "ticks": 91680,
          "time": 168.5293275,
          "velocity": 0.3937007874015748
        },
        {
          "duration": 0.17647049999999354,
          "durationTicks": 96,
          "midi": 72,
          "name": "C5",
          "ticks": 91776,
          "time": 168.70579800000002,
          "velocity": 0.3937007874015748
        },
        {
          "duration": 0.17647049999999354,
          "durationTicks": 96,
          "midi": 68,
          "name": "G#4",
          "ticks": 91872,
          "time": 168.8822685,
          "velocity": 0.3937007874015748
        },
        {
          "duration": 0.17647049999999354,
          "durationTicks": 96,
          "midi": 75,
          "name": "D#5",
          "ticks": 91968,
          "time": 169.058739,
          "velocity": 0.3937007874015748
        },
        {
          "duration": 0.17647049999999354,
          "durationTicks": 96,
          "midi": 72,
          "name": "C5",
          "ticks": 92064,
          "time": 169.2352095,
          "velocity": 0.3937007874015748
        },
        {
          "duration": 0.17647050000002196,
          "durationTicks": 96,
          "midi": 68,
          "name": "G#4",
          "ticks": 92160,
          "time": 169.41168,
          "velocity": 0.3937007874015748
        },
        {
          "duration": 0.17647049999999354,
          "durationTicks": 96,
          "midi": 65,
          "name": "F4",
          "ticks": 92256,
          "time": 169.5881505,
          "velocity": 0.3937007874015748
        },
        {
          "duration": 0.17647049999999354,
          "durationTicks": 96,
          "midi": 72,
          "name": "C5",
          "ticks": 92352,
          "time": 169.764621,
          "velocity": 0.3937007874015748
        },
        {
          "duration": 0.17647049999999354,
          "durationTicks": 96,
          "midi": 68,
          "name": "G#4",
          "ticks": 92448,
          "time": 169.9410915,
          "velocity": 0.3937007874015748
        },
        {
          "duration": 0.17647050000002196,
          "durationTicks": 96,
          "midi": 75,
          "name": "D#5",
          "ticks": 92544,
          "time": 170.117562,
          "velocity": 0.3937007874015748
        },
        {
          "duration": 0.17647049999999354,
          "durationTicks": 96,
          "midi": 72,
          "name": "C5",
          "ticks": 92640,
          "time": 170.29403250000001,
          "velocity": 0.3937007874015748
        },
        {
          "duration": 0.17647049999999354,
          "durationTicks": 96,
          "midi": 84,
          "name": "C6",
          "ticks": 92736,
          "time": 170.470503,
          "velocity": 0.3937007874015748
        },
        {
          "duration": 0.17647049999999354,
          "durationTicks": 96,
          "midi": 75,
          "name": "D#5",
          "ticks": 92832,
          "time": 170.6469735,
          "velocity": 0.3937007874015748
        },
        {
          "duration": 0.17647049999999354,
          "durationTicks": 96,
          "midi": 72,
          "name": "C5",
          "ticks": 92928,
          "time": 170.823444,
          "velocity": 0.3937007874015748
        },
        {
          "duration": 0.17647050000002196,
          "durationTicks": 96,
          "midi": 68,
          "name": "G#4",
          "ticks": 93024,
          "time": 170.9999145,
          "velocity": 0.3937007874015748
        },
        {
          "duration": 0.17647049999999354,
          "durationTicks": 96,
          "midi": 75,
          "name": "D#5",
          "ticks": 93120,
          "time": 171.176385,
          "velocity": 0.3937007874015748
        },
        {
          "duration": 0.17647049999999354,
          "durationTicks": 96,
          "midi": 72,
          "name": "C5",
          "ticks": 93216,
          "time": 171.3528555,
          "velocity": 0.3937007874015748
        },
        {
          "duration": 0.17647049999999354,
          "durationTicks": 96,
          "midi": 79,
          "name": "G5",
          "ticks": 93312,
          "time": 171.529326,
          "velocity": 0.3937007874015748
        },
        {
          "duration": 0.17647050000002196,
          "durationTicks": 96,
          "midi": 75,
          "name": "D#5",
          "ticks": 93408,
          "time": 171.7057965,
          "velocity": 0.3937007874015748
        },
        {
          "duration": 0.17647049999999354,
          "durationTicks": 96,
          "midi": 75,
          "name": "D#5",
          "ticks": 93504,
          "time": 171.882267,
          "velocity": 0.3937007874015748
        },
        {
          "duration": 0.17647049999999354,
          "durationTicks": 96,
          "midi": 72,
          "name": "C5",
          "ticks": 93600,
          "time": 172.0587375,
          "velocity": 0.3937007874015748
        },
        {
          "duration": 0.17647049999999354,
          "durationTicks": 96,
          "midi": 77,
          "name": "F5",
          "ticks": 93696,
          "time": 172.235208,
          "velocity": 0.3937007874015748
        },
        {
          "duration": 0.17647050000002196,
          "durationTicks": 96,
          "midi": 75,
          "name": "D#5",
          "ticks": 93792,
          "time": 172.4116785,
          "velocity": 0.3937007874015748
        },
        {
          "duration": 0.17647049999999354,
          "durationTicks": 96,
          "midi": 79,
          "name": "G5",
          "ticks": 93888,
          "time": 172.58814900000002,
          "velocity": 0.3937007874015748
        },
        {
          "duration": 0.17647049999999354,
          "durationTicks": 96,
          "midi": 77,
          "name": "F5",
          "ticks": 93984,
          "time": 172.7646195,
          "velocity": 0.3937007874015748
        },
        {
          "duration": 0.17647049999999354,
          "durationTicks": 96,
          "midi": 82,
          "name": "A#5",
          "ticks": 94080,
          "time": 172.94109,
          "velocity": 0.3937007874015748
        },
        {
          "duration": 0.17647049999999354,
          "durationTicks": 96,
          "midi": 75,
          "name": "D#5",
          "ticks": 94176,
          "time": 173.1175605,
          "velocity": 0.3937007874015748
        },
        {
          "duration": 0.17647050000002196,
          "durationTicks": 96,
          "midi": 72,
          "name": "C5",
          "ticks": 94272,
          "time": 173.294031,
          "velocity": 0.3937007874015748
        },
        {
          "duration": 0.17647049999999354,
          "durationTicks": 96,
          "midi": 77,
          "name": "F5",
          "ticks": 94368,
          "time": 173.4705015,
          "velocity": 0.3937007874015748
        },
        {
          "duration": 0.17647049999999354,
          "durationTicks": 96,
          "midi": 75,
          "name": "D#5",
          "ticks": 94464,
          "time": 173.646972,
          "velocity": 0.3937007874015748
        },
        {
          "duration": 0.17647049999999354,
          "durationTicks": 96,
          "midi": 79,
          "name": "G5",
          "ticks": 94560,
          "time": 173.8234425,
          "velocity": 0.3937007874015748
        },
        {
          "duration": 0.17647050000002196,
          "durationTicks": 96,
          "midi": 77,
          "name": "F5",
          "ticks": 94656,
          "time": 173.999913,
          "velocity": 0.3937007874015748
        },
        {
          "duration": 0.17647049999999354,
          "durationTicks": 96,
          "midi": 82,
          "name": "A#5",
          "ticks": 94752,
          "time": 174.17638350000001,
          "velocity": 0.3937007874015748
        },
        {
          "duration": 0.17647049999999354,
          "durationTicks": 96,
          "midi": 75,
          "name": "D#5",
          "ticks": 94848,
          "time": 174.352854,
          "velocity": 0.3937007874015748
        },
        {
          "duration": 0.17647049999999354,
          "durationTicks": 96,
          "midi": 72,
          "name": "C5",
          "ticks": 94944,
          "time": 174.5293245,
          "velocity": 0.3937007874015748
        },
        {
          "duration": 0.17647049999999354,
          "durationTicks": 96,
          "midi": 77,
          "name": "F5",
          "ticks": 95040,
          "time": 174.705795,
          "velocity": 0.3937007874015748
        },
        {
          "duration": 0.17647050000002196,
          "durationTicks": 96,
          "midi": 75,
          "name": "D#5",
          "ticks": 95136,
          "time": 174.8822655,
          "velocity": 0.3937007874015748
        },
        {
          "duration": 0.17647049999999354,
          "durationTicks": 96,
          "midi": 68,
          "name": "G#4",
          "ticks": 95232,
          "time": 175.058736,
          "velocity": 0.3937007874015748
        },
        {
          "duration": 0.17647049999999354,
          "durationTicks": 96,
          "midi": 65,
          "name": "F4",
          "ticks": 95328,
          "time": 175.2352065,
          "velocity": 0.3937007874015748
        },
        {
          "duration": 0.17647049999999354,
          "durationTicks": 96,
          "midi": 72,
          "name": "C5",
          "ticks": 95424,
          "time": 175.411677,
          "velocity": 0.3937007874015748
        },
        {
          "duration": 0.17647050000002196,
          "durationTicks": 96,
          "midi": 68,
          "name": "G#4",
          "ticks": 95520,
          "time": 175.5881475,
          "velocity": 0.3937007874015748
        },
        {
          "duration": 0.17647049999999354,
          "durationTicks": 96,
          "midi": 75,
          "name": "D#5",
          "ticks": 95616,
          "time": 175.764618,
          "velocity": 0.3937007874015748
        },
        {
          "duration": 0.17647049999999354,
          "durationTicks": 96,
          "midi": 72,
          "name": "C5",
          "ticks": 95712,
          "time": 175.9410885,
          "velocity": 0.3937007874015748
        },
        {
          "duration": 0.17647049999999354,
          "durationTicks": 96,
          "midi": 80,
          "name": "G#5",
          "ticks": 95808,
          "time": 176.117559,
          "velocity": 0.3937007874015748
        },
        {
          "duration": 0.17647050000002196,
          "durationTicks": 96,
          "midi": 75,
          "name": "D#5",
          "ticks": 95904,
          "time": 176.2940295,
          "velocity": 0.3937007874015748
        },
        {
          "duration": 0.17647049999999354,
          "durationTicks": 96,
          "midi": 73,
          "name": "C#5",
          "ticks": 96000,
          "time": 176.47050000000002,
          "velocity": 0.3937007874015748
        },
        {
          "duration": 0.17647049999999354,
          "durationTicks": 96,
          "midi": 70,
          "name": "A#4",
          "ticks": 96096,
          "time": 176.6469705,
          "velocity": 0.3937007874015748
        },
        {
          "duration": 0.17647049999999354,
          "durationTicks": 96,
          "midi": 77,
          "name": "F5",
          "ticks": 96192,
          "time": 176.823441,
          "velocity": 0.3937007874015748
        },
        {
          "duration": 0.17647049999999354,
          "durationTicks": 96,
          "midi": 73,
          "name": "C#5",
          "ticks": 96288,
          "time": 176.9999115,
          "velocity": 0.3937007874015748
        },
        {
          "duration": 0.17647050000002196,
          "durationTicks": 96,
          "midi": 79,
          "name": "G5",
          "ticks": 96384,
          "time": 177.176382,
          "velocity": 0.3937007874015748
        },
        {
          "duration": 0.17647049999999354,
          "durationTicks": 96,
          "midi": 77,
          "name": "F5",
          "ticks": 96480,
          "time": 177.3528525,
          "velocity": 0.3937007874015748
        },
        {
          "duration": 0.17647049999999354,
          "durationTicks": 96,
          "midi": 72,
          "name": "C5",
          "ticks": 96576,
          "time": 177.529323,
          "velocity": 0.3937007874015748
        },
        {
          "duration": 0.17647049999999354,
          "durationTicks": 96,
          "midi": 68,
          "name": "G#4",
          "ticks": 96672,
          "time": 177.7057935,
          "velocity": 0.3937007874015748
        },
        {
          "duration": 0.17647050000002196,
          "durationTicks": 96,
          "midi": 75,
          "name": "D#5",
          "ticks": 96768,
          "time": 177.882264,
          "velocity": 0.3937007874015748
        },
        {
          "duration": 0.17647049999999354,
          "durationTicks": 96,
          "midi": 72,
          "name": "C5",
          "ticks": 96864,
          "time": 178.0587345,
          "velocity": 0.3937007874015748
        },
        {
          "duration": 0.17647049999999354,
          "durationTicks": 96,
          "midi": 77,
          "name": "F5",
          "ticks": 96960,
          "time": 178.235205,
          "velocity": 0.3937007874015748
        },
        {
          "duration": 0.17647049999999354,
          "durationTicks": 96,
          "midi": 75,
          "name": "D#5",
          "ticks": 97056,
          "time": 178.4116755,
          "velocity": 0.3937007874015748
        },
        {
          "duration": 0.17647049999999354,
          "durationTicks": 96,
          "midi": 79,
          "name": "G5",
          "ticks": 97152,
          "time": 178.588146,
          "velocity": 0.3937007874015748
        },
        {
          "duration": 0.17647050000002196,
          "durationTicks": 96,
          "midi": 72,
          "name": "C5",
          "ticks": 97248,
          "time": 178.7646165,
          "velocity": 0.3937007874015748
        },
        {
          "duration": 0.17647049999999354,
          "durationTicks": 96,
          "midi": 68,
          "name": "G#4",
          "ticks": 97344,
          "time": 178.941087,
          "velocity": 0.3937007874015748
        },
        {
          "duration": 0.17647049999999354,
          "durationTicks": 96,
          "midi": 75,
          "name": "D#5",
          "ticks": 97440,
          "time": 179.1175575,
          "velocity": 0.3937007874015748
        },
        {
          "duration": 0.17647049999999354,
          "durationTicks": 96,
          "midi": 72,
          "name": "C5",
          "ticks": 97536,
          "time": 179.294028,
          "velocity": 0.3937007874015748
        },
        {
          "duration": 0.17647050000002196,
          "durationTicks": 96,
          "midi": 77,
          "name": "F5",
          "ticks": 97632,
          "time": 179.4704985,
          "velocity": 0.3937007874015748
        },
        {
          "duration": 0.17647049999999354,
          "durationTicks": 96,
          "midi": 75,
          "name": "D#5",
          "ticks": 97728,
          "time": 179.646969,
          "velocity": 0.3937007874015748
        },
        {
          "duration": 0.17647049999999354,
          "durationTicks": 96,
          "midi": 79,
          "name": "G5",
          "ticks": 97824,
          "time": 179.8234395,
          "velocity": 0.3937007874015748
        },
        {
          "duration": 0.17647049999999354,
          "durationTicks": 96,
          "midi": 72,
          "name": "C5",
          "ticks": 97920,
          "time": 179.99991,
          "velocity": 0.3937007874015748
        },
        {
          "duration": 0.17647050000002196,
          "durationTicks": 96,
          "midi": 68,
          "name": "G#4",
          "ticks": 98016,
          "time": 180.1763805,
          "velocity": 0.3937007874015748
        },
        {
          "duration": 0.17647049999999354,
          "durationTicks": 96,
          "midi": 75,
          "name": "D#5",
          "ticks": 98112,
          "time": 180.35285100000002,
          "velocity": 0.3937007874015748
        },
        {
          "duration": 0.17647049999999354,
          "durationTicks": 96,
          "midi": 72,
          "name": "C5",
          "ticks": 98208,
          "time": 180.5293215,
          "velocity": 0.3937007874015748
        },
        {
          "duration": 0.17647049999999354,
          "durationTicks": 96,
          "midi": 68,
          "name": "G#4",
          "ticks": 98304,
          "time": 180.705792,
          "velocity": 0.3937007874015748
        },
        {
          "duration": 0.17647049999999354,
          "durationTicks": 96,
          "midi": 65,
          "name": "F4",
          "ticks": 98400,
          "time": 180.8822625,
          "velocity": 0.3937007874015748
        },
        {
          "duration": 0.17647050000002196,
          "durationTicks": 96,
          "midi": 72,
          "name": "C5",
          "ticks": 98496,
          "time": 181.058733,
          "velocity": 0.3937007874015748
        },
        {
          "duration": 0.17647049999999354,
          "durationTicks": 96,
          "midi": 68,
          "name": "G#4",
          "ticks": 98592,
          "time": 181.2352035,
          "velocity": 0.3937007874015748
        },
        {
          "duration": 0.17647049999999354,
          "durationTicks": 96,
          "midi": 75,
          "name": "D#5",
          "ticks": 98688,
          "time": 181.411674,
          "velocity": 0.3937007874015748
        },
        {
          "duration": 0.17647049999999354,
          "durationTicks": 96,
          "midi": 72,
          "name": "C5",
          "ticks": 98784,
          "time": 181.5881445,
          "velocity": 0.3937007874015748
        },
        {
          "duration": 0.17647050000002196,
          "durationTicks": 96,
          "midi": 80,
          "name": "G#5",
          "ticks": 98880,
          "time": 181.764615,
          "velocity": 0.3937007874015748
        },
        {
          "duration": 0.17647049999999354,
          "durationTicks": 96,
          "midi": 75,
          "name": "D#5",
          "ticks": 98976,
          "time": 181.9410855,
          "velocity": 0.3937007874015748
        },
        {
          "duration": 0.17647049999999354,
          "durationTicks": 96,
          "midi": 72,
          "name": "C5",
          "ticks": 99072,
          "time": 182.117556,
          "velocity": 0.3937007874015748
        },
        {
          "duration": 0.17647049999999354,
          "durationTicks": 96,
          "midi": 68,
          "name": "G#4",
          "ticks": 99168,
          "time": 182.2940265,
          "velocity": 0.3937007874015748
        },
        {
          "duration": 0.17647050000002196,
          "durationTicks": 96,
          "midi": 75,
          "name": "D#5",
          "ticks": 99264,
          "time": 182.470497,
          "velocity": 0.3937007874015748
        },
        {
          "duration": 0.17647049999999354,
          "durationTicks": 96,
          "midi": 72,
          "name": "C5",
          "ticks": 99360,
          "time": 182.64696750000002,
          "velocity": 0.3937007874015748
        },
        {
          "duration": 0.17647049999999354,
          "durationTicks": 96,
          "midi": 79,
          "name": "G5",
          "ticks": 99456,
          "time": 182.823438,
          "velocity": 0.3937007874015748
        },
        {
          "duration": 0.17647049999999354,
          "durationTicks": 96,
          "midi": 75,
          "name": "D#5",
          "ticks": 99552,
          "time": 182.9999085,
          "velocity": 0.3937007874015748
        },
        {
          "duration": 0.17647049999999354,
          "durationTicks": 96,
          "midi": 75,
          "name": "D#5",
          "ticks": 99648,
          "time": 183.176379,
          "velocity": 0.3937007874015748
        },
        {
          "duration": 0.17647050000002196,
          "durationTicks": 96,
          "midi": 72,
          "name": "C5",
          "ticks": 99744,
          "time": 183.3528495,
          "velocity": 0.3937007874015748
        },
        {
          "duration": 0.17647049999999354,
          "durationTicks": 96,
          "midi": 79,
          "name": "G5",
          "ticks": 99840,
          "time": 183.52932,
          "velocity": 0.3937007874015748
        },
        {
          "duration": 0.17647049999999354,
          "durationTicks": 96,
          "midi": 75,
          "name": "D#5",
          "ticks": 99936,
          "time": 183.7057905,
          "velocity": 0.3937007874015748
        },
        {
          "duration": 0.17647049999999354,
          "durationTicks": 96,
          "midi": 82,
          "name": "A#5",
          "ticks": 100032,
          "time": 183.882261,
          "velocity": 0.3937007874015748
        },
        {
          "duration": 0.17647050000002196,
          "durationTicks": 96,
          "midi": 79,
          "name": "G5",
          "ticks": 100128,
          "time": 184.0587315,
          "velocity": 0.3937007874015748
        },
        {
          "duration": 0.17647049999999354,
          "durationTicks": 96,
          "midi": 84,
          "name": "C6",
          "ticks": 100224,
          "time": 184.23520200000002,
          "velocity": 0.3937007874015748
        },
        {
          "duration": 0.17647049999999354,
          "durationTicks": 96,
          "midi": 75,
          "name": "D#5",
          "ticks": 100320,
          "time": 184.4116725,
          "velocity": 0.3937007874015748
        },
        {
          "duration": 0.17647049999999354,
          "durationTicks": 96,
          "midi": 72,
          "name": "C5",
          "ticks": 100416,
          "time": 184.588143,
          "velocity": 0.3937007874015748
        },
        {
          "duration": 0.17647049999999354,
          "durationTicks": 96,
          "midi": 79,
          "name": "G5",
          "ticks": 100512,
          "time": 184.7646135,
          "velocity": 0.3937007874015748
        },
        {
          "duration": 0.17647050000002196,
          "durationTicks": 96,
          "midi": 75,
          "name": "D#5",
          "ticks": 100608,
          "time": 184.941084,
          "velocity": 0.3937007874015748
        },
        {
          "duration": 0.17647049999999354,
          "durationTicks": 96,
          "midi": 82,
          "name": "A#5",
          "ticks": 100704,
          "time": 185.1175545,
          "velocity": 0.3937007874015748
        },
        {
          "duration": 0.17647049999999354,
          "durationTicks": 96,
          "midi": 79,
          "name": "G5",
          "ticks": 100800,
          "time": 185.294025,
          "velocity": 0.3937007874015748
        },
        {
          "duration": 0.17647049999999354,
          "durationTicks": 96,
          "midi": 84,
          "name": "C6",
          "ticks": 100896,
          "time": 185.4704955,
          "velocity": 0.3937007874015748
        },
        {
          "duration": 0.17647050000002196,
          "durationTicks": 96,
          "midi": 75,
          "name": "D#5",
          "ticks": 100992,
          "time": 185.646966,
          "velocity": 0.3937007874015748
        },
        {
          "duration": 0.17647049999999354,
          "durationTicks": 96,
          "midi": 72,
          "name": "C5",
          "ticks": 101088,
          "time": 185.8234365,
          "velocity": 0.3937007874015748
        },
        {
          "duration": 0.17647049999999354,
          "durationTicks": 96,
          "midi": 79,
          "name": "G5",
          "ticks": 101184,
          "time": 185.999907,
          "velocity": 0.3937007874015748
        },
        {
          "duration": 0.17647049999999354,
          "durationTicks": 96,
          "midi": 75,
          "name": "D#5",
          "ticks": 101280,
          "time": 186.1763775,
          "velocity": 0.3937007874015748
        },
        {
          "duration": 0.17647050000002196,
          "durationTicks": 96,
          "midi": 68,
          "name": "G#4",
          "ticks": 101376,
          "time": 186.352848,
          "velocity": 0.3937007874015748
        },
        {
          "duration": 0.17647049999999354,
          "durationTicks": 96,
          "midi": 65,
          "name": "F4",
          "ticks": 101472,
          "time": 186.52931850000002,
          "velocity": 0.3937007874015748
        },
        {
          "duration": 0.17647049999999354,
          "durationTicks": 96,
          "midi": 72,
          "name": "C5",
          "ticks": 101568,
          "time": 186.705789,
          "velocity": 0.3937007874015748
        },
        {
          "duration": 0.17647049999999354,
          "durationTicks": 96,
          "midi": 68,
          "name": "G#4",
          "ticks": 101664,
          "time": 186.8822595,
          "velocity": 0.3937007874015748
        },
        {
          "duration": 0.17647049999999354,
          "durationTicks": 96,
          "midi": 75,
          "name": "D#5",
          "ticks": 101760,
          "time": 187.05873,
          "velocity": 0.3937007874015748
        },
        {
          "duration": 0.17647050000002196,
          "durationTicks": 96,
          "midi": 72,
          "name": "C5",
          "ticks": 101856,
          "time": 187.2352005,
          "velocity": 0.3937007874015748
        },
        {
          "duration": 0.17647049999999354,
          "durationTicks": 96,
          "midi": 87,
          "name": "D#6",
          "ticks": 101952,
          "time": 187.411671,
          "velocity": 0.3937007874015748
        },
        {
          "duration": 0.17647049999999354,
          "durationTicks": 96,
          "midi": 75,
          "name": "D#5",
          "ticks": 102048,
          "time": 187.5881415,
          "velocity": 0.3937007874015748
        },
        {
          "duration": 0.17647049999999354,
          "durationTicks": 96,
          "midi": 73,
          "name": "C#5",
          "ticks": 102144,
          "time": 187.764612,
          "velocity": 0.3937007874015748
        },
        {
          "duration": 0.17647050000002196,
          "durationTicks": 96,
          "midi": 70,
          "name": "A#4",
          "ticks": 102240,
          "time": 187.9410825,
          "velocity": 0.3937007874015748
        },
        {
          "duration": 0.17647049999999354,
          "durationTicks": 96,
          "midi": 77,
          "name": "F5",
          "ticks": 102336,
          "time": 188.11755300000002,
          "velocity": 0.3937007874015748
        },
        {
          "duration": 0.17647049999999354,
          "durationTicks": 96,
          "midi": 73,
          "name": "C#5",
          "ticks": 102432,
          "time": 188.2940235,
          "velocity": 0.3937007874015748
        },
        {
          "duration": 0.17647049999999354,
          "durationTicks": 96,
          "midi": 80,
          "name": "G#5",
          "ticks": 102528,
          "time": 188.470494,
          "velocity": 0.3937007874015748
        },
        {
          "duration": 0.17647049999999354,
          "durationTicks": 96,
          "midi": 77,
          "name": "F5",
          "ticks": 102624,
          "time": 188.6469645,
          "velocity": 0.3937007874015748
        },
        {
          "duration": 0.17647050000002196,
          "durationTicks": 96,
          "midi": 72,
          "name": "C5",
          "ticks": 102720,
          "time": 188.823435,
          "velocity": 0.3937007874015748
        },
        {
          "duration": 0.17647049999999354,
          "durationTicks": 96,
          "midi": 68,
          "name": "G#4",
          "ticks": 102816,
          "time": 188.9999055,
          "velocity": 0.3937007874015748
        },
        {
          "duration": 0.17647049999999354,
          "durationTicks": 96,
          "midi": 75,
          "name": "D#5",
          "ticks": 102912,
          "time": 189.176376,
          "velocity": 0.3937007874015748
        },
        {
          "duration": 0.17647049999999354,
          "durationTicks": 96,
          "midi": 72,
          "name": "C5",
          "ticks": 103008,
          "time": 189.3528465,
          "velocity": 0.3937007874015748
        },
        {
          "duration": 0.17647050000002196,
          "durationTicks": 96,
          "midi": 79,
          "name": "G5",
          "ticks": 103104,
          "time": 189.529317,
          "velocity": 0.3937007874015748
        },
        {
          "duration": 0.17647049999999354,
          "durationTicks": 96,
          "midi": 75,
          "name": "D#5",
          "ticks": 103200,
          "time": 189.7057875,
          "velocity": 0.3937007874015748
        },
        {
          "duration": 0.17647049999999354,
          "durationTicks": 96,
          "midi": 80,
          "name": "G#5",
          "ticks": 103296,
          "time": 189.882258,
          "velocity": 0.3937007874015748
        },
        {
          "duration": 0.17647049999999354,
          "durationTicks": 96,
          "midi": 72,
          "name": "C5",
          "ticks": 103392,
          "time": 190.0587285,
          "velocity": 0.3937007874015748
        },
        {
          "duration": 0.17647050000002196,
          "durationTicks": 96,
          "midi": 68,
          "name": "G#4",
          "ticks": 103488,
          "time": 190.235199,
          "velocity": 0.3937007874015748
        },
        {
          "duration": 0.17647049999999354,
          "durationTicks": 96,
          "midi": 75,
          "name": "D#5",
          "ticks": 103584,
          "time": 190.41166950000002,
          "velocity": 0.3937007874015748
        },
        {
          "duration": 0.17647049999999354,
          "durationTicks": 96,
          "midi": 72,
          "name": "C5",
          "ticks": 103680,
          "time": 190.58814,
          "velocity": 0.3937007874015748
        },
        {
          "duration": 0.17647049999999354,
          "durationTicks": 96,
          "midi": 79,
          "name": "G5",
          "ticks": 103776,
          "time": 190.7646105,
          "velocity": 0.3937007874015748
        },
        {
          "duration": 0.17647049999999354,
          "durationTicks": 96,
          "midi": 75,
          "name": "D#5",
          "ticks": 103872,
          "time": 190.941081,
          "velocity": 0.3937007874015748
        },
        {
          "duration": 0.17647050000002196,
          "durationTicks": 96,
          "midi": 80,
          "name": "G#5",
          "ticks": 103968,
          "time": 191.1175515,
          "velocity": 0.3937007874015748
        },
        {
          "duration": 0.17647049999999354,
          "durationTicks": 96,
          "midi": 72,
          "name": "C5",
          "ticks": 104064,
          "time": 191.294022,
          "velocity": 0.3937007874015748
        },
        {
          "duration": 0.17647049999999354,
          "durationTicks": 96,
          "midi": 68,
          "name": "G#4",
          "ticks": 104160,
          "time": 191.4704925,
          "velocity": 0.3937007874015748
        },
        {
          "duration": 0.17647049999999354,
          "durationTicks": 96,
          "midi": 75,
          "name": "D#5",
          "ticks": 104256,
          "time": 191.646963,
          "velocity": 0.3937007874015748
        },
        {
          "duration": 0.17647050000002196,
          "durationTicks": 96,
          "midi": 72,
          "name": "C5",
          "ticks": 104352,
          "time": 191.8234335,
          "velocity": 0.3937007874015748
        },
        {
          "duration": 0.17647049999999354,
          "durationTicks": 96,
          "midi": 68,
          "name": "G#4",
          "ticks": 104448,
          "time": 191.99990400000002,
          "velocity": 0.3937007874015748
        },
        {
          "duration": 0.17647049999999354,
          "durationTicks": 96,
          "midi": 65,
          "name": "F4",
          "ticks": 104544,
          "time": 192.1763745,
          "velocity": 0.3937007874015748
        },
        {
          "duration": 0.17647049999999354,
          "durationTicks": 96,
          "midi": 72,
          "name": "C5",
          "ticks": 104640,
          "time": 192.352845,
          "velocity": 0.3937007874015748
        },
        {
          "duration": 0.17647049999999354,
          "durationTicks": 96,
          "midi": 68,
          "name": "G#4",
          "ticks": 104736,
          "time": 192.5293155,
          "velocity": 0.3937007874015748
        },
        {
          "duration": 0.17647050000002196,
          "durationTicks": 96,
          "midi": 75,
          "name": "D#5",
          "ticks": 104832,
          "time": 192.705786,
          "velocity": 0.3937007874015748
        },
        {
          "duration": 0.17647049999999354,
          "durationTicks": 96,
          "midi": 72,
          "name": "C5",
          "ticks": 104928,
          "time": 192.8822565,
          "velocity": 0.3937007874015748
        },
        {
          "duration": 0.17647049999999354,
          "durationTicks": 96,
          "midi": 84,
          "name": "C6",
          "ticks": 105024,
          "time": 193.058727,
          "velocity": 0.3937007874015748
        },
        {
          "duration": 0.17647049999999354,
          "durationTicks": 96,
          "midi": 75,
          "name": "D#5",
          "ticks": 105120,
          "time": 193.2351975,
          "velocity": 0.3937007874015748
        },
        {
          "duration": 0.17647050000002196,
          "durationTicks": 96,
          "midi": 72,
          "name": "C5",
          "ticks": 105216,
          "time": 193.411668,
          "velocity": 0.3937007874015748
        },
        {
          "duration": 0.17647049999999354,
          "durationTicks": 96,
          "midi": 68,
          "name": "G#4",
          "ticks": 105312,
          "time": 193.5881385,
          "velocity": 0.3937007874015748
        },
        {
          "duration": 0.17647049999999354,
          "durationTicks": 96,
          "midi": 75,
          "name": "D#5",
          "ticks": 105408,
          "time": 193.764609,
          "velocity": 0.3937007874015748
        },
        {
          "duration": 0.17647049999999354,
          "durationTicks": 96,
          "midi": 72,
          "name": "C5",
          "ticks": 105504,
          "time": 193.9410795,
          "velocity": 0.3937007874015748
        },
        {
          "duration": 0.17647050000002196,
          "durationTicks": 96,
          "midi": 79,
          "name": "G5",
          "ticks": 105600,
          "time": 194.11755,
          "velocity": 0.3937007874015748
        },
        {
          "duration": 0.17647049999999354,
          "durationTicks": 96,
          "midi": 75,
          "name": "D#5",
          "ticks": 105696,
          "time": 194.29402050000002,
          "velocity": 0.3937007874015748
        },
        {
          "duration": 0.17647049999999354,
          "durationTicks": 96,
          "midi": 75,
          "name": "D#5",
          "ticks": 105792,
          "time": 194.470491,
          "velocity": 0.3937007874015748
        },
        {
          "duration": 0.17647049999999354,
          "durationTicks": 96,
          "midi": 72,
          "name": "C5",
          "ticks": 105888,
          "time": 194.6469615,
          "velocity": 0.3937007874015748
        },
        {
          "duration": 0.17647049999999354,
          "durationTicks": 96,
          "midi": 77,
          "name": "F5",
          "ticks": 105984,
          "time": 194.823432,
          "velocity": 0.3937007874015748
        },
        {
          "duration": 0.17647050000002196,
          "durationTicks": 96,
          "midi": 75,
          "name": "D#5",
          "ticks": 106080,
          "time": 194.9999025,
          "velocity": 0.3937007874015748
        },
        {
          "duration": 0.17647049999999354,
          "durationTicks": 96,
          "midi": 79,
          "name": "G5",
          "ticks": 106176,
          "time": 195.176373,
          "velocity": 0.3937007874015748
        },
        {
          "duration": 0.17647049999999354,
          "durationTicks": 96,
          "midi": 77,
          "name": "F5",
          "ticks": 106272,
          "time": 195.3528435,
          "velocity": 0.3937007874015748
        },
        {
          "duration": 0.17647049999999354,
          "durationTicks": 96,
          "midi": 82,
          "name": "A#5",
          "ticks": 106368,
          "time": 195.529314,
          "velocity": 0.3937007874015748
        },
        {
          "duration": 0.17647050000002196,
          "durationTicks": 96,
          "midi": 75,
          "name": "D#5",
          "ticks": 106464,
          "time": 195.7057845,
          "velocity": 0.3937007874015748
        },
        {
          "duration": 0.17647049999999354,
          "durationTicks": 96,
          "midi": 72,
          "name": "C5",
          "ticks": 106560,
          "time": 195.88225500000001,
          "velocity": 0.3937007874015748
        },
        {
          "duration": 0.17647049999999354,
          "durationTicks": 96,
          "midi": 77,
          "name": "F5",
          "ticks": 106656,
          "time": 196.0587255,
          "velocity": 0.3937007874015748
        },
        {
          "duration": 0.17647049999999354,
          "durationTicks": 96,
          "midi": 75,
          "name": "D#5",
          "ticks": 106752,
          "time": 196.235196,
          "velocity": 0.3937007874015748
        },
        {
          "duration": 0.17647049999999354,
          "durationTicks": 96,
          "midi": 79,
          "name": "G5",
          "ticks": 106848,
          "time": 196.4116665,
          "velocity": 0.3937007874015748
        },
        {
          "duration": 0.17647050000002196,
          "durationTicks": 96,
          "midi": 77,
          "name": "F5",
          "ticks": 106944,
          "time": 196.588137,
          "velocity": 0.3937007874015748
        },
        {
          "duration": 0.17647049999999354,
          "durationTicks": 96,
          "midi": 82,
          "name": "A#5",
          "ticks": 107040,
          "time": 196.7646075,
          "velocity": 0.3937007874015748
        },
        {
          "duration": 0.17647049999999354,
          "durationTicks": 96,
          "midi": 75,
          "name": "D#5",
          "ticks": 107136,
          "time": 196.941078,
          "velocity": 0.3937007874015748
        },
        {
          "duration": 0.17647049999999354,
          "durationTicks": 96,
          "midi": 72,
          "name": "C5",
          "ticks": 107232,
          "time": 197.1175485,
          "velocity": 0.3937007874015748
        },
        {
          "duration": 0.17647050000002196,
          "durationTicks": 96,
          "midi": 77,
          "name": "F5",
          "ticks": 107328,
          "time": 197.294019,
          "velocity": 0.3937007874015748
        },
        {
          "duration": 0.17647049999999354,
          "durationTicks": 96,
          "midi": 75,
          "name": "D#5",
          "ticks": 107424,
          "time": 197.4704895,
          "velocity": 0.3937007874015748
        },
        {
          "duration": 0.17647049999999354,
          "durationTicks": 96,
          "midi": 68,
          "name": "G#4",
          "ticks": 107520,
          "time": 197.64696,
          "velocity": 0.3937007874015748
        },
        {
          "duration": 0.17647049999999354,
          "durationTicks": 96,
          "midi": 65,
          "name": "F4",
          "ticks": 107616,
          "time": 197.8234305,
          "velocity": 0.3937007874015748
        },
        {
          "duration": 0.17647050000002196,
          "durationTicks": 96,
          "midi": 72,
          "name": "C5",
          "ticks": 107712,
          "time": 197.999901,
          "velocity": 0.3937007874015748
        },
        {
          "duration": 0.17647049999999354,
          "durationTicks": 96,
          "midi": 68,
          "name": "G#4",
          "ticks": 107808,
          "time": 198.17637150000002,
          "velocity": 0.3937007874015748
        },
        {
          "duration": 0.17647049999999354,
          "durationTicks": 96,
          "midi": 75,
          "name": "D#5",
          "ticks": 107904,
          "time": 198.352842,
          "velocity": 0.3937007874015748
        },
        {
          "duration": 0.17647049999999354,
          "durationTicks": 96,
          "midi": 72,
          "name": "C5",
          "ticks": 108000,
          "time": 198.5293125,
          "velocity": 0.3937007874015748
        },
        {
          "duration": 0.17647049999999354,
          "durationTicks": 96,
          "midi": 80,
          "name": "G#5",
          "ticks": 108096,
          "time": 198.705783,
          "velocity": 0.3937007874015748
        },
        {
          "duration": 0.17647050000002196,
          "durationTicks": 96,
          "midi": 75,
          "name": "D#5",
          "ticks": 108192,
          "time": 198.8822535,
          "velocity": 0.3937007874015748
        },
        {
          "duration": 0.17647049999999354,
          "durationTicks": 96,
          "midi": 73,
          "name": "C#5",
          "ticks": 108288,
          "time": 199.058724,
          "velocity": 0.3937007874015748
        },
        {
          "duration": 0.17647049999999354,
          "durationTicks": 96,
          "midi": 70,
          "name": "A#4",
          "ticks": 108384,
          "time": 199.2351945,
          "velocity": 0.3937007874015748
        }
      ],
      "endOfTrackTicks": 108480
    },
    {
      "channel": 2,
      "controlChanges": {},
      "pitchBends": [],
      "instrument": {
        "family": "piano",
        "number": 6,
        "name": "harpsichord"
      },
      "name": "Harpsichord",
      "notes": [
        {
          "duration": 0.17647049999999354,
          "durationTicks": 96,
          "midi": 75,
          "name": "D#5",
          "ticks": 49152,
          "time": 90.352896,
          "velocity": 0.3937007874015748
        },
        {
          "duration": 0.17647050000000775,
          "durationTicks": 96,
          "midi": 77,
          "name": "F5",
          "ticks": 49440,
          "time": 90.8823075,
          "velocity": 0.3937007874015748
        },
        {
          "duration": 0.17647049999999354,
          "durationTicks": 96,
          "midi": 75,
          "name": "D#5",
          "ticks": 49536,
          "time": 91.058778,
          "velocity": 0.3937007874015748
        },
        {
          "duration": 0.17647050000000775,
          "durationTicks": 96,
          "midi": 77,
          "name": "F5",
          "ticks": 49632,
          "time": 91.2352485,
          "velocity": 0.3937007874015748
        },
        {
          "duration": 0.17647049999999354,
          "durationTicks": 96,
          "midi": 79,
          "name": "G5",
          "ticks": 49728,
          "time": 91.411719,
          "velocity": 0.3937007874015748
        },
        {
          "duration": 0.17647049999999354,
          "durationTicks": 96,
          "midi": 82,
          "name": "A#5",
          "ticks": 49920,
          "time": 91.76466,
          "velocity": 0.3937007874015748
        },
        {
          "duration": 0.17647049999999354,
          "durationTicks": 96,
          "midi": 79,
          "name": "G5",
          "ticks": 50112,
          "time": 92.11760100000001,
          "velocity": 0.3937007874015748
        },
        {
          "duration": 0.17647050000000775,
          "durationTicks": 96,
          "midi": 75,
          "name": "D#5",
          "ticks": 50304,
          "time": 92.470542,
          "velocity": 0.3937007874015748
        },
        {
          "duration": 0.17647050000000775,
          "durationTicks": 96,
          "midi": 72,
          "name": "C5",
          "ticks": 50496,
          "time": 92.823483,
          "velocity": 0.3937007874015748
        },
        {
          "duration": 0.17647050000000775,
          "durationTicks": 96,
          "midi": 75,
          "name": "D#5",
          "ticks": 50688,
          "time": 93.176424,
          "velocity": 0.3937007874015748
        },
        {
          "duration": 0.17647050000000775,
          "durationTicks": 96,
          "midi": 79,
          "name": "G5",
          "ticks": 50880,
          "time": 93.529365,
          "velocity": 0.3937007874015748
        },
        {
          "duration": 0.17647049999999354,
          "durationTicks": 96,
          "midi": 80,
          "name": "G#5",
          "ticks": 50976,
          "time": 93.7058355,
          "velocity": 0.3937007874015748
        },
        {
          "duration": 0.17647050000000775,
          "durationTicks": 96,
          "midi": 79,
          "name": "G5",
          "ticks": 51072,
          "time": 93.882306,
          "velocity": 0.3937007874015748
        },
        {
          "duration": 0.17647049999999354,
          "durationTicks": 96,
          "midi": 80,
          "name": "G#5",
          "ticks": 51168,
          "time": 94.05877650000001,
          "velocity": 0.3937007874015748
        },
        {
          "duration": 0.17647049999999354,
          "durationTicks": 96,
          "midi": 79,
          "name": "G5",
          "ticks": 51264,
          "time": 94.235247,
          "velocity": 0.3937007874015748
        },
        {
          "duration": 0.17647049999999354,
          "durationTicks": 96,
          "midi": 75,
          "name": "D#5",
          "ticks": 52224,
          "time": 95.99995200000001,
          "velocity": 0.3937007874015748
        },
        {
          "duration": 0.17647049999999354,
          "durationTicks": 96,
          "midi": 77,
          "name": "F5",
          "ticks": 52512,
          "time": 96.5293635,
          "velocity": 0.3937007874015748
        },
        {
          "duration": 0.17647050000000775,
          "durationTicks": 96,
          "midi": 75,
          "name": "D#5",
          "ticks": 52608,
          "time": 96.705834,
          "velocity": 0.3937007874015748
        },
        {
          "duration": 0.17647049999999354,
          "durationTicks": 96,
          "midi": 77,
          "name": "F5",
          "ticks": 52704,
          "time": 96.8823045,
          "velocity": 0.3937007874015748
        },
        {
          "duration": 0.17647050000000775,
          "durationTicks": 96,
          "midi": 79,
          "name": "G5",
          "ticks": 52800,
          "time": 97.058775,
          "velocity": 0.3937007874015748
        },
        {
          "duration": 0.17647050000000775,
          "durationTicks": 96,
          "midi": 82,
          "name": "A#5",
          "ticks": 52992,
          "time": 97.411716,
          "velocity": 0.3937007874015748
        },
        {
          "duration": 0.17647050000000775,
          "durationTicks": 96,
          "midi": 79,
          "name": "G5",
          "ticks": 53184,
          "time": 97.764657,
          "velocity": 0.3937007874015748
        },
        {
          "duration": 0.17647049999999354,
          "durationTicks": 96,
          "midi": 75,
          "name": "D#5",
          "ticks": 53376,
          "time": 98.117598,
          "velocity": 0.3937007874015748
        },
        {
          "duration": 0.17647049999999354,
          "durationTicks": 96,
          "midi": 72,
          "name": "C5",
          "ticks": 53568,
          "time": 98.470539,
          "velocity": 0.3937007874015748
        },
        {
          "duration": 0.17647049999999354,
          "durationTicks": 96,
          "midi": 75,
          "name": "D#5",
          "ticks": 53760,
          "time": 98.82348,
          "velocity": 0.3937007874015748
        },
        {
          "duration": 0.17647049999999354,
          "durationTicks": 96,
          "midi": 79,
          "name": "G5",
          "ticks": 53952,
          "time": 99.176421,
          "velocity": 0.3937007874015748
        },
        {
          "duration": 0.17647050000000775,
          "durationTicks": 96,
          "midi": 80,
          "name": "G#5",
          "ticks": 54048,
          "time": 99.3528915,
          "velocity": 0.3937007874015748
        },
        {
          "duration": 0.17647049999999354,
          "durationTicks": 96,
          "midi": 79,
          "name": "G5",
          "ticks": 54144,
          "time": 99.529362,
          "velocity": 0.3937007874015748
        },
        {
          "duration": 0.17647050000000775,
          "durationTicks": 96,
          "midi": 80,
          "name": "G#5",
          "ticks": 54240,
          "time": 99.7058325,
          "velocity": 0.3937007874015748
        },
        {
          "duration": 0.17647049999999354,
          "durationTicks": 96,
          "midi": 79,
          "name": "G5",
          "ticks": 54336,
          "time": 99.88230300000001,
          "velocity": 0.3937007874015748
        },
        {
          "duration": 0.17647050000000775,
          "durationTicks": 96,
          "midi": 75,
          "name": "D#5",
          "ticks": 55296,
          "time": 101.647008,
          "velocity": 0.3937007874015748
        },
        {
          "duration": 0.17647050000000775,
          "durationTicks": 96,
          "midi": 77,
          "name": "F5",
          "ticks": 55584,
          "time": 102.1764195,
          "velocity": 0.3937007874015748
        },
        {
          "duration": 0.17647049999999354,
          "durationTicks": 96,
          "midi": 75,
          "name": "D#5",
          "ticks": 55680,
          "time": 102.35289,
          "velocity": 0.3937007874015748
        },
        {
          "duration": 0.17647050000000775,
          "durationTicks": 96,
          "midi": 77,
          "name": "F5",
          "ticks": 55776,
          "time": 102.5293605,
          "velocity": 0.3937007874015748
        },
        {
          "duration": 0.17647049999999354,
          "durationTicks": 96,
          "midi": 79,
          "name": "G5",
          "ticks": 55872,
          "time": 102.705831,
          "velocity": 0.3937007874015748
        },
        {
          "duration": 0.17647049999999354,
          "durationTicks": 96,
          "midi": 82,
          "name": "A#5",
          "ticks": 56064,
          "time": 103.058772,
          "velocity": 0.3937007874015748
        },
        {
          "duration": 0.17647049999999354,
          "durationTicks": 96,
          "midi": 79,
          "name": "G5",
          "ticks": 56256,
          "time": 103.411713,
          "velocity": 0.3937007874015748
        },
        {
          "duration": 0.17647049999999354,
          "durationTicks": 96,
          "midi": 75,
          "name": "D#5",
          "ticks": 56448,
          "time": 103.76465400000001,
          "velocity": 0.3937007874015748
        },
        {
          "duration": 0.17647050000000775,
          "durationTicks": 96,
          "midi": 72,
          "name": "C5",
          "ticks": 56640,
          "time": 104.117595,
          "velocity": 0.3937007874015748
        },
        {
          "duration": 0.17647050000000775,
          "durationTicks": 96,
          "midi": 75,
          "name": "D#5",
          "ticks": 56832,
          "time": 104.470536,
          "velocity": 0.3937007874015748
        },
        {
          "duration": 0.17647050000000775,
          "durationTicks": 96,
          "midi": 79,
          "name": "G5",
          "ticks": 57024,
          "time": 104.823477,
          "velocity": 0.3937007874015748
        },
        {
          "duration": 0.17647049999999354,
          "durationTicks": 96,
          "midi": 80,
          "name": "G#5",
          "ticks": 57120,
          "time": 104.9999475,
          "velocity": 0.3937007874015748
        },
        {
          "duration": 0.17647050000000775,
          "durationTicks": 96,
          "midi": 79,
          "name": "G5",
          "ticks": 57216,
          "time": 105.176418,
          "velocity": 0.3937007874015748
        },
        {
          "duration": 0.17647049999999354,
          "durationTicks": 96,
          "midi": 80,
          "name": "G#5",
          "ticks": 57312,
          "time": 105.3528885,
          "velocity": 0.3937007874015748
        },
        {
          "duration": 0.17647050000000775,
          "durationTicks": 96,
          "midi": 79,
          "name": "G5",
          "ticks": 57408,
          "time": 105.529359,
          "velocity": 0.3937007874015748
        },
        {
          "duration": 0.17647049999999354,
          "durationTicks": 96,
          "midi": 75,
          "name": "D#5",
          "ticks": 58368,
          "time": 107.294064,
          "velocity": 0.3937007874015748
        },
        {
          "duration": 0.17647050000000775,
          "durationTicks": 96,
          "midi": 77,
          "name": "F5",
          "ticks": 58656,
          "time": 107.8234755,
          "velocity": 0.3937007874015748
        },
        {
          "duration": 0.17647049999999354,
          "durationTicks": 96,
          "midi": 75,
          "name": "D#5",
          "ticks": 58752,
          "time": 107.99994600000001,
          "velocity": 0.3937007874015748
        },
        {
          "duration": 0.17647049999999354,
          "durationTicks": 96,
          "midi": 77,
          "name": "F5",
          "ticks": 58848,
          "time": 108.1764165,
          "velocity": 0.3937007874015748
        },
        {
          "duration": 0.17647050000000775,
          "durationTicks": 96,
          "midi": 79,
          "name": "G5",
          "ticks": 58944,
          "time": 108.352887,
          "velocity": 0.3937007874015748
        },
        {
          "duration": 0.17647050000000775,
          "durationTicks": 96,
          "midi": 82,
          "name": "A#5",
          "ticks": 59136,
          "time": 108.705828,
          "velocity": 0.3937007874015748
        },
        {
          "duration": 0.17647050000000775,
          "durationTicks": 96,
          "midi": 79,
          "name": "G5",
          "ticks": 59328,
          "time": 109.058769,
          "velocity": 0.3937007874015748
        },
        {
          "duration": 0.17647050000000775,
          "durationTicks": 96,
          "midi": 75,
          "name": "D#5",
          "ticks": 59520,
          "time": 109.41171,
          "velocity": 0.3937007874015748
        },
        {
          "duration": 0.17647050000000775,
          "durationTicks": 96,
          "midi": 72,
          "name": "C5",
          "ticks": 59712,
          "time": 109.764651,
          "velocity": 0.3937007874015748
        },
        {
          "duration": 0.17647049999999354,
          "durationTicks": 96,
          "midi": 75,
          "name": "D#5",
          "ticks": 59904,
          "time": 110.117592,
          "velocity": 0.3937007874015748
        },
        {
          "duration": 0.17647049999999354,
          "durationTicks": 96,
          "midi": 79,
          "name": "G5",
          "ticks": 60096,
          "time": 110.470533,
          "velocity": 0.3937007874015748
        },
        {
          "duration": 0.17647050000000775,
          "durationTicks": 96,
          "midi": 80,
          "name": "G#5",
          "ticks": 60192,
          "time": 110.6470035,
          "velocity": 0.3937007874015748
        },
        {
          "duration": 0.17647049999999354,
          "durationTicks": 96,
          "midi": 79,
          "name": "G5",
          "ticks": 60288,
          "time": 110.823474,
          "velocity": 0.3937007874015748
        },
        {
          "duration": 0.17647050000000775,
          "durationTicks": 96,
          "midi": 80,
          "name": "G#5",
          "ticks": 60384,
          "time": 110.9999445,
          "velocity": 0.3937007874015748
        },
        {
          "duration": 0.17647049999999354,
          "durationTicks": 96,
          "midi": 79,
          "name": "G5",
          "ticks": 60480,
          "time": 111.176415,
          "velocity": 0.3937007874015748
        },
        {
          "duration": 0.17647050000000775,
          "durationTicks": 96,
          "midi": 75,
          "name": "D#5",
          "ticks": 61440,
          "time": 112.94112,
          "velocity": 0.3937007874015748
        },
        {
          "duration": 0.17647049999999354,
          "durationTicks": 96,
          "midi": 77,
          "name": "F5",
          "ticks": 61728,
          "time": 113.4705315,
          "velocity": 0.3937007874015748
        },
        {
          "duration": 0.17647050000000775,
          "durationTicks": 96,
          "midi": 75,
          "name": "D#5",
          "ticks": 61824,
          "time": 113.647002,
          "velocity": 0.3937007874015748
        },
        {
          "duration": 0.17647049999999354,
          "durationTicks": 96,
          "midi": 77,
          "name": "F5",
          "ticks": 61920,
          "time": 113.82347250000001,
          "velocity": 0.3937007874015748
        },
        {
          "duration": 0.17647049999999354,
          "durationTicks": 96,
          "midi": 79,
          "name": "G5",
          "ticks": 62016,
          "time": 113.999943,
          "velocity": 0.3937007874015748
        },
        {
          "duration": 0.17647049999999354,
          "durationTicks": 96,
          "midi": 82,
          "name": "A#5",
          "ticks": 62208,
          "time": 114.352884,
          "velocity": 0.3937007874015748
        },
        {
          "duration": 0.17647049999999354,
          "durationTicks": 96,
          "midi": 79,
          "name": "G5",
          "ticks": 62400,
          "time": 114.705825,
          "velocity": 0.3937007874015748
        },
        {
          "duration": 0.17647049999999354,
          "durationTicks": 96,
          "midi": 75,
          "name": "D#5",
          "ticks": 62592,
          "time": 115.058766,
          "velocity": 0.3937007874015748
        },
        {
          "duration": 0.17647049999999354,
          "durationTicks": 96,
          "midi": 72,
          "name": "C5",
          "ticks": 62784,
          "time": 115.411707,
          "velocity": 0.3937007874015748
        },
        {
          "duration": 0.17647049999999354,
          "durationTicks": 96,
          "midi": 75,
          "name": "D#5",
          "ticks": 62976,
          "time": 115.76464800000001,
          "velocity": 0.3937007874015748
        },
        {
          "duration": 0.17647050000000775,
          "durationTicks": 96,
          "midi": 79,
          "name": "G5",
          "ticks": 63168,
          "time": 116.117589,
          "velocity": 0.3937007874015748
        },
        {
          "duration": 0.17647049999999354,
          "durationTicks": 96,
          "midi": 80,
          "name": "G#5",
          "ticks": 63264,
          "time": 116.2940595,
          "velocity": 0.3937007874015748
        },
        {
          "duration": 0.17647050000000775,
          "durationTicks": 96,
          "midi": 79,
          "name": "G5",
          "ticks": 63360,
          "time": 116.47053,
          "velocity": 0.3937007874015748
        },
        {
          "duration": 0.17647049999999354,
          "durationTicks": 96,
          "midi": 80,
          "name": "G#5",
          "ticks": 63456,
          "time": 116.6470005,
          "velocity": 0.3937007874015748
        },
        {
          "duration": 0.17647050000000775,
          "durationTicks": 96,
          "midi": 79,
          "name": "G5",
          "ticks": 63552,
          "time": 116.823471,
          "velocity": 0.3937007874015748
        },
        {
          "duration": 0.17647049999999354,
          "durationTicks": 96,
          "midi": 75,
          "name": "D#5",
          "ticks": 64512,
          "time": 118.588176,
          "velocity": 0.3937007874015748
        },
        {
          "duration": 0.17647050000000775,
          "durationTicks": 96,
          "midi": 77,
          "name": "F5",
          "ticks": 64800,
          "time": 119.1175875,
          "velocity": 0.3937007874015748
        },
        {
          "duration": 0.17647049999999354,
          "durationTicks": 96,
          "midi": 75,
          "name": "D#5",
          "ticks": 64896,
          "time": 119.294058,
          "velocity": 0.3937007874015748
        },
        {
          "duration": 0.17647050000000775,
          "durationTicks": 96,
          "midi": 77,
          "name": "F5",
          "ticks": 64992,
          "time": 119.4705285,
          "velocity": 0.3937007874015748
        },
        {
          "duration": 0.17647049999999354,
          "durationTicks": 96,
          "midi": 79,
          "name": "G5",
          "ticks": 65088,
          "time": 119.64699900000001,
          "velocity": 0.3937007874015748
        },
        {
          "duration": 0.17647050000000775,
          "durationTicks": 96,
          "midi": 82,
          "name": "A#5",
          "ticks": 65280,
          "time": 119.99994,
          "velocity": 0.3937007874015748
        },
        {
          "duration": 0.17647050000000775,
          "durationTicks": 96,
          "midi": 79,
          "name": "G5",
          "ticks": 65472,
          "time": 120.352881,
          "velocity": 0.3937007874015748
        },
        {
          "duration": 0.17647050000000775,
          "durationTicks": 96,
          "midi": 75,
          "name": "D#5",
          "ticks": 65664,
          "time": 120.705822,
          "velocity": 0.3937007874015748
        },
        {
          "duration": 0.17647050000000775,
          "durationTicks": 96,
          "midi": 72,
          "name": "C5",
          "ticks": 65856,
          "time": 121.058763,
          "velocity": 0.3937007874015748
        },
        {
          "duration": 0.17647050000000775,
          "durationTicks": 96,
          "midi": 75,
          "name": "D#5",
          "ticks": 66048,
          "time": 121.411704,
          "velocity": 0.3937007874015748
        },
        {
          "duration": 0.17647049999999354,
          "durationTicks": 96,
          "midi": 79,
          "name": "G5",
          "ticks": 66240,
          "time": 121.764645,
          "velocity": 0.3937007874015748
        },
        {
          "duration": 0.17647050000000775,
          "durationTicks": 96,
          "midi": 80,
          "name": "G#5",
          "ticks": 66336,
          "time": 121.9411155,
          "velocity": 0.3937007874015748
        },
        {
          "duration": 0.17647049999999354,
          "durationTicks": 96,
          "midi": 79,
          "name": "G5",
          "ticks": 66432,
          "time": 122.117586,
          "velocity": 0.3937007874015748
        },
        {
          "duration": 0.17647050000000775,
          "durationTicks": 96,
          "midi": 80,
          "name": "G#5",
          "ticks": 66528,
          "time": 122.2940565,
          "velocity": 0.3937007874015748
        },
        {
          "duration": 0.17647049999999354,
          "durationTicks": 96,
          "midi": 79,
          "name": "G5",
          "ticks": 66624,
          "time": 122.470527,
          "velocity": 0.3937007874015748
        },
        {
          "duration": 0.17647050000000775,
          "durationTicks": 96,
          "midi": 75,
          "name": "D#5",
          "ticks": 67584,
          "time": 124.235232,
          "velocity": 0.3937007874015748
        },
        {
          "duration": 0.17647049999999354,
          "durationTicks": 96,
          "midi": 77,
          "name": "F5",
          "ticks": 67872,
          "time": 124.7646435,
          "velocity": 0.3937007874015748
        },
        {
          "duration": 0.17647050000000775,
          "durationTicks": 96,
          "midi": 75,
          "name": "D#5",
          "ticks": 67968,
          "time": 124.941114,
          "velocity": 0.3937007874015748
        },
        {
          "duration": 0.17647049999999354,
          "durationTicks": 96,
          "midi": 77,
          "name": "F5",
          "ticks": 68064,
          "time": 125.1175845,
          "velocity": 0.3937007874015748
        },
        {
          "duration": 0.17647050000000775,
          "durationTicks": 96,
          "midi": 79,
          "name": "G5",
          "ticks": 68160,
          "time": 125.294055,
          "velocity": 0.3937007874015748
        },
        {
          "duration": 0.17647049999999354,
          "durationTicks": 96,
          "midi": 82,
          "name": "A#5",
          "ticks": 68352,
          "time": 125.646996,
          "velocity": 0.3937007874015748
        },
        {
          "duration": 0.17647049999999354,
          "durationTicks": 96,
          "midi": 79,
          "name": "G5",
          "ticks": 68544,
          "time": 125.999937,
          "velocity": 0.3937007874015748
        },
        {
          "duration": 0.17647049999999354,
          "durationTicks": 96,
          "midi": 75,
          "name": "D#5",
          "ticks": 68736,
          "time": 126.352878,
          "velocity": 0.3937007874015748
        },
        {
          "duration": 0.17647049999999354,
          "durationTicks": 96,
          "midi": 72,
          "name": "C5",
          "ticks": 68928,
          "time": 126.705819,
          "velocity": 0.3937007874015748
        },
        {
          "duration": 0.17647049999999354,
          "durationTicks": 96,
          "midi": 75,
          "name": "D#5",
          "ticks": 69120,
          "time": 127.05876,
          "velocity": 0.3937007874015748
        },
        {
          "duration": 0.17647049999999354,
          "durationTicks": 96,
          "midi": 79,
          "name": "G5",
          "ticks": 69312,
          "time": 127.41170100000001,
          "velocity": 0.3937007874015748
        },
        {
          "duration": 0.17647049999999354,
          "durationTicks": 96,
          "midi": 80,
          "name": "G#5",
          "ticks": 69408,
          "time": 127.5881715,
          "velocity": 0.3937007874015748
        },
        {
          "duration": 0.17647050000000775,
          "durationTicks": 96,
          "midi": 79,
          "name": "G5",
          "ticks": 69504,
          "time": 127.764642,
          "velocity": 0.3937007874015748
        },
        {
          "duration": 0.17647049999999354,
          "durationTicks": 96,
          "midi": 80,
          "name": "G#5",
          "ticks": 69600,
          "time": 127.9411125,
          "velocity": 0.3937007874015748
        },
        {
          "duration": 0.17647049999999354,
          "durationTicks": 96,
          "midi": 79,
          "name": "G5",
          "ticks": 69696,
          "time": 128.117583,
          "velocity": 0.3937007874015748
        },
        {
          "duration": 0.17647050000002196,
          "durationTicks": 96,
          "midi": 75,
          "name": "D#5",
          "ticks": 70656,
          "time": 129.882288,
          "velocity": 0.3937007874015748
        },
        {
          "duration": 0.17647049999999354,
          "durationTicks": 96,
          "midi": 77,
          "name": "F5",
          "ticks": 70944,
          "time": 130.4116995,
          "velocity": 0.3937007874015748
        },
        {
          "duration": 0.17647050000002196,
          "durationTicks": 96,
          "midi": 75,
          "name": "D#5",
          "ticks": 71040,
          "time": 130.58817,
          "velocity": 0.3937007874015748
        },
        {
          "duration": 0.17647049999999354,
          "durationTicks": 96,
          "midi": 77,
          "name": "F5",
          "ticks": 71136,
          "time": 130.7646405,
          "velocity": 0.3937007874015748
        },
        {
          "duration": 0.17647049999999354,
          "durationTicks": 96,
          "midi": 79,
          "name": "G5",
          "ticks": 71232,
          "time": 130.941111,
          "velocity": 0.3937007874015748
        },
        {
          "duration": 0.17647050000002196,
          "durationTicks": 96,
          "midi": 82,
          "name": "A#5",
          "ticks": 71424,
          "time": 131.294052,
          "velocity": 0.3937007874015748
        },
        {
          "duration": 0.17647049999999354,
          "durationTicks": 96,
          "midi": 79,
          "name": "G5",
          "ticks": 71616,
          "time": 131.646993,
          "velocity": 0.3937007874015748
        },
        {
          "duration": 0.17647049999999354,
          "durationTicks": 96,
          "midi": 75,
          "name": "D#5",
          "ticks": 71808,
          "time": 131.999934,
          "velocity": 0.3937007874015748
        },
        {
          "duration": 0.17647049999999354,
          "durationTicks": 96,
          "midi": 72,
          "name": "C5",
          "ticks": 72000,
          "time": 132.352875,
          "velocity": 0.3937007874015748
        },
        {
          "duration": 0.17647049999999354,
          "durationTicks": 96,
          "midi": 75,
          "name": "D#5",
          "ticks": 72192,
          "time": 132.705816,
          "velocity": 0.3937007874015748
        },
        {
          "duration": 0.17647049999999354,
          "durationTicks": 96,
          "midi": 79,
          "name": "G5",
          "ticks": 72384,
          "time": 133.058757,
          "velocity": 0.3937007874015748
        },
        {
          "duration": 0.17647049999999354,
          "durationTicks": 96,
          "midi": 80,
          "name": "G#5",
          "ticks": 72480,
          "time": 133.2352275,
          "velocity": 0.3937007874015748
        },
        {
          "duration": 0.17647049999999354,
          "durationTicks": 96,
          "midi": 79,
          "name": "G5",
          "ticks": 72576,
          "time": 133.411698,
          "velocity": 0.3937007874015748
        },
        {
          "duration": 0.17647049999999354,
          "durationTicks": 96,
          "midi": 80,
          "name": "G#5",
          "ticks": 72672,
          "time": 133.5881685,
          "velocity": 0.3937007874015748
        },
        {
          "duration": 0.17647050000002196,
          "durationTicks": 96,
          "midi": 79,
          "name": "G5",
          "ticks": 72768,
          "time": 133.764639,
          "velocity": 0.3937007874015748
        },
        {
          "duration": 0.17647049999999354,
          "durationTicks": 96,
          "midi": 75,
          "name": "D#5",
          "ticks": 73728,
          "time": 135.529344,
          "velocity": 0.3937007874015748
        },
        {
          "duration": 0.17647050000002196,
          "durationTicks": 96,
          "midi": 77,
          "name": "F5",
          "ticks": 74016,
          "time": 136.0587555,
          "velocity": 0.3937007874015748
        },
        {
          "duration": 0.17647049999999354,
          "durationTicks": 96,
          "midi": 75,
          "name": "D#5",
          "ticks": 74112,
          "time": 136.235226,
          "velocity": 0.3937007874015748
        },
        {
          "duration": 0.17647049999999354,
          "durationTicks": 96,
          "midi": 77,
          "name": "F5",
          "ticks": 74208,
          "time": 136.4116965,
          "velocity": 0.3937007874015748
        },
        {
          "duration": 0.17647049999999354,
          "durationTicks": 96,
          "midi": 79,
          "name": "G5",
          "ticks": 74304,
          "time": 136.588167,
          "velocity": 0.3937007874015748
        },
        {
          "duration": 0.17647049999999354,
          "durationTicks": 96,
          "midi": 82,
          "name": "A#5",
          "ticks": 74496,
          "time": 136.941108,
          "velocity": 0.3937007874015748
        },
        {
          "duration": 0.17647049999999354,
          "durationTicks": 96,
          "midi": 79,
          "name": "G5",
          "ticks": 74688,
          "time": 137.294049,
          "velocity": 0.3937007874015748
        },
        {
          "duration": 0.17647050000002196,
          "durationTicks": 96,
          "midi": 75,
          "name": "D#5",
          "ticks": 74880,
          "time": 137.64699,
          "velocity": 0.3937007874015748
        },
        {
          "duration": 0.17647049999999354,
          "durationTicks": 96,
          "midi": 72,
          "name": "C5",
          "ticks": 75072,
          "time": 137.999931,
          "velocity": 0.3937007874015748
        },
        {
          "duration": 0.17647050000002196,
          "durationTicks": 96,
          "midi": 75,
          "name": "D#5",
          "ticks": 75264,
          "time": 138.352872,
          "velocity": 0.3937007874015748
        },
        {
          "duration": 0.17647049999999354,
          "durationTicks": 96,
          "midi": 79,
          "name": "G5",
          "ticks": 75456,
          "time": 138.705813,
          "velocity": 0.3937007874015748
        },
        {
          "duration": 0.17647049999999354,
          "durationTicks": 96,
          "midi": 80,
          "name": "G#5",
          "ticks": 75552,
          "time": 138.8822835,
          "velocity": 0.3937007874015748
        },
        {
          "duration": 0.17647050000002196,
          "durationTicks": 96,
          "midi": 79,
          "name": "G5",
          "ticks": 75648,
          "time": 139.058754,
          "velocity": 0.3937007874015748
        },
        {
          "duration": 0.17647049999999354,
          "durationTicks": 96,
          "midi": 80,
          "name": "G#5",
          "ticks": 75744,
          "time": 139.23522450000002,
          "velocity": 0.3937007874015748
        },
        {
          "duration": 0.17647049999999354,
          "durationTicks": 96,
          "midi": 79,
          "name": "G5",
          "ticks": 75840,
          "time": 139.411695,
          "velocity": 0.3937007874015748
        },
        {
          "duration": 0.17647049999999354,
          "durationTicks": 96,
          "midi": 75,
          "name": "D#5",
          "ticks": 76800,
          "time": 141.1764,
          "velocity": 0.3937007874015748
        },
        {
          "duration": 0.17647049999999354,
          "durationTicks": 96,
          "midi": 77,
          "name": "F5",
          "ticks": 77088,
          "time": 141.7058115,
          "velocity": 0.3937007874015748
        },
        {
          "duration": 0.17647049999999354,
          "durationTicks": 96,
          "midi": 75,
          "name": "D#5",
          "ticks": 77184,
          "time": 141.882282,
          "velocity": 0.3937007874015748
        },
        {
          "duration": 0.17647049999999354,
          "durationTicks": 96,
          "midi": 77,
          "name": "F5",
          "ticks": 77280,
          "time": 142.0587525,
          "velocity": 0.3937007874015748
        },
        {
          "duration": 0.17647050000002196,
          "durationTicks": 96,
          "midi": 79,
          "name": "G5",
          "ticks": 77376,
          "time": 142.235223,
          "velocity": 0.3937007874015748
        },
        {
          "duration": 0.17647049999999354,
          "durationTicks": 96,
          "midi": 82,
          "name": "A#5",
          "ticks": 77568,
          "time": 142.588164,
          "velocity": 0.3937007874015748
        },
        {
          "duration": 0.17647050000002196,
          "durationTicks": 96,
          "midi": 79,
          "name": "G5",
          "ticks": 77760,
          "time": 142.941105,
          "velocity": 0.3937007874015748
        },
        {
          "duration": 0.17647049999999354,
          "durationTicks": 96,
          "midi": 75,
          "name": "D#5",
          "ticks": 77952,
          "time": 143.294046,
          "velocity": 0.3937007874015748
        },
        {
          "duration": 0.17647049999999354,
          "durationTicks": 96,
          "midi": 72,
          "name": "C5",
          "ticks": 78144,
          "time": 143.646987,
          "velocity": 0.3937007874015748
        },
        {
          "duration": 0.17647049999999354,
          "durationTicks": 96,
          "midi": 75,
          "name": "D#5",
          "ticks": 78336,
          "time": 143.999928,
          "velocity": 0.3937007874015748
        },
        {
          "duration": 0.17647049999999354,
          "durationTicks": 96,
          "midi": 79,
          "name": "G5",
          "ticks": 78528,
          "time": 144.352869,
          "velocity": 0.3937007874015748
        },
        {
          "duration": 0.17647050000002196,
          "durationTicks": 96,
          "midi": 80,
          "name": "G#5",
          "ticks": 78624,
          "time": 144.5293395,
          "velocity": 0.3937007874015748
        },
        {
          "duration": 0.17647049999999354,
          "durationTicks": 96,
          "midi": 79,
          "name": "G5",
          "ticks": 78720,
          "time": 144.70581,
          "velocity": 0.3937007874015748
        },
        {
          "duration": 0.17647049999999354,
          "durationTicks": 96,
          "midi": 80,
          "name": "G#5",
          "ticks": 78816,
          "time": 144.8822805,
          "velocity": 0.3937007874015748
        },
        {
          "duration": 0.17647049999999354,
          "durationTicks": 96,
          "midi": 79,
          "name": "G5",
          "ticks": 78912,
          "time": 145.058751,
          "velocity": 0.3937007874015748
        },
        {
          "duration": 0.17647050000002196,
          "durationTicks": 96,
          "midi": 75,
          "name": "D#5",
          "ticks": 79872,
          "time": 146.823456,
          "velocity": 0.3937007874015748
        },
        {
          "duration": 0.17647049999999354,
          "durationTicks": 96,
          "midi": 77,
          "name": "F5",
          "ticks": 80160,
          "time": 147.3528675,
          "velocity": 0.3937007874015748
        },
        {
          "duration": 0.17647049999999354,
          "durationTicks": 96,
          "midi": 75,
          "name": "D#5",
          "ticks": 80256,
          "time": 147.529338,
          "velocity": 0.3937007874015748
        },
        {
          "duration": 0.17647050000002196,
          "durationTicks": 96,
          "midi": 77,
          "name": "F5",
          "ticks": 80352,
          "time": 147.7058085,
          "velocity": 0.3937007874015748
        },
        {
          "duration": 0.17647049999999354,
          "durationTicks": 96,
          "midi": 79,
          "name": "G5",
          "ticks": 80448,
          "time": 147.882279,
          "velocity": 0.3937007874015748
        },
        {
          "duration": 0.17647049999999354,
          "durationTicks": 96,
          "midi": 82,
          "name": "A#5",
          "ticks": 80640,
          "time": 148.23522,
          "velocity": 0.3937007874015748
        },
        {
          "duration": 0.17647049999999354,
          "durationTicks": 96,
          "midi": 79,
          "name": "G5",
          "ticks": 80832,
          "time": 148.588161,
          "velocity": 0.3937007874015748
        },
        {
          "duration": 0.17647049999999354,
          "durationTicks": 96,
          "midi": 75,
          "name": "D#5",
          "ticks": 81024,
          "time": 148.941102,
          "velocity": 0.3937007874015748
        },
        {
          "duration": 0.17647050000002196,
          "durationTicks": 96,
          "midi": 72,
          "name": "C5",
          "ticks": 81216,
          "time": 149.294043,
          "velocity": 0.3937007874015748
        },
        {
          "duration": 0.17647049999999354,
          "durationTicks": 96,
          "midi": 75,
          "name": "D#5",
          "ticks": 81408,
          "time": 149.646984,
          "velocity": 0.3937007874015748
        },
        {
          "duration": 0.17647050000002196,
          "durationTicks": 96,
          "midi": 79,
          "name": "G5",
          "ticks": 81600,
          "time": 149.999925,
          "velocity": 0.3937007874015748
        },
        {
          "duration": 0.17647049999999354,
          "durationTicks": 96,
          "midi": 80,
          "name": "G#5",
          "ticks": 81696,
          "time": 150.1763955,
          "velocity": 0.3937007874015748
        },
        {
          "duration": 0.17647049999999354,
          "durationTicks": 96,
          "midi": 79,
          "name": "G5",
          "ticks": 81792,
          "time": 150.352866,
          "velocity": 0.3937007874015748
        },
        {
          "duration": 0.17647049999999354,
          "durationTicks": 96,
          "midi": 80,
          "name": "G#5",
          "ticks": 81888,
          "time": 150.5293365,
          "velocity": 0.3937007874015748
        },
        {
          "duration": 0.17647050000002196,
          "durationTicks": 96,
          "midi": 79,
          "name": "G5",
          "ticks": 81984,
          "time": 150.705807,
          "velocity": 0.3937007874015748
        },
        {
          "duration": 0.17647049999999354,
          "durationTicks": 96,
          "midi": 75,
          "name": "D#5",
          "ticks": 82944,
          "time": 152.470512,
          "velocity": 0.3937007874015748
        },
        {
          "duration": 0.17647050000002196,
          "durationTicks": 96,
          "midi": 77,
          "name": "F5",
          "ticks": 83232,
          "time": 152.9999235,
          "velocity": 0.3937007874015748
        },
        {
          "duration": 0.17647049999999354,
          "durationTicks": 96,
          "midi": 75,
          "name": "D#5",
          "ticks": 83328,
          "time": 153.17639400000002,
          "velocity": 0.3937007874015748
        },
        {
          "duration": 0.17647049999999354,
          "durationTicks": 96,
          "midi": 77,
          "name": "F5",
          "ticks": 83424,
          "time": 153.3528645,
          "velocity": 0.3937007874015748
        },
        {
          "duration": 0.17647049999999354,
          "durationTicks": 96,
          "midi": 79,
          "name": "G5",
          "ticks": 83520,
          "time": 153.529335,
          "velocity": 0.3937007874015748
        },
        {
          "duration": 0.17647050000002196,
          "durationTicks": 96,
          "midi": 82,
          "name": "A#5",
          "ticks": 83712,
          "time": 153.882276,
          "velocity": 0.3937007874015748
        },
        {
          "duration": 0.17647049999999354,
          "durationTicks": 96,
          "midi": 79,
          "name": "G5",
          "ticks": 83904,
          "time": 154.235217,
          "velocity": 0.3937007874015748
        },
        {
          "duration": 0.17647050000002196,
          "durationTicks": 96,
          "midi": 75,
          "name": "D#5",
          "ticks": 84096,
          "time": 154.588158,
          "velocity": 0.3937007874015748
        },
        {
          "duration": 0.17647049999999354,
          "durationTicks": 96,
          "midi": 72,
          "name": "C5",
          "ticks": 84288,
          "time": 154.941099,
          "velocity": 0.3937007874015748
        },
        {
          "duration": 0.17647049999999354,
          "durationTicks": 96,
          "midi": 75,
          "name": "D#5",
          "ticks": 84480,
          "time": 155.29404,
          "velocity": 0.3937007874015748
        },
        {
          "duration": 0.17647049999999354,
          "durationTicks": 96,
          "midi": 79,
          "name": "G5",
          "ticks": 84672,
          "time": 155.646981,
          "velocity": 0.3937007874015748
        },
        {
          "duration": 0.17647049999999354,
          "durationTicks": 96,
          "midi": 80,
          "name": "G#5",
          "ticks": 84768,
          "time": 155.8234515,
          "velocity": 0.3937007874015748
        },
        {
          "duration": 0.17647049999999354,
          "durationTicks": 96,
          "midi": 79,
          "name": "G5",
          "ticks": 84864,
          "time": 155.999922,
          "velocity": 0.3937007874015748
        },
        {
          "duration": 0.17647050000002196,
          "durationTicks": 96,
          "midi": 80,
          "name": "G#5",
          "ticks": 84960,
          "time": 156.1763925,
          "velocity": 0.3937007874015748
        },
        {
          "duration": 0.17647049999999354,
          "durationTicks": 96,
          "midi": 79,
          "name": "G5",
          "ticks": 85056,
          "time": 156.352863,
          "velocity": 0.3937007874015748
        },
        {
          "duration": 0.17647049999999354,
          "durationTicks": 96,
          "midi": 75,
          "name": "D#5",
          "ticks": 86016,
          "time": 158.117568,
          "velocity": 0.3937007874015748
        },
        {
          "duration": 0.17647049999999354,
          "durationTicks": 96,
          "midi": 77,
          "name": "F5",
          "ticks": 86304,
          "time": 158.64697950000001,
          "velocity": 0.3937007874015748
        },
        {
          "duration": 0.17647049999999354,
          "durationTicks": 96,
          "midi": 75,
          "name": "D#5",
          "ticks": 86400,
          "time": 158.82345,
          "velocity": 0.3937007874015748
        },
        {
          "duration": 0.17647049999999354,
          "durationTicks": 96,
          "midi": 77,
          "name": "F5",
          "ticks": 86496,
          "time": 158.9999205,
          "velocity": 0.3937007874015748
        },
        {
          "duration": 0.17647049999999354,
          "durationTicks": 96,
          "midi": 79,
          "name": "G5",
          "ticks": 86592,
          "time": 159.176391,
          "velocity": 0.3937007874015748
        },
        {
          "duration": 0.17647049999999354,
          "durationTicks": 96,
          "midi": 82,
          "name": "A#5",
          "ticks": 86784,
          "time": 159.529332,
          "velocity": 0.3937007874015748
        },
        {
          "duration": 0.17647049999999354,
          "durationTicks": 96,
          "midi": 79,
          "name": "G5",
          "ticks": 86976,
          "time": 159.882273,
          "velocity": 0.3937007874015748
        },
        {
          "duration": 0.17647049999999354,
          "durationTicks": 96,
          "midi": 75,
          "name": "D#5",
          "ticks": 87168,
          "time": 160.235214,
          "velocity": 0.3937007874015748
        },
        {
          "duration": 0.17647049999999354,
          "durationTicks": 96,
          "midi": 72,
          "name": "C5",
          "ticks": 87360,
          "time": 160.588155,
          "velocity": 0.3937007874015748
        },
        {
          "duration": 0.17647049999999354,
          "durationTicks": 96,
          "midi": 75,
          "name": "D#5",
          "ticks": 87552,
          "time": 160.94109600000002,
          "velocity": 0.3937007874015748
        },
        {
          "duration": 0.17647049999999354,
          "durationTicks": 96,
          "midi": 79,
          "name": "G5",
          "ticks": 87744,
          "time": 161.294037,
          "velocity": 0.3937007874015748
        },
        {
          "duration": 0.17647049999999354,
          "durationTicks": 96,
          "midi": 80,
          "name": "G#5",
          "ticks": 87840,
          "time": 161.4705075,
          "velocity": 0.3937007874015748
        },
        {
          "duration": 0.17647050000002196,
          "durationTicks": 96,
          "midi": 79,
          "name": "G5",
          "ticks": 87936,
          "time": 161.646978,
          "velocity": 0.3937007874015748
        },
        {
          "duration": 0.17647049999999354,
          "durationTicks": 96,
          "midi": 80,
          "name": "G#5",
          "ticks": 88032,
          "time": 161.8234485,
          "velocity": 0.3937007874015748
        },
        {
          "duration": 0.17647049999999354,
          "durationTicks": 96,
          "midi": 79,
          "name": "G5",
          "ticks": 88128,
          "time": 161.999919,
          "velocity": 0.3937007874015748
        },
        {
          "duration": 0.17647049999999354,
          "durationTicks": 96,
          "midi": 75,
          "name": "D#5",
          "ticks": 89088,
          "time": 163.764624,
          "velocity": 0.3937007874015748
        },
        {
          "duration": 0.17647049999999354,
          "durationTicks": 96,
          "midi": 77,
          "name": "F5",
          "ticks": 89376,
          "time": 164.2940355,
          "velocity": 0.3937007874015748
        },
        {
          "duration": 0.17647049999999354,
          "durationTicks": 96,
          "midi": 75,
          "name": "D#5",
          "ticks": 89472,
          "time": 164.470506,
          "velocity": 0.3937007874015748
        },
        {
          "duration": 0.17647050000002196,
          "durationTicks": 96,
          "midi": 77,
          "name": "F5",
          "ticks": 89568,
          "time": 164.6469765,
          "velocity": 0.3937007874015748
        },
        {
          "duration": 0.17647049999999354,
          "durationTicks": 96,
          "midi": 79,
          "name": "G5",
          "ticks": 89664,
          "time": 164.82344700000002,
          "velocity": 0.3937007874015748
        },
        {
          "duration": 0.17647049999999354,
          "durationTicks": 96,
          "midi": 82,
          "name": "A#5",
          "ticks": 89856,
          "time": 165.176388,
          "velocity": 0.3937007874015748
        },
        {
          "duration": 0.17647050000002196,
          "durationTicks": 96,
          "midi": 79,
          "name": "G5",
          "ticks": 90048,
          "time": 165.529329,
          "velocity": 0.3937007874015748
        },
        {
          "duration": 0.17647049999999354,
          "durationTicks": 96,
          "midi": 75,
          "name": "D#5",
          "ticks": 90240,
          "time": 165.88227,
          "velocity": 0.3937007874015748
        },
        {
          "duration": 0.17647050000002196,
          "durationTicks": 96,
          "midi": 72,
          "name": "C5",
          "ticks": 90432,
          "time": 166.235211,
          "velocity": 0.3937007874015748
        },
        {
          "duration": 0.17647049999999354,
          "durationTicks": 96,
          "midi": 75,
          "name": "D#5",
          "ticks": 90624,
          "time": 166.588152,
          "velocity": 0.3937007874015748
        },
        {
          "duration": 0.17647049999999354,
          "durationTicks": 96,
          "midi": 79,
          "name": "G5",
          "ticks": 90816,
          "time": 166.941093,
          "velocity": 0.3937007874015748
        },
        {
          "duration": 0.17647050000002196,
          "durationTicks": 96,
          "midi": 80,
          "name": "G#5",
          "ticks": 90912,
          "time": 167.1175635,
          "velocity": 0.3937007874015748
        },
        {
          "duration": 0.17647049999999354,
          "durationTicks": 96,
          "midi": 79,
          "name": "G5",
          "ticks": 91008,
          "time": 167.294034,
          "velocity": 0.3937007874015748
        },
        {
          "duration": 0.17647049999999354,
          "durationTicks": 96,
          "midi": 80,
          "name": "G#5",
          "ticks": 91104,
          "time": 167.4705045,
          "velocity": 0.3937007874015748
        },
        {
          "duration": 0.17647049999999354,
          "durationTicks": 96,
          "midi": 79,
          "name": "G5",
          "ticks": 91200,
          "time": 167.646975,
          "velocity": 0.3937007874015748
        },
        {
          "duration": 0.17647050000002196,
          "durationTicks": 96,
          "midi": 75,
          "name": "D#5",
          "ticks": 92160,
          "time": 169.41168,
          "velocity": 0.3937007874015748
        },
        {
          "duration": 0.17647049999999354,
          "durationTicks": 96,
          "midi": 77,
          "name": "F5",
          "ticks": 92448,
          "time": 169.9410915,
          "velocity": 0.3937007874015748
        },
        {
          "duration": 0.17647050000002196,
          "durationTicks": 96,
          "midi": 75,
          "name": "D#5",
          "ticks": 92544,
          "time": 170.117562,
          "velocity": 0.3937007874015748
        },
        {
          "duration": 0.17647049999999354,
          "durationTicks": 96,
          "midi": 77,
          "name": "F5",
          "ticks": 92640,
          "time": 170.29403250000001,
          "velocity": 0.3937007874015748
        },
        {
          "duration": 0.17647049999999354,
          "durationTicks": 96,
          "midi": 79,
          "name": "G5",
          "ticks": 92736,
          "time": 170.470503,
          "velocity": 0.3937007874015748
        },
        {
          "duration": 0.17647049999999354,
          "durationTicks": 96,
          "midi": 82,
          "name": "A#5",
          "ticks": 92928,
          "time": 170.823444,
          "velocity": 0.3937007874015748
        },
        {
          "duration": 0.17647049999999354,
          "durationTicks": 96,
          "midi": 79,
          "name": "G5",
          "ticks": 93120,
          "time": 171.176385,
          "velocity": 0.3937007874015748
        },
        {
          "duration": 0.17647049999999354,
          "durationTicks": 96,
          "midi": 75,
          "name": "D#5",
          "ticks": 93312,
          "time": 171.529326,
          "velocity": 0.3937007874015748
        },
        {
          "duration": 0.17647049999999354,
          "durationTicks": 96,
          "midi": 72,
          "name": "C5",
          "ticks": 93504,
          "time": 171.882267,
          "velocity": 0.3937007874015748
        },
        {
          "duration": 0.17647049999999354,
          "durationTicks": 96,
          "midi": 75,
          "name": "D#5",
          "ticks": 93696,
          "time": 172.235208,
          "velocity": 0.3937007874015748
        },
        {
          "duration": 0.17647049999999354,
          "durationTicks": 96,
          "midi": 79,
          "name": "G5",
          "ticks": 93888,
          "time": 172.58814900000002,
          "velocity": 0.3937007874015748
        },
        {
          "duration": 0.17647049999999354,
          "durationTicks": 96,
          "midi": 80,
          "name": "G#5",
          "ticks": 93984,
          "time": 172.7646195,
          "velocity": 0.3937007874015748
        },
        {
          "duration": 0.17647049999999354,
          "durationTicks": 96,
          "midi": 79,
          "name": "G5",
          "ticks": 94080,
          "time": 172.94109,
          "velocity": 0.3937007874015748
        },
        {
          "duration": 0.17647049999999354,
          "durationTicks": 96,
          "midi": 80,
          "name": "G#5",
          "ticks": 94176,
          "time": 173.1175605,
          "velocity": 0.3937007874015748
        },
        {
          "duration": 0.17647050000002196,
          "durationTicks": 96,
          "midi": 79,
          "name": "G5",
          "ticks": 94272,
          "time": 173.294031,
          "velocity": 0.3937007874015748
        },
        {
          "duration": 0.17647049999999354,
          "durationTicks": 96,
          "midi": 75,
          "name": "D#5",
          "ticks": 95232,
          "time": 175.058736,
          "velocity": 0.3937007874015748
        },
        {
          "duration": 0.17647050000002196,
          "durationTicks": 96,
          "midi": 77,
          "name": "F5",
          "ticks": 95520,
          "time": 175.5881475,
          "velocity": 0.3937007874015748
        },
        {
          "duration": 0.17647049999999354,
          "durationTicks": 96,
          "midi": 75,
          "name": "D#5",
          "ticks": 95616,
          "time": 175.764618,
          "velocity": 0.3937007874015748
        },
        {
          "duration": 0.17647049999999354,
          "durationTicks": 96,
          "midi": 77,
          "name": "F5",
          "ticks": 95712,
          "time": 175.9410885,
          "velocity": 0.3937007874015748
        },
        {
          "duration": 0.17647049999999354,
          "durationTicks": 96,
          "midi": 79,
          "name": "G5",
          "ticks": 95808,
          "time": 176.117559,
          "velocity": 0.3937007874015748
        },
        {
          "duration": 0.17647049999999354,
          "durationTicks": 96,
          "midi": 82,
          "name": "A#5",
          "ticks": 96000,
          "time": 176.47050000000002,
          "velocity": 0.3937007874015748
        },
        {
          "duration": 0.17647049999999354,
          "durationTicks": 96,
          "midi": 79,
          "name": "G5",
          "ticks": 96192,
          "time": 176.823441,
          "velocity": 0.3937007874015748
        },
        {
          "duration": 0.17647050000002196,
          "durationTicks": 96,
          "midi": 75,
          "name": "D#5",
          "ticks": 96384,
          "time": 177.176382,
          "velocity": 0.3937007874015748
        },
        {
          "duration": 0.17647049999999354,
          "durationTicks": 96,
          "midi": 72,
          "name": "C5",
          "ticks": 96576,
          "time": 177.529323,
          "velocity": 0.3937007874015748
        },
        {
          "duration": 0.17647050000002196,
          "durationTicks": 96,
          "midi": 75,
          "name": "D#5",
          "ticks": 96768,
          "time": 177.882264,
          "velocity": 0.3937007874015748
        },
        {
          "duration": 0.17647049999999354,
          "durationTicks": 96,
          "midi": 79,
          "name": "G5",
          "ticks": 96960,
          "time": 178.235205,
          "velocity": 0.3937007874015748
        },
        {
          "duration": 0.17647049999999354,
          "durationTicks": 96,
          "midi": 80,
          "name": "G#5",
          "ticks": 97056,
          "time": 178.4116755,
          "velocity": 0.3937007874015748
        },
        {
          "duration": 0.17647049999999354,
          "durationTicks": 96,
          "midi": 79,
          "name": "G5",
          "ticks": 97152,
          "time": 178.588146,
          "velocity": 0.3937007874015748
        },
        {
          "duration": 0.17647050000002196,
          "durationTicks": 96,
          "midi": 80,
          "name": "G#5",
          "ticks": 97248,
          "time": 178.7646165,
          "velocity": 0.3937007874015748
        },
        {
          "duration": 0.17647049999999354,
          "durationTicks": 96,
          "midi": 79,
          "name": "G5",
          "ticks": 97344,
          "time": 178.941087,
          "velocity": 0.3937007874015748
        },
        {
          "duration": 0.17647049999999354,
          "durationTicks": 96,
          "midi": 75,
          "name": "D#5",
          "ticks": 98304,
          "time": 180.705792,
          "velocity": 0.3937007874015748
        },
        {
          "duration": 0.17647049999999354,
          "durationTicks": 96,
          "midi": 77,
          "name": "F5",
          "ticks": 98592,
          "time": 181.2352035,
          "velocity": 0.3937007874015748
        },
        {
          "duration": 0.17647049999999354,
          "durationTicks": 96,
          "midi": 75,
          "name": "D#5",
          "ticks": 98688,
          "time": 181.411674,
          "velocity": 0.3937007874015748
        },
        {
          "duration": 0.17647049999999354,
          "durationTicks": 96,
          "midi": 77,
          "name": "F5",
          "ticks": 98784,
          "time": 181.5881445,
          "velocity": 0.3937007874015748
        },
        {
          "duration": 0.17647050000002196,
          "durationTicks": 96,
          "midi": 79,
          "name": "G5",
          "ticks": 98880,
          "time": 181.764615,
          "velocity": 0.3937007874015748
        },
        {
          "duration": 0.17647049999999354,
          "durationTicks": 96,
          "midi": 82,
          "name": "A#5",
          "ticks": 99072,
          "time": 182.117556,
          "velocity": 0.3937007874015748
        },
        {
          "duration": 0.17647050000002196,
          "durationTicks": 96,
          "midi": 79,
          "name": "G5",
          "ticks": 99264,
          "time": 182.470497,
          "velocity": 0.3937007874015748
        },
        {
          "duration": 0.17647049999999354,
          "durationTicks": 96,
          "midi": 75,
          "name": "D#5",
          "ticks": 99456,
          "time": 182.823438,
          "velocity": 0.3937007874015748
        },
        {
          "duration": 0.17647049999999354,
          "durationTicks": 96,
          "midi": 72,
          "name": "C5",
          "ticks": 99648,
          "time": 183.176379,
          "velocity": 0.3937007874015748
        },
        {
          "duration": 0.17647049999999354,
          "durationTicks": 96,
          "midi": 75,
          "name": "D#5",
          "ticks": 99840,
          "time": 183.52932,
          "velocity": 0.3937007874015748
        },
        {
          "duration": 0.17647049999999354,
          "durationTicks": 96,
          "midi": 79,
          "name": "G5",
          "ticks": 100032,
          "time": 183.882261,
          "velocity": 0.3937007874015748
        },
        {
          "duration": 0.17647050000002196,
          "durationTicks": 96,
          "midi": 80,
          "name": "G#5",
          "ticks": 100128,
          "time": 184.0587315,
          "velocity": 0.3937007874015748
        },
        {
          "duration": 0.17647049999999354,
          "durationTicks": 96,
          "midi": 79,
          "name": "G5",
          "ticks": 100224,
          "time": 184.23520200000002,
          "velocity": 0.3937007874015748
        },
        {
          "duration": 0.17647049999999354,
          "durationTicks": 96,
          "midi": 80,
          "name": "G#5",
          "ticks": 100320,
          "time": 184.4116725,
          "velocity": 0.3937007874015748
        },
        {
          "duration": 0.17647049999999354,
          "durationTicks": 96,
          "midi": 79,
          "name": "G5",
          "ticks": 100416,
          "time": 184.588143,
          "velocity": 0.3937007874015748
        },
        {
          "duration": 0.17647050000002196,
          "durationTicks": 96,
          "midi": 75,
          "name": "D#5",
          "ticks": 101376,
          "time": 186.352848,
          "velocity": 0.3937007874015748
        },
        {
          "duration": 0.17647049999999354,
          "durationTicks": 96,
          "midi": 77,
          "name": "F5",
          "ticks": 101664,
          "time": 186.8822595,
          "velocity": 0.3937007874015748
        },
        {
          "duration": 0.17647049999999354,
          "durationTicks": 96,
          "midi": 75,
          "name": "D#5",
          "ticks": 101760,
          "time": 187.05873,
          "velocity": 0.3937007874015748
        },
        {
          "duration": 0.17647050000002196,
          "durationTicks": 96,
          "midi": 77,
          "name": "F5",
          "ticks": 101856,
          "time": 187.2352005,
          "velocity": 0.3937007874015748
        },
        {
          "duration": 0.17647049999999354,
          "durationTicks": 96,
          "midi": 79,
          "name": "G5",
          "ticks": 101952,
          "time": 187.411671,
          "velocity": 0.3937007874015748
        },
        {
          "duration": 0.17647049999999354,
          "durationTicks": 96,
          "midi": 82,
          "name": "A#5",
          "ticks": 102144,
          "time": 187.764612,
          "velocity": 0.3937007874015748
        },
        {
          "duration": 0.17647049999999354,
          "durationTicks": 96,
          "midi": 79,
          "name": "G5",
          "ticks": 102336,
          "time": 188.11755300000002,
          "velocity": 0.3937007874015748
        },
        {
          "duration": 0.17647049999999354,
          "durationTicks": 96,
          "midi": 75,
          "name": "D#5",
          "ticks": 102528,
          "time": 188.470494,
          "velocity": 0.3937007874015748
        },
        {
          "duration": 0.17647050000002196,
          "durationTicks": 96,
          "midi": 72,
          "name": "C5",
          "ticks": 102720,
          "time": 188.823435,
          "velocity": 0.3937007874015748
        },
        {
          "duration": 0.17647049999999354,
          "durationTicks": 96,
          "midi": 75,
          "name": "D#5",
          "ticks": 102912,
          "time": 189.176376,
          "velocity": 0.3937007874015748
        },
        {
          "duration": 0.17647050000002196,
          "durationTicks": 96,
          "midi": 79,
          "name": "G5",
          "ticks": 103104,
          "time": 189.529317,
          "velocity": 0.3937007874015748
        },
        {
          "duration": 0.17647049999999354,
          "durationTicks": 96,
          "midi": 80,
          "name": "G#5",
          "ticks": 103200,
          "time": 189.7057875,
          "velocity": 0.3937007874015748
        },
        {
          "duration": 0.17647049999999354,
          "durationTicks": 96,
          "midi": 79,
          "name": "G5",
          "ticks": 103296,
          "time": 189.882258,
          "velocity": 0.3937007874015748
        },
        {
          "duration": 0.17647049999999354,
          "durationTicks": 96,
          "midi": 80,
          "name": "G#5",
          "ticks": 103392,
          "time": 190.0587285,
          "velocity": 0.3937007874015748
        },
        {
          "duration": 0.17647050000002196,
          "durationTicks": 96,
          "midi": 79,
          "name": "G5",
          "ticks": 103488,
          "time": 190.235199,
          "velocity": 0.3937007874015748
        },
        {
          "duration": 0.17647049999999354,
          "durationTicks": 96,
          "midi": 75,
          "name": "D#5",
          "ticks": 104448,
          "time": 191.99990400000002,
          "velocity": 0.3937007874015748
        },
        {
          "duration": 0.17647049999999354,
          "durationTicks": 96,
          "midi": 77,
          "name": "F5",
          "ticks": 104736,
          "time": 192.5293155,
          "velocity": 0.3937007874015748
        },
        {
          "duration": 0.17647050000002196,
          "durationTicks": 96,
          "midi": 75,
          "name": "D#5",
          "ticks": 104832,
          "time": 192.705786,
          "velocity": 0.3937007874015748
        },
        {
          "duration": 0.17647049999999354,
          "durationTicks": 96,
          "midi": 77,
          "name": "F5",
          "ticks": 104928,
          "time": 192.8822565,
          "velocity": 0.3937007874015748
        },
        {
          "duration": 0.17647049999999354,
          "durationTicks": 96,
          "midi": 79,
          "name": "G5",
          "ticks": 105024,
          "time": 193.058727,
          "velocity": 0.3937007874015748
        },
        {
          "duration": 0.17647050000002196,
          "durationTicks": 96,
          "midi": 82,
          "name": "A#5",
          "ticks": 105216,
          "time": 193.411668,
          "velocity": 0.3937007874015748
        },
        {
          "duration": 0.17647049999999354,
          "durationTicks": 96,
          "midi": 79,
          "name": "G5",
          "ticks": 105408,
          "time": 193.764609,
          "velocity": 0.3937007874015748
        },
        {
          "duration": 0.17647050000002196,
          "durationTicks": 96,
          "midi": 75,
          "name": "D#5",
          "ticks": 105600,
          "time": 194.11755,
          "velocity": 0.3937007874015748
        },
        {
          "duration": 0.17647049999999354,
          "durationTicks": 96,
          "midi": 72,
          "name": "C5",
          "ticks": 105792,
          "time": 194.470491,
          "velocity": 0.3937007874015748
        },
        {
          "duration": 0.17647049999999354,
          "durationTicks": 96,
          "midi": 75,
          "name": "D#5",
          "ticks": 105984,
          "time": 194.823432,
          "velocity": 0.3937007874015748
        },
        {
          "duration": 0.17647049999999354,
          "durationTicks": 96,
          "midi": 79,
          "name": "G5",
          "ticks": 106176,
          "time": 195.176373,
          "velocity": 0.3937007874015748
        },
        {
          "duration": 0.17647049999999354,
          "durationTicks": 96,
          "midi": 80,
          "name": "G#5",
          "ticks": 106272,
          "time": 195.3528435,
          "velocity": 0.3937007874015748
        },
        {
          "duration": 0.17647049999999354,
          "durationTicks": 96,
          "midi": 79,
          "name": "G5",
          "ticks": 106368,
          "time": 195.529314,
          "velocity": 0.3937007874015748
        },
        {
          "duration": 0.17647050000002196,
          "durationTicks": 96,
          "midi": 80,
          "name": "G#5",
          "ticks": 106464,
          "time": 195.7057845,
          "velocity": 0.3937007874015748
        },
        {
          "duration": 0.17647049999999354,
          "durationTicks": 96,
          "midi": 79,
          "name": "G5",
          "ticks": 106560,
          "time": 195.88225500000001,
          "velocity": 0.3937007874015748
        },
        {
          "duration": 0.17647049999999354,
          "durationTicks": 96,
          "midi": 75,
          "name": "D#5",
          "ticks": 107520,
          "time": 197.64696,
          "velocity": 0.3937007874015748
        },
        {
          "duration": 0.17647049999999354,
          "durationTicks": 96,
          "midi": 77,
          "name": "F5",
          "ticks": 107808,
          "time": 198.17637150000002,
          "velocity": 0.3937007874015748
        },
        {
          "duration": 0.17647049999999354,
          "durationTicks": 96,
          "midi": 75,
          "name": "D#5",
          "ticks": 107904,
          "time": 198.352842,
          "velocity": 0.3937007874015748
        },
        {
          "duration": 0.17647049999999354,
          "durationTicks": 96,
          "midi": 77,
          "name": "F5",
          "ticks": 108000,
          "time": 198.5293125,
          "velocity": 0.3937007874015748
        },
        {
          "duration": 0.17647049999999354,
          "durationTicks": 96,
          "midi": 79,
          "name": "G5",
          "ticks": 108096,
          "time": 198.705783,
          "velocity": 0.3937007874015748
        },
        {
          "duration": 0.17647049999999354,
          "durationTicks": 96,
          "midi": 82,
          "name": "A#5",
          "ticks": 108288,
          "time": 199.058724,
          "velocity": 0.3937007874015748
        }
      ],
      "endOfTrackTicks": 108384
    },
    {
      "channel": 3,
      "controlChanges": {},
      "pitchBends": [],
      "instrument": {
        "family": "piano",
        "number": 0,
        "name": "acoustic grand piano"
      },
      "name": "Grand Piano (Classic)",
      "notes": [
        {
          "duration": 0.3529410000000013,
          "durationTicks": 192,
          "midi": 67,
          "name": "G4",
          "ticks": 61440,
          "time": 112.94112,
          "velocity": 0.3937007874015748
        },
        {
          "duration": 0.3529410000000013,
          "durationTicks": 192,
          "midi": 63,
          "name": "D#4",
          "ticks": 61632,
          "time": 113.294061,
          "velocity": 0.3937007874015748
        },
        {
          "duration": 0.3529410000000013,
          "durationTicks": 192,
          "midi": 67,
          "name": "G4",
          "ticks": 61824,
          "time": 113.647002,
          "velocity": 0.3937007874015748
        },
        {
          "duration": 0.17647049999999354,
          "durationTicks": 96,
          "midi": 63,
          "name": "D#4",
          "ticks": 62016,
          "time": 113.999943,
          "velocity": 0.3937007874015748
        },
        {
          "duration": 0.17647050000000775,
          "durationTicks": 96,
          "midi": 70,
          "name": "A#4",
          "ticks": 62112,
          "time": 114.1764135,
          "velocity": 0.3937007874015748
        },
        {
          "duration": 0.17647050000000775,
          "durationTicks": 96,
          "midi": 70,
          "name": "A#4",
          "ticks": 62304,
          "time": 114.5293545,
          "velocity": 0.3937007874015748
        },
        {
          "duration": 0.3529410000000013,
          "durationTicks": 192,
          "midi": 63,
          "name": "D#4",
          "ticks": 62400,
          "time": 114.705825,
          "velocity": 0.3937007874015748
        },
        {
          "duration": 0.3529410000000013,
          "durationTicks": 192,
          "midi": 67,
          "name": "G4",
          "ticks": 62592,
          "time": 115.058766,
          "velocity": 0.3937007874015748
        },
        {
          "duration": 0.3529410000000013,
          "durationTicks": 192,
          "midi": 63,
          "name": "D#4",
          "ticks": 62784,
          "time": 115.411707,
          "velocity": 0.3937007874015748
        },
        {
          "duration": 0.35294099999998707,
          "durationTicks": 192,
          "midi": 67,
          "name": "G4",
          "ticks": 62976,
          "time": 115.76464800000001,
          "velocity": 0.3937007874015748
        },
        {
          "duration": 0.3529410000000013,
          "durationTicks": 192,
          "midi": 63,
          "name": "D#4",
          "ticks": 63168,
          "time": 116.117589,
          "velocity": 0.3937007874015748
        },
        {
          "duration": 0.3529410000000013,
          "durationTicks": 192,
          "midi": 67,
          "name": "G4",
          "ticks": 63360,
          "time": 116.47053,
          "velocity": 0.3937007874015748
        },
        {
          "duration": 0.17647050000000775,
          "durationTicks": 96,
          "midi": 63,
          "name": "D#4",
          "ticks": 63552,
          "time": 116.823471,
          "velocity": 0.3937007874015748
        },
        {
          "duration": 0.3529410000000013,
          "durationTicks": 192,
          "midi": 72,
          "name": "C5",
          "ticks": 63648,
          "time": 116.9999415,
          "velocity": 0.3937007874015748
        },
        {
          "duration": 0.17647049999999354,
          "durationTicks": 96,
          "midi": 75,
          "name": "D#5",
          "ticks": 63840,
          "time": 117.3528825,
          "velocity": 0.3937007874015748
        },
        {
          "duration": 0.3529410000000013,
          "durationTicks": 192,
          "midi": 72,
          "name": "C5",
          "ticks": 63936,
          "time": 117.529353,
          "velocity": 0.3937007874015748
        },
        {
          "duration": 0.3529410000000013,
          "durationTicks": 192,
          "midi": 70,
          "name": "A#4",
          "ticks": 64128,
          "time": 117.882294,
          "velocity": 0.3937007874015748
        },
        {
          "duration": 0.3529410000000013,
          "durationTicks": 192,
          "midi": 67,
          "name": "G4",
          "ticks": 64320,
          "time": 118.235235,
          "velocity": 0.3937007874015748
        },
        {
          "duration": 0.3529410000000013,
          "durationTicks": 192,
          "midi": 67,
          "name": "G4",
          "ticks": 64512,
          "time": 118.588176,
          "velocity": 0.3937007874015748
        },
        {
          "duration": 0.3529410000000013,
          "durationTicks": 192,
          "midi": 63,
          "name": "D#4",
          "ticks": 64704,
          "time": 118.941117,
          "velocity": 0.3937007874015748
        },
        {
          "duration": 0.3529410000000013,
          "durationTicks": 192,
          "midi": 67,
          "name": "G4",
          "ticks": 64896,
          "time": 119.294058,
          "velocity": 0.3937007874015748
        },
        {
          "duration": 0.17647049999999354,
          "durationTicks": 96,
          "midi": 63,
          "name": "D#4",
          "ticks": 65088,
          "time": 119.64699900000001,
          "velocity": 0.3937007874015748
        },
        {
          "duration": 0.17647049999999354,
          "durationTicks": 96,
          "midi": 70,
          "name": "A#4",
          "ticks": 65184,
          "time": 119.8234695,
          "velocity": 0.3937007874015748
        },
        {
          "duration": 0.17647049999999354,
          "durationTicks": 96,
          "midi": 70,
          "name": "A#4",
          "ticks": 65376,
          "time": 120.1764105,
          "velocity": 0.3937007874015748
        },
        {
          "duration": 0.3529410000000013,
          "durationTicks": 192,
          "midi": 63,
          "name": "D#4",
          "ticks": 65472,
          "time": 120.352881,
          "velocity": 0.3937007874015748
        },
        {
          "duration": 0.3529410000000013,
          "durationTicks": 192,
          "midi": 67,
          "name": "G4",
          "ticks": 65664,
          "time": 120.705822,
          "velocity": 0.3937007874015748
        },
        {
          "duration": 0.3529410000000013,
          "durationTicks": 192,
          "midi": 63,
          "name": "D#4",
          "ticks": 65856,
          "time": 121.058763,
          "velocity": 0.3937007874015748
        },
        {
          "duration": 0.3529410000000013,
          "durationTicks": 192,
          "midi": 67,
          "name": "G4",
          "ticks": 66048,
          "time": 121.411704,
          "velocity": 0.3937007874015748
        },
        {
          "duration": 0.3529410000000013,
          "durationTicks": 192,
          "midi": 63,
          "name": "D#4",
          "ticks": 66240,
          "time": 121.764645,
          "velocity": 0.3937007874015748
        },
        {
          "duration": 0.3529410000000013,
          "durationTicks": 192,
          "midi": 67,
          "name": "G4",
          "ticks": 66432,
          "time": 122.117586,
          "velocity": 0.3937007874015748
        },
        {
          "duration": 0.17647049999999354,
          "durationTicks": 96,
          "midi": 63,
          "name": "D#4",
          "ticks": 66624,
          "time": 122.470527,
          "velocity": 0.3937007874015748
        },
        {
          "duration": 0.3529410000000013,
          "durationTicks": 192,
          "midi": 72,
          "name": "C5",
          "ticks": 66720,
          "time": 122.6469975,
          "velocity": 0.3937007874015748
        },
        {
          "duration": 0.17647050000000775,
          "durationTicks": 96,
          "midi": 75,
          "name": "D#5",
          "ticks": 66912,
          "time": 122.9999385,
          "velocity": 0.3937007874015748
        },
        {
          "duration": 0.3529410000000013,
          "durationTicks": 192,
          "midi": 72,
          "name": "C5",
          "ticks": 67008,
          "time": 123.176409,
          "velocity": 0.3937007874015748
        },
        {
          "duration": 0.35294099999998707,
          "durationTicks": 192,
          "midi": 70,
          "name": "A#4",
          "ticks": 67200,
          "time": 123.52935000000001,
          "velocity": 0.3937007874015748
        },
        {
          "duration": 0.3529410000000013,
          "durationTicks": 192,
          "midi": 67,
          "name": "G4",
          "ticks": 67392,
          "time": 123.882291,
          "velocity": 0.3937007874015748
        },
        {
          "duration": 0.3529410000000013,
          "durationTicks": 192,
          "midi": 67,
          "name": "G4",
          "ticks": 67584,
          "time": 124.235232,
          "velocity": 0.3937007874015748
        },
        {
          "duration": 0.3529410000000013,
          "durationTicks": 192,
          "midi": 63,
          "name": "D#4",
          "ticks": 67776,
          "time": 124.588173,
          "velocity": 0.3937007874015748
        },
        {
          "duration": 0.3529410000000013,
          "durationTicks": 192,
          "midi": 67,
          "name": "G4",
          "ticks": 67968,
          "time": 124.941114,
          "velocity": 0.3937007874015748
        },
        {
          "duration": 0.17647050000000775,
          "durationTicks": 96,
          "midi": 63,
          "name": "D#4",
          "ticks": 68160,
          "time": 125.294055,
          "velocity": 0.3937007874015748
        },
        {
          "duration": 0.17647049999999354,
          "durationTicks": 96,
          "midi": 70,
          "name": "A#4",
          "ticks": 68256,
          "time": 125.47052550000001,
          "velocity": 0.3937007874015748
        },
        {
          "duration": 0.17647050000000775,
          "durationTicks": 96,
          "midi": 70,
          "name": "A#4",
          "ticks": 68448,
          "time": 125.8234665,
          "velocity": 0.3937007874015748
        },
        {
          "duration": 0.3529410000000013,
          "durationTicks": 192,
          "midi": 63,
          "name": "D#4",
          "ticks": 68544,
          "time": 125.999937,
          "velocity": 0.3937007874015748
        },
        {
          "duration": 0.3529410000000013,
          "durationTicks": 192,
          "midi": 67,
          "name": "G4",
          "ticks": 68736,
          "time": 126.352878,
          "velocity": 0.3937007874015748
        },
        {
          "duration": 0.3529410000000013,
          "durationTicks": 192,
          "midi": 63,
          "name": "D#4",
          "ticks": 68928,
          "time": 126.705819,
          "velocity": 0.3937007874015748
        },
        {
          "duration": 0.3529410000000013,
          "durationTicks": 192,
          "midi": 67,
          "name": "G4",
          "ticks": 69120,
          "time": 127.05876,
          "velocity": 0.3937007874015748
        },
        {
          "duration": 0.35294099999998707,
          "durationTicks": 192,
          "midi": 63,
          "name": "D#4",
          "ticks": 69312,
          "time": 127.41170100000001,
          "velocity": 0.3937007874015748
        },
        {
          "duration": 0.3529410000000013,
          "durationTicks": 192,
          "midi": 67,
          "name": "G4",
          "ticks": 69504,
          "time": 127.764642,
          "velocity": 0.3937007874015748
        },
        {
          "duration": 0.17647049999999354,
          "durationTicks": 96,
          "midi": 63,
          "name": "D#4",
          "ticks": 69696,
          "time": 128.117583,
          "velocity": 0.3937007874015748
        },
        {
          "duration": 0.3529410000000155,
          "durationTicks": 192,
          "midi": 72,
          "name": "C5",
          "ticks": 69792,
          "time": 128.2940535,
          "velocity": 0.3937007874015748
        },
        {
          "duration": 0.17647049999999354,
          "durationTicks": 96,
          "midi": 75,
          "name": "D#5",
          "ticks": 69984,
          "time": 128.6469945,
          "velocity": 0.3937007874015748
        },
        {
          "duration": 0.3529410000000155,
          "durationTicks": 192,
          "midi": 72,
          "name": "C5",
          "ticks": 70080,
          "time": 128.823465,
          "velocity": 0.3937007874015748
        },
        {
          "duration": 0.35294099999998707,
          "durationTicks": 192,
          "midi": 70,
          "name": "A#4",
          "ticks": 70272,
          "time": 129.17640600000001,
          "velocity": 0.3937007874015748
        },
        {
          "duration": 0.35294099999998707,
          "durationTicks": 192,
          "midi": 67,
          "name": "G4",
          "ticks": 70464,
          "time": 129.529347,
          "velocity": 0.3937007874015748
        },
        {
          "duration": 0.3529410000000155,
          "durationTicks": 192,
          "midi": 67,
          "name": "G4",
          "ticks": 70656,
          "time": 129.882288,
          "velocity": 0.3937007874015748
        },
        {
          "duration": 0.35294099999998707,
          "durationTicks": 192,
          "midi": 63,
          "name": "D#4",
          "ticks": 70848,
          "time": 130.235229,
          "velocity": 0.3937007874015748
        },
        {
          "duration": 0.3529410000000155,
          "durationTicks": 192,
          "midi": 67,
          "name": "G4",
          "ticks": 71040,
          "time": 130.58817,
          "velocity": 0.3937007874015748
        },
        {
          "duration": 0.17647049999999354,
          "durationTicks": 96,
          "midi": 63,
          "name": "D#4",
          "ticks": 71232,
          "time": 130.941111,
          "velocity": 0.3937007874015748
        },
        {
          "duration": 0.17647049999999354,
          "durationTicks": 96,
          "midi": 70,
          "name": "A#4",
          "ticks": 71328,
          "time": 131.1175815,
          "velocity": 0.3937007874015748
        },
        {
          "duration": 0.17647049999999354,
          "durationTicks": 96,
          "midi": 70,
          "name": "A#4",
          "ticks": 71520,
          "time": 131.47052250000002,
          "velocity": 0.3937007874015748
        },
        {
          "duration": 0.35294099999998707,
          "durationTicks": 192,
          "midi": 63,
          "name": "D#4",
          "ticks": 71616,
          "time": 131.646993,
          "velocity": 0.3937007874015748
        },
        {
          "duration": 0.3529410000000155,
          "durationTicks": 192,
          "midi": 67,
          "name": "G4",
          "ticks": 71808,
          "time": 131.999934,
          "velocity": 0.3937007874015748
        },
        {
          "duration": 0.35294099999998707,
          "durationTicks": 192,
          "midi": 63,
          "name": "D#4",
          "ticks": 72000,
          "time": 132.352875,
          "velocity": 0.3937007874015748
        },
        {
          "duration": 0.3529410000000155,
          "durationTicks": 192,
          "midi": 67,
          "name": "G4",
          "ticks": 72192,
          "time": 132.705816,
          "velocity": 0.3937007874015748
        },
        {
          "duration": 0.35294099999998707,
          "durationTicks": 192,
          "midi": 63,
          "name": "D#4",
          "ticks": 72384,
          "time": 133.058757,
          "velocity": 0.3937007874015748
        },
        {
          "duration": 0.35294099999998707,
          "durationTicks": 192,
          "midi": 67,
          "name": "G4",
          "ticks": 72576,
          "time": 133.411698,
          "velocity": 0.3937007874015748
        },
        {
          "duration": 0.17647050000002196,
          "durationTicks": 96,
          "midi": 63,
          "name": "D#4",
          "ticks": 72768,
          "time": 133.764639,
          "velocity": 0.3937007874015748
        },
        {
          "duration": 0.35294099999998707,
          "durationTicks": 192,
          "midi": 72,
          "name": "C5",
          "ticks": 72864,
          "time": 133.9411095,
          "velocity": 0.3937007874015748
        },
        {
          "duration": 0.17647049999999354,
          "durationTicks": 96,
          "midi": 75,
          "name": "D#5",
          "ticks": 73056,
          "time": 134.2940505,
          "velocity": 0.3937007874015748
        },
        {
          "duration": 0.3529410000000155,
          "durationTicks": 192,
          "midi": 72,
          "name": "C5",
          "ticks": 73152,
          "time": 134.470521,
          "velocity": 0.3937007874015748
        },
        {
          "duration": 0.35294099999998707,
          "durationTicks": 192,
          "midi": 70,
          "name": "A#4",
          "ticks": 73344,
          "time": 134.823462,
          "velocity": 0.3937007874015748
        },
        {
          "duration": 0.3529410000000155,
          "durationTicks": 192,
          "midi": 67,
          "name": "G4",
          "ticks": 73536,
          "time": 135.176403,
          "velocity": 0.3937007874015748
        },
        {
          "duration": 0.35294099999998707,
          "durationTicks": 192,
          "midi": 67,
          "name": "G4",
          "ticks": 73728,
          "time": 135.529344,
          "velocity": 0.3937007874015748
        },
        {
          "duration": 0.3529410000000155,
          "durationTicks": 192,
          "midi": 63,
          "name": "D#4",
          "ticks": 73920,
          "time": 135.882285,
          "velocity": 0.3937007874015748
        },
        {
          "duration": 0.35294099999998707,
          "durationTicks": 192,
          "midi": 67,
          "name": "G4",
          "ticks": 74112,
          "time": 136.235226,
          "velocity": 0.3937007874015748
        },
        {
          "duration": 0.17647049999999354,
          "durationTicks": 96,
          "midi": 63,
          "name": "D#4",
          "ticks": 74304,
          "time": 136.588167,
          "velocity": 0.3937007874015748
        },
        {
          "duration": 0.17647050000002196,
          "durationTicks": 96,
          "midi": 70,
          "name": "A#4",
          "ticks": 74400,
          "time": 136.7646375,
          "velocity": 0.3937007874015748
        },
        {
          "duration": 0.17647049999999354,
          "durationTicks": 96,
          "midi": 70,
          "name": "A#4",
          "ticks": 74592,
          "time": 137.1175785,
          "velocity": 0.3937007874015748
        },
        {
          "duration": 0.35294099999998707,
          "durationTicks": 192,
          "midi": 63,
          "name": "D#4",
          "ticks": 74688,
          "time": 137.294049,
          "velocity": 0.3937007874015748
        },
        {
          "duration": 0.3529410000000155,
          "durationTicks": 192,
          "midi": 67,
          "name": "G4",
          "ticks": 74880,
          "time": 137.64699,
          "velocity": 0.3937007874015748
        },
        {
          "duration": 0.35294099999998707,
          "durationTicks": 192,
          "midi": 63,
          "name": "D#4",
          "ticks": 75072,
          "time": 137.999931,
          "velocity": 0.3937007874015748
        },
        {
          "duration": 0.3529410000000155,
          "durationTicks": 192,
          "midi": 67,
          "name": "G4",
          "ticks": 75264,
          "time": 138.352872,
          "velocity": 0.3937007874015748
        },
        {
          "duration": 0.35294099999998707,
          "durationTicks": 192,
          "midi": 63,
          "name": "D#4",
          "ticks": 75456,
          "time": 138.705813,
          "velocity": 0.3937007874015748
        },
        {
          "duration": 0.3529410000000155,
          "durationTicks": 192,
          "midi": 67,
          "name": "G4",
          "ticks": 75648,
          "time": 139.058754,
          "velocity": 0.3937007874015748
        },
        {
          "duration": 0.17647049999999354,
          "durationTicks": 96,
          "midi": 63,
          "name": "D#4",
          "ticks": 75840,
          "time": 139.411695,
          "velocity": 0.3937007874015748
        },
        {
          "duration": 0.35294099999998707,
          "durationTicks": 192,
          "midi": 72,
          "name": "C5",
          "ticks": 75936,
          "time": 139.5881655,
          "velocity": 0.3937007874015748
        },
        {
          "duration": 0.17647050000002196,
          "durationTicks": 96,
          "midi": 75,
          "name": "D#5",
          "ticks": 76128,
          "time": 139.9411065,
          "velocity": 0.3937007874015748
        },
        {
          "duration": 0.35294099999998707,
          "durationTicks": 192,
          "midi": 72,
          "name": "C5",
          "ticks": 76224,
          "time": 140.117577,
          "velocity": 0.3937007874015748
        },
        {
          "duration": 0.3529410000000155,
          "durationTicks": 192,
          "midi": 70,
          "name": "A#4",
          "ticks": 76416,
          "time": 140.470518,
          "velocity": 0.3937007874015748
        },
        {
          "duration": 0.35294099999998707,
          "durationTicks": 192,
          "midi": 67,
          "name": "G4",
          "ticks": 76608,
          "time": 140.823459,
          "velocity": 0.3937007874015748
        },
        {
          "duration": 0.35294099999998707,
          "durationTicks": 192,
          "midi": 67,
          "name": "G4",
          "ticks": 76800,
          "time": 141.1764,
          "velocity": 0.3937007874015748
        },
        {
          "duration": 0.3529410000000155,
          "durationTicks": 192,
          "midi": 63,
          "name": "D#4",
          "ticks": 76992,
          "time": 141.529341,
          "velocity": 0.3937007874015748
        },
        {
          "duration": 0.35294099999998707,
          "durationTicks": 192,
          "midi": 67,
          "name": "G4",
          "ticks": 77184,
          "time": 141.882282,
          "velocity": 0.3937007874015748
        },
        {
          "duration": 0.17647050000002196,
          "durationTicks": 96,
          "midi": 63,
          "name": "D#4",
          "ticks": 77376,
          "time": 142.235223,
          "velocity": 0.3937007874015748
        },
        {
          "duration": 0.17647049999999354,
          "durationTicks": 96,
          "midi": 70,
          "name": "A#4",
          "ticks": 77472,
          "time": 142.4116935,
          "velocity": 0.3937007874015748
        },
        {
          "duration": 0.17647049999999354,
          "durationTicks": 96,
          "midi": 70,
          "name": "A#4",
          "ticks": 77664,
          "time": 142.7646345,
          "velocity": 0.3937007874015748
        },
        {
          "duration": 0.3529410000000155,
          "durationTicks": 192,
          "midi": 63,
          "name": "D#4",
          "ticks": 77760,
          "time": 142.941105,
          "velocity": 0.3937007874015748
        },
        {
          "duration": 0.35294099999998707,
          "durationTicks": 192,
          "midi": 67,
          "name": "G4",
          "ticks": 77952,
          "time": 143.294046,
          "velocity": 0.3937007874015748
        },
        {
          "duration": 0.3529410000000155,
          "durationTicks": 192,
          "midi": 63,
          "name": "D#4",
          "ticks": 78144,
          "time": 143.646987,
          "velocity": 0.3937007874015748
        },
        {
          "duration": 0.35294099999998707,
          "durationTicks": 192,
          "midi": 67,
          "name": "G4",
          "ticks": 78336,
          "time": 143.999928,
          "velocity": 0.3937007874015748
        },
        {
          "duration": 0.3529410000000155,
          "durationTicks": 192,
          "midi": 63,
          "name": "D#4",
          "ticks": 78528,
          "time": 144.352869,
          "velocity": 0.3937007874015748
        },
        {
          "duration": 0.35294099999998707,
          "durationTicks": 192,
          "midi": 67,
          "name": "G4",
          "ticks": 78720,
          "time": 144.70581,
          "velocity": 0.3937007874015748
        },
        {
          "duration": 0.17647049999999354,
          "durationTicks": 96,
          "midi": 63,
          "name": "D#4",
          "ticks": 78912,
          "time": 145.058751,
          "velocity": 0.3937007874015748
        },
        {
          "duration": 0.3529410000000155,
          "durationTicks": 192,
          "midi": 72,
          "name": "C5",
          "ticks": 79008,
          "time": 145.2352215,
          "velocity": 0.3937007874015748
        },
        {
          "duration": 0.17647049999999354,
          "durationTicks": 96,
          "midi": 75,
          "name": "D#5",
          "ticks": 79200,
          "time": 145.5881625,
          "velocity": 0.3937007874015748
        },
        {
          "duration": 0.35294099999998707,
          "durationTicks": 192,
          "midi": 72,
          "name": "C5",
          "ticks": 79296,
          "time": 145.764633,
          "velocity": 0.3937007874015748
        },
        {
          "duration": 0.3529410000000155,
          "durationTicks": 192,
          "midi": 70,
          "name": "A#4",
          "ticks": 79488,
          "time": 146.117574,
          "velocity": 0.3937007874015748
        },
        {
          "duration": 0.35294099999998707,
          "durationTicks": 192,
          "midi": 67,
          "name": "G4",
          "ticks": 79680,
          "time": 146.470515,
          "velocity": 0.3937007874015748
        },
        {
          "duration": 0.3529410000000155,
          "durationTicks": 192,
          "midi": 67,
          "name": "G4",
          "ticks": 79872,
          "time": 146.823456,
          "velocity": 0.3937007874015748
        },
        {
          "duration": 0.35294099999998707,
          "durationTicks": 192,
          "midi": 63,
          "name": "D#4",
          "ticks": 80064,
          "time": 147.176397,
          "velocity": 0.3937007874015748
        },
        {
          "duration": 0.3529410000000155,
          "durationTicks": 192,
          "midi": 67,
          "name": "G4",
          "ticks": 80256,
          "time": 147.529338,
          "velocity": 0.3937007874015748
        },
        {
          "duration": 0.17647049999999354,
          "durationTicks": 96,
          "midi": 63,
          "name": "D#4",
          "ticks": 80448,
          "time": 147.882279,
          "velocity": 0.3937007874015748
        },
        {
          "duration": 0.17647049999999354,
          "durationTicks": 96,
          "midi": 70,
          "name": "A#4",
          "ticks": 80544,
          "time": 148.0587495,
          "velocity": 0.3937007874015748
        },
        {
          "duration": 0.17647050000002196,
          "durationTicks": 96,
          "midi": 70,
          "name": "A#4",
          "ticks": 80736,
          "time": 148.4116905,
          "velocity": 0.3937007874015748
        },
        {
          "duration": 0.35294099999998707,
          "durationTicks": 192,
          "midi": 63,
          "name": "D#4",
          "ticks": 80832,
          "time": 148.588161,
          "velocity": 0.3937007874015748
        },
        {
          "duration": 0.35294099999998707,
          "durationTicks": 192,
          "midi": 67,
          "name": "G4",
          "ticks": 81024,
          "time": 148.941102,
          "velocity": 0.3937007874015748
        },
        {
          "duration": 0.3529410000000155,
          "durationTicks": 192,
          "midi": 63,
          "name": "D#4",
          "ticks": 81216,
          "time": 149.294043,
          "velocity": 0.3937007874015748
        },
        {
          "duration": 0.35294099999998707,
          "durationTicks": 192,
          "midi": 67,
          "name": "G4",
          "ticks": 81408,
          "time": 149.646984,
          "velocity": 0.3937007874015748
        },
        {
          "duration": 0.3529410000000155,
          "durationTicks": 192,
          "midi": 63,
          "name": "D#4",
          "ticks": 81600,
          "time": 149.999925,
          "velocity": 0.3937007874015748
        },
        {
          "duration": 0.35294099999998707,
          "durationTicks": 192,
          "midi": 67,
          "name": "G4",
          "ticks": 81792,
          "time": 150.352866,
          "velocity": 0.3937007874015748
        },
        {
          "duration": 0.17647050000002196,
          "durationTicks": 96,
          "midi": 63,
          "name": "D#4",
          "ticks": 81984,
          "time": 150.705807,
          "velocity": 0.3937007874015748
        },
        {
          "duration": 0.35294099999998707,
          "durationTicks": 192,
          "midi": 72,
          "name": "C5",
          "ticks": 82080,
          "time": 150.88227750000001,
          "velocity": 0.3937007874015748
        },
        {
          "duration": 0.17647049999999354,
          "durationTicks": 96,
          "midi": 75,
          "name": "D#5",
          "ticks": 82272,
          "time": 151.2352185,
          "velocity": 0.3937007874015748
        },
        {
          "duration": 0.3529410000000155,
          "durationTicks": 192,
          "midi": 72,
          "name": "C5",
          "ticks": 82368,
          "time": 151.411689,
          "velocity": 0.3937007874015748
        },
        {
          "duration": 0.35294099999998707,
          "durationTicks": 192,
          "midi": 70,
          "name": "A#4",
          "ticks": 82560,
          "time": 151.76463,
          "velocity": 0.3937007874015748
        },
        {
          "duration": 0.3529410000000155,
          "durationTicks": 192,
          "midi": 67,
          "name": "G4",
          "ticks": 82752,
          "time": 152.117571,
          "velocity": 0.3937007874015748
        },
        {
          "duration": 0.35294099999998707,
          "durationTicks": 192,
          "midi": 67,
          "name": "G4",
          "ticks": 82944,
          "time": 152.470512,
          "velocity": 0.3937007874015748
        },
        {
          "duration": 0.3529410000000155,
          "durationTicks": 192,
          "midi": 63,
          "name": "D#4",
          "ticks": 83136,
          "time": 152.823453,
          "velocity": 0.3937007874015748
        },
        {
          "duration": 0.35294099999998707,
          "durationTicks": 192,
          "midi": 67,
          "name": "G4",
          "ticks": 83328,
          "time": 153.17639400000002,
          "velocity": 0.3937007874015748
        },
        {
          "duration": 0.17647049999999354,
          "durationTicks": 96,
          "midi": 63,
          "name": "D#4",
          "ticks": 83520,
          "time": 153.529335,
          "velocity": 0.3937007874015748
        },
        {
          "duration": 0.17647049999999354,
          "durationTicks": 96,
          "midi": 70,
          "name": "A#4",
          "ticks": 83616,
          "time": 153.7058055,
          "velocity": 0.3937007874015748
        },
        {
          "duration": 0.17647049999999354,
          "durationTicks": 96,
          "midi": 70,
          "name": "A#4",
          "ticks": 83808,
          "time": 154.0587465,
          "velocity": 0.3937007874015748
        },
        {
          "duration": 0.35294099999998707,
          "durationTicks": 192,
          "midi": 63,
          "name": "D#4",
          "ticks": 83904,
          "time": 154.235217,
          "velocity": 0.3937007874015748
        },
        {
          "duration": 0.3529410000000155,
          "durationTicks": 192,
          "midi": 67,
          "name": "G4",
          "ticks": 84096,
          "time": 154.588158,
          "velocity": 0.3937007874015748
        },
        {
          "duration": 0.35294099999998707,
          "durationTicks": 192,
          "midi": 63,
          "name": "D#4",
          "ticks": 84288,
          "time": 154.941099,
          "velocity": 0.3937007874015748
        },
        {
          "duration": 0.3529410000000155,
          "durationTicks": 192,
          "midi": 67,
          "name": "G4",
          "ticks": 84480,
          "time": 155.29404,
          "velocity": 0.3937007874015748
        },
        {
          "duration": 0.35294099999998707,
          "durationTicks": 192,
          "midi": 63,
          "name": "D#4",
          "ticks": 84672,
          "time": 155.646981,
          "velocity": 0.3937007874015748
        },
        {
          "duration": 0.3529410000000155,
          "durationTicks": 192,
          "midi": 67,
          "name": "G4",
          "ticks": 84864,
          "time": 155.999922,
          "velocity": 0.3937007874015748
        },
        {
          "duration": 0.17647049999999354,
          "durationTicks": 96,
          "midi": 63,
          "name": "D#4",
          "ticks": 85056,
          "time": 156.352863,
          "velocity": 0.3937007874015748
        },
        {
          "duration": 0.35294099999998707,
          "durationTicks": 192,
          "midi": 72,
          "name": "C5",
          "ticks": 85152,
          "time": 156.5293335,
          "velocity": 0.3937007874015748
        },
        {
          "duration": 0.17647050000002196,
          "durationTicks": 96,
          "midi": 75,
          "name": "D#5",
          "ticks": 85344,
          "time": 156.8822745,
          "velocity": 0.3937007874015748
        },
        {
          "duration": 0.35294099999998707,
          "durationTicks": 192,
          "midi": 72,
          "name": "C5",
          "ticks": 85440,
          "time": 157.05874500000002,
          "velocity": 0.3937007874015748
        },
        {
          "duration": 0.35294099999998707,
          "durationTicks": 192,
          "midi": 70,
          "name": "A#4",
          "ticks": 85632,
          "time": 157.411686,
          "velocity": 0.3937007874015748
        },
        {
          "duration": 0.3529410000000155,
          "durationTicks": 192,
          "midi": 67,
          "name": "G4",
          "ticks": 85824,
          "time": 157.764627,
          "velocity": 0.3937007874015748
        },
        {
          "duration": 0.35294099999998707,
          "durationTicks": 192,
          "midi": 67,
          "name": "G4",
          "ticks": 86016,
          "time": 158.117568,
          "velocity": 0.3937007874015748
        },
        {
          "duration": 0.3529410000000155,
          "durationTicks": 192,
          "midi": 63,
          "name": "D#4",
          "ticks": 86208,
          "time": 158.470509,
          "velocity": 0.3937007874015748
        },
        {
          "duration": 0.35294099999998707,
          "durationTicks": 192,
          "midi": 67,
          "name": "G4",
          "ticks": 86400,
          "time": 158.82345,
          "velocity": 0.3937007874015748
        },
        {
          "duration": 0.17647049999999354,
          "durationTicks": 96,
          "midi": 63,
          "name": "D#4",
          "ticks": 86592,
          "time": 159.176391,
          "velocity": 0.3937007874015748
        },
        {
          "duration": 0.17647050000002196,
          "durationTicks": 96,
          "midi": 70,
          "name": "A#4",
          "ticks": 86688,
          "time": 159.3528615,
          "velocity": 0.3937007874015748
        },
        {
          "duration": 0.17647049999999354,
          "durationTicks": 96,
          "midi": 70,
          "name": "A#4",
          "ticks": 86880,
          "time": 159.7058025,
          "velocity": 0.3937007874015748
        },
        {
          "duration": 0.3529410000000155,
          "durationTicks": 192,
          "midi": 63,
          "name": "D#4",
          "ticks": 86976,
          "time": 159.882273,
          "velocity": 0.3937007874015748
        },
        {
          "duration": 0.35294099999998707,
          "durationTicks": 192,
          "midi": 67,
          "name": "G4",
          "ticks": 87168,
          "time": 160.235214,
          "velocity": 0.3937007874015748
        },
        {
          "duration": 0.3529410000000155,
          "durationTicks": 192,
          "midi": 63,
          "name": "D#4",
          "ticks": 87360,
          "time": 160.588155,
          "velocity": 0.3937007874015748
        },
        {
          "duration": 0.35294099999998707,
          "durationTicks": 192,
          "midi": 67,
          "name": "G4",
          "ticks": 87552,
          "time": 160.94109600000002,
          "velocity": 0.3937007874015748
        },
        {
          "duration": 0.35294099999998707,
          "durationTicks": 192,
          "midi": 63,
          "name": "D#4",
          "ticks": 87744,
          "time": 161.294037,
          "velocity": 0.3937007874015748
        },
        {
          "duration": 0.3529410000000155,
          "durationTicks": 192,
          "midi": 67,
          "name": "G4",
          "ticks": 87936,
          "time": 161.646978,
          "velocity": 0.3937007874015748
        },
        {
          "duration": 0.17647049999999354,
          "durationTicks": 96,
          "midi": 63,
          "name": "D#4",
          "ticks": 88128,
          "time": 161.999919,
          "velocity": 0.3937007874015748
        },
        {
          "duration": 0.3529410000000155,
          "durationTicks": 192,
          "midi": 72,
          "name": "C5",
          "ticks": 88224,
          "time": 162.1763895,
          "velocity": 0.3937007874015748
        },
        {
          "duration": 0.17647049999999354,
          "durationTicks": 96,
          "midi": 75,
          "name": "D#5",
          "ticks": 88416,
          "time": 162.52933050000001,
          "velocity": 0.3937007874015748
        },
        {
          "duration": 0.35294099999998707,
          "durationTicks": 192,
          "midi": 72,
          "name": "C5",
          "ticks": 88512,
          "time": 162.705801,
          "velocity": 0.3937007874015748
        },
        {
          "duration": 0.3529410000000155,
          "durationTicks": 192,
          "midi": 70,
          "name": "A#4",
          "ticks": 88704,
          "time": 163.058742,
          "velocity": 0.3937007874015748
        },
        {
          "duration": 0.35294099999998707,
          "durationTicks": 192,
          "midi": 67,
          "name": "G4",
          "ticks": 88896,
          "time": 163.411683,
          "velocity": 0.3937007874015748
        },
        {
          "duration": 0.3529410000000155,
          "durationTicks": 192,
          "midi": 67,
          "name": "G4",
          "ticks": 89088,
          "time": 163.764624,
          "velocity": 0.3937007874015748
        },
        {
          "duration": 0.35294099999998707,
          "durationTicks": 192,
          "midi": 63,
          "name": "D#4",
          "ticks": 89280,
          "time": 164.117565,
          "velocity": 0.3937007874015748
        },
        {
          "duration": 0.3529410000000155,
          "durationTicks": 192,
          "midi": 67,
          "name": "G4",
          "ticks": 89472,
          "time": 164.470506,
          "velocity": 0.3937007874015748
        },
        {
          "duration": 0.17647049999999354,
          "durationTicks": 96,
          "midi": 63,
          "name": "D#4",
          "ticks": 89664,
          "time": 164.82344700000002,
          "velocity": 0.3937007874015748
        },
        {
          "duration": 0.17647049999999354,
          "durationTicks": 96,
          "midi": 70,
          "name": "A#4",
          "ticks": 89760,
          "time": 164.9999175,
          "velocity": 0.3937007874015748
        },
        {
          "duration": 0.17647049999999354,
          "durationTicks": 96,
          "midi": 70,
          "name": "A#4",
          "ticks": 89952,
          "time": 165.3528585,
          "velocity": 0.3937007874015748
        },
        {
          "duration": 0.3529410000000155,
          "durationTicks": 192,
          "midi": 63,
          "name": "D#4",
          "ticks": 90048,
          "time": 165.529329,
          "velocity": 0.3937007874015748
        },
        {
          "duration": 0.35294099999998707,
          "durationTicks": 192,
          "midi": 67,
          "name": "G4",
          "ticks": 90240,
          "time": 165.88227,
          "velocity": 0.3937007874015748
        },
        {
          "duration": 0.3529410000000155,
          "durationTicks": 192,
          "midi": 63,
          "name": "D#4",
          "ticks": 90432,
          "time": 166.235211,
          "velocity": 0.3937007874015748
        },
        {
          "duration": 0.35294099999998707,
          "durationTicks": 192,
          "midi": 67,
          "name": "G4",
          "ticks": 90624,
          "time": 166.588152,
          "velocity": 0.3937007874015748
        },
        {
          "duration": 0.3529410000000155,
          "durationTicks": 192,
          "midi": 63,
          "name": "D#4",
          "ticks": 90816,
          "time": 166.941093,
          "velocity": 0.3937007874015748
        },
        {
          "duration": 0.35294099999998707,
          "durationTicks": 192,
          "midi": 67,
          "name": "G4",
          "ticks": 91008,
          "time": 167.294034,
          "velocity": 0.3937007874015748
        },
        {
          "duration": 0.17647049999999354,
          "durationTicks": 96,
          "midi": 63,
          "name": "D#4",
          "ticks": 91200,
          "time": 167.646975,
          "velocity": 0.3937007874015748
        },
        {
          "duration": 0.3529410000000155,
          "durationTicks": 192,
          "midi": 72,
          "name": "C5",
          "ticks": 91296,
          "time": 167.8234455,
          "velocity": 0.3937007874015748
        },
        {
          "duration": 0.17647049999999354,
          "durationTicks": 96,
          "midi": 75,
          "name": "D#5",
          "ticks": 91488,
          "time": 168.1763865,
          "velocity": 0.3937007874015748
        },
        {
          "duration": 0.3529410000000155,
          "durationTicks": 192,
          "midi": 72,
          "name": "C5",
          "ticks": 91584,
          "time": 168.352857,
          "velocity": 0.3937007874015748
        },
        {
          "duration": 0.35294099999998707,
          "durationTicks": 192,
          "midi": 70,
          "name": "A#4",
          "ticks": 91776,
          "time": 168.70579800000002,
          "velocity": 0.3937007874015748
        },
        {
          "duration": 0.35294099999998707,
          "durationTicks": 192,
          "midi": 67,
          "name": "G4",
          "ticks": 91968,
          "time": 169.058739,
          "velocity": 0.3937007874015748
        },
        {
          "duration": 0.3529410000000155,
          "durationTicks": 192,
          "midi": 67,
          "name": "G4",
          "ticks": 92160,
          "time": 169.41168,
          "velocity": 0.3937007874015748
        },
        {
          "duration": 0.35294099999998707,
          "durationTicks": 192,
          "midi": 63,
          "name": "D#4",
          "ticks": 92352,
          "time": 169.764621,
          "velocity": 0.3937007874015748
        },
        {
          "duration": 0.3529410000000155,
          "durationTicks": 192,
          "midi": 67,
          "name": "G4",
          "ticks": 92544,
          "time": 170.117562,
          "velocity": 0.3937007874015748
        },
        {
          "duration": 0.17647049999999354,
          "durationTicks": 96,
          "midi": 63,
          "name": "D#4",
          "ticks": 92736,
          "time": 170.470503,
          "velocity": 0.3937007874015748
        },
        {
          "duration": 0.17647049999999354,
          "durationTicks": 96,
          "midi": 70,
          "name": "A#4",
          "ticks": 92832,
          "time": 170.6469735,
          "velocity": 0.3937007874015748
        },
        {
          "duration": 0.17647050000002196,
          "durationTicks": 96,
          "midi": 70,
          "name": "A#4",
          "ticks": 93024,
          "time": 170.9999145,
          "velocity": 0.3937007874015748
        },
        {
          "duration": 0.35294099999998707,
          "durationTicks": 192,
          "midi": 63,
          "name": "D#4",
          "ticks": 93120,
          "time": 171.176385,
          "velocity": 0.3937007874015748
        },
        {
          "duration": 0.3529410000000155,
          "durationTicks": 192,
          "midi": 67,
          "name": "G4",
          "ticks": 93312,
          "time": 171.529326,
          "velocity": 0.3937007874015748
        },
        {
          "duration": 0.35294099999998707,
          "durationTicks": 192,
          "midi": 63,
          "name": "D#4",
          "ticks": 93504,
          "time": 171.882267,
          "velocity": 0.3937007874015748
        },
        {
          "duration": 0.3529410000000155,
          "durationTicks": 192,
          "midi": 67,
          "name": "G4",
          "ticks": 93696,
          "time": 172.235208,
          "velocity": 0.3937007874015748
        },
        {
          "duration": 0.35294099999998707,
          "durationTicks": 192,
          "midi": 63,
          "name": "D#4",
          "ticks": 93888,
          "time": 172.58814900000002,
          "velocity": 0.3937007874015748
        },
        {
          "duration": 0.35294099999998707,
          "durationTicks": 192,
          "midi": 67,
          "name": "G4",
          "ticks": 94080,
          "time": 172.94109,
          "velocity": 0.3937007874015748
        },
        {
          "duration": 0.17647050000002196,
          "durationTicks": 96,
          "midi": 63,
          "name": "D#4",
          "ticks": 94272,
          "time": 173.294031,
          "velocity": 0.3937007874015748
        },
        {
          "duration": 0.35294099999998707,
          "durationTicks": 192,
          "midi": 72,
          "name": "C5",
          "ticks": 94368,
          "time": 173.4705015,
          "velocity": 0.3937007874015748
        },
        {
          "duration": 0.17647049999999354,
          "durationTicks": 96,
          "midi": 75,
          "name": "D#5",
          "ticks": 94560,
          "time": 173.8234425,
          "velocity": 0.3937007874015748
        },
        {
          "duration": 0.3529410000000155,
          "durationTicks": 192,
          "midi": 72,
          "name": "C5",
          "ticks": 94656,
          "time": 173.999913,
          "velocity": 0.3937007874015748
        },
        {
          "duration": 0.35294099999998707,
          "durationTicks": 192,
          "midi": 70,
          "name": "A#4",
          "ticks": 94848,
          "time": 174.352854,
          "velocity": 0.3937007874015748
        },
        {
          "duration": 0.3529410000000155,
          "durationTicks": 192,
          "midi": 67,
          "name": "G4",
          "ticks": 95040,
          "time": 174.705795,
          "velocity": 0.3937007874015748
        },
        {
          "duration": 0.35294099999998707,
          "durationTicks": 192,
          "midi": 67,
          "name": "G4",
          "ticks": 95232,
          "time": 175.058736,
          "velocity": 0.3937007874015748
        },
        {
          "duration": 0.3529410000000155,
          "durationTicks": 192,
          "midi": 63,
          "name": "D#4",
          "ticks": 95424,
          "time": 175.411677,
          "velocity": 0.3937007874015748
        },
        {
          "duration": 0.35294099999998707,
          "durationTicks": 192,
          "midi": 67,
          "name": "G4",
          "ticks": 95616,
          "time": 175.764618,
          "velocity": 0.3937007874015748
        },
        {
          "duration": 0.17647049999999354,
          "durationTicks": 96,
          "midi": 63,
          "name": "D#4",
          "ticks": 95808,
          "time": 176.117559,
          "velocity": 0.3937007874015748
        },
        {
          "duration": 0.17647050000002196,
          "durationTicks": 96,
          "midi": 70,
          "name": "A#4",
          "ticks": 95904,
          "time": 176.2940295,
          "velocity": 0.3937007874015748
        },
        {
          "duration": 0.17647049999999354,
          "durationTicks": 96,
          "midi": 70,
          "name": "A#4",
          "ticks": 96096,
          "time": 176.6469705,
          "velocity": 0.3937007874015748
        },
        {
          "duration": 0.35294099999998707,
          "durationTicks": 192,
          "midi": 63,
          "name": "D#4",
          "ticks": 96192,
          "time": 176.823441,
          "velocity": 0.3937007874015748
        },
        {
          "duration": 0.3529410000000155,
          "durationTicks": 192,
          "midi": 67,
          "name": "G4",
          "ticks": 96384,
          "time": 177.176382,
          "velocity": 0.3937007874015748
        },
        {
          "duration": 0.35294099999998707,
          "durationTicks": 192,
          "midi": 63,
          "name": "D#4",
          "ticks": 96576,
          "time": 177.529323,
          "velocity": 0.3937007874015748
        },
        {
          "duration": 0.3529410000000155,
          "durationTicks": 192,
          "midi": 67,
          "name": "G4",
          "ticks": 96768,
          "time": 177.882264,
          "velocity": 0.3937007874015748
        },
        {
          "duration": 0.35294099999998707,
          "durationTicks": 192,
          "midi": 63,
          "name": "D#4",
          "ticks": 96960,
          "time": 178.235205,
          "velocity": 0.3937007874015748
        },
        {
          "duration": 0.3529410000000155,
          "durationTicks": 192,
          "midi": 67,
          "name": "G4",
          "ticks": 97152,
          "time": 178.588146,
          "velocity": 0.3937007874015748
        },
        {
          "duration": 0.17647049999999354,
          "durationTicks": 96,
          "midi": 63,
          "name": "D#4",
          "ticks": 97344,
          "time": 178.941087,
          "velocity": 0.3937007874015748
        },
        {
          "duration": 0.35294099999998707,
          "durationTicks": 192,
          "midi": 72,
          "name": "C5",
          "ticks": 97440,
          "time": 179.1175575,
          "velocity": 0.3937007874015748
        },
        {
          "duration": 0.17647050000002196,
          "durationTicks": 96,
          "midi": 75,
          "name": "D#5",
          "ticks": 97632,
          "time": 179.4704985,
          "velocity": 0.3937007874015748
        },
        {
          "duration": 0.35294099999998707,
          "durationTicks": 192,
          "midi": 72,
          "name": "C5",
          "ticks": 97728,
          "time": 179.646969,
          "velocity": 0.3937007874015748
        },
        {
          "duration": 0.3529410000000155,
          "durationTicks": 192,
          "midi": 70,
          "name": "A#4",
          "ticks": 97920,
          "time": 179.99991,
          "velocity": 0.3937007874015748
        },
        {
          "duration": 0.35294099999998707,
          "durationTicks": 192,
          "midi": 67,
          "name": "G4",
          "ticks": 98112,
          "time": 180.35285100000002,
          "velocity": 0.3937007874015748
        },
        {
          "duration": 0.35294099999998707,
          "durationTicks": 192,
          "midi": 67,
          "name": "G4",
          "ticks": 98304,
          "time": 180.705792,
          "velocity": 0.3937007874015748
        },
        {
          "duration": 0.3529410000000155,
          "durationTicks": 192,
          "midi": 63,
          "name": "D#4",
          "ticks": 98496,
          "time": 181.058733,
          "velocity": 0.3937007874015748
        },
        {
          "duration": 0.35294099999998707,
          "durationTicks": 192,
          "midi": 67,
          "name": "G4",
          "ticks": 98688,
          "time": 181.411674,
          "velocity": 0.3937007874015748
        },
        {
          "duration": 0.17647050000002196,
          "durationTicks": 96,
          "midi": 63,
          "name": "D#4",
          "ticks": 98880,
          "time": 181.764615,
          "velocity": 0.3937007874015748
        },
        {
          "duration": 0.17647049999999354,
          "durationTicks": 96,
          "midi": 70,
          "name": "A#4",
          "ticks": 98976,
          "time": 181.9410855,
          "velocity": 0.3937007874015748
        },
        {
          "duration": 0.17647049999999354,
          "durationTicks": 96,
          "midi": 70,
          "name": "A#4",
          "ticks": 99168,
          "time": 182.2940265,
          "velocity": 0.3937007874015748
        },
        {
          "duration": 0.3529410000000155,
          "durationTicks": 192,
          "midi": 63,
          "name": "D#4",
          "ticks": 99264,
          "time": 182.470497,
          "velocity": 0.3937007874015748
        },
        {
          "duration": 0.35294099999998707,
          "durationTicks": 192,
          "midi": 67,
          "name": "G4",
          "ticks": 99456,
          "time": 182.823438,
          "velocity": 0.3937007874015748
        },
        {
          "duration": 0.3529410000000155,
          "durationTicks": 192,
          "midi": 63,
          "name": "D#4",
          "ticks": 99648,
          "time": 183.176379,
          "velocity": 0.3937007874015748
        },
        {
          "duration": 0.35294099999998707,
          "durationTicks": 192,
          "midi": 67,
          "name": "G4",
          "ticks": 99840,
          "time": 183.52932,
          "velocity": 0.3937007874015748
        },
        {
          "duration": 0.3529410000000155,
          "durationTicks": 192,
          "midi": 63,
          "name": "D#4",
          "ticks": 100032,
          "time": 183.882261,
          "velocity": 0.3937007874015748
        },
        {
          "duration": 0.35294099999998707,
          "durationTicks": 192,
          "midi": 67,
          "name": "G4",
          "ticks": 100224,
          "time": 184.23520200000002,
          "velocity": 0.3937007874015748
        },
        {
          "duration": 0.17647049999999354,
          "durationTicks": 96,
          "midi": 63,
          "name": "D#4",
          "ticks": 100416,
          "time": 184.588143,
          "velocity": 0.3937007874015748
        },
        {
          "duration": 0.3529410000000155,
          "durationTicks": 192,
          "midi": 72,
          "name": "C5",
          "ticks": 100512,
          "time": 184.7646135,
          "velocity": 0.3937007874015748
        },
        {
          "duration": 0.17647049999999354,
          "durationTicks": 96,
          "midi": 75,
          "name": "D#5",
          "ticks": 100704,
          "time": 185.1175545,
          "velocity": 0.3937007874015748
        },
        {
          "duration": 0.35294099999998707,
          "durationTicks": 192,
          "midi": 72,
          "name": "C5",
          "ticks": 100800,
          "time": 185.294025,
          "velocity": 0.3937007874015748
        },
        {
          "duration": 0.3529410000000155,
          "durationTicks": 192,
          "midi": 70,
          "name": "A#4",
          "ticks": 100992,
          "time": 185.646966,
          "velocity": 0.3937007874015748
        },
        {
          "duration": 0.35294099999998707,
          "durationTicks": 192,
          "midi": 67,
          "name": "G4",
          "ticks": 101184,
          "time": 185.999907,
          "velocity": 0.3937007874015748
        },
        {
          "duration": 0.3529410000000155,
          "durationTicks": 192,
          "midi": 67,
          "name": "G4",
          "ticks": 101376,
          "time": 186.352848,
          "velocity": 0.3937007874015748
        },
        {
          "duration": 0.35294099999998707,
          "durationTicks": 192,
          "midi": 63,
          "name": "D#4",
          "ticks": 101568,
          "time": 186.705789,
          "velocity": 0.3937007874015748
        },
        {
          "duration": 0.3529410000000155,
          "durationTicks": 192,
          "midi": 67,
          "name": "G4",
          "ticks": 101760,
          "time": 187.05873,
          "velocity": 0.3937007874015748
        },
        {
          "duration": 0.17647049999999354,
          "durationTicks": 96,
          "midi": 63,
          "name": "D#4",
          "ticks": 101952,
          "time": 187.411671,
          "velocity": 0.3937007874015748
        },
        {
          "duration": 0.17647049999999354,
          "durationTicks": 96,
          "midi": 70,
          "name": "A#4",
          "ticks": 102048,
          "time": 187.5881415,
          "velocity": 0.3937007874015748
        },
        {
          "duration": 0.17647050000002196,
          "durationTicks": 96,
          "midi": 70,
          "name": "A#4",
          "ticks": 102240,
          "time": 187.9410825,
          "velocity": 0.3937007874015748
        },
        {
          "duration": 0.35294099999998707,
          "durationTicks": 192,
          "midi": 63,
          "name": "D#4",
          "ticks": 102336,
          "time": 188.11755300000002,
          "velocity": 0.3937007874015748
        },
        {
          "duration": 0.35294099999998707,
          "durationTicks": 192,
          "midi": 67,
          "name": "G4",
          "ticks": 102528,
          "time": 188.470494,
          "velocity": 0.3937007874015748
        },
        {
          "duration": 0.3529410000000155,
          "durationTicks": 192,
          "midi": 63,
          "name": "D#4",
          "ticks": 102720,
          "time": 188.823435,
          "velocity": 0.3937007874015748
        },
        {
          "duration": 0.35294099999998707,
          "durationTicks": 192,
          "midi": 67,
          "name": "G4",
          "ticks": 102912,
          "time": 189.176376,
          "velocity": 0.3937007874015748
        },
        {
          "duration": 0.3529410000000155,
          "durationTicks": 192,
          "midi": 63,
          "name": "D#4",
          "ticks": 103104,
          "time": 189.529317,
          "velocity": 0.3937007874015748
        },
        {
          "duration": 0.35294099999998707,
          "durationTicks": 192,
          "midi": 67,
          "name": "G4",
          "ticks": 103296,
          "time": 189.882258,
          "velocity": 0.3937007874015748
        },
        {
          "duration": 0.17647050000002196,
          "durationTicks": 96,
          "midi": 63,
          "name": "D#4",
          "ticks": 103488,
          "time": 190.235199,
          "velocity": 0.3937007874015748
        },
        {
          "duration": 0.35294099999998707,
          "durationTicks": 192,
          "midi": 72,
          "name": "C5",
          "ticks": 103584,
          "time": 190.41166950000002,
          "velocity": 0.3937007874015748
        },
        {
          "duration": 0.17647049999999354,
          "durationTicks": 96,
          "midi": 75,
          "name": "D#5",
          "ticks": 103776,
          "time": 190.7646105,
          "velocity": 0.3937007874015748
        },
        {
          "duration": 0.3529410000000155,
          "durationTicks": 192,
          "midi": 72,
          "name": "C5",
          "ticks": 103872,
          "time": 190.941081,
          "velocity": 0.3937007874015748
        },
        {
          "duration": 0.35294099999998707,
          "durationTicks": 192,
          "midi": 70,
          "name": "A#4",
          "ticks": 104064,
          "time": 191.294022,
          "velocity": 0.3937007874015748
        },
        {
          "duration": 0.3529410000000155,
          "durationTicks": 192,
          "midi": 67,
          "name": "G4",
          "ticks": 104256,
          "time": 191.646963,
          "velocity": 0.3937007874015748
        },
        {
          "duration": 0.35294099999998707,
          "durationTicks": 192,
          "midi": 67,
          "name": "G4",
          "ticks": 104448,
          "time": 191.99990400000002,
          "velocity": 0.3937007874015748
        },
        {
          "duration": 0.35294099999998707,
          "durationTicks": 192,
          "midi": 63,
          "name": "D#4",
          "ticks": 104640,
          "time": 192.352845,
          "velocity": 0.3937007874015748
        },
        {
          "duration": 0.3529410000000155,
          "durationTicks": 192,
          "midi": 67,
          "name": "G4",
          "ticks": 104832,
          "time": 192.705786,
          "velocity": 0.3937007874015748
        },
        {
          "duration": 0.17647049999999354,
          "durationTicks": 96,
          "midi": 63,
          "name": "D#4",
          "ticks": 105024,
          "time": 193.058727,
          "velocity": 0.3937007874015748
        },
        {
          "duration": 0.17647049999999354,
          "durationTicks": 96,
          "midi": 70,
          "name": "A#4",
          "ticks": 105120,
          "time": 193.2351975,
          "velocity": 0.3937007874015748
        },
        {
          "duration": 0.17647049999999354,
          "durationTicks": 96,
          "midi": 70,
          "name": "A#4",
          "ticks": 105312,
          "time": 193.5881385,
          "velocity": 0.3937007874015748
        },
        {
          "duration": 0.35294099999998707,
          "durationTicks": 192,
          "midi": 63,
          "name": "D#4",
          "ticks": 105408,
          "time": 193.764609,
          "velocity": 0.3937007874015748
        },
        {
          "duration": 0.3529410000000155,
          "durationTicks": 192,
          "midi": 67,
          "name": "G4",
          "ticks": 105600,
          "time": 194.11755,
          "velocity": 0.3937007874015748
        },
        {
          "duration": 0.35294099999998707,
          "durationTicks": 192,
          "midi": 63,
          "name": "D#4",
          "ticks": 105792,
          "time": 194.470491,
          "velocity": 0.3937007874015748
        },
        {
          "duration": 0.3529410000000155,
          "durationTicks": 192,
          "midi": 67,
          "name": "G4",
          "ticks": 105984,
          "time": 194.823432,
          "velocity": 0.3937007874015748
        },
        {
          "duration": 0.35294099999998707,
          "durationTicks": 192,
          "midi": 63,
          "name": "D#4",
          "ticks": 106176,
          "time": 195.176373,
          "velocity": 0.3937007874015748
        },
        {
          "duration": 0.3529410000000155,
          "durationTicks": 192,
          "midi": 67,
          "name": "G4",
          "ticks": 106368,
          "time": 195.529314,
          "velocity": 0.3937007874015748
        },
        {
          "duration": 0.17647049999999354,
          "durationTicks": 96,
          "midi": 63,
          "name": "D#4",
          "ticks": 106560,
          "time": 195.88225500000001,
          "velocity": 0.3937007874015748
        },
        {
          "duration": 0.35294099999998707,
          "durationTicks": 192,
          "midi": 72,
          "name": "C5",
          "ticks": 106656,
          "time": 196.0587255,
          "velocity": 0.3937007874015748
        },
        {
          "duration": 0.17647049999999354,
          "durationTicks": 96,
          "midi": 75,
          "name": "D#5",
          "ticks": 106848,
          "time": 196.4116665,
          "velocity": 0.3937007874015748
        },
        {
          "duration": 0.3529410000000155,
          "durationTicks": 192,
          "midi": 72,
          "name": "C5",
          "ticks": 106944,
          "time": 196.588137,
          "velocity": 0.3937007874015748
        },
        {
          "duration": 0.35294099999998707,
          "durationTicks": 192,
          "midi": 70,
          "name": "A#4",
          "ticks": 107136,
          "time": 196.941078,
          "velocity": 0.3937007874015748
        },
        {
          "duration": 0.3529410000000155,
          "durationTicks": 192,
          "midi": 67,
          "name": "G4",
          "ticks": 107328,
          "time": 197.294019,
          "velocity": 0.3937007874015748
        },
        {
          "duration": 0.35294099999998707,
          "durationTicks": 192,
          "midi": 67,
          "name": "G4",
          "ticks": 107520,
          "time": 197.64696,
          "velocity": 0.3937007874015748
        },
        {
          "duration": 0.3529410000000155,
          "durationTicks": 192,
          "midi": 63,
          "name": "D#4",
          "ticks": 107712,
          "time": 197.999901,
          "velocity": 0.3937007874015748
        },
        {
          "duration": 0.35294099999998707,
          "durationTicks": 192,
          "midi": 67,
          "name": "G4",
          "ticks": 107904,
          "time": 198.352842,
          "velocity": 0.3937007874015748
        },
        {
          "duration": 0.17647049999999354,
          "durationTicks": 96,
          "midi": 63,
          "name": "D#4",
          "ticks": 108096,
          "time": 198.705783,
          "velocity": 0.3937007874015748
        },
        {
          "duration": 0.17647050000002196,
          "durationTicks": 96,
          "midi": 70,
          "name": "A#4",
          "ticks": 108192,
          "time": 198.8822535,
          "velocity": 0.3937007874015748
        },
        {
          "duration": 0.17647049999999354,
          "durationTicks": 96,
          "midi": 70,
          "name": "A#4",
          "ticks": 108384,
          "time": 199.2351945,
          "velocity": 0.3937007874015748
        },
        {
          "duration": 0.3529410000000155,
          "durationTicks": 192,
          "midi": 63,
          "name": "D#4",
          "ticks": 108480,
          "time": 199.411665,
          "velocity": 0.3937007874015748
        },
        {
          "duration": 0.35294099999998707,
          "durationTicks": 192,
          "midi": 67,
          "name": "G4",
          "ticks": 108672,
          "time": 199.76460600000001,
          "velocity": 0.3937007874015748
        },
        {
          "duration": 0.35294099999998707,
          "durationTicks": 192,
          "midi": 63,
          "name": "D#4",
          "ticks": 108864,
          "time": 200.117547,
          "velocity": 0.3937007874015748
        },
        {
          "duration": 0.3529410000000155,
          "durationTicks": 192,
          "midi": 67,
          "name": "G4",
          "ticks": 109056,
          "time": 200.470488,
          "velocity": 0.3937007874015748
        },
        {
          "duration": 0.35294099999998707,
          "durationTicks": 192,
          "midi": 63,
          "name": "D#4",
          "ticks": 109248,
          "time": 200.823429,
          "velocity": 0.3937007874015748
        },
        {
          "duration": 0.3529410000000155,
          "durationTicks": 192,
          "midi": 67,
          "name": "G4",
          "ticks": 109440,
          "time": 201.17637,
          "velocity": 0.3937007874015748
        },
        {
          "duration": 0.17647049999999354,
          "durationTicks": 96,
          "midi": 63,
          "name": "D#4",
          "ticks": 109632,
          "time": 201.529311,
          "velocity": 0.3937007874015748
        },
        {
          "duration": 0.3529410000000155,
          "durationTicks": 192,
          "midi": 72,
          "name": "C5",
          "ticks": 109728,
          "time": 201.7057815,
          "velocity": 0.3937007874015748
        },
        {
          "duration": 0.17647049999999354,
          "durationTicks": 96,
          "midi": 75,
          "name": "D#5",
          "ticks": 109920,
          "time": 202.05872250000002,
          "velocity": 0.3937007874015748
        },
        {
          "duration": 0.35294099999998707,
          "durationTicks": 192,
          "midi": 72,
          "name": "C5",
          "ticks": 110016,
          "time": 202.235193,
          "velocity": 0.3937007874015748
        },
        {
          "duration": 0.3529410000000155,
          "durationTicks": 192,
          "midi": 70,
          "name": "A#4",
          "ticks": 110208,
          "time": 202.588134,
          "velocity": 0.3937007874015748
        },
        {
          "duration": 0.35294099999998707,
          "durationTicks": 192,
          "midi": 67,
          "name": "G4",
          "ticks": 110400,
          "time": 202.941075,
          "velocity": 0.3937007874015748
        }
      ],
      "endOfTrackTicks": 110592
    },
    {
      "channel": 9,
      "controlChanges": {},
      "pitchBends": [],
      "instrument": {
        "family": "drums",
        "number": 0,
        "name": "standard kit"
      },
      "name": "Drum Kit",
      "notes": [
        {
          "duration": 0.17647050000000064,
          "durationTicks": 96,
          "midi": 39,
          "name": "D#2",
          "ticks": 24192,
          "time": 44.470566,
          "velocity": 0.3937007874015748
        },
        {
          "duration": 0.17647050000000064,
          "durationTicks": 96,
          "midi": 43,
          "name": "G2",
          "ticks": 24288,
          "time": 44.6470365,
          "velocity": 0.3937007874015748
        },
        {
          "duration": 0.17647050000000064,
          "durationTicks": 96,
          "midi": 49,
          "name": "C#3",
          "ticks": 24480,
          "time": 44.9999775,
          "velocity": 0.3937007874015748
        },
        {
          "duration": 0.17647050000000064,
          "durationTicks": 96,
          "midi": 35,
          "name": "B1",
          "ticks": 24576,
          "time": 45.176448,
          "velocity": 0.3937007874015748
        },
        {
          "duration": 0.17647050000000064,
          "durationTicks": 96,
          "midi": 36,
          "name": "C2",
          "ticks": 24576,
          "time": 45.176448,
          "velocity": 0.3937007874015748
        },
        {
          "duration": 0.17647050000000064,
          "durationTicks": 96,
          "midi": 38,
          "name": "D2",
          "ticks": 24576,
          "time": 45.176448,
          "velocity": 0.3937007874015748
        },
        {
          "duration": 0.17647050000000064,
          "durationTicks": 96,
          "midi": 28,
          "name": "E1",
          "ticks": 24672,
          "time": 45.3529185,
          "velocity": 0.3937007874015748
        },
        {
          "duration": 0.17647050000000064,
          "durationTicks": 96,
          "midi": 28,
          "name": "E1",
          "ticks": 24768,
          "time": 45.529389,
          "velocity": 0.3937007874015748
        },
        {
          "duration": 0.17647050000000064,
          "durationTicks": 96,
          "midi": 28,
          "name": "E1",
          "ticks": 24864,
          "time": 45.7058595,
          "velocity": 0.3937007874015748
        },
        {
          "duration": 0.17647050000000064,
          "durationTicks": 96,
          "midi": 35,
          "name": "B1",
          "ticks": 24960,
          "time": 45.88233,
          "velocity": 0.3937007874015748
        },
        {
          "duration": 0.17647050000000064,
          "durationTicks": 96,
          "midi": 36,
          "name": "C2",
          "ticks": 24960,
          "time": 45.88233,
          "velocity": 0.3937007874015748
        },
        {
          "duration": 0.17647050000000064,
          "durationTicks": 96,
          "midi": 40,
          "name": "E2",
          "ticks": 24960,
          "time": 45.88233,
          "velocity": 0.3937007874015748
        },
        {
          "duration": 0.17647049999999354,
          "durationTicks": 96,
          "midi": 28,
          "name": "E1",
          "ticks": 25056,
          "time": 46.058800500000004,
          "velocity": 0.3937007874015748
        },
        {
          "duration": 0.17647050000000064,
          "durationTicks": 96,
          "midi": 28,
          "name": "E1",
          "ticks": 25152,
          "time": 46.235271,
          "velocity": 0.3937007874015748
        },
        {
          "duration": 0.17647050000000064,
          "durationTicks": 96,
          "midi": 28,
          "name": "E1",
          "ticks": 25248,
          "time": 46.4117415,
          "velocity": 0.3937007874015748
        },
        {
          "duration": 0.17647050000000064,
          "durationTicks": 96,
          "midi": 35,
          "name": "B1",
          "ticks": 25344,
          "time": 46.588212,
          "velocity": 0.3937007874015748
        },
        {
          "duration": 0.17647050000000064,
          "durationTicks": 96,
          "midi": 36,
          "name": "C2",
          "ticks": 25344,
          "time": 46.588212,
          "velocity": 0.3937007874015748
        },
        {
          "duration": 0.17647050000000064,
          "durationTicks": 96,
          "midi": 38,
          "name": "D2",
          "ticks": 25344,
          "time": 46.588212,
          "velocity": 0.3937007874015748
        },
        {
          "duration": 0.17647050000000064,
          "durationTicks": 96,
          "midi": 28,
          "name": "E1",
          "ticks": 25440,
          "time": 46.7646825,
          "velocity": 0.3937007874015748
        },
        {
          "duration": 0.17647050000000064,
          "durationTicks": 96,
          "midi": 28,
          "name": "E1",
          "ticks": 25536,
          "time": 46.941153,
          "velocity": 0.3937007874015748
        },
        {
          "duration": 0.17647050000000064,
          "durationTicks": 96,
          "midi": 28,
          "name": "E1",
          "ticks": 25632,
          "time": 47.1176235,
          "velocity": 0.3937007874015748
        },
        {
          "duration": 0.17647050000000064,
          "durationTicks": 96,
          "midi": 35,
          "name": "B1",
          "ticks": 25728,
          "time": 47.294094,
          "velocity": 0.3937007874015748
        },
        {
          "duration": 0.17647050000000064,
          "durationTicks": 96,
          "midi": 36,
          "name": "C2",
          "ticks": 25728,
          "time": 47.294094,
          "velocity": 0.3937007874015748
        },
        {
          "duration": 0.17647050000000064,
          "durationTicks": 96,
          "midi": 40,
          "name": "E2",
          "ticks": 25728,
          "time": 47.294094,
          "velocity": 0.3937007874015748
        },
        {
          "duration": 0.17647050000000064,
          "durationTicks": 96,
          "midi": 28,
          "name": "E1",
          "ticks": 25824,
          "time": 47.4705645,
          "velocity": 0.3937007874015748
        },
        {
          "duration": 0.17647050000000064,
          "durationTicks": 96,
          "midi": 28,
          "name": "E1",
          "ticks": 25920,
          "time": 47.647035,
          "velocity": 0.3937007874015748
        },
        {
          "duration": 0.17647050000000064,
          "durationTicks": 96,
          "midi": 28,
          "name": "E1",
          "ticks": 26016,
          "time": 47.8235055,
          "velocity": 0.3937007874015748
        },
        {
          "duration": 0.17647049999999354,
          "durationTicks": 96,
          "midi": 35,
          "name": "B1",
          "ticks": 26112,
          "time": 47.999976000000004,
          "velocity": 0.3937007874015748
        },
        {
          "duration": 0.17647049999999354,
          "durationTicks": 96,
          "midi": 36,
          "name": "C2",
          "ticks": 26112,
          "time": 47.999976000000004,
          "velocity": 0.3937007874015748
        },
        {
          "duration": 0.17647049999999354,
          "durationTicks": 96,
          "midi": 38,
          "name": "D2",
          "ticks": 26112,
          "time": 47.999976000000004,
          "velocity": 0.3937007874015748
        },
        {
          "duration": 0.17647050000000064,
          "durationTicks": 96,
          "midi": 28,
          "name": "E1",
          "ticks": 26208,
          "time": 48.1764465,
          "velocity": 0.3937007874015748
        },
        {
          "duration": 0.17647050000000064,
          "durationTicks": 96,
          "midi": 28,
          "name": "E1",
          "ticks": 26304,
          "time": 48.352917,
          "velocity": 0.3937007874015748
        },
        {
          "duration": 0.17647050000000064,
          "durationTicks": 96,
          "midi": 28,
          "name": "E1",
          "ticks": 26400,
          "time": 48.5293875,
          "velocity": 0.3937007874015748
        },
        {
          "duration": 0.17647050000000064,
          "durationTicks": 96,
          "midi": 35,
          "name": "B1",
          "ticks": 26496,
          "time": 48.705858,
          "velocity": 0.3937007874015748
        },
        {
          "duration": 0.17647050000000064,
          "durationTicks": 96,
          "midi": 36,
          "name": "C2",
          "ticks": 26496,
          "time": 48.705858,
          "velocity": 0.3937007874015748
        },
        {
          "duration": 0.17647050000000064,
          "durationTicks": 96,
          "midi": 40,
          "name": "E2",
          "ticks": 26496,
          "time": 48.705858,
          "velocity": 0.3937007874015748
        },
        {
          "duration": 0.17647050000000064,
          "durationTicks": 96,
          "midi": 28,
          "name": "E1",
          "ticks": 26592,
          "time": 48.8823285,
          "velocity": 0.3937007874015748
        },
        {
          "duration": 0.17647050000000064,
          "durationTicks": 96,
          "midi": 28,
          "name": "E1",
          "ticks": 26688,
          "time": 49.058799,
          "velocity": 0.3937007874015748
        },
        {
          "duration": 0.17647050000000064,
          "durationTicks": 96,
          "midi": 28,
          "name": "E1",
          "ticks": 26784,
          "time": 49.2352695,
          "velocity": 0.3937007874015748
        },
        {
          "duration": 0.17647050000000064,
          "durationTicks": 96,
          "midi": 35,
          "name": "B1",
          "ticks": 26880,
          "time": 49.41174,
          "velocity": 0.3937007874015748
        },
        {
          "duration": 0.17647050000000064,
          "durationTicks": 96,
          "midi": 36,
          "name": "C2",
          "ticks": 26880,
          "time": 49.41174,
          "velocity": 0.3937007874015748
        },
        {
          "duration": 0.17647050000000064,
          "durationTicks": 96,
          "midi": 38,
          "name": "D2",
          "ticks": 26880,
          "time": 49.41174,
          "velocity": 0.3937007874015748
        },
        {
          "duration": 0.17647050000000064,
          "durationTicks": 96,
          "midi": 28,
          "name": "E1",
          "ticks": 26976,
          "time": 49.5882105,
          "velocity": 0.3937007874015748
        },
        {
          "duration": 0.17647050000000064,
          "durationTicks": 96,
          "midi": 28,
          "name": "E1",
          "ticks": 27072,
          "time": 49.764681,
          "velocity": 0.3937007874015748
        },
        {
          "duration": 0.17647049999999354,
          "durationTicks": 96,
          "midi": 28,
          "name": "E1",
          "ticks": 27168,
          "time": 49.941151500000004,
          "velocity": 0.3937007874015748
        },
        {
          "duration": 0.17647050000000064,
          "durationTicks": 96,
          "midi": 35,
          "name": "B1",
          "ticks": 27264,
          "time": 50.117622,
          "velocity": 0.3937007874015748
        },
        {
          "duration": 0.17647050000000064,
          "durationTicks": 96,
          "midi": 36,
          "name": "C2",
          "ticks": 27264,
          "time": 50.117622,
          "velocity": 0.3937007874015748
        },
        {
          "duration": 0.17647050000000064,
          "durationTicks": 96,
          "midi": 40,
          "name": "E2",
          "ticks": 27264,
          "time": 50.117622,
          "velocity": 0.3937007874015748
        },
        {
          "duration": 0.17647050000000064,
          "durationTicks": 96,
          "midi": 28,
          "name": "E1",
          "ticks": 27360,
          "time": 50.2940925,
          "velocity": 0.3937007874015748
        },
        {
          "duration": 0.17647050000000064,
          "durationTicks": 96,
          "midi": 28,
          "name": "E1",
          "ticks": 27456,
          "time": 50.470563,
          "velocity": 0.3937007874015748
        },
        {
          "duration": 0.17647050000000064,
          "durationTicks": 96,
          "midi": 28,
          "name": "E1",
          "ticks": 27552,
          "time": 50.6470335,
          "velocity": 0.3937007874015748
        },
        {
          "duration": 0.17647050000000064,
          "durationTicks": 96,
          "midi": 35,
          "name": "B1",
          "ticks": 27648,
          "time": 50.823504,
          "velocity": 0.3937007874015748
        },
        {
          "duration": 0.17647050000000064,
          "durationTicks": 96,
          "midi": 36,
          "name": "C2",
          "ticks": 27648,
          "time": 50.823504,
          "velocity": 0.3937007874015748
        },
        {
          "duration": 0.17647050000000064,
          "durationTicks": 96,
          "midi": 38,
          "name": "D2",
          "ticks": 27648,
          "time": 50.823504,
          "velocity": 0.3937007874015748
        },
        {
          "duration": 0.17647050000000064,
          "durationTicks": 96,
          "midi": 28,
          "name": "E1",
          "ticks": 27744,
          "time": 50.9999745,
          "velocity": 0.3937007874015748
        },
        {
          "duration": 0.17647050000000064,
          "durationTicks": 96,
          "midi": 28,
          "name": "E1",
          "ticks": 27840,
          "time": 51.176445,
          "velocity": 0.3937007874015748
        },
        {
          "duration": 0.17647050000000064,
          "durationTicks": 96,
          "midi": 28,
          "name": "E1",
          "ticks": 27936,
          "time": 51.3529155,
          "velocity": 0.3937007874015748
        },
        {
          "duration": 0.17647050000000064,
          "durationTicks": 96,
          "midi": 35,
          "name": "B1",
          "ticks": 28032,
          "time": 51.529386,
          "velocity": 0.3937007874015748
        },
        {
          "duration": 0.17647050000000064,
          "durationTicks": 96,
          "midi": 36,
          "name": "C2",
          "ticks": 28032,
          "time": 51.529386,
          "velocity": 0.3937007874015748
        },
        {
          "duration": 0.17647050000000064,
          "durationTicks": 96,
          "midi": 40,
          "name": "E2",
          "ticks": 28032,
          "time": 51.529386,
          "velocity": 0.3937007874015748
        },
        {
          "duration": 0.17647050000000064,
          "durationTicks": 96,
          "midi": 28,
          "name": "E1",
          "ticks": 28128,
          "time": 51.7058565,
          "velocity": 0.3937007874015748
        },
        {
          "duration": 0.17647049999999354,
          "durationTicks": 96,
          "midi": 28,
          "name": "E1",
          "ticks": 28224,
          "time": 51.882327000000004,
          "velocity": 0.3937007874015748
        },
        {
          "duration": 0.17647050000000064,
          "durationTicks": 96,
          "midi": 28,
          "name": "E1",
          "ticks": 28320,
          "time": 52.0587975,
          "velocity": 0.3937007874015748
        },
        {
          "duration": 0.17647050000000064,
          "durationTicks": 96,
          "midi": 35,
          "name": "B1",
          "ticks": 28416,
          "time": 52.235268,
          "velocity": 0.3937007874015748
        },
        {
          "duration": 0.17647050000000064,
          "durationTicks": 96,
          "midi": 36,
          "name": "C2",
          "ticks": 28416,
          "time": 52.235268,
          "velocity": 0.3937007874015748
        },
        {
          "duration": 0.17647050000000064,
          "durationTicks": 96,
          "midi": 38,
          "name": "D2",
          "ticks": 28416,
          "time": 52.235268,
          "velocity": 0.3937007874015748
        },
        {
          "duration": 0.17647050000000064,
          "durationTicks": 96,
          "midi": 28,
          "name": "E1",
          "ticks": 28512,
          "time": 52.4117385,
          "velocity": 0.3937007874015748
        },
        {
          "duration": 0.17647050000000064,
          "durationTicks": 96,
          "midi": 28,
          "name": "E1",
          "ticks": 28608,
          "time": 52.588209,
          "velocity": 0.3937007874015748
        },
        {
          "duration": 0.17647050000000064,
          "durationTicks": 96,
          "midi": 28,
          "name": "E1",
          "ticks": 28704,
          "time": 52.7646795,
          "velocity": 0.3937007874015748
        },
        {
          "duration": 0.17647050000000064,
          "durationTicks": 96,
          "midi": 35,
          "name": "B1",
          "ticks": 28800,
          "time": 52.94115,
          "velocity": 0.3937007874015748
        },
        {
          "duration": 0.17647050000000064,
          "durationTicks": 96,
          "midi": 36,
          "name": "C2",
          "ticks": 28800,
          "time": 52.94115,
          "velocity": 0.3937007874015748
        },
        {
          "duration": 0.17647050000000064,
          "durationTicks": 96,
          "midi": 40,
          "name": "E2",
          "ticks": 28800,
          "time": 52.94115,
          "velocity": 0.3937007874015748
        },
        {
          "duration": 0.17647050000000064,
          "durationTicks": 96,
          "midi": 28,
          "name": "E1",
          "ticks": 28896,
          "time": 53.1176205,
          "velocity": 0.3937007874015748
        },
        {
          "duration": 0.17647050000000064,
          "durationTicks": 96,
          "midi": 28,
          "name": "E1",
          "ticks": 28992,
          "time": 53.294091,
          "velocity": 0.3937007874015748
        },
        {
          "duration": 0.17647050000000064,
          "durationTicks": 96,
          "midi": 28,
          "name": "E1",
          "ticks": 29088,
          "time": 53.4705615,
          "velocity": 0.3937007874015748
        },
        {
          "duration": 0.17647050000000064,
          "durationTicks": 96,
          "midi": 35,
          "name": "B1",
          "ticks": 29184,
          "time": 53.647032,
          "velocity": 0.3937007874015748
        },
        {
          "duration": 0.17647050000000064,
          "durationTicks": 96,
          "midi": 36,
          "name": "C2",
          "ticks": 29184,
          "time": 53.647032,
          "velocity": 0.3937007874015748
        },
        {
          "duration": 0.17647050000000064,
          "durationTicks": 96,
          "midi": 38,
          "name": "D2",
          "ticks": 29184,
          "time": 53.647032,
          "velocity": 0.3937007874015748
        },
        {
          "duration": 0.17647050000000064,
          "durationTicks": 96,
          "midi": 28,
          "name": "E1",
          "ticks": 29280,
          "time": 53.823502500000004,
          "velocity": 0.3937007874015748
        },
        {
          "duration": 0.17647049999999354,
          "durationTicks": 96,
          "midi": 28,
          "name": "E1",
          "ticks": 29376,
          "time": 53.999973000000004,
          "velocity": 0.3937007874015748
        },
        {
          "duration": 0.17647050000000064,
          "durationTicks": 96,
          "midi": 28,
          "name": "E1",
          "ticks": 29472,
          "time": 54.1764435,
          "velocity": 0.3937007874015748
        },
        {
          "duration": 0.17647050000000064,
          "durationTicks": 96,
          "midi": 35,
          "name": "B1",
          "ticks": 29568,
          "time": 54.352914,
          "velocity": 0.3937007874015748
        },
        {
          "duration": 0.17647050000000064,
          "durationTicks": 96,
          "midi": 36,
          "name": "C2",
          "ticks": 29568,
          "time": 54.352914,
          "velocity": 0.3937007874015748
        },
        {
          "duration": 0.17647050000000064,
          "durationTicks": 96,
          "midi": 40,
          "name": "E2",
          "ticks": 29568,
          "time": 54.352914,
          "velocity": 0.3937007874015748
        },
        {
          "duration": 0.17647050000000064,
          "durationTicks": 96,
          "midi": 28,
          "name": "E1",
          "ticks": 29664,
          "time": 54.5293845,
          "velocity": 0.3937007874015748
        },
        {
          "duration": 0.17647050000000064,
          "durationTicks": 96,
          "midi": 28,
          "name": "E1",
          "ticks": 29760,
          "time": 54.705855,
          "velocity": 0.3937007874015748
        },
        {
          "duration": 0.17647050000000064,
          "durationTicks": 96,
          "midi": 28,
          "name": "E1",
          "ticks": 29856,
          "time": 54.8823255,
          "velocity": 0.3937007874015748
        },
        {
          "duration": 0.17647050000000064,
          "durationTicks": 96,
          "midi": 35,
          "name": "B1",
          "ticks": 29952,
          "time": 55.058796,
          "velocity": 0.3937007874015748
        },
        {
          "duration": 0.17647050000000064,
          "durationTicks": 96,
          "midi": 36,
          "name": "C2",
          "ticks": 29952,
          "time": 55.058796,
          "velocity": 0.3937007874015748
        },
        {
          "duration": 0.17647050000000064,
          "durationTicks": 96,
          "midi": 38,
          "name": "D2",
          "ticks": 29952,
          "time": 55.058796,
          "velocity": 0.3937007874015748
        },
        {
          "duration": 0.17647050000000064,
          "durationTicks": 96,
          "midi": 28,
          "name": "E1",
          "ticks": 30048,
          "time": 55.2352665,
          "velocity": 0.3937007874015748
        },
        {
          "duration": 0.17647050000000064,
          "durationTicks": 96,
          "midi": 28,
          "name": "E1",
          "ticks": 30144,
          "time": 55.411737,
          "velocity": 0.3937007874015748
        },
        {
          "duration": 0.17647050000000064,
          "durationTicks": 96,
          "midi": 28,
          "name": "E1",
          "ticks": 30240,
          "time": 55.5882075,
          "velocity": 0.3937007874015748
        },
        {
          "duration": 0.17647050000000064,
          "durationTicks": 96,
          "midi": 35,
          "name": "B1",
          "ticks": 30336,
          "time": 55.764678,
          "velocity": 0.3937007874015748
        },
        {
          "duration": 0.17647050000000064,
          "durationTicks": 96,
          "midi": 36,
          "name": "C2",
          "ticks": 30336,
          "time": 55.764678,
          "velocity": 0.3937007874015748
        },
        {
          "duration": 0.17647050000000064,
          "durationTicks": 96,
          "midi": 40,
          "name": "E2",
          "ticks": 30336,
          "time": 55.764678,
          "velocity": 0.3937007874015748
        },
        {
          "duration": 0.17647049999999354,
          "durationTicks": 96,
          "midi": 28,
          "name": "E1",
          "ticks": 30432,
          "time": 55.941148500000004,
          "velocity": 0.3937007874015748
        },
        {
          "duration": 0.17647050000000064,
          "durationTicks": 96,
          "midi": 28,
          "name": "E1",
          "ticks": 30528,
          "time": 56.117619,
          "velocity": 0.3937007874015748
        },
        {
          "duration": 0.17647050000000064,
          "durationTicks": 96,
          "midi": 28,
          "name": "E1",
          "ticks": 30624,
          "time": 56.2940895,
          "velocity": 0.3937007874015748
        },
        {
          "duration": 0.17647050000000064,
          "durationTicks": 96,
          "midi": 35,
          "name": "B1",
          "ticks": 30720,
          "time": 56.47056,
          "velocity": 0.3937007874015748
        },
        {
          "duration": 0.17647050000000064,
          "durationTicks": 96,
          "midi": 36,
          "name": "C2",
          "ticks": 30720,
          "time": 56.47056,
          "velocity": 0.3937007874015748
        },
        {
          "duration": 0.17647050000000064,
          "durationTicks": 96,
          "midi": 38,
          "name": "D2",
          "ticks": 30720,
          "time": 56.47056,
          "velocity": 0.3937007874015748
        },
        {
          "duration": 0.17647050000000064,
          "durationTicks": 96,
          "midi": 28,
          "name": "E1",
          "ticks": 30816,
          "time": 56.6470305,
          "velocity": 0.3937007874015748
        },
        {
          "duration": 0.17647050000000064,
          "durationTicks": 96,
          "midi": 28,
          "name": "E1",
          "ticks": 30912,
          "time": 56.823501,
          "velocity": 0.3937007874015748
        },
        {
          "duration": 0.17647050000000064,
          "durationTicks": 96,
          "midi": 28,
          "name": "E1",
          "ticks": 31008,
          "time": 56.9999715,
          "velocity": 0.3937007874015748
        },
        {
          "duration": 0.17647050000000064,
          "durationTicks": 96,
          "midi": 35,
          "name": "B1",
          "ticks": 31104,
          "time": 57.176442,
          "velocity": 0.3937007874015748
        },
        {
          "duration": 0.17647050000000064,
          "durationTicks": 96,
          "midi": 36,
          "name": "C2",
          "ticks": 31104,
          "time": 57.176442,
          "velocity": 0.3937007874015748
        },
        {
          "duration": 0.17647050000000064,
          "durationTicks": 96,
          "midi": 40,
          "name": "E2",
          "ticks": 31104,
          "time": 57.176442,
          "velocity": 0.3937007874015748
        },
        {
          "duration": 0.17647050000000064,
          "durationTicks": 96,
          "midi": 28,
          "name": "E1",
          "ticks": 31200,
          "time": 57.3529125,
          "velocity": 0.3937007874015748
        },
        {
          "duration": 0.17647050000000064,
          "durationTicks": 96,
          "midi": 28,
          "name": "E1",
          "ticks": 31296,
          "time": 57.529383,
          "velocity": 0.3937007874015748
        },
        {
          "duration": 0.17647050000000064,
          "durationTicks": 96,
          "midi": 28,
          "name": "E1",
          "ticks": 31392,
          "time": 57.7058535,
          "velocity": 0.3937007874015748
        },
        {
          "duration": 0.17647049999999354,
          "durationTicks": 96,
          "midi": 35,
          "name": "B1",
          "ticks": 31488,
          "time": 57.882324000000004,
          "velocity": 0.3937007874015748
        },
        {
          "duration": 0.17647049999999354,
          "durationTicks": 96,
          "midi": 36,
          "name": "C2",
          "ticks": 31488,
          "time": 57.882324000000004,
          "velocity": 0.3937007874015748
        },
        {
          "duration": 0.17647049999999354,
          "durationTicks": 96,
          "midi": 38,
          "name": "D2",
          "ticks": 31488,
          "time": 57.882324000000004,
          "velocity": 0.3937007874015748
        },
        {
          "duration": 0.17647050000000064,
          "durationTicks": 96,
          "midi": 28,
          "name": "E1",
          "ticks": 31584,
          "time": 58.0587945,
          "velocity": 0.3937007874015748
        },
        {
          "duration": 0.17647050000000064,
          "durationTicks": 96,
          "midi": 28,
          "name": "E1",
          "ticks": 31680,
          "time": 58.235265,
          "velocity": 0.3937007874015748
        },
        {
          "duration": 0.17647050000000064,
          "durationTicks": 96,
          "midi": 28,
          "name": "E1",
          "ticks": 31776,
          "time": 58.4117355,
          "velocity": 0.3937007874015748
        },
        {
          "duration": 0.17647050000000064,
          "durationTicks": 96,
          "midi": 35,
          "name": "B1",
          "ticks": 31872,
          "time": 58.588206,
          "velocity": 0.3937007874015748
        },
        {
          "duration": 0.17647050000000064,
          "durationTicks": 96,
          "midi": 36,
          "name": "C2",
          "ticks": 31872,
          "time": 58.588206,
          "velocity": 0.3937007874015748
        },
        {
          "duration": 0.17647050000000064,
          "durationTicks": 96,
          "midi": 40,
          "name": "E2",
          "ticks": 31872,
          "time": 58.588206,
          "velocity": 0.3937007874015748
        },
        {
          "duration": 0.17647050000000064,
          "durationTicks": 96,
          "midi": 28,
          "name": "E1",
          "ticks": 31968,
          "time": 58.7646765,
          "velocity": 0.3937007874015748
        },
        {
          "duration": 0.17647050000000064,
          "durationTicks": 96,
          "midi": 28,
          "name": "E1",
          "ticks": 32064,
          "time": 58.941147,
          "velocity": 0.3937007874015748
        },
        {
          "duration": 0.17647050000000064,
          "durationTicks": 96,
          "midi": 28,
          "name": "E1",
          "ticks": 32160,
          "time": 59.1176175,
          "velocity": 0.3937007874015748
        },
        {
          "duration": 0.17647050000000064,
          "durationTicks": 96,
          "midi": 35,
          "name": "B1",
          "ticks": 32256,
          "time": 59.294088,
          "velocity": 0.3937007874015748
        },
        {
          "duration": 0.17647050000000064,
          "durationTicks": 96,
          "midi": 36,
          "name": "C2",
          "ticks": 32256,
          "time": 59.294088,
          "velocity": 0.3937007874015748
        },
        {
          "duration": 0.17647050000000064,
          "durationTicks": 96,
          "midi": 38,
          "name": "D2",
          "ticks": 32256,
          "time": 59.294088,
          "velocity": 0.3937007874015748
        },
        {
          "duration": 0.17647050000000064,
          "durationTicks": 96,
          "midi": 28,
          "name": "E1",
          "ticks": 32352,
          "time": 59.4705585,
          "velocity": 0.3937007874015748
        },
        {
          "duration": 0.17647050000000064,
          "durationTicks": 96,
          "midi": 28,
          "name": "E1",
          "ticks": 32448,
          "time": 59.647029,
          "velocity": 0.3937007874015748
        },
        {
          "duration": 0.17647049999999354,
          "durationTicks": 96,
          "midi": 28,
          "name": "E1",
          "ticks": 32544,
          "time": 59.823499500000004,
          "velocity": 0.3937007874015748
        },
        {
          "duration": 0.17647050000000064,
          "durationTicks": 96,
          "midi": 35,
          "name": "B1",
          "ticks": 32640,
          "time": 59.99997,
          "velocity": 0.3937007874015748
        },
        {
          "duration": 0.17647050000000064,
          "durationTicks": 96,
          "midi": 36,
          "name": "C2",
          "ticks": 32640,
          "time": 59.99997,
          "velocity": 0.3937007874015748
        },
        {
          "duration": 0.17647050000000064,
          "durationTicks": 96,
          "midi": 40,
          "name": "E2",
          "ticks": 32640,
          "time": 59.99997,
          "velocity": 0.3937007874015748
        },
        {
          "duration": 0.17647050000000064,
          "durationTicks": 96,
          "midi": 28,
          "name": "E1",
          "ticks": 32736,
          "time": 60.1764405,
          "velocity": 0.3937007874015748
        },
        {
          "duration": 0.17647050000000064,
          "durationTicks": 96,
          "midi": 28,
          "name": "E1",
          "ticks": 32832,
          "time": 60.352911,
          "velocity": 0.3937007874015748
        },
        {
          "duration": 0.17647050000000064,
          "durationTicks": 96,
          "midi": 28,
          "name": "E1",
          "ticks": 32928,
          "time": 60.5293815,
          "velocity": 0.3937007874015748
        },
        {
          "duration": 0.17647050000000064,
          "durationTicks": 96,
          "midi": 35,
          "name": "B1",
          "ticks": 33024,
          "time": 60.705852,
          "velocity": 0.3937007874015748
        },
        {
          "duration": 0.17647050000000064,
          "durationTicks": 96,
          "midi": 36,
          "name": "C2",
          "ticks": 33024,
          "time": 60.705852,
          "velocity": 0.3937007874015748
        },
        {
          "duration": 0.17647050000000064,
          "durationTicks": 96,
          "midi": 38,
          "name": "D2",
          "ticks": 33024,
          "time": 60.705852,
          "velocity": 0.3937007874015748
        },
        {
          "duration": 0.17647050000000064,
          "durationTicks": 96,
          "midi": 28,
          "name": "E1",
          "ticks": 33120,
          "time": 60.8823225,
          "velocity": 0.3937007874015748
        },
        {
          "duration": 0.17647050000000064,
          "durationTicks": 96,
          "midi": 28,
          "name": "E1",
          "ticks": 33216,
          "time": 61.058793,
          "velocity": 0.3937007874015748
        },
        {
          "duration": 0.17647050000000064,
          "durationTicks": 96,
          "midi": 28,
          "name": "E1",
          "ticks": 33312,
          "time": 61.2352635,
          "velocity": 0.3937007874015748
        },
        {
          "duration": 0.17647050000000064,
          "durationTicks": 96,
          "midi": 35,
          "name": "B1",
          "ticks": 33408,
          "time": 61.411734,
          "velocity": 0.3937007874015748
        },
        {
          "duration": 0.17647050000000064,
          "durationTicks": 96,
          "midi": 36,
          "name": "C2",
          "ticks": 33408,
          "time": 61.411734,
          "velocity": 0.3937007874015748
        },
        {
          "duration": 0.17647050000000064,
          "durationTicks": 96,
          "midi": 40,
          "name": "E2",
          "ticks": 33408,
          "time": 61.411734,
          "velocity": 0.3937007874015748
        },
        {
          "duration": 0.17647050000000064,
          "durationTicks": 96,
          "midi": 28,
          "name": "E1",
          "ticks": 33504,
          "time": 61.5882045,
          "velocity": 0.3937007874015748
        },
        {
          "duration": 0.17647049999999354,
          "durationTicks": 96,
          "midi": 28,
          "name": "E1",
          "ticks": 33600,
          "time": 61.764675000000004,
          "velocity": 0.3937007874015748
        },
        {
          "duration": 0.17647050000000064,
          "durationTicks": 96,
          "midi": 28,
          "name": "E1",
          "ticks": 33696,
          "time": 61.9411455,
          "velocity": 0.3937007874015748
        },
        {
          "duration": 0.17647050000000064,
          "durationTicks": 96,
          "midi": 35,
          "name": "B1",
          "ticks": 33792,
          "time": 62.117616,
          "velocity": 0.3937007874015748
        },
        {
          "duration": 0.17647050000000064,
          "durationTicks": 96,
          "midi": 36,
          "name": "C2",
          "ticks": 33792,
          "time": 62.117616,
          "velocity": 0.3937007874015748
        },
        {
          "duration": 0.17647050000000064,
          "durationTicks": 96,
          "midi": 38,
          "name": "D2",
          "ticks": 33792,
          "time": 62.117616,
          "velocity": 0.3937007874015748
        },
        {
          "duration": 0.17647050000000064,
          "durationTicks": 96,
          "midi": 28,
          "name": "E1",
          "ticks": 33888,
          "time": 62.2940865,
          "velocity": 0.3937007874015748
        },
        {
          "duration": 0.17647050000000064,
          "durationTicks": 96,
          "midi": 28,
          "name": "E1",
          "ticks": 33984,
          "time": 62.470557,
          "velocity": 0.3937007874015748
        },
        {
          "duration": 0.17647050000000064,
          "durationTicks": 96,
          "midi": 28,
          "name": "E1",
          "ticks": 34080,
          "time": 62.6470275,
          "velocity": 0.3937007874015748
        },
        {
          "duration": 0.17647050000000064,
          "durationTicks": 96,
          "midi": 35,
          "name": "B1",
          "ticks": 34176,
          "time": 62.823498,
          "velocity": 0.3937007874015748
        },
        {
          "duration": 0.17647050000000064,
          "durationTicks": 96,
          "midi": 36,
          "name": "C2",
          "ticks": 34176,
          "time": 62.823498,
          "velocity": 0.3937007874015748
        },
        {
          "duration": 0.17647050000000064,
          "durationTicks": 96,
          "midi": 40,
          "name": "E2",
          "ticks": 34176,
          "time": 62.823498,
          "velocity": 0.3937007874015748
        },
        {
          "duration": 0.17647050000000064,
          "durationTicks": 96,
          "midi": 28,
          "name": "E1",
          "ticks": 34272,
          "time": 62.9999685,
          "velocity": 0.3937007874015748
        },
        {
          "duration": 0.17647050000000064,
          "durationTicks": 96,
          "midi": 28,
          "name": "E1",
          "ticks": 34368,
          "time": 63.176439,
          "velocity": 0.3937007874015748
        },
        {
          "duration": 0.17647050000000064,
          "durationTicks": 96,
          "midi": 28,
          "name": "E1",
          "ticks": 34464,
          "time": 63.3529095,
          "velocity": 0.3937007874015748
        },
        {
          "duration": 0.17647050000000064,
          "durationTicks": 96,
          "midi": 35,
          "name": "B1",
          "ticks": 34560,
          "time": 63.52938,
          "velocity": 0.3937007874015748
        },
        {
          "duration": 0.17647050000000064,
          "durationTicks": 96,
          "midi": 36,
          "name": "C2",
          "ticks": 34560,
          "time": 63.52938,
          "velocity": 0.3937007874015748
        },
        {
          "duration": 0.17647050000000064,
          "durationTicks": 96,
          "midi": 38,
          "name": "D2",
          "ticks": 34560,
          "time": 63.52938,
          "velocity": 0.3937007874015748
        },
        {
          "duration": 0.17647049999999354,
          "durationTicks": 96,
          "midi": 28,
          "name": "E1",
          "ticks": 34656,
          "time": 63.705850500000004,
          "velocity": 0.3937007874015748
        },
        {
          "duration": 0.17647050000000064,
          "durationTicks": 96,
          "midi": 28,
          "name": "E1",
          "ticks": 34752,
          "time": 63.882321,
          "velocity": 0.3937007874015748
        },
        {
          "duration": 0.17647050000000775,
          "durationTicks": 96,
          "midi": 28,
          "name": "E1",
          "ticks": 34848,
          "time": 64.0587915,
          "velocity": 0.3937007874015748
        },
        {
          "duration": 0.17647049999999354,
          "durationTicks": 96,
          "midi": 35,
          "name": "B1",
          "ticks": 34944,
          "time": 64.235262,
          "velocity": 0.3937007874015748
        },
        {
          "duration": 0.17647049999999354,
          "durationTicks": 96,
          "midi": 36,
          "name": "C2",
          "ticks": 34944,
          "time": 64.235262,
          "velocity": 0.3937007874015748
        },
        {
          "duration": 0.17647049999999354,
          "durationTicks": 96,
          "midi": 40,
          "name": "E2",
          "ticks": 34944,
          "time": 64.235262,
          "velocity": 0.3937007874015748
        },
        {
          "duration": 0.17647050000000775,
          "durationTicks": 96,
          "midi": 28,
          "name": "E1",
          "ticks": 35040,
          "time": 64.4117325,
          "velocity": 0.3937007874015748
        },
        {
          "duration": 0.17647049999999354,
          "durationTicks": 96,
          "midi": 28,
          "name": "E1",
          "ticks": 35136,
          "time": 64.58820300000001,
          "velocity": 0.3937007874015748
        },
        {
          "duration": 0.17647049999999354,
          "durationTicks": 96,
          "midi": 28,
          "name": "E1",
          "ticks": 35232,
          "time": 64.7646735,
          "velocity": 0.3937007874015748
        },
        {
          "duration": 0.17647050000000775,
          "durationTicks": 96,
          "midi": 35,
          "name": "B1",
          "ticks": 35328,
          "time": 64.941144,
          "velocity": 0.3937007874015748
        },
        {
          "duration": 0.17647050000000775,
          "durationTicks": 96,
          "midi": 36,
          "name": "C2",
          "ticks": 35328,
          "time": 64.941144,
          "velocity": 0.3937007874015748
        },
        {
          "duration": 0.17647050000000775,
          "durationTicks": 96,
          "midi": 38,
          "name": "D2",
          "ticks": 35328,
          "time": 64.941144,
          "velocity": 0.3937007874015748
        },
        {
          "duration": 0.17647049999999354,
          "durationTicks": 96,
          "midi": 28,
          "name": "E1",
          "ticks": 35424,
          "time": 65.1176145,
          "velocity": 0.3937007874015748
        },
        {
          "duration": 0.17647050000000775,
          "durationTicks": 96,
          "midi": 28,
          "name": "E1",
          "ticks": 35520,
          "time": 65.294085,
          "velocity": 0.3937007874015748
        },
        {
          "duration": 0.17647049999999354,
          "durationTicks": 96,
          "midi": 28,
          "name": "E1",
          "ticks": 35616,
          "time": 65.4705555,
          "velocity": 0.3937007874015748
        },
        {
          "duration": 0.17647050000000775,
          "durationTicks": 96,
          "midi": 35,
          "name": "B1",
          "ticks": 35712,
          "time": 65.647026,
          "velocity": 0.3937007874015748
        },
        {
          "duration": 0.17647050000000775,
          "durationTicks": 96,
          "midi": 36,
          "name": "C2",
          "ticks": 35712,
          "time": 65.647026,
          "velocity": 0.3937007874015748
        },
        {
          "duration": 0.17647050000000775,
          "durationTicks": 96,
          "midi": 40,
          "name": "E2",
          "ticks": 35712,
          "time": 65.647026,
          "velocity": 0.3937007874015748
        },
        {
          "duration": 0.17647049999999354,
          "durationTicks": 96,
          "midi": 28,
          "name": "E1",
          "ticks": 35808,
          "time": 65.8234965,
          "velocity": 0.3937007874015748
        },
        {
          "duration": 0.17647050000000775,
          "durationTicks": 96,
          "midi": 28,
          "name": "E1",
          "ticks": 35904,
          "time": 65.999967,
          "velocity": 0.3937007874015748
        },
        {
          "duration": 0.17647049999999354,
          "durationTicks": 96,
          "midi": 28,
          "name": "E1",
          "ticks": 36000,
          "time": 66.1764375,
          "velocity": 0.3937007874015748
        },
        {
          "duration": 0.17647050000000775,
          "durationTicks": 96,
          "midi": 35,
          "name": "B1",
          "ticks": 36096,
          "time": 66.352908,
          "velocity": 0.3937007874015748
        },
        {
          "duration": 0.17647050000000775,
          "durationTicks": 96,
          "midi": 36,
          "name": "C2",
          "ticks": 36096,
          "time": 66.352908,
          "velocity": 0.3937007874015748
        },
        {
          "duration": 0.17647050000000775,
          "durationTicks": 96,
          "midi": 38,
          "name": "D2",
          "ticks": 36096,
          "time": 66.352908,
          "velocity": 0.3937007874015748
        },
        {
          "duration": 0.17647049999999354,
          "durationTicks": 96,
          "midi": 28,
          "name": "E1",
          "ticks": 36192,
          "time": 66.5293785,
          "velocity": 0.3937007874015748
        },
        {
          "duration": 0.17647049999999354,
          "durationTicks": 96,
          "midi": 28,
          "name": "E1",
          "ticks": 36288,
          "time": 66.705849,
          "velocity": 0.3937007874015748
        },
        {
          "duration": 0.17647050000000775,
          "durationTicks": 96,
          "midi": 28,
          "name": "E1",
          "ticks": 36384,
          "time": 66.8823195,
          "velocity": 0.3937007874015748
        },
        {
          "duration": 0.17647049999999354,
          "durationTicks": 96,
          "midi": 35,
          "name": "B1",
          "ticks": 36480,
          "time": 67.05879,
          "velocity": 0.3937007874015748
        },
        {
          "duration": 0.17647049999999354,
          "durationTicks": 96,
          "midi": 36,
          "name": "C2",
          "ticks": 36480,
          "time": 67.05879,
          "velocity": 0.3937007874015748
        },
        {
          "duration": 0.17647049999999354,
          "durationTicks": 96,
          "midi": 40,
          "name": "E2",
          "ticks": 36480,
          "time": 67.05879,
          "velocity": 0.3937007874015748
        },
        {
          "duration": 0.17647050000000775,
          "durationTicks": 96,
          "midi": 28,
          "name": "E1",
          "ticks": 36576,
          "time": 67.2352605,
          "velocity": 0.3937007874015748
        },
        {
          "duration": 0.17647049999999354,
          "durationTicks": 96,
          "midi": 28,
          "name": "E1",
          "ticks": 36672,
          "time": 67.411731,
          "velocity": 0.3937007874015748
        },
        {
          "duration": 0.17647050000000775,
          "durationTicks": 96,
          "midi": 28,
          "name": "E1",
          "ticks": 36768,
          "time": 67.5882015,
          "velocity": 0.3937007874015748
        },
        {
          "duration": 0.17647049999999354,
          "durationTicks": 96,
          "midi": 35,
          "name": "B1",
          "ticks": 36864,
          "time": 67.764672,
          "velocity": 0.3937007874015748
        },
        {
          "duration": 0.17647049999999354,
          "durationTicks": 96,
          "midi": 36,
          "name": "C2",
          "ticks": 36864,
          "time": 67.764672,
          "velocity": 0.3937007874015748
        },
        {
          "duration": 0.17647049999999354,
          "durationTicks": 96,
          "midi": 38,
          "name": "D2",
          "ticks": 36864,
          "time": 67.764672,
          "velocity": 0.3937007874015748
        },
        {
          "duration": 0.17647050000000775,
          "durationTicks": 96,
          "midi": 28,
          "name": "E1",
          "ticks": 36960,
          "time": 67.9411425,
          "velocity": 0.3937007874015748
        },
        {
          "duration": 0.17647049999999354,
          "durationTicks": 96,
          "midi": 28,
          "name": "E1",
          "ticks": 37056,
          "time": 68.117613,
          "velocity": 0.3937007874015748
        },
        {
          "duration": 0.17647050000000775,
          "durationTicks": 96,
          "midi": 28,
          "name": "E1",
          "ticks": 37152,
          "time": 68.2940835,
          "velocity": 0.3937007874015748
        },
        {
          "duration": 0.17647049999999354,
          "durationTicks": 96,
          "midi": 35,
          "name": "B1",
          "ticks": 37248,
          "time": 68.470554,
          "velocity": 0.3937007874015748
        },
        {
          "duration": 0.17647049999999354,
          "durationTicks": 96,
          "midi": 36,
          "name": "C2",
          "ticks": 37248,
          "time": 68.470554,
          "velocity": 0.3937007874015748
        },
        {
          "duration": 0.17647049999999354,
          "durationTicks": 96,
          "midi": 40,
          "name": "E2",
          "ticks": 37248,
          "time": 68.470554,
          "velocity": 0.3937007874015748
        },
        {
          "duration": 0.17647049999999354,
          "durationTicks": 96,
          "midi": 28,
          "name": "E1",
          "ticks": 37344,
          "time": 68.6470245,
          "velocity": 0.3937007874015748
        },
        {
          "duration": 0.17647050000000775,
          "durationTicks": 96,
          "midi": 28,
          "name": "E1",
          "ticks": 37440,
          "time": 68.823495,
          "velocity": 0.3937007874015748
        },
        {
          "duration": 0.17647049999999354,
          "durationTicks": 96,
          "midi": 28,
          "name": "E1",
          "ticks": 37536,
          "time": 68.9999655,
          "velocity": 0.3937007874015748
        },
        {
          "duration": 0.17647050000000775,
          "durationTicks": 96,
          "midi": 35,
          "name": "B1",
          "ticks": 37632,
          "time": 69.176436,
          "velocity": 0.3937007874015748
        },
        {
          "duration": 0.17647050000000775,
          "durationTicks": 96,
          "midi": 36,
          "name": "C2",
          "ticks": 37632,
          "time": 69.176436,
          "velocity": 0.3937007874015748
        },
        {
          "duration": 0.17647050000000775,
          "durationTicks": 96,
          "midi": 38,
          "name": "D2",
          "ticks": 37632,
          "time": 69.176436,
          "velocity": 0.3937007874015748
        },
        {
          "duration": 0.17647049999999354,
          "durationTicks": 96,
          "midi": 28,
          "name": "E1",
          "ticks": 37728,
          "time": 69.3529065,
          "velocity": 0.3937007874015748
        },
        {
          "duration": 0.17647050000000775,
          "durationTicks": 96,
          "midi": 28,
          "name": "E1",
          "ticks": 37824,
          "time": 69.529377,
          "velocity": 0.3937007874015748
        },
        {
          "duration": 0.17647049999999354,
          "durationTicks": 96,
          "midi": 28,
          "name": "E1",
          "ticks": 37920,
          "time": 69.7058475,
          "velocity": 0.3937007874015748
        },
        {
          "duration": 0.17647050000000775,
          "durationTicks": 96,
          "midi": 35,
          "name": "B1",
          "ticks": 38016,
          "time": 69.882318,
          "velocity": 0.3937007874015748
        },
        {
          "duration": 0.17647050000000775,
          "durationTicks": 96,
          "midi": 36,
          "name": "C2",
          "ticks": 38016,
          "time": 69.882318,
          "velocity": 0.3937007874015748
        },
        {
          "duration": 0.17647050000000775,
          "durationTicks": 96,
          "midi": 40,
          "name": "E2",
          "ticks": 38016,
          "time": 69.882318,
          "velocity": 0.3937007874015748
        },
        {
          "duration": 0.17647049999999354,
          "durationTicks": 96,
          "midi": 28,
          "name": "E1",
          "ticks": 38112,
          "time": 70.0587885,
          "velocity": 0.3937007874015748
        },
        {
          "duration": 0.17647050000000775,
          "durationTicks": 96,
          "midi": 28,
          "name": "E1",
          "ticks": 38208,
          "time": 70.235259,
          "velocity": 0.3937007874015748
        },
        {
          "duration": 0.17647049999999354,
          "durationTicks": 96,
          "midi": 28,
          "name": "E1",
          "ticks": 38304,
          "time": 70.4117295,
          "velocity": 0.3937007874015748
        },
        {
          "duration": 0.17647049999999354,
          "durationTicks": 96,
          "midi": 35,
          "name": "B1",
          "ticks": 38400,
          "time": 70.5882,
          "velocity": 0.3937007874015748
        },
        {
          "duration": 0.17647049999999354,
          "durationTicks": 96,
          "midi": 36,
          "name": "C2",
          "ticks": 38400,
          "time": 70.5882,
          "velocity": 0.3937007874015748
        },
        {
          "duration": 0.17647049999999354,
          "durationTicks": 96,
          "midi": 38,
          "name": "D2",
          "ticks": 38400,
          "time": 70.5882,
          "velocity": 0.3937007874015748
        },
        {
          "duration": 0.17647050000000775,
          "durationTicks": 96,
          "midi": 28,
          "name": "E1",
          "ticks": 38496,
          "time": 70.7646705,
          "velocity": 0.3937007874015748
        },
        {
          "duration": 0.17647049999999354,
          "durationTicks": 96,
          "midi": 28,
          "name": "E1",
          "ticks": 38592,
          "time": 70.941141,
          "velocity": 0.3937007874015748
        },
        {
          "duration": 0.17647050000000775,
          "durationTicks": 96,
          "midi": 28,
          "name": "E1",
          "ticks": 38688,
          "time": 71.1176115,
          "velocity": 0.3937007874015748
        },
        {
          "duration": 0.17647049999999354,
          "durationTicks": 96,
          "midi": 35,
          "name": "B1",
          "ticks": 38784,
          "time": 71.294082,
          "velocity": 0.3937007874015748
        },
        {
          "duration": 0.17647049999999354,
          "durationTicks": 96,
          "midi": 36,
          "name": "C2",
          "ticks": 38784,
          "time": 71.294082,
          "velocity": 0.3937007874015748
        },
        {
          "duration": 0.17647049999999354,
          "durationTicks": 96,
          "midi": 40,
          "name": "E2",
          "ticks": 38784,
          "time": 71.294082,
          "velocity": 0.3937007874015748
        },
        {
          "duration": 0.17647050000000775,
          "durationTicks": 96,
          "midi": 28,
          "name": "E1",
          "ticks": 38880,
          "time": 71.4705525,
          "velocity": 0.3937007874015748
        },
        {
          "duration": 0.17647049999999354,
          "durationTicks": 96,
          "midi": 28,
          "name": "E1",
          "ticks": 38976,
          "time": 71.647023,
          "velocity": 0.3937007874015748
        },
        {
          "duration": 0.17647050000000775,
          "durationTicks": 96,
          "midi": 28,
          "name": "E1",
          "ticks": 39072,
          "time": 71.8234935,
          "velocity": 0.3937007874015748
        },
        {
          "duration": 0.17647049999999354,
          "durationTicks": 96,
          "midi": 35,
          "name": "B1",
          "ticks": 39168,
          "time": 71.999964,
          "velocity": 0.3937007874015748
        },
        {
          "duration": 0.17647049999999354,
          "durationTicks": 96,
          "midi": 36,
          "name": "C2",
          "ticks": 39168,
          "time": 71.999964,
          "velocity": 0.3937007874015748
        },
        {
          "duration": 0.17647049999999354,
          "durationTicks": 96,
          "midi": 38,
          "name": "D2",
          "ticks": 39168,
          "time": 71.999964,
          "velocity": 0.3937007874015748
        },
        {
          "duration": 0.17647050000000775,
          "durationTicks": 96,
          "midi": 28,
          "name": "E1",
          "ticks": 39264,
          "time": 72.1764345,
          "velocity": 0.3937007874015748
        },
        {
          "duration": 0.17647049999999354,
          "durationTicks": 96,
          "midi": 28,
          "name": "E1",
          "ticks": 39360,
          "time": 72.352905,
          "velocity": 0.3937007874015748
        },
        {
          "duration": 0.17647049999999354,
          "durationTicks": 96,
          "midi": 28,
          "name": "E1",
          "ticks": 39456,
          "time": 72.5293755,
          "velocity": 0.3937007874015748
        },
        {
          "duration": 0.17647050000000775,
          "durationTicks": 96,
          "midi": 35,
          "name": "B1",
          "ticks": 39552,
          "time": 72.705846,
          "velocity": 0.3937007874015748
        },
        {
          "duration": 0.17647050000000775,
          "durationTicks": 96,
          "midi": 36,
          "name": "C2",
          "ticks": 39552,
          "time": 72.705846,
          "velocity": 0.3937007874015748
        },
        {
          "duration": 0.17647050000000775,
          "durationTicks": 96,
          "midi": 40,
          "name": "E2",
          "ticks": 39552,
          "time": 72.705846,
          "velocity": 0.3937007874015748
        },
        {
          "duration": 0.17647049999999354,
          "durationTicks": 96,
          "midi": 28,
          "name": "E1",
          "ticks": 39648,
          "time": 72.8823165,
          "velocity": 0.3937007874015748
        },
        {
          "duration": 0.17647050000000775,
          "durationTicks": 96,
          "midi": 28,
          "name": "E1",
          "ticks": 39744,
          "time": 73.058787,
          "velocity": 0.3937007874015748
        },
        {
          "duration": 0.17647049999999354,
          "durationTicks": 96,
          "midi": 28,
          "name": "E1",
          "ticks": 39840,
          "time": 73.2352575,
          "velocity": 0.3937007874015748
        },
        {
          "duration": 0.17647050000000775,
          "durationTicks": 96,
          "midi": 35,
          "name": "B1",
          "ticks": 39936,
          "time": 73.411728,
          "velocity": 0.3937007874015748
        },
        {
          "duration": 0.17647050000000775,
          "durationTicks": 96,
          "midi": 36,
          "name": "C2",
          "ticks": 39936,
          "time": 73.411728,
          "velocity": 0.3937007874015748
        },
        {
          "duration": 0.17647050000000775,
          "durationTicks": 96,
          "midi": 38,
          "name": "D2",
          "ticks": 39936,
          "time": 73.411728,
          "velocity": 0.3937007874015748
        },
        {
          "duration": 0.17647049999999354,
          "durationTicks": 96,
          "midi": 28,
          "name": "E1",
          "ticks": 40032,
          "time": 73.5881985,
          "velocity": 0.3937007874015748
        },
        {
          "duration": 0.17647050000000775,
          "durationTicks": 96,
          "midi": 28,
          "name": "E1",
          "ticks": 40128,
          "time": 73.764669,
          "velocity": 0.3937007874015748
        },
        {
          "duration": 0.17647049999999354,
          "durationTicks": 96,
          "midi": 28,
          "name": "E1",
          "ticks": 40224,
          "time": 73.9411395,
          "velocity": 0.3937007874015748
        },
        {
          "duration": 0.17647050000000775,
          "durationTicks": 96,
          "midi": 35,
          "name": "B1",
          "ticks": 40320,
          "time": 74.11761,
          "velocity": 0.3937007874015748
        },
        {
          "duration": 0.17647050000000775,
          "durationTicks": 96,
          "midi": 36,
          "name": "C2",
          "ticks": 40320,
          "time": 74.11761,
          "velocity": 0.3937007874015748
        },
        {
          "duration": 0.17647050000000775,
          "durationTicks": 96,
          "midi": 40,
          "name": "E2",
          "ticks": 40320,
          "time": 74.11761,
          "velocity": 0.3937007874015748
        },
        {
          "duration": 0.17647049999999354,
          "durationTicks": 96,
          "midi": 28,
          "name": "E1",
          "ticks": 40416,
          "time": 74.2940805,
          "velocity": 0.3937007874015748
        },
        {
          "duration": 0.17647049999999354,
          "durationTicks": 96,
          "midi": 28,
          "name": "E1",
          "ticks": 40512,
          "time": 74.470551,
          "velocity": 0.3937007874015748
        },
        {
          "duration": 0.17647050000000775,
          "durationTicks": 96,
          "midi": 28,
          "name": "E1",
          "ticks": 40608,
          "time": 74.6470215,
          "velocity": 0.3937007874015748
        },
        {
          "duration": 0.17647049999999354,
          "durationTicks": 96,
          "midi": 35,
          "name": "B1",
          "ticks": 40704,
          "time": 74.823492,
          "velocity": 0.3937007874015748
        },
        {
          "duration": 0.17647049999999354,
          "durationTicks": 96,
          "midi": 36,
          "name": "C2",
          "ticks": 40704,
          "time": 74.823492,
          "velocity": 0.3937007874015748
        },
        {
          "duration": 0.17647049999999354,
          "durationTicks": 96,
          "midi": 38,
          "name": "D2",
          "ticks": 40704,
          "time": 74.823492,
          "velocity": 0.3937007874015748
        },
        {
          "duration": 0.17647050000000775,
          "durationTicks": 96,
          "midi": 28,
          "name": "E1",
          "ticks": 40800,
          "time": 74.9999625,
          "velocity": 0.3937007874015748
        },
        {
          "duration": 0.17647049999999354,
          "durationTicks": 96,
          "midi": 28,
          "name": "E1",
          "ticks": 40896,
          "time": 75.176433,
          "velocity": 0.3937007874015748
        },
        {
          "duration": 0.17647050000000775,
          "durationTicks": 96,
          "midi": 28,
          "name": "E1",
          "ticks": 40992,
          "time": 75.3529035,
          "velocity": 0.3937007874015748
        },
        {
          "duration": 0.17647049999999354,
          "durationTicks": 96,
          "midi": 35,
          "name": "B1",
          "ticks": 41088,
          "time": 75.529374,
          "velocity": 0.3937007874015748
        },
        {
          "duration": 0.17647049999999354,
          "durationTicks": 96,
          "midi": 36,
          "name": "C2",
          "ticks": 41088,
          "time": 75.529374,
          "velocity": 0.3937007874015748
        },
        {
          "duration": 0.17647049999999354,
          "durationTicks": 96,
          "midi": 40,
          "name": "E2",
          "ticks": 41088,
          "time": 75.529374,
          "velocity": 0.3937007874015748
        },
        {
          "duration": 0.17647050000000775,
          "durationTicks": 96,
          "midi": 28,
          "name": "E1",
          "ticks": 41184,
          "time": 75.7058445,
          "velocity": 0.3937007874015748
        },
        {
          "duration": 0.17647049999999354,
          "durationTicks": 96,
          "midi": 28,
          "name": "E1",
          "ticks": 41280,
          "time": 75.882315,
          "velocity": 0.3937007874015748
        },
        {
          "duration": 0.17647050000000775,
          "durationTicks": 96,
          "midi": 28,
          "name": "E1",
          "ticks": 41376,
          "time": 76.0587855,
          "velocity": 0.3937007874015748
        },
        {
          "duration": 0.17647049999999354,
          "durationTicks": 96,
          "midi": 35,
          "name": "B1",
          "ticks": 41472,
          "time": 76.235256,
          "velocity": 0.3937007874015748
        },
        {
          "duration": 0.17647049999999354,
          "durationTicks": 96,
          "midi": 36,
          "name": "C2",
          "ticks": 41472,
          "time": 76.235256,
          "velocity": 0.3937007874015748
        },
        {
          "duration": 0.17647049999999354,
          "durationTicks": 96,
          "midi": 38,
          "name": "D2",
          "ticks": 41472,
          "time": 76.235256,
          "velocity": 0.3937007874015748
        },
        {
          "duration": 0.17647050000000775,
          "durationTicks": 96,
          "midi": 28,
          "name": "E1",
          "ticks": 41568,
          "time": 76.4117265,
          "velocity": 0.3937007874015748
        },
        {
          "duration": 0.17647049999999354,
          "durationTicks": 96,
          "midi": 28,
          "name": "E1",
          "ticks": 41664,
          "time": 76.58819700000001,
          "velocity": 0.3937007874015748
        },
        {
          "duration": 0.17647049999999354,
          "durationTicks": 96,
          "midi": 28,
          "name": "E1",
          "ticks": 41760,
          "time": 76.7646675,
          "velocity": 0.3937007874015748
        },
        {
          "duration": 0.17647050000000775,
          "durationTicks": 96,
          "midi": 35,
          "name": "B1",
          "ticks": 41856,
          "time": 76.941138,
          "velocity": 0.3937007874015748
        },
        {
          "duration": 0.17647050000000775,
          "durationTicks": 96,
          "midi": 36,
          "name": "C2",
          "ticks": 41856,
          "time": 76.941138,
          "velocity": 0.3937007874015748
        },
        {
          "duration": 0.17647050000000775,
          "durationTicks": 96,
          "midi": 40,
          "name": "E2",
          "ticks": 41856,
          "time": 76.941138,
          "velocity": 0.3937007874015748
        },
        {
          "duration": 0.17647049999999354,
          "durationTicks": 96,
          "midi": 28,
          "name": "E1",
          "ticks": 41952,
          "time": 77.1176085,
          "velocity": 0.3937007874015748
        },
        {
          "duration": 0.17647050000000775,
          "durationTicks": 96,
          "midi": 28,
          "name": "E1",
          "ticks": 42048,
          "time": 77.294079,
          "velocity": 0.3937007874015748
        },
        {
          "duration": 0.17647049999999354,
          "durationTicks": 96,
          "midi": 28,
          "name": "E1",
          "ticks": 42144,
          "time": 77.4705495,
          "velocity": 0.3937007874015748
        },
        {
          "duration": 0.17647050000000775,
          "durationTicks": 96,
          "midi": 35,
          "name": "B1",
          "ticks": 42240,
          "time": 77.64702,
          "velocity": 0.3937007874015748
        },
        {
          "duration": 0.17647050000000775,
          "durationTicks": 96,
          "midi": 36,
          "name": "C2",
          "ticks": 42240,
          "time": 77.64702,
          "velocity": 0.3937007874015748
        },
        {
          "duration": 0.17647050000000775,
          "durationTicks": 96,
          "midi": 38,
          "name": "D2",
          "ticks": 42240,
          "time": 77.64702,
          "velocity": 0.3937007874015748
        },
        {
          "duration": 0.17647049999999354,
          "durationTicks": 96,
          "midi": 28,
          "name": "E1",
          "ticks": 42336,
          "time": 77.8234905,
          "velocity": 0.3937007874015748
        },
        {
          "duration": 0.17647050000000775,
          "durationTicks": 96,
          "midi": 28,
          "name": "E1",
          "ticks": 42432,
          "time": 77.999961,
          "velocity": 0.3937007874015748
        },
        {
          "duration": 0.17647049999999354,
          "durationTicks": 96,
          "midi": 28,
          "name": "E1",
          "ticks": 42528,
          "time": 78.1764315,
          "velocity": 0.3937007874015748
        },
        {
          "duration": 0.17647050000000775,
          "durationTicks": 96,
          "midi": 35,
          "name": "B1",
          "ticks": 42624,
          "time": 78.352902,
          "velocity": 0.3937007874015748
        },
        {
          "duration": 0.17647050000000775,
          "durationTicks": 96,
          "midi": 36,
          "name": "C2",
          "ticks": 42624,
          "time": 78.352902,
          "velocity": 0.3937007874015748
        },
        {
          "duration": 0.17647050000000775,
          "durationTicks": 96,
          "midi": 40,
          "name": "E2",
          "ticks": 42624,
          "time": 78.352902,
          "velocity": 0.3937007874015748
        },
        {
          "duration": 0.17647049999999354,
          "durationTicks": 96,
          "midi": 28,
          "name": "E1",
          "ticks": 42720,
          "time": 78.52937250000001,
          "velocity": 0.3937007874015748
        },
        {
          "duration": 0.17647049999999354,
          "durationTicks": 96,
          "midi": 28,
          "name": "E1",
          "ticks": 42816,
          "time": 78.705843,
          "velocity": 0.3937007874015748
        },
        {
          "duration": 0.17647050000000775,
          "durationTicks": 96,
          "midi": 28,
          "name": "E1",
          "ticks": 42912,
          "time": 78.8823135,
          "velocity": 0.3937007874015748
        },
        {
          "duration": 0.17647049999999354,
          "durationTicks": 96,
          "midi": 35,
          "name": "B1",
          "ticks": 43008,
          "time": 79.058784,
          "velocity": 0.3937007874015748
        },
        {
          "duration": 0.17647049999999354,
          "durationTicks": 96,
          "midi": 36,
          "name": "C2",
          "ticks": 43008,
          "time": 79.058784,
          "velocity": 0.3937007874015748
        },
        {
          "duration": 0.17647049999999354,
          "durationTicks": 96,
          "midi": 38,
          "name": "D2",
          "ticks": 43008,
          "time": 79.058784,
          "velocity": 0.3937007874015748
        },
        {
          "duration": 0.17647050000000775,
          "durationTicks": 96,
          "midi": 28,
          "name": "E1",
          "ticks": 43104,
          "time": 79.2352545,
          "velocity": 0.3937007874015748
        },
        {
          "duration": 0.17647049999999354,
          "durationTicks": 96,
          "midi": 28,
          "name": "E1",
          "ticks": 43200,
          "time": 79.411725,
          "velocity": 0.3937007874015748
        },
        {
          "duration": 0.17647050000000775,
          "durationTicks": 96,
          "midi": 28,
          "name": "E1",
          "ticks": 43296,
          "time": 79.5881955,
          "velocity": 0.3937007874015748
        },
        {
          "duration": 0.17647049999999354,
          "durationTicks": 96,
          "midi": 35,
          "name": "B1",
          "ticks": 43392,
          "time": 79.764666,
          "velocity": 0.3937007874015748
        },
        {
          "duration": 0.17647049999999354,
          "durationTicks": 96,
          "midi": 36,
          "name": "C2",
          "ticks": 43392,
          "time": 79.764666,
          "velocity": 0.3937007874015748
        },
        {
          "duration": 0.17647049999999354,
          "durationTicks": 96,
          "midi": 40,
          "name": "E2",
          "ticks": 43392,
          "time": 79.764666,
          "velocity": 0.3937007874015748
        },
        {
          "duration": 0.17647050000000775,
          "durationTicks": 96,
          "midi": 28,
          "name": "E1",
          "ticks": 43488,
          "time": 79.9411365,
          "velocity": 0.3937007874015748
        },
        {
          "duration": 0.17647049999999354,
          "durationTicks": 96,
          "midi": 28,
          "name": "E1",
          "ticks": 43584,
          "time": 80.117607,
          "velocity": 0.3937007874015748
        },
        {
          "duration": 0.17647050000000775,
          "durationTicks": 96,
          "midi": 28,
          "name": "E1",
          "ticks": 43680,
          "time": 80.2940775,
          "velocity": 0.3937007874015748
        },
        {
          "duration": 0.17647049999999354,
          "durationTicks": 96,
          "midi": 35,
          "name": "B1",
          "ticks": 43776,
          "time": 80.47054800000001,
          "velocity": 0.3937007874015748
        },
        {
          "duration": 0.17647049999999354,
          "durationTicks": 96,
          "midi": 36,
          "name": "C2",
          "ticks": 43776,
          "time": 80.47054800000001,
          "velocity": 0.3937007874015748
        },
        {
          "duration": 0.17647049999999354,
          "durationTicks": 96,
          "midi": 38,
          "name": "D2",
          "ticks": 43776,
          "time": 80.47054800000001,
          "velocity": 0.3937007874015748
        },
        {
          "duration": 0.17647049999999354,
          "durationTicks": 96,
          "midi": 28,
          "name": "E1",
          "ticks": 43872,
          "time": 80.6470185,
          "velocity": 0.3937007874015748
        },
        {
          "duration": 0.17647050000000775,
          "durationTicks": 96,
          "midi": 28,
          "name": "E1",
          "ticks": 43968,
          "time": 80.823489,
          "velocity": 0.3937007874015748
        },
        {
          "duration": 0.17647049999999354,
          "durationTicks": 96,
          "midi": 28,
          "name": "E1",
          "ticks": 44064,
          "time": 80.9999595,
          "velocity": 0.3937007874015748
        },
        {
          "duration": 0.17647050000000775,
          "durationTicks": 96,
          "midi": 35,
          "name": "B1",
          "ticks": 44160,
          "time": 81.17643,
          "velocity": 0.3937007874015748
        },
        {
          "duration": 0.17647050000000775,
          "durationTicks": 96,
          "midi": 36,
          "name": "C2",
          "ticks": 44160,
          "time": 81.17643,
          "velocity": 0.3937007874015748
        },
        {
          "duration": 0.17647050000000775,
          "durationTicks": 96,
          "midi": 40,
          "name": "E2",
          "ticks": 44160,
          "time": 81.17643,
          "velocity": 0.3937007874015748
        },
        {
          "duration": 0.17647049999999354,
          "durationTicks": 96,
          "midi": 28,
          "name": "E1",
          "ticks": 44256,
          "time": 81.3529005,
          "velocity": 0.3937007874015748
        },
        {
          "duration": 0.17647050000000775,
          "durationTicks": 96,
          "midi": 28,
          "name": "E1",
          "ticks": 44352,
          "time": 81.529371,
          "velocity": 0.3937007874015748
        },
        {
          "duration": 0.17647049999999354,
          "durationTicks": 96,
          "midi": 28,
          "name": "E1",
          "ticks": 44448,
          "time": 81.7058415,
          "velocity": 0.3937007874015748
        },
        {
          "duration": 0.17647050000000775,
          "durationTicks": 96,
          "midi": 35,
          "name": "B1",
          "ticks": 44544,
          "time": 81.882312,
          "velocity": 0.3937007874015748
        },
        {
          "duration": 0.17647050000000775,
          "durationTicks": 96,
          "midi": 36,
          "name": "C2",
          "ticks": 44544,
          "time": 81.882312,
          "velocity": 0.3937007874015748
        },
        {
          "duration": 0.17647050000000775,
          "durationTicks": 96,
          "midi": 38,
          "name": "D2",
          "ticks": 44544,
          "time": 81.882312,
          "velocity": 0.3937007874015748
        },
        {
          "duration": 0.17647049999999354,
          "durationTicks": 96,
          "midi": 28,
          "name": "E1",
          "ticks": 44640,
          "time": 82.0587825,
          "velocity": 0.3937007874015748
        },
        {
          "duration": 0.17647050000000775,
          "durationTicks": 96,
          "midi": 28,
          "name": "E1",
          "ticks": 44736,
          "time": 82.235253,
          "velocity": 0.3937007874015748
        },
        {
          "duration": 0.17647049999999354,
          "durationTicks": 96,
          "midi": 28,
          "name": "E1",
          "ticks": 44832,
          "time": 82.41172350000001,
          "velocity": 0.3937007874015748
        },
        {
          "duration": 0.17647049999999354,
          "durationTicks": 96,
          "midi": 35,
          "name": "B1",
          "ticks": 44928,
          "time": 82.588194,
          "velocity": 0.3937007874015748
        },
        {
          "duration": 0.17647049999999354,
          "durationTicks": 96,
          "midi": 36,
          "name": "C2",
          "ticks": 44928,
          "time": 82.588194,
          "velocity": 0.3937007874015748
        },
        {
          "duration": 0.17647049999999354,
          "durationTicks": 96,
          "midi": 40,
          "name": "E2",
          "ticks": 44928,
          "time": 82.588194,
          "velocity": 0.3937007874015748
        },
        {
          "duration": 0.17647050000000775,
          "durationTicks": 96,
          "midi": 28,
          "name": "E1",
          "ticks": 45024,
          "time": 82.7646645,
          "velocity": 0.3937007874015748
        },
        {
          "duration": 0.17647049999999354,
          "durationTicks": 96,
          "midi": 28,
          "name": "E1",
          "ticks": 45120,
          "time": 82.941135,
          "velocity": 0.3937007874015748
        },
        {
          "duration": 0.17647050000000775,
          "durationTicks": 96,
          "midi": 28,
          "name": "E1",
          "ticks": 45216,
          "time": 83.1176055,
          "velocity": 0.3937007874015748
        },
        {
          "duration": 0.17647049999999354,
          "durationTicks": 96,
          "midi": 35,
          "name": "B1",
          "ticks": 45312,
          "time": 83.294076,
          "velocity": 0.3937007874015748
        },
        {
          "duration": 0.17647049999999354,
          "durationTicks": 96,
          "midi": 36,
          "name": "C2",
          "ticks": 45312,
          "time": 83.294076,
          "velocity": 0.3937007874015748
        },
        {
          "duration": 0.17647049999999354,
          "durationTicks": 96,
          "midi": 38,
          "name": "D2",
          "ticks": 45312,
          "time": 83.294076,
          "velocity": 0.3937007874015748
        },
        {
          "duration": 0.17647050000000775,
          "durationTicks": 96,
          "midi": 28,
          "name": "E1",
          "ticks": 45408,
          "time": 83.4705465,
          "velocity": 0.3937007874015748
        },
        {
          "duration": 0.17647049999999354,
          "durationTicks": 96,
          "midi": 28,
          "name": "E1",
          "ticks": 45504,
          "time": 83.647017,
          "velocity": 0.3937007874015748
        },
        {
          "duration": 0.17647050000000775,
          "durationTicks": 96,
          "midi": 28,
          "name": "E1",
          "ticks": 45600,
          "time": 83.8234875,
          "velocity": 0.3937007874015748
        },
        {
          "duration": 0.17647049999999354,
          "durationTicks": 96,
          "midi": 35,
          "name": "B1",
          "ticks": 45696,
          "time": 83.999958,
          "velocity": 0.3937007874015748
        },
        {
          "duration": 0.17647049999999354,
          "durationTicks": 96,
          "midi": 36,
          "name": "C2",
          "ticks": 45696,
          "time": 83.999958,
          "velocity": 0.3937007874015748
        },
        {
          "duration": 0.17647049999999354,
          "durationTicks": 96,
          "midi": 40,
          "name": "E2",
          "ticks": 45696,
          "time": 83.999958,
          "velocity": 0.3937007874015748
        },
        {
          "duration": 0.17647050000000775,
          "durationTicks": 96,
          "midi": 28,
          "name": "E1",
          "ticks": 45792,
          "time": 84.1764285,
          "velocity": 0.3937007874015748
        },
        {
          "duration": 0.17647049999999354,
          "durationTicks": 96,
          "midi": 28,
          "name": "E1",
          "ticks": 45888,
          "time": 84.35289900000001,
          "velocity": 0.3937007874015748
        },
        {
          "duration": 0.17647049999999354,
          "durationTicks": 96,
          "midi": 28,
          "name": "E1",
          "ticks": 45984,
          "time": 84.5293695,
          "velocity": 0.3937007874015748
        },
        {
          "duration": 0.17647050000000775,
          "durationTicks": 96,
          "midi": 35,
          "name": "B1",
          "ticks": 46080,
          "time": 84.70584,
          "velocity": 0.3937007874015748
        },
        {
          "duration": 0.17647050000000775,
          "durationTicks": 96,
          "midi": 36,
          "name": "C2",
          "ticks": 46080,
          "time": 84.70584,
          "velocity": 0.3937007874015748
        },
        {
          "duration": 0.17647050000000775,
          "durationTicks": 96,
          "midi": 38,
          "name": "D2",
          "ticks": 46080,
          "time": 84.70584,
          "velocity": 0.3937007874015748
        },
        {
          "duration": 0.17647049999999354,
          "durationTicks": 96,
          "midi": 28,
          "name": "E1",
          "ticks": 46176,
          "time": 84.8823105,
          "velocity": 0.3937007874015748
        },
        {
          "duration": 0.17647050000000775,
          "durationTicks": 96,
          "midi": 28,
          "name": "E1",
          "ticks": 46272,
          "time": 85.058781,
          "velocity": 0.3937007874015748
        },
        {
          "duration": 0.17647049999999354,
          "durationTicks": 96,
          "midi": 28,
          "name": "E1",
          "ticks": 46368,
          "time": 85.2352515,
          "velocity": 0.3937007874015748
        },
        {
          "duration": 0.17647050000000775,
          "durationTicks": 96,
          "midi": 35,
          "name": "B1",
          "ticks": 46464,
          "time": 85.411722,
          "velocity": 0.3937007874015748
        },
        {
          "duration": 0.17647050000000775,
          "durationTicks": 96,
          "midi": 36,
          "name": "C2",
          "ticks": 46464,
          "time": 85.411722,
          "velocity": 0.3937007874015748
        },
        {
          "duration": 0.17647050000000775,
          "durationTicks": 96,
          "midi": 40,
          "name": "E2",
          "ticks": 46464,
          "time": 85.411722,
          "velocity": 0.3937007874015748
        },
        {
          "duration": 0.17647049999999354,
          "durationTicks": 96,
          "midi": 28,
          "name": "E1",
          "ticks": 46560,
          "time": 85.5881925,
          "velocity": 0.3937007874015748
        },
        {
          "duration": 0.17647050000000775,
          "durationTicks": 96,
          "midi": 28,
          "name": "E1",
          "ticks": 46656,
          "time": 85.764663,
          "velocity": 0.3937007874015748
        },
        {
          "duration": 0.17647049999999354,
          "durationTicks": 96,
          "midi": 28,
          "name": "E1",
          "ticks": 46752,
          "time": 85.9411335,
          "velocity": 0.3937007874015748
        },
        {
          "duration": 0.17647050000000775,
          "durationTicks": 96,
          "midi": 35,
          "name": "B1",
          "ticks": 46848,
          "time": 86.117604,
          "velocity": 0.3937007874015748
        },
        {
          "duration": 0.17647050000000775,
          "durationTicks": 96,
          "midi": 36,
          "name": "C2",
          "ticks": 46848,
          "time": 86.117604,
          "velocity": 0.3937007874015748
        },
        {
          "duration": 0.17647050000000775,
          "durationTicks": 96,
          "midi": 38,
          "name": "D2",
          "ticks": 46848,
          "time": 86.117604,
          "velocity": 0.3937007874015748
        },
        {
          "duration": 0.17647049999999354,
          "durationTicks": 96,
          "midi": 28,
          "name": "E1",
          "ticks": 46944,
          "time": 86.29407450000001,
          "velocity": 0.3937007874015748
        },
        {
          "duration": 0.17647049999999354,
          "durationTicks": 96,
          "midi": 28,
          "name": "E1",
          "ticks": 47040,
          "time": 86.470545,
          "velocity": 0.3937007874015748
        },
        {
          "duration": 0.17647050000000775,
          "durationTicks": 96,
          "midi": 28,
          "name": "E1",
          "ticks": 47136,
          "time": 86.6470155,
          "velocity": 0.3937007874015748
        },
        {
          "duration": 0.17647049999999354,
          "durationTicks": 96,
          "midi": 35,
          "name": "B1",
          "ticks": 47232,
          "time": 86.823486,
          "velocity": 0.3937007874015748
        },
        {
          "duration": 0.17647049999999354,
          "durationTicks": 96,
          "midi": 36,
          "name": "C2",
          "ticks": 47232,
          "time": 86.823486,
          "velocity": 0.3937007874015748
        },
        {
          "duration": 0.17647049999999354,
          "durationTicks": 96,
          "midi": 40,
          "name": "E2",
          "ticks": 47232,
          "time": 86.823486,
          "velocity": 0.3937007874015748
        },
        {
          "duration": 0.17647050000000775,
          "durationTicks": 96,
          "midi": 28,
          "name": "E1",
          "ticks": 47328,
          "time": 86.9999565,
          "velocity": 0.3937007874015748
        },
        {
          "duration": 0.17647049999999354,
          "durationTicks": 96,
          "midi": 28,
          "name": "E1",
          "ticks": 47424,
          "time": 87.176427,
          "velocity": 0.3937007874015748
        },
        {
          "duration": 0.17647050000000775,
          "durationTicks": 96,
          "midi": 28,
          "name": "E1",
          "ticks": 47520,
          "time": 87.3528975,
          "velocity": 0.3937007874015748
        },
        {
          "duration": 0.17647049999999354,
          "durationTicks": 96,
          "midi": 35,
          "name": "B1",
          "ticks": 47616,
          "time": 87.529368,
          "velocity": 0.3937007874015748
        },
        {
          "duration": 0.17647049999999354,
          "durationTicks": 96,
          "midi": 36,
          "name": "C2",
          "ticks": 47616,
          "time": 87.529368,
          "velocity": 0.3937007874015748
        },
        {
          "duration": 0.17647049999999354,
          "durationTicks": 96,
          "midi": 38,
          "name": "D2",
          "ticks": 47616,
          "time": 87.529368,
          "velocity": 0.3937007874015748
        },
        {
          "duration": 0.17647050000000775,
          "durationTicks": 96,
          "midi": 28,
          "name": "E1",
          "ticks": 47712,
          "time": 87.7058385,
          "velocity": 0.3937007874015748
        },
        {
          "duration": 0.17647049999999354,
          "durationTicks": 96,
          "midi": 28,
          "name": "E1",
          "ticks": 47808,
          "time": 87.882309,
          "velocity": 0.3937007874015748
        },
        {
          "duration": 0.17647050000000775,
          "durationTicks": 96,
          "midi": 28,
          "name": "E1",
          "ticks": 47904,
          "time": 88.0587795,
          "velocity": 0.3937007874015748
        },
        {
          "duration": 0.17647049999999354,
          "durationTicks": 96,
          "midi": 35,
          "name": "B1",
          "ticks": 48000,
          "time": 88.23525000000001,
          "velocity": 0.3937007874015748
        },
        {
          "duration": 0.17647049999999354,
          "durationTicks": 96,
          "midi": 36,
          "name": "C2",
          "ticks": 48000,
          "time": 88.23525000000001,
          "velocity": 0.3937007874015748
        },
        {
          "duration": 0.17647049999999354,
          "durationTicks": 96,
          "midi": 40,
          "name": "E2",
          "ticks": 48000,
          "time": 88.23525000000001,
          "velocity": 0.3937007874015748
        },
        {
          "duration": 0.17647049999999354,
          "durationTicks": 96,
          "midi": 28,
          "name": "E1",
          "ticks": 48096,
          "time": 88.4117205,
          "velocity": 0.3937007874015748
        },
        {
          "duration": 0.17647050000000775,
          "durationTicks": 96,
          "midi": 28,
          "name": "E1",
          "ticks": 48192,
          "time": 88.588191,
          "velocity": 0.3937007874015748
        },
        {
          "duration": 0.17647049999999354,
          "durationTicks": 96,
          "midi": 28,
          "name": "E1",
          "ticks": 48288,
          "time": 88.7646615,
          "velocity": 0.3937007874015748
        },
        {
          "duration": 0.17647050000000775,
          "durationTicks": 96,
          "midi": 35,
          "name": "B1",
          "ticks": 48384,
          "time": 88.941132,
          "velocity": 0.3937007874015748
        },
        {
          "duration": 0.17647050000000775,
          "durationTicks": 96,
          "midi": 36,
          "name": "C2",
          "ticks": 48384,
          "time": 88.941132,
          "velocity": 0.3937007874015748
        },
        {
          "duration": 0.17647050000000775,
          "durationTicks": 96,
          "midi": 38,
          "name": "D2",
          "ticks": 48384,
          "time": 88.941132,
          "velocity": 0.3937007874015748
        },
        {
          "duration": 0.17647049999999354,
          "durationTicks": 96,
          "midi": 28,
          "name": "E1",
          "ticks": 48480,
          "time": 89.1176025,
          "velocity": 0.3937007874015748
        },
        {
          "duration": 0.17647050000000775,
          "durationTicks": 96,
          "midi": 28,
          "name": "E1",
          "ticks": 48576,
          "time": 89.294073,
          "velocity": 0.3937007874015748
        },
        {
          "duration": 0.17647049999999354,
          "durationTicks": 96,
          "midi": 28,
          "name": "E1",
          "ticks": 48672,
          "time": 89.4705435,
          "velocity": 0.3937007874015748
        },
        {
          "duration": 0.17647050000000775,
          "durationTicks": 96,
          "midi": 35,
          "name": "B1",
          "ticks": 48768,
          "time": 89.647014,
          "velocity": 0.3937007874015748
        },
        {
          "duration": 0.17647050000000775,
          "durationTicks": 96,
          "midi": 36,
          "name": "C2",
          "ticks": 48768,
          "time": 89.647014,
          "velocity": 0.3937007874015748
        },
        {
          "duration": 0.17647050000000775,
          "durationTicks": 96,
          "midi": 40,
          "name": "E2",
          "ticks": 48768,
          "time": 89.647014,
          "velocity": 0.3937007874015748
        },
        {
          "duration": 0.17647049999999354,
          "durationTicks": 96,
          "midi": 28,
          "name": "E1",
          "ticks": 48864,
          "time": 89.8234845,
          "velocity": 0.3937007874015748
        },
        {
          "duration": 0.17647050000000775,
          "durationTicks": 96,
          "midi": 28,
          "name": "E1",
          "ticks": 48960,
          "time": 89.999955,
          "velocity": 0.3937007874015748
        },
        {
          "duration": 0.17647049999999354,
          "durationTicks": 96,
          "midi": 28,
          "name": "E1",
          "ticks": 49056,
          "time": 90.17642550000001,
          "velocity": 0.3937007874015748
        },
        {
          "duration": 0.17647049999999354,
          "durationTicks": 96,
          "midi": 35,
          "name": "B1",
          "ticks": 49152,
          "time": 90.352896,
          "velocity": 0.3937007874015748
        },
        {
          "duration": 0.17647049999999354,
          "durationTicks": 96,
          "midi": 36,
          "name": "C2",
          "ticks": 49152,
          "time": 90.352896,
          "velocity": 0.3937007874015748
        },
        {
          "duration": 0.17647049999999354,
          "durationTicks": 96,
          "midi": 38,
          "name": "D2",
          "ticks": 49152,
          "time": 90.352896,
          "velocity": 0.3937007874015748
        },
        {
          "duration": 0.17647050000000775,
          "durationTicks": 96,
          "midi": 28,
          "name": "E1",
          "ticks": 49248,
          "time": 90.5293665,
          "velocity": 0.3937007874015748
        },
        {
          "duration": 0.17647049999999354,
          "durationTicks": 96,
          "midi": 28,
          "name": "E1",
          "ticks": 49344,
          "time": 90.705837,
          "velocity": 0.3937007874015748
        },
        {
          "duration": 0.17647050000000775,
          "durationTicks": 96,
          "midi": 28,
          "name": "E1",
          "ticks": 49440,
          "time": 90.8823075,
          "velocity": 0.3937007874015748
        },
        {
          "duration": 0.17647049999999354,
          "durationTicks": 96,
          "midi": 35,
          "name": "B1",
          "ticks": 49536,
          "time": 91.058778,
          "velocity": 0.3937007874015748
        },
        {
          "duration": 0.17647049999999354,
          "durationTicks": 96,
          "midi": 36,
          "name": "C2",
          "ticks": 49536,
          "time": 91.058778,
          "velocity": 0.3937007874015748
        },
        {
          "duration": 0.17647049999999354,
          "durationTicks": 96,
          "midi": 40,
          "name": "E2",
          "ticks": 49536,
          "time": 91.058778,
          "velocity": 0.3937007874015748
        },
        {
          "duration": 0.17647050000000775,
          "durationTicks": 96,
          "midi": 28,
          "name": "E1",
          "ticks": 49632,
          "time": 91.2352485,
          "velocity": 0.3937007874015748
        },
        {
          "duration": 0.17647049999999354,
          "durationTicks": 96,
          "midi": 28,
          "name": "E1",
          "ticks": 49728,
          "time": 91.411719,
          "velocity": 0.3937007874015748
        },
        {
          "duration": 0.17647050000000775,
          "durationTicks": 96,
          "midi": 28,
          "name": "E1",
          "ticks": 49824,
          "time": 91.5881895,
          "velocity": 0.3937007874015748
        },
        {
          "duration": 0.17647049999999354,
          "durationTicks": 96,
          "midi": 35,
          "name": "B1",
          "ticks": 49920,
          "time": 91.76466,
          "velocity": 0.3937007874015748
        },
        {
          "duration": 0.17647049999999354,
          "durationTicks": 96,
          "midi": 36,
          "name": "C2",
          "ticks": 49920,
          "time": 91.76466,
          "velocity": 0.3937007874015748
        },
        {
          "duration": 0.17647049999999354,
          "durationTicks": 96,
          "midi": 38,
          "name": "D2",
          "ticks": 49920,
          "time": 91.76466,
          "velocity": 0.3937007874015748
        },
        {
          "duration": 0.17647050000000775,
          "durationTicks": 96,
          "midi": 28,
          "name": "E1",
          "ticks": 50016,
          "time": 91.9411305,
          "velocity": 0.3937007874015748
        },
        {
          "duration": 0.17647049999999354,
          "durationTicks": 96,
          "midi": 28,
          "name": "E1",
          "ticks": 50112,
          "time": 92.11760100000001,
          "velocity": 0.3937007874015748
        },
        {
          "duration": 0.17647049999999354,
          "durationTicks": 96,
          "midi": 28,
          "name": "E1",
          "ticks": 50208,
          "time": 92.2940715,
          "velocity": 0.3937007874015748
        },
        {
          "duration": 0.17647050000000775,
          "durationTicks": 96,
          "midi": 35,
          "name": "B1",
          "ticks": 50304,
          "time": 92.470542,
          "velocity": 0.3937007874015748
        },
        {
          "duration": 0.17647050000000775,
          "durationTicks": 96,
          "midi": 36,
          "name": "C2",
          "ticks": 50304,
          "time": 92.470542,
          "velocity": 0.3937007874015748
        },
        {
          "duration": 0.17647050000000775,
          "durationTicks": 96,
          "midi": 40,
          "name": "E2",
          "ticks": 50304,
          "time": 92.470542,
          "velocity": 0.3937007874015748
        },
        {
          "duration": 0.17647049999999354,
          "durationTicks": 96,
          "midi": 28,
          "name": "E1",
          "ticks": 50400,
          "time": 92.6470125,
          "velocity": 0.3937007874015748
        },
        {
          "duration": 0.17647050000000775,
          "durationTicks": 96,
          "midi": 28,
          "name": "E1",
          "ticks": 50496,
          "time": 92.823483,
          "velocity": 0.3937007874015748
        },
        {
          "duration": 0.17647049999999354,
          "durationTicks": 96,
          "midi": 28,
          "name": "E1",
          "ticks": 50592,
          "time": 92.9999535,
          "velocity": 0.3937007874015748
        },
        {
          "duration": 0.17647050000000775,
          "durationTicks": 96,
          "midi": 35,
          "name": "B1",
          "ticks": 50688,
          "time": 93.176424,
          "velocity": 0.3937007874015748
        },
        {
          "duration": 0.17647050000000775,
          "durationTicks": 96,
          "midi": 36,
          "name": "C2",
          "ticks": 50688,
          "time": 93.176424,
          "velocity": 0.3937007874015748
        },
        {
          "duration": 0.17647050000000775,
          "durationTicks": 96,
          "midi": 38,
          "name": "D2",
          "ticks": 50688,
          "time": 93.176424,
          "velocity": 0.3937007874015748
        },
        {
          "duration": 0.17647049999999354,
          "durationTicks": 96,
          "midi": 28,
          "name": "E1",
          "ticks": 50784,
          "time": 93.3528945,
          "velocity": 0.3937007874015748
        },
        {
          "duration": 0.17647050000000775,
          "durationTicks": 96,
          "midi": 28,
          "name": "E1",
          "ticks": 50880,
          "time": 93.529365,
          "velocity": 0.3937007874015748
        },
        {
          "duration": 0.17647049999999354,
          "durationTicks": 96,
          "midi": 28,
          "name": "E1",
          "ticks": 50976,
          "time": 93.7058355,
          "velocity": 0.3937007874015748
        },
        {
          "duration": 0.17647050000000775,
          "durationTicks": 96,
          "midi": 35,
          "name": "B1",
          "ticks": 51072,
          "time": 93.882306,
          "velocity": 0.3937007874015748
        },
        {
          "duration": 0.17647050000000775,
          "durationTicks": 96,
          "midi": 36,
          "name": "C2",
          "ticks": 51072,
          "time": 93.882306,
          "velocity": 0.3937007874015748
        },
        {
          "duration": 0.17647050000000775,
          "durationTicks": 96,
          "midi": 40,
          "name": "E2",
          "ticks": 51072,
          "time": 93.882306,
          "velocity": 0.3937007874015748
        },
        {
          "duration": 0.17647049999999354,
          "durationTicks": 96,
          "midi": 28,
          "name": "E1",
          "ticks": 51168,
          "time": 94.05877650000001,
          "velocity": 0.3937007874015748
        },
        {
          "duration": 0.17647049999999354,
          "durationTicks": 96,
          "midi": 28,
          "name": "E1",
          "ticks": 51264,
          "time": 94.235247,
          "velocity": 0.3937007874015748
        },
        {
          "duration": 0.17647050000000775,
          "durationTicks": 96,
          "midi": 28,
          "name": "E1",
          "ticks": 51360,
          "time": 94.4117175,
          "velocity": 0.3937007874015748
        },
        {
          "duration": 0.17647049999999354,
          "durationTicks": 96,
          "midi": 35,
          "name": "B1",
          "ticks": 51456,
          "time": 94.588188,
          "velocity": 0.3937007874015748
        },
        {
          "duration": 0.17647049999999354,
          "durationTicks": 96,
          "midi": 36,
          "name": "C2",
          "ticks": 51456,
          "time": 94.588188,
          "velocity": 0.3937007874015748
        },
        {
          "duration": 0.17647049999999354,
          "durationTicks": 96,
          "midi": 38,
          "name": "D2",
          "ticks": 51456,
          "time": 94.588188,
          "velocity": 0.3937007874015748
        },
        {
          "duration": 0.17647050000000775,
          "durationTicks": 96,
          "midi": 28,
          "name": "E1",
          "ticks": 51552,
          "time": 94.7646585,
          "velocity": 0.3937007874015748
        },
        {
          "duration": 0.17647049999999354,
          "durationTicks": 96,
          "midi": 28,
          "name": "E1",
          "ticks": 51648,
          "time": 94.941129,
          "velocity": 0.3937007874015748
        },
        {
          "duration": 0.17647050000000775,
          "durationTicks": 96,
          "midi": 28,
          "name": "E1",
          "ticks": 51744,
          "time": 95.1175995,
          "velocity": 0.3937007874015748
        },
        {
          "duration": 0.17647049999999354,
          "durationTicks": 96,
          "midi": 35,
          "name": "B1",
          "ticks": 51840,
          "time": 95.29407,
          "velocity": 0.3937007874015748
        },
        {
          "duration": 0.17647049999999354,
          "durationTicks": 96,
          "midi": 36,
          "name": "C2",
          "ticks": 51840,
          "time": 95.29407,
          "velocity": 0.3937007874015748
        },
        {
          "duration": 0.17647049999999354,
          "durationTicks": 96,
          "midi": 40,
          "name": "E2",
          "ticks": 51840,
          "time": 95.29407,
          "velocity": 0.3937007874015748
        },
        {
          "duration": 0.17647050000000775,
          "durationTicks": 96,
          "midi": 28,
          "name": "E1",
          "ticks": 51936,
          "time": 95.4705405,
          "velocity": 0.3937007874015748
        },
        {
          "duration": 0.17647049999999354,
          "durationTicks": 96,
          "midi": 28,
          "name": "E1",
          "ticks": 52032,
          "time": 95.647011,
          "velocity": 0.3937007874015748
        },
        {
          "duration": 0.17647050000000775,
          "durationTicks": 96,
          "midi": 28,
          "name": "E1",
          "ticks": 52128,
          "time": 95.8234815,
          "velocity": 0.3937007874015748
        },
        {
          "duration": 0.17647049999999354,
          "durationTicks": 96,
          "midi": 35,
          "name": "B1",
          "ticks": 52224,
          "time": 95.99995200000001,
          "velocity": 0.3937007874015748
        },
        {
          "duration": 0.17647049999999354,
          "durationTicks": 96,
          "midi": 36,
          "name": "C2",
          "ticks": 52224,
          "time": 95.99995200000001,
          "velocity": 0.3937007874015748
        },
        {
          "duration": 0.17647049999999354,
          "durationTicks": 96,
          "midi": 38,
          "name": "D2",
          "ticks": 52224,
          "time": 95.99995200000001,
          "velocity": 0.3937007874015748
        },
        {
          "duration": 0.17647049999999354,
          "durationTicks": 96,
          "midi": 28,
          "name": "E1",
          "ticks": 52320,
          "time": 96.1764225,
          "velocity": 0.3937007874015748
        },
        {
          "duration": 0.17647050000000775,
          "durationTicks": 96,
          "midi": 28,
          "name": "E1",
          "ticks": 52416,
          "time": 96.352893,
          "velocity": 0.3937007874015748
        },
        {
          "duration": 0.17647049999999354,
          "durationTicks": 96,
          "midi": 28,
          "name": "E1",
          "ticks": 52512,
          "time": 96.5293635,
          "velocity": 0.3937007874015748
        },
        {
          "duration": 0.17647050000000775,
          "durationTicks": 96,
          "midi": 35,
          "name": "B1",
          "ticks": 52608,
          "time": 96.705834,
          "velocity": 0.3937007874015748
        },
        {
          "duration": 0.17647050000000775,
          "durationTicks": 96,
          "midi": 36,
          "name": "C2",
          "ticks": 52608,
          "time": 96.705834,
          "velocity": 0.3937007874015748
        },
        {
          "duration": 0.17647050000000775,
          "durationTicks": 96,
          "midi": 40,
          "name": "E2",
          "ticks": 52608,
          "time": 96.705834,
          "velocity": 0.3937007874015748
        },
        {
          "duration": 0.17647049999999354,
          "durationTicks": 96,
          "midi": 28,
          "name": "E1",
          "ticks": 52704,
          "time": 96.8823045,
          "velocity": 0.3937007874015748
        },
        {
          "duration": 0.17647050000000775,
          "durationTicks": 96,
          "midi": 28,
          "name": "E1",
          "ticks": 52800,
          "time": 97.058775,
          "velocity": 0.3937007874015748
        },
        {
          "duration": 0.17647049999999354,
          "durationTicks": 96,
          "midi": 28,
          "name": "E1",
          "ticks": 52896,
          "time": 97.2352455,
          "velocity": 0.3937007874015748
        },
        {
          "duration": 0.17647050000000775,
          "durationTicks": 96,
          "midi": 35,
          "name": "B1",
          "ticks": 52992,
          "time": 97.411716,
          "velocity": 0.3937007874015748
        },
        {
          "duration": 0.17647050000000775,
          "durationTicks": 96,
          "midi": 36,
          "name": "C2",
          "ticks": 52992,
          "time": 97.411716,
          "velocity": 0.3937007874015748
        },
        {
          "duration": 0.17647050000000775,
          "durationTicks": 96,
          "midi": 38,
          "name": "D2",
          "ticks": 52992,
          "time": 97.411716,
          "velocity": 0.3937007874015748
        },
        {
          "duration": 0.17647049999999354,
          "durationTicks": 96,
          "midi": 28,
          "name": "E1",
          "ticks": 53088,
          "time": 97.5881865,
          "velocity": 0.3937007874015748
        },
        {
          "duration": 0.17647050000000775,
          "durationTicks": 96,
          "midi": 28,
          "name": "E1",
          "ticks": 53184,
          "time": 97.764657,
          "velocity": 0.3937007874015748
        },
        {
          "duration": 0.17647049999999354,
          "durationTicks": 96,
          "midi": 28,
          "name": "E1",
          "ticks": 53280,
          "time": 97.94112750000001,
          "velocity": 0.3937007874015748
        },
        {
          "duration": 0.17647049999999354,
          "durationTicks": 96,
          "midi": 35,
          "name": "B1",
          "ticks": 53376,
          "time": 98.117598,
          "velocity": 0.3937007874015748
        },
        {
          "duration": 0.17647049999999354,
          "durationTicks": 96,
          "midi": 36,
          "name": "C2",
          "ticks": 53376,
          "time": 98.117598,
          "velocity": 0.3937007874015748
        },
        {
          "duration": 0.17647049999999354,
          "durationTicks": 96,
          "midi": 40,
          "name": "E2",
          "ticks": 53376,
          "time": 98.117598,
          "velocity": 0.3937007874015748
        },
        {
          "duration": 0.17647050000000775,
          "durationTicks": 96,
          "midi": 28,
          "name": "E1",
          "ticks": 53472,
          "time": 98.2940685,
          "velocity": 0.3937007874015748
        },
        {
          "duration": 0.17647049999999354,
          "durationTicks": 96,
          "midi": 28,
          "name": "E1",
          "ticks": 53568,
          "time": 98.470539,
          "velocity": 0.3937007874015748
        },
        {
          "duration": 0.17647050000000775,
          "durationTicks": 96,
          "midi": 28,
          "name": "E1",
          "ticks": 53664,
          "time": 98.6470095,
          "velocity": 0.3937007874015748
        },
        {
          "duration": 0.17647049999999354,
          "durationTicks": 96,
          "midi": 35,
          "name": "B1",
          "ticks": 53760,
          "time": 98.82348,
          "velocity": 0.3937007874015748
        },
        {
          "duration": 0.17647049999999354,
          "durationTicks": 96,
          "midi": 36,
          "name": "C2",
          "ticks": 53760,
          "time": 98.82348,
          "velocity": 0.3937007874015748
        },
        {
          "duration": 0.17647049999999354,
          "durationTicks": 96,
          "midi": 38,
          "name": "D2",
          "ticks": 53760,
          "time": 98.82348,
          "velocity": 0.3937007874015748
        },
        {
          "duration": 0.17647050000000775,
          "durationTicks": 96,
          "midi": 28,
          "name": "E1",
          "ticks": 53856,
          "time": 98.9999505,
          "velocity": 0.3937007874015748
        },
        {
          "duration": 0.17647049999999354,
          "durationTicks": 96,
          "midi": 28,
          "name": "E1",
          "ticks": 53952,
          "time": 99.176421,
          "velocity": 0.3937007874015748
        },
        {
          "duration": 0.17647050000000775,
          "durationTicks": 96,
          "midi": 28,
          "name": "E1",
          "ticks": 54048,
          "time": 99.3528915,
          "velocity": 0.3937007874015748
        },
        {
          "duration": 0.17647049999999354,
          "durationTicks": 96,
          "midi": 35,
          "name": "B1",
          "ticks": 54144,
          "time": 99.529362,
          "velocity": 0.3937007874015748
        },
        {
          "duration": 0.17647049999999354,
          "durationTicks": 96,
          "midi": 36,
          "name": "C2",
          "ticks": 54144,
          "time": 99.529362,
          "velocity": 0.3937007874015748
        },
        {
          "duration": 0.17647049999999354,
          "durationTicks": 96,
          "midi": 40,
          "name": "E2",
          "ticks": 54144,
          "time": 99.529362,
          "velocity": 0.3937007874015748
        },
        {
          "duration": 0.17647050000000775,
          "durationTicks": 96,
          "midi": 28,
          "name": "E1",
          "ticks": 54240,
          "time": 99.7058325,
          "velocity": 0.3937007874015748
        },
        {
          "duration": 0.17647049999999354,
          "durationTicks": 96,
          "midi": 28,
          "name": "E1",
          "ticks": 54336,
          "time": 99.88230300000001,
          "velocity": 0.3937007874015748
        },
        {
          "duration": 0.17647049999999354,
          "durationTicks": 96,
          "midi": 28,
          "name": "E1",
          "ticks": 54432,
          "time": 100.0587735,
          "velocity": 0.3937007874015748
        },
        {
          "duration": 0.17647050000000775,
          "durationTicks": 96,
          "midi": 35,
          "name": "B1",
          "ticks": 54528,
          "time": 100.235244,
          "velocity": 0.3937007874015748
        },
        {
          "duration": 0.17647050000000775,
          "durationTicks": 96,
          "midi": 36,
          "name": "C2",
          "ticks": 54528,
          "time": 100.235244,
          "velocity": 0.3937007874015748
        },
        {
          "duration": 0.17647050000000775,
          "durationTicks": 96,
          "midi": 38,
          "name": "D2",
          "ticks": 54528,
          "time": 100.235244,
          "velocity": 0.3937007874015748
        },
        {
          "duration": 0.17647049999999354,
          "durationTicks": 96,
          "midi": 28,
          "name": "E1",
          "ticks": 54624,
          "time": 100.4117145,
          "velocity": 0.3937007874015748
        },
        {
          "duration": 0.17647050000000775,
          "durationTicks": 96,
          "midi": 28,
          "name": "E1",
          "ticks": 54720,
          "time": 100.588185,
          "velocity": 0.3937007874015748
        },
        {
          "duration": 0.17647049999999354,
          "durationTicks": 96,
          "midi": 28,
          "name": "E1",
          "ticks": 54816,
          "time": 100.7646555,
          "velocity": 0.3937007874015748
        },
        {
          "duration": 0.17647050000000775,
          "durationTicks": 96,
          "midi": 35,
          "name": "B1",
          "ticks": 54912,
          "time": 100.941126,
          "velocity": 0.3937007874015748
        },
        {
          "duration": 0.17647050000000775,
          "durationTicks": 96,
          "midi": 36,
          "name": "C2",
          "ticks": 54912,
          "time": 100.941126,
          "velocity": 0.3937007874015748
        },
        {
          "duration": 0.17647050000000775,
          "durationTicks": 96,
          "midi": 40,
          "name": "E2",
          "ticks": 54912,
          "time": 100.941126,
          "velocity": 0.3937007874015748
        },
        {
          "duration": 0.17647049999999354,
          "durationTicks": 96,
          "midi": 28,
          "name": "E1",
          "ticks": 55008,
          "time": 101.1175965,
          "velocity": 0.3937007874015748
        },
        {
          "duration": 0.17647050000000775,
          "durationTicks": 96,
          "midi": 28,
          "name": "E1",
          "ticks": 55104,
          "time": 101.294067,
          "velocity": 0.3937007874015748
        },
        {
          "duration": 0.17647049999999354,
          "durationTicks": 96,
          "midi": 28,
          "name": "E1",
          "ticks": 55200,
          "time": 101.4705375,
          "velocity": 0.3937007874015748
        },
        {
          "duration": 0.17647050000000775,
          "durationTicks": 96,
          "midi": 35,
          "name": "B1",
          "ticks": 61440,
          "time": 112.94112,
          "velocity": 0.3937007874015748
        },
        {
          "duration": 0.17647050000000775,
          "durationTicks": 96,
          "midi": 36,
          "name": "C2",
          "ticks": 61440,
          "time": 112.94112,
          "velocity": 0.3937007874015748
        },
        {
          "duration": 0.17647050000000775,
          "durationTicks": 96,
          "midi": 43,
          "name": "G2",
          "ticks": 61440,
          "time": 112.94112,
          "velocity": 0.3937007874015748
        },
        {
          "duration": 0.17647050000000775,
          "durationTicks": 96,
          "midi": 36,
          "name": "C2",
          "ticks": 61824,
          "time": 113.647002,
          "velocity": 0.3937007874015748
        },
        {
          "duration": 0.17647050000000775,
          "durationTicks": 96,
          "midi": 35,
          "name": "B1",
          "ticks": 61824,
          "time": 113.647002,
          "velocity": 0.3937007874015748
        },
        {
          "duration": 0.17647050000000775,
          "durationTicks": 96,
          "midi": 43,
          "name": "G2",
          "ticks": 61824,
          "time": 113.647002,
          "velocity": 0.3937007874015748
        },
        {
          "duration": 0.17647049999999354,
          "durationTicks": 96,
          "midi": 36,
          "name": "C2",
          "ticks": 62208,
          "time": 114.352884,
          "velocity": 0.3937007874015748
        },
        {
          "duration": 0.17647049999999354,
          "durationTicks": 96,
          "midi": 35,
          "name": "B1",
          "ticks": 62208,
          "time": 114.352884,
          "velocity": 0.3937007874015748
        },
        {
          "duration": 0.17647049999999354,
          "durationTicks": 96,
          "midi": 43,
          "name": "G2",
          "ticks": 62208,
          "time": 114.352884,
          "velocity": 0.3937007874015748
        },
        {
          "duration": 0.17647049999999354,
          "durationTicks": 96,
          "midi": 36,
          "name": "C2",
          "ticks": 62592,
          "time": 115.058766,
          "velocity": 0.3937007874015748
        },
        {
          "duration": 0.17647049999999354,
          "durationTicks": 96,
          "midi": 35,
          "name": "B1",
          "ticks": 62592,
          "time": 115.058766,
          "velocity": 0.3937007874015748
        },
        {
          "duration": 0.17647049999999354,
          "durationTicks": 96,
          "midi": 43,
          "name": "G2",
          "ticks": 62592,
          "time": 115.058766,
          "velocity": 0.3937007874015748
        },
        {
          "duration": 0.17647049999999354,
          "durationTicks": 96,
          "midi": 35,
          "name": "B1",
          "ticks": 62976,
          "time": 115.76464800000001,
          "velocity": 0.3937007874015748
        },
        {
          "duration": 0.17647049999999354,
          "durationTicks": 96,
          "midi": 36,
          "name": "C2",
          "ticks": 62976,
          "time": 115.76464800000001,
          "velocity": 0.3937007874015748
        },
        {
          "duration": 0.17647049999999354,
          "durationTicks": 96,
          "midi": 43,
          "name": "G2",
          "ticks": 62976,
          "time": 115.76464800000001,
          "velocity": 0.3937007874015748
        },
        {
          "duration": 0.17647050000000775,
          "durationTicks": 96,
          "midi": 35,
          "name": "B1",
          "ticks": 63360,
          "time": 116.47053,
          "velocity": 0.3937007874015748
        },
        {
          "duration": 0.17647050000000775,
          "durationTicks": 96,
          "midi": 36,
          "name": "C2",
          "ticks": 63360,
          "time": 116.47053,
          "velocity": 0.3937007874015748
        },
        {
          "duration": 0.17647050000000775,
          "durationTicks": 96,
          "midi": 43,
          "name": "G2",
          "ticks": 63360,
          "time": 116.47053,
          "velocity": 0.3937007874015748
        },
        {
          "duration": 0.17647050000000775,
          "durationTicks": 96,
          "midi": 35,
          "name": "B1",
          "ticks": 63744,
          "time": 117.176412,
          "velocity": 0.3937007874015748
        },
        {
          "duration": 0.17647050000000775,
          "durationTicks": 96,
          "midi": 36,
          "name": "C2",
          "ticks": 63744,
          "time": 117.176412,
          "velocity": 0.3937007874015748
        },
        {
          "duration": 0.17647050000000775,
          "durationTicks": 96,
          "midi": 43,
          "name": "G2",
          "ticks": 63744,
          "time": 117.176412,
          "velocity": 0.3937007874015748
        },
        {
          "duration": 0.17647049999999354,
          "durationTicks": 96,
          "midi": 35,
          "name": "B1",
          "ticks": 64128,
          "time": 117.882294,
          "velocity": 0.3937007874015748
        },
        {
          "duration": 0.17647049999999354,
          "durationTicks": 96,
          "midi": 36,
          "name": "C2",
          "ticks": 64128,
          "time": 117.882294,
          "velocity": 0.3937007874015748
        },
        {
          "duration": 0.17647049999999354,
          "durationTicks": 96,
          "midi": 43,
          "name": "G2",
          "ticks": 64128,
          "time": 117.882294,
          "velocity": 0.3937007874015748
        },
        {
          "duration": 0.17647049999999354,
          "durationTicks": 96,
          "midi": 35,
          "name": "B1",
          "ticks": 64512,
          "time": 118.588176,
          "velocity": 0.3937007874015748
        },
        {
          "duration": 0.17647049999999354,
          "durationTicks": 96,
          "midi": 36,
          "name": "C2",
          "ticks": 64512,
          "time": 118.588176,
          "velocity": 0.3937007874015748
        },
        {
          "duration": 0.17647049999999354,
          "durationTicks": 96,
          "midi": 43,
          "name": "G2",
          "ticks": 64512,
          "time": 118.588176,
          "velocity": 0.3937007874015748
        },
        {
          "duration": 0.17647049999999354,
          "durationTicks": 96,
          "midi": 35,
          "name": "B1",
          "ticks": 64896,
          "time": 119.294058,
          "velocity": 0.3937007874015748
        },
        {
          "duration": 0.17647049999999354,
          "durationTicks": 96,
          "midi": 36,
          "name": "C2",
          "ticks": 64896,
          "time": 119.294058,
          "velocity": 0.3937007874015748
        },
        {
          "duration": 0.17647049999999354,
          "durationTicks": 96,
          "midi": 43,
          "name": "G2",
          "ticks": 64896,
          "time": 119.294058,
          "velocity": 0.3937007874015748
        },
        {
          "duration": 0.17647050000000775,
          "durationTicks": 96,
          "midi": 35,
          "name": "B1",
          "ticks": 65280,
          "time": 119.99994,
          "velocity": 0.3937007874015748
        },
        {
          "duration": 0.17647050000000775,
          "durationTicks": 96,
          "midi": 36,
          "name": "C2",
          "ticks": 65280,
          "time": 119.99994,
          "velocity": 0.3937007874015748
        },
        {
          "duration": 0.17647050000000775,
          "durationTicks": 96,
          "midi": 43,
          "name": "G2",
          "ticks": 65280,
          "time": 119.99994,
          "velocity": 0.3937007874015748
        },
        {
          "duration": 0.17647050000000775,
          "durationTicks": 96,
          "midi": 35,
          "name": "B1",
          "ticks": 65664,
          "time": 120.705822,
          "velocity": 0.3937007874015748
        },
        {
          "duration": 0.17647050000000775,
          "durationTicks": 96,
          "midi": 36,
          "name": "C2",
          "ticks": 65664,
          "time": 120.705822,
          "velocity": 0.3937007874015748
        },
        {
          "duration": 0.17647050000000775,
          "durationTicks": 96,
          "midi": 43,
          "name": "G2",
          "ticks": 65664,
          "time": 120.705822,
          "velocity": 0.3937007874015748
        },
        {
          "duration": 0.17647050000000775,
          "durationTicks": 96,
          "midi": 35,
          "name": "B1",
          "ticks": 66048,
          "time": 121.411704,
          "velocity": 0.3937007874015748
        },
        {
          "duration": 0.17647050000000775,
          "durationTicks": 96,
          "midi": 36,
          "name": "C2",
          "ticks": 66048,
          "time": 121.411704,
          "velocity": 0.3937007874015748
        },
        {
          "duration": 0.17647050000000775,
          "durationTicks": 96,
          "midi": 43,
          "name": "G2",
          "ticks": 66048,
          "time": 121.411704,
          "velocity": 0.3937007874015748
        },
        {
          "duration": 0.17647049999999354,
          "durationTicks": 96,
          "midi": 35,
          "name": "B1",
          "ticks": 66432,
          "time": 122.117586,
          "velocity": 0.3937007874015748
        },
        {
          "duration": 0.17647049999999354,
          "durationTicks": 96,
          "midi": 36,
          "name": "C2",
          "ticks": 66432,
          "time": 122.117586,
          "velocity": 0.3937007874015748
        },
        {
          "duration": 0.17647049999999354,
          "durationTicks": 96,
          "midi": 43,
          "name": "G2",
          "ticks": 66432,
          "time": 122.117586,
          "velocity": 0.3937007874015748
        },
        {
          "duration": 0.17647049999999354,
          "durationTicks": 96,
          "midi": 35,
          "name": "B1",
          "ticks": 66816,
          "time": 122.823468,
          "velocity": 0.3937007874015748
        },
        {
          "duration": 0.17647049999999354,
          "durationTicks": 96,
          "midi": 36,
          "name": "C2",
          "ticks": 66816,
          "time": 122.823468,
          "velocity": 0.3937007874015748
        },
        {
          "duration": 0.17647049999999354,
          "durationTicks": 96,
          "midi": 43,
          "name": "G2",
          "ticks": 66816,
          "time": 122.823468,
          "velocity": 0.3937007874015748
        },
        {
          "duration": 0.17647049999999354,
          "durationTicks": 96,
          "midi": 35,
          "name": "B1",
          "ticks": 67200,
          "time": 123.52935000000001,
          "velocity": 0.3937007874015748
        },
        {
          "duration": 0.17647049999999354,
          "durationTicks": 96,
          "midi": 36,
          "name": "C2",
          "ticks": 67200,
          "time": 123.52935000000001,
          "velocity": 0.3937007874015748
        },
        {
          "duration": 0.17647049999999354,
          "durationTicks": 96,
          "midi": 43,
          "name": "G2",
          "ticks": 67200,
          "time": 123.52935000000001,
          "velocity": 0.3937007874015748
        },
        {
          "duration": 0.17647050000000775,
          "durationTicks": 96,
          "midi": 35,
          "name": "B1",
          "ticks": 67584,
          "time": 124.235232,
          "velocity": 0.3937007874015748
        },
        {
          "duration": 0.17647050000000775,
          "durationTicks": 96,
          "midi": 36,
          "name": "C2",
          "ticks": 67584,
          "time": 124.235232,
          "velocity": 0.3937007874015748
        },
        {
          "duration": 0.17647050000000775,
          "durationTicks": 96,
          "midi": 43,
          "name": "G2",
          "ticks": 67584,
          "time": 124.235232,
          "velocity": 0.3937007874015748
        },
        {
          "duration": 0.17647050000000775,
          "durationTicks": 96,
          "midi": 35,
          "name": "B1",
          "ticks": 67968,
          "time": 124.941114,
          "velocity": 0.3937007874015748
        },
        {
          "duration": 0.17647050000000775,
          "durationTicks": 96,
          "midi": 36,
          "name": "C2",
          "ticks": 67968,
          "time": 124.941114,
          "velocity": 0.3937007874015748
        },
        {
          "duration": 0.17647050000000775,
          "durationTicks": 96,
          "midi": 43,
          "name": "G2",
          "ticks": 67968,
          "time": 124.941114,
          "velocity": 0.3937007874015748
        },
        {
          "duration": 0.17647049999999354,
          "durationTicks": 96,
          "midi": 35,
          "name": "B1",
          "ticks": 68352,
          "time": 125.646996,
          "velocity": 0.3937007874015748
        },
        {
          "duration": 0.17647049999999354,
          "durationTicks": 96,
          "midi": 36,
          "name": "C2",
          "ticks": 68352,
          "time": 125.646996,
          "velocity": 0.3937007874015748
        },
        {
          "duration": 0.17647049999999354,
          "durationTicks": 96,
          "midi": 43,
          "name": "G2",
          "ticks": 68352,
          "time": 125.646996,
          "velocity": 0.3937007874015748
        },
        {
          "duration": 0.17647049999999354,
          "durationTicks": 96,
          "midi": 43,
          "name": "G2",
          "ticks": 68736,
          "time": 126.352878,
          "velocity": 0.3937007874015748
        },
        {
          "duration": 0.17647049999999354,
          "durationTicks": 96,
          "midi": 36,
          "name": "C2",
          "ticks": 68736,
          "time": 126.352878,
          "velocity": 0.3937007874015748
        },
        {
          "duration": 0.17647049999999354,
          "durationTicks": 96,
          "midi": 35,
          "name": "B1",
          "ticks": 68736,
          "time": 126.352878,
          "velocity": 0.3937007874015748
        },
        {
          "duration": 0.17647049999999354,
          "durationTicks": 96,
          "midi": 35,
          "name": "B1",
          "ticks": 69120,
          "time": 127.05876,
          "velocity": 0.3937007874015748
        },
        {
          "duration": 0.17647049999999354,
          "durationTicks": 96,
          "midi": 36,
          "name": "C2",
          "ticks": 69120,
          "time": 127.05876,
          "velocity": 0.3937007874015748
        },
        {
          "duration": 0.17647049999999354,
          "durationTicks": 96,
          "midi": 43,
          "name": "G2",
          "ticks": 69120,
          "time": 127.05876,
          "velocity": 0.3937007874015748
        },
        {
          "duration": 0.17647050000000775,
          "durationTicks": 96,
          "midi": 35,
          "name": "B1",
          "ticks": 69504,
          "time": 127.764642,
          "velocity": 0.3937007874015748
        },
        {
          "duration": 0.17647050000000775,
          "durationTicks": 96,
          "midi": 36,
          "name": "C2",
          "ticks": 69504,
          "time": 127.764642,
          "velocity": 0.3937007874015748
        },
        {
          "duration": 0.17647050000000775,
          "durationTicks": 96,
          "midi": 43,
          "name": "G2",
          "ticks": 69504,
          "time": 127.764642,
          "velocity": 0.3937007874015748
        },
        {
          "duration": 0.17647049999999354,
          "durationTicks": 96,
          "midi": 35,
          "name": "B1",
          "ticks": 69888,
          "time": 128.470524,
          "velocity": 0.3937007874015748
        },
        {
          "duration": 0.17647049999999354,
          "durationTicks": 96,
          "midi": 36,
          "name": "C2",
          "ticks": 69888,
          "time": 128.470524,
          "velocity": 0.3937007874015748
        },
        {
          "duration": 0.17647049999999354,
          "durationTicks": 96,
          "midi": 43,
          "name": "G2",
          "ticks": 69888,
          "time": 128.470524,
          "velocity": 0.3937007874015748
        },
        {
          "duration": 0.17647049999999354,
          "durationTicks": 96,
          "midi": 35,
          "name": "B1",
          "ticks": 70272,
          "time": 129.17640600000001,
          "velocity": 0.3937007874015748
        },
        {
          "duration": 0.17647049999999354,
          "durationTicks": 96,
          "midi": 36,
          "name": "C2",
          "ticks": 70272,
          "time": 129.17640600000001,
          "velocity": 0.3937007874015748
        },
        {
          "duration": 0.17647049999999354,
          "durationTicks": 96,
          "midi": 43,
          "name": "G2",
          "ticks": 70272,
          "time": 129.17640600000001,
          "velocity": 0.3937007874015748
        },
        {
          "duration": 0.17647050000002196,
          "durationTicks": 96,
          "midi": 35,
          "name": "B1",
          "ticks": 70656,
          "time": 129.882288,
          "velocity": 0.3937007874015748
        },
        {
          "duration": 0.17647050000002196,
          "durationTicks": 96,
          "midi": 36,
          "name": "C2",
          "ticks": 70656,
          "time": 129.882288,
          "velocity": 0.3937007874015748
        },
        {
          "duration": 0.17647050000002196,
          "durationTicks": 96,
          "midi": 43,
          "name": "G2",
          "ticks": 70656,
          "time": 129.882288,
          "velocity": 0.3937007874015748
        },
        {
          "duration": 0.17647050000002196,
          "durationTicks": 96,
          "midi": 35,
          "name": "B1",
          "ticks": 71040,
          "time": 130.58817,
          "velocity": 0.3937007874015748
        },
        {
          "duration": 0.17647050000002196,
          "durationTicks": 96,
          "midi": 36,
          "name": "C2",
          "ticks": 71040,
          "time": 130.58817,
          "velocity": 0.3937007874015748
        },
        {
          "duration": 0.17647050000002196,
          "durationTicks": 96,
          "midi": 43,
          "name": "G2",
          "ticks": 71040,
          "time": 130.58817,
          "velocity": 0.3937007874015748
        },
        {
          "duration": 0.17647050000002196,
          "durationTicks": 96,
          "midi": 35,
          "name": "B1",
          "ticks": 71424,
          "time": 131.294052,
          "velocity": 0.3937007874015748
        },
        {
          "duration": 0.17647050000002196,
          "durationTicks": 96,
          "midi": 36,
          "name": "C2",
          "ticks": 71424,
          "time": 131.294052,
          "velocity": 0.3937007874015748
        },
        {
          "duration": 0.17647050000002196,
          "durationTicks": 96,
          "midi": 43,
          "name": "G2",
          "ticks": 71424,
          "time": 131.294052,
          "velocity": 0.3937007874015748
        },
        {
          "duration": 0.17647049999999354,
          "durationTicks": 96,
          "midi": 35,
          "name": "B1",
          "ticks": 71808,
          "time": 131.999934,
          "velocity": 0.3937007874015748
        },
        {
          "duration": 0.17647049999999354,
          "durationTicks": 96,
          "midi": 36,
          "name": "C2",
          "ticks": 71808,
          "time": 131.999934,
          "velocity": 0.3937007874015748
        },
        {
          "duration": 0.17647049999999354,
          "durationTicks": 96,
          "midi": 43,
          "name": "G2",
          "ticks": 71808,
          "time": 131.999934,
          "velocity": 0.3937007874015748
        },
        {
          "duration": 0.17647049999999354,
          "durationTicks": 96,
          "midi": 35,
          "name": "B1",
          "ticks": 72192,
          "time": 132.705816,
          "velocity": 0.3937007874015748
        },
        {
          "duration": 0.17647049999999354,
          "durationTicks": 96,
          "midi": 36,
          "name": "C2",
          "ticks": 72192,
          "time": 132.705816,
          "velocity": 0.3937007874015748
        },
        {
          "duration": 0.17647049999999354,
          "durationTicks": 96,
          "midi": 43,
          "name": "G2",
          "ticks": 72192,
          "time": 132.705816,
          "velocity": 0.3937007874015748
        },
        {
          "duration": 0.17647049999999354,
          "durationTicks": 96,
          "midi": 35,
          "name": "B1",
          "ticks": 72576,
          "time": 133.411698,
          "velocity": 0.3937007874015748
        },
        {
          "duration": 0.17647049999999354,
          "durationTicks": 96,
          "midi": 36,
          "name": "C2",
          "ticks": 72576,
          "time": 133.411698,
          "velocity": 0.3937007874015748
        },
        {
          "duration": 0.17647049999999354,
          "durationTicks": 96,
          "midi": 43,
          "name": "G2",
          "ticks": 72576,
          "time": 133.411698,
          "velocity": 0.3937007874015748
        },
        {
          "duration": 0.17647049999999354,
          "durationTicks": 96,
          "midi": 35,
          "name": "B1",
          "ticks": 72960,
          "time": 134.11758,
          "velocity": 0.3937007874015748
        },
        {
          "duration": 0.17647049999999354,
          "durationTicks": 96,
          "midi": 36,
          "name": "C2",
          "ticks": 72960,
          "time": 134.11758,
          "velocity": 0.3937007874015748
        },
        {
          "duration": 0.17647049999999354,
          "durationTicks": 96,
          "midi": 43,
          "name": "G2",
          "ticks": 72960,
          "time": 134.11758,
          "velocity": 0.3937007874015748
        },
        {
          "duration": 0.17647049999999354,
          "durationTicks": 96,
          "midi": 35,
          "name": "B1",
          "ticks": 73344,
          "time": 134.823462,
          "velocity": 0.3937007874015748
        },
        {
          "duration": 0.17647049999999354,
          "durationTicks": 96,
          "midi": 36,
          "name": "C2",
          "ticks": 73344,
          "time": 134.823462,
          "velocity": 0.3937007874015748
        },
        {
          "duration": 0.17647049999999354,
          "durationTicks": 96,
          "midi": 43,
          "name": "G2",
          "ticks": 73344,
          "time": 134.823462,
          "velocity": 0.3937007874015748
        },
        {
          "duration": 0.17647049999999354,
          "durationTicks": 96,
          "midi": 39,
          "name": "D#2",
          "ticks": 73344,
          "time": 134.823462,
          "velocity": 0.3937007874015748
        },
        {
          "duration": 0.17647049999999354,
          "durationTicks": 96,
          "midi": 43,
          "name": "G2",
          "ticks": 73440,
          "time": 134.9999325,
          "velocity": 0.3937007874015748
        },
        {
          "duration": 0.17647049999999354,
          "durationTicks": 96,
          "midi": 49,
          "name": "C#3",
          "ticks": 73632,
          "time": 135.35287350000002,
          "velocity": 0.3937007874015748
        },
        {
          "duration": 0.17647049999999354,
          "durationTicks": 96,
          "midi": 36,
          "name": "C2",
          "ticks": 73728,
          "time": 135.529344,
          "velocity": 0.3937007874015748
        },
        {
          "duration": 0.17647049999999354,
          "durationTicks": 96,
          "midi": 35,
          "name": "B1",
          "ticks": 73728,
          "time": 135.529344,
          "velocity": 0.3937007874015748
        },
        {
          "duration": 0.17647049999999354,
          "durationTicks": 96,
          "midi": 38,
          "name": "D2",
          "ticks": 73728,
          "time": 135.529344,
          "velocity": 0.3937007874015748
        },
        {
          "duration": 0.17647049999999354,
          "durationTicks": 96,
          "midi": 28,
          "name": "E1",
          "ticks": 73824,
          "time": 135.7058145,
          "velocity": 0.3937007874015748
        },
        {
          "duration": 0.17647049999999354,
          "durationTicks": 96,
          "midi": 28,
          "name": "E1",
          "ticks": 73920,
          "time": 135.882285,
          "velocity": 0.3937007874015748
        },
        {
          "duration": 0.17647050000002196,
          "durationTicks": 96,
          "midi": 28,
          "name": "E1",
          "ticks": 74016,
          "time": 136.0587555,
          "velocity": 0.3937007874015748
        },
        {
          "duration": 0.17647049999999354,
          "durationTicks": 96,
          "midi": 35,
          "name": "B1",
          "ticks": 74112,
          "time": 136.235226,
          "velocity": 0.3937007874015748
        },
        {
          "duration": 0.17647049999999354,
          "durationTicks": 96,
          "midi": 36,
          "name": "C2",
          "ticks": 74112,
          "time": 136.235226,
          "velocity": 0.3937007874015748
        },
        {
          "duration": 0.17647049999999354,
          "durationTicks": 96,
          "midi": 40,
          "name": "E2",
          "ticks": 74112,
          "time": 136.235226,
          "velocity": 0.3937007874015748
        },
        {
          "duration": 0.17647049999999354,
          "durationTicks": 96,
          "midi": 28,
          "name": "E1",
          "ticks": 74208,
          "time": 136.4116965,
          "velocity": 0.3937007874015748
        },
        {
          "duration": 0.17647049999999354,
          "durationTicks": 96,
          "midi": 28,
          "name": "E1",
          "ticks": 74304,
          "time": 136.588167,
          "velocity": 0.3937007874015748
        },
        {
          "duration": 0.17647050000002196,
          "durationTicks": 96,
          "midi": 28,
          "name": "E1",
          "ticks": 74400,
          "time": 136.7646375,
          "velocity": 0.3937007874015748
        },
        {
          "duration": 0.17647049999999354,
          "durationTicks": 96,
          "midi": 35,
          "name": "B1",
          "ticks": 74496,
          "time": 136.941108,
          "velocity": 0.3937007874015748
        },
        {
          "duration": 0.17647049999999354,
          "durationTicks": 96,
          "midi": 36,
          "name": "C2",
          "ticks": 74496,
          "time": 136.941108,
          "velocity": 0.3937007874015748
        },
        {
          "duration": 0.17647049999999354,
          "durationTicks": 96,
          "midi": 38,
          "name": "D2",
          "ticks": 74496,
          "time": 136.941108,
          "velocity": 0.3937007874015748
        },
        {
          "duration": 0.17647049999999354,
          "durationTicks": 96,
          "midi": 28,
          "name": "E1",
          "ticks": 74592,
          "time": 137.1175785,
          "velocity": 0.3937007874015748
        },
        {
          "duration": 0.17647049999999354,
          "durationTicks": 96,
          "midi": 28,
          "name": "E1",
          "ticks": 74688,
          "time": 137.294049,
          "velocity": 0.3937007874015748
        },
        {
          "duration": 0.17647049999999354,
          "durationTicks": 96,
          "midi": 28,
          "name": "E1",
          "ticks": 74784,
          "time": 137.4705195,
          "velocity": 0.3937007874015748
        },
        {
          "duration": 0.17647050000002196,
          "durationTicks": 96,
          "midi": 36,
          "name": "C2",
          "ticks": 74880,
          "time": 137.64699,
          "velocity": 0.3937007874015748
        },
        {
          "duration": 0.17647050000002196,
          "durationTicks": 96,
          "midi": 35,
          "name": "B1",
          "ticks": 74880,
          "time": 137.64699,
          "velocity": 0.3937007874015748
        },
        {
          "duration": 0.17647050000002196,
          "durationTicks": 96,
          "midi": 40,
          "name": "E2",
          "ticks": 74880,
          "time": 137.64699,
          "velocity": 0.3937007874015748
        },
        {
          "duration": 0.17647049999999354,
          "durationTicks": 96,
          "midi": 28,
          "name": "E1",
          "ticks": 74976,
          "time": 137.8234605,
          "velocity": 0.3937007874015748
        },
        {
          "duration": 0.17647049999999354,
          "durationTicks": 96,
          "midi": 28,
          "name": "E1",
          "ticks": 75072,
          "time": 137.999931,
          "velocity": 0.3937007874015748
        },
        {
          "duration": 0.17647049999999354,
          "durationTicks": 96,
          "midi": 28,
          "name": "E1",
          "ticks": 75168,
          "time": 138.1764015,
          "velocity": 0.3937007874015748
        },
        {
          "duration": 0.17647050000002196,
          "durationTicks": 96,
          "midi": 35,
          "name": "B1",
          "ticks": 75264,
          "time": 138.352872,
          "velocity": 0.3937007874015748
        },
        {
          "duration": 0.17647050000002196,
          "durationTicks": 96,
          "midi": 36,
          "name": "C2",
          "ticks": 75264,
          "time": 138.352872,
          "velocity": 0.3937007874015748
        },
        {
          "duration": 0.17647050000002196,
          "durationTicks": 96,
          "midi": 38,
          "name": "D2",
          "ticks": 75264,
          "time": 138.352872,
          "velocity": 0.3937007874015748
        },
        {
          "duration": 0.17647049999999354,
          "durationTicks": 96,
          "midi": 28,
          "name": "E1",
          "ticks": 75360,
          "time": 138.5293425,
          "velocity": 0.3937007874015748
        },
        {
          "duration": 0.17647049999999354,
          "durationTicks": 96,
          "midi": 28,
          "name": "E1",
          "ticks": 75456,
          "time": 138.705813,
          "velocity": 0.3937007874015748
        },
        {
          "duration": 0.17647049999999354,
          "durationTicks": 96,
          "midi": 28,
          "name": "E1",
          "ticks": 75552,
          "time": 138.8822835,
          "velocity": 0.3937007874015748
        },
        {
          "duration": 0.17647050000002196,
          "durationTicks": 96,
          "midi": 35,
          "name": "B1",
          "ticks": 75648,
          "time": 139.058754,
          "velocity": 0.3937007874015748
        },
        {
          "duration": 0.17647050000002196,
          "durationTicks": 96,
          "midi": 36,
          "name": "C2",
          "ticks": 75648,
          "time": 139.058754,
          "velocity": 0.3937007874015748
        },
        {
          "duration": 0.17647050000002196,
          "durationTicks": 96,
          "midi": 40,
          "name": "E2",
          "ticks": 75648,
          "time": 139.058754,
          "velocity": 0.3937007874015748
        },
        {
          "duration": 0.17647049999999354,
          "durationTicks": 96,
          "midi": 28,
          "name": "E1",
          "ticks": 75744,
          "time": 139.23522450000002,
          "velocity": 0.3937007874015748
        },
        {
          "duration": 0.17647049999999354,
          "durationTicks": 96,
          "midi": 28,
          "name": "E1",
          "ticks": 75840,
          "time": 139.411695,
          "velocity": 0.3937007874015748
        },
        {
          "duration": 0.17647049999999354,
          "durationTicks": 96,
          "midi": 28,
          "name": "E1",
          "ticks": 75936,
          "time": 139.5881655,
          "velocity": 0.3937007874015748
        },
        {
          "duration": 0.17647049999999354,
          "durationTicks": 96,
          "midi": 35,
          "name": "B1",
          "ticks": 76032,
          "time": 139.764636,
          "velocity": 0.3937007874015748
        },
        {
          "duration": 0.17647049999999354,
          "durationTicks": 96,
          "midi": 36,
          "name": "C2",
          "ticks": 76032,
          "time": 139.764636,
          "velocity": 0.3937007874015748
        },
        {
          "duration": 0.17647049999999354,
          "durationTicks": 96,
          "midi": 38,
          "name": "D2",
          "ticks": 76032,
          "time": 139.764636,
          "velocity": 0.3937007874015748
        },
        {
          "duration": 0.17647050000002196,
          "durationTicks": 96,
          "midi": 28,
          "name": "E1",
          "ticks": 76128,
          "time": 139.9411065,
          "velocity": 0.3937007874015748
        },
        {
          "duration": 0.17647049999999354,
          "durationTicks": 96,
          "midi": 28,
          "name": "E1",
          "ticks": 76224,
          "time": 140.117577,
          "velocity": 0.3937007874015748
        },
        {
          "duration": 0.17647049999999354,
          "durationTicks": 96,
          "midi": 28,
          "name": "E1",
          "ticks": 76320,
          "time": 140.2940475,
          "velocity": 0.3937007874015748
        },
        {
          "duration": 0.17647049999999354,
          "durationTicks": 96,
          "midi": 35,
          "name": "B1",
          "ticks": 76416,
          "time": 140.470518,
          "velocity": 0.3937007874015748
        },
        {
          "duration": 0.17647049999999354,
          "durationTicks": 96,
          "midi": 36,
          "name": "C2",
          "ticks": 76416,
          "time": 140.470518,
          "velocity": 0.3937007874015748
        },
        {
          "duration": 0.17647049999999354,
          "durationTicks": 96,
          "midi": 40,
          "name": "E2",
          "ticks": 76416,
          "time": 140.470518,
          "velocity": 0.3937007874015748
        },
        {
          "duration": 0.17647050000002196,
          "durationTicks": 96,
          "midi": 28,
          "name": "E1",
          "ticks": 76512,
          "time": 140.6469885,
          "velocity": 0.3937007874015748
        },
        {
          "duration": 0.17647049999999354,
          "durationTicks": 96,
          "midi": 28,
          "name": "E1",
          "ticks": 76608,
          "time": 140.823459,
          "velocity": 0.3937007874015748
        },
        {
          "duration": 0.17647049999999354,
          "durationTicks": 96,
          "midi": 28,
          "name": "E1",
          "ticks": 76704,
          "time": 140.9999295,
          "velocity": 0.3937007874015748
        },
        {
          "duration": 0.17647049999999354,
          "durationTicks": 96,
          "midi": 35,
          "name": "B1",
          "ticks": 76800,
          "time": 141.1764,
          "velocity": 0.3937007874015748
        },
        {
          "duration": 0.17647049999999354,
          "durationTicks": 96,
          "midi": 36,
          "name": "C2",
          "ticks": 76800,
          "time": 141.1764,
          "velocity": 0.3937007874015748
        },
        {
          "duration": 0.17647049999999354,
          "durationTicks": 96,
          "midi": 38,
          "name": "D2",
          "ticks": 76800,
          "time": 141.1764,
          "velocity": 0.3937007874015748
        },
        {
          "duration": 0.17647049999999354,
          "durationTicks": 96,
          "midi": 28,
          "name": "E1",
          "ticks": 76896,
          "time": 141.3528705,
          "velocity": 0.3937007874015748
        },
        {
          "duration": 0.17647050000002196,
          "durationTicks": 96,
          "midi": 28,
          "name": "E1",
          "ticks": 76992,
          "time": 141.529341,
          "velocity": 0.3937007874015748
        },
        {
          "duration": 0.17647049999999354,
          "durationTicks": 96,
          "midi": 28,
          "name": "E1",
          "ticks": 77088,
          "time": 141.7058115,
          "velocity": 0.3937007874015748
        },
        {
          "duration": 0.17647049999999354,
          "durationTicks": 96,
          "midi": 35,
          "name": "B1",
          "ticks": 77184,
          "time": 141.882282,
          "velocity": 0.3937007874015748
        },
        {
          "duration": 0.17647049999999354,
          "durationTicks": 96,
          "midi": 36,
          "name": "C2",
          "ticks": 77184,
          "time": 141.882282,
          "velocity": 0.3937007874015748
        },
        {
          "duration": 0.17647049999999354,
          "durationTicks": 96,
          "midi": 40,
          "name": "E2",
          "ticks": 77184,
          "time": 141.882282,
          "velocity": 0.3937007874015748
        },
        {
          "duration": 0.17647049999999354,
          "durationTicks": 96,
          "midi": 28,
          "name": "E1",
          "ticks": 77280,
          "time": 142.0587525,
          "velocity": 0.3937007874015748
        },
        {
          "duration": 0.17647050000002196,
          "durationTicks": 96,
          "midi": 28,
          "name": "E1",
          "ticks": 77376,
          "time": 142.235223,
          "velocity": 0.3937007874015748
        },
        {
          "duration": 0.17647049999999354,
          "durationTicks": 96,
          "midi": 28,
          "name": "E1",
          "ticks": 77472,
          "time": 142.4116935,
          "velocity": 0.3937007874015748
        },
        {
          "duration": 0.17647049999999354,
          "durationTicks": 96,
          "midi": 35,
          "name": "B1",
          "ticks": 77568,
          "time": 142.588164,
          "velocity": 0.3937007874015748
        },
        {
          "duration": 0.17647049999999354,
          "durationTicks": 96,
          "midi": 36,
          "name": "C2",
          "ticks": 77568,
          "time": 142.588164,
          "velocity": 0.3937007874015748
        },
        {
          "duration": 0.17647049999999354,
          "durationTicks": 96,
          "midi": 38,
          "name": "D2",
          "ticks": 77568,
          "time": 142.588164,
          "velocity": 0.3937007874015748
        },
        {
          "duration": 0.17647049999999354,
          "durationTicks": 96,
          "midi": 28,
          "name": "E1",
          "ticks": 77664,
          "time": 142.7646345,
          "velocity": 0.3937007874015748
        },
        {
          "duration": 0.17647050000002196,
          "durationTicks": 96,
          "midi": 28,
          "name": "E1",
          "ticks": 77760,
          "time": 142.941105,
          "velocity": 0.3937007874015748
        },
        {
          "duration": 0.17647049999999354,
          "durationTicks": 96,
          "midi": 28,
          "name": "E1",
          "ticks": 77856,
          "time": 143.11757550000002,
          "velocity": 0.3937007874015748
        },
        {
          "duration": 0.17647049999999354,
          "durationTicks": 96,
          "midi": 35,
          "name": "B1",
          "ticks": 77952,
          "time": 143.294046,
          "velocity": 0.3937007874015748
        },
        {
          "duration": 0.17647049999999354,
          "durationTicks": 96,
          "midi": 36,
          "name": "C2",
          "ticks": 77952,
          "time": 143.294046,
          "velocity": 0.3937007874015748
        },
        {
          "duration": 0.17647049999999354,
          "durationTicks": 96,
          "midi": 40,
          "name": "E2",
          "ticks": 77952,
          "time": 143.294046,
          "velocity": 0.3937007874015748
        },
        {
          "duration": 0.17647049999999354,
          "durationTicks": 96,
          "midi": 28,
          "name": "E1",
          "ticks": 78048,
          "time": 143.4705165,
          "velocity": 0.3937007874015748
        },
        {
          "duration": 0.17647049999999354,
          "durationTicks": 96,
          "midi": 28,
          "name": "E1",
          "ticks": 78144,
          "time": 143.646987,
          "velocity": 0.3937007874015748
        },
        {
          "duration": 0.17647050000002196,
          "durationTicks": 96,
          "midi": 28,
          "name": "E1",
          "ticks": 78240,
          "time": 143.8234575,
          "velocity": 0.3937007874015748
        },
        {
          "duration": 0.17647049999999354,
          "durationTicks": 96,
          "midi": 35,
          "name": "B1",
          "ticks": 78336,
          "time": 143.999928,
          "velocity": 0.3937007874015748
        },
        {
          "duration": 0.17647049999999354,
          "durationTicks": 96,
          "midi": 36,
          "name": "C2",
          "ticks": 78336,
          "time": 143.999928,
          "velocity": 0.3937007874015748
        },
        {
          "duration": 0.17647049999999354,
          "durationTicks": 96,
          "midi": 38,
          "name": "D2",
          "ticks": 78336,
          "time": 143.999928,
          "velocity": 0.3937007874015748
        },
        {
          "duration": 0.17647049999999354,
          "durationTicks": 96,
          "midi": 28,
          "name": "E1",
          "ticks": 78432,
          "time": 144.1763985,
          "velocity": 0.3937007874015748
        },
        {
          "duration": 0.17647049999999354,
          "durationTicks": 96,
          "midi": 28,
          "name": "E1",
          "ticks": 78528,
          "time": 144.352869,
          "velocity": 0.3937007874015748
        },
        {
          "duration": 0.17647050000002196,
          "durationTicks": 96,
          "midi": 28,
          "name": "E1",
          "ticks": 78624,
          "time": 144.5293395,
          "velocity": 0.3937007874015748
        },
        {
          "duration": 0.17647049999999354,
          "durationTicks": 96,
          "midi": 35,
          "name": "B1",
          "ticks": 78720,
          "time": 144.70581,
          "velocity": 0.3937007874015748
        },
        {
          "duration": 0.17647049999999354,
          "durationTicks": 96,
          "midi": 36,
          "name": "C2",
          "ticks": 78720,
          "time": 144.70581,
          "velocity": 0.3937007874015748
        },
        {
          "duration": 0.17647049999999354,
          "durationTicks": 96,
          "midi": 40,
          "name": "E2",
          "ticks": 78720,
          "time": 144.70581,
          "velocity": 0.3937007874015748
        },
        {
          "duration": 0.17647049999999354,
          "durationTicks": 96,
          "midi": 28,
          "name": "E1",
          "ticks": 78816,
          "time": 144.8822805,
          "velocity": 0.3937007874015748
        },
        {
          "duration": 0.17647049999999354,
          "durationTicks": 96,
          "midi": 28,
          "name": "E1",
          "ticks": 78912,
          "time": 145.058751,
          "velocity": 0.3937007874015748
        },
        {
          "duration": 0.17647049999999354,
          "durationTicks": 96,
          "midi": 28,
          "name": "E1",
          "ticks": 79008,
          "time": 145.2352215,
          "velocity": 0.3937007874015748
        },
        {
          "duration": 0.17647050000002196,
          "durationTicks": 96,
          "midi": 35,
          "name": "B1",
          "ticks": 79104,
          "time": 145.411692,
          "velocity": 0.3937007874015748
        },
        {
          "duration": 0.17647050000002196,
          "durationTicks": 96,
          "midi": 36,
          "name": "C2",
          "ticks": 79104,
          "time": 145.411692,
          "velocity": 0.3937007874015748
        },
        {
          "duration": 0.17647050000002196,
          "durationTicks": 96,
          "midi": 38,
          "name": "D2",
          "ticks": 79104,
          "time": 145.411692,
          "velocity": 0.3937007874015748
        },
        {
          "duration": 0.17647049999999354,
          "durationTicks": 96,
          "midi": 28,
          "name": "E1",
          "ticks": 79200,
          "time": 145.5881625,
          "velocity": 0.3937007874015748
        },
        {
          "duration": 0.17647049999999354,
          "durationTicks": 96,
          "midi": 28,
          "name": "E1",
          "ticks": 79296,
          "time": 145.764633,
          "velocity": 0.3937007874015748
        },
        {
          "duration": 0.17647049999999354,
          "durationTicks": 96,
          "midi": 28,
          "name": "E1",
          "ticks": 79392,
          "time": 145.9411035,
          "velocity": 0.3937007874015748
        },
        {
          "duration": 0.17647050000002196,
          "durationTicks": 96,
          "midi": 35,
          "name": "B1",
          "ticks": 79488,
          "time": 146.117574,
          "velocity": 0.3937007874015748
        },
        {
          "duration": 0.17647050000002196,
          "durationTicks": 96,
          "midi": 36,
          "name": "C2",
          "ticks": 79488,
          "time": 146.117574,
          "velocity": 0.3937007874015748
        },
        {
          "duration": 0.17647050000002196,
          "durationTicks": 96,
          "midi": 40,
          "name": "E2",
          "ticks": 79488,
          "time": 146.117574,
          "velocity": 0.3937007874015748
        },
        {
          "duration": 0.17647049999999354,
          "durationTicks": 96,
          "midi": 28,
          "name": "E1",
          "ticks": 79584,
          "time": 146.2940445,
          "velocity": 0.3937007874015748
        },
        {
          "duration": 0.17647049999999354,
          "durationTicks": 96,
          "midi": 28,
          "name": "E1",
          "ticks": 79680,
          "time": 146.470515,
          "velocity": 0.3937007874015748
        },
        {
          "duration": 0.17647049999999354,
          "durationTicks": 96,
          "midi": 28,
          "name": "E1",
          "ticks": 79776,
          "time": 146.6469855,
          "velocity": 0.3937007874015748
        },
        {
          "duration": 0.17647050000002196,
          "durationTicks": 96,
          "midi": 35,
          "name": "B1",
          "ticks": 79872,
          "time": 146.823456,
          "velocity": 0.3937007874015748
        },
        {
          "duration": 0.17647050000002196,
          "durationTicks": 96,
          "midi": 36,
          "name": "C2",
          "ticks": 79872,
          "time": 146.823456,
          "velocity": 0.3937007874015748
        },
        {
          "duration": 0.17647050000002196,
          "durationTicks": 96,
          "midi": 38,
          "name": "D2",
          "ticks": 79872,
          "time": 146.823456,
          "velocity": 0.3937007874015748
        },
        {
          "duration": 0.17647049999999354,
          "durationTicks": 96,
          "midi": 28,
          "name": "E1",
          "ticks": 79968,
          "time": 146.99992650000002,
          "velocity": 0.3937007874015748
        },
        {
          "duration": 0.17647049999999354,
          "durationTicks": 96,
          "midi": 28,
          "name": "E1",
          "ticks": 80064,
          "time": 147.176397,
          "velocity": 0.3937007874015748
        },
        {
          "duration": 0.17647049999999354,
          "durationTicks": 96,
          "midi": 28,
          "name": "E1",
          "ticks": 80160,
          "time": 147.3528675,
          "velocity": 0.3937007874015748
        },
        {
          "duration": 0.17647049999999354,
          "durationTicks": 96,
          "midi": 35,
          "name": "B1",
          "ticks": 80256,
          "time": 147.529338,
          "velocity": 0.3937007874015748
        },
        {
          "duration": 0.17647049999999354,
          "durationTicks": 96,
          "midi": 36,
          "name": "C2",
          "ticks": 80256,
          "time": 147.529338,
          "velocity": 0.3937007874015748
        },
        {
          "duration": 0.17647049999999354,
          "durationTicks": 96,
          "midi": 40,
          "name": "E2",
          "ticks": 80256,
          "time": 147.529338,
          "velocity": 0.3937007874015748
        },
        {
          "duration": 0.17647050000002196,
          "durationTicks": 96,
          "midi": 28,
          "name": "E1",
          "ticks": 80352,
          "time": 147.7058085,
          "velocity": 0.3937007874015748
        },
        {
          "duration": 0.17647049999999354,
          "durationTicks": 96,
          "midi": 28,
          "name": "E1",
          "ticks": 80448,
          "time": 147.882279,
          "velocity": 0.3937007874015748
        },
        {
          "duration": 0.17647049999999354,
          "durationTicks": 96,
          "midi": 28,
          "name": "E1",
          "ticks": 80544,
          "time": 148.0587495,
          "velocity": 0.3937007874015748
        },
        {
          "duration": 0.17647049999999354,
          "durationTicks": 96,
          "midi": 35,
          "name": "B1",
          "ticks": 80640,
          "time": 148.23522,
          "velocity": 0.3937007874015748
        },
        {
          "duration": 0.17647049999999354,
          "durationTicks": 96,
          "midi": 36,
          "name": "C2",
          "ticks": 80640,
          "time": 148.23522,
          "velocity": 0.3937007874015748
        },
        {
          "duration": 0.17647049999999354,
          "durationTicks": 96,
          "midi": 38,
          "name": "D2",
          "ticks": 80640,
          "time": 148.23522,
          "velocity": 0.3937007874015748
        },
        {
          "duration": 0.17647050000002196,
          "durationTicks": 96,
          "midi": 28,
          "name": "E1",
          "ticks": 80736,
          "time": 148.4116905,
          "velocity": 0.3937007874015748
        },
        {
          "duration": 0.17647049999999354,
          "durationTicks": 96,
          "midi": 28,
          "name": "E1",
          "ticks": 80832,
          "time": 148.588161,
          "velocity": 0.3937007874015748
        },
        {
          "duration": 0.17647049999999354,
          "durationTicks": 96,
          "midi": 28,
          "name": "E1",
          "ticks": 80928,
          "time": 148.7646315,
          "velocity": 0.3937007874015748
        },
        {
          "duration": 0.17647049999999354,
          "durationTicks": 96,
          "midi": 35,
          "name": "B1",
          "ticks": 81024,
          "time": 148.941102,
          "velocity": 0.3937007874015748
        },
        {
          "duration": 0.17647049999999354,
          "durationTicks": 96,
          "midi": 36,
          "name": "C2",
          "ticks": 81024,
          "time": 148.941102,
          "velocity": 0.3937007874015748
        },
        {
          "duration": 0.17647049999999354,
          "durationTicks": 96,
          "midi": 40,
          "name": "E2",
          "ticks": 81024,
          "time": 148.941102,
          "velocity": 0.3937007874015748
        },
        {
          "duration": 0.17647049999999354,
          "durationTicks": 96,
          "midi": 28,
          "name": "E1",
          "ticks": 81120,
          "time": 149.1175725,
          "velocity": 0.3937007874015748
        },
        {
          "duration": 0.17647050000002196,
          "durationTicks": 96,
          "midi": 28,
          "name": "E1",
          "ticks": 81216,
          "time": 149.294043,
          "velocity": 0.3937007874015748
        },
        {
          "duration": 0.17647049999999354,
          "durationTicks": 96,
          "midi": 28,
          "name": "E1",
          "ticks": 81312,
          "time": 149.4705135,
          "velocity": 0.3937007874015748
        },
        {
          "duration": 0.17647049999999354,
          "durationTicks": 96,
          "midi": 35,
          "name": "B1",
          "ticks": 81408,
          "time": 149.646984,
          "velocity": 0.3937007874015748
        },
        {
          "duration": 0.17647049999999354,
          "durationTicks": 96,
          "midi": 36,
          "name": "C2",
          "ticks": 81408,
          "time": 149.646984,
          "velocity": 0.3937007874015748
        },
        {
          "duration": 0.17647049999999354,
          "durationTicks": 96,
          "midi": 38,
          "name": "D2",
          "ticks": 81408,
          "time": 149.646984,
          "velocity": 0.3937007874015748
        },
        {
          "duration": 0.17647049999999354,
          "durationTicks": 96,
          "midi": 28,
          "name": "E1",
          "ticks": 81504,
          "time": 149.8234545,
          "velocity": 0.3937007874015748
        },
        {
          "duration": 0.17647050000002196,
          "durationTicks": 96,
          "midi": 28,
          "name": "E1",
          "ticks": 81600,
          "time": 149.999925,
          "velocity": 0.3937007874015748
        },
        {
          "duration": 0.17647049999999354,
          "durationTicks": 96,
          "midi": 28,
          "name": "E1",
          "ticks": 81696,
          "time": 150.1763955,
          "velocity": 0.3937007874015748
        },
        {
          "duration": 0.17647049999999354,
          "durationTicks": 96,
          "midi": 35,
          "name": "B1",
          "ticks": 81792,
          "time": 150.352866,
          "velocity": 0.3937007874015748
        },
        {
          "duration": 0.17647049999999354,
          "durationTicks": 96,
          "midi": 36,
          "name": "C2",
          "ticks": 81792,
          "time": 150.352866,
          "velocity": 0.3937007874015748
        },
        {
          "duration": 0.17647049999999354,
          "durationTicks": 96,
          "midi": 40,
          "name": "E2",
          "ticks": 81792,
          "time": 150.352866,
          "velocity": 0.3937007874015748
        },
        {
          "duration": 0.17647049999999354,
          "durationTicks": 96,
          "midi": 28,
          "name": "E1",
          "ticks": 81888,
          "time": 150.5293365,
          "velocity": 0.3937007874015748
        },
        {
          "duration": 0.17647050000002196,
          "durationTicks": 96,
          "midi": 28,
          "name": "E1",
          "ticks": 81984,
          "time": 150.705807,
          "velocity": 0.3937007874015748
        },
        {
          "duration": 0.17647049999999354,
          "durationTicks": 96,
          "midi": 28,
          "name": "E1",
          "ticks": 82080,
          "time": 150.88227750000001,
          "velocity": 0.3937007874015748
        },
        {
          "duration": 0.17647049999999354,
          "durationTicks": 96,
          "midi": 35,
          "name": "B1",
          "ticks": 82176,
          "time": 151.058748,
          "velocity": 0.3937007874015748
        },
        {
          "duration": 0.17647049999999354,
          "durationTicks": 96,
          "midi": 36,
          "name": "C2",
          "ticks": 82176,
          "time": 151.058748,
          "velocity": 0.3937007874015748
        },
        {
          "duration": 0.17647049999999354,
          "durationTicks": 96,
          "midi": 38,
          "name": "D2",
          "ticks": 82176,
          "time": 151.058748,
          "velocity": 0.3937007874015748
        },
        {
          "duration": 0.17647049999999354,
          "durationTicks": 96,
          "midi": 28,
          "name": "E1",
          "ticks": 82272,
          "time": 151.2352185,
          "velocity": 0.3937007874015748
        },
        {
          "duration": 0.17647049999999354,
          "durationTicks": 96,
          "midi": 28,
          "name": "E1",
          "ticks": 82368,
          "time": 151.411689,
          "velocity": 0.3937007874015748
        },
        {
          "duration": 0.17647050000002196,
          "durationTicks": 96,
          "midi": 28,
          "name": "E1",
          "ticks": 82464,
          "time": 151.5881595,
          "velocity": 0.3937007874015748
        },
        {
          "duration": 0.17647049999999354,
          "durationTicks": 96,
          "midi": 35,
          "name": "B1",
          "ticks": 82560,
          "time": 151.76463,
          "velocity": 0.3937007874015748
        },
        {
          "duration": 0.17647049999999354,
          "durationTicks": 96,
          "midi": 36,
          "name": "C2",
          "ticks": 82560,
          "time": 151.76463,
          "velocity": 0.3937007874015748
        },
        {
          "duration": 0.17647049999999354,
          "durationTicks": 96,
          "midi": 40,
          "name": "E2",
          "ticks": 82560,
          "time": 151.76463,
          "velocity": 0.3937007874015748
        },
        {
          "duration": 0.17647049999999354,
          "durationTicks": 96,
          "midi": 28,
          "name": "E1",
          "ticks": 82656,
          "time": 151.9411005,
          "velocity": 0.3937007874015748
        },
        {
          "duration": 0.17647049999999354,
          "durationTicks": 96,
          "midi": 28,
          "name": "E1",
          "ticks": 82752,
          "time": 152.117571,
          "velocity": 0.3937007874015748
        },
        {
          "duration": 0.17647050000002196,
          "durationTicks": 96,
          "midi": 28,
          "name": "E1",
          "ticks": 82848,
          "time": 152.2940415,
          "velocity": 0.3937007874015748
        },
        {
          "duration": 0.17647049999999354,
          "durationTicks": 96,
          "midi": 35,
          "name": "B1",
          "ticks": 82944,
          "time": 152.470512,
          "velocity": 0.3937007874015748
        },
        {
          "duration": 0.17647049999999354,
          "durationTicks": 96,
          "midi": 36,
          "name": "C2",
          "ticks": 82944,
          "time": 152.470512,
          "velocity": 0.3937007874015748
        },
        {
          "duration": 0.17647049999999354,
          "durationTicks": 96,
          "midi": 38,
          "name": "D2",
          "ticks": 82944,
          "time": 152.470512,
          "velocity": 0.3937007874015748
        },
        {
          "duration": 0.17647049999999354,
          "durationTicks": 96,
          "midi": 28,
          "name": "E1",
          "ticks": 83040,
          "time": 152.6469825,
          "velocity": 0.3937007874015748
        },
        {
          "duration": 0.17647049999999354,
          "durationTicks": 96,
          "midi": 28,
          "name": "E1",
          "ticks": 83136,
          "time": 152.823453,
          "velocity": 0.3937007874015748
        },
        {
          "duration": 0.17647050000002196,
          "durationTicks": 96,
          "midi": 28,
          "name": "E1",
          "ticks": 83232,
          "time": 152.9999235,
          "velocity": 0.3937007874015748
        },
        {
          "duration": 0.17647049999999354,
          "durationTicks": 96,
          "midi": 35,
          "name": "B1",
          "ticks": 83328,
          "time": 153.17639400000002,
          "velocity": 0.3937007874015748
        },
        {
          "duration": 0.17647049999999354,
          "durationTicks": 96,
          "midi": 36,
          "name": "C2",
          "ticks": 83328,
          "time": 153.17639400000002,
          "velocity": 0.3937007874015748
        },
        {
          "duration": 0.17647049999999354,
          "durationTicks": 96,
          "midi": 40,
          "name": "E2",
          "ticks": 83328,
          "time": 153.17639400000002,
          "velocity": 0.3937007874015748
        },
        {
          "duration": 0.17647049999999354,
          "durationTicks": 96,
          "midi": 28,
          "name": "E1",
          "ticks": 83424,
          "time": 153.3528645,
          "velocity": 0.3937007874015748
        },
        {
          "duration": 0.17647049999999354,
          "durationTicks": 96,
          "midi": 28,
          "name": "E1",
          "ticks": 83520,
          "time": 153.529335,
          "velocity": 0.3937007874015748
        },
        {
          "duration": 0.17647049999999354,
          "durationTicks": 96,
          "midi": 28,
          "name": "E1",
          "ticks": 83616,
          "time": 153.7058055,
          "velocity": 0.3937007874015748
        },
        {
          "duration": 0.17647050000002196,
          "durationTicks": 96,
          "midi": 35,
          "name": "B1",
          "ticks": 83712,
          "time": 153.882276,
          "velocity": 0.3937007874015748
        },
        {
          "duration": 0.17647050000002196,
          "durationTicks": 96,
          "midi": 36,
          "name": "C2",
          "ticks": 83712,
          "time": 153.882276,
          "velocity": 0.3937007874015748
        },
        {
          "duration": 0.17647050000002196,
          "durationTicks": 96,
          "midi": 38,
          "name": "D2",
          "ticks": 83712,
          "time": 153.882276,
          "velocity": 0.3937007874015748
        },
        {
          "duration": 0.17647049999999354,
          "durationTicks": 96,
          "midi": 28,
          "name": "E1",
          "ticks": 83808,
          "time": 154.0587465,
          "velocity": 0.3937007874015748
        },
        {
          "duration": 0.17647049999999354,
          "durationTicks": 96,
          "midi": 28,
          "name": "E1",
          "ticks": 83904,
          "time": 154.235217,
          "velocity": 0.3937007874015748
        },
        {
          "duration": 0.17647049999999354,
          "durationTicks": 96,
          "midi": 28,
          "name": "E1",
          "ticks": 84000,
          "time": 154.4116875,
          "velocity": 0.3937007874015748
        },
        {
          "duration": 0.17647050000002196,
          "durationTicks": 96,
          "midi": 35,
          "name": "B1",
          "ticks": 84096,
          "time": 154.588158,
          "velocity": 0.3937007874015748
        },
        {
          "duration": 0.17647050000002196,
          "durationTicks": 96,
          "midi": 36,
          "name": "C2",
          "ticks": 84096,
          "time": 154.588158,
          "velocity": 0.3937007874015748
        },
        {
          "duration": 0.17647050000002196,
          "durationTicks": 96,
          "midi": 40,
          "name": "E2",
          "ticks": 84096,
          "time": 154.588158,
          "velocity": 0.3937007874015748
        },
        {
          "duration": 0.17647049999999354,
          "durationTicks": 96,
          "midi": 28,
          "name": "E1",
          "ticks": 84192,
          "time": 154.76462850000001,
          "velocity": 0.3937007874015748
        },
        {
          "duration": 0.17647049999999354,
          "durationTicks": 96,
          "midi": 28,
          "name": "E1",
          "ticks": 84288,
          "time": 154.941099,
          "velocity": 0.3937007874015748
        },
        {
          "duration": 0.17647049999999354,
          "durationTicks": 96,
          "midi": 28,
          "name": "E1",
          "ticks": 84384,
          "time": 155.1175695,
          "velocity": 0.3937007874015748
        },
        {
          "duration": 0.17647049999999354,
          "durationTicks": 96,
          "midi": 36,
          "name": "C2",
          "ticks": 84480,
          "time": 155.29404,
          "velocity": 0.3937007874015748
        },
        {
          "duration": 0.17647049999999354,
          "durationTicks": 96,
          "midi": 35,
          "name": "B1",
          "ticks": 84480,
          "time": 155.29404,
          "velocity": 0.3937007874015748
        },
        {
          "duration": 0.17647049999999354,
          "durationTicks": 96,
          "midi": 38,
          "name": "D2",
          "ticks": 84480,
          "time": 155.29404,
          "velocity": 0.3937007874015748
        },
        {
          "duration": 0.17647050000002196,
          "durationTicks": 96,
          "midi": 28,
          "name": "E1",
          "ticks": 84576,
          "time": 155.4705105,
          "velocity": 0.3937007874015748
        },
        {
          "duration": 0.17647049999999354,
          "durationTicks": 96,
          "midi": 28,
          "name": "E1",
          "ticks": 84672,
          "time": 155.646981,
          "velocity": 0.3937007874015748
        },
        {
          "duration": 0.17647049999999354,
          "durationTicks": 96,
          "midi": 28,
          "name": "E1",
          "ticks": 84768,
          "time": 155.8234515,
          "velocity": 0.3937007874015748
        },
        {
          "duration": 0.17647049999999354,
          "durationTicks": 96,
          "midi": 35,
          "name": "B1",
          "ticks": 84864,
          "time": 155.999922,
          "velocity": 0.3937007874015748
        },
        {
          "duration": 0.17647049999999354,
          "durationTicks": 96,
          "midi": 36,
          "name": "C2",
          "ticks": 84864,
          "time": 155.999922,
          "velocity": 0.3937007874015748
        },
        {
          "duration": 0.17647049999999354,
          "durationTicks": 96,
          "midi": 40,
          "name": "E2",
          "ticks": 84864,
          "time": 155.999922,
          "velocity": 0.3937007874015748
        },
        {
          "duration": 0.17647050000002196,
          "durationTicks": 96,
          "midi": 28,
          "name": "E1",
          "ticks": 84960,
          "time": 156.1763925,
          "velocity": 0.3937007874015748
        },
        {
          "duration": 0.17647049999999354,
          "durationTicks": 96,
          "midi": 28,
          "name": "E1",
          "ticks": 85056,
          "time": 156.352863,
          "velocity": 0.3937007874015748
        },
        {
          "duration": 0.17647049999999354,
          "durationTicks": 96,
          "midi": 28,
          "name": "E1",
          "ticks": 85152,
          "time": 156.5293335,
          "velocity": 0.3937007874015748
        },
        {
          "duration": 0.17647049999999354,
          "durationTicks": 96,
          "midi": 35,
          "name": "B1",
          "ticks": 85248,
          "time": 156.705804,
          "velocity": 0.3937007874015748
        },
        {
          "duration": 0.17647049999999354,
          "durationTicks": 96,
          "midi": 36,
          "name": "C2",
          "ticks": 85248,
          "time": 156.705804,
          "velocity": 0.3937007874015748
        },
        {
          "duration": 0.17647049999999354,
          "durationTicks": 96,
          "midi": 38,
          "name": "D2",
          "ticks": 85248,
          "time": 156.705804,
          "velocity": 0.3937007874015748
        },
        {
          "duration": 0.17647050000002196,
          "durationTicks": 96,
          "midi": 28,
          "name": "E1",
          "ticks": 85344,
          "time": 156.8822745,
          "velocity": 0.3937007874015748
        },
        {
          "duration": 0.17647049999999354,
          "durationTicks": 96,
          "midi": 28,
          "name": "E1",
          "ticks": 85440,
          "time": 157.05874500000002,
          "velocity": 0.3937007874015748
        },
        {
          "duration": 0.17647049999999354,
          "durationTicks": 96,
          "midi": 28,
          "name": "E1",
          "ticks": 85536,
          "time": 157.2352155,
          "velocity": 0.3937007874015748
        },
        {
          "duration": 0.17647049999999354,
          "durationTicks": 96,
          "midi": 35,
          "name": "B1",
          "ticks": 85632,
          "time": 157.411686,
          "velocity": 0.3937007874015748
        },
        {
          "duration": 0.17647049999999354,
          "durationTicks": 96,
          "midi": 36,
          "name": "C2",
          "ticks": 85632,
          "time": 157.411686,
          "velocity": 0.3937007874015748
        },
        {
          "duration": 0.17647049999999354,
          "durationTicks": 96,
          "midi": 40,
          "name": "E2",
          "ticks": 85632,
          "time": 157.411686,
          "velocity": 0.3937007874015748
        },
        {
          "duration": 0.17647049999999354,
          "durationTicks": 96,
          "midi": 28,
          "name": "E1",
          "ticks": 85728,
          "time": 157.5881565,
          "velocity": 0.3937007874015748
        },
        {
          "duration": 0.17647050000002196,
          "durationTicks": 96,
          "midi": 28,
          "name": "E1",
          "ticks": 85824,
          "time": 157.764627,
          "velocity": 0.3937007874015748
        },
        {
          "duration": 0.17647049999999354,
          "durationTicks": 96,
          "midi": 28,
          "name": "E1",
          "ticks": 85920,
          "time": 157.9410975,
          "velocity": 0.3937007874015748
        },
        {
          "duration": 0.17647049999999354,
          "durationTicks": 96,
          "midi": 35,
          "name": "B1",
          "ticks": 86016,
          "time": 158.117568,
          "velocity": 0.3937007874015748
        },
        {
          "duration": 0.17647049999999354,
          "durationTicks": 96,
          "midi": 36,
          "name": "C2",
          "ticks": 86016,
          "time": 158.117568,
          "velocity": 0.3937007874015748
        },
        {
          "duration": 0.17647049999999354,
          "durationTicks": 96,
          "midi": 38,
          "name": "D2",
          "ticks": 86016,
          "time": 158.117568,
          "velocity": 0.3937007874015748
        },
        {
          "duration": 0.17647049999999354,
          "durationTicks": 96,
          "midi": 28,
          "name": "E1",
          "ticks": 86112,
          "time": 158.2940385,
          "velocity": 0.3937007874015748
        },
        {
          "duration": 0.17647050000002196,
          "durationTicks": 96,
          "midi": 28,
          "name": "E1",
          "ticks": 86208,
          "time": 158.470509,
          "velocity": 0.3937007874015748
        },
        {
          "duration": 0.17647049999999354,
          "durationTicks": 96,
          "midi": 28,
          "name": "E1",
          "ticks": 86304,
          "time": 158.64697950000001,
          "velocity": 0.3937007874015748
        },
        {
          "duration": 0.17647049999999354,
          "durationTicks": 96,
          "midi": 35,
          "name": "B1",
          "ticks": 86400,
          "time": 158.82345,
          "velocity": 0.3937007874015748
        },
        {
          "duration": 0.17647049999999354,
          "durationTicks": 96,
          "midi": 36,
          "name": "C2",
          "ticks": 86400,
          "time": 158.82345,
          "velocity": 0.3937007874015748
        },
        {
          "duration": 0.17647049999999354,
          "durationTicks": 96,
          "midi": 40,
          "name": "E2",
          "ticks": 86400,
          "time": 158.82345,
          "velocity": 0.3937007874015748
        },
        {
          "duration": 0.17647049999999354,
          "durationTicks": 96,
          "midi": 28,
          "name": "E1",
          "ticks": 86496,
          "time": 158.9999205,
          "velocity": 0.3937007874015748
        },
        {
          "duration": 0.17647049999999354,
          "durationTicks": 96,
          "midi": 28,
          "name": "E1",
          "ticks": 86592,
          "time": 159.176391,
          "velocity": 0.3937007874015748
        },
        {
          "duration": 0.17647050000002196,
          "durationTicks": 96,
          "midi": 28,
          "name": "E1",
          "ticks": 86688,
          "time": 159.3528615,
          "velocity": 0.3937007874015748
        },
        {
          "duration": 0.17647049999999354,
          "durationTicks": 96,
          "midi": 35,
          "name": "B1",
          "ticks": 86784,
          "time": 159.529332,
          "velocity": 0.3937007874015748
        },
        {
          "duration": 0.17647049999999354,
          "durationTicks": 96,
          "midi": 36,
          "name": "C2",
          "ticks": 86784,
          "time": 159.529332,
          "velocity": 0.3937007874015748
        },
        {
          "duration": 0.17647049999999354,
          "durationTicks": 96,
          "midi": 38,
          "name": "D2",
          "ticks": 86784,
          "time": 159.529332,
          "velocity": 0.3937007874015748
        },
        {
          "duration": 0.17647049999999354,
          "durationTicks": 96,
          "midi": 28,
          "name": "E1",
          "ticks": 86880,
          "time": 159.7058025,
          "velocity": 0.3937007874015748
        },
        {
          "duration": 0.17647049999999354,
          "durationTicks": 96,
          "midi": 28,
          "name": "E1",
          "ticks": 86976,
          "time": 159.882273,
          "velocity": 0.3937007874015748
        },
        {
          "duration": 0.17647050000002196,
          "durationTicks": 96,
          "midi": 28,
          "name": "E1",
          "ticks": 87072,
          "time": 160.0587435,
          "velocity": 0.3937007874015748
        },
        {
          "duration": 0.17647049999999354,
          "durationTicks": 96,
          "midi": 35,
          "name": "B1",
          "ticks": 87168,
          "time": 160.235214,
          "velocity": 0.3937007874015748
        },
        {
          "duration": 0.17647049999999354,
          "durationTicks": 96,
          "midi": 36,
          "name": "C2",
          "ticks": 87168,
          "time": 160.235214,
          "velocity": 0.3937007874015748
        },
        {
          "duration": 0.17647049999999354,
          "durationTicks": 96,
          "midi": 40,
          "name": "E2",
          "ticks": 87168,
          "time": 160.235214,
          "velocity": 0.3937007874015748
        },
        {
          "duration": 0.17647049999999354,
          "durationTicks": 96,
          "midi": 28,
          "name": "E1",
          "ticks": 87264,
          "time": 160.4116845,
          "velocity": 0.3937007874015748
        },
        {
          "duration": 0.17647049999999354,
          "durationTicks": 96,
          "midi": 28,
          "name": "E1",
          "ticks": 87360,
          "time": 160.588155,
          "velocity": 0.3937007874015748
        },
        {
          "duration": 0.17647050000002196,
          "durationTicks": 96,
          "midi": 28,
          "name": "E1",
          "ticks": 87456,
          "time": 160.7646255,
          "velocity": 0.3937007874015748
        },
        {
          "duration": 0.17647049999999354,
          "durationTicks": 96,
          "midi": 35,
          "name": "B1",
          "ticks": 87552,
          "time": 160.94109600000002,
          "velocity": 0.3937007874015748
        },
        {
          "duration": 0.17647049999999354,
          "durationTicks": 96,
          "midi": 36,
          "name": "C2",
          "ticks": 87552,
          "time": 160.94109600000002,
          "velocity": 0.3937007874015748
        },
        {
          "duration": 0.17647049999999354,
          "durationTicks": 96,
          "midi": 38,
          "name": "D2",
          "ticks": 87552,
          "time": 160.94109600000002,
          "velocity": 0.3937007874015748
        },
        {
          "duration": 0.17647049999999354,
          "durationTicks": 96,
          "midi": 28,
          "name": "E1",
          "ticks": 87648,
          "time": 161.1175665,
          "velocity": 0.3937007874015748
        },
        {
          "duration": 0.17647049999999354,
          "durationTicks": 96,
          "midi": 28,
          "name": "E1",
          "ticks": 87744,
          "time": 161.294037,
          "velocity": 0.3937007874015748
        },
        {
          "duration": 0.17647049999999354,
          "durationTicks": 96,
          "midi": 28,
          "name": "E1",
          "ticks": 87840,
          "time": 161.4705075,
          "velocity": 0.3937007874015748
        },
        {
          "duration": 0.17647050000002196,
          "durationTicks": 96,
          "midi": 35,
          "name": "B1",
          "ticks": 87936,
          "time": 161.646978,
          "velocity": 0.3937007874015748
        },
        {
          "duration": 0.17647050000002196,
          "durationTicks": 96,
          "midi": 36,
          "name": "C2",
          "ticks": 87936,
          "time": 161.646978,
          "velocity": 0.3937007874015748
        },
        {
          "duration": 0.17647050000002196,
          "durationTicks": 96,
          "midi": 40,
          "name": "E2",
          "ticks": 87936,
          "time": 161.646978,
          "velocity": 0.3937007874015748
        },
        {
          "duration": 0.17647049999999354,
          "durationTicks": 96,
          "midi": 28,
          "name": "E1",
          "ticks": 88032,
          "time": 161.8234485,
          "velocity": 0.3937007874015748
        },
        {
          "duration": 0.17647049999999354,
          "durationTicks": 96,
          "midi": 28,
          "name": "E1",
          "ticks": 88128,
          "time": 161.999919,
          "velocity": 0.3937007874015748
        },
        {
          "duration": 0.17647049999999354,
          "durationTicks": 96,
          "midi": 28,
          "name": "E1",
          "ticks": 88224,
          "time": 162.1763895,
          "velocity": 0.3937007874015748
        },
        {
          "duration": 0.17647050000002196,
          "durationTicks": 96,
          "midi": 35,
          "name": "B1",
          "ticks": 88320,
          "time": 162.35286,
          "velocity": 0.3937007874015748
        },
        {
          "duration": 0.17647050000002196,
          "durationTicks": 96,
          "midi": 36,
          "name": "C2",
          "ticks": 88320,
          "time": 162.35286,
          "velocity": 0.3937007874015748
        },
        {
          "duration": 0.17647050000002196,
          "durationTicks": 96,
          "midi": 38,
          "name": "D2",
          "ticks": 88320,
          "time": 162.35286,
          "velocity": 0.3937007874015748
        },
        {
          "duration": 0.17647049999999354,
          "durationTicks": 96,
          "midi": 28,
          "name": "E1",
          "ticks": 88416,
          "time": 162.52933050000001,
          "velocity": 0.3937007874015748
        },
        {
          "duration": 0.17647049999999354,
          "durationTicks": 96,
          "midi": 28,
          "name": "E1",
          "ticks": 88512,
          "time": 162.705801,
          "velocity": 0.3937007874015748
        },
        {
          "duration": 0.17647049999999354,
          "durationTicks": 96,
          "midi": 28,
          "name": "E1",
          "ticks": 88608,
          "time": 162.8822715,
          "velocity": 0.3937007874015748
        },
        {
          "duration": 0.17647049999999354,
          "durationTicks": 96,
          "midi": 35,
          "name": "B1",
          "ticks": 88704,
          "time": 163.058742,
          "velocity": 0.3937007874015748
        },
        {
          "duration": 0.17647049999999354,
          "durationTicks": 96,
          "midi": 36,
          "name": "C2",
          "ticks": 88704,
          "time": 163.058742,
          "velocity": 0.3937007874015748
        },
        {
          "duration": 0.17647049999999354,
          "durationTicks": 96,
          "midi": 40,
          "name": "E2",
          "ticks": 88704,
          "time": 163.058742,
          "velocity": 0.3937007874015748
        },
        {
          "duration": 0.17647050000002196,
          "durationTicks": 96,
          "midi": 28,
          "name": "E1",
          "ticks": 88800,
          "time": 163.2352125,
          "velocity": 0.3937007874015748
        },
        {
          "duration": 0.17647049999999354,
          "durationTicks": 96,
          "midi": 28,
          "name": "E1",
          "ticks": 88896,
          "time": 163.411683,
          "velocity": 0.3937007874015748
        },
        {
          "duration": 0.17647049999999354,
          "durationTicks": 96,
          "midi": 28,
          "name": "E1",
          "ticks": 88992,
          "time": 163.5881535,
          "velocity": 0.3937007874015748
        },
        {
          "duration": 0.17647049999999354,
          "durationTicks": 96,
          "midi": 35,
          "name": "B1",
          "ticks": 89088,
          "time": 163.764624,
          "velocity": 0.3937007874015748
        },
        {
          "duration": 0.17647049999999354,
          "durationTicks": 96,
          "midi": 36,
          "name": "C2",
          "ticks": 89088,
          "time": 163.764624,
          "velocity": 0.3937007874015748
        },
        {
          "duration": 0.17647049999999354,
          "durationTicks": 96,
          "midi": 38,
          "name": "D2",
          "ticks": 89088,
          "time": 163.764624,
          "velocity": 0.3937007874015748
        },
        {
          "duration": 0.17647050000002196,
          "durationTicks": 96,
          "midi": 28,
          "name": "E1",
          "ticks": 89184,
          "time": 163.9410945,
          "velocity": 0.3937007874015748
        },
        {
          "duration": 0.17647049999999354,
          "durationTicks": 96,
          "midi": 28,
          "name": "E1",
          "ticks": 89280,
          "time": 164.117565,
          "velocity": 0.3937007874015748
        },
        {
          "duration": 0.17647049999999354,
          "durationTicks": 96,
          "midi": 28,
          "name": "E1",
          "ticks": 89376,
          "time": 164.2940355,
          "velocity": 0.3937007874015748
        },
        {
          "duration": 0.17647049999999354,
          "durationTicks": 96,
          "midi": 35,
          "name": "B1",
          "ticks": 89472,
          "time": 164.470506,
          "velocity": 0.3937007874015748
        },
        {
          "duration": 0.17647049999999354,
          "durationTicks": 96,
          "midi": 36,
          "name": "C2",
          "ticks": 89472,
          "time": 164.470506,
          "velocity": 0.3937007874015748
        },
        {
          "duration": 0.17647049999999354,
          "durationTicks": 96,
          "midi": 40,
          "name": "E2",
          "ticks": 89472,
          "time": 164.470506,
          "velocity": 0.3937007874015748
        },
        {
          "duration": 0.17647050000002196,
          "durationTicks": 96,
          "midi": 28,
          "name": "E1",
          "ticks": 89568,
          "time": 164.6469765,
          "velocity": 0.3937007874015748
        },
        {
          "duration": 0.17647049999999354,
          "durationTicks": 96,
          "midi": 28,
          "name": "E1",
          "ticks": 89664,
          "time": 164.82344700000002,
          "velocity": 0.3937007874015748
        },
        {
          "duration": 0.17647049999999354,
          "durationTicks": 96,
          "midi": 28,
          "name": "E1",
          "ticks": 89760,
          "time": 164.9999175,
          "velocity": 0.3937007874015748
        },
        {
          "duration": 0.17647049999999354,
          "durationTicks": 96,
          "midi": 35,
          "name": "B1",
          "ticks": 89856,
          "time": 165.176388,
          "velocity": 0.3937007874015748
        },
        {
          "duration": 0.17647049999999354,
          "durationTicks": 96,
          "midi": 36,
          "name": "C2",
          "ticks": 89856,
          "time": 165.176388,
          "velocity": 0.3937007874015748
        },
        {
          "duration": 0.17647049999999354,
          "durationTicks": 96,
          "midi": 38,
          "name": "D2",
          "ticks": 89856,
          "time": 165.176388,
          "velocity": 0.3937007874015748
        },
        {
          "duration": 0.17647049999999354,
          "durationTicks": 96,
          "midi": 28,
          "name": "E1",
          "ticks": 89952,
          "time": 165.3528585,
          "velocity": 0.3937007874015748
        },
        {
          "duration": 0.17647050000002196,
          "durationTicks": 96,
          "midi": 28,
          "name": "E1",
          "ticks": 90048,
          "time": 165.529329,
          "velocity": 0.3937007874015748
        },
        {
          "duration": 0.17647049999999354,
          "durationTicks": 96,
          "midi": 28,
          "name": "E1",
          "ticks": 90144,
          "time": 165.7057995,
          "velocity": 0.3937007874015748
        },
        {
          "duration": 0.17647049999999354,
          "durationTicks": 96,
          "midi": 35,
          "name": "B1",
          "ticks": 90240,
          "time": 165.88227,
          "velocity": 0.3937007874015748
        },
        {
          "duration": 0.17647049999999354,
          "durationTicks": 96,
          "midi": 36,
          "name": "C2",
          "ticks": 90240,
          "time": 165.88227,
          "velocity": 0.3937007874015748
        },
        {
          "duration": 0.17647049999999354,
          "durationTicks": 96,
          "midi": 40,
          "name": "E2",
          "ticks": 90240,
          "time": 165.88227,
          "velocity": 0.3937007874015748
        },
        {
          "duration": 0.17647049999999354,
          "durationTicks": 96,
          "midi": 28,
          "name": "E1",
          "ticks": 90336,
          "time": 166.0587405,
          "velocity": 0.3937007874015748
        },
        {
          "duration": 0.17647050000002196,
          "durationTicks": 96,
          "midi": 28,
          "name": "E1",
          "ticks": 90432,
          "time": 166.235211,
          "velocity": 0.3937007874015748
        },
        {
          "duration": 0.17647049999999354,
          "durationTicks": 96,
          "midi": 28,
          "name": "E1",
          "ticks": 90528,
          "time": 166.41168150000001,
          "velocity": 0.3937007874015748
        },
        {
          "duration": 0.17647049999999354,
          "durationTicks": 96,
          "midi": 35,
          "name": "B1",
          "ticks": 90624,
          "time": 166.588152,
          "velocity": 0.3937007874015748
        },
        {
          "duration": 0.17647049999999354,
          "durationTicks": 96,
          "midi": 36,
          "name": "C2",
          "ticks": 90624,
          "time": 166.588152,
          "velocity": 0.3937007874015748
        },
        {
          "duration": 0.17647049999999354,
          "durationTicks": 96,
          "midi": 38,
          "name": "D2",
          "ticks": 90624,
          "time": 166.588152,
          "velocity": 0.3937007874015748
        },
        {
          "duration": 0.17647049999999354,
          "durationTicks": 96,
          "midi": 28,
          "name": "E1",
          "ticks": 90720,
          "time": 166.7646225,
          "velocity": 0.3937007874015748
        },
        {
          "duration": 0.17647049999999354,
          "durationTicks": 96,
          "midi": 28,
          "name": "E1",
          "ticks": 90816,
          "time": 166.941093,
          "velocity": 0.3937007874015748
        },
        {
          "duration": 0.17647050000002196,
          "durationTicks": 96,
          "midi": 28,
          "name": "E1",
          "ticks": 90912,
          "time": 167.1175635,
          "velocity": 0.3937007874015748
        },
        {
          "duration": 0.17647049999999354,
          "durationTicks": 96,
          "midi": 35,
          "name": "B1",
          "ticks": 91008,
          "time": 167.294034,
          "velocity": 0.3937007874015748
        },
        {
          "duration": 0.17647049999999354,
          "durationTicks": 96,
          "midi": 36,
          "name": "C2",
          "ticks": 91008,
          "time": 167.294034,
          "velocity": 0.3937007874015748
        },
        {
          "duration": 0.17647049999999354,
          "durationTicks": 96,
          "midi": 40,
          "name": "E2",
          "ticks": 91008,
          "time": 167.294034,
          "velocity": 0.3937007874015748
        },
        {
          "duration": 0.17647049999999354,
          "durationTicks": 96,
          "midi": 28,
          "name": "E1",
          "ticks": 91104,
          "time": 167.4705045,
          "velocity": 0.3937007874015748
        },
        {
          "duration": 0.17647049999999354,
          "durationTicks": 96,
          "midi": 28,
          "name": "E1",
          "ticks": 91200,
          "time": 167.646975,
          "velocity": 0.3937007874015748
        },
        {
          "duration": 0.17647050000002196,
          "durationTicks": 96,
          "midi": 28,
          "name": "E1",
          "ticks": 91296,
          "time": 167.8234455,
          "velocity": 0.3937007874015748
        },
        {
          "duration": 0.17647049999999354,
          "durationTicks": 96,
          "midi": 35,
          "name": "B1",
          "ticks": 91392,
          "time": 167.999916,
          "velocity": 0.3937007874015748
        },
        {
          "duration": 0.17647049999999354,
          "durationTicks": 96,
          "midi": 36,
          "name": "C2",
          "ticks": 91392,
          "time": 167.999916,
          "velocity": 0.3937007874015748
        },
        {
          "duration": 0.17647049999999354,
          "durationTicks": 96,
          "midi": 38,
          "name": "D2",
          "ticks": 91392,
          "time": 167.999916,
          "velocity": 0.3937007874015748
        },
        {
          "duration": 0.17647049999999354,
          "durationTicks": 96,
          "midi": 28,
          "name": "E1",
          "ticks": 91488,
          "time": 168.1763865,
          "velocity": 0.3937007874015748
        },
        {
          "duration": 0.17647049999999354,
          "durationTicks": 96,
          "midi": 28,
          "name": "E1",
          "ticks": 91584,
          "time": 168.352857,
          "velocity": 0.3937007874015748
        },
        {
          "duration": 0.17647050000002196,
          "durationTicks": 96,
          "midi": 28,
          "name": "E1",
          "ticks": 91680,
          "time": 168.5293275,
          "velocity": 0.3937007874015748
        },
        {
          "duration": 0.17647049999999354,
          "durationTicks": 96,
          "midi": 35,
          "name": "B1",
          "ticks": 91776,
          "time": 168.70579800000002,
          "velocity": 0.3937007874015748
        },
        {
          "duration": 0.17647049999999354,
          "durationTicks": 96,
          "midi": 36,
          "name": "C2",
          "ticks": 91776,
          "time": 168.70579800000002,
          "velocity": 0.3937007874015748
        },
        {
          "duration": 0.17647049999999354,
          "durationTicks": 96,
          "midi": 40,
          "name": "E2",
          "ticks": 91776,
          "time": 168.70579800000002,
          "velocity": 0.3937007874015748
        },
        {
          "duration": 0.17647049999999354,
          "durationTicks": 96,
          "midi": 28,
          "name": "E1",
          "ticks": 91872,
          "time": 168.8822685,
          "velocity": 0.3937007874015748
        },
        {
          "duration": 0.17647049999999354,
          "durationTicks": 96,
          "midi": 28,
          "name": "E1",
          "ticks": 91968,
          "time": 169.058739,
          "velocity": 0.3937007874015748
        },
        {
          "duration": 0.17647049999999354,
          "durationTicks": 96,
          "midi": 28,
          "name": "E1",
          "ticks": 92064,
          "time": 169.2352095,
          "velocity": 0.3937007874015748
        },
        {
          "duration": 0.17647050000002196,
          "durationTicks": 96,
          "midi": 35,
          "name": "B1",
          "ticks": 92160,
          "time": 169.41168,
          "velocity": 0.3937007874015748
        },
        {
          "duration": 0.17647050000002196,
          "durationTicks": 96,
          "midi": 36,
          "name": "C2",
          "ticks": 92160,
          "time": 169.41168,
          "velocity": 0.3937007874015748
        },
        {
          "duration": 0.17647050000002196,
          "durationTicks": 96,
          "midi": 38,
          "name": "D2",
          "ticks": 92160,
          "time": 169.41168,
          "velocity": 0.3937007874015748
        },
        {
          "duration": 0.17647049999999354,
          "durationTicks": 96,
          "midi": 28,
          "name": "E1",
          "ticks": 92256,
          "time": 169.5881505,
          "velocity": 0.3937007874015748
        },
        {
          "duration": 0.17647049999999354,
          "durationTicks": 96,
          "midi": 28,
          "name": "E1",
          "ticks": 92352,
          "time": 169.764621,
          "velocity": 0.3937007874015748
        },
        {
          "duration": 0.17647049999999354,
          "durationTicks": 96,
          "midi": 28,
          "name": "E1",
          "ticks": 92448,
          "time": 169.9410915,
          "velocity": 0.3937007874015748
        },
        {
          "duration": 0.17647050000002196,
          "durationTicks": 96,
          "midi": 35,
          "name": "B1",
          "ticks": 92544,
          "time": 170.117562,
          "velocity": 0.3937007874015748
        },
        {
          "duration": 0.17647050000002196,
          "durationTicks": 96,
          "midi": 36,
          "name": "C2",
          "ticks": 92544,
          "time": 170.117562,
          "velocity": 0.3937007874015748
        },
        {
          "duration": 0.17647050000002196,
          "durationTicks": 96,
          "midi": 40,
          "name": "E2",
          "ticks": 92544,
          "time": 170.117562,
          "velocity": 0.3937007874015748
        },
        {
          "duration": 0.17647049999999354,
          "durationTicks": 96,
          "midi": 28,
          "name": "E1",
          "ticks": 92640,
          "time": 170.29403250000001,
          "velocity": 0.3937007874015748
        },
        {
          "duration": 0.17647049999999354,
          "durationTicks": 96,
          "midi": 28,
          "name": "E1",
          "ticks": 92736,
          "time": 170.470503,
          "velocity": 0.3937007874015748
        },
        {
          "duration": 0.17647049999999354,
          "durationTicks": 96,
          "midi": 28,
          "name": "E1",
          "ticks": 92832,
          "time": 170.6469735,
          "velocity": 0.3937007874015748
        },
        {
          "duration": 0.17647049999999354,
          "durationTicks": 96,
          "midi": 35,
          "name": "B1",
          "ticks": 92928,
          "time": 170.823444,
          "velocity": 0.3937007874015748
        },
        {
          "duration": 0.17647049999999354,
          "durationTicks": 96,
          "midi": 36,
          "name": "C2",
          "ticks": 92928,
          "time": 170.823444,
          "velocity": 0.3937007874015748
        },
        {
          "duration": 0.17647049999999354,
          "durationTicks": 96,
          "midi": 38,
          "name": "D2",
          "ticks": 92928,
          "time": 170.823444,
          "velocity": 0.3937007874015748
        },
        {
          "duration": 0.17647050000002196,
          "durationTicks": 96,
          "midi": 28,
          "name": "E1",
          "ticks": 93024,
          "time": 170.9999145,
          "velocity": 0.3937007874015748
        },
        {
          "duration": 0.17647049999999354,
          "durationTicks": 96,
          "midi": 28,
          "name": "E1",
          "ticks": 93120,
          "time": 171.176385,
          "velocity": 0.3937007874015748
        },
        {
          "duration": 0.17647049999999354,
          "durationTicks": 96,
          "midi": 28,
          "name": "E1",
          "ticks": 93216,
          "time": 171.3528555,
          "velocity": 0.3937007874015748
        },
        {
          "duration": 0.17647049999999354,
          "durationTicks": 96,
          "midi": 35,
          "name": "B1",
          "ticks": 93312,
          "time": 171.529326,
          "velocity": 0.3937007874015748
        },
        {
          "duration": 0.17647049999999354,
          "durationTicks": 96,
          "midi": 36,
          "name": "C2",
          "ticks": 93312,
          "time": 171.529326,
          "velocity": 0.3937007874015748
        },
        {
          "duration": 0.17647049999999354,
          "durationTicks": 96,
          "midi": 40,
          "name": "E2",
          "ticks": 93312,
          "time": 171.529326,
          "velocity": 0.3937007874015748
        },
        {
          "duration": 0.17647050000002196,
          "durationTicks": 96,
          "midi": 28,
          "name": "E1",
          "ticks": 93408,
          "time": 171.7057965,
          "velocity": 0.3937007874015748
        },
        {
          "duration": 0.17647049999999354,
          "durationTicks": 96,
          "midi": 28,
          "name": "E1",
          "ticks": 93504,
          "time": 171.882267,
          "velocity": 0.3937007874015748
        },
        {
          "duration": 0.17647049999999354,
          "durationTicks": 96,
          "midi": 28,
          "name": "E1",
          "ticks": 93600,
          "time": 172.0587375,
          "velocity": 0.3937007874015748
        },
        {
          "duration": 0.17647049999999354,
          "durationTicks": 96,
          "midi": 35,
          "name": "B1",
          "ticks": 93696,
          "time": 172.235208,
          "velocity": 0.3937007874015748
        },
        {
          "duration": 0.17647049999999354,
          "durationTicks": 96,
          "midi": 36,
          "name": "C2",
          "ticks": 93696,
          "time": 172.235208,
          "velocity": 0.3937007874015748
        },
        {
          "duration": 0.17647049999999354,
          "durationTicks": 96,
          "midi": 38,
          "name": "D2",
          "ticks": 93696,
          "time": 172.235208,
          "velocity": 0.3937007874015748
        },
        {
          "duration": 0.17647050000002196,
          "durationTicks": 96,
          "midi": 28,
          "name": "E1",
          "ticks": 93792,
          "time": 172.4116785,
          "velocity": 0.3937007874015748
        },
        {
          "duration": 0.17647049999999354,
          "durationTicks": 96,
          "midi": 28,
          "name": "E1",
          "ticks": 93888,
          "time": 172.58814900000002,
          "velocity": 0.3937007874015748
        },
        {
          "duration": 0.17647049999999354,
          "durationTicks": 96,
          "midi": 28,
          "name": "E1",
          "ticks": 93984,
          "time": 172.7646195,
          "velocity": 0.3937007874015748
        },
        {
          "duration": 0.17647049999999354,
          "durationTicks": 96,
          "midi": 35,
          "name": "B1",
          "ticks": 94080,
          "time": 172.94109,
          "velocity": 0.3937007874015748
        },
        {
          "duration": 0.17647049999999354,
          "durationTicks": 96,
          "midi": 36,
          "name": "C2",
          "ticks": 94080,
          "time": 172.94109,
          "velocity": 0.3937007874015748
        },
        {
          "duration": 0.17647049999999354,
          "durationTicks": 96,
          "midi": 40,
          "name": "E2",
          "ticks": 94080,
          "time": 172.94109,
          "velocity": 0.3937007874015748
        },
        {
          "duration": 0.17647049999999354,
          "durationTicks": 96,
          "midi": 28,
          "name": "E1",
          "ticks": 94176,
          "time": 173.1175605,
          "velocity": 0.3937007874015748
        },
        {
          "duration": 0.17647050000002196,
          "durationTicks": 96,
          "midi": 28,
          "name": "E1",
          "ticks": 94272,
          "time": 173.294031,
          "velocity": 0.3937007874015748
        },
        {
          "duration": 0.17647049999999354,
          "durationTicks": 96,
          "midi": 28,
          "name": "E1",
          "ticks": 94368,
          "time": 173.4705015,
          "velocity": 0.3937007874015748
        },
        {
          "duration": 0.17647049999999354,
          "durationTicks": 96,
          "midi": 35,
          "name": "B1",
          "ticks": 94464,
          "time": 173.646972,
          "velocity": 0.3937007874015748
        },
        {
          "duration": 0.17647049999999354,
          "durationTicks": 96,
          "midi": 36,
          "name": "C2",
          "ticks": 94464,
          "time": 173.646972,
          "velocity": 0.3937007874015748
        },
        {
          "duration": 0.17647049999999354,
          "durationTicks": 96,
          "midi": 38,
          "name": "D2",
          "ticks": 94464,
          "time": 173.646972,
          "velocity": 0.3937007874015748
        },
        {
          "duration": 0.17647049999999354,
          "durationTicks": 96,
          "midi": 28,
          "name": "E1",
          "ticks": 94560,
          "time": 173.8234425,
          "velocity": 0.3937007874015748
        },
        {
          "duration": 0.17647050000002196,
          "durationTicks": 96,
          "midi": 28,
          "name": "E1",
          "ticks": 94656,
          "time": 173.999913,
          "velocity": 0.3937007874015748
        },
        {
          "duration": 0.17647049999999354,
          "durationTicks": 96,
          "midi": 28,
          "name": "E1",
          "ticks": 94752,
          "time": 174.17638350000001,
          "velocity": 0.3937007874015748
        },
        {
          "duration": 0.17647049999999354,
          "durationTicks": 96,
          "midi": 35,
          "name": "B1",
          "ticks": 94848,
          "time": 174.352854,
          "velocity": 0.3937007874015748
        },
        {
          "duration": 0.17647049999999354,
          "durationTicks": 96,
          "midi": 36,
          "name": "C2",
          "ticks": 94848,
          "time": 174.352854,
          "velocity": 0.3937007874015748
        },
        {
          "duration": 0.17647049999999354,
          "durationTicks": 96,
          "midi": 40,
          "name": "E2",
          "ticks": 94848,
          "time": 174.352854,
          "velocity": 0.3937007874015748
        },
        {
          "duration": 0.17647049999999354,
          "durationTicks": 96,
          "midi": 28,
          "name": "E1",
          "ticks": 94944,
          "time": 174.5293245,
          "velocity": 0.3937007874015748
        },
        {
          "duration": 0.17647049999999354,
          "durationTicks": 96,
          "midi": 28,
          "name": "E1",
          "ticks": 95040,
          "time": 174.705795,
          "velocity": 0.3937007874015748
        },
        {
          "duration": 0.17647050000002196,
          "durationTicks": 96,
          "midi": 28,
          "name": "E1",
          "ticks": 95136,
          "time": 174.8822655,
          "velocity": 0.3937007874015748
        },
        {
          "duration": 0.17647049999999354,
          "durationTicks": 96,
          "midi": 35,
          "name": "B1",
          "ticks": 95232,
          "time": 175.058736,
          "velocity": 0.3937007874015748
        },
        {
          "duration": 0.17647049999999354,
          "durationTicks": 96,
          "midi": 36,
          "name": "C2",
          "ticks": 95232,
          "time": 175.058736,
          "velocity": 0.3937007874015748
        },
        {
          "duration": 0.17647049999999354,
          "durationTicks": 96,
          "midi": 38,
          "name": "D2",
          "ticks": 95232,
          "time": 175.058736,
          "velocity": 0.3937007874015748
        },
        {
          "duration": 0.17647049999999354,
          "durationTicks": 96,
          "midi": 28,
          "name": "E1",
          "ticks": 95328,
          "time": 175.2352065,
          "velocity": 0.3937007874015748
        },
        {
          "duration": 0.17647049999999354,
          "durationTicks": 96,
          "midi": 28,
          "name": "E1",
          "ticks": 95424,
          "time": 175.411677,
          "velocity": 0.3937007874015748
        },
        {
          "duration": 0.17647050000002196,
          "durationTicks": 96,
          "midi": 28,
          "name": "E1",
          "ticks": 95520,
          "time": 175.5881475,
          "velocity": 0.3937007874015748
        },
        {
          "duration": 0.17647049999999354,
          "durationTicks": 96,
          "midi": 35,
          "name": "B1",
          "ticks": 95616,
          "time": 175.764618,
          "velocity": 0.3937007874015748
        },
        {
          "duration": 0.17647049999999354,
          "durationTicks": 96,
          "midi": 36,
          "name": "C2",
          "ticks": 95616,
          "time": 175.764618,
          "velocity": 0.3937007874015748
        },
        {
          "duration": 0.17647049999999354,
          "durationTicks": 96,
          "midi": 40,
          "name": "E2",
          "ticks": 95616,
          "time": 175.764618,
          "velocity": 0.3937007874015748
        },
        {
          "duration": 0.17647049999999354,
          "durationTicks": 96,
          "midi": 28,
          "name": "E1",
          "ticks": 95712,
          "time": 175.9410885,
          "velocity": 0.3937007874015748
        },
        {
          "duration": 0.17647049999999354,
          "durationTicks": 96,
          "midi": 28,
          "name": "E1",
          "ticks": 95808,
          "time": 176.117559,
          "velocity": 0.3937007874015748
        },
        {
          "duration": 0.17647050000002196,
          "durationTicks": 96,
          "midi": 28,
          "name": "E1",
          "ticks": 95904,
          "time": 176.2940295,
          "velocity": 0.3937007874015748
        },
        {
          "duration": 0.17647049999999354,
          "durationTicks": 96,
          "midi": 35,
          "name": "B1",
          "ticks": 96000,
          "time": 176.47050000000002,
          "velocity": 0.3937007874015748
        },
        {
          "duration": 0.17647049999999354,
          "durationTicks": 96,
          "midi": 36,
          "name": "C2",
          "ticks": 96000,
          "time": 176.47050000000002,
          "velocity": 0.3937007874015748
        },
        {
          "duration": 0.17647049999999354,
          "durationTicks": 96,
          "midi": 38,
          "name": "D2",
          "ticks": 96000,
          "time": 176.47050000000002,
          "velocity": 0.3937007874015748
        },
        {
          "duration": 0.17647049999999354,
          "durationTicks": 96,
          "midi": 28,
          "name": "E1",
          "ticks": 96096,
          "time": 176.6469705,
          "velocity": 0.3937007874015748
        },
        {
          "duration": 0.17647049999999354,
          "durationTicks": 96,
          "midi": 28,
          "name": "E1",
          "ticks": 96192,
          "time": 176.823441,
          "velocity": 0.3937007874015748
        },
        {
          "duration": 0.17647049999999354,
          "durationTicks": 96,
          "midi": 28,
          "name": "E1",
          "ticks": 96288,
          "time": 176.9999115,
          "velocity": 0.3937007874015748
        },
        {
          "duration": 0.17647050000002196,
          "durationTicks": 96,
          "midi": 35,
          "name": "B1",
          "ticks": 96384,
          "time": 177.176382,
          "velocity": 0.3937007874015748
        },
        {
          "duration": 0.17647050000002196,
          "durationTicks": 96,
          "midi": 36,
          "name": "C2",
          "ticks": 96384,
          "time": 177.176382,
          "velocity": 0.3937007874015748
        },
        {
          "duration": 0.17647050000002196,
          "durationTicks": 96,
          "midi": 40,
          "name": "E2",
          "ticks": 96384,
          "time": 177.176382,
          "velocity": 0.3937007874015748
        },
        {
          "duration": 0.17647049999999354,
          "durationTicks": 96,
          "midi": 28,
          "name": "E1",
          "ticks": 96480,
          "time": 177.3528525,
          "velocity": 0.3937007874015748
        },
        {
          "duration": 0.17647049999999354,
          "durationTicks": 96,
          "midi": 28,
          "name": "E1",
          "ticks": 96576,
          "time": 177.529323,
          "velocity": 0.3937007874015748
        },
        {
          "duration": 0.17647049999999354,
          "durationTicks": 96,
          "midi": 28,
          "name": "E1",
          "ticks": 96672,
          "time": 177.7057935,
          "velocity": 0.3937007874015748
        },
        {
          "duration": 0.17647050000002196,
          "durationTicks": 96,
          "midi": 35,
          "name": "B1",
          "ticks": 96768,
          "time": 177.882264,
          "velocity": 0.3937007874015748
        },
        {
          "duration": 0.17647050000002196,
          "durationTicks": 96,
          "midi": 36,
          "name": "C2",
          "ticks": 96768,
          "time": 177.882264,
          "velocity": 0.3937007874015748
        },
        {
          "duration": 0.17647050000002196,
          "durationTicks": 96,
          "midi": 38,
          "name": "D2",
          "ticks": 96768,
          "time": 177.882264,
          "velocity": 0.3937007874015748
        },
        {
          "duration": 0.17647049999999354,
          "durationTicks": 96,
          "midi": 28,
          "name": "E1",
          "ticks": 96864,
          "time": 178.0587345,
          "velocity": 0.3937007874015748
        },
        {
          "duration": 0.17647049999999354,
          "durationTicks": 96,
          "midi": 28,
          "name": "E1",
          "ticks": 96960,
          "time": 178.235205,
          "velocity": 0.3937007874015748
        },
        {
          "duration": 0.17647049999999354,
          "durationTicks": 96,
          "midi": 28,
          "name": "E1",
          "ticks": 97056,
          "time": 178.4116755,
          "velocity": 0.3937007874015748
        },
        {
          "duration": 0.17647049999999354,
          "durationTicks": 96,
          "midi": 35,
          "name": "B1",
          "ticks": 97152,
          "time": 178.588146,
          "velocity": 0.3937007874015748
        },
        {
          "duration": 0.17647049999999354,
          "durationTicks": 96,
          "midi": 36,
          "name": "C2",
          "ticks": 97152,
          "time": 178.588146,
          "velocity": 0.3937007874015748
        },
        {
          "duration": 0.17647049999999354,
          "durationTicks": 96,
          "midi": 40,
          "name": "E2",
          "ticks": 97152,
          "time": 178.588146,
          "velocity": 0.3937007874015748
        },
        {
          "duration": 0.17647050000002196,
          "durationTicks": 96,
          "midi": 28,
          "name": "E1",
          "ticks": 97248,
          "time": 178.7646165,
          "velocity": 0.3937007874015748
        },
        {
          "duration": 0.17647049999999354,
          "durationTicks": 96,
          "midi": 28,
          "name": "E1",
          "ticks": 97344,
          "time": 178.941087,
          "velocity": 0.3937007874015748
        },
        {
          "duration": 0.17647049999999354,
          "durationTicks": 96,
          "midi": 28,
          "name": "E1",
          "ticks": 97440,
          "time": 179.1175575,
          "velocity": 0.3937007874015748
        },
        {
          "duration": 0.17647049999999354,
          "durationTicks": 96,
          "midi": 35,
          "name": "B1",
          "ticks": 97536,
          "time": 179.294028,
          "velocity": 0.3937007874015748
        },
        {
          "duration": 0.17647049999999354,
          "durationTicks": 96,
          "midi": 36,
          "name": "C2",
          "ticks": 97536,
          "time": 179.294028,
          "velocity": 0.3937007874015748
        },
        {
          "duration": 0.17647049999999354,
          "durationTicks": 96,
          "midi": 38,
          "name": "D2",
          "ticks": 97536,
          "time": 179.294028,
          "velocity": 0.3937007874015748
        },
        {
          "duration": 0.17647050000002196,
          "durationTicks": 96,
          "midi": 28,
          "name": "E1",
          "ticks": 97632,
          "time": 179.4704985,
          "velocity": 0.3937007874015748
        },
        {
          "duration": 0.17647049999999354,
          "durationTicks": 96,
          "midi": 28,
          "name": "E1",
          "ticks": 97728,
          "time": 179.646969,
          "velocity": 0.3937007874015748
        },
        {
          "duration": 0.17647049999999354,
          "durationTicks": 96,
          "midi": 28,
          "name": "E1",
          "ticks": 97824,
          "time": 179.8234395,
          "velocity": 0.3937007874015748
        },
        {
          "duration": 0.17647049999999354,
          "durationTicks": 96,
          "midi": 35,
          "name": "B1",
          "ticks": 97920,
          "time": 179.99991,
          "velocity": 0.3937007874015748
        },
        {
          "duration": 0.17647049999999354,
          "durationTicks": 96,
          "midi": 36,
          "name": "C2",
          "ticks": 97920,
          "time": 179.99991,
          "velocity": 0.3937007874015748
        },
        {
          "duration": 0.17647049999999354,
          "durationTicks": 96,
          "midi": 40,
          "name": "E2",
          "ticks": 97920,
          "time": 179.99991,
          "velocity": 0.3937007874015748
        },
        {
          "duration": 0.17647050000002196,
          "durationTicks": 96,
          "midi": 28,
          "name": "E1",
          "ticks": 98016,
          "time": 180.1763805,
          "velocity": 0.3937007874015748
        },
        {
          "duration": 0.17647049999999354,
          "durationTicks": 96,
          "midi": 28,
          "name": "E1",
          "ticks": 98112,
          "time": 180.35285100000002,
          "velocity": 0.3937007874015748
        },
        {
          "duration": 0.17647049999999354,
          "durationTicks": 96,
          "midi": 28,
          "name": "E1",
          "ticks": 98208,
          "time": 180.5293215,
          "velocity": 0.3937007874015748
        },
        {
          "duration": 0.17647049999999354,
          "durationTicks": 96,
          "midi": 36,
          "name": "C2",
          "ticks": 98304,
          "time": 180.705792,
          "velocity": 0.3937007874015748
        },
        {
          "duration": 0.17647049999999354,
          "durationTicks": 96,
          "midi": 35,
          "name": "B1",
          "ticks": 98304,
          "time": 180.705792,
          "velocity": 0.3937007874015748
        },
        {
          "duration": 0.17647049999999354,
          "durationTicks": 96,
          "midi": 38,
          "name": "D2",
          "ticks": 98304,
          "time": 180.705792,
          "velocity": 0.3937007874015748
        },
        {
          "duration": 0.17647049999999354,
          "durationTicks": 96,
          "midi": 52,
          "name": "E3",
          "ticks": 98688,
          "time": 181.411674,
          "velocity": 0.3937007874015748
        },
        {
          "duration": 0.17647049999999354,
          "durationTicks": 96,
          "midi": 35,
          "name": "B1",
          "ticks": 98688,
          "time": 181.411674,
          "velocity": 0.3937007874015748
        },
        {
          "duration": 0.17647049999999354,
          "durationTicks": 96,
          "midi": 36,
          "name": "C2",
          "ticks": 98688,
          "time": 181.411674,
          "velocity": 0.3937007874015748
        },
        {
          "duration": 0.17647049999999354,
          "durationTicks": 96,
          "midi": 35,
          "name": "B1",
          "ticks": 99072,
          "time": 182.117556,
          "velocity": 0.3937007874015748
        },
        {
          "duration": 0.17647049999999354,
          "durationTicks": 96,
          "midi": 36,
          "name": "C2",
          "ticks": 99072,
          "time": 182.117556,
          "velocity": 0.3937007874015748
        },
        {
          "duration": 0.17647049999999354,
          "durationTicks": 96,
          "midi": 38,
          "name": "D2",
          "ticks": 99072,
          "time": 182.117556,
          "velocity": 0.3937007874015748
        },
        {
          "duration": 0.17647049999999354,
          "durationTicks": 96,
          "midi": 35,
          "name": "B1",
          "ticks": 99456,
          "time": 182.823438,
          "velocity": 0.3937007874015748
        },
        {
          "duration": 0.17647049999999354,
          "durationTicks": 96,
          "midi": 36,
          "name": "C2",
          "ticks": 99456,
          "time": 182.823438,
          "velocity": 0.3937007874015748
        },
        {
          "duration": 0.17647049999999354,
          "durationTicks": 96,
          "midi": 52,
          "name": "E3",
          "ticks": 99456,
          "time": 182.823438,
          "velocity": 0.3937007874015748
        },
        {
          "duration": 0.17647049999999354,
          "durationTicks": 96,
          "midi": 35,
          "name": "B1",
          "ticks": 99840,
          "time": 183.52932,
          "velocity": 0.3937007874015748
        },
        {
          "duration": 0.17647049999999354,
          "durationTicks": 96,
          "midi": 36,
          "name": "C2",
          "ticks": 99840,
          "time": 183.52932,
          "velocity": 0.3937007874015748
        },
        {
          "duration": 0.17647049999999354,
          "durationTicks": 96,
          "midi": 38,
          "name": "D2",
          "ticks": 99840,
          "time": 183.52932,
          "velocity": 0.3937007874015748
        },
        {
          "duration": 0.17647049999999354,
          "durationTicks": 96,
          "midi": 52,
          "name": "E3",
          "ticks": 100224,
          "time": 184.23520200000002,
          "velocity": 0.3937007874015748
        },
        {
          "duration": 0.17647049999999354,
          "durationTicks": 96,
          "midi": 35,
          "name": "B1",
          "ticks": 100224,
          "time": 184.23520200000002,
          "velocity": 0.3937007874015748
        },
        {
          "duration": 0.17647049999999354,
          "durationTicks": 96,
          "midi": 36,
          "name": "C2",
          "ticks": 100224,
          "time": 184.23520200000002,
          "velocity": 0.3937007874015748
        },
        {
          "duration": 0.17647050000002196,
          "durationTicks": 96,
          "midi": 35,
          "name": "B1",
          "ticks": 100608,
          "time": 184.941084,
          "velocity": 0.3937007874015748
        },
        {
          "duration": 0.17647050000002196,
          "durationTicks": 96,
          "midi": 36,
          "name": "C2",
          "ticks": 100608,
          "time": 184.941084,
          "velocity": 0.3937007874015748
        },
        {
          "duration": 0.17647050000002196,
          "durationTicks": 96,
          "midi": 38,
          "name": "D2",
          "ticks": 100608,
          "time": 184.941084,
          "velocity": 0.3937007874015748
        },
        {
          "duration": 0.17647050000002196,
          "durationTicks": 96,
          "midi": 35,
          "name": "B1",
          "ticks": 100992,
          "time": 185.646966,
          "velocity": 0.3937007874015748
        },
        {
          "duration": 0.17647050000002196,
          "durationTicks": 96,
          "midi": 36,
          "name": "C2",
          "ticks": 100992,
          "time": 185.646966,
          "velocity": 0.3937007874015748
        },
        {
          "duration": 0.17647050000002196,
          "durationTicks": 96,
          "midi": 52,
          "name": "E3",
          "ticks": 100992,
          "time": 185.646966,
          "velocity": 0.3937007874015748
        },
        {
          "duration": 0.17647050000002196,
          "durationTicks": 96,
          "midi": 35,
          "name": "B1",
          "ticks": 101376,
          "time": 186.352848,
          "velocity": 0.3937007874015748
        },
        {
          "duration": 0.17647050000002196,
          "durationTicks": 96,
          "midi": 36,
          "name": "C2",
          "ticks": 101376,
          "time": 186.352848,
          "velocity": 0.3937007874015748
        },
        {
          "duration": 0.17647050000002196,
          "durationTicks": 96,
          "midi": 38,
          "name": "D2",
          "ticks": 101376,
          "time": 186.352848,
          "velocity": 0.3937007874015748
        },
        {
          "duration": 0.17647049999999354,
          "durationTicks": 96,
          "midi": 35,
          "name": "B1",
          "ticks": 101760,
          "time": 187.05873,
          "velocity": 0.3937007874015748
        },
        {
          "duration": 0.17647049999999354,
          "durationTicks": 96,
          "midi": 36,
          "name": "C2",
          "ticks": 101760,
          "time": 187.05873,
          "velocity": 0.3937007874015748
        },
        {
          "duration": 0.17647049999999354,
          "durationTicks": 96,
          "midi": 52,
          "name": "E3",
          "ticks": 101760,
          "time": 187.05873,
          "velocity": 0.3937007874015748
        },
        {
          "duration": 0.17647049999999354,
          "durationTicks": 96,
          "midi": 36,
          "name": "C2",
          "ticks": 102144,
          "time": 187.764612,
          "velocity": 0.3937007874015748
        },
        {
          "duration": 0.17647049999999354,
          "durationTicks": 96,
          "midi": 35,
          "name": "B1",
          "ticks": 102144,
          "time": 187.764612,
          "velocity": 0.3937007874015748
        },
        {
          "duration": 0.17647049999999354,
          "durationTicks": 96,
          "midi": 38,
          "name": "D2",
          "ticks": 102144,
          "time": 187.764612,
          "velocity": 0.3937007874015748
        },
        {
          "duration": 0.17647049999999354,
          "durationTicks": 96,
          "midi": 36,
          "name": "C2",
          "ticks": 102528,
          "time": 188.470494,
          "velocity": 0.3937007874015748
        },
        {
          "duration": 0.17647049999999354,
          "durationTicks": 96,
          "midi": 35,
          "name": "B1",
          "ticks": 102528,
          "time": 188.470494,
          "velocity": 0.3937007874015748
        },
        {
          "duration": 0.17647049999999354,
          "durationTicks": 96,
          "midi": 52,
          "name": "E3",
          "ticks": 102528,
          "time": 188.470494,
          "velocity": 0.3937007874015748
        },
        {
          "duration": 0.17647049999999354,
          "durationTicks": 96,
          "midi": 35,
          "name": "B1",
          "ticks": 102912,
          "time": 189.176376,
          "velocity": 0.3937007874015748
        },
        {
          "duration": 0.17647049999999354,
          "durationTicks": 96,
          "midi": 36,
          "name": "C2",
          "ticks": 102912,
          "time": 189.176376,
          "velocity": 0.3937007874015748
        },
        {
          "duration": 0.17647049999999354,
          "durationTicks": 96,
          "midi": 38,
          "name": "D2",
          "ticks": 102912,
          "time": 189.176376,
          "velocity": 0.3937007874015748
        },
        {
          "duration": 0.17647049999999354,
          "durationTicks": 96,
          "midi": 35,
          "name": "B1",
          "ticks": 103296,
          "time": 189.882258,
          "velocity": 0.3937007874015748
        },
        {
          "duration": 0.17647049999999354,
          "durationTicks": 96,
          "midi": 36,
          "name": "C2",
          "ticks": 103296,
          "time": 189.882258,
          "velocity": 0.3937007874015748
        },
        {
          "duration": 0.17647049999999354,
          "durationTicks": 96,
          "midi": 52,
          "name": "E3",
          "ticks": 103296,
          "time": 189.882258,
          "velocity": 0.3937007874015748
        },
        {
          "duration": 0.17647049999999354,
          "durationTicks": 96,
          "midi": 35,
          "name": "B1",
          "ticks": 103680,
          "time": 190.58814,
          "velocity": 0.3937007874015748
        },
        {
          "duration": 0.17647049999999354,
          "durationTicks": 96,
          "midi": 36,
          "name": "C2",
          "ticks": 103680,
          "time": 190.58814,
          "velocity": 0.3937007874015748
        },
        {
          "duration": 0.17647049999999354,
          "durationTicks": 96,
          "midi": 38,
          "name": "D2",
          "ticks": 103680,
          "time": 190.58814,
          "velocity": 0.3937007874015748
        },
        {
          "duration": 0.17647049999999354,
          "durationTicks": 96,
          "midi": 35,
          "name": "B1",
          "ticks": 104064,
          "time": 191.294022,
          "velocity": 0.3937007874015748
        },
        {
          "duration": 0.17647049999999354,
          "durationTicks": 96,
          "midi": 36,
          "name": "C2",
          "ticks": 104064,
          "time": 191.294022,
          "velocity": 0.3937007874015748
        },
        {
          "duration": 0.17647049999999354,
          "durationTicks": 96,
          "midi": 52,
          "name": "E3",
          "ticks": 104064,
          "time": 191.294022,
          "velocity": 0.3937007874015748
        },
        {
          "duration": 0.17647049999999354,
          "durationTicks": 96,
          "midi": 35,
          "name": "B1",
          "ticks": 104448,
          "time": 191.99990400000002,
          "velocity": 0.3937007874015748
        },
        {
          "duration": 0.17647049999999354,
          "durationTicks": 96,
          "midi": 36,
          "name": "C2",
          "ticks": 104448,
          "time": 191.99990400000002,
          "velocity": 0.3937007874015748
        },
        {
          "duration": 0.17647049999999354,
          "durationTicks": 96,
          "midi": 38,
          "name": "D2",
          "ticks": 104448,
          "time": 191.99990400000002,
          "velocity": 0.3937007874015748
        },
        {
          "duration": 0.17647050000002196,
          "durationTicks": 96,
          "midi": 36,
          "name": "C2",
          "ticks": 104832,
          "time": 192.705786,
          "velocity": 0.3937007874015748
        },
        {
          "duration": 0.17647050000002196,
          "durationTicks": 96,
          "midi": 35,
          "name": "B1",
          "ticks": 104832,
          "time": 192.705786,
          "velocity": 0.3937007874015748
        },
        {
          "duration": 0.17647050000002196,
          "durationTicks": 96,
          "midi": 52,
          "name": "E3",
          "ticks": 104832,
          "time": 192.705786,
          "velocity": 0.3937007874015748
        },
        {
          "duration": 0.17647050000002196,
          "durationTicks": 96,
          "midi": 35,
          "name": "B1",
          "ticks": 105216,
          "time": 193.411668,
          "velocity": 0.3937007874015748
        },
        {
          "duration": 0.17647050000002196,
          "durationTicks": 96,
          "midi": 36,
          "name": "C2",
          "ticks": 105216,
          "time": 193.411668,
          "velocity": 0.3937007874015748
        },
        {
          "duration": 0.17647050000002196,
          "durationTicks": 96,
          "midi": 38,
          "name": "D2",
          "ticks": 105216,
          "time": 193.411668,
          "velocity": 0.3937007874015748
        },
        {
          "duration": 0.17647050000002196,
          "durationTicks": 96,
          "midi": 35,
          "name": "B1",
          "ticks": 105600,
          "time": 194.11755,
          "velocity": 0.3937007874015748
        },
        {
          "duration": 0.17647050000002196,
          "durationTicks": 96,
          "midi": 36,
          "name": "C2",
          "ticks": 105600,
          "time": 194.11755,
          "velocity": 0.3937007874015748
        },
        {
          "duration": 0.17647050000002196,
          "durationTicks": 96,
          "midi": 52,
          "name": "E3",
          "ticks": 105600,
          "time": 194.11755,
          "velocity": 0.3937007874015748
        },
        {
          "duration": 0.17647049999999354,
          "durationTicks": 96,
          "midi": 35,
          "name": "B1",
          "ticks": 105984,
          "time": 194.823432,
          "velocity": 0.3937007874015748
        },
        {
          "duration": 0.17647049999999354,
          "durationTicks": 96,
          "midi": 36,
          "name": "C2",
          "ticks": 105984,
          "time": 194.823432,
          "velocity": 0.3937007874015748
        },
        {
          "duration": 0.17647049999999354,
          "durationTicks": 96,
          "midi": 38,
          "name": "D2",
          "ticks": 105984,
          "time": 194.823432,
          "velocity": 0.3937007874015748
        },
        {
          "duration": 0.17647049999999354,
          "durationTicks": 96,
          "midi": 35,
          "name": "B1",
          "ticks": 106368,
          "time": 195.529314,
          "velocity": 0.3937007874015748
        },
        {
          "duration": 0.17647049999999354,
          "durationTicks": 96,
          "midi": 36,
          "name": "C2",
          "ticks": 106368,
          "time": 195.529314,
          "velocity": 0.3937007874015748
        },
        {
          "duration": 0.17647049999999354,
          "durationTicks": 96,
          "midi": 52,
          "name": "E3",
          "ticks": 106368,
          "time": 195.529314,
          "velocity": 0.3937007874015748
        },
        {
          "duration": 0.17647049999999354,
          "durationTicks": 96,
          "midi": 35,
          "name": "B1",
          "ticks": 106752,
          "time": 196.235196,
          "velocity": 0.3937007874015748
        },
        {
          "duration": 0.17647049999999354,
          "durationTicks": 96,
          "midi": 36,
          "name": "C2",
          "ticks": 106752,
          "time": 196.235196,
          "velocity": 0.3937007874015748
        },
        {
          "duration": 0.17647049999999354,
          "durationTicks": 96,
          "midi": 38,
          "name": "D2",
          "ticks": 106752,
          "time": 196.235196,
          "velocity": 0.3937007874015748
        },
        {
          "duration": 0.17647049999999354,
          "durationTicks": 96,
          "midi": 35,
          "name": "B1",
          "ticks": 107136,
          "time": 196.941078,
          "velocity": 0.3937007874015748
        },
        {
          "duration": 0.17647049999999354,
          "durationTicks": 96,
          "midi": 36,
          "name": "C2",
          "ticks": 107136,
          "time": 196.941078,
          "velocity": 0.3937007874015748
        },
        {
          "duration": 0.17647049999999354,
          "durationTicks": 96,
          "midi": 52,
          "name": "E3",
          "ticks": 107136,
          "time": 196.941078,
          "velocity": 0.3937007874015748
        },
        {
          "duration": 0.17647049999999354,
          "durationTicks": 96,
          "midi": 35,
          "name": "B1",
          "ticks": 107520,
          "time": 197.64696,
          "velocity": 0.3937007874015748
        },
        {
          "duration": 0.17647049999999354,
          "durationTicks": 96,
          "midi": 36,
          "name": "C2",
          "ticks": 107520,
          "time": 197.64696,
          "velocity": 0.3937007874015748
        },
        {
          "duration": 0.17647049999999354,
          "durationTicks": 96,
          "midi": 38,
          "name": "D2",
          "ticks": 107520,
          "time": 197.64696,
          "velocity": 0.3937007874015748
        },
        {
          "duration": 0.17647049999999354,
          "durationTicks": 96,
          "midi": 35,
          "name": "B1",
          "ticks": 107904,
          "time": 198.352842,
          "velocity": 0.3937007874015748
        },
        {
          "duration": 0.17647049999999354,
          "durationTicks": 96,
          "midi": 36,
          "name": "C2",
          "ticks": 107904,
          "time": 198.352842,
          "velocity": 0.3937007874015748
        },
        {
          "duration": 0.17647049999999354,
          "durationTicks": 96,
          "midi": 52,
          "name": "E3",
          "ticks": 107904,
          "time": 198.352842,
          "velocity": 0.3937007874015748
        },
        {
          "duration": 0.17647049999999354,
          "durationTicks": 96,
          "midi": 35,
          "name": "B1",
          "ticks": 108288,
          "time": 199.058724,
          "velocity": 0.3937007874015748
        },
        {
          "duration": 0.17647049999999354,
          "durationTicks": 96,
          "midi": 36,
          "name": "C2",
          "ticks": 108288,
          "time": 199.058724,
          "velocity": 0.3937007874015748
        },
        {
          "duration": 0.17647049999999354,
          "durationTicks": 96,
          "midi": 38,
          "name": "D2",
          "ticks": 108288,
          "time": 199.058724,
          "velocity": 0.3937007874015748
        },
        {
          "duration": 0.17647049999999354,
          "durationTicks": 96,
          "midi": 35,
          "name": "B1",
          "ticks": 108672,
          "time": 199.76460600000001,
          "velocity": 0.3937007874015748
        },
        {
          "duration": 0.17647049999999354,
          "durationTicks": 96,
          "midi": 36,
          "name": "C2",
          "ticks": 108672,
          "time": 199.76460600000001,
          "velocity": 0.3937007874015748
        },
        {
          "duration": 0.17647049999999354,
          "durationTicks": 96,
          "midi": 52,
          "name": "E3",
          "ticks": 108672,
          "time": 199.76460600000001,
          "velocity": 0.3937007874015748
        }
      ],
      "endOfTrackTicks": 108768
    }
  ]
}
