{
  "header": {
    "keySignatures": [],
    "meta": [],
    "name": "slow dance by jiji",
    "ppq": 384,
    "tempos": [
      {
        "bpm": 89.00004005001803,
        "ticks": 0
      }
    ],
    "timeSignatures": [
      {
        "ticks": 0,
        "timeSignature": [
          4,
          4
        ],
        "measures": 0
      }
    ]
  },
  "tracks": [
    {
      "channel": 0,
      "controlChanges": {},
      "pitchBends": [],
      "instrument": {
        "family": "synth effects",
        "number": 99,
        "name": "fx 4 (atmosphere)"
      },
      "name": "Scifi",
      "notes": [
        {
          "duration": 0.16853924999999997,
          "durationTicks": 96,
          "midi": 51,
          "name": "D#3",
          "ticks": 0,
          "time": 0,
          "velocity": 0.3937007874015748
        },
        {
          "duration": 0.16853924999999992,
          "durationTicks": 96,
          "midi": 55,
          "name": "G3",
          "ticks": 192,
          "time": 0.33707849999999995,
          "velocity": 0.3937007874015748
        },
        {
          "duration": 0.16853925000000003,
          "durationTicks": 96,
          "midi": 58,
          "name": "A#3",
          "ticks": 384,
          "time": 0.6741569999999999,
          "velocity": 0.3937007874015748
        },
        {
          "duration": 0.16853925000000003,
          "durationTicks": 96,
          "midi": 63,
          "name": "D#4",
          "ticks": 576,
          "time": 1.0112354999999997,
          "velocity": 0.3937007874015748
        },
        {
          "duration": 0.16853925000000003,
          "durationTicks": 96,
          "midi": 67,
          "name": "G4",
          "ticks": 768,
          "time": 1.3483139999999998,
          "velocity": 0.3937007874015748
        },
        {
          "duration": 0.1685392499999998,
          "durationTicks": 96,
          "midi": 70,
          "name": "A#4",
          "ticks": 960,
          "time": 1.6853924999999998,
          "velocity": 0.3937007874015748
        },
        {
          "duration": 0.16853925000000025,
          "durationTicks": 96,
          "midi": 74,
          "name": "D5",
          "ticks": 1152,
          "time": 2.0224709999999995,
          "velocity": 0.3937007874015748
        },
        {
          "duration": 0.16853925000000025,
          "durationTicks": 96,
          "midi": 74,
          "name": "D5",
          "ticks": 1344,
          "time": 2.3595494999999995,
          "velocity": 0.3937007874015748
        },
        {
          "duration": 0.1685392499999998,
          "durationTicks": 96,
          "midi": 70,
          "name": "A#4",
          "ticks": 1536,
          "time": 2.6966279999999996,
          "velocity": 0.3937007874015748
        },
        {
          "duration": 0.1685392499999998,
          "durationTicks": 96,
          "midi": 67,
          "name": "G4",
          "ticks": 1728,
          "time": 3.0337064999999996,
          "velocity": 0.3937007874015748
        },
        {
          "duration": 0.1685392499999998,
          "durationTicks": 96,
          "midi": 63,
          "name": "D#4",
          "ticks": 1920,
          "time": 3.3707849999999997,
          "velocity": 0.3937007874015748
        },
        {
          "duration": 0.16853925000000025,
          "durationTicks": 96,
          "midi": 58,
          "name": "A#3",
          "ticks": 2112,
          "time": 3.7078634999999993,
          "velocity": 0.3937007874015748
        },
        {
          "duration": 0.16853925000000025,
          "durationTicks": 96,
          "midi": 55,
          "name": "G3",
          "ticks": 2304,
          "time": 4.044941999999999,
          "velocity": 0.3937007874015748
        },
        {
          "duration": 0.16853925000000025,
          "durationTicks": 96,
          "midi": 51,
          "name": "D#3",
          "ticks": 2496,
          "time": 4.382020499999999,
          "velocity": 0.3937007874015748
        },
        {
          "duration": 0.16853925000000025,
          "durationTicks": 96,
          "midi": 51,
          "name": "D#3",
          "ticks": 2688,
          "time": 4.719098999999999,
          "velocity": 0.3937007874015748
        },
        {
          "duration": 0.16853924999999936,
          "durationTicks": 96,
          "midi": 55,
          "name": "G3",
          "ticks": 2880,
          "time": 5.0561774999999995,
          "velocity": 0.3937007874015748
        },
        {
          "duration": 0.16853925000000025,
          "durationTicks": 96,
          "midi": 48,
          "name": "C3",
          "ticks": 3072,
          "time": 5.393255999999999,
          "velocity": 0.3937007874015748
        },
        {
          "duration": 0.16853925000000025,
          "durationTicks": 96,
          "midi": 55,
          "name": "G3",
          "ticks": 3264,
          "time": 5.730334499999999,
          "velocity": 0.3937007874015748
        },
        {
          "duration": 0.16853924999999936,
          "durationTicks": 96,
          "midi": 60,
          "name": "C4",
          "ticks": 3456,
          "time": 6.067412999999999,
          "velocity": 0.3937007874015748
        },
        {
          "duration": 0.16853925000000025,
          "durationTicks": 96,
          "midi": 63,
          "name": "D#4",
          "ticks": 3648,
          "time": 6.404491499999999,
          "velocity": 0.3937007874015748
        },
        {
          "duration": 0.16853924999999936,
          "durationTicks": 96,
          "midi": 67,
          "name": "G4",
          "ticks": 3840,
          "time": 6.741569999999999,
          "velocity": 0.3937007874015748
        },
        {
          "duration": 0.16853925000000025,
          "durationTicks": 96,
          "midi": 70,
          "name": "A#4",
          "ticks": 4032,
          "time": 7.078648499999999,
          "velocity": 0.3937007874015748
        },
        {
          "duration": 0.16853925000000025,
          "durationTicks": 96,
          "midi": 74,
          "name": "D5",
          "ticks": 4224,
          "time": 7.415726999999999,
          "velocity": 0.3937007874015748
        },
        {
          "duration": 0.16853924999999936,
          "durationTicks": 96,
          "midi": 74,
          "name": "D5",
          "ticks": 4416,
          "time": 7.752805499999999,
          "velocity": 0.3937007874015748
        },
        {
          "duration": 0.16853925000000025,
          "durationTicks": 96,
          "midi": 70,
          "name": "A#4",
          "ticks": 4608,
          "time": 8.089883999999998,
          "velocity": 0.3937007874015748
        },
        {
          "duration": 0.16853925000000025,
          "durationTicks": 96,
          "midi": 67,
          "name": "G4",
          "ticks": 4800,
          "time": 8.426962499999998,
          "velocity": 0.3937007874015748
        },
        {
          "duration": 0.16853925000000025,
          "durationTicks": 96,
          "midi": 63,
          "name": "D#4",
          "ticks": 4992,
          "time": 8.764040999999999,
          "velocity": 0.3937007874015748
        },
        {
          "duration": 0.16853924999999848,
          "durationTicks": 96,
          "midi": 60,
          "name": "C4",
          "ticks": 5184,
          "time": 9.1011195,
          "velocity": 0.3937007874015748
        },
        {
          "duration": 0.16853925000000025,
          "durationTicks": 96,
          "midi": 55,
          "name": "G3",
          "ticks": 5376,
          "time": 9.438197999999998,
          "velocity": 0.3937007874015748
        },
        {
          "duration": 0.16853925000000025,
          "durationTicks": 96,
          "midi": 48,
          "name": "C3",
          "ticks": 5568,
          "time": 9.775276499999999,
          "velocity": 0.3937007874015748
        },
        {
          "duration": 0.16853924999999848,
          "durationTicks": 96,
          "midi": 48,
          "name": "C3",
          "ticks": 5760,
          "time": 10.112354999999999,
          "velocity": 0.3937007874015748
        },
        {
          "duration": 0.16853925000000025,
          "durationTicks": 96,
          "midi": 55,
          "name": "G3",
          "ticks": 5952,
          "time": 10.449433499999998,
          "velocity": 0.3937007874015748
        },
        {
          "duration": 0.16853925000000025,
          "durationTicks": 96,
          "midi": 41,
          "name": "F2",
          "ticks": 6144,
          "time": 10.786511999999998,
          "velocity": 0.3937007874015748
        },
        {
          "duration": 0.16853925000000025,
          "durationTicks": 96,
          "midi": 48,
          "name": "C3",
          "ticks": 6336,
          "time": 11.123590499999999,
          "velocity": 0.3937007874015748
        },
        {
          "duration": 0.16853925000000025,
          "durationTicks": 96,
          "midi": 60,
          "name": "C4",
          "ticks": 6528,
          "time": 11.460668999999998,
          "velocity": 0.3937007874015748
        },
        {
          "duration": 0.16853925000000025,
          "durationTicks": 96,
          "midi": 63,
          "name": "D#4",
          "ticks": 6720,
          "time": 11.797747499999998,
          "velocity": 0.3937007874015748
        },
        {
          "duration": 0.16853925000000025,
          "durationTicks": 96,
          "midi": 67,
          "name": "G4",
          "ticks": 6912,
          "time": 12.134825999999999,
          "velocity": 0.3937007874015748
        },
        {
          "duration": 0.16853925000000025,
          "durationTicks": 96,
          "midi": 67,
          "name": "G4",
          "ticks": 7104,
          "time": 12.471904499999997,
          "velocity": 0.3937007874015748
        },
        {
          "duration": 0.16853925000000025,
          "durationTicks": 96,
          "midi": 67,
          "name": "G4",
          "ticks": 7296,
          "time": 12.808982999999998,
          "velocity": 0.3937007874015748
        },
        {
          "duration": 0.16853925000000025,
          "durationTicks": 96,
          "midi": 41,
          "name": "F2",
          "ticks": 7488,
          "time": 13.146061499999998,
          "velocity": 0.3937007874015748
        },
        {
          "duration": 0.16853924999999848,
          "durationTicks": 96,
          "midi": 48,
          "name": "C3",
          "ticks": 7680,
          "time": 13.483139999999999,
          "velocity": 0.3937007874015748
        },
        {
          "duration": 0.16853925000000025,
          "durationTicks": 96,
          "midi": 53,
          "name": "F3",
          "ticks": 7872,
          "time": 13.820218499999998,
          "velocity": 0.3937007874015748
        },
        {
          "duration": 0.16853925000000025,
          "durationTicks": 96,
          "midi": 56,
          "name": "G#3",
          "ticks": 8064,
          "time": 14.157296999999998,
          "velocity": 0.3937007874015748
        },
        {
          "duration": 0.16853924999999848,
          "durationTicks": 96,
          "midi": 60,
          "name": "C4",
          "ticks": 8256,
          "time": 14.494375499999999,
          "velocity": 0.3937007874015748
        },
        {
          "duration": 0.16853925000000025,
          "durationTicks": 96,
          "midi": 60,
          "name": "C4",
          "ticks": 8448,
          "time": 14.831453999999997,
          "velocity": 0.3937007874015748
        },
        {
          "duration": 0.16853925000000025,
          "durationTicks": 96,
          "midi": 56,
          "name": "G#3",
          "ticks": 8640,
          "time": 15.168532499999998,
          "velocity": 0.3937007874015748
        },
        {
          "duration": 0.16853924999999848,
          "durationTicks": 96,
          "midi": 60,
          "name": "C4",
          "ticks": 8832,
          "time": 15.505610999999998,
          "velocity": 0.3937007874015748
        },
        {
          "duration": 0.16853925000000025,
          "durationTicks": 96,
          "midi": 48,
          "name": "C3",
          "ticks": 9024,
          "time": 15.842689499999997,
          "velocity": 0.3937007874015748
        },
        {
          "duration": 0.16853925000000203,
          "durationTicks": 96,
          "midi": 43,
          "name": "G2",
          "ticks": 9216,
          "time": 16.179767999999996,
          "velocity": 0.3937007874015748
        },
        {
          "duration": 0.16853925000000203,
          "durationTicks": 96,
          "midi": 55,
          "name": "G3",
          "ticks": 9408,
          "time": 16.516846499999996,
          "velocity": 0.3937007874015748
        },
        {
          "duration": 0.16853925000000203,
          "durationTicks": 96,
          "midi": 58,
          "name": "A#3",
          "ticks": 9600,
          "time": 16.853924999999997,
          "velocity": 0.3937007874015748
        },
        {
          "duration": 0.16853924999999848,
          "durationTicks": 96,
          "midi": 62,
          "name": "D4",
          "ticks": 9792,
          "time": 17.191003499999997,
          "velocity": 0.3937007874015748
        },
        {
          "duration": 0.16853924999999848,
          "durationTicks": 96,
          "midi": 65,
          "name": "F4",
          "ticks": 9984,
          "time": 17.528081999999998,
          "velocity": 0.3937007874015748
        },
        {
          "duration": 0.16853924999999848,
          "durationTicks": 96,
          "midi": 65,
          "name": "F4",
          "ticks": 10176,
          "time": 17.865160499999998,
          "velocity": 0.3937007874015748
        },
        {
          "duration": 0.16853924999999848,
          "durationTicks": 96,
          "midi": 62,
          "name": "D4",
          "ticks": 10368,
          "time": 18.202239,
          "velocity": 0.3937007874015748
        },
        {
          "duration": 0.16853925000000203,
          "durationTicks": 96,
          "midi": 43,
          "name": "G2",
          "ticks": 10752,
          "time": 18.876395999999996,
          "velocity": 0.3937007874015748
        },
        {
          "duration": 0.16853925000000203,
          "durationTicks": 96,
          "midi": 47,
          "name": "B2",
          "ticks": 10944,
          "time": 19.213474499999997,
          "velocity": 0.3937007874015748
        },
        {
          "duration": 0.16853924999999848,
          "durationTicks": 96,
          "midi": 55,
          "name": "G3",
          "ticks": 11136,
          "time": 19.550552999999997,
          "velocity": 0.3937007874015748
        },
        {
          "duration": 0.16853924999999848,
          "durationTicks": 96,
          "midi": 59,
          "name": "B3",
          "ticks": 11328,
          "time": 19.887631499999998,
          "velocity": 0.3937007874015748
        },
        {
          "duration": 0.16853924999999848,
          "durationTicks": 96,
          "midi": 62,
          "name": "D4",
          "ticks": 11520,
          "time": 20.224709999999998,
          "velocity": 0.3937007874015748
        },
        {
          "duration": 0.16853925000000203,
          "durationTicks": 96,
          "midi": 65,
          "name": "F4",
          "ticks": 11712,
          "time": 20.561788499999995,
          "velocity": 0.3937007874015748
        },
        {
          "duration": 0.16853924999999848,
          "durationTicks": 96,
          "midi": 51,
          "name": "D#3",
          "ticks": 12288,
          "time": 21.573023999999997,
          "velocity": 0.3937007874015748
        },
        {
          "duration": 0.16853924999999848,
          "durationTicks": 96,
          "midi": 55,
          "name": "G3",
          "ticks": 12480,
          "time": 21.910102499999997,
          "velocity": 0.3937007874015748
        },
        {
          "duration": 0.16853924999999848,
          "durationTicks": 96,
          "midi": 58,
          "name": "A#3",
          "ticks": 12672,
          "time": 22.247180999999998,
          "velocity": 0.3937007874015748
        },
        {
          "duration": 0.16853924999999848,
          "durationTicks": 96,
          "midi": 63,
          "name": "D#4",
          "ticks": 12864,
          "time": 22.584259499999998,
          "velocity": 0.3937007874015748
        },
        {
          "duration": 0.16853925000000203,
          "durationTicks": 96,
          "midi": 67,
          "name": "G4",
          "ticks": 13056,
          "time": 22.921337999999995,
          "velocity": 0.3937007874015748
        },
        {
          "duration": 0.16853925000000203,
          "durationTicks": 96,
          "midi": 70,
          "name": "A#4",
          "ticks": 13248,
          "time": 23.258416499999996,
          "velocity": 0.3937007874015748
        },
        {
          "duration": 0.16853924999999848,
          "durationTicks": 96,
          "midi": 74,
          "name": "D5",
          "ticks": 13440,
          "time": 23.595494999999996,
          "velocity": 0.3937007874015748
        },
        {
          "duration": 0.16853924999999848,
          "durationTicks": 96,
          "midi": 74,
          "name": "D5",
          "ticks": 13632,
          "time": 23.932573499999997,
          "velocity": 0.3937007874015748
        },
        {
          "duration": 0.16853924999999848,
          "durationTicks": 96,
          "midi": 70,
          "name": "A#4",
          "ticks": 13824,
          "time": 24.269651999999997,
          "velocity": 0.3937007874015748
        },
        {
          "duration": 0.16853924999999848,
          "durationTicks": 96,
          "midi": 67,
          "name": "G4",
          "ticks": 14016,
          "time": 24.606730499999998,
          "velocity": 0.3937007874015748
        },
        {
          "duration": 0.16853925000000203,
          "durationTicks": 96,
          "midi": 63,
          "name": "D#4",
          "ticks": 14208,
          "time": 24.943808999999995,
          "velocity": 0.3937007874015748
        },
        {
          "duration": 0.16853925000000203,
          "durationTicks": 96,
          "midi": 58,
          "name": "A#3",
          "ticks": 14400,
          "time": 25.280887499999995,
          "velocity": 0.3937007874015748
        },
        {
          "duration": 0.16853925000000203,
          "durationTicks": 96,
          "midi": 55,
          "name": "G3",
          "ticks": 14592,
          "time": 25.617965999999996,
          "velocity": 0.3937007874015748
        },
        {
          "duration": 0.16853924999999848,
          "durationTicks": 96,
          "midi": 51,
          "name": "D#3",
          "ticks": 14784,
          "time": 25.955044499999996,
          "velocity": 0.3937007874015748
        },
        {
          "duration": 0.16853924999999848,
          "durationTicks": 96,
          "midi": 51,
          "name": "D#3",
          "ticks": 14976,
          "time": 26.292122999999997,
          "velocity": 0.3937007874015748
        },
        {
          "duration": 0.16853924999999848,
          "durationTicks": 96,
          "midi": 55,
          "name": "G3",
          "ticks": 15168,
          "time": 26.629201499999997,
          "velocity": 0.3937007874015748
        },
        {
          "duration": 0.16853924999999848,
          "durationTicks": 96,
          "midi": 48,
          "name": "C3",
          "ticks": 15360,
          "time": 26.966279999999998,
          "velocity": 0.3937007874015748
        },
        {
          "duration": 0.16853925000000203,
          "durationTicks": 96,
          "midi": 55,
          "name": "G3",
          "ticks": 15552,
          "time": 27.303358499999995,
          "velocity": 0.3937007874015748
        },
        {
          "duration": 0.16853925000000203,
          "durationTicks": 96,
          "midi": 60,
          "name": "C4",
          "ticks": 15744,
          "time": 27.640436999999995,
          "velocity": 0.3937007874015748
        },
        {
          "duration": 0.16853924999999848,
          "durationTicks": 96,
          "midi": 63,
          "name": "D#4",
          "ticks": 15936,
          "time": 27.977515499999996,
          "velocity": 0.3937007874015748
        },
        {
          "duration": 0.16853924999999848,
          "durationTicks": 96,
          "midi": 67,
          "name": "G4",
          "ticks": 16128,
          "time": 28.314593999999996,
          "velocity": 0.3937007874015748
        },
        {
          "duration": 0.16853924999999848,
          "durationTicks": 96,
          "midi": 70,
          "name": "A#4",
          "ticks": 16320,
          "time": 28.651672499999997,
          "velocity": 0.3937007874015748
        },
        {
          "duration": 0.16853924999999848,
          "durationTicks": 96,
          "midi": 74,
          "name": "D5",
          "ticks": 16512,
          "time": 28.988750999999997,
          "velocity": 0.3937007874015748
        },
        {
          "duration": 0.16853925000000203,
          "durationTicks": 96,
          "midi": 74,
          "name": "D5",
          "ticks": 16704,
          "time": 29.325829499999994,
          "velocity": 0.3937007874015748
        },
        {
          "duration": 0.16853925000000203,
          "durationTicks": 96,
          "midi": 70,
          "name": "A#4",
          "ticks": 16896,
          "time": 29.662907999999995,
          "velocity": 0.3937007874015748
        },
        {
          "duration": 0.16853925000000203,
          "durationTicks": 96,
          "midi": 67,
          "name": "G4",
          "ticks": 17088,
          "time": 29.999986499999995,
          "velocity": 0.3937007874015748
        },
        {
          "duration": 0.16853924999999848,
          "durationTicks": 96,
          "midi": 63,
          "name": "D#4",
          "ticks": 17280,
          "time": 30.337064999999996,
          "velocity": 0.3937007874015748
        },
        {
          "duration": 0.16853924999999848,
          "durationTicks": 96,
          "midi": 60,
          "name": "C4",
          "ticks": 17472,
          "time": 30.674143499999996,
          "velocity": 0.3937007874015748
        },
        {
          "duration": 0.16853924999999848,
          "durationTicks": 96,
          "midi": 55,
          "name": "G3",
          "ticks": 17664,
          "time": 31.011221999999997,
          "velocity": 0.3937007874015748
        },
        {
          "duration": 0.16853925000000203,
          "durationTicks": 96,
          "midi": 48,
          "name": "C3",
          "ticks": 17856,
          "time": 31.348300499999993,
          "velocity": 0.3937007874015748
        },
        {
          "duration": 0.16853925000000203,
          "durationTicks": 96,
          "midi": 48,
          "name": "C3",
          "ticks": 18048,
          "time": 31.685378999999994,
          "velocity": 0.3937007874015748
        },
        {
          "duration": 0.16853925000000203,
          "durationTicks": 96,
          "midi": 55,
          "name": "G3",
          "ticks": 18240,
          "time": 32.022457499999994,
          "velocity": 0.3937007874015748
        },
        {
          "duration": 0.16853925000000203,
          "durationTicks": 96,
          "midi": 41,
          "name": "F2",
          "ticks": 18432,
          "time": 32.35953599999999,
          "velocity": 0.3937007874015748
        },
        {
          "duration": 0.16853925000000203,
          "durationTicks": 96,
          "midi": 48,
          "name": "C3",
          "ticks": 18624,
          "time": 32.696614499999995,
          "velocity": 0.3937007874015748
        },
        {
          "duration": 0.16853925000000203,
          "durationTicks": 96,
          "midi": 60,
          "name": "C4",
          "ticks": 18816,
          "time": 33.03369299999999,
          "velocity": 0.3937007874015748
        },
        {
          "duration": 0.16853924999999492,
          "durationTicks": 96,
          "midi": 63,
          "name": "D#4",
          "ticks": 19008,
          "time": 33.3707715,
          "velocity": 0.3937007874015748
        },
        {
          "duration": 0.16853925000000203,
          "durationTicks": 96,
          "midi": 67,
          "name": "G4",
          "ticks": 19200,
          "time": 33.70784999999999,
          "velocity": 0.3937007874015748
        },
        {
          "duration": 0.16853924999999492,
          "durationTicks": 96,
          "midi": 67,
          "name": "G4",
          "ticks": 19392,
          "time": 34.0449285,
          "velocity": 0.3937007874015748
        },
        {
          "duration": 0.16853925000000203,
          "durationTicks": 96,
          "midi": 67,
          "name": "G4",
          "ticks": 19584,
          "time": 34.382006999999994,
          "velocity": 0.3937007874015748
        },
        {
          "duration": 0.16853925000000203,
          "durationTicks": 96,
          "midi": 41,
          "name": "F2",
          "ticks": 19776,
          "time": 34.71908549999999,
          "velocity": 0.3937007874015748
        },
        {
          "duration": 0.16853925000000203,
          "durationTicks": 96,
          "midi": 48,
          "name": "C3",
          "ticks": 19968,
          "time": 35.056163999999995,
          "velocity": 0.3937007874015748
        },
        {
          "duration": 0.16853925000000203,
          "durationTicks": 96,
          "midi": 53,
          "name": "F3",
          "ticks": 20160,
          "time": 35.39324249999999,
          "velocity": 0.3937007874015748
        },
        {
          "duration": 0.16853924999999492,
          "durationTicks": 96,
          "midi": 56,
          "name": "G#3",
          "ticks": 20352,
          "time": 35.730320999999996,
          "velocity": 0.3937007874015748
        },
        {
          "duration": 0.16853925000000203,
          "durationTicks": 96,
          "midi": 60,
          "name": "C4",
          "ticks": 20544,
          "time": 36.06739949999999,
          "velocity": 0.3937007874015748
        },
        {
          "duration": 0.16853924999999492,
          "durationTicks": 96,
          "midi": 60,
          "name": "C4",
          "ticks": 20736,
          "time": 36.404478,
          "velocity": 0.3937007874015748
        },
        {
          "duration": 0.16853925000000203,
          "durationTicks": 96,
          "midi": 56,
          "name": "G#3",
          "ticks": 20928,
          "time": 36.741556499999994,
          "velocity": 0.3937007874015748
        },
        {
          "duration": 0.16853925000000203,
          "durationTicks": 96,
          "midi": 60,
          "name": "C4",
          "ticks": 21120,
          "time": 37.07863499999999,
          "velocity": 0.3937007874015748
        },
        {
          "duration": 0.16853925000000203,
          "durationTicks": 96,
          "midi": 48,
          "name": "C3",
          "ticks": 21312,
          "time": 37.415713499999995,
          "velocity": 0.3937007874015748
        },
        {
          "duration": 0.16853925000000203,
          "durationTicks": 96,
          "midi": 43,
          "name": "G2",
          "ticks": 21504,
          "time": 37.75279199999999,
          "velocity": 0.3937007874015748
        },
        {
          "duration": 0.16853924999999492,
          "durationTicks": 96,
          "midi": 55,
          "name": "G3",
          "ticks": 21696,
          "time": 38.089870499999996,
          "velocity": 0.3937007874015748
        },
        {
          "duration": 0.16853925000000203,
          "durationTicks": 96,
          "midi": 58,
          "name": "A#3",
          "ticks": 21888,
          "time": 38.42694899999999,
          "velocity": 0.3937007874015748
        },
        {
          "duration": 0.16853924999999492,
          "durationTicks": 96,
          "midi": 62,
          "name": "D4",
          "ticks": 22080,
          "time": 38.7640275,
          "velocity": 0.3937007874015748
        },
        {
          "duration": 0.16853925000000203,
          "durationTicks": 96,
          "midi": 65,
          "name": "F4",
          "ticks": 22272,
          "time": 39.101105999999994,
          "velocity": 0.3937007874015748
        },
        {
          "duration": 0.16853925000000203,
          "durationTicks": 96,
          "midi": 65,
          "name": "F4",
          "ticks": 22464,
          "time": 39.43818449999999,
          "velocity": 0.3937007874015748
        },
        {
          "duration": 0.16853924999999492,
          "durationTicks": 96,
          "midi": 62,
          "name": "D4",
          "ticks": 22656,
          "time": 39.775262999999995,
          "velocity": 0.3937007874015748
        },
        {
          "duration": 0.16853924999999492,
          "durationTicks": 96,
          "midi": 43,
          "name": "G2",
          "ticks": 23040,
          "time": 40.449419999999996,
          "velocity": 0.3937007874015748
        },
        {
          "duration": 0.16853925000000203,
          "durationTicks": 96,
          "midi": 47,
          "name": "B2",
          "ticks": 23232,
          "time": 40.78649849999999,
          "velocity": 0.3937007874015748
        },
        {
          "duration": 0.16853925000000203,
          "durationTicks": 96,
          "midi": 55,
          "name": "G3",
          "ticks": 23424,
          "time": 41.12357699999999,
          "velocity": 0.3937007874015748
        },
        {
          "duration": 0.16853925000000203,
          "durationTicks": 96,
          "midi": 59,
          "name": "B3",
          "ticks": 23616,
          "time": 41.460655499999994,
          "velocity": 0.3937007874015748
        },
        {
          "duration": 0.16853925000000203,
          "durationTicks": 96,
          "midi": 62,
          "name": "D4",
          "ticks": 23808,
          "time": 41.79773399999999,
          "velocity": 0.3937007874015748
        },
        {
          "duration": 0.16853924999999492,
          "durationTicks": 96,
          "midi": 65,
          "name": "F4",
          "ticks": 24000,
          "time": 42.134812499999995,
          "velocity": 0.3937007874015748
        },
        {
          "duration": 0.16853925000000203,
          "durationTicks": 96,
          "midi": 51,
          "name": "D#3",
          "ticks": 24576,
          "time": 43.14604799999999,
          "velocity": 0.3937007874015748
        },
        {
          "duration": 0.16853925000000203,
          "durationTicks": 96,
          "midi": 55,
          "name": "G3",
          "ticks": 24768,
          "time": 43.48312649999999,
          "velocity": 0.3937007874015748
        },
        {
          "duration": 0.16853925000000203,
          "durationTicks": 96,
          "midi": 58,
          "name": "A#3",
          "ticks": 24960,
          "time": 43.820204999999994,
          "velocity": 0.3937007874015748
        },
        {
          "duration": 0.16853925000000203,
          "durationTicks": 96,
          "midi": 63,
          "name": "D#4",
          "ticks": 25152,
          "time": 44.15728349999999,
          "velocity": 0.3937007874015748
        },
        {
          "duration": 0.16853924999999492,
          "durationTicks": 96,
          "midi": 67,
          "name": "G4",
          "ticks": 25344,
          "time": 44.494361999999995,
          "velocity": 0.3937007874015748
        },
        {
          "duration": 0.16853925000000203,
          "durationTicks": 96,
          "midi": 70,
          "name": "A#4",
          "ticks": 25536,
          "time": 44.83144049999999,
          "velocity": 0.3937007874015748
        },
        {
          "duration": 0.16853924999999492,
          "durationTicks": 96,
          "midi": 74,
          "name": "D5",
          "ticks": 25728,
          "time": 45.168518999999996,
          "velocity": 0.3937007874015748
        },
        {
          "duration": 0.16853925000000203,
          "durationTicks": 96,
          "midi": 74,
          "name": "D5",
          "ticks": 25920,
          "time": 45.50559749999999,
          "velocity": 0.3937007874015748
        },
        {
          "duration": 0.16853925000000203,
          "durationTicks": 96,
          "midi": 70,
          "name": "A#4",
          "ticks": 26112,
          "time": 45.84267599999999,
          "velocity": 0.3937007874015748
        },
        {
          "duration": 0.16853925000000203,
          "durationTicks": 96,
          "midi": 67,
          "name": "G4",
          "ticks": 26304,
          "time": 46.179754499999994,
          "velocity": 0.3937007874015748
        },
        {
          "duration": 0.16853925000000203,
          "durationTicks": 96,
          "midi": 63,
          "name": "D#4",
          "ticks": 26496,
          "time": 46.51683299999999,
          "velocity": 0.3937007874015748
        },
        {
          "duration": 0.16853924999999492,
          "durationTicks": 96,
          "midi": 58,
          "name": "A#3",
          "ticks": 26688,
          "time": 46.853911499999995,
          "velocity": 0.3937007874015748
        },
        {
          "duration": 0.16853925000000203,
          "durationTicks": 96,
          "midi": 55,
          "name": "G3",
          "ticks": 26880,
          "time": 47.19098999999999,
          "velocity": 0.3937007874015748
        },
        {
          "duration": 0.16853925000000203,
          "durationTicks": 96,
          "midi": 51,
          "name": "D#3",
          "ticks": 27072,
          "time": 47.52806849999999,
          "velocity": 0.3937007874015748
        },
        {
          "duration": 0.16853925000000203,
          "durationTicks": 96,
          "midi": 51,
          "name": "D#3",
          "ticks": 27264,
          "time": 47.86514699999999,
          "velocity": 0.3937007874015748
        },
        {
          "duration": 0.16853925000000203,
          "durationTicks": 96,
          "midi": 55,
          "name": "G3",
          "ticks": 27456,
          "time": 48.20222549999999,
          "velocity": 0.3937007874015748
        },
        {
          "duration": 0.16853924999999492,
          "durationTicks": 96,
          "midi": 48,
          "name": "C3",
          "ticks": 27648,
          "time": 48.539303999999994,
          "velocity": 0.3937007874015748
        },
        {
          "duration": 0.16853925000000203,
          "durationTicks": 96,
          "midi": 55,
          "name": "G3",
          "ticks": 27840,
          "time": 48.87638249999999,
          "velocity": 0.3937007874015748
        },
        {
          "duration": 0.16853924999999492,
          "durationTicks": 96,
          "midi": 60,
          "name": "C4",
          "ticks": 28032,
          "time": 49.213460999999995,
          "velocity": 0.3937007874015748
        },
        {
          "duration": 0.16853925000000203,
          "durationTicks": 96,
          "midi": 63,
          "name": "D#4",
          "ticks": 28224,
          "time": 49.55053949999999,
          "velocity": 0.3937007874015748
        },
        {
          "duration": 0.16853925000000203,
          "durationTicks": 96,
          "midi": 67,
          "name": "G4",
          "ticks": 28416,
          "time": 49.88761799999999,
          "velocity": 0.3937007874015748
        },
        {
          "duration": 0.16853925000000203,
          "durationTicks": 96,
          "midi": 70,
          "name": "A#4",
          "ticks": 28608,
          "time": 50.22469649999999,
          "velocity": 0.3937007874015748
        },
        {
          "duration": 0.16853925000000203,
          "durationTicks": 96,
          "midi": 74,
          "name": "D5",
          "ticks": 28800,
          "time": 50.56177499999999,
          "velocity": 0.3937007874015748
        },
        {
          "duration": 0.16853924999999492,
          "durationTicks": 96,
          "midi": 74,
          "name": "D5",
          "ticks": 28992,
          "time": 50.898853499999994,
          "velocity": 0.3937007874015748
        },
        {
          "duration": 0.16853925000000203,
          "durationTicks": 96,
          "midi": 70,
          "name": "A#4",
          "ticks": 29184,
          "time": 51.23593199999999,
          "velocity": 0.3937007874015748
        },
        {
          "duration": 0.16853924999999492,
          "durationTicks": 96,
          "midi": 67,
          "name": "G4",
          "ticks": 29376,
          "time": 51.573010499999995,
          "velocity": 0.3937007874015748
        },
        {
          "duration": 0.16853925000000203,
          "durationTicks": 96,
          "midi": 63,
          "name": "D#4",
          "ticks": 29568,
          "time": 51.91008899999999,
          "velocity": 0.3937007874015748
        },
        {
          "duration": 0.16853925000000203,
          "durationTicks": 96,
          "midi": 60,
          "name": "C4",
          "ticks": 29760,
          "time": 52.24716749999999,
          "velocity": 0.3937007874015748
        },
        {
          "duration": 0.16853925000000203,
          "durationTicks": 96,
          "midi": 55,
          "name": "G3",
          "ticks": 29952,
          "time": 52.58424599999999,
          "velocity": 0.3937007874015748
        },
        {
          "duration": 0.16853925000000203,
          "durationTicks": 96,
          "midi": 48,
          "name": "C3",
          "ticks": 30144,
          "time": 52.92132449999999,
          "velocity": 0.3937007874015748
        },
        {
          "duration": 0.16853924999999492,
          "durationTicks": 96,
          "midi": 48,
          "name": "C3",
          "ticks": 30336,
          "time": 53.258402999999994,
          "velocity": 0.3937007874015748
        },
        {
          "duration": 0.16853925000000203,
          "durationTicks": 96,
          "midi": 55,
          "name": "G3",
          "ticks": 30528,
          "time": 53.59548149999999,
          "velocity": 0.3937007874015748
        },
        {
          "duration": 0.16853924999999492,
          "durationTicks": 96,
          "midi": 41,
          "name": "F2",
          "ticks": 30720,
          "time": 53.932559999999995,
          "velocity": 0.3937007874015748
        },
        {
          "duration": 0.16853925000000203,
          "durationTicks": 96,
          "midi": 48,
          "name": "C3",
          "ticks": 30912,
          "time": 54.26963849999999,
          "velocity": 0.3937007874015748
        },
        {
          "duration": 0.16853925000000203,
          "durationTicks": 96,
          "midi": 60,
          "name": "C4",
          "ticks": 31104,
          "time": 54.60671699999999,
          "velocity": 0.3937007874015748
        },
        {
          "duration": 0.16853924999999492,
          "durationTicks": 96,
          "midi": 63,
          "name": "D#4",
          "ticks": 31296,
          "time": 54.94379549999999,
          "velocity": 0.3937007874015748
        },
        {
          "duration": 0.16853925000000203,
          "durationTicks": 96,
          "midi": 67,
          "name": "G4",
          "ticks": 31488,
          "time": 55.28087399999999,
          "velocity": 0.3937007874015748
        },
        {
          "duration": 0.16853924999999492,
          "durationTicks": 96,
          "midi": 67,
          "name": "G4",
          "ticks": 31680,
          "time": 55.617952499999994,
          "velocity": 0.3937007874015748
        },
        {
          "duration": 0.16853925000000203,
          "durationTicks": 96,
          "midi": 67,
          "name": "G4",
          "ticks": 31872,
          "time": 55.95503099999999,
          "velocity": 0.3937007874015748
        },
        {
          "duration": 0.16853925000000203,
          "durationTicks": 96,
          "midi": 41,
          "name": "F2",
          "ticks": 32064,
          "time": 56.29210949999999,
          "velocity": 0.3937007874015748
        },
        {
          "duration": 0.16853925000000203,
          "durationTicks": 96,
          "midi": 48,
          "name": "C3",
          "ticks": 32256,
          "time": 56.62918799999999,
          "velocity": 0.3937007874015748
        },
        {
          "duration": 0.16853925000000203,
          "durationTicks": 96,
          "midi": 53,
          "name": "F3",
          "ticks": 32448,
          "time": 56.96626649999999,
          "velocity": 0.3937007874015748
        },
        {
          "duration": 0.16853924999999492,
          "durationTicks": 96,
          "midi": 56,
          "name": "G#3",
          "ticks": 32640,
          "time": 57.30334499999999,
          "velocity": 0.3937007874015748
        },
        {
          "duration": 0.16853925000000203,
          "durationTicks": 96,
          "midi": 60,
          "name": "C4",
          "ticks": 32832,
          "time": 57.64042349999999,
          "velocity": 0.3937007874015748
        },
        {
          "duration": 0.16853924999999492,
          "durationTicks": 96,
          "midi": 60,
          "name": "C4",
          "ticks": 33024,
          "time": 57.977501999999994,
          "velocity": 0.3937007874015748
        },
        {
          "duration": 0.16853925000000203,
          "durationTicks": 96,
          "midi": 56,
          "name": "G#3",
          "ticks": 33216,
          "time": 58.31458049999999,
          "velocity": 0.3937007874015748
        },
        {
          "duration": 0.16853925000000203,
          "durationTicks": 96,
          "midi": 60,
          "name": "C4",
          "ticks": 33408,
          "time": 58.65165899999999,
          "velocity": 0.3937007874015748
        },
        {
          "duration": 0.16853925000000203,
          "durationTicks": 96,
          "midi": 48,
          "name": "C3",
          "ticks": 33600,
          "time": 58.98873749999999,
          "velocity": 0.3937007874015748
        },
        {
          "duration": 0.16853925000000203,
          "durationTicks": 96,
          "midi": 41,
          "name": "F2",
          "ticks": 33600,
          "time": 58.98873749999999,
          "velocity": 0.3937007874015748
        },
        {
          "duration": 0.16853925000000203,
          "durationTicks": 96,
          "midi": 53,
          "name": "F3",
          "ticks": 33600,
          "time": 58.98873749999999,
          "velocity": 0.3937007874015748
        },
        {
          "duration": 0.16853925000000203,
          "durationTicks": 96,
          "midi": 43,
          "name": "G2",
          "ticks": 33792,
          "time": 59.32581599999999,
          "velocity": 0.3937007874015748
        },
        {
          "duration": 0.16853924999999492,
          "durationTicks": 96,
          "midi": 55,
          "name": "G3",
          "ticks": 33984,
          "time": 59.66289449999999,
          "velocity": 0.3937007874015748
        },
        {
          "duration": 0.16853925000000203,
          "durationTicks": 96,
          "midi": 58,
          "name": "A#3",
          "ticks": 34176,
          "time": 59.99997299999999,
          "velocity": 0.3937007874015748
        },
        {
          "duration": 0.16853924999999492,
          "durationTicks": 96,
          "midi": 62,
          "name": "D4",
          "ticks": 34368,
          "time": 60.337051499999994,
          "velocity": 0.3937007874015748
        },
        {
          "duration": 0.16853925000000203,
          "durationTicks": 96,
          "midi": 65,
          "name": "F4",
          "ticks": 34560,
          "time": 60.67412999999999,
          "velocity": 0.3937007874015748
        },
        {
          "duration": 0.16853925000000203,
          "durationTicks": 96,
          "midi": 65,
          "name": "F4",
          "ticks": 34752,
          "time": 61.01120849999999,
          "velocity": 0.3937007874015748
        },
        {
          "duration": 0.16853924999999492,
          "durationTicks": 96,
          "midi": 62,
          "name": "D4",
          "ticks": 34944,
          "time": 61.34828699999999,
          "velocity": 0.3937007874015748
        },
        {
          "duration": 0.16853924999999492,
          "durationTicks": 96,
          "midi": 43,
          "name": "G2",
          "ticks": 35328,
          "time": 62.02244399999999,
          "velocity": 0.3937007874015748
        },
        {
          "duration": 0.16853925000000203,
          "durationTicks": 96,
          "midi": 47,
          "name": "B2",
          "ticks": 35520,
          "time": 62.35952249999999,
          "velocity": 0.3937007874015748
        },
        {
          "duration": 0.16853925000000203,
          "durationTicks": 96,
          "midi": 55,
          "name": "G3",
          "ticks": 35712,
          "time": 62.69660099999999,
          "velocity": 0.3937007874015748
        },
        {
          "duration": 0.16853925000000203,
          "durationTicks": 96,
          "midi": 59,
          "name": "B3",
          "ticks": 35904,
          "time": 63.03367949999999,
          "velocity": 0.3937007874015748
        },
        {
          "duration": 0.16853925000000203,
          "durationTicks": 96,
          "midi": 62,
          "name": "D4",
          "ticks": 36096,
          "time": 63.37075799999999,
          "velocity": 0.3937007874015748
        },
        {
          "duration": 0.16853924999999492,
          "durationTicks": 96,
          "midi": 65,
          "name": "F4",
          "ticks": 36288,
          "time": 63.70783649999999,
          "velocity": 0.3937007874015748
        }
      ],
      "endOfTrackTicks": 36384
    },
    {
      "channel": 9,
      "controlChanges": {},
      "pitchBends": [],
      "instrument": {
        "family": "drums",
        "number": 0,
        "name": "standard kit"
      },
      "name": "Electric Drum Kit",
      "notes": [
        {
          "duration": 0.16853924999999997,
          "durationTicks": 96,
          "midi": 35,
          "name": "B1",
          "ticks": 0,
          "time": 0,
          "velocity": 0.3937007874015748
        },
        {
          "duration": 0.16853924999999992,
          "durationTicks": 96,
          "midi": 42,
          "name": "F#2",
          "ticks": 192,
          "time": 0.33707849999999995,
          "velocity": 0.3937007874015748
        },
        {
          "duration": 0.16853925000000003,
          "durationTicks": 96,
          "midi": 42,
          "name": "F#2",
          "ticks": 384,
          "time": 0.6741569999999999,
          "velocity": 0.3937007874015748
        },
        {
          "duration": 0.16853925000000003,
          "durationTicks": 96,
          "midi": 42,
          "name": "F#2",
          "ticks": 576,
          "time": 1.0112354999999997,
          "velocity": 0.3937007874015748
        },
        {
          "duration": 0.16853925000000003,
          "durationTicks": 96,
          "midi": 39,
          "name": "D#2",
          "ticks": 768,
          "time": 1.3483139999999998,
          "velocity": 0.3937007874015748
        },
        {
          "duration": 0.16853925000000025,
          "durationTicks": 96,
          "midi": 42,
          "name": "F#2",
          "ticks": 1344,
          "time": 2.3595494999999995,
          "velocity": 0.3937007874015748
        },
        {
          "duration": 0.1685392499999998,
          "durationTicks": 96,
          "midi": 35,
          "name": "B1",
          "ticks": 1536,
          "time": 2.6966279999999996,
          "velocity": 0.3937007874015748
        },
        {
          "duration": 0.1685392499999998,
          "durationTicks": 96,
          "midi": 42,
          "name": "F#2",
          "ticks": 1536,
          "time": 2.6966279999999996,
          "velocity": 0.3937007874015748
        },
        {
          "duration": 0.1685392499999998,
          "durationTicks": 96,
          "midi": 42,
          "name": "F#2",
          "ticks": 1728,
          "time": 3.0337064999999996,
          "velocity": 0.3937007874015748
        },
        {
          "duration": 0.1685392499999998,
          "durationTicks": 96,
          "midi": 42,
          "name": "F#2",
          "ticks": 1920,
          "time": 3.3707849999999997,
          "velocity": 0.3937007874015748
        },
        {
          "duration": 0.16853925000000025,
          "durationTicks": 96,
          "midi": 42,
          "name": "F#2",
          "ticks": 2112,
          "time": 3.7078634999999993,
          "velocity": 0.3937007874015748
        },
        {
          "duration": 0.16853925000000025,
          "durationTicks": 96,
          "midi": 39,
          "name": "D#2",
          "ticks": 2304,
          "time": 4.044941999999999,
          "velocity": 0.3937007874015748
        },
        {
          "duration": 0.16853924999999936,
          "durationTicks": 96,
          "midi": 42,
          "name": "F#2",
          "ticks": 2880,
          "time": 5.0561774999999995,
          "velocity": 0.3937007874015748
        },
        {
          "duration": 0.16853925000000025,
          "durationTicks": 96,
          "midi": 35,
          "name": "B1",
          "ticks": 3072,
          "time": 5.393255999999999,
          "velocity": 0.3937007874015748
        },
        {
          "duration": 0.16853925000000025,
          "durationTicks": 96,
          "midi": 42,
          "name": "F#2",
          "ticks": 3072,
          "time": 5.393255999999999,
          "velocity": 0.3937007874015748
        },
        {
          "duration": 0.16853925000000025,
          "durationTicks": 96,
          "midi": 42,
          "name": "F#2",
          "ticks": 3264,
          "time": 5.730334499999999,
          "velocity": 0.3937007874015748
        },
        {
          "duration": 0.16853924999999936,
          "durationTicks": 96,
          "midi": 42,
          "name": "F#2",
          "ticks": 3456,
          "time": 6.067412999999999,
          "velocity": 0.3937007874015748
        },
        {
          "duration": 0.16853925000000025,
          "durationTicks": 96,
          "midi": 42,
          "name": "F#2",
          "ticks": 3648,
          "time": 6.404491499999999,
          "velocity": 0.3937007874015748
        },
        {
          "duration": 0.16853924999999936,
          "durationTicks": 96,
          "midi": 39,
          "name": "D#2",
          "ticks": 3840,
          "time": 6.741569999999999,
          "velocity": 0.3937007874015748
        },
        {
          "duration": 0.16853925000000025,
          "durationTicks": 96,
          "midi": 35,
          "name": "B1",
          "ticks": 4608,
          "time": 8.089883999999998,
          "velocity": 0.3937007874015748
        },
        {
          "duration": 0.16853925000000025,
          "durationTicks": 96,
          "midi": 42,
          "name": "F#2",
          "ticks": 4608,
          "time": 8.089883999999998,
          "velocity": 0.3937007874015748
        },
        {
          "duration": 0.16853925000000025,
          "durationTicks": 96,
          "midi": 42,
          "name": "F#2",
          "ticks": 4800,
          "time": 8.426962499999998,
          "velocity": 0.3937007874015748
        },
        {
          "duration": 0.16853925000000025,
          "durationTicks": 96,
          "midi": 42,
          "name": "F#2",
          "ticks": 4992,
          "time": 8.764040999999999,
          "velocity": 0.3937007874015748
        },
        {
          "duration": 0.16853924999999848,
          "durationTicks": 96,
          "midi": 42,
          "name": "F#2",
          "ticks": 5184,
          "time": 9.1011195,
          "velocity": 0.3937007874015748
        },
        {
          "duration": 0.16853925000000025,
          "durationTicks": 96,
          "midi": 39,
          "name": "D#2",
          "ticks": 5376,
          "time": 9.438197999999998,
          "velocity": 0.3937007874015748
        },
        {
          "duration": 0.16853925000000025,
          "durationTicks": 96,
          "midi": 35,
          "name": "B1",
          "ticks": 6144,
          "time": 10.786511999999998,
          "velocity": 0.3937007874015748
        },
        {
          "duration": 0.16853925000000025,
          "durationTicks": 96,
          "midi": 42,
          "name": "F#2",
          "ticks": 6144,
          "time": 10.786511999999998,
          "velocity": 0.3937007874015748
        },
        {
          "duration": 0.16853925000000025,
          "durationTicks": 96,
          "midi": 42,
          "name": "F#2",
          "ticks": 6336,
          "time": 11.123590499999999,
          "velocity": 0.3937007874015748
        },
        {
          "duration": 0.16853925000000025,
          "durationTicks": 96,
          "midi": 42,
          "name": "F#2",
          "ticks": 6528,
          "time": 11.460668999999998,
          "velocity": 0.3937007874015748
        },
        {
          "duration": 0.16853925000000025,
          "durationTicks": 96,
          "midi": 42,
          "name": "F#2",
          "ticks": 6720,
          "time": 11.797747499999998,
          "velocity": 0.3937007874015748
        },
        {
          "duration": 0.16853925000000025,
          "durationTicks": 96,
          "midi": 39,
          "name": "D#2",
          "ticks": 6912,
          "time": 12.134825999999999,
          "velocity": 0.3937007874015748
        },
        {
          "duration": 0.16853925000000025,
          "durationTicks": 96,
          "midi": 42,
          "name": "F#2",
          "ticks": 6912,
          "time": 12.134825999999999,
          "velocity": 0.3937007874015748
        },
        {
          "duration": 0.16853925000000025,
          "durationTicks": 96,
          "midi": 42,
          "name": "F#2",
          "ticks": 7104,
          "time": 12.471904499999997,
          "velocity": 0.3937007874015748
        },
        {
          "duration": 0.16853925000000025,
          "durationTicks": 96,
          "midi": 42,
          "name": "F#2",
          "ticks": 7296,
          "time": 12.808982999999998,
          "velocity": 0.3937007874015748
        },
        {
          "duration": 0.16853925000000025,
          "durationTicks": 96,
          "midi": 42,
          "name": "F#2",
          "ticks": 7488,
          "time": 13.146061499999998,
          "velocity": 0.3937007874015748
        },
        {
          "duration": 0.16853924999999848,
          "durationTicks": 96,
          "midi": 35,
          "name": "B1",
          "ticks": 7680,
          "time": 13.483139999999999,
          "velocity": 0.3937007874015748
        },
        {
          "duration": 0.16853925000000025,
          "durationTicks": 96,
          "midi": 42,
          "name": "F#2",
          "ticks": 7872,
          "time": 13.820218499999998,
          "velocity": 0.3937007874015748
        },
        {
          "duration": 0.16853925000000025,
          "durationTicks": 96,
          "midi": 42,
          "name": "F#2",
          "ticks": 8064,
          "time": 14.157296999999998,
          "velocity": 0.3937007874015748
        },
        {
          "duration": 0.16853924999999848,
          "durationTicks": 96,
          "midi": 42,
          "name": "F#2",
          "ticks": 8256,
          "time": 14.494375499999999,
          "velocity": 0.3937007874015748
        },
        {
          "duration": 0.16853925000000025,
          "durationTicks": 96,
          "midi": 39,
          "name": "D#2",
          "ticks": 8448,
          "time": 14.831453999999997,
          "velocity": 0.3937007874015748
        },
        {
          "duration": 0.16853925000000203,
          "durationTicks": 96,
          "midi": 35,
          "name": "B1",
          "ticks": 9216,
          "time": 16.179767999999996,
          "velocity": 0.3937007874015748
        },
        {
          "duration": 0.16853925000000203,
          "durationTicks": 96,
          "midi": 42,
          "name": "F#2",
          "ticks": 9408,
          "time": 16.516846499999996,
          "velocity": 0.3937007874015748
        },
        {
          "duration": 0.16853925000000203,
          "durationTicks": 96,
          "midi": 42,
          "name": "F#2",
          "ticks": 9600,
          "time": 16.853924999999997,
          "velocity": 0.3937007874015748
        },
        {
          "duration": 0.16853924999999848,
          "durationTicks": 96,
          "midi": 42,
          "name": "F#2",
          "ticks": 9792,
          "time": 17.191003499999997,
          "velocity": 0.3937007874015748
        },
        {
          "duration": 0.16853924999999848,
          "durationTicks": 96,
          "midi": 39,
          "name": "D#2",
          "ticks": 9984,
          "time": 17.528081999999998,
          "velocity": 0.3937007874015748
        },
        {
          "duration": 0.16853924999999848,
          "durationTicks": 96,
          "midi": 42,
          "name": "F#2",
          "ticks": 9984,
          "time": 17.528081999999998,
          "velocity": 0.3937007874015748
        },
        {
          "duration": 0.16853924999999848,
          "durationTicks": 96,
          "midi": 42,
          "name": "F#2",
          "ticks": 10176,
          "time": 17.865160499999998,
          "velocity": 0.3937007874015748
        },
        {
          "duration": 0.16853924999999848,
          "durationTicks": 96,
          "midi": 42,
          "name": "F#2",
          "ticks": 10368,
          "time": 18.202239,
          "velocity": 0.3937007874015748
        },
        {
          "duration": 0.16853925000000203,
          "durationTicks": 96,
          "midi": 42,
          "name": "F#2",
          "ticks": 10560,
          "time": 18.539317499999996,
          "velocity": 0.3937007874015748
        },
        {
          "duration": 0.16853925000000203,
          "durationTicks": 96,
          "midi": 35,
          "name": "B1",
          "ticks": 10752,
          "time": 18.876395999999996,
          "velocity": 0.3937007874015748
        },
        {
          "duration": 0.16853925000000203,
          "durationTicks": 96,
          "midi": 42,
          "name": "F#2",
          "ticks": 10752,
          "time": 18.876395999999996,
          "velocity": 0.3937007874015748
        },
        {
          "duration": 0.16853924999999848,
          "durationTicks": 96,
          "midi": 35,
          "name": "B1",
          "ticks": 12288,
          "time": 21.573023999999997,
          "velocity": 0.3937007874015748
        },
        {
          "duration": 0.16853924999999848,
          "durationTicks": 96,
          "midi": 42,
          "name": "F#2",
          "ticks": 12480,
          "time": 21.910102499999997,
          "velocity": 0.3937007874015748
        },
        {
          "duration": 0.16853924999999848,
          "durationTicks": 96,
          "midi": 42,
          "name": "F#2",
          "ticks": 12672,
          "time": 22.247180999999998,
          "velocity": 0.3937007874015748
        },
        {
          "duration": 0.16853924999999848,
          "durationTicks": 96,
          "midi": 42,
          "name": "F#2",
          "ticks": 12864,
          "time": 22.584259499999998,
          "velocity": 0.3937007874015748
        },
        {
          "duration": 0.16853925000000203,
          "durationTicks": 96,
          "midi": 39,
          "name": "D#2",
          "ticks": 13056,
          "time": 22.921337999999995,
          "velocity": 0.3937007874015748
        },
        {
          "duration": 0.16853924999999848,
          "durationTicks": 96,
          "midi": 42,
          "name": "F#2",
          "ticks": 13632,
          "time": 23.932573499999997,
          "velocity": 0.3937007874015748
        },
        {
          "duration": 0.16853924999999848,
          "durationTicks": 96,
          "midi": 35,
          "name": "B1",
          "ticks": 13824,
          "time": 24.269651999999997,
          "velocity": 0.3937007874015748
        },
        {
          "duration": 0.16853924999999848,
          "durationTicks": 96,
          "midi": 42,
          "name": "F#2",
          "ticks": 13824,
          "time": 24.269651999999997,
          "velocity": 0.3937007874015748
        },
        {
          "duration": 0.16853924999999848,
          "durationTicks": 96,
          "midi": 42,
          "name": "F#2",
          "ticks": 14016,
          "time": 24.606730499999998,
          "velocity": 0.3937007874015748
        },
        {
          "duration": 0.16853925000000203,
          "durationTicks": 96,
          "midi": 42,
          "name": "F#2",
          "ticks": 14208,
          "time": 24.943808999999995,
          "velocity": 0.3937007874015748
        },
        {
          "duration": 0.16853925000000203,
          "durationTicks": 96,
          "midi": 42,
          "name": "F#2",
          "ticks": 14400,
          "time": 25.280887499999995,
          "velocity": 0.3937007874015748
        },
        {
          "duration": 0.16853925000000203,
          "durationTicks": 96,
          "midi": 39,
          "name": "D#2",
          "ticks": 14592,
          "time": 25.617965999999996,
          "velocity": 0.3937007874015748
        },
        {
          "duration": 0.16853924999999848,
          "durationTicks": 96,
          "midi": 42,
          "name": "F#2",
          "ticks": 15168,
          "time": 26.629201499999997,
          "velocity": 0.3937007874015748
        },
        {
          "duration": 0.16853924999999848,
          "durationTicks": 96,
          "midi": 35,
          "name": "B1",
          "ticks": 15360,
          "time": 26.966279999999998,
          "velocity": 0.3937007874015748
        },
        {
          "duration": 0.16853924999999848,
          "durationTicks": 96,
          "midi": 42,
          "name": "F#2",
          "ticks": 15360,
          "time": 26.966279999999998,
          "velocity": 0.3937007874015748
        },
        {
          "duration": 0.16853925000000203,
          "durationTicks": 96,
          "midi": 42,
          "name": "F#2",
          "ticks": 15552,
          "time": 27.303358499999995,
          "velocity": 0.3937007874015748
        },
        {
          "duration": 0.16853925000000203,
          "durationTicks": 96,
          "midi": 42,
          "name": "F#2",
          "ticks": 15744,
          "time": 27.640436999999995,
          "velocity": 0.3937007874015748
        },
        {
          "duration": 0.16853924999999848,
          "durationTicks": 96,
          "midi": 42,
          "name": "F#2",
          "ticks": 15936,
          "time": 27.977515499999996,
          "velocity": 0.3937007874015748
        },
        {
          "duration": 0.16853924999999848,
          "durationTicks": 96,
          "midi": 39,
          "name": "D#2",
          "ticks": 16128,
          "time": 28.314593999999996,
          "velocity": 0.3937007874015748
        },
        {
          "duration": 0.16853925000000203,
          "durationTicks": 96,
          "midi": 35,
          "name": "B1",
          "ticks": 16896,
          "time": 29.662907999999995,
          "velocity": 0.3937007874015748
        },
        {
          "duration": 0.16853925000000203,
          "durationTicks": 96,
          "midi": 42,
          "name": "F#2",
          "ticks": 16896,
          "time": 29.662907999999995,
          "velocity": 0.3937007874015748
        },
        {
          "duration": 0.16853925000000203,
          "durationTicks": 96,
          "midi": 42,
          "name": "F#2",
          "ticks": 17088,
          "time": 29.999986499999995,
          "velocity": 0.3937007874015748
        },
        {
          "duration": 0.16853924999999848,
          "durationTicks": 96,
          "midi": 42,
          "name": "F#2",
          "ticks": 17280,
          "time": 30.337064999999996,
          "velocity": 0.3937007874015748
        },
        {
          "duration": 0.16853924999999848,
          "durationTicks": 96,
          "midi": 42,
          "name": "F#2",
          "ticks": 17472,
          "time": 30.674143499999996,
          "velocity": 0.3937007874015748
        },
        {
          "duration": 0.16853924999999848,
          "durationTicks": 96,
          "midi": 39,
          "name": "D#2",
          "ticks": 17664,
          "time": 31.011221999999997,
          "velocity": 0.3937007874015748
        },
        {
          "duration": 0.16853925000000203,
          "durationTicks": 96,
          "midi": 35,
          "name": "B1",
          "ticks": 18432,
          "time": 32.35953599999999,
          "velocity": 0.3937007874015748
        },
        {
          "duration": 0.16853925000000203,
          "durationTicks": 96,
          "midi": 42,
          "name": "F#2",
          "ticks": 18432,
          "time": 32.35953599999999,
          "velocity": 0.3937007874015748
        },
        {
          "duration": 0.16853925000000203,
          "durationTicks": 96,
          "midi": 42,
          "name": "F#2",
          "ticks": 18624,
          "time": 32.696614499999995,
          "velocity": 0.3937007874015748
        },
        {
          "duration": 0.16853925000000203,
          "durationTicks": 96,
          "midi": 42,
          "name": "F#2",
          "ticks": 18816,
          "time": 33.03369299999999,
          "velocity": 0.3937007874015748
        },
        {
          "duration": 0.16853924999999492,
          "durationTicks": 96,
          "midi": 42,
          "name": "F#2",
          "ticks": 19008,
          "time": 33.3707715,
          "velocity": 0.3937007874015748
        },
        {
          "duration": 0.16853925000000203,
          "durationTicks": 96,
          "midi": 39,
          "name": "D#2",
          "ticks": 19200,
          "time": 33.70784999999999,
          "velocity": 0.3937007874015748
        },
        {
          "duration": 0.16853925000000203,
          "durationTicks": 96,
          "midi": 42,
          "name": "F#2",
          "ticks": 19200,
          "time": 33.70784999999999,
          "velocity": 0.3937007874015748
        },
        {
          "duration": 0.16853924999999492,
          "durationTicks": 96,
          "midi": 42,
          "name": "F#2",
          "ticks": 19392,
          "time": 34.0449285,
          "velocity": 0.3937007874015748
        },
        {
          "duration": 0.16853925000000203,
          "durationTicks": 96,
          "midi": 42,
          "name": "F#2",
          "ticks": 19584,
          "time": 34.382006999999994,
          "velocity": 0.3937007874015748
        },
        {
          "duration": 0.16853925000000203,
          "durationTicks": 96,
          "midi": 42,
          "name": "F#2",
          "ticks": 19776,
          "time": 34.71908549999999,
          "velocity": 0.3937007874015748
        },
        {
          "duration": 0.16853925000000203,
          "durationTicks": 96,
          "midi": 35,
          "name": "B1",
          "ticks": 19968,
          "time": 35.056163999999995,
          "velocity": 0.3937007874015748
        },
        {
          "duration": 0.16853925000000203,
          "durationTicks": 96,
          "midi": 42,
          "name": "F#2",
          "ticks": 20160,
          "time": 35.39324249999999,
          "velocity": 0.3937007874015748
        },
        {
          "duration": 0.16853924999999492,
          "durationTicks": 96,
          "midi": 42,
          "name": "F#2",
          "ticks": 20352,
          "time": 35.730320999999996,
          "velocity": 0.3937007874015748
        },
        {
          "duration": 0.16853925000000203,
          "durationTicks": 96,
          "midi": 42,
          "name": "F#2",
          "ticks": 20544,
          "time": 36.06739949999999,
          "velocity": 0.3937007874015748
        },
        {
          "duration": 0.16853924999999492,
          "durationTicks": 96,
          "midi": 39,
          "name": "D#2",
          "ticks": 20736,
          "time": 36.404478,
          "velocity": 0.3937007874015748
        },
        {
          "duration": 0.16853925000000203,
          "durationTicks": 96,
          "midi": 35,
          "name": "B1",
          "ticks": 21504,
          "time": 37.75279199999999,
          "velocity": 0.3937007874015748
        },
        {
          "duration": 0.16853924999999492,
          "durationTicks": 96,
          "midi": 42,
          "name": "F#2",
          "ticks": 21696,
          "time": 38.089870499999996,
          "velocity": 0.3937007874015748
        },
        {
          "duration": 0.16853925000000203,
          "durationTicks": 96,
          "midi": 42,
          "name": "F#2",
          "ticks": 21888,
          "time": 38.42694899999999,
          "velocity": 0.3937007874015748
        },
        {
          "duration": 0.16853924999999492,
          "durationTicks": 96,
          "midi": 42,
          "name": "F#2",
          "ticks": 22080,
          "time": 38.7640275,
          "velocity": 0.3937007874015748
        },
        {
          "duration": 0.16853925000000203,
          "durationTicks": 96,
          "midi": 39,
          "name": "D#2",
          "ticks": 22272,
          "time": 39.101105999999994,
          "velocity": 0.3937007874015748
        },
        {
          "duration": 0.16853925000000203,
          "durationTicks": 96,
          "midi": 42,
          "name": "F#2",
          "ticks": 22272,
          "time": 39.101105999999994,
          "velocity": 0.3937007874015748
        },
        {
          "duration": 0.16853925000000203,
          "durationTicks": 96,
          "midi": 42,
          "name": "F#2",
          "ticks": 22464,
          "time": 39.43818449999999,
          "velocity": 0.3937007874015748
        },
        {
          "duration": 0.16853924999999492,
          "durationTicks": 96,
          "midi": 42,
          "name": "F#2",
          "ticks": 22656,
          "time": 39.775262999999995,
          "velocity": 0.3937007874015748
        },
        {
          "duration": 0.16853925000000203,
          "durationTicks": 96,
          "midi": 42,
          "name": "F#2",
          "ticks": 22848,
          "time": 40.11234149999999,
          "velocity": 0.3937007874015748
        },
        {
          "duration": 0.16853924999999492,
          "durationTicks": 96,
          "midi": 35,
          "name": "B1",
          "ticks": 23040,
          "time": 40.449419999999996,
          "velocity": 0.3937007874015748
        },
        {
          "duration": 0.16853924999999492,
          "durationTicks": 96,
          "midi": 42,
          "name": "F#2",
          "ticks": 23040,
          "time": 40.449419999999996,
          "velocity": 0.3937007874015748
        },
        {
          "duration": 0.16853925000000203,
          "durationTicks": 96,
          "midi": 35,
          "name": "B1",
          "ticks": 24576,
          "time": 43.14604799999999,
          "velocity": 0.3937007874015748
        },
        {
          "duration": 0.16853925000000203,
          "durationTicks": 96,
          "midi": 42,
          "name": "F#2",
          "ticks": 24768,
          "time": 43.48312649999999,
          "velocity": 0.3937007874015748
        },
        {
          "duration": 0.16853925000000203,
          "durationTicks": 96,
          "midi": 42,
          "name": "F#2",
          "ticks": 24960,
          "time": 43.820204999999994,
          "velocity": 0.3937007874015748
        },
        {
          "duration": 0.16853925000000203,
          "durationTicks": 96,
          "midi": 42,
          "name": "F#2",
          "ticks": 25152,
          "time": 44.15728349999999,
          "velocity": 0.3937007874015748
        },
        {
          "duration": 0.16853924999999492,
          "durationTicks": 96,
          "midi": 39,
          "name": "D#2",
          "ticks": 25344,
          "time": 44.494361999999995,
          "velocity": 0.3937007874015748
        },
        {
          "duration": 0.16853925000000203,
          "durationTicks": 96,
          "midi": 42,
          "name": "F#2",
          "ticks": 25920,
          "time": 45.50559749999999,
          "velocity": 0.3937007874015748
        },
        {
          "duration": 0.16853925000000203,
          "durationTicks": 96,
          "midi": 35,
          "name": "B1",
          "ticks": 26112,
          "time": 45.84267599999999,
          "velocity": 0.3937007874015748
        },
        {
          "duration": 0.16853925000000203,
          "durationTicks": 96,
          "midi": 42,
          "name": "F#2",
          "ticks": 26112,
          "time": 45.84267599999999,
          "velocity": 0.3937007874015748
        },
        {
          "duration": 0.16853925000000203,
          "durationTicks": 96,
          "midi": 42,
          "name": "F#2",
          "ticks": 26304,
          "time": 46.179754499999994,
          "velocity": 0.3937007874015748
        },
        {
          "duration": 0.16853925000000203,
          "durationTicks": 96,
          "midi": 42,
          "name": "F#2",
          "ticks": 26496,
          "time": 46.51683299999999,
          "velocity": 0.3937007874015748
        },
        {
          "duration": 0.16853924999999492,
          "durationTicks": 96,
          "midi": 42,
          "name": "F#2",
          "ticks": 26688,
          "time": 46.853911499999995,
          "velocity": 0.3937007874015748
        },
        {
          "duration": 0.16853925000000203,
          "durationTicks": 96,
          "midi": 39,
          "name": "D#2",
          "ticks": 26880,
          "time": 47.19098999999999,
          "velocity": 0.3937007874015748
        },
        {
          "duration": 0.16853925000000203,
          "durationTicks": 96,
          "midi": 42,
          "name": "F#2",
          "ticks": 27456,
          "time": 48.20222549999999,
          "velocity": 0.3937007874015748
        },
        {
          "duration": 0.16853924999999492,
          "durationTicks": 96,
          "midi": 35,
          "name": "B1",
          "ticks": 27648,
          "time": 48.539303999999994,
          "velocity": 0.3937007874015748
        },
        {
          "duration": 0.16853924999999492,
          "durationTicks": 96,
          "midi": 42,
          "name": "F#2",
          "ticks": 27648,
          "time": 48.539303999999994,
          "velocity": 0.3937007874015748
        },
        {
          "duration": 0.16853925000000203,
          "durationTicks": 96,
          "midi": 42,
          "name": "F#2",
          "ticks": 27840,
          "time": 48.87638249999999,
          "velocity": 0.3937007874015748
        },
        {
          "duration": 0.16853924999999492,
          "durationTicks": 96,
          "midi": 42,
          "name": "F#2",
          "ticks": 28032,
          "time": 49.213460999999995,
          "velocity": 0.3937007874015748
        },
        {
          "duration": 0.16853925000000203,
          "durationTicks": 96,
          "midi": 42,
          "name": "F#2",
          "ticks": 28224,
          "time": 49.55053949999999,
          "velocity": 0.3937007874015748
        },
        {
          "duration": 0.16853925000000203,
          "durationTicks": 96,
          "midi": 39,
          "name": "D#2",
          "ticks": 28416,
          "time": 49.88761799999999,
          "velocity": 0.3937007874015748
        },
        {
          "duration": 0.16853925000000203,
          "durationTicks": 96,
          "midi": 35,
          "name": "B1",
          "ticks": 29184,
          "time": 51.23593199999999,
          "velocity": 0.3937007874015748
        },
        {
          "duration": 0.16853925000000203,
          "durationTicks": 96,
          "midi": 42,
          "name": "F#2",
          "ticks": 29184,
          "time": 51.23593199999999,
          "velocity": 0.3937007874015748
        },
        {
          "duration": 0.16853924999999492,
          "durationTicks": 96,
          "midi": 42,
          "name": "F#2",
          "ticks": 29376,
          "time": 51.573010499999995,
          "velocity": 0.3937007874015748
        },
        {
          "duration": 0.16853925000000203,
          "durationTicks": 96,
          "midi": 42,
          "name": "F#2",
          "ticks": 29568,
          "time": 51.91008899999999,
          "velocity": 0.3937007874015748
        },
        {
          "duration": 0.16853925000000203,
          "durationTicks": 96,
          "midi": 42,
          "name": "F#2",
          "ticks": 29760,
          "time": 52.24716749999999,
          "velocity": 0.3937007874015748
        },
        {
          "duration": 0.16853925000000203,
          "durationTicks": 96,
          "midi": 39,
          "name": "D#2",
          "ticks": 29952,
          "time": 52.58424599999999,
          "velocity": 0.3937007874015748
        },
        {
          "duration": 0.16853924999999492,
          "durationTicks": 96,
          "midi": 35,
          "name": "B1",
          "ticks": 30720,
          "time": 53.932559999999995,
          "velocity": 0.3937007874015748
        },
        {
          "duration": 0.16853924999999492,
          "durationTicks": 96,
          "midi": 42,
          "name": "F#2",
          "ticks": 30720,
          "time": 53.932559999999995,
          "velocity": 0.3937007874015748
        },
        {
          "duration": 0.16853925000000203,
          "durationTicks": 96,
          "midi": 42,
          "name": "F#2",
          "ticks": 30912,
          "time": 54.26963849999999,
          "velocity": 0.3937007874015748
        },
        {
          "duration": 0.16853925000000203,
          "durationTicks": 96,
          "midi": 42,
          "name": "F#2",
          "ticks": 31104,
          "time": 54.60671699999999,
          "velocity": 0.3937007874015748
        },
        {
          "duration": 0.16853924999999492,
          "durationTicks": 96,
          "midi": 42,
          "name": "F#2",
          "ticks": 31296,
          "time": 54.94379549999999,
          "velocity": 0.3937007874015748
        },
        {
          "duration": 0.16853925000000203,
          "durationTicks": 96,
          "midi": 39,
          "name": "D#2",
          "ticks": 31488,
          "time": 55.28087399999999,
          "velocity": 0.3937007874015748
        },
        {
          "duration": 0.16853925000000203,
          "durationTicks": 96,
          "midi": 42,
          "name": "F#2",
          "ticks": 31488,
          "time": 55.28087399999999,
          "velocity": 0.3937007874015748
        },
        {
          "duration": 0.16853924999999492,
          "durationTicks": 96,
          "midi": 42,
          "name": "F#2",
          "ticks": 31680,
          "time": 55.617952499999994,
          "velocity": 0.3937007874015748
        },
        {
          "duration": 0.16853925000000203,
          "durationTicks": 96,
          "midi": 42,
          "name": "F#2",
          "ticks": 31872,
          "time": 55.95503099999999,
          "velocity": 0.3937007874015748
        },
        {
          "duration": 0.16853925000000203,
          "durationTicks": 96,
          "midi": 42,
          "name": "F#2",
          "ticks": 32064,
          "time": 56.29210949999999,
          "velocity": 0.3937007874015748
        },
        {
          "duration": 0.16853925000000203,
          "durationTicks": 96,
          "midi": 35,
          "name": "B1",
          "ticks": 32256,
          "time": 56.62918799999999,
          "velocity": 0.3937007874015748
        },
        {
          "duration": 0.16853925000000203,
          "durationTicks": 96,
          "midi": 42,
          "name": "F#2",
          "ticks": 32448,
          "time": 56.96626649999999,
          "velocity": 0.3937007874015748
        },
        {
          "duration": 0.16853924999999492,
          "durationTicks": 96,
          "midi": 42,
          "name": "F#2",
          "ticks": 32640,
          "time": 57.30334499999999,
          "velocity": 0.3937007874015748
        },
        {
          "duration": 0.16853925000000203,
          "durationTicks": 96,
          "midi": 42,
          "name": "F#2",
          "ticks": 32832,
          "time": 57.64042349999999,
          "velocity": 0.3937007874015748
        },
        {
          "duration": 0.16853924999999492,
          "durationTicks": 96,
          "midi": 39,
          "name": "D#2",
          "ticks": 33024,
          "time": 57.977501999999994,
          "velocity": 0.3937007874015748
        },
        {
          "duration": 0.16853925000000203,
          "durationTicks": 96,
          "midi": 35,
          "name": "B1",
          "ticks": 33792,
          "time": 59.32581599999999,
          "velocity": 0.3937007874015748
        },
        {
          "duration": 0.16853924999999492,
          "durationTicks": 96,
          "midi": 42,
          "name": "F#2",
          "ticks": 33984,
          "time": 59.66289449999999,
          "velocity": 0.3937007874015748
        },
        {
          "duration": 0.16853925000000203,
          "durationTicks": 96,
          "midi": 42,
          "name": "F#2",
          "ticks": 34176,
          "time": 59.99997299999999,
          "velocity": 0.3937007874015748
        },
        {
          "duration": 0.16853924999999492,
          "durationTicks": 96,
          "midi": 42,
          "name": "F#2",
          "ticks": 34368,
          "time": 60.337051499999994,
          "velocity": 0.3937007874015748
        },
        {
          "duration": 0.16853925000000203,
          "durationTicks": 96,
          "midi": 39,
          "name": "D#2",
          "ticks": 34560,
          "time": 60.67412999999999,
          "velocity": 0.3937007874015748
        },
        {
          "duration": 0.16853925000000203,
          "durationTicks": 96,
          "midi": 42,
          "name": "F#2",
          "ticks": 34560,
          "time": 60.67412999999999,
          "velocity": 0.3937007874015748
        },
        {
          "duration": 0.16853925000000203,
          "durationTicks": 96,
          "midi": 42,
          "name": "F#2",
          "ticks": 34752,
          "time": 61.01120849999999,
          "velocity": 0.3937007874015748
        },
        {
          "duration": 0.16853924999999492,
          "durationTicks": 96,
          "midi": 42,
          "name": "F#2",
          "ticks": 34944,
          "time": 61.34828699999999,
          "velocity": 0.3937007874015748
        },
        {
          "duration": 0.16853925000000203,
          "durationTicks": 96,
          "midi": 42,
          "name": "F#2",
          "ticks": 35136,
          "time": 61.68536549999999,
          "velocity": 0.3937007874015748
        },
        {
          "duration": 0.16853924999999492,
          "durationTicks": 96,
          "midi": 35,
          "name": "B1",
          "ticks": 35328,
          "time": 62.02244399999999,
          "velocity": 0.3937007874015748
        },
        {
          "duration": 0.16853924999999492,
          "durationTicks": 96,
          "midi": 42,
          "name": "F#2",
          "ticks": 35328,
          "time": 62.02244399999999,
          "velocity": 0.3937007874015748
        },
        {
          "duration": 0.16853925000000203,
          "durationTicks": 96,
          "midi": 39,
          "name": "D#2",
          "ticks": 36096,
          "time": 63.37075799999999,
          "velocity": 0.3937007874015748
        },
        {
          "duration": 0.16853924999999492,
          "durationTicks": 96,
          "midi": 81,
          "name": "A5",
          "ticks": 36480,
          "time": 64.04491499999999,
          "velocity": 0.3937007874015748
        }
      ],
      "endOfTrackTicks": 36576
    },
    {
      "channel": 9,
      "controlChanges": {},
      "pitchBends": [],
      "instrument": {
        "family": "drums",
        "number": 0,
        "name": "standard kit"
      },
      "name": "Drum Kit",
      "notes": [
        {
          "duration": 0.16853925000000025,
          "durationTicks": 96,
          "midi": 42,
          "name": "F#2",
          "ticks": 2304,
          "time": 4.044941999999999,
          "velocity": 0.3937007874015748
        },
        {
          "duration": 0.16853925000000025,
          "durationTicks": 96,
          "midi": 42,
          "name": "F#2",
          "ticks": 2400,
          "time": 4.213481249999999,
          "velocity": 0.3937007874015748
        },
        {
          "duration": 0.16853925000000025,
          "durationTicks": 96,
          "midi": 42,
          "name": "F#2",
          "ticks": 2496,
          "time": 4.382020499999999,
          "velocity": 0.3937007874015748
        },
        {
          "duration": 0.16853924999999936,
          "durationTicks": 96,
          "midi": 42,
          "name": "F#2",
          "ticks": 2592,
          "time": 4.55055975,
          "velocity": 0.3937007874015748
        },
        {
          "duration": 0.16853925000000025,
          "durationTicks": 96,
          "midi": 42,
          "name": "F#2",
          "ticks": 2688,
          "time": 4.719098999999999,
          "velocity": 0.3937007874015748
        },
        {
          "duration": 0.16853925000000025,
          "durationTicks": 96,
          "midi": 42,
          "name": "F#2",
          "ticks": 2784,
          "time": 4.887638249999999,
          "velocity": 0.3937007874015748
        },
        {
          "duration": 0.04213481250000051,
          "durationTicks": 24,
          "midi": 42,
          "name": "F#2",
          "ticks": 5568,
          "time": 9.775276499999999,
          "velocity": 0.3937007874015748
        },
        {
          "duration": 0.04213481250000051,
          "durationTicks": 24,
          "midi": 42,
          "name": "F#2",
          "ticks": 5616,
          "time": 9.859546124999998,
          "velocity": 0.3937007874015748
        },
        {
          "duration": 0.04213481249999873,
          "durationTicks": 24,
          "midi": 42,
          "name": "F#2",
          "ticks": 5664,
          "time": 9.943815749999999,
          "velocity": 0.3937007874015748
        },
        {
          "duration": 0.04213481250000051,
          "durationTicks": 24,
          "midi": 42,
          "name": "F#2",
          "ticks": 5712,
          "time": 10.028085374999998,
          "velocity": 0.3937007874015748
        },
        {
          "duration": 0.16853925000000025,
          "durationTicks": 96,
          "midi": 42,
          "name": "F#2",
          "ticks": 8448,
          "time": 14.831453999999997,
          "velocity": 0.3937007874015748
        },
        {
          "duration": 0.16853925000000025,
          "durationTicks": 96,
          "midi": 42,
          "name": "F#2",
          "ticks": 8544,
          "time": 14.999993249999998,
          "velocity": 0.3937007874015748
        },
        {
          "duration": 0.16853925000000025,
          "durationTicks": 96,
          "midi": 42,
          "name": "F#2",
          "ticks": 8640,
          "time": 15.168532499999998,
          "velocity": 0.3937007874015748
        },
        {
          "duration": 0.16853925000000025,
          "durationTicks": 96,
          "midi": 42,
          "name": "F#2",
          "ticks": 8736,
          "time": 15.337071749999998,
          "velocity": 0.3937007874015748
        },
        {
          "duration": 0.16853924999999848,
          "durationTicks": 96,
          "midi": 42,
          "name": "F#2",
          "ticks": 8832,
          "time": 15.505610999999998,
          "velocity": 0.3937007874015748
        },
        {
          "duration": 0.16853925000000025,
          "durationTicks": 96,
          "midi": 42,
          "name": "F#2",
          "ticks": 8928,
          "time": 15.674150249999997,
          "velocity": 0.3937007874015748
        },
        {
          "duration": 0.16853925000000025,
          "durationTicks": 96,
          "midi": 42,
          "name": "F#2",
          "ticks": 9024,
          "time": 15.842689499999997,
          "velocity": 0.3937007874015748
        },
        {
          "duration": 0.16853924999999848,
          "durationTicks": 96,
          "midi": 42,
          "name": "F#2",
          "ticks": 9120,
          "time": 16.011228749999997,
          "velocity": 0.3937007874015748
        },
        {
          "duration": 0.04213481250000228,
          "durationTicks": 24,
          "midi": 42,
          "name": "F#2",
          "ticks": 11712,
          "time": 20.561788499999995,
          "velocity": 0.3937007874015748
        },
        {
          "duration": 0.04213481250000228,
          "durationTicks": 24,
          "midi": 42,
          "name": "F#2",
          "ticks": 11760,
          "time": 20.646058124999996,
          "velocity": 0.3937007874015748
        },
        {
          "duration": 0.04213481249999873,
          "durationTicks": 24,
          "midi": 42,
          "name": "F#2",
          "ticks": 11808,
          "time": 20.730327749999997,
          "velocity": 0.3937007874015748
        },
        {
          "duration": 0.04213481249999873,
          "durationTicks": 24,
          "midi": 42,
          "name": "F#2",
          "ticks": 11856,
          "time": 20.814597374999998,
          "velocity": 0.3937007874015748
        },
        {
          "duration": 0.16853925000000203,
          "durationTicks": 96,
          "midi": 42,
          "name": "F#2",
          "ticks": 14592,
          "time": 25.617965999999996,
          "velocity": 0.3937007874015748
        },
        {
          "duration": 0.16853924999999848,
          "durationTicks": 96,
          "midi": 42,
          "name": "F#2",
          "ticks": 14688,
          "time": 25.786505249999998,
          "velocity": 0.3937007874015748
        },
        {
          "duration": 0.16853924999999848,
          "durationTicks": 96,
          "midi": 42,
          "name": "F#2",
          "ticks": 14784,
          "time": 25.955044499999996,
          "velocity": 0.3937007874015748
        },
        {
          "duration": 0.16853925000000203,
          "durationTicks": 96,
          "midi": 42,
          "name": "F#2",
          "ticks": 14880,
          "time": 26.123583749999995,
          "velocity": 0.3937007874015748
        },
        {
          "duration": 0.16853924999999848,
          "durationTicks": 96,
          "midi": 42,
          "name": "F#2",
          "ticks": 14976,
          "time": 26.292122999999997,
          "velocity": 0.3937007874015748
        },
        {
          "duration": 0.16853925000000203,
          "durationTicks": 96,
          "midi": 42,
          "name": "F#2",
          "ticks": 15072,
          "time": 26.460662249999995,
          "velocity": 0.3937007874015748
        },
        {
          "duration": 0.04213481250000228,
          "durationTicks": 24,
          "midi": 42,
          "name": "F#2",
          "ticks": 17856,
          "time": 31.348300499999993,
          "velocity": 0.3937007874015748
        },
        {
          "duration": 0.04213481250000228,
          "durationTicks": 24,
          "midi": 42,
          "name": "F#2",
          "ticks": 17904,
          "time": 31.432570124999994,
          "velocity": 0.3937007874015748
        },
        {
          "duration": 0.04213481249999873,
          "durationTicks": 24,
          "midi": 42,
          "name": "F#2",
          "ticks": 17952,
          "time": 31.516839749999995,
          "velocity": 0.3937007874015748
        },
        {
          "duration": 0.04213481249999873,
          "durationTicks": 24,
          "midi": 42,
          "name": "F#2",
          "ticks": 18000,
          "time": 31.601109374999997,
          "velocity": 0.3937007874015748
        },
        {
          "duration": 0.16853924999999492,
          "durationTicks": 96,
          "midi": 42,
          "name": "F#2",
          "ticks": 20736,
          "time": 36.404478,
          "velocity": 0.3937007874015748
        },
        {
          "duration": 0.16853925000000203,
          "durationTicks": 96,
          "midi": 42,
          "name": "F#2",
          "ticks": 20832,
          "time": 36.57301724999999,
          "velocity": 0.3937007874015748
        },
        {
          "duration": 0.16853925000000203,
          "durationTicks": 96,
          "midi": 42,
          "name": "F#2",
          "ticks": 20928,
          "time": 36.741556499999994,
          "velocity": 0.3937007874015748
        },
        {
          "duration": 0.16853924999999492,
          "durationTicks": 96,
          "midi": 42,
          "name": "F#2",
          "ticks": 21024,
          "time": 36.910095749999996,
          "velocity": 0.3937007874015748
        },
        {
          "duration": 0.16853925000000203,
          "durationTicks": 96,
          "midi": 42,
          "name": "F#2",
          "ticks": 21120,
          "time": 37.07863499999999,
          "velocity": 0.3937007874015748
        },
        {
          "duration": 0.16853925000000203,
          "durationTicks": 96,
          "midi": 42,
          "name": "F#2",
          "ticks": 21216,
          "time": 37.24717424999999,
          "velocity": 0.3937007874015748
        },
        {
          "duration": 0.16853925000000203,
          "durationTicks": 96,
          "midi": 42,
          "name": "F#2",
          "ticks": 21312,
          "time": 37.415713499999995,
          "velocity": 0.3937007874015748
        },
        {
          "duration": 0.16853924999999492,
          "durationTicks": 96,
          "midi": 42,
          "name": "F#2",
          "ticks": 21408,
          "time": 37.58425275,
          "velocity": 0.3937007874015748
        },
        {
          "duration": 0.04213481249999518,
          "durationTicks": 24,
          "midi": 42,
          "name": "F#2",
          "ticks": 24000,
          "time": 42.134812499999995,
          "velocity": 0.3937007874015748
        },
        {
          "duration": 0.04213481250000228,
          "durationTicks": 24,
          "midi": 42,
          "name": "F#2",
          "ticks": 24048,
          "time": 42.21908212499999,
          "velocity": 0.3937007874015748
        },
        {
          "duration": 0.04213481250000228,
          "durationTicks": 24,
          "midi": 42,
          "name": "F#2",
          "ticks": 24096,
          "time": 42.30335174999999,
          "velocity": 0.3937007874015748
        },
        {
          "duration": 0.04213481249999518,
          "durationTicks": 24,
          "midi": 42,
          "name": "F#2",
          "ticks": 24144,
          "time": 42.387621374999995,
          "velocity": 0.3937007874015748
        },
        {
          "duration": 0.16853925000000203,
          "durationTicks": 96,
          "midi": 42,
          "name": "F#2",
          "ticks": 26880,
          "time": 47.19098999999999,
          "velocity": 0.3937007874015748
        },
        {
          "duration": 0.16853924999999492,
          "durationTicks": 96,
          "midi": 42,
          "name": "F#2",
          "ticks": 26976,
          "time": 47.359529249999994,
          "velocity": 0.3937007874015748
        },
        {
          "duration": 0.16853925000000203,
          "durationTicks": 96,
          "midi": 42,
          "name": "F#2",
          "ticks": 27072,
          "time": 47.52806849999999,
          "velocity": 0.3937007874015748
        },
        {
          "duration": 0.16853925000000203,
          "durationTicks": 96,
          "midi": 42,
          "name": "F#2",
          "ticks": 27168,
          "time": 47.69660774999999,
          "velocity": 0.3937007874015748
        },
        {
          "duration": 0.16853925000000203,
          "durationTicks": 96,
          "midi": 42,
          "name": "F#2",
          "ticks": 27264,
          "time": 47.86514699999999,
          "velocity": 0.3937007874015748
        },
        {
          "duration": 0.16853924999999492,
          "durationTicks": 96,
          "midi": 42,
          "name": "F#2",
          "ticks": 27360,
          "time": 48.033686249999995,
          "velocity": 0.3937007874015748
        },
        {
          "duration": 0.04213481250000228,
          "durationTicks": 24,
          "midi": 42,
          "name": "F#2",
          "ticks": 30144,
          "time": 52.92132449999999,
          "velocity": 0.3937007874015748
        },
        {
          "duration": 0.04213481249999518,
          "durationTicks": 24,
          "midi": 42,
          "name": "F#2",
          "ticks": 30192,
          "time": 53.005594124999995,
          "velocity": 0.3937007874015748
        },
        {
          "duration": 0.04213481250000228,
          "durationTicks": 24,
          "midi": 42,
          "name": "F#2",
          "ticks": 30240,
          "time": 53.08986374999999,
          "velocity": 0.3937007874015748
        },
        {
          "duration": 0.04213481250000228,
          "durationTicks": 24,
          "midi": 42,
          "name": "F#2",
          "ticks": 30288,
          "time": 53.17413337499999,
          "velocity": 0.3937007874015748
        },
        {
          "duration": 0.16853924999999492,
          "durationTicks": 96,
          "midi": 42,
          "name": "F#2",
          "ticks": 33024,
          "time": 57.977501999999994,
          "velocity": 0.3937007874015748
        },
        {
          "duration": 0.16853925000000203,
          "durationTicks": 96,
          "midi": 42,
          "name": "F#2",
          "ticks": 33120,
          "time": 58.14604124999999,
          "velocity": 0.3937007874015748
        },
        {
          "duration": 0.16853925000000203,
          "durationTicks": 96,
          "midi": 42,
          "name": "F#2",
          "ticks": 33216,
          "time": 58.31458049999999,
          "velocity": 0.3937007874015748
        },
        {
          "duration": 0.16853924999999492,
          "durationTicks": 96,
          "midi": 42,
          "name": "F#2",
          "ticks": 33312,
          "time": 58.48311974999999,
          "velocity": 0.3937007874015748
        },
        {
          "duration": 0.16853925000000203,
          "durationTicks": 96,
          "midi": 42,
          "name": "F#2",
          "ticks": 33408,
          "time": 58.65165899999999,
          "velocity": 0.3937007874015748
        },
        {
          "duration": 0.16853925000000203,
          "durationTicks": 96,
          "midi": 42,
          "name": "F#2",
          "ticks": 33504,
          "time": 58.82019824999999,
          "velocity": 0.3937007874015748
        },
        {
          "duration": 0.16853925000000203,
          "durationTicks": 96,
          "midi": 42,
          "name": "F#2",
          "ticks": 33600,
          "time": 58.98873749999999,
          "velocity": 0.3937007874015748
        },
        {
          "duration": 0.16853924999999492,
          "durationTicks": 96,
          "midi": 42,
          "name": "F#2",
          "ticks": 33696,
          "time": 59.157276749999994,
          "velocity": 0.3937007874015748
        }
      ],
      "endOfTrackTicks": 33792
    },
    {
      "channel": 1,
      "controlChanges": {},
      "pitchBends": [],
      "instrument": {
        "family": "synth lead",
        "number": 87,
        "name": "lead 8 (bass + lead)"
      },
      "name": "8-Bit Triangle",
      "notes": [
        {
          "duration": 1.3483139999999998,
          "durationTicks": 768,
          "midi": 50,
          "name": "D3",
          "ticks": 0,
          "time": 0,
          "velocity": 0.3937007874015748
        },
        {
          "duration": 1.3483139999999998,
          "durationTicks": 768,
          "midi": 43,
          "name": "G2",
          "ticks": 0,
          "time": 0,
          "velocity": 0.3937007874015748
        },
        {
          "duration": 1.3483139999999998,
          "durationTicks": 768,
          "midi": 46,
          "name": "A#2",
          "ticks": 0,
          "time": 0,
          "velocity": 0.3937007874015748
        },
        {
          "duration": 1.3483139999999998,
          "durationTicks": 768,
          "midi": 50,
          "name": "D3",
          "ticks": 768,
          "time": 1.3483139999999998,
          "velocity": 0.3937007874015748
        },
        {
          "duration": 1.3483139999999998,
          "durationTicks": 768,
          "midi": 43,
          "name": "G2",
          "ticks": 768,
          "time": 1.3483139999999998,
          "velocity": 0.3937007874015748
        },
        {
          "duration": 1.3483139999999998,
          "durationTicks": 768,
          "midi": 46,
          "name": "A#2",
          "ticks": 768,
          "time": 1.3483139999999998,
          "velocity": 0.3937007874015748
        },
        {
          "duration": 1.3483139999999993,
          "durationTicks": 768,
          "midi": 50,
          "name": "D3",
          "ticks": 1536,
          "time": 2.6966279999999996,
          "velocity": 0.3937007874015748
        },
        {
          "duration": 1.3483139999999993,
          "durationTicks": 768,
          "midi": 43,
          "name": "G2",
          "ticks": 1536,
          "time": 2.6966279999999996,
          "velocity": 0.3937007874015748
        },
        {
          "duration": 1.3483139999999993,
          "durationTicks": 768,
          "midi": 46,
          "name": "A#2",
          "ticks": 1536,
          "time": 2.6966279999999996,
          "velocity": 0.3937007874015748
        },
        {
          "duration": 0.5056177500000008,
          "durationTicks": 288,
          "midi": 50,
          "name": "D3",
          "ticks": 2304,
          "time": 4.044941999999999,
          "velocity": 0.3937007874015748
        },
        {
          "duration": 1.3483140000000002,
          "durationTicks": 768,
          "midi": 43,
          "name": "G2",
          "ticks": 2304,
          "time": 4.044941999999999,
          "velocity": 0.3937007874015748
        },
        {
          "duration": 1.0112355000000006,
          "durationTicks": 576,
          "midi": 46,
          "name": "A#2",
          "ticks": 2304,
          "time": 4.044941999999999,
          "velocity": 0.3937007874015748
        },
        {
          "duration": 1.3483140000000002,
          "durationTicks": 768,
          "midi": 51,
          "name": "D#3",
          "ticks": 3072,
          "time": 5.393255999999999,
          "velocity": 0.3937007874015748
        },
        {
          "duration": 1.3483140000000002,
          "durationTicks": 768,
          "midi": 43,
          "name": "G2",
          "ticks": 3072,
          "time": 5.393255999999999,
          "velocity": 0.3937007874015748
        },
        {
          "duration": 1.3483140000000002,
          "durationTicks": 768,
          "midi": 46,
          "name": "A#2",
          "ticks": 3072,
          "time": 5.393255999999999,
          "velocity": 0.3937007874015748
        },
        {
          "duration": 1.3483139999999985,
          "durationTicks": 768,
          "midi": 51,
          "name": "D#3",
          "ticks": 3840,
          "time": 6.741569999999999,
          "velocity": 0.3937007874015748
        },
        {
          "duration": 1.3483139999999985,
          "durationTicks": 768,
          "midi": 43,
          "name": "G2",
          "ticks": 3840,
          "time": 6.741569999999999,
          "velocity": 0.3937007874015748
        },
        {
          "duration": 1.3483139999999985,
          "durationTicks": 768,
          "midi": 46,
          "name": "A#2",
          "ticks": 3840,
          "time": 6.741569999999999,
          "velocity": 0.3937007874015748
        },
        {
          "duration": 1.3483140000000002,
          "durationTicks": 768,
          "midi": 51,
          "name": "D#3",
          "ticks": 4608,
          "time": 8.089883999999998,
          "velocity": 0.3937007874015748
        },
        {
          "duration": 1.3483140000000002,
          "durationTicks": 768,
          "midi": 43,
          "name": "G2",
          "ticks": 4608,
          "time": 8.089883999999998,
          "velocity": 0.3937007874015748
        },
        {
          "duration": 1.3483140000000002,
          "durationTicks": 768,
          "midi": 46,
          "name": "A#2",
          "ticks": 4608,
          "time": 8.089883999999998,
          "velocity": 0.3937007874015748
        },
        {
          "duration": 0.5056177500000008,
          "durationTicks": 288,
          "midi": 51,
          "name": "D#3",
          "ticks": 5376,
          "time": 9.438197999999998,
          "velocity": 0.3937007874015748
        },
        {
          "duration": 1.3483140000000002,
          "durationTicks": 768,
          "midi": 43,
          "name": "G2",
          "ticks": 5376,
          "time": 9.438197999999998,
          "velocity": 0.3937007874015748
        },
        {
          "duration": 1.0112354999999997,
          "durationTicks": 576,
          "midi": 46,
          "name": "A#2",
          "ticks": 5376,
          "time": 9.438197999999998,
          "velocity": 0.3937007874015748
        },
        {
          "duration": 1.3483140000000002,
          "durationTicks": 768,
          "midi": 48,
          "name": "C3",
          "ticks": 6144,
          "time": 10.786511999999998,
          "velocity": 0.3937007874015748
        },
        {
          "duration": 1.3483140000000002,
          "durationTicks": 768,
          "midi": 41,
          "name": "F2",
          "ticks": 6144,
          "time": 10.786511999999998,
          "velocity": 0.3937007874015748
        },
        {
          "duration": 1.3483140000000002,
          "durationTicks": 768,
          "midi": 44,
          "name": "G#2",
          "ticks": 6144,
          "time": 10.786511999999998,
          "velocity": 0.3937007874015748
        },
        {
          "duration": 1.3483140000000002,
          "durationTicks": 768,
          "midi": 48,
          "name": "C3",
          "ticks": 6912,
          "time": 12.134825999999999,
          "velocity": 0.3937007874015748
        },
        {
          "duration": 1.3483140000000002,
          "durationTicks": 768,
          "midi": 44,
          "name": "G#2",
          "ticks": 6912,
          "time": 12.134825999999999,
          "velocity": 0.3937007874015748
        },
        {
          "duration": 1.3483140000000002,
          "durationTicks": 768,
          "midi": 41,
          "name": "F2",
          "ticks": 6912,
          "time": 12.134825999999999,
          "velocity": 0.3937007874015748
        },
        {
          "duration": 1.3483139999999985,
          "durationTicks": 768,
          "midi": 48,
          "name": "C3",
          "ticks": 7680,
          "time": 13.483139999999999,
          "velocity": 0.3937007874015748
        },
        {
          "duration": 1.3483139999999985,
          "durationTicks": 768,
          "midi": 44,
          "name": "G#2",
          "ticks": 7680,
          "time": 13.483139999999999,
          "velocity": 0.3937007874015748
        },
        {
          "duration": 1.3483139999999985,
          "durationTicks": 768,
          "midi": 41,
          "name": "F2",
          "ticks": 7680,
          "time": 13.483139999999999,
          "velocity": 0.3937007874015748
        },
        {
          "duration": 0.5056177500000008,
          "durationTicks": 288,
          "midi": 48,
          "name": "C3",
          "ticks": 8448,
          "time": 14.831453999999997,
          "velocity": 0.3937007874015748
        },
        {
          "duration": 1.0112354999999997,
          "durationTicks": 576,
          "midi": 44,
          "name": "G#2",
          "ticks": 8448,
          "time": 14.831453999999997,
          "velocity": 0.3937007874015748
        },
        {
          "duration": 1.3483139999999985,
          "durationTicks": 768,
          "midi": 41,
          "name": "F2",
          "ticks": 8448,
          "time": 14.831453999999997,
          "velocity": 0.3937007874015748
        },
        {
          "duration": 1.348314000000002,
          "durationTicks": 768,
          "midi": 46,
          "name": "A#2",
          "ticks": 9216,
          "time": 16.179767999999996,
          "velocity": 0.3937007874015748
        },
        {
          "duration": 1.348314000000002,
          "durationTicks": 768,
          "midi": 43,
          "name": "G2",
          "ticks": 9216,
          "time": 16.179767999999996,
          "velocity": 0.3937007874015748
        },
        {
          "duration": 1.348314000000002,
          "durationTicks": 768,
          "midi": 50,
          "name": "D3",
          "ticks": 9216,
          "time": 16.179767999999996,
          "velocity": 0.3937007874015748
        },
        {
          "duration": 1.3483139999999985,
          "durationTicks": 768,
          "midi": 50,
          "name": "D3",
          "ticks": 9984,
          "time": 17.528081999999998,
          "velocity": 0.3937007874015748
        },
        {
          "duration": 1.17977475,
          "durationTicks": 672,
          "midi": 46,
          "name": "A#2",
          "ticks": 9984,
          "time": 17.528081999999998,
          "velocity": 0.3937007874015748
        },
        {
          "duration": 1.011235499999998,
          "durationTicks": 576,
          "midi": 43,
          "name": "G2",
          "ticks": 9984,
          "time": 17.528081999999998,
          "velocity": 0.3937007874015748
        },
        {
          "duration": 0.08426962500000101,
          "durationTicks": 48,
          "midi": 27,
          "name": "D#1",
          "ticks": 12096,
          "time": 21.235945499999996,
          "velocity": 0.3937007874015748
        },
        {
          "duration": 1.0112355000000015,
          "durationTicks": 576,
          "midi": 27,
          "name": "D#1",
          "ticks": 12288,
          "time": 21.573023999999997,
          "velocity": 0.3937007874015748
        },
        {
          "duration": 1.011235499999998,
          "durationTicks": 576,
          "midi": 27,
          "name": "D#1",
          "ticks": 13824,
          "time": 24.269651999999997,
          "velocity": 0.3937007874015748
        },
        {
          "duration": 1.011235499999998,
          "durationTicks": 576,
          "midi": 24,
          "name": "C1",
          "ticks": 15360,
          "time": 26.966279999999998,
          "velocity": 0.3937007874015748
        },
        {
          "duration": 0.08426962499999746,
          "durationTicks": 48,
          "midi": 48,
          "name": "C3",
          "ticks": 16656,
          "time": 29.241559874999997,
          "velocity": 0.3937007874015748
        },
        {
          "duration": 1.0112355000000015,
          "durationTicks": 576,
          "midi": 50,
          "name": "D3",
          "ticks": 16704,
          "time": 29.325829499999994,
          "velocity": 0.3937007874015748
        },
        {
          "duration": 1.0112355000000015,
          "durationTicks": 576,
          "midi": 24,
          "name": "C1",
          "ticks": 16896,
          "time": 29.662907999999995,
          "velocity": 0.3937007874015748
        },
        {
          "duration": 0.16853924999999848,
          "durationTicks": 96,
          "midi": 51,
          "name": "D#3",
          "ticks": 17280,
          "time": 30.337064999999996,
          "velocity": 0.3937007874015748
        },
        {
          "duration": 0.6741569999999975,
          "durationTicks": 384,
          "midi": 51,
          "name": "D#3",
          "ticks": 17472,
          "time": 30.674143499999996,
          "velocity": 0.3937007874015748
        },
        {
          "duration": 1.011235500000005,
          "durationTicks": 576,
          "midi": 29,
          "name": "F1",
          "ticks": 18432,
          "time": 32.35953599999999,
          "velocity": 0.3937007874015748
        },
        {
          "duration": 1.011235499999998,
          "durationTicks": 576,
          "midi": 29,
          "name": "F1",
          "ticks": 19968,
          "time": 35.056163999999995,
          "velocity": 0.3937007874015748
        },
        {
          "duration": 1.011235500000005,
          "durationTicks": 576,
          "midi": 31,
          "name": "G1",
          "ticks": 21504,
          "time": 37.75279199999999,
          "velocity": 0.3937007874015748
        },
        {
          "duration": 0.16853925000000203,
          "durationTicks": 96,
          "midi": 39,
          "name": "D#2",
          "ticks": 22464,
          "time": 39.43818449999999,
          "velocity": 0.3937007874015748
        },
        {
          "duration": 0.08426962499999746,
          "durationTicks": 48,
          "midi": 39,
          "name": "D#2",
          "ticks": 22560,
          "time": 39.60672374999999,
          "velocity": 0.3937007874015748
        },
        {
          "duration": 0.08426962499999746,
          "durationTicks": 48,
          "midi": 39,
          "name": "D#2",
          "ticks": 22656,
          "time": 39.775262999999995,
          "velocity": 0.3937007874015748
        },
        {
          "duration": 0.16853925000000203,
          "durationTicks": 96,
          "midi": 39,
          "name": "D#2",
          "ticks": 22752,
          "time": 39.94380224999999,
          "velocity": 0.3937007874015748
        },
        {
          "duration": 0.16853925000000203,
          "durationTicks": 96,
          "midi": 41,
          "name": "F2",
          "ticks": 22848,
          "time": 40.11234149999999,
          "velocity": 0.3937007874015748
        },
        {
          "duration": 1.011235499999998,
          "durationTicks": 576,
          "midi": 31,
          "name": "G1",
          "ticks": 23040,
          "time": 40.449419999999996,
          "velocity": 0.3937007874015748
        },
        {
          "duration": 0.16853924999999492,
          "durationTicks": 96,
          "midi": 41,
          "name": "F2",
          "ticks": 23040,
          "time": 40.449419999999996,
          "velocity": 0.3937007874015748
        },
        {
          "duration": 0.08426962499999746,
          "durationTicks": 48,
          "midi": 27,
          "name": "D#1",
          "ticks": 24384,
          "time": 42.808969499999996,
          "velocity": 0.3937007874015748
        },
        {
          "duration": 1.348314000000002,
          "durationTicks": 768,
          "midi": 58,
          "name": "A#3",
          "ticks": 24576,
          "time": 43.14604799999999,
          "velocity": 0.3937007874015748
        },
        {
          "duration": 1.348314000000002,
          "durationTicks": 768,
          "midi": 51,
          "name": "D#3",
          "ticks": 24576,
          "time": 43.14604799999999,
          "velocity": 0.3937007874015748
        },
        {
          "duration": 1.348314000000002,
          "durationTicks": 768,
          "midi": 55,
          "name": "G3",
          "ticks": 24576,
          "time": 43.14604799999999,
          "velocity": 0.3937007874015748
        },
        {
          "duration": 1.011235499999998,
          "durationTicks": 576,
          "midi": 27,
          "name": "D#1",
          "ticks": 24576,
          "time": 43.14604799999999,
          "velocity": 0.3937007874015748
        },
        {
          "duration": 1.348313999999995,
          "durationTicks": 768,
          "midi": 58,
          "name": "A#3",
          "ticks": 25344,
          "time": 44.494361999999995,
          "velocity": 0.3937007874015748
        },
        {
          "duration": 1.348313999999995,
          "durationTicks": 768,
          "midi": 51,
          "name": "D#3",
          "ticks": 25344,
          "time": 44.494361999999995,
          "velocity": 0.3937007874015748
        },
        {
          "duration": 1.348313999999995,
          "durationTicks": 768,
          "midi": 55,
          "name": "G3",
          "ticks": 25344,
          "time": 44.494361999999995,
          "velocity": 0.3937007874015748
        },
        {
          "duration": 1.348314000000002,
          "durationTicks": 768,
          "midi": 58,
          "name": "A#3",
          "ticks": 26112,
          "time": 45.84267599999999,
          "velocity": 0.3937007874015748
        },
        {
          "duration": 1.348314000000002,
          "durationTicks": 768,
          "midi": 51,
          "name": "D#3",
          "ticks": 26112,
          "time": 45.84267599999999,
          "velocity": 0.3937007874015748
        },
        {
          "duration": 1.348314000000002,
          "durationTicks": 768,
          "midi": 55,
          "name": "G3",
          "ticks": 26112,
          "time": 45.84267599999999,
          "velocity": 0.3937007874015748
        },
        {
          "duration": 1.011235500000005,
          "durationTicks": 576,
          "midi": 27,
          "name": "D#1",
          "ticks": 26112,
          "time": 45.84267599999999,
          "velocity": 0.3937007874015748
        },
        {
          "duration": 0.505617749999999,
          "durationTicks": 288,
          "midi": 58,
          "name": "A#3",
          "ticks": 26880,
          "time": 47.19098999999999,
          "velocity": 0.3937007874015748
        },
        {
          "duration": 1.348314000000002,
          "durationTicks": 768,
          "midi": 51,
          "name": "D#3",
          "ticks": 26880,
          "time": 47.19098999999999,
          "velocity": 0.3937007874015748
        },
        {
          "duration": 1.011235499999998,
          "durationTicks": 576,
          "midi": 55,
          "name": "G3",
          "ticks": 26880,
          "time": 47.19098999999999,
          "velocity": 0.3937007874015748
        },
        {
          "duration": 1.348313999999995,
          "durationTicks": 768,
          "midi": 62,
          "name": "D4",
          "ticks": 27648,
          "time": 48.539303999999994,
          "velocity": 0.3937007874015748
        },
        {
          "duration": 1.348313999999995,
          "durationTicks": 768,
          "midi": 55,
          "name": "G3",
          "ticks": 27648,
          "time": 48.539303999999994,
          "velocity": 0.3937007874015748
        },
        {
          "duration": 1.348313999999995,
          "durationTicks": 768,
          "midi": 58,
          "name": "A#3",
          "ticks": 27648,
          "time": 48.539303999999994,
          "velocity": 0.3937007874015748
        },
        {
          "duration": 1.011235499999998,
          "durationTicks": 576,
          "midi": 24,
          "name": "C1",
          "ticks": 27648,
          "time": 48.539303999999994,
          "velocity": 0.3937007874015748
        },
        {
          "duration": 1.348314000000002,
          "durationTicks": 768,
          "midi": 62,
          "name": "D4",
          "ticks": 28416,
          "time": 49.88761799999999,
          "velocity": 0.3937007874015748
        },
        {
          "duration": 1.348314000000002,
          "durationTicks": 768,
          "midi": 55,
          "name": "G3",
          "ticks": 28416,
          "time": 49.88761799999999,
          "velocity": 0.3937007874015748
        },
        {
          "duration": 1.348314000000002,
          "durationTicks": 768,
          "midi": 58,
          "name": "A#3",
          "ticks": 28416,
          "time": 49.88761799999999,
          "velocity": 0.3937007874015748
        },
        {
          "duration": 1.348314000000002,
          "durationTicks": 768,
          "midi": 62,
          "name": "D4",
          "ticks": 29184,
          "time": 51.23593199999999,
          "velocity": 0.3937007874015748
        },
        {
          "duration": 1.348314000000002,
          "durationTicks": 768,
          "midi": 55,
          "name": "G3",
          "ticks": 29184,
          "time": 51.23593199999999,
          "velocity": 0.3937007874015748
        },
        {
          "duration": 1.348314000000002,
          "durationTicks": 768,
          "midi": 58,
          "name": "A#3",
          "ticks": 29184,
          "time": 51.23593199999999,
          "velocity": 0.3937007874015748
        },
        {
          "duration": 1.011235499999998,
          "durationTicks": 576,
          "midi": 24,
          "name": "C1",
          "ticks": 29184,
          "time": 51.23593199999999,
          "velocity": 0.3937007874015748
        },
        {
          "duration": 0.505617749999999,
          "durationTicks": 288,
          "midi": 62,
          "name": "D4",
          "ticks": 29952,
          "time": 52.58424599999999,
          "velocity": 0.3937007874015748
        },
        {
          "duration": 1.348314000000002,
          "durationTicks": 768,
          "midi": 55,
          "name": "G3",
          "ticks": 29952,
          "time": 52.58424599999999,
          "velocity": 0.3937007874015748
        },
        {
          "duration": 1.011235499999998,
          "durationTicks": 576,
          "midi": 58,
          "name": "A#3",
          "ticks": 29952,
          "time": 52.58424599999999,
          "velocity": 0.3937007874015748
        },
        {
          "duration": 1.348313999999995,
          "durationTicks": 768,
          "midi": 63,
          "name": "D#4",
          "ticks": 30720,
          "time": 53.932559999999995,
          "velocity": 0.3937007874015748
        },
        {
          "duration": 1.348313999999995,
          "durationTicks": 768,
          "midi": 56,
          "name": "G#3",
          "ticks": 30720,
          "time": 53.932559999999995,
          "velocity": 0.3937007874015748
        },
        {
          "duration": 1.348313999999995,
          "durationTicks": 768,
          "midi": 60,
          "name": "C4",
          "ticks": 30720,
          "time": 53.932559999999995,
          "velocity": 0.3937007874015748
        },
        {
          "duration": 1.011235499999998,
          "durationTicks": 576,
          "midi": 29,
          "name": "F1",
          "ticks": 30720,
          "time": 53.932559999999995,
          "velocity": 0.3937007874015748
        },
        {
          "duration": 1.348314000000002,
          "durationTicks": 768,
          "midi": 63,
          "name": "D#4",
          "ticks": 31488,
          "time": 55.28087399999999,
          "velocity": 0.3937007874015748
        },
        {
          "duration": 1.348314000000002,
          "durationTicks": 768,
          "midi": 60,
          "name": "C4",
          "ticks": 31488,
          "time": 55.28087399999999,
          "velocity": 0.3937007874015748
        },
        {
          "duration": 1.348314000000002,
          "durationTicks": 768,
          "midi": 56,
          "name": "G#3",
          "ticks": 31488,
          "time": 55.28087399999999,
          "velocity": 0.3937007874015748
        },
        {
          "duration": 1.348314000000002,
          "durationTicks": 768,
          "midi": 63,
          "name": "D#4",
          "ticks": 32256,
          "time": 56.62918799999999,
          "velocity": 0.3937007874015748
        },
        {
          "duration": 1.348314000000002,
          "durationTicks": 768,
          "midi": 60,
          "name": "C4",
          "ticks": 32256,
          "time": 56.62918799999999,
          "velocity": 0.3937007874015748
        },
        {
          "duration": 1.348314000000002,
          "durationTicks": 768,
          "midi": 56,
          "name": "G#3",
          "ticks": 32256,
          "time": 56.62918799999999,
          "velocity": 0.3937007874015748
        },
        {
          "duration": 1.011235499999998,
          "durationTicks": 576,
          "midi": 29,
          "name": "F1",
          "ticks": 32256,
          "time": 56.62918799999999,
          "velocity": 0.3937007874015748
        },
        {
          "duration": 0.505617749999999,
          "durationTicks": 288,
          "midi": 63,
          "name": "D#4",
          "ticks": 33024,
          "time": 57.977501999999994,
          "velocity": 0.3937007874015748
        },
        {
          "duration": 1.011235499999998,
          "durationTicks": 576,
          "midi": 60,
          "name": "C4",
          "ticks": 33024,
          "time": 57.977501999999994,
          "velocity": 0.3937007874015748
        },
        {
          "duration": 1.348313999999995,
          "durationTicks": 768,
          "midi": 56,
          "name": "G#3",
          "ticks": 33024,
          "time": 57.977501999999994,
          "velocity": 0.3937007874015748
        },
        {
          "duration": 1.348314000000002,
          "durationTicks": 768,
          "midi": 58,
          "name": "A#3",
          "ticks": 33792,
          "time": 59.32581599999999,
          "velocity": 0.3937007874015748
        },
        {
          "duration": 1.348314000000002,
          "durationTicks": 768,
          "midi": 55,
          "name": "G3",
          "ticks": 33792,
          "time": 59.32581599999999,
          "velocity": 0.3937007874015748
        },
        {
          "duration": 1.348314000000002,
          "durationTicks": 768,
          "midi": 62,
          "name": "D4",
          "ticks": 33792,
          "time": 59.32581599999999,
          "velocity": 0.3937007874015748
        },
        {
          "duration": 1.011235500000005,
          "durationTicks": 576,
          "midi": 31,
          "name": "G1",
          "ticks": 33792,
          "time": 59.32581599999999,
          "velocity": 0.3937007874015748
        },
        {
          "duration": 1.348314000000002,
          "durationTicks": 768,
          "midi": 62,
          "name": "D4",
          "ticks": 34560,
          "time": 60.67412999999999,
          "velocity": 0.3937007874015748
        },
        {
          "duration": 1.17977475,
          "durationTicks": 672,
          "midi": 58,
          "name": "A#3",
          "ticks": 34560,
          "time": 60.67412999999999,
          "velocity": 0.3937007874015748
        },
        {
          "duration": 1.011235499999998,
          "durationTicks": 576,
          "midi": 55,
          "name": "G3",
          "ticks": 34560,
          "time": 60.67412999999999,
          "velocity": 0.3937007874015748
        },
        {
          "duration": 1.011235499999998,
          "durationTicks": 576,
          "midi": 31,
          "name": "G1",
          "ticks": 35328,
          "time": 62.02244399999999,
          "velocity": 0.3937007874015748
        },
        {
          "duration": 0.04213481250000228,
          "durationTicks": 24,
          "midi": 62,
          "name": "D4",
          "ticks": 36384,
          "time": 63.87637574999999,
          "velocity": 0.3937007874015748
        },
        {
          "duration": 0.04213481250000228,
          "durationTicks": 24,
          "midi": 55,
          "name": "G3",
          "ticks": 36384,
          "time": 63.87637574999999,
          "velocity": 0.3937007874015748
        },
        {
          "duration": 0.04213481250000228,
          "durationTicks": 24,
          "midi": 59,
          "name": "B3",
          "ticks": 36384,
          "time": 63.87637574999999,
          "velocity": 0.3937007874015748
        },
        {
          "duration": 0.04213481250000228,
          "durationTicks": 24,
          "midi": 56,
          "name": "G#3",
          "ticks": 36408,
          "time": 63.91851056249999,
          "velocity": 0.3937007874015748
        },
        {
          "duration": 0.04213481250000228,
          "durationTicks": 24,
          "midi": 63,
          "name": "D#4",
          "ticks": 36408,
          "time": 63.91851056249999,
          "velocity": 0.3937007874015748
        },
        {
          "duration": 0.04213481250000228,
          "durationTicks": 24,
          "midi": 60,
          "name": "C4",
          "ticks": 36408,
          "time": 63.91851056249999,
          "velocity": 0.3937007874015748
        },
        {
          "duration": 0.04213481250000228,
          "durationTicks": 24,
          "midi": 57,
          "name": "A3",
          "ticks": 36432,
          "time": 63.96064537499999,
          "velocity": 0.3937007874015748
        },
        {
          "duration": 0.04213481250000228,
          "durationTicks": 24,
          "midi": 64,
          "name": "E4",
          "ticks": 36432,
          "time": 63.96064537499999,
          "velocity": 0.3937007874015748
        },
        {
          "duration": 0.04213481249999518,
          "durationTicks": 24,
          "midi": 58,
          "name": "A#3",
          "ticks": 36456,
          "time": 64.0027801875,
          "velocity": 0.3937007874015748
        },
        {
          "duration": 0.04213481249999518,
          "durationTicks": 24,
          "midi": 66,
          "name": "F#4",
          "ticks": 36456,
          "time": 64.0027801875,
          "velocity": 0.3937007874015748
        },
        {
          "duration": 0.04213481249999518,
          "durationTicks": 24,
          "midi": 61,
          "name": "C#4",
          "ticks": 36456,
          "time": 64.0027801875,
          "velocity": 0.3937007874015748
        },
        {
          "duration": 0.2528088749999995,
          "durationTicks": 144,
          "midi": 59,
          "name": "B3",
          "ticks": 36480,
          "time": 64.04491499999999,
          "velocity": 0.3937007874015748
        },
        {
          "duration": 0.2528088749999995,
          "durationTicks": 144,
          "midi": 62,
          "name": "D4",
          "ticks": 36480,
          "time": 64.04491499999999,
          "velocity": 0.3937007874015748
        },
        {
          "duration": 0.2528088749999995,
          "durationTicks": 144,
          "midi": 67,
          "name": "G4",
          "ticks": 36480,
          "time": 64.04491499999999,
          "velocity": 0.3937007874015748
        }
      ],
      "endOfTrackTicks": 36624
    },
    {
      "channel": 2,
      "controlChanges": {},
      "pitchBends": [],
      "instrument": {
        "family": "synth lead",
        "number": 82,
        "name": "lead 3 (calliope)"
      },
      "name": "8-Bit Sine",
      "notes": [
        {
          "duration": 0.08426962500000101,
          "durationTicks": 48,
          "midi": 27,
          "name": "D#1",
          "ticks": 12096,
          "time": 21.235945499999996,
          "velocity": 0.3937007874015748
        },
        {
          "duration": 1.0112355000000015,
          "durationTicks": 576,
          "midi": 27,
          "name": "D#1",
          "ticks": 12288,
          "time": 21.573023999999997,
          "velocity": 0.3937007874015748
        },
        {
          "duration": 1.011235499999998,
          "durationTicks": 576,
          "midi": 27,
          "name": "D#1",
          "ticks": 13824,
          "time": 24.269651999999997,
          "velocity": 0.3937007874015748
        },
        {
          "duration": 1.011235499999998,
          "durationTicks": 576,
          "midi": 24,
          "name": "C1",
          "ticks": 15360,
          "time": 26.966279999999998,
          "velocity": 0.3937007874015748
        },
        {
          "duration": 0.08426962500000101,
          "durationTicks": 48,
          "midi": 24,
          "name": "C1",
          "ticks": 16704,
          "time": 29.325829499999994,
          "velocity": 0.3937007874015748
        },
        {
          "duration": 1.0112355000000015,
          "durationTicks": 576,
          "midi": 24,
          "name": "C1",
          "ticks": 16896,
          "time": 29.662907999999995,
          "velocity": 0.3937007874015748
        },
        {
          "duration": 1.011235500000005,
          "durationTicks": 576,
          "midi": 29,
          "name": "F1",
          "ticks": 18432,
          "time": 32.35953599999999,
          "velocity": 0.3937007874015748
        },
        {
          "duration": 1.011235499999998,
          "durationTicks": 576,
          "midi": 29,
          "name": "F1",
          "ticks": 19968,
          "time": 35.056163999999995,
          "velocity": 0.3937007874015748
        },
        {
          "duration": 1.011235500000005,
          "durationTicks": 576,
          "midi": 31,
          "name": "G1",
          "ticks": 21504,
          "time": 37.75279199999999,
          "velocity": 0.3937007874015748
        },
        {
          "duration": 1.011235499999998,
          "durationTicks": 576,
          "midi": 31,
          "name": "G1",
          "ticks": 23040,
          "time": 40.449419999999996,
          "velocity": 0.3937007874015748
        },
        {
          "duration": 0.08426962499999746,
          "durationTicks": 48,
          "midi": 27,
          "name": "D#1",
          "ticks": 24384,
          "time": 42.808969499999996,
          "velocity": 0.3937007874015748
        },
        {
          "duration": 1.011235499999998,
          "durationTicks": 576,
          "midi": 27,
          "name": "D#1",
          "ticks": 24576,
          "time": 43.14604799999999,
          "velocity": 0.3937007874015748
        },
        {
          "duration": 1.011235500000005,
          "durationTicks": 576,
          "midi": 27,
          "name": "D#1",
          "ticks": 26112,
          "time": 45.84267599999999,
          "velocity": 0.3937007874015748
        },
        {
          "duration": 1.011235499999998,
          "durationTicks": 576,
          "midi": 24,
          "name": "C1",
          "ticks": 27648,
          "time": 48.539303999999994,
          "velocity": 0.3937007874015748
        },
        {
          "duration": 0.08426962499999746,
          "durationTicks": 48,
          "midi": 24,
          "name": "C1",
          "ticks": 28992,
          "time": 50.898853499999994,
          "velocity": 0.3937007874015748
        },
        {
          "duration": 1.011235499999998,
          "durationTicks": 576,
          "midi": 24,
          "name": "C1",
          "ticks": 29184,
          "time": 51.23593199999999,
          "velocity": 0.3937007874015748
        },
        {
          "duration": 1.011235499999998,
          "durationTicks": 576,
          "midi": 29,
          "name": "F1",
          "ticks": 30720,
          "time": 53.932559999999995,
          "velocity": 0.3937007874015748
        },
        {
          "duration": 1.011235499999998,
          "durationTicks": 576,
          "midi": 29,
          "name": "F1",
          "ticks": 32256,
          "time": 56.62918799999999,
          "velocity": 0.3937007874015748
        },
        {
          "duration": 1.011235500000005,
          "durationTicks": 576,
          "midi": 31,
          "name": "G1",
          "ticks": 33792,
          "time": 59.32581599999999,
          "velocity": 0.3937007874015748
        },
        {
          "duration": 2.696627999999997,
          "durationTicks": 1536,
          "midi": 56,
          "name": "G#3",
          "ticks": 34848,
          "time": 61.17974774999999,
          "velocity": 0.3937007874015748
        },
        {
          "duration": 2.696627999999997,
          "durationTicks": 1536,
          "midi": 63,
          "name": "D#4",
          "ticks": 34848,
          "time": 61.17974774999999,
          "velocity": 0.3937007874015748
        },
        {
          "duration": 1.011235499999998,
          "durationTicks": 576,
          "midi": 31,
          "name": "G1",
          "ticks": 35328,
          "time": 62.02244399999999,
          "velocity": 0.3937007874015748
        },
        {
          "duration": 1.0112355000000122,
          "durationTicks": 576,
          "midi": 27,
          "name": "D#1",
          "ticks": 36864,
          "time": 64.71907199999998,
          "velocity": 0.3937007874015748
        },
        {
          "duration": 1.011235499999998,
          "durationTicks": 576,
          "midi": 27,
          "name": "D#1",
          "ticks": 38400,
          "time": 67.41569999999999,
          "velocity": 0.3937007874015748
        },
        {
          "duration": 1.011235499999998,
          "durationTicks": 576,
          "midi": 32,
          "name": "G#1",
          "ticks": 39936,
          "time": 70.11232799999999,
          "velocity": 0.3937007874015748
        }
      ],
      "endOfTrackTicks": 40512
    },
    {
      "channel": 3,
      "controlChanges": {},
      "pitchBends": [],
      "instrument": {
        "family": "bass",
        "number": 32,
        "name": "acoustic bass"
      },
      "name": "Bass Guitar (Classic)",
      "notes": [
        {
          "duration": 0.16853924999999848,
          "durationTicks": 96,
          "midi": 27,
          "name": "D#1",
          "ticks": 12288,
          "time": 21.573023999999997,
          "velocity": 0.3937007874015748
        },
        {
          "duration": 0.16853924999999848,
          "durationTicks": 96,
          "midi": 27,
          "name": "D#1",
          "ticks": 12336,
          "time": 21.657293624999998,
          "velocity": 0.3937007874015748
        },
        {
          "duration": 0.16853925000000203,
          "durationTicks": 96,
          "midi": 27,
          "name": "D#1",
          "ticks": 12384,
          "time": 21.741563249999995,
          "velocity": 0.3937007874015748
        },
        {
          "duration": 0.16853924999999848,
          "durationTicks": 96,
          "midi": 27,
          "name": "D#1",
          "ticks": 13824,
          "time": 24.269651999999997,
          "velocity": 0.3937007874015748
        },
        {
          "duration": 0.16853925000000203,
          "durationTicks": 96,
          "midi": 27,
          "name": "D#1",
          "ticks": 13872,
          "time": 24.353921624999995,
          "velocity": 0.3937007874015748
        },
        {
          "duration": 0.16853925000000203,
          "durationTicks": 96,
          "midi": 27,
          "name": "D#1",
          "ticks": 13920,
          "time": 24.438191249999996,
          "velocity": 0.3937007874015748
        },
        {
          "duration": 0.16853924999999848,
          "durationTicks": 96,
          "midi": 24,
          "name": "C1",
          "ticks": 15360,
          "time": 26.966279999999998,
          "velocity": 0.3937007874015748
        },
        {
          "duration": 0.16853925000000203,
          "durationTicks": 96,
          "midi": 24,
          "name": "C1",
          "ticks": 15408,
          "time": 27.050549624999995,
          "velocity": 0.3937007874015748
        },
        {
          "duration": 0.16853924999999848,
          "durationTicks": 96,
          "midi": 24,
          "name": "C1",
          "ticks": 15456,
          "time": 27.134819249999996,
          "velocity": 0.3937007874015748
        },
        {
          "duration": 0.16853925000000203,
          "durationTicks": 96,
          "midi": 24,
          "name": "C1",
          "ticks": 16896,
          "time": 29.662907999999995,
          "velocity": 0.3937007874015748
        },
        {
          "duration": 0.16853924999999848,
          "durationTicks": 96,
          "midi": 24,
          "name": "C1",
          "ticks": 16944,
          "time": 29.747177624999996,
          "velocity": 0.3937007874015748
        },
        {
          "duration": 0.16853924999999848,
          "durationTicks": 96,
          "midi": 24,
          "name": "C1",
          "ticks": 16992,
          "time": 29.831447249999997,
          "velocity": 0.3937007874015748
        },
        {
          "duration": 0.16853925000000203,
          "durationTicks": 96,
          "midi": 29,
          "name": "F1",
          "ticks": 18432,
          "time": 32.35953599999999,
          "velocity": 0.3937007874015748
        },
        {
          "duration": 0.16853925000000203,
          "durationTicks": 96,
          "midi": 29,
          "name": "F1",
          "ticks": 18480,
          "time": 32.443805624999996,
          "velocity": 0.3937007874015748
        },
        {
          "duration": 0.16853925000000203,
          "durationTicks": 96,
          "midi": 29,
          "name": "F1",
          "ticks": 18528,
          "time": 32.52807524999999,
          "velocity": 0.3937007874015748
        },
        {
          "duration": 0.16853925000000203,
          "durationTicks": 96,
          "midi": 29,
          "name": "F1",
          "ticks": 19968,
          "time": 35.056163999999995,
          "velocity": 0.3937007874015748
        },
        {
          "duration": 0.16853925000000203,
          "durationTicks": 96,
          "midi": 29,
          "name": "F1",
          "ticks": 20016,
          "time": 35.14043362499999,
          "velocity": 0.3937007874015748
        },
        {
          "duration": 0.16853924999999492,
          "durationTicks": 96,
          "midi": 29,
          "name": "F1",
          "ticks": 20064,
          "time": 35.22470325,
          "velocity": 0.3937007874015748
        },
        {
          "duration": 0.16853925000000203,
          "durationTicks": 96,
          "midi": 31,
          "name": "G1",
          "ticks": 21504,
          "time": 37.75279199999999,
          "velocity": 0.3937007874015748
        },
        {
          "duration": 0.16853924999999492,
          "durationTicks": 96,
          "midi": 31,
          "name": "G1",
          "ticks": 21552,
          "time": 37.837061625,
          "velocity": 0.3937007874015748
        },
        {
          "duration": 0.16853925000000203,
          "durationTicks": 96,
          "midi": 31,
          "name": "G1",
          "ticks": 21600,
          "time": 37.921331249999994,
          "velocity": 0.3937007874015748
        },
        {
          "duration": 0.16853924999999492,
          "durationTicks": 96,
          "midi": 31,
          "name": "G1",
          "ticks": 23040,
          "time": 40.449419999999996,
          "velocity": 0.3937007874015748
        },
        {
          "duration": 0.16853925000000203,
          "durationTicks": 96,
          "midi": 31,
          "name": "G1",
          "ticks": 23088,
          "time": 40.533689624999994,
          "velocity": 0.3937007874015748
        },
        {
          "duration": 0.16853925000000203,
          "durationTicks": 96,
          "midi": 31,
          "name": "G1",
          "ticks": 23136,
          "time": 40.61795924999999,
          "velocity": 0.3937007874015748
        },
        {
          "duration": 0.16853925000000203,
          "durationTicks": 96,
          "midi": 27,
          "name": "D#1",
          "ticks": 24576,
          "time": 43.14604799999999,
          "velocity": 0.3937007874015748
        },
        {
          "duration": 0.16853925000000203,
          "durationTicks": 96,
          "midi": 27,
          "name": "D#1",
          "ticks": 24624,
          "time": 43.23031762499999,
          "velocity": 0.3937007874015748
        },
        {
          "duration": 0.16853924999999492,
          "durationTicks": 96,
          "midi": 27,
          "name": "D#1",
          "ticks": 24672,
          "time": 43.314587249999995,
          "velocity": 0.3937007874015748
        },
        {
          "duration": 0.16853925000000203,
          "durationTicks": 96,
          "midi": 27,
          "name": "D#1",
          "ticks": 26112,
          "time": 45.84267599999999,
          "velocity": 0.3937007874015748
        },
        {
          "duration": 0.16853924999999492,
          "durationTicks": 96,
          "midi": 27,
          "name": "D#1",
          "ticks": 26160,
          "time": 45.926945624999995,
          "velocity": 0.3937007874015748
        },
        {
          "duration": 0.16853925000000203,
          "durationTicks": 96,
          "midi": 27,
          "name": "D#1",
          "ticks": 26208,
          "time": 46.01121524999999,
          "velocity": 0.3937007874015748
        },
        {
          "duration": 0.16853924999999492,
          "durationTicks": 96,
          "midi": 24,
          "name": "C1",
          "ticks": 27648,
          "time": 48.539303999999994,
          "velocity": 0.3937007874015748
        },
        {
          "duration": 0.16853925000000203,
          "durationTicks": 96,
          "midi": 24,
          "name": "C1",
          "ticks": 27696,
          "time": 48.62357362499999,
          "velocity": 0.3937007874015748
        },
        {
          "duration": 0.16853925000000203,
          "durationTicks": 96,
          "midi": 24,
          "name": "C1",
          "ticks": 27744,
          "time": 48.70784324999999,
          "velocity": 0.3937007874015748
        },
        {
          "duration": 0.16853925000000203,
          "durationTicks": 96,
          "midi": 24,
          "name": "C1",
          "ticks": 29184,
          "time": 51.23593199999999,
          "velocity": 0.3937007874015748
        },
        {
          "duration": 0.16853925000000203,
          "durationTicks": 96,
          "midi": 24,
          "name": "C1",
          "ticks": 29232,
          "time": 51.32020162499999,
          "velocity": 0.3937007874015748
        },
        {
          "duration": 0.16853925000000203,
          "durationTicks": 96,
          "midi": 24,
          "name": "C1",
          "ticks": 29280,
          "time": 51.40447124999999,
          "velocity": 0.3937007874015748
        },
        {
          "duration": 0.16853924999999492,
          "durationTicks": 96,
          "midi": 29,
          "name": "F1",
          "ticks": 30720,
          "time": 53.932559999999995,
          "velocity": 0.3937007874015748
        },
        {
          "duration": 0.16853925000000203,
          "durationTicks": 96,
          "midi": 29,
          "name": "F1",
          "ticks": 30768,
          "time": 54.01682962499999,
          "velocity": 0.3937007874015748
        },
        {
          "duration": 0.16853925000000203,
          "durationTicks": 96,
          "midi": 29,
          "name": "F1",
          "ticks": 30816,
          "time": 54.10109924999999,
          "velocity": 0.3937007874015748
        },
        {
          "duration": 0.16853925000000203,
          "durationTicks": 96,
          "midi": 29,
          "name": "F1",
          "ticks": 32256,
          "time": 56.62918799999999,
          "velocity": 0.3937007874015748
        },
        {
          "duration": 0.16853925000000203,
          "durationTicks": 96,
          "midi": 29,
          "name": "F1",
          "ticks": 32304,
          "time": 56.71345762499999,
          "velocity": 0.3937007874015748
        },
        {
          "duration": 0.16853924999999492,
          "durationTicks": 96,
          "midi": 29,
          "name": "F1",
          "ticks": 32352,
          "time": 56.797727249999994,
          "velocity": 0.3937007874015748
        },
        {
          "duration": 0.16853925000000203,
          "durationTicks": 96,
          "midi": 31,
          "name": "G1",
          "ticks": 33792,
          "time": 59.32581599999999,
          "velocity": 0.3937007874015748
        },
        {
          "duration": 0.16853924999999492,
          "durationTicks": 96,
          "midi": 31,
          "name": "G1",
          "ticks": 33840,
          "time": 59.410085624999994,
          "velocity": 0.3937007874015748
        },
        {
          "duration": 0.16853925000000203,
          "durationTicks": 96,
          "midi": 31,
          "name": "G1",
          "ticks": 33888,
          "time": 59.49435524999999,
          "velocity": 0.3937007874015748
        },
        {
          "duration": 0.16853924999999492,
          "durationTicks": 96,
          "midi": 31,
          "name": "G1",
          "ticks": 35328,
          "time": 62.02244399999999,
          "velocity": 0.3937007874015748
        },
        {
          "duration": 0.16853925000000203,
          "durationTicks": 96,
          "midi": 31,
          "name": "G1",
          "ticks": 35376,
          "time": 62.10671362499999,
          "velocity": 0.3937007874015748
        },
        {
          "duration": 0.16853925000000203,
          "durationTicks": 96,
          "midi": 31,
          "name": "G1",
          "ticks": 35424,
          "time": 62.19098324999999,
          "velocity": 0.3937007874015748
        }
      ],
      "endOfTrackTicks": 35520
    },
    {
      "channel": 4,
      "controlChanges": {},
      "pitchBends": [],
      "instrument": {
        "family": "synth lead",
        "number": 81,
        "name": "lead 2 (sawtooth)"
      },
      "name": "8-Bit Sawtooth",
      "notes": [
        {
          "duration": 0.16853924999999848,
          "durationTicks": 96,
          "midi": 43,
          "name": "G2",
          "ticks": 12672,
          "time": 22.247180999999998,
          "velocity": 0.3937007874015748
        },
        {
          "duration": 0.16853925000000203,
          "durationTicks": 96,
          "midi": 41,
          "name": "F2",
          "ticks": 12768,
          "time": 22.415720249999996,
          "velocity": 0.3937007874015748
        },
        {
          "duration": 0.16853924999999848,
          "durationTicks": 96,
          "midi": 43,
          "name": "G2",
          "ticks": 12864,
          "time": 22.584259499999998,
          "velocity": 0.3937007874015748
        },
        {
          "duration": 0.16853924999999848,
          "durationTicks": 96,
          "midi": 41,
          "name": "F2",
          "ticks": 12960,
          "time": 22.752798749999997,
          "velocity": 0.3937007874015748
        },
        {
          "duration": 0.5056177500000025,
          "durationTicks": 288,
          "midi": 43,
          "name": "G2",
          "ticks": 13056,
          "time": 22.921337999999995,
          "velocity": 0.3937007874015748
        },
        {
          "duration": 0.3370785000000005,
          "durationTicks": 192,
          "midi": 39,
          "name": "D#2",
          "ticks": 14400,
          "time": 25.280887499999995,
          "velocity": 0.3937007874015748
        },
        {
          "duration": 0.16853925000000203,
          "durationTicks": 96,
          "midi": 43,
          "name": "G2",
          "ticks": 14592,
          "time": 25.617965999999996,
          "velocity": 0.3937007874015748
        },
        {
          "duration": 0.505617749999999,
          "durationTicks": 288,
          "midi": 46,
          "name": "A#2",
          "ticks": 14784,
          "time": 25.955044499999996,
          "velocity": 0.3937007874015748
        },
        {
          "duration": 0.3370785000000005,
          "durationTicks": 192,
          "midi": 48,
          "name": "C3",
          "ticks": 15168,
          "time": 26.629201499999997,
          "velocity": 0.3937007874015748
        },
        {
          "duration": 0.08426962499999746,
          "durationTicks": 48,
          "midi": 49,
          "name": "C#3",
          "ticks": 15360,
          "time": 26.966279999999998,
          "velocity": 0.3937007874015748
        },
        {
          "duration": 0.589887375,
          "durationTicks": 336,
          "midi": 50,
          "name": "D3",
          "ticks": 15408,
          "time": 27.050549624999995,
          "velocity": 0.3937007874015748
        },
        {
          "duration": 0.16853925000000203,
          "durationTicks": 96,
          "midi": 46,
          "name": "A#2",
          "ticks": 15744,
          "time": 27.640436999999995,
          "velocity": 0.3937007874015748
        },
        {
          "duration": 0.8426962499999995,
          "durationTicks": 480,
          "midi": 46,
          "name": "A#2",
          "ticks": 15936,
          "time": 27.977515499999996,
          "velocity": 0.3937007874015748
        },
        {
          "duration": 0.33707849999999695,
          "durationTicks": 192,
          "midi": 46,
          "name": "A#2",
          "ticks": 17664,
          "time": 31.011221999999997,
          "velocity": 0.3937007874015748
        },
        {
          "duration": 0.16853925000000203,
          "durationTicks": 96,
          "midi": 44,
          "name": "G#2",
          "ticks": 17856,
          "time": 31.348300499999993,
          "velocity": 0.3937007874015748
        },
        {
          "duration": 0.3370785000000005,
          "durationTicks": 192,
          "midi": 43,
          "name": "G2",
          "ticks": 18048,
          "time": 31.685378999999994,
          "velocity": 0.3937007874015748
        },
        {
          "duration": 0.33707849999999695,
          "durationTicks": 192,
          "midi": 41,
          "name": "F2",
          "ticks": 18240,
          "time": 32.022457499999994,
          "velocity": 0.3937007874015748
        },
        {
          "duration": 0.08426962499999746,
          "durationTicks": 48,
          "midi": 41,
          "name": "F2",
          "ticks": 18624,
          "time": 32.696614499999995,
          "velocity": 0.3937007874015748
        },
        {
          "duration": 0.08426962500000457,
          "durationTicks": 48,
          "midi": 41,
          "name": "F2",
          "ticks": 18672,
          "time": 32.78088412499999,
          "velocity": 0.3937007874015748
        },
        {
          "duration": 0.08426962499999746,
          "durationTicks": 48,
          "midi": 42,
          "name": "F#2",
          "ticks": 18720,
          "time": 32.86515375,
          "velocity": 0.3937007874015748
        },
        {
          "duration": 0.7584266249999985,
          "durationTicks": 432,
          "midi": 43,
          "name": "G2",
          "ticks": 18768,
          "time": 32.949423374999995,
          "velocity": 0.3937007874015748
        },
        {
          "duration": 0.33707849999999695,
          "durationTicks": 192,
          "midi": 46,
          "name": "A#2",
          "ticks": 20736,
          "time": 36.404478,
          "velocity": 0.3937007874015748
        },
        {
          "duration": 0.16853925000000203,
          "durationTicks": 96,
          "midi": 44,
          "name": "G#2",
          "ticks": 20928,
          "time": 36.741556499999994,
          "velocity": 0.3937007874015748
        },
        {
          "duration": 0.33707850000000406,
          "durationTicks": 192,
          "midi": 43,
          "name": "G2",
          "ticks": 21120,
          "time": 37.07863499999999,
          "velocity": 0.3937007874015748
        },
        {
          "duration": 0.505617749999999,
          "durationTicks": 288,
          "midi": 41,
          "name": "F2",
          "ticks": 21312,
          "time": 37.415713499999995,
          "velocity": 0.3937007874015748
        },
        {
          "duration": 0.16853925000000203,
          "durationTicks": 96,
          "midi": 39,
          "name": "D#2",
          "ticks": 25920,
          "time": 45.50559749999999,
          "velocity": 0.3937007874015748
        },
        {
          "duration": 0.08426962500000457,
          "durationTicks": 48,
          "midi": 46,
          "name": "A#2",
          "ticks": 26112,
          "time": 45.84267599999999,
          "velocity": 0.3937007874015748
        },
        {
          "duration": 0.4213481250000015,
          "durationTicks": 240,
          "midi": 48,
          "name": "C3",
          "ticks": 26160,
          "time": 45.926945624999995,
          "velocity": 0.3937007874015748
        },
        {
          "duration": 0.16853924999999492,
          "durationTicks": 96,
          "midi": 46,
          "name": "A#2",
          "ticks": 26400,
          "time": 46.348293749999996,
          "velocity": 0.3937007874015748
        },
        {
          "duration": 0.505617749999999,
          "durationTicks": 288,
          "midi": 46,
          "name": "A#2",
          "ticks": 26496,
          "time": 46.51683299999999,
          "velocity": 0.3937007874015748
        },
        {
          "duration": 0.16853925000000203,
          "durationTicks": 96,
          "midi": 44,
          "name": "G#2",
          "ticks": 26784,
          "time": 47.02245074999999,
          "velocity": 0.3937007874015748
        },
        {
          "duration": 0.505617749999999,
          "durationTicks": 288,
          "midi": 44,
          "name": "G#2",
          "ticks": 26880,
          "time": 47.19098999999999,
          "velocity": 0.3937007874015748
        },
        {
          "duration": 0.505617749999999,
          "durationTicks": 288,
          "midi": 51,
          "name": "D#3",
          "ticks": 26880,
          "time": 47.19098999999999,
          "velocity": 0.3937007874015748
        },
        {
          "duration": 0.16853925000000203,
          "durationTicks": 96,
          "midi": 43,
          "name": "G2",
          "ticks": 27168,
          "time": 47.69660774999999,
          "velocity": 0.3937007874015748
        },
        {
          "duration": 0.16853925000000203,
          "durationTicks": 96,
          "midi": 50,
          "name": "D3",
          "ticks": 27168,
          "time": 47.69660774999999,
          "velocity": 0.3937007874015748
        },
        {
          "duration": 0.505617749999999,
          "durationTicks": 288,
          "midi": 43,
          "name": "G2",
          "ticks": 27264,
          "time": 47.86514699999999,
          "velocity": 0.3937007874015748
        },
        {
          "duration": 0.505617749999999,
          "durationTicks": 288,
          "midi": 50,
          "name": "D3",
          "ticks": 27264,
          "time": 47.86514699999999,
          "velocity": 0.3937007874015748
        },
        {
          "duration": 0.16853925000000203,
          "durationTicks": 96,
          "midi": 44,
          "name": "G#2",
          "ticks": 27552,
          "time": 48.37076474999999,
          "velocity": 0.3937007874015748
        },
        {
          "duration": 0.16853925000000203,
          "durationTicks": 96,
          "midi": 48,
          "name": "C3",
          "ticks": 27552,
          "time": 48.37076474999999,
          "velocity": 0.3937007874015748
        },
        {
          "duration": 0.16853924999999492,
          "durationTicks": 96,
          "midi": 44,
          "name": "G#2",
          "ticks": 27648,
          "time": 48.539303999999994,
          "velocity": 0.3937007874015748
        },
        {
          "duration": 0.16853924999999492,
          "durationTicks": 96,
          "midi": 48,
          "name": "C3",
          "ticks": 27648,
          "time": 48.539303999999994,
          "velocity": 0.3937007874015748
        },
        {
          "duration": 0.674157000000001,
          "durationTicks": 384,
          "midi": 43,
          "name": "G2",
          "ticks": 27744,
          "time": 48.70784324999999,
          "velocity": 0.3937007874015748
        },
        {
          "duration": 0.674157000000001,
          "durationTicks": 384,
          "midi": 46,
          "name": "A#2",
          "ticks": 27744,
          "time": 48.70784324999999,
          "velocity": 0.3937007874015748
        },
        {
          "duration": 0.16853924999999492,
          "durationTicks": 96,
          "midi": 39,
          "name": "D#2",
          "ticks": 28992,
          "time": 50.898853499999994,
          "velocity": 0.3937007874015748
        },
        {
          "duration": 0.08426962499999746,
          "durationTicks": 48,
          "midi": 46,
          "name": "A#2",
          "ticks": 29184,
          "time": 51.23593199999999,
          "velocity": 0.3937007874015748
        },
        {
          "duration": 0.4213481250000015,
          "durationTicks": 240,
          "midi": 48,
          "name": "C3",
          "ticks": 29232,
          "time": 51.32020162499999,
          "velocity": 0.3937007874015748
        },
        {
          "duration": 0.16853925000000203,
          "durationTicks": 96,
          "midi": 46,
          "name": "A#2",
          "ticks": 29472,
          "time": 51.74154974999999,
          "velocity": 0.3937007874015748
        },
        {
          "duration": 0.505617749999999,
          "durationTicks": 288,
          "midi": 46,
          "name": "A#2",
          "ticks": 29568,
          "time": 51.91008899999999,
          "velocity": 0.3937007874015748
        },
        {
          "duration": 0.16853925000000203,
          "durationTicks": 96,
          "midi": 44,
          "name": "G#2",
          "ticks": 29856,
          "time": 52.41570674999999,
          "velocity": 0.3937007874015748
        },
        {
          "duration": 0.505617749999999,
          "durationTicks": 288,
          "midi": 51,
          "name": "D#3",
          "ticks": 29952,
          "time": 52.58424599999999,
          "velocity": 0.3937007874015748
        },
        {
          "duration": 0.505617749999999,
          "durationTicks": 288,
          "midi": 44,
          "name": "G#2",
          "ticks": 29952,
          "time": 52.58424599999999,
          "velocity": 0.3937007874015748
        },
        {
          "duration": 0.16853925000000203,
          "durationTicks": 96,
          "midi": 50,
          "name": "D3",
          "ticks": 30240,
          "time": 53.08986374999999,
          "velocity": 0.3937007874015748
        },
        {
          "duration": 0.16853925000000203,
          "durationTicks": 96,
          "midi": 43,
          "name": "G2",
          "ticks": 30240,
          "time": 53.08986374999999,
          "velocity": 0.3937007874015748
        },
        {
          "duration": 0.505617749999999,
          "durationTicks": 288,
          "midi": 50,
          "name": "D3",
          "ticks": 30336,
          "time": 53.258402999999994,
          "velocity": 0.3937007874015748
        },
        {
          "duration": 0.505617749999999,
          "durationTicks": 288,
          "midi": 43,
          "name": "G2",
          "ticks": 30336,
          "time": 53.258402999999994,
          "velocity": 0.3937007874015748
        },
        {
          "duration": 0.16853925000000203,
          "durationTicks": 96,
          "midi": 48,
          "name": "C3",
          "ticks": 30624,
          "time": 53.76402074999999,
          "velocity": 0.3937007874015748
        },
        {
          "duration": 0.16853925000000203,
          "durationTicks": 96,
          "midi": 44,
          "name": "G#2",
          "ticks": 30624,
          "time": 53.76402074999999,
          "velocity": 0.3937007874015748
        },
        {
          "duration": 0.16853924999999492,
          "durationTicks": 96,
          "midi": 48,
          "name": "C3",
          "ticks": 30720,
          "time": 53.932559999999995,
          "velocity": 0.3937007874015748
        },
        {
          "duration": 0.16853924999999492,
          "durationTicks": 96,
          "midi": 44,
          "name": "G#2",
          "ticks": 30720,
          "time": 53.932559999999995,
          "velocity": 0.3937007874015748
        },
        {
          "duration": 0.674157000000001,
          "durationTicks": 384,
          "midi": 48,
          "name": "C3",
          "ticks": 30816,
          "time": 54.10109924999999,
          "velocity": 0.3937007874015748
        },
        {
          "duration": 0.674157000000001,
          "durationTicks": 384,
          "midi": 43,
          "name": "G2",
          "ticks": 30816,
          "time": 54.10109924999999,
          "velocity": 0.3937007874015748
        },
        {
          "duration": 0.16853924999999492,
          "durationTicks": 96,
          "midi": 39,
          "name": "D#2",
          "ticks": 31680,
          "time": 55.617952499999994,
          "velocity": 0.3937007874015748
        },
        {
          "duration": 0.08426962500000457,
          "durationTicks": 48,
          "midi": 39,
          "name": "D#2",
          "ticks": 31776,
          "time": 55.78649174999999,
          "velocity": 0.3937007874015748
        },
        {
          "duration": 0.08426962499999746,
          "durationTicks": 48,
          "midi": 39,
          "name": "D#2",
          "ticks": 31872,
          "time": 55.95503099999999,
          "velocity": 0.3937007874015748
        },
        {
          "duration": 0.16853924999999492,
          "durationTicks": 96,
          "midi": 39,
          "name": "D#2",
          "ticks": 31968,
          "time": 56.12357024999999,
          "velocity": 0.3937007874015748
        },
        {
          "duration": 0.16853925000000203,
          "durationTicks": 96,
          "midi": 41,
          "name": "F2",
          "ticks": 32064,
          "time": 56.29210949999999,
          "velocity": 0.3937007874015748
        },
        {
          "duration": 0.16853925000000203,
          "durationTicks": 96,
          "midi": 51,
          "name": "D#3",
          "ticks": 32064,
          "time": 56.29210949999999,
          "velocity": 0.3937007874015748
        },
        {
          "duration": 0.16853925000000203,
          "durationTicks": 96,
          "midi": 41,
          "name": "F2",
          "ticks": 32256,
          "time": 56.62918799999999,
          "velocity": 0.3937007874015748
        },
        {
          "duration": 0.16853925000000203,
          "durationTicks": 96,
          "midi": 51,
          "name": "D#3",
          "ticks": 32256,
          "time": 56.62918799999999,
          "velocity": 0.3937007874015748
        },
        {
          "duration": 0.16853925000000203,
          "durationTicks": 96,
          "midi": 39,
          "name": "D#2",
          "ticks": 33216,
          "time": 58.31458049999999,
          "velocity": 0.3937007874015748
        },
        {
          "duration": 0.16853925000000203,
          "durationTicks": 96,
          "midi": 51,
          "name": "D#3",
          "ticks": 33216,
          "time": 58.31458049999999,
          "velocity": 0.3937007874015748
        },
        {
          "duration": 0.08426962499999746,
          "durationTicks": 48,
          "midi": 39,
          "name": "D#2",
          "ticks": 33312,
          "time": 58.48311974999999,
          "velocity": 0.3937007874015748
        },
        {
          "duration": 0.08426962499999746,
          "durationTicks": 48,
          "midi": 51,
          "name": "D#3",
          "ticks": 33312,
          "time": 58.48311974999999,
          "velocity": 0.3937007874015748
        },
        {
          "duration": 0.08426962500000457,
          "durationTicks": 48,
          "midi": 39,
          "name": "D#2",
          "ticks": 33408,
          "time": 58.65165899999999,
          "velocity": 0.3937007874015748
        },
        {
          "duration": 0.08426962500000457,
          "durationTicks": 48,
          "midi": 51,
          "name": "D#3",
          "ticks": 33408,
          "time": 58.65165899999999,
          "velocity": 0.3937007874015748
        },
        {
          "duration": 0.16853925000000203,
          "durationTicks": 96,
          "midi": 39,
          "name": "D#2",
          "ticks": 33504,
          "time": 58.82019824999999,
          "velocity": 0.3937007874015748
        },
        {
          "duration": 0.16853925000000203,
          "durationTicks": 96,
          "midi": 51,
          "name": "D#3",
          "ticks": 33504,
          "time": 58.82019824999999,
          "velocity": 0.3937007874015748
        },
        {
          "duration": 0.16853925000000203,
          "durationTicks": 96,
          "midi": 41,
          "name": "F2",
          "ticks": 33600,
          "time": 58.98873749999999,
          "velocity": 0.3937007874015748
        },
        {
          "duration": 0.16853925000000203,
          "durationTicks": 96,
          "midi": 53,
          "name": "F3",
          "ticks": 33600,
          "time": 58.98873749999999,
          "velocity": 0.3937007874015748
        },
        {
          "duration": 0.16853925000000203,
          "durationTicks": 96,
          "midi": 41,
          "name": "F2",
          "ticks": 33792,
          "time": 59.32581599999999,
          "velocity": 0.3937007874015748
        },
        {
          "duration": 0.16853925000000203,
          "durationTicks": 96,
          "midi": 53,
          "name": "F3",
          "ticks": 33792,
          "time": 59.32581599999999,
          "velocity": 0.3937007874015748
        },
        {
          "duration": 0.16853925000000203,
          "durationTicks": 96,
          "midi": 39,
          "name": "D#2",
          "ticks": 34752,
          "time": 61.01120849999999,
          "velocity": 0.3937007874015748
        },
        {
          "duration": 0.16853925000000203,
          "durationTicks": 96,
          "midi": 51,
          "name": "D#3",
          "ticks": 34752,
          "time": 61.01120849999999,
          "velocity": 0.3937007874015748
        },
        {
          "duration": 0.08426962499999746,
          "durationTicks": 48,
          "midi": 39,
          "name": "D#2",
          "ticks": 34848,
          "time": 61.17974774999999,
          "velocity": 0.3937007874015748
        },
        {
          "duration": 0.08426962499999746,
          "durationTicks": 48,
          "midi": 51,
          "name": "D#3",
          "ticks": 34848,
          "time": 61.17974774999999,
          "velocity": 0.3937007874015748
        }
      ],
      "endOfTrackTicks": 34896
    },
    {
      "channel": 5,
      "controlChanges": {},
      "pitchBends": [],
      "instrument": {
        "family": "strings",
        "number": 45,
        "name": "pizzicato strings"
      },
      "name": "Concert Harp",
      "notes": [
        {
          "duration": 0.16853924999999997,
          "durationTicks": 96,
          "midi": 39,
          "name": "D#2",
          "ticks": 0,
          "time": 0,
          "velocity": 0.3937007874015748
        },
        {
          "duration": 0.16853924999999992,
          "durationTicks": 96,
          "midi": 43,
          "name": "G2",
          "ticks": 192,
          "time": 0.33707849999999995,
          "velocity": 0.3937007874015748
        },
        {
          "duration": 0.16853925000000003,
          "durationTicks": 96,
          "midi": 46,
          "name": "A#2",
          "ticks": 384,
          "time": 0.6741569999999999,
          "velocity": 0.3937007874015748
        },
        {
          "duration": 0.16853925000000003,
          "durationTicks": 96,
          "midi": 51,
          "name": "D#3",
          "ticks": 576,
          "time": 1.0112354999999997,
          "velocity": 0.3937007874015748
        },
        {
          "duration": 0.16853925000000003,
          "durationTicks": 96,
          "midi": 55,
          "name": "G3",
          "ticks": 768,
          "time": 1.3483139999999998,
          "velocity": 0.3937007874015748
        },
        {
          "duration": 0.1685392499999998,
          "durationTicks": 96,
          "midi": 58,
          "name": "A#3",
          "ticks": 960,
          "time": 1.6853924999999998,
          "velocity": 0.3937007874015748
        },
        {
          "duration": 0.16853925000000025,
          "durationTicks": 96,
          "midi": 62,
          "name": "D4",
          "ticks": 1152,
          "time": 2.0224709999999995,
          "velocity": 0.3937007874015748
        },
        {
          "duration": 0.16853925000000025,
          "durationTicks": 96,
          "midi": 62,
          "name": "D4",
          "ticks": 1344,
          "time": 2.3595494999999995,
          "velocity": 0.3937007874015748
        },
        {
          "duration": 0.1685392499999998,
          "durationTicks": 96,
          "midi": 58,
          "name": "A#3",
          "ticks": 1536,
          "time": 2.6966279999999996,
          "velocity": 0.3937007874015748
        },
        {
          "duration": 0.1685392499999998,
          "durationTicks": 96,
          "midi": 55,
          "name": "G3",
          "ticks": 1728,
          "time": 3.0337064999999996,
          "velocity": 0.3937007874015748
        },
        {
          "duration": 0.1685392499999998,
          "durationTicks": 96,
          "midi": 51,
          "name": "D#3",
          "ticks": 1920,
          "time": 3.3707849999999997,
          "velocity": 0.3937007874015748
        },
        {
          "duration": 0.16853925000000025,
          "durationTicks": 96,
          "midi": 46,
          "name": "A#2",
          "ticks": 2112,
          "time": 3.7078634999999993,
          "velocity": 0.3937007874015748
        },
        {
          "duration": 0.16853925000000025,
          "durationTicks": 96,
          "midi": 43,
          "name": "G2",
          "ticks": 2304,
          "time": 4.044941999999999,
          "velocity": 0.3937007874015748
        },
        {
          "duration": 0.16853925000000025,
          "durationTicks": 96,
          "midi": 39,
          "name": "D#2",
          "ticks": 2496,
          "time": 4.382020499999999,
          "velocity": 0.3937007874015748
        },
        {
          "duration": 0.16853925000000025,
          "durationTicks": 96,
          "midi": 39,
          "name": "D#2",
          "ticks": 2688,
          "time": 4.719098999999999,
          "velocity": 0.3937007874015748
        },
        {
          "duration": 0.16853924999999936,
          "durationTicks": 96,
          "midi": 43,
          "name": "G2",
          "ticks": 2880,
          "time": 5.0561774999999995,
          "velocity": 0.3937007874015748
        },
        {
          "duration": 0.16853925000000025,
          "durationTicks": 96,
          "midi": 36,
          "name": "C2",
          "ticks": 3072,
          "time": 5.393255999999999,
          "velocity": 0.3937007874015748
        },
        {
          "duration": 0.16853925000000025,
          "durationTicks": 96,
          "midi": 43,
          "name": "G2",
          "ticks": 3264,
          "time": 5.730334499999999,
          "velocity": 0.3937007874015748
        },
        {
          "duration": 0.16853924999999936,
          "durationTicks": 96,
          "midi": 48,
          "name": "C3",
          "ticks": 3456,
          "time": 6.067412999999999,
          "velocity": 0.3937007874015748
        },
        {
          "duration": 0.16853925000000025,
          "durationTicks": 96,
          "midi": 51,
          "name": "D#3",
          "ticks": 3648,
          "time": 6.404491499999999,
          "velocity": 0.3937007874015748
        },
        {
          "duration": 0.16853924999999936,
          "durationTicks": 96,
          "midi": 55,
          "name": "G3",
          "ticks": 3840,
          "time": 6.741569999999999,
          "velocity": 0.3937007874015748
        },
        {
          "duration": 0.16853925000000025,
          "durationTicks": 96,
          "midi": 58,
          "name": "A#3",
          "ticks": 4032,
          "time": 7.078648499999999,
          "velocity": 0.3937007874015748
        },
        {
          "duration": 0.16853925000000025,
          "durationTicks": 96,
          "midi": 62,
          "name": "D4",
          "ticks": 4224,
          "time": 7.415726999999999,
          "velocity": 0.3937007874015748
        },
        {
          "duration": 0.16853924999999936,
          "durationTicks": 96,
          "midi": 62,
          "name": "D4",
          "ticks": 4416,
          "time": 7.752805499999999,
          "velocity": 0.3937007874015748
        },
        {
          "duration": 0.16853925000000025,
          "durationTicks": 96,
          "midi": 58,
          "name": "A#3",
          "ticks": 4608,
          "time": 8.089883999999998,
          "velocity": 0.3937007874015748
        },
        {
          "duration": 0.16853925000000025,
          "durationTicks": 96,
          "midi": 55,
          "name": "G3",
          "ticks": 4800,
          "time": 8.426962499999998,
          "velocity": 0.3937007874015748
        },
        {
          "duration": 0.16853925000000025,
          "durationTicks": 96,
          "midi": 51,
          "name": "D#3",
          "ticks": 4992,
          "time": 8.764040999999999,
          "velocity": 0.3937007874015748
        },
        {
          "duration": 0.16853924999999848,
          "durationTicks": 96,
          "midi": 48,
          "name": "C3",
          "ticks": 5184,
          "time": 9.1011195,
          "velocity": 0.3937007874015748
        },
        {
          "duration": 0.16853925000000025,
          "durationTicks": 96,
          "midi": 43,
          "name": "G2",
          "ticks": 5376,
          "time": 9.438197999999998,
          "velocity": 0.3937007874015748
        },
        {
          "duration": 0.16853925000000025,
          "durationTicks": 96,
          "midi": 36,
          "name": "C2",
          "ticks": 5568,
          "time": 9.775276499999999,
          "velocity": 0.3937007874015748
        },
        {
          "duration": 0.16853924999999848,
          "durationTicks": 96,
          "midi": 36,
          "name": "C2",
          "ticks": 5760,
          "time": 10.112354999999999,
          "velocity": 0.3937007874015748
        },
        {
          "duration": 0.16853925000000025,
          "durationTicks": 96,
          "midi": 43,
          "name": "G2",
          "ticks": 5952,
          "time": 10.449433499999998,
          "velocity": 0.3937007874015748
        },
        {
          "duration": 0.16853925000000025,
          "durationTicks": 96,
          "midi": 41,
          "name": "F2",
          "ticks": 6144,
          "time": 10.786511999999998,
          "velocity": 0.3937007874015748
        },
        {
          "duration": 0.16853925000000025,
          "durationTicks": 96,
          "midi": 36,
          "name": "C2",
          "ticks": 6336,
          "time": 11.123590499999999,
          "velocity": 0.3937007874015748
        },
        {
          "duration": 0.16853925000000025,
          "durationTicks": 96,
          "midi": 48,
          "name": "C3",
          "ticks": 6528,
          "time": 11.460668999999998,
          "velocity": 0.3937007874015748
        },
        {
          "duration": 0.16853925000000025,
          "durationTicks": 96,
          "midi": 51,
          "name": "D#3",
          "ticks": 6720,
          "time": 11.797747499999998,
          "velocity": 0.3937007874015748
        },
        {
          "duration": 0.16853925000000025,
          "durationTicks": 96,
          "midi": 55,
          "name": "G3",
          "ticks": 6912,
          "time": 12.134825999999999,
          "velocity": 0.3937007874015748
        },
        {
          "duration": 0.16853925000000025,
          "durationTicks": 96,
          "midi": 55,
          "name": "G3",
          "ticks": 7104,
          "time": 12.471904499999997,
          "velocity": 0.3937007874015748
        },
        {
          "duration": 0.16853925000000025,
          "durationTicks": 96,
          "midi": 55,
          "name": "G3",
          "ticks": 7296,
          "time": 12.808982999999998,
          "velocity": 0.3937007874015748
        },
        {
          "duration": 0.16853925000000025,
          "durationTicks": 96,
          "midi": 41,
          "name": "F2",
          "ticks": 7488,
          "time": 13.146061499999998,
          "velocity": 0.3937007874015748
        },
        {
          "duration": 0.16853925000000025,
          "durationTicks": 96,
          "midi": 41,
          "name": "F2",
          "ticks": 7872,
          "time": 13.820218499999998,
          "velocity": 0.3937007874015748
        },
        {
          "duration": 0.16853925000000025,
          "durationTicks": 96,
          "midi": 44,
          "name": "G#2",
          "ticks": 8064,
          "time": 14.157296999999998,
          "velocity": 0.3937007874015748
        },
        {
          "duration": 0.16853924999999848,
          "durationTicks": 96,
          "midi": 48,
          "name": "C3",
          "ticks": 8256,
          "time": 14.494375499999999,
          "velocity": 0.3937007874015748
        },
        {
          "duration": 0.16853925000000025,
          "durationTicks": 96,
          "midi": 48,
          "name": "C3",
          "ticks": 8448,
          "time": 14.831453999999997,
          "velocity": 0.3937007874015748
        },
        {
          "duration": 0.16853925000000025,
          "durationTicks": 96,
          "midi": 44,
          "name": "G#2",
          "ticks": 8640,
          "time": 15.168532499999998,
          "velocity": 0.3937007874015748
        },
        {
          "duration": 0.16853924999999848,
          "durationTicks": 96,
          "midi": 48,
          "name": "C3",
          "ticks": 8832,
          "time": 15.505610999999998,
          "velocity": 0.3937007874015748
        },
        {
          "duration": 0.16853925000000025,
          "durationTicks": 96,
          "midi": 36,
          "name": "C2",
          "ticks": 9024,
          "time": 15.842689499999997,
          "velocity": 0.3937007874015748
        },
        {
          "duration": 0.16853925000000203,
          "durationTicks": 96,
          "midi": 43,
          "name": "G2",
          "ticks": 9216,
          "time": 16.179767999999996,
          "velocity": 0.3937007874015748
        },
        {
          "duration": 0.16853925000000203,
          "durationTicks": 96,
          "midi": 43,
          "name": "G2",
          "ticks": 9408,
          "time": 16.516846499999996,
          "velocity": 0.3937007874015748
        },
        {
          "duration": 0.16853925000000203,
          "durationTicks": 96,
          "midi": 46,
          "name": "A#2",
          "ticks": 9600,
          "time": 16.853924999999997,
          "velocity": 0.3937007874015748
        },
        {
          "duration": 0.16853924999999848,
          "durationTicks": 96,
          "midi": 50,
          "name": "D3",
          "ticks": 9792,
          "time": 17.191003499999997,
          "velocity": 0.3937007874015748
        },
        {
          "duration": 0.16853924999999848,
          "durationTicks": 96,
          "midi": 53,
          "name": "F3",
          "ticks": 9984,
          "time": 17.528081999999998,
          "velocity": 0.3937007874015748
        },
        {
          "duration": 0.16853924999999848,
          "durationTicks": 96,
          "midi": 53,
          "name": "F3",
          "ticks": 10176,
          "time": 17.865160499999998,
          "velocity": 0.3937007874015748
        },
        {
          "duration": 0.16853924999999848,
          "durationTicks": 96,
          "midi": 50,
          "name": "D3",
          "ticks": 10368,
          "time": 18.202239,
          "velocity": 0.3937007874015748
        },
        {
          "duration": 0.16853925000000203,
          "durationTicks": 96,
          "midi": 43,
          "name": "G2",
          "ticks": 10752,
          "time": 18.876395999999996,
          "velocity": 0.3937007874015748
        },
        {
          "duration": 0.16853925000000203,
          "durationTicks": 96,
          "midi": 47,
          "name": "B2",
          "ticks": 10944,
          "time": 19.213474499999997,
          "velocity": 0.3937007874015748
        },
        {
          "duration": 0.16853924999999848,
          "durationTicks": 96,
          "midi": 43,
          "name": "G2",
          "ticks": 11136,
          "time": 19.550552999999997,
          "velocity": 0.3937007874015748
        },
        {
          "duration": 0.16853924999999848,
          "durationTicks": 96,
          "midi": 47,
          "name": "B2",
          "ticks": 11328,
          "time": 19.887631499999998,
          "velocity": 0.3937007874015748
        },
        {
          "duration": 0.16853924999999848,
          "durationTicks": 96,
          "midi": 50,
          "name": "D3",
          "ticks": 11520,
          "time": 20.224709999999998,
          "velocity": 0.3937007874015748
        },
        {
          "duration": 0.16853925000000203,
          "durationTicks": 96,
          "midi": 53,
          "name": "F3",
          "ticks": 11712,
          "time": 20.561788499999995,
          "velocity": 0.3937007874015748
        },
        {
          "duration": 0.16853924999999848,
          "durationTicks": 96,
          "midi": 39,
          "name": "D#2",
          "ticks": 12288,
          "time": 21.573023999999997,
          "velocity": 0.3937007874015748
        },
        {
          "duration": 0.16853924999999848,
          "durationTicks": 96,
          "midi": 43,
          "name": "G2",
          "ticks": 12480,
          "time": 21.910102499999997,
          "velocity": 0.3937007874015748
        },
        {
          "duration": 0.16853924999999848,
          "durationTicks": 96,
          "midi": 46,
          "name": "A#2",
          "ticks": 12672,
          "time": 22.247180999999998,
          "velocity": 0.3937007874015748
        },
        {
          "duration": 0.16853924999999848,
          "durationTicks": 96,
          "midi": 51,
          "name": "D#3",
          "ticks": 12864,
          "time": 22.584259499999998,
          "velocity": 0.3937007874015748
        },
        {
          "duration": 0.16853925000000203,
          "durationTicks": 96,
          "midi": 55,
          "name": "G3",
          "ticks": 13056,
          "time": 22.921337999999995,
          "velocity": 0.3937007874015748
        },
        {
          "duration": 0.16853925000000203,
          "durationTicks": 96,
          "midi": 58,
          "name": "A#3",
          "ticks": 13248,
          "time": 23.258416499999996,
          "velocity": 0.3937007874015748
        },
        {
          "duration": 0.16853924999999848,
          "durationTicks": 96,
          "midi": 62,
          "name": "D4",
          "ticks": 13440,
          "time": 23.595494999999996,
          "velocity": 0.3937007874015748
        },
        {
          "duration": 0.16853924999999848,
          "durationTicks": 96,
          "midi": 62,
          "name": "D4",
          "ticks": 13632,
          "time": 23.932573499999997,
          "velocity": 0.3937007874015748
        },
        {
          "duration": 0.16853924999999848,
          "durationTicks": 96,
          "midi": 58,
          "name": "A#3",
          "ticks": 13824,
          "time": 24.269651999999997,
          "velocity": 0.3937007874015748
        },
        {
          "duration": 0.16853924999999848,
          "durationTicks": 96,
          "midi": 55,
          "name": "G3",
          "ticks": 14016,
          "time": 24.606730499999998,
          "velocity": 0.3937007874015748
        },
        {
          "duration": 0.16853925000000203,
          "durationTicks": 96,
          "midi": 51,
          "name": "D#3",
          "ticks": 14208,
          "time": 24.943808999999995,
          "velocity": 0.3937007874015748
        },
        {
          "duration": 0.16853925000000203,
          "durationTicks": 96,
          "midi": 46,
          "name": "A#2",
          "ticks": 14400,
          "time": 25.280887499999995,
          "velocity": 0.3937007874015748
        },
        {
          "duration": 0.16853925000000203,
          "durationTicks": 96,
          "midi": 43,
          "name": "G2",
          "ticks": 14592,
          "time": 25.617965999999996,
          "velocity": 0.3937007874015748
        },
        {
          "duration": 0.16853924999999848,
          "durationTicks": 96,
          "midi": 39,
          "name": "D#2",
          "ticks": 14784,
          "time": 25.955044499999996,
          "velocity": 0.3937007874015748
        },
        {
          "duration": 0.16853924999999848,
          "durationTicks": 96,
          "midi": 39,
          "name": "D#2",
          "ticks": 14976,
          "time": 26.292122999999997,
          "velocity": 0.3937007874015748
        },
        {
          "duration": 0.16853924999999848,
          "durationTicks": 96,
          "midi": 43,
          "name": "G2",
          "ticks": 15168,
          "time": 26.629201499999997,
          "velocity": 0.3937007874015748
        },
        {
          "duration": 0.16853924999999848,
          "durationTicks": 96,
          "midi": 36,
          "name": "C2",
          "ticks": 15360,
          "time": 26.966279999999998,
          "velocity": 0.3937007874015748
        },
        {
          "duration": 0.16853925000000203,
          "durationTicks": 96,
          "midi": 43,
          "name": "G2",
          "ticks": 15552,
          "time": 27.303358499999995,
          "velocity": 0.3937007874015748
        },
        {
          "duration": 0.16853925000000203,
          "durationTicks": 96,
          "midi": 48,
          "name": "C3",
          "ticks": 15744,
          "time": 27.640436999999995,
          "velocity": 0.3937007874015748
        },
        {
          "duration": 0.16853924999999848,
          "durationTicks": 96,
          "midi": 51,
          "name": "D#3",
          "ticks": 15936,
          "time": 27.977515499999996,
          "velocity": 0.3937007874015748
        },
        {
          "duration": 0.16853924999999848,
          "durationTicks": 96,
          "midi": 55,
          "name": "G3",
          "ticks": 16128,
          "time": 28.314593999999996,
          "velocity": 0.3937007874015748
        },
        {
          "duration": 0.16853924999999848,
          "durationTicks": 96,
          "midi": 58,
          "name": "A#3",
          "ticks": 16320,
          "time": 28.651672499999997,
          "velocity": 0.3937007874015748
        },
        {
          "duration": 0.16853924999999848,
          "durationTicks": 96,
          "midi": 62,
          "name": "D4",
          "ticks": 16512,
          "time": 28.988750999999997,
          "velocity": 0.3937007874015748
        },
        {
          "duration": 0.16853925000000203,
          "durationTicks": 96,
          "midi": 62,
          "name": "D4",
          "ticks": 16704,
          "time": 29.325829499999994,
          "velocity": 0.3937007874015748
        },
        {
          "duration": 0.16853925000000203,
          "durationTicks": 96,
          "midi": 58,
          "name": "A#3",
          "ticks": 16896,
          "time": 29.662907999999995,
          "velocity": 0.3937007874015748
        },
        {
          "duration": 0.16853925000000203,
          "durationTicks": 96,
          "midi": 55,
          "name": "G3",
          "ticks": 17088,
          "time": 29.999986499999995,
          "velocity": 0.3937007874015748
        },
        {
          "duration": 0.16853924999999848,
          "durationTicks": 96,
          "midi": 51,
          "name": "D#3",
          "ticks": 17280,
          "time": 30.337064999999996,
          "velocity": 0.3937007874015748
        },
        {
          "duration": 0.16853924999999848,
          "durationTicks": 96,
          "midi": 48,
          "name": "C3",
          "ticks": 17472,
          "time": 30.674143499999996,
          "velocity": 0.3937007874015748
        },
        {
          "duration": 0.16853924999999848,
          "durationTicks": 96,
          "midi": 43,
          "name": "G2",
          "ticks": 17664,
          "time": 31.011221999999997,
          "velocity": 0.3937007874015748
        },
        {
          "duration": 0.16853925000000203,
          "durationTicks": 96,
          "midi": 36,
          "name": "C2",
          "ticks": 17856,
          "time": 31.348300499999993,
          "velocity": 0.3937007874015748
        },
        {
          "duration": 0.16853925000000203,
          "durationTicks": 96,
          "midi": 36,
          "name": "C2",
          "ticks": 18048,
          "time": 31.685378999999994,
          "velocity": 0.3937007874015748
        },
        {
          "duration": 0.16853925000000203,
          "durationTicks": 96,
          "midi": 43,
          "name": "G2",
          "ticks": 18240,
          "time": 32.022457499999994,
          "velocity": 0.3937007874015748
        },
        {
          "duration": 0.16853925000000203,
          "durationTicks": 96,
          "midi": 41,
          "name": "F2",
          "ticks": 18432,
          "time": 32.35953599999999,
          "velocity": 0.3937007874015748
        },
        {
          "duration": 0.16853925000000203,
          "durationTicks": 96,
          "midi": 36,
          "name": "C2",
          "ticks": 18624,
          "time": 32.696614499999995,
          "velocity": 0.3937007874015748
        },
        {
          "duration": 0.16853925000000203,
          "durationTicks": 96,
          "midi": 48,
          "name": "C3",
          "ticks": 18816,
          "time": 33.03369299999999,
          "velocity": 0.3937007874015748
        },
        {
          "duration": 0.16853924999999492,
          "durationTicks": 96,
          "midi": 51,
          "name": "D#3",
          "ticks": 19008,
          "time": 33.3707715,
          "velocity": 0.3937007874015748
        },
        {
          "duration": 0.16853925000000203,
          "durationTicks": 96,
          "midi": 55,
          "name": "G3",
          "ticks": 19200,
          "time": 33.70784999999999,
          "velocity": 0.3937007874015748
        },
        {
          "duration": 0.16853924999999492,
          "durationTicks": 96,
          "midi": 55,
          "name": "G3",
          "ticks": 19392,
          "time": 34.0449285,
          "velocity": 0.3937007874015748
        },
        {
          "duration": 0.16853925000000203,
          "durationTicks": 96,
          "midi": 55,
          "name": "G3",
          "ticks": 19584,
          "time": 34.382006999999994,
          "velocity": 0.3937007874015748
        },
        {
          "duration": 0.16853925000000203,
          "durationTicks": 96,
          "midi": 41,
          "name": "F2",
          "ticks": 19776,
          "time": 34.71908549999999,
          "velocity": 0.3937007874015748
        },
        {
          "duration": 0.16853925000000203,
          "durationTicks": 96,
          "midi": 41,
          "name": "F2",
          "ticks": 20160,
          "time": 35.39324249999999,
          "velocity": 0.3937007874015748
        },
        {
          "duration": 0.16853924999999492,
          "durationTicks": 96,
          "midi": 44,
          "name": "G#2",
          "ticks": 20352,
          "time": 35.730320999999996,
          "velocity": 0.3937007874015748
        },
        {
          "duration": 0.16853925000000203,
          "durationTicks": 96,
          "midi": 48,
          "name": "C3",
          "ticks": 20544,
          "time": 36.06739949999999,
          "velocity": 0.3937007874015748
        },
        {
          "duration": 0.16853924999999492,
          "durationTicks": 96,
          "midi": 48,
          "name": "C3",
          "ticks": 20736,
          "time": 36.404478,
          "velocity": 0.3937007874015748
        },
        {
          "duration": 0.16853925000000203,
          "durationTicks": 96,
          "midi": 44,
          "name": "G#2",
          "ticks": 20928,
          "time": 36.741556499999994,
          "velocity": 0.3937007874015748
        },
        {
          "duration": 0.16853925000000203,
          "durationTicks": 96,
          "midi": 48,
          "name": "C3",
          "ticks": 21120,
          "time": 37.07863499999999,
          "velocity": 0.3937007874015748
        },
        {
          "duration": 0.16853925000000203,
          "durationTicks": 96,
          "midi": 36,
          "name": "C2",
          "ticks": 21312,
          "time": 37.415713499999995,
          "velocity": 0.3937007874015748
        },
        {
          "duration": 0.16853925000000203,
          "durationTicks": 96,
          "midi": 43,
          "name": "G2",
          "ticks": 21504,
          "time": 37.75279199999999,
          "velocity": 0.3937007874015748
        },
        {
          "duration": 0.16853924999999492,
          "durationTicks": 96,
          "midi": 43,
          "name": "G2",
          "ticks": 21696,
          "time": 38.089870499999996,
          "velocity": 0.3937007874015748
        },
        {
          "duration": 0.16853925000000203,
          "durationTicks": 96,
          "midi": 46,
          "name": "A#2",
          "ticks": 21888,
          "time": 38.42694899999999,
          "velocity": 0.3937007874015748
        },
        {
          "duration": 0.16853924999999492,
          "durationTicks": 96,
          "midi": 50,
          "name": "D3",
          "ticks": 22080,
          "time": 38.7640275,
          "velocity": 0.3937007874015748
        },
        {
          "duration": 0.16853925000000203,
          "durationTicks": 96,
          "midi": 53,
          "name": "F3",
          "ticks": 22272,
          "time": 39.101105999999994,
          "velocity": 0.3937007874015748
        },
        {
          "duration": 0.16853925000000203,
          "durationTicks": 96,
          "midi": 53,
          "name": "F3",
          "ticks": 22464,
          "time": 39.43818449999999,
          "velocity": 0.3937007874015748
        },
        {
          "duration": 0.16853924999999492,
          "durationTicks": 96,
          "midi": 50,
          "name": "D3",
          "ticks": 22656,
          "time": 39.775262999999995,
          "velocity": 0.3937007874015748
        },
        {
          "duration": 0.16853924999999492,
          "durationTicks": 96,
          "midi": 43,
          "name": "G2",
          "ticks": 23040,
          "time": 40.449419999999996,
          "velocity": 0.3937007874015748
        },
        {
          "duration": 0.16853925000000203,
          "durationTicks": 96,
          "midi": 47,
          "name": "B2",
          "ticks": 23232,
          "time": 40.78649849999999,
          "velocity": 0.3937007874015748
        },
        {
          "duration": 0.16853925000000203,
          "durationTicks": 96,
          "midi": 43,
          "name": "G2",
          "ticks": 23424,
          "time": 41.12357699999999,
          "velocity": 0.3937007874015748
        },
        {
          "duration": 0.16853925000000203,
          "durationTicks": 96,
          "midi": 47,
          "name": "B2",
          "ticks": 23616,
          "time": 41.460655499999994,
          "velocity": 0.3937007874015748
        },
        {
          "duration": 0.16853925000000203,
          "durationTicks": 96,
          "midi": 50,
          "name": "D3",
          "ticks": 23808,
          "time": 41.79773399999999,
          "velocity": 0.3937007874015748
        },
        {
          "duration": 0.16853924999999492,
          "durationTicks": 96,
          "midi": 53,
          "name": "F3",
          "ticks": 24000,
          "time": 42.134812499999995,
          "velocity": 0.3937007874015748
        },
        {
          "duration": 0.16853925000000203,
          "durationTicks": 96,
          "midi": 39,
          "name": "D#2",
          "ticks": 24576,
          "time": 43.14604799999999,
          "velocity": 0.3937007874015748
        },
        {
          "duration": 0.16853925000000203,
          "durationTicks": 96,
          "midi": 43,
          "name": "G2",
          "ticks": 24768,
          "time": 43.48312649999999,
          "velocity": 0.3937007874015748
        },
        {
          "duration": 0.16853925000000203,
          "durationTicks": 96,
          "midi": 46,
          "name": "A#2",
          "ticks": 24960,
          "time": 43.820204999999994,
          "velocity": 0.3937007874015748
        },
        {
          "duration": 0.16853925000000203,
          "durationTicks": 96,
          "midi": 51,
          "name": "D#3",
          "ticks": 25152,
          "time": 44.15728349999999,
          "velocity": 0.3937007874015748
        },
        {
          "duration": 0.16853924999999492,
          "durationTicks": 96,
          "midi": 55,
          "name": "G3",
          "ticks": 25344,
          "time": 44.494361999999995,
          "velocity": 0.3937007874015748
        },
        {
          "duration": 0.16853925000000203,
          "durationTicks": 96,
          "midi": 58,
          "name": "A#3",
          "ticks": 25536,
          "time": 44.83144049999999,
          "velocity": 0.3937007874015748
        },
        {
          "duration": 0.16853924999999492,
          "durationTicks": 96,
          "midi": 62,
          "name": "D4",
          "ticks": 25728,
          "time": 45.168518999999996,
          "velocity": 0.3937007874015748
        },
        {
          "duration": 0.16853925000000203,
          "durationTicks": 96,
          "midi": 62,
          "name": "D4",
          "ticks": 25920,
          "time": 45.50559749999999,
          "velocity": 0.3937007874015748
        },
        {
          "duration": 0.16853925000000203,
          "durationTicks": 96,
          "midi": 58,
          "name": "A#3",
          "ticks": 26112,
          "time": 45.84267599999999,
          "velocity": 0.3937007874015748
        },
        {
          "duration": 0.16853925000000203,
          "durationTicks": 96,
          "midi": 55,
          "name": "G3",
          "ticks": 26304,
          "time": 46.179754499999994,
          "velocity": 0.3937007874015748
        },
        {
          "duration": 0.16853925000000203,
          "durationTicks": 96,
          "midi": 51,
          "name": "D#3",
          "ticks": 26496,
          "time": 46.51683299999999,
          "velocity": 0.3937007874015748
        },
        {
          "duration": 0.16853924999999492,
          "durationTicks": 96,
          "midi": 46,
          "name": "A#2",
          "ticks": 26688,
          "time": 46.853911499999995,
          "velocity": 0.3937007874015748
        },
        {
          "duration": 0.16853925000000203,
          "durationTicks": 96,
          "midi": 43,
          "name": "G2",
          "ticks": 26880,
          "time": 47.19098999999999,
          "velocity": 0.3937007874015748
        },
        {
          "duration": 0.16853925000000203,
          "durationTicks": 96,
          "midi": 39,
          "name": "D#2",
          "ticks": 27072,
          "time": 47.52806849999999,
          "velocity": 0.3937007874015748
        },
        {
          "duration": 0.16853925000000203,
          "durationTicks": 96,
          "midi": 39,
          "name": "D#2",
          "ticks": 27264,
          "time": 47.86514699999999,
          "velocity": 0.3937007874015748
        },
        {
          "duration": 0.16853925000000203,
          "durationTicks": 96,
          "midi": 43,
          "name": "G2",
          "ticks": 27456,
          "time": 48.20222549999999,
          "velocity": 0.3937007874015748
        },
        {
          "duration": 0.16853924999999492,
          "durationTicks": 96,
          "midi": 36,
          "name": "C2",
          "ticks": 27648,
          "time": 48.539303999999994,
          "velocity": 0.3937007874015748
        },
        {
          "duration": 0.16853925000000203,
          "durationTicks": 96,
          "midi": 43,
          "name": "G2",
          "ticks": 27840,
          "time": 48.87638249999999,
          "velocity": 0.3937007874015748
        },
        {
          "duration": 0.16853924999999492,
          "durationTicks": 96,
          "midi": 48,
          "name": "C3",
          "ticks": 28032,
          "time": 49.213460999999995,
          "velocity": 0.3937007874015748
        },
        {
          "duration": 0.16853925000000203,
          "durationTicks": 96,
          "midi": 51,
          "name": "D#3",
          "ticks": 28224,
          "time": 49.55053949999999,
          "velocity": 0.3937007874015748
        },
        {
          "duration": 0.16853925000000203,
          "durationTicks": 96,
          "midi": 55,
          "name": "G3",
          "ticks": 28416,
          "time": 49.88761799999999,
          "velocity": 0.3937007874015748
        },
        {
          "duration": 0.16853925000000203,
          "durationTicks": 96,
          "midi": 58,
          "name": "A#3",
          "ticks": 28608,
          "time": 50.22469649999999,
          "velocity": 0.3937007874015748
        },
        {
          "duration": 0.16853925000000203,
          "durationTicks": 96,
          "midi": 62,
          "name": "D4",
          "ticks": 28800,
          "time": 50.56177499999999,
          "velocity": 0.3937007874015748
        },
        {
          "duration": 0.16853924999999492,
          "durationTicks": 96,
          "midi": 62,
          "name": "D4",
          "ticks": 28992,
          "time": 50.898853499999994,
          "velocity": 0.3937007874015748
        },
        {
          "duration": 0.16853925000000203,
          "durationTicks": 96,
          "midi": 58,
          "name": "A#3",
          "ticks": 29184,
          "time": 51.23593199999999,
          "velocity": 0.3937007874015748
        },
        {
          "duration": 0.16853924999999492,
          "durationTicks": 96,
          "midi": 55,
          "name": "G3",
          "ticks": 29376,
          "time": 51.573010499999995,
          "velocity": 0.3937007874015748
        },
        {
          "duration": 0.16853925000000203,
          "durationTicks": 96,
          "midi": 51,
          "name": "D#3",
          "ticks": 29568,
          "time": 51.91008899999999,
          "velocity": 0.3937007874015748
        },
        {
          "duration": 0.16853925000000203,
          "durationTicks": 96,
          "midi": 48,
          "name": "C3",
          "ticks": 29760,
          "time": 52.24716749999999,
          "velocity": 0.3937007874015748
        },
        {
          "duration": 0.16853925000000203,
          "durationTicks": 96,
          "midi": 43,
          "name": "G2",
          "ticks": 29952,
          "time": 52.58424599999999,
          "velocity": 0.3937007874015748
        },
        {
          "duration": 0.16853925000000203,
          "durationTicks": 96,
          "midi": 36,
          "name": "C2",
          "ticks": 30144,
          "time": 52.92132449999999,
          "velocity": 0.3937007874015748
        },
        {
          "duration": 0.16853924999999492,
          "durationTicks": 96,
          "midi": 36,
          "name": "C2",
          "ticks": 30336,
          "time": 53.258402999999994,
          "velocity": 0.3937007874015748
        },
        {
          "duration": 0.16853925000000203,
          "durationTicks": 96,
          "midi": 43,
          "name": "G2",
          "ticks": 30528,
          "time": 53.59548149999999,
          "velocity": 0.3937007874015748
        },
        {
          "duration": 0.16853924999999492,
          "durationTicks": 96,
          "midi": 41,
          "name": "F2",
          "ticks": 30720,
          "time": 53.932559999999995,
          "velocity": 0.3937007874015748
        },
        {
          "duration": 0.16853925000000203,
          "durationTicks": 96,
          "midi": 36,
          "name": "C2",
          "ticks": 30912,
          "time": 54.26963849999999,
          "velocity": 0.3937007874015748
        },
        {
          "duration": 0.16853925000000203,
          "durationTicks": 96,
          "midi": 48,
          "name": "C3",
          "ticks": 31104,
          "time": 54.60671699999999,
          "velocity": 0.3937007874015748
        },
        {
          "duration": 0.16853924999999492,
          "durationTicks": 96,
          "midi": 51,
          "name": "D#3",
          "ticks": 31296,
          "time": 54.94379549999999,
          "velocity": 0.3937007874015748
        },
        {
          "duration": 0.16853925000000203,
          "durationTicks": 96,
          "midi": 55,
          "name": "G3",
          "ticks": 31488,
          "time": 55.28087399999999,
          "velocity": 0.3937007874015748
        },
        {
          "duration": 0.16853924999999492,
          "durationTicks": 96,
          "midi": 55,
          "name": "G3",
          "ticks": 31680,
          "time": 55.617952499999994,
          "velocity": 0.3937007874015748
        },
        {
          "duration": 0.16853925000000203,
          "durationTicks": 96,
          "midi": 55,
          "name": "G3",
          "ticks": 31872,
          "time": 55.95503099999999,
          "velocity": 0.3937007874015748
        },
        {
          "duration": 0.16853925000000203,
          "durationTicks": 96,
          "midi": 41,
          "name": "F2",
          "ticks": 32064,
          "time": 56.29210949999999,
          "velocity": 0.3937007874015748
        },
        {
          "duration": 0.16853925000000203,
          "durationTicks": 96,
          "midi": 41,
          "name": "F2",
          "ticks": 32448,
          "time": 56.96626649999999,
          "velocity": 0.3937007874015748
        },
        {
          "duration": 0.16853924999999492,
          "durationTicks": 96,
          "midi": 44,
          "name": "G#2",
          "ticks": 32640,
          "time": 57.30334499999999,
          "velocity": 0.3937007874015748
        },
        {
          "duration": 0.16853925000000203,
          "durationTicks": 96,
          "midi": 48,
          "name": "C3",
          "ticks": 32832,
          "time": 57.64042349999999,
          "velocity": 0.3937007874015748
        },
        {
          "duration": 0.16853924999999492,
          "durationTicks": 96,
          "midi": 48,
          "name": "C3",
          "ticks": 33024,
          "time": 57.977501999999994,
          "velocity": 0.3937007874015748
        },
        {
          "duration": 0.16853925000000203,
          "durationTicks": 96,
          "midi": 44,
          "name": "G#2",
          "ticks": 33216,
          "time": 58.31458049999999,
          "velocity": 0.3937007874015748
        },
        {
          "duration": 0.16853925000000203,
          "durationTicks": 96,
          "midi": 48,
          "name": "C3",
          "ticks": 33408,
          "time": 58.65165899999999,
          "velocity": 0.3937007874015748
        },
        {
          "duration": 0.16853925000000203,
          "durationTicks": 96,
          "midi": 36,
          "name": "C2",
          "ticks": 33600,
          "time": 58.98873749999999,
          "velocity": 0.3937007874015748
        },
        {
          "duration": 0.16853925000000203,
          "durationTicks": 96,
          "midi": 43,
          "name": "G2",
          "ticks": 33792,
          "time": 59.32581599999999,
          "velocity": 0.3937007874015748
        },
        {
          "duration": 0.16853924999999492,
          "durationTicks": 96,
          "midi": 43,
          "name": "G2",
          "ticks": 33984,
          "time": 59.66289449999999,
          "velocity": 0.3937007874015748
        },
        {
          "duration": 0.16853925000000203,
          "durationTicks": 96,
          "midi": 46,
          "name": "A#2",
          "ticks": 34176,
          "time": 59.99997299999999,
          "velocity": 0.3937007874015748
        },
        {
          "duration": 0.16853924999999492,
          "durationTicks": 96,
          "midi": 50,
          "name": "D3",
          "ticks": 34368,
          "time": 60.337051499999994,
          "velocity": 0.3937007874015748
        },
        {
          "duration": 0.16853925000000203,
          "durationTicks": 96,
          "midi": 53,
          "name": "F3",
          "ticks": 34560,
          "time": 60.67412999999999,
          "velocity": 0.3937007874015748
        },
        {
          "duration": 0.16853925000000203,
          "durationTicks": 96,
          "midi": 53,
          "name": "F3",
          "ticks": 34752,
          "time": 61.01120849999999,
          "velocity": 0.3937007874015748
        },
        {
          "duration": 0.16853924999999492,
          "durationTicks": 96,
          "midi": 50,
          "name": "D3",
          "ticks": 34944,
          "time": 61.34828699999999,
          "velocity": 0.3937007874015748
        },
        {
          "duration": 0.16853924999999492,
          "durationTicks": 96,
          "midi": 43,
          "name": "G2",
          "ticks": 35328,
          "time": 62.02244399999999,
          "velocity": 0.3937007874015748
        },
        {
          "duration": 0.16853925000000203,
          "durationTicks": 96,
          "midi": 47,
          "name": "B2",
          "ticks": 35520,
          "time": 62.35952249999999,
          "velocity": 0.3937007874015748
        },
        {
          "duration": 0.16853925000000203,
          "durationTicks": 96,
          "midi": 43,
          "name": "G2",
          "ticks": 35712,
          "time": 62.69660099999999,
          "velocity": 0.3937007874015748
        },
        {
          "duration": 0.16853925000000203,
          "durationTicks": 96,
          "midi": 47,
          "name": "B2",
          "ticks": 35904,
          "time": 63.03367949999999,
          "velocity": 0.3937007874015748
        },
        {
          "duration": 0.16853925000000203,
          "durationTicks": 96,
          "midi": 50,
          "name": "D3",
          "ticks": 36096,
          "time": 63.37075799999999,
          "velocity": 0.3937007874015748
        },
        {
          "duration": 0.16853924999999492,
          "durationTicks": 96,
          "midi": 53,
          "name": "F3",
          "ticks": 36288,
          "time": 63.70783649999999,
          "velocity": 0.3937007874015748
        }
      ],
      "endOfTrackTicks": 36384
    },
    {
      "channel": 6,
      "controlChanges": {},
      "pitchBends": [],
      "instrument": {
        "family": "chromatic percussion",
        "number": 10,
        "name": "music box"
      },
      "name": "Music Box",
      "notes": [
        {
          "duration": 0.16853924999999492,
          "durationTicks": 96,
          "midi": 55,
          "name": "G3",
          "ticks": 36480,
          "time": 64.04491499999999,
          "velocity": 0.3937007874015748
        }
      ],
      "endOfTrackTicks": 36576
    },
    {
      "channel": 7,
      "controlChanges": {},
      "pitchBends": [],
      "instrument": {
        "family": "synth lead",
        "number": 80,
        "name": "lead 1 (square)"
      },
      "name": "Smooth Synth (Classic)",
      "notes": [
        {
          "duration": 0.16853924999999492,
          "durationTicks": 96,
          "midi": 63,
          "name": "D#4",
          "ticks": 34944,
          "time": 61.34828699999999,
          "velocity": 0.3937007874015748
        },
        {
          "duration": 0.16853924999999492,
          "durationTicks": 96,
          "midi": 56,
          "name": "G#3",
          "ticks": 34944,
          "time": 61.34828699999999,
          "velocity": 0.3937007874015748
        },
        {
          "duration": 0.16853925000000203,
          "durationTicks": 96,
          "midi": 63,
          "name": "D#4",
          "ticks": 35040,
          "time": 61.51682624999999,
          "velocity": 0.3937007874015748
        },
        {
          "duration": 0.16853925000000203,
          "durationTicks": 96,
          "midi": 56,
          "name": "G#3",
          "ticks": 35040,
          "time": 61.51682624999999,
          "velocity": 0.3937007874015748
        },
        {
          "duration": 0.16853925000000203,
          "durationTicks": 96,
          "midi": 63,
          "name": "D#4",
          "ticks": 35136,
          "time": 61.68536549999999,
          "velocity": 0.3937007874015748
        },
        {
          "duration": 0.16853925000000203,
          "durationTicks": 96,
          "midi": 56,
          "name": "G#3",
          "ticks": 35136,
          "time": 61.68536549999999,
          "velocity": 0.3937007874015748
        },
        {
          "duration": 0.16853925000000203,
          "durationTicks": 96,
          "midi": 56,
          "name": "G#3",
          "ticks": 35232,
          "time": 61.85390474999999,
          "velocity": 0.3937007874015748
        },
        {
          "duration": 0.16853925000000203,
          "durationTicks": 96,
          "midi": 63,
          "name": "D#4",
          "ticks": 35232,
          "time": 61.85390474999999,
          "velocity": 0.3937007874015748
        },
        {
          "duration": 0.16853924999999492,
          "durationTicks": 96,
          "midi": 56,
          "name": "G#3",
          "ticks": 35328,
          "time": 62.02244399999999,
          "velocity": 0.3937007874015748
        },
        {
          "duration": 0.16853924999999492,
          "durationTicks": 96,
          "midi": 63,
          "name": "D#4",
          "ticks": 35328,
          "time": 62.02244399999999,
          "velocity": 0.3937007874015748
        },
        {
          "duration": 0.16853925000000203,
          "durationTicks": 96,
          "midi": 56,
          "name": "G#3",
          "ticks": 35424,
          "time": 62.19098324999999,
          "velocity": 0.3937007874015748
        },
        {
          "duration": 0.16853925000000203,
          "durationTicks": 96,
          "midi": 63,
          "name": "D#4",
          "ticks": 35424,
          "time": 62.19098324999999,
          "velocity": 0.3937007874015748
        },
        {
          "duration": 0.16853925000000203,
          "durationTicks": 96,
          "midi": 56,
          "name": "G#3",
          "ticks": 35520,
          "time": 62.35952249999999,
          "velocity": 0.3937007874015748
        },
        {
          "duration": 0.16853925000000203,
          "durationTicks": 96,
          "midi": 63,
          "name": "D#4",
          "ticks": 35520,
          "time": 62.35952249999999,
          "velocity": 0.3937007874015748
        },
        {
          "duration": 0.16853924999999492,
          "durationTicks": 96,
          "midi": 56,
          "name": "G#3",
          "ticks": 35616,
          "time": 62.52806174999999,
          "velocity": 0.3937007874015748
        },
        {
          "duration": 0.16853924999999492,
          "durationTicks": 96,
          "midi": 63,
          "name": "D#4",
          "ticks": 35616,
          "time": 62.52806174999999,
          "velocity": 0.3937007874015748
        },
        {
          "duration": 0.16853925000000203,
          "durationTicks": 96,
          "midi": 56,
          "name": "G#3",
          "ticks": 35712,
          "time": 62.69660099999999,
          "velocity": 0.3937007874015748
        },
        {
          "duration": 0.16853925000000203,
          "durationTicks": 96,
          "midi": 63,
          "name": "D#4",
          "ticks": 35712,
          "time": 62.69660099999999,
          "velocity": 0.3937007874015748
        },
        {
          "duration": 0.16853925000000203,
          "durationTicks": 96,
          "midi": 56,
          "name": "G#3",
          "ticks": 35808,
          "time": 62.86514024999999,
          "velocity": 0.3937007874015748
        },
        {
          "duration": 0.16853925000000203,
          "durationTicks": 96,
          "midi": 63,
          "name": "D#4",
          "ticks": 35808,
          "time": 62.86514024999999,
          "velocity": 0.3937007874015748
        },
        {
          "duration": 0.16853925000000203,
          "durationTicks": 96,
          "midi": 56,
          "name": "G#3",
          "ticks": 35904,
          "time": 63.03367949999999,
          "velocity": 0.3937007874015748
        },
        {
          "duration": 0.16853925000000203,
          "durationTicks": 96,
          "midi": 63,
          "name": "D#4",
          "ticks": 35904,
          "time": 63.03367949999999,
          "velocity": 0.3937007874015748
        },
        {
          "duration": 0.16853924999999492,
          "durationTicks": 96,
          "midi": 56,
          "name": "G#3",
          "ticks": 36000,
          "time": 63.20221874999999,
          "velocity": 0.3937007874015748
        },
        {
          "duration": 0.16853924999999492,
          "durationTicks": 96,
          "midi": 63,
          "name": "D#4",
          "ticks": 36000,
          "time": 63.20221874999999,
          "velocity": 0.3937007874015748
        },
        {
          "duration": 0.16853925000000203,
          "durationTicks": 96,
          "midi": 56,
          "name": "G#3",
          "ticks": 36096,
          "time": 63.37075799999999,
          "velocity": 0.3937007874015748
        },
        {
          "duration": 0.16853925000000203,
          "durationTicks": 96,
          "midi": 63,
          "name": "D#4",
          "ticks": 36096,
          "time": 63.37075799999999,
          "velocity": 0.3937007874015748
        },
        {
          "duration": 0.16853925000000203,
          "durationTicks": 96,
          "midi": 56,
          "name": "G#3",
          "ticks": 36192,
          "time": 63.53929724999999,
          "velocity": 0.3937007874015748
        },
        {
          "duration": 0.16853925000000203,
          "durationTicks": 96,
          "midi": 63,
          "name": "D#4",
          "ticks": 36192,
          "time": 63.53929724999999,
          "velocity": 0.3937007874015748
        },
        {
          "duration": 0.16853924999999492,
          "durationTicks": 96,
          "midi": 56,
          "name": "G#3",
          "ticks": 36288,
          "time": 63.70783649999999,
          "velocity": 0.3937007874015748
        },
        {
          "duration": 0.16853924999999492,
          "durationTicks": 96,
          "midi": 63,
          "name": "D#4",
          "ticks": 36288,
          "time": 63.70783649999999,
          "velocity": 0.3937007874015748
        }
      ],
      "endOfTrackTicks": 36384
    },
    {
      "channel": 8,
      "controlChanges": {},
      "pitchBends": [],
      "instrument": {
        "family": "strings",
        "number": 45,
        "name": "pizzicato strings"
      },
      "name": "Pizzicato",
      "notes": [
        {
          "duration": 0.16853925000000913,
          "durationTicks": 96,
          "midi": 27,
          "name": "D#1",
          "ticks": 36864,
          "time": 64.71907199999998,
          "velocity": 0.3937007874015748
        },
        {
          "duration": 0.16853925000000913,
          "durationTicks": 96,
          "midi": 27,
          "name": "D#1",
          "ticks": 38400,
          "time": 67.41569999999999,
          "velocity": 0.3937007874015748
        },
        {
          "duration": 0.16853924999999492,
          "durationTicks": 96,
          "midi": 32,
          "name": "G#1",
          "ticks": 39936,
          "time": 70.11232799999999,
          "velocity": 0.3937007874015748
        }
      ],
      "endOfTrackTicks": 40032
    }
  ]
}
