{
  "header": {
    "keySignatures": [],
    "meta": [],
    "name": "Vibraphone",
    "ppq": 384,
    "tempos": [
      {
        "bpm": 109.00014170018422,
        "ticks": 0
      }
    ],
    "timeSignatures": [
      {
        "ticks": 0,
        "timeSignature": [
          4,
          4
        ],
        "measures": 0
      }
    ]
  },
  "tracks": [
    {
      "channel": 0,
      "controlChanges": {},
      "pitchBends": [],
      "instrument": {
        "family": "chromatic percussion",
        "number": 11,
        "name": "vibraphone"
      },
      "name": "Vibraphone",
      "notes": [
        {
          "duration": 0.13761450000000003,
          "durationTicks": 96,
          "midi": 71,
          "name": "B4",
          "ticks": 48,
          "time": 0.06880725,
          "velocity": 0.7795275590551181
        },
        {
          "duration": 0.1376145,
          "durationTicks": 96,
          "midi": 69,
          "name": "A4",
          "ticks": 96,
          "time": 0.1376145,
          "velocity": 0.7795275590551181
        },
        {
          "duration": 0.13761450000000003,
          "durationTicks": 96,
          "midi": 67,
          "name": "G4",
          "ticks": 240,
          "time": 0.34403625,
          "velocity": 0.7795275590551181
        },
        {
          "duration": 0.13761449999999997,
          "durationTicks": 96,
          "midi": 64,
          "name": "E4",
          "ticks": 288,
          "time": 0.41284350000000003,
          "velocity": 0.7795275590551181
        },
        {
          "duration": 0.13761449999999997,
          "durationTicks": 96,
          "midi": 62,
          "name": "D4",
          "ticks": 432,
          "time": 0.61926525,
          "velocity": 0.7795275590551181
        },
        {
          "duration": 0.27522900000000006,
          "durationTicks": 192,
          "midi": 64,
          "name": "E4",
          "ticks": 480,
          "time": 0.6880725,
          "velocity": 0.7795275590551181
        },
        {
          "duration": 0.27522900000000006,
          "durationTicks": 192,
          "midi": 52,
          "name": "E3",
          "ticks": 480,
          "time": 0.6880725,
          "velocity": 0.7795275590551181
        },
        {
          "duration": 0.13761449999999997,
          "durationTicks": 96,
          "midi": 55,
          "name": "G3",
          "ticks": 672,
          "time": 0.9633015,
          "velocity": 0.7795275590551181
        },
        {
          "duration": 0.13761449999999997,
          "durationTicks": 96,
          "midi": 59,
          "name": "B3",
          "ticks": 672,
          "time": 0.9633015,
          "velocity": 0.7795275590551181
        },
        {
          "duration": 0.13761449999999997,
          "durationTicks": 96,
          "midi": 71,
          "name": "B4",
          "ticks": 816,
          "time": 1.16972325,
          "velocity": 0.7795275590551181
        },
        {
          "duration": 0.13761449999999997,
          "durationTicks": 96,
          "midi": 69,
          "name": "A4",
          "ticks": 864,
          "time": 1.2385305,
          "velocity": 0.7795275590551181
        },
        {
          "duration": 0.13761449999999997,
          "durationTicks": 96,
          "midi": 67,
          "name": "G4",
          "ticks": 1008,
          "time": 1.44495225,
          "velocity": 0.7795275590551181
        },
        {
          "duration": 0.1376145000000002,
          "durationTicks": 96,
          "midi": 55,
          "name": "G3",
          "ticks": 1056,
          "time": 1.5137595,
          "velocity": 0.7795275590551181
        },
        {
          "duration": 0.1376145000000002,
          "durationTicks": 96,
          "midi": 64,
          "name": "E4",
          "ticks": 1056,
          "time": 1.5137595,
          "velocity": 0.7795275590551181
        },
        {
          "duration": 0.1376145000000002,
          "durationTicks": 96,
          "midi": 59,
          "name": "B3",
          "ticks": 1056,
          "time": 1.5137595,
          "velocity": 0.7795275590551181
        },
        {
          "duration": 0.13761449999999997,
          "durationTicks": 96,
          "midi": 62,
          "name": "D4",
          "ticks": 1200,
          "time": 1.72018125,
          "velocity": 0.7795275590551181
        },
        {
          "duration": 0.2752289999999997,
          "durationTicks": 192,
          "midi": 64,
          "name": "E4",
          "ticks": 1248,
          "time": 1.7889885,
          "velocity": 0.7795275590551181
        },
        {
          "duration": 0.2752289999999997,
          "durationTicks": 192,
          "midi": 48,
          "name": "C3",
          "ticks": 1248,
          "time": 1.7889885,
          "velocity": 0.7795275590551181
        },
        {
          "duration": 0.1376145000000002,
          "durationTicks": 96,
          "midi": 52,
          "name": "E3",
          "ticks": 1440,
          "time": 2.0642175,
          "velocity": 0.7795275590551181
        },
        {
          "duration": 0.1376145000000002,
          "durationTicks": 96,
          "midi": 55,
          "name": "G3",
          "ticks": 1440,
          "time": 2.0642175,
          "velocity": 0.7795275590551181
        },
        {
          "duration": 0.1376145000000002,
          "durationTicks": 96,
          "midi": 71,
          "name": "B4",
          "ticks": 1584,
          "time": 2.27063925,
          "velocity": 0.7795275590551181
        },
        {
          "duration": 0.13761449999999975,
          "durationTicks": 96,
          "midi": 69,
          "name": "A4",
          "ticks": 1632,
          "time": 2.3394465,
          "velocity": 0.7795275590551181
        },
        {
          "duration": 0.1376145000000002,
          "durationTicks": 96,
          "midi": 67,
          "name": "G4",
          "ticks": 1776,
          "time": 2.54586825,
          "velocity": 0.7795275590551181
        },
        {
          "duration": 0.13761449999999975,
          "durationTicks": 96,
          "midi": 55,
          "name": "G3",
          "ticks": 1824,
          "time": 2.6146755,
          "velocity": 0.7795275590551181
        },
        {
          "duration": 0.13761449999999975,
          "durationTicks": 96,
          "midi": 52,
          "name": "E3",
          "ticks": 1824,
          "time": 2.6146755,
          "velocity": 0.7795275590551181
        },
        {
          "duration": 0.13761449999999975,
          "durationTicks": 96,
          "midi": 64,
          "name": "E4",
          "ticks": 1824,
          "time": 2.6146755,
          "velocity": 0.7795275590551181
        },
        {
          "duration": 0.13761449999999975,
          "durationTicks": 96,
          "midi": 62,
          "name": "D4",
          "ticks": 1968,
          "time": 2.8210972500000002,
          "velocity": 0.7795275590551181
        },
        {
          "duration": 0.13761449999999975,
          "durationTicks": 96,
          "midi": 64,
          "name": "E4",
          "ticks": 2016,
          "time": 2.8899045,
          "velocity": 0.7795275590551181
        },
        {
          "duration": 0.27522899999999995,
          "durationTicks": 192,
          "midi": 50,
          "name": "D3",
          "ticks": 2016,
          "time": 2.8899045,
          "velocity": 0.7795275590551181
        },
        {
          "duration": 0.1376145000000002,
          "durationTicks": 96,
          "midi": 54,
          "name": "F#3",
          "ticks": 2208,
          "time": 3.1651335,
          "velocity": 0.7795275590551181
        },
        {
          "duration": 0.1376145000000002,
          "durationTicks": 96,
          "midi": 57,
          "name": "A3",
          "ticks": 2208,
          "time": 3.1651335,
          "velocity": 0.7795275590551181
        },
        {
          "duration": 0.1376145000000002,
          "durationTicks": 96,
          "midi": 67,
          "name": "G4",
          "ticks": 2208,
          "time": 3.1651335,
          "velocity": 0.7795275590551181
        },
        {
          "duration": 0.1376145000000002,
          "durationTicks": 96,
          "midi": 69,
          "name": "A4",
          "ticks": 2400,
          "time": 3.4403625,
          "velocity": 0.7795275590551181
        },
        {
          "duration": 0.1376145000000002,
          "durationTicks": 96,
          "midi": 54,
          "name": "F#3",
          "ticks": 2592,
          "time": 3.7155915,
          "velocity": 0.7795275590551181
        },
        {
          "duration": 0.1376145000000002,
          "durationTicks": 96,
          "midi": 57,
          "name": "A3",
          "ticks": 2592,
          "time": 3.7155915,
          "velocity": 0.7795275590551181
        },
        {
          "duration": 0.1376145000000002,
          "durationTicks": 96,
          "midi": 71,
          "name": "B4",
          "ticks": 2592,
          "time": 3.7155915,
          "velocity": 0.7795275590551181
        },
        {
          "duration": 0.2752290000000004,
          "durationTicks": 192,
          "midi": 69,
          "name": "A4",
          "ticks": 2784,
          "time": 3.9908205,
          "velocity": 0.7795275590551181
        },
        {
          "duration": 0.2752290000000004,
          "durationTicks": 192,
          "midi": 45,
          "name": "A2",
          "ticks": 2784,
          "time": 3.9908205,
          "velocity": 0.7795275590551181
        },
        {
          "duration": 0.13761449999999975,
          "durationTicks": 96,
          "midi": 52,
          "name": "E3",
          "ticks": 2976,
          "time": 4.2660495,
          "velocity": 0.7795275590551181
        },
        {
          "duration": 0.13761449999999975,
          "durationTicks": 96,
          "midi": 49,
          "name": "C#3",
          "ticks": 2976,
          "time": 4.2660495,
          "velocity": 0.7795275590551181
        },
        {
          "duration": 0.13761449999999975,
          "durationTicks": 96,
          "midi": 71,
          "name": "B4",
          "ticks": 3120,
          "time": 4.47247125,
          "velocity": 0.7795275590551181
        },
        {
          "duration": 0.13761450000000064,
          "durationTicks": 96,
          "midi": 69,
          "name": "A4",
          "ticks": 3168,
          "time": 4.5412785,
          "velocity": 0.7795275590551181
        },
        {
          "duration": 0.13761449999999975,
          "durationTicks": 96,
          "midi": 67,
          "name": "G4",
          "ticks": 3312,
          "time": 4.74770025,
          "velocity": 0.7795275590551181
        },
        {
          "duration": 0.13761449999999975,
          "durationTicks": 96,
          "midi": 52,
          "name": "E3",
          "ticks": 3360,
          "time": 4.8165075,
          "velocity": 0.7795275590551181
        },
        {
          "duration": 0.13761449999999975,
          "durationTicks": 96,
          "midi": 49,
          "name": "C#3",
          "ticks": 3360,
          "time": 4.8165075,
          "velocity": 0.7795275590551181
        },
        {
          "duration": 0.13761449999999975,
          "durationTicks": 96,
          "midi": 64,
          "name": "E4",
          "ticks": 3360,
          "time": 4.8165075,
          "velocity": 0.7795275590551181
        },
        {
          "duration": 0.13761450000000064,
          "durationTicks": 96,
          "midi": 62,
          "name": "D4",
          "ticks": 3504,
          "time": 5.02292925,
          "velocity": 0.7795275590551181
        },
        {
          "duration": 0.2752290000000004,
          "durationTicks": 192,
          "midi": 64,
          "name": "E4",
          "ticks": 3552,
          "time": 5.0917365,
          "velocity": 0.7795275590551181
        },
        {
          "duration": 0.2752290000000004,
          "durationTicks": 192,
          "midi": 52,
          "name": "E3",
          "ticks": 3552,
          "time": 5.0917365,
          "velocity": 0.7795275590551181
        },
        {
          "duration": 0.13761449999999975,
          "durationTicks": 96,
          "midi": 55,
          "name": "G3",
          "ticks": 3744,
          "time": 5.3669655,
          "velocity": 0.7795275590551181
        },
        {
          "duration": 0.13761449999999975,
          "durationTicks": 96,
          "midi": 59,
          "name": "B3",
          "ticks": 3744,
          "time": 5.3669655,
          "velocity": 0.7795275590551181
        },
        {
          "duration": 0.13761450000000064,
          "durationTicks": 96,
          "midi": 71,
          "name": "B4",
          "ticks": 3888,
          "time": 5.57338725,
          "velocity": 0.7795275590551181
        },
        {
          "duration": 0.13761449999999975,
          "durationTicks": 96,
          "midi": 69,
          "name": "A4",
          "ticks": 3936,
          "time": 5.6421945000000004,
          "velocity": 0.7795275590551181
        },
        {
          "duration": 0.13761449999999975,
          "durationTicks": 96,
          "midi": 67,
          "name": "G4",
          "ticks": 4080,
          "time": 5.84861625,
          "velocity": 0.7795275590551181
        },
        {
          "duration": 0.13761449999999975,
          "durationTicks": 96,
          "midi": 55,
          "name": "G3",
          "ticks": 4128,
          "time": 5.9174235,
          "velocity": 0.7795275590551181
        },
        {
          "duration": 0.13761449999999975,
          "durationTicks": 96,
          "midi": 59,
          "name": "B3",
          "ticks": 4128,
          "time": 5.9174235,
          "velocity": 0.7795275590551181
        },
        {
          "duration": 0.13761449999999975,
          "durationTicks": 96,
          "midi": 64,
          "name": "E4",
          "ticks": 4128,
          "time": 5.9174235,
          "velocity": 0.7795275590551181
        },
        {
          "duration": 0.13761449999999975,
          "durationTicks": 96,
          "midi": 62,
          "name": "D4",
          "ticks": 4272,
          "time": 6.1238452500000005,
          "velocity": 0.7795275590551181
        },
        {
          "duration": 0.2752289999999995,
          "durationTicks": 192,
          "midi": 64,
          "name": "E4",
          "ticks": 4320,
          "time": 6.1926525,
          "velocity": 0.7795275590551181
        },
        {
          "duration": 0.2752289999999995,
          "durationTicks": 192,
          "midi": 48,
          "name": "C3",
          "ticks": 4320,
          "time": 6.1926525,
          "velocity": 0.7795275590551181
        },
        {
          "duration": 0.13761450000000064,
          "durationTicks": 96,
          "midi": 52,
          "name": "E3",
          "ticks": 4512,
          "time": 6.4678815,
          "velocity": 0.7795275590551181
        },
        {
          "duration": 0.13761450000000064,
          "durationTicks": 96,
          "midi": 55,
          "name": "G3",
          "ticks": 4512,
          "time": 6.4678815,
          "velocity": 0.7795275590551181
        },
        {
          "duration": 0.13761449999999975,
          "durationTicks": 96,
          "midi": 64,
          "name": "E4",
          "ticks": 4656,
          "time": 6.67430325,
          "velocity": 0.7795275590551181
        },
        {
          "duration": 0.13761449999999975,
          "durationTicks": 96,
          "midi": 67,
          "name": "G4",
          "ticks": 4704,
          "time": 6.7431105,
          "velocity": 0.7795275590551181
        },
        {
          "duration": 0.13761449999999975,
          "durationTicks": 96,
          "midi": 69,
          "name": "A4",
          "ticks": 4848,
          "time": 6.94953225,
          "velocity": 0.7795275590551181
        },
        {
          "duration": 0.13761450000000064,
          "durationTicks": 96,
          "midi": 52,
          "name": "E3",
          "ticks": 4896,
          "time": 7.0183395,
          "velocity": 0.7795275590551181
        },
        {
          "duration": 0.13761450000000064,
          "durationTicks": 96,
          "midi": 55,
          "name": "G3",
          "ticks": 4896,
          "time": 7.0183395,
          "velocity": 0.7795275590551181
        },
        {
          "duration": 0.13761450000000064,
          "durationTicks": 96,
          "midi": 71,
          "name": "B4",
          "ticks": 4896,
          "time": 7.0183395,
          "velocity": 0.7795275590551181
        },
        {
          "duration": 0.13761449999999975,
          "durationTicks": 96,
          "midi": 74,
          "name": "D5",
          "ticks": 5040,
          "time": 7.22476125,
          "velocity": 0.7795275590551181
        },
        {
          "duration": 0.2752289999999995,
          "durationTicks": 192,
          "midi": 50,
          "name": "D3",
          "ticks": 5088,
          "time": 7.2935685,
          "velocity": 0.7795275590551181
        },
        {
          "duration": 0.2752289999999995,
          "durationTicks": 192,
          "midi": 76,
          "name": "E5",
          "ticks": 5088,
          "time": 7.2935685,
          "velocity": 0.7795275590551181
        },
        {
          "duration": 0.13761450000000064,
          "durationTicks": 96,
          "midi": 57,
          "name": "A3",
          "ticks": 5280,
          "time": 7.5687975,
          "velocity": 0.7795275590551181
        },
        {
          "duration": 0.13761450000000064,
          "durationTicks": 96,
          "midi": 54,
          "name": "F#3",
          "ticks": 5280,
          "time": 7.5687975,
          "velocity": 0.7795275590551181
        },
        {
          "duration": 0.13761450000000064,
          "durationTicks": 96,
          "midi": 74,
          "name": "D5",
          "ticks": 5280,
          "time": 7.5687975,
          "velocity": 0.7795275590551181
        },
        {
          "duration": 0.2752289999999995,
          "durationTicks": 192,
          "midi": 76,
          "name": "E5",
          "ticks": 5472,
          "time": 7.8440265,
          "velocity": 0.7795275590551181
        },
        {
          "duration": 0.13761449999999975,
          "durationTicks": 96,
          "midi": 54,
          "name": "F#3",
          "ticks": 5664,
          "time": 8.1192555,
          "velocity": 0.7795275590551181
        },
        {
          "duration": 0.13761449999999975,
          "durationTicks": 96,
          "midi": 57,
          "name": "A3",
          "ticks": 5664,
          "time": 8.1192555,
          "velocity": 0.7795275590551181
        },
        {
          "duration": 0.13761449999999975,
          "durationTicks": 96,
          "midi": 79,
          "name": "G5",
          "ticks": 5664,
          "time": 8.1192555,
          "velocity": 0.7795275590551181
        },
        {
          "duration": 0.2752289999999995,
          "durationTicks": 192,
          "midi": 81,
          "name": "A5",
          "ticks": 5856,
          "time": 8.3944845,
          "velocity": 0.7795275590551181
        },
        {
          "duration": 0.2752289999999995,
          "durationTicks": 192,
          "midi": 45,
          "name": "A2",
          "ticks": 5856,
          "time": 8.3944845,
          "velocity": 0.7795275590551181
        },
        {
          "duration": 0.13761449999999975,
          "durationTicks": 96,
          "midi": 49,
          "name": "C#3",
          "ticks": 6048,
          "time": 8.6697135,
          "velocity": 0.7795275590551181
        },
        {
          "duration": 0.13761449999999975,
          "durationTicks": 96,
          "midi": 52,
          "name": "E3",
          "ticks": 6048,
          "time": 8.6697135,
          "velocity": 0.7795275590551181
        },
        {
          "duration": 0.13761449999999975,
          "durationTicks": 96,
          "midi": 83,
          "name": "B5",
          "ticks": 6192,
          "time": 8.87613525,
          "velocity": 0.7795275590551181
        },
        {
          "duration": 0.13761449999999975,
          "durationTicks": 96,
          "midi": 81,
          "name": "A5",
          "ticks": 6240,
          "time": 8.9449425,
          "velocity": 0.7795275590551181
        },
        {
          "duration": 0.13761449999999975,
          "durationTicks": 96,
          "midi": 79,
          "name": "G5",
          "ticks": 6384,
          "time": 9.15136425,
          "velocity": 0.7795275590551181
        },
        {
          "duration": 0.13761450000000153,
          "durationTicks": 96,
          "midi": 49,
          "name": "C#3",
          "ticks": 6432,
          "time": 9.2201715,
          "velocity": 0.7795275590551181
        },
        {
          "duration": 0.13761450000000153,
          "durationTicks": 96,
          "midi": 52,
          "name": "E3",
          "ticks": 6432,
          "time": 9.2201715,
          "velocity": 0.7795275590551181
        },
        {
          "duration": 0.13761450000000153,
          "durationTicks": 96,
          "midi": 76,
          "name": "E5",
          "ticks": 6432,
          "time": 9.2201715,
          "velocity": 0.7795275590551181
        },
        {
          "duration": 0.13761449999999975,
          "durationTicks": 96,
          "midi": 74,
          "name": "D5",
          "ticks": 6576,
          "time": 9.42659325,
          "velocity": 0.7795275590551181
        },
        {
          "duration": 0.2752289999999995,
          "durationTicks": 192,
          "midi": 76,
          "name": "E5",
          "ticks": 6624,
          "time": 9.4954005,
          "velocity": 0.7795275590551181
        },
        {
          "duration": 0.2752289999999995,
          "durationTicks": 192,
          "midi": 52,
          "name": "E3",
          "ticks": 6624,
          "time": 9.4954005,
          "velocity": 0.7795275590551181
        },
        {
          "duration": 0.13761449999999975,
          "durationTicks": 96,
          "midi": 55,
          "name": "G3",
          "ticks": 6816,
          "time": 9.7706295,
          "velocity": 0.7795275590551181
        },
        {
          "duration": 0.13761449999999975,
          "durationTicks": 96,
          "midi": 59,
          "name": "B3",
          "ticks": 6816,
          "time": 9.7706295,
          "velocity": 0.7795275590551181
        },
        {
          "duration": 0.13761449999999975,
          "durationTicks": 96,
          "midi": 83,
          "name": "B5",
          "ticks": 6960,
          "time": 9.97705125,
          "velocity": 0.7795275590551181
        },
        {
          "duration": 0.13761449999999975,
          "durationTicks": 96,
          "midi": 81,
          "name": "A5",
          "ticks": 7008,
          "time": 10.0458585,
          "velocity": 0.7795275590551181
        },
        {
          "duration": 0.13761449999999975,
          "durationTicks": 96,
          "midi": 79,
          "name": "G5",
          "ticks": 7152,
          "time": 10.25228025,
          "velocity": 0.7795275590551181
        },
        {
          "duration": 0.13761449999999975,
          "durationTicks": 96,
          "midi": 55,
          "name": "G3",
          "ticks": 7200,
          "time": 10.3210875,
          "velocity": 0.7795275590551181
        },
        {
          "duration": 0.13761449999999975,
          "durationTicks": 96,
          "midi": 76,
          "name": "E5",
          "ticks": 7200,
          "time": 10.3210875,
          "velocity": 0.7795275590551181
        },
        {
          "duration": 0.13761449999999975,
          "durationTicks": 96,
          "midi": 59,
          "name": "B3",
          "ticks": 7200,
          "time": 10.3210875,
          "velocity": 0.7795275590551181
        },
        {
          "duration": 0.13761449999999975,
          "durationTicks": 96,
          "midi": 74,
          "name": "D5",
          "ticks": 7344,
          "time": 10.52750925,
          "velocity": 0.7795275590551181
        },
        {
          "duration": 0.2752289999999995,
          "durationTicks": 192,
          "midi": 76,
          "name": "E5",
          "ticks": 7392,
          "time": 10.5963165,
          "velocity": 0.7795275590551181
        },
        {
          "duration": 0.2752289999999995,
          "durationTicks": 192,
          "midi": 48,
          "name": "C3",
          "ticks": 7392,
          "time": 10.5963165,
          "velocity": 0.7795275590551181
        },
        {
          "duration": 0.13761449999999975,
          "durationTicks": 96,
          "midi": 52,
          "name": "E3",
          "ticks": 7584,
          "time": 10.8715455,
          "velocity": 0.7795275590551181
        },
        {
          "duration": 0.13761449999999975,
          "durationTicks": 96,
          "midi": 55,
          "name": "G3",
          "ticks": 7584,
          "time": 10.8715455,
          "velocity": 0.7795275590551181
        },
        {
          "duration": 0.13761449999999975,
          "durationTicks": 96,
          "midi": 83,
          "name": "B5",
          "ticks": 7728,
          "time": 11.07796725,
          "velocity": 0.7795275590551181
        },
        {
          "duration": 0.13761450000000153,
          "durationTicks": 96,
          "midi": 81,
          "name": "A5",
          "ticks": 7776,
          "time": 11.1467745,
          "velocity": 0.7795275590551181
        },
        {
          "duration": 0.13761449999999975,
          "durationTicks": 96,
          "midi": 79,
          "name": "G5",
          "ticks": 7920,
          "time": 11.35319625,
          "velocity": 0.7795275590551181
        },
        {
          "duration": 0.13761449999999975,
          "durationTicks": 96,
          "midi": 55,
          "name": "G3",
          "ticks": 7968,
          "time": 11.4220035,
          "velocity": 0.7795275590551181
        },
        {
          "duration": 0.13761449999999975,
          "durationTicks": 96,
          "midi": 52,
          "name": "E3",
          "ticks": 7968,
          "time": 11.4220035,
          "velocity": 0.7795275590551181
        },
        {
          "duration": 0.13761449999999975,
          "durationTicks": 96,
          "midi": 76,
          "name": "E5",
          "ticks": 7968,
          "time": 11.4220035,
          "velocity": 0.7795275590551181
        },
        {
          "duration": 0.13761450000000153,
          "durationTicks": 96,
          "midi": 74,
          "name": "D5",
          "ticks": 8112,
          "time": 11.62842525,
          "velocity": 0.7795275590551181
        },
        {
          "duration": 0.13761449999999975,
          "durationTicks": 96,
          "midi": 76,
          "name": "E5",
          "ticks": 8160,
          "time": 11.6972325,
          "velocity": 0.7795275590551181
        },
        {
          "duration": 0.2752289999999995,
          "durationTicks": 192,
          "midi": 50,
          "name": "D3",
          "ticks": 8160,
          "time": 11.6972325,
          "velocity": 0.7795275590551181
        },
        {
          "duration": 0.13761449999999975,
          "durationTicks": 96,
          "midi": 57,
          "name": "A3",
          "ticks": 8352,
          "time": 11.9724615,
          "velocity": 0.7795275590551181
        },
        {
          "duration": 0.13761449999999975,
          "durationTicks": 96,
          "midi": 54,
          "name": "F#3",
          "ticks": 8352,
          "time": 11.9724615,
          "velocity": 0.7795275590551181
        },
        {
          "duration": 0.13761449999999975,
          "durationTicks": 96,
          "midi": 79,
          "name": "G5",
          "ticks": 8352,
          "time": 11.9724615,
          "velocity": 0.7795275590551181
        },
        {
          "duration": 0.13761449999999975,
          "durationTicks": 96,
          "midi": 81,
          "name": "A5",
          "ticks": 8544,
          "time": 12.247690500000001,
          "velocity": 0.7795275590551181
        },
        {
          "duration": 0.13761449999999975,
          "durationTicks": 96,
          "midi": 57,
          "name": "A3",
          "ticks": 8736,
          "time": 12.5229195,
          "velocity": 0.7795275590551181
        },
        {
          "duration": 0.13761449999999975,
          "durationTicks": 96,
          "midi": 54,
          "name": "F#3",
          "ticks": 8736,
          "time": 12.5229195,
          "velocity": 0.7795275590551181
        },
        {
          "duration": 0.13761449999999975,
          "durationTicks": 96,
          "midi": 83,
          "name": "B5",
          "ticks": 8736,
          "time": 12.5229195,
          "velocity": 0.7795275590551181
        },
        {
          "duration": 0.2752289999999995,
          "durationTicks": 192,
          "midi": 81,
          "name": "A5",
          "ticks": 8928,
          "time": 12.7981485,
          "velocity": 0.7795275590551181
        },
        {
          "duration": 0.2752289999999995,
          "durationTicks": 192,
          "midi": 45,
          "name": "A2",
          "ticks": 8928,
          "time": 12.7981485,
          "velocity": 0.7795275590551181
        },
        {
          "duration": 0.13761450000000153,
          "durationTicks": 96,
          "midi": 52,
          "name": "E3",
          "ticks": 9120,
          "time": 13.0733775,
          "velocity": 0.7795275590551181
        },
        {
          "duration": 0.13761450000000153,
          "durationTicks": 96,
          "midi": 49,
          "name": "C#3",
          "ticks": 9120,
          "time": 13.0733775,
          "velocity": 0.7795275590551181
        },
        {
          "duration": 0.13761449999999975,
          "durationTicks": 96,
          "midi": 83,
          "name": "B5",
          "ticks": 9264,
          "time": 13.27979925,
          "velocity": 0.7795275590551181
        },
        {
          "duration": 0.13761449999999975,
          "durationTicks": 96,
          "midi": 81,
          "name": "A5",
          "ticks": 9312,
          "time": 13.3486065,
          "velocity": 0.7795275590551181
        },
        {
          "duration": 0.13761449999999975,
          "durationTicks": 96,
          "midi": 79,
          "name": "G5",
          "ticks": 9456,
          "time": 13.55502825,
          "velocity": 0.7795275590551181
        },
        {
          "duration": 0.13761449999999975,
          "durationTicks": 96,
          "midi": 49,
          "name": "C#3",
          "ticks": 9504,
          "time": 13.6238355,
          "velocity": 0.7795275590551181
        },
        {
          "duration": 0.13761449999999975,
          "durationTicks": 96,
          "midi": 52,
          "name": "E3",
          "ticks": 9504,
          "time": 13.6238355,
          "velocity": 0.7795275590551181
        },
        {
          "duration": 0.13761449999999975,
          "durationTicks": 96,
          "midi": 76,
          "name": "E5",
          "ticks": 9504,
          "time": 13.6238355,
          "velocity": 0.7795275590551181
        },
        {
          "duration": 0.13761449999999975,
          "durationTicks": 96,
          "midi": 74,
          "name": "D5",
          "ticks": 9648,
          "time": 13.83025725,
          "velocity": 0.7795275590551181
        },
        {
          "duration": 0.2752289999999995,
          "durationTicks": 192,
          "midi": 76,
          "name": "E5",
          "ticks": 9696,
          "time": 13.8990645,
          "velocity": 0.7795275590551181
        },
        {
          "duration": 0.2752289999999995,
          "durationTicks": 192,
          "midi": 52,
          "name": "E3",
          "ticks": 9696,
          "time": 13.8990645,
          "velocity": 0.7795275590551181
        },
        {
          "duration": 0.13761450000000153,
          "durationTicks": 96,
          "midi": 55,
          "name": "G3",
          "ticks": 9888,
          "time": 14.1742935,
          "velocity": 0.7795275590551181
        },
        {
          "duration": 0.13761450000000153,
          "durationTicks": 96,
          "midi": 59,
          "name": "B3",
          "ticks": 9888,
          "time": 14.1742935,
          "velocity": 0.7795275590551181
        },
        {
          "duration": 0.13761449999999975,
          "durationTicks": 96,
          "midi": 83,
          "name": "B5",
          "ticks": 10032,
          "time": 14.38071525,
          "velocity": 0.7795275590551181
        },
        {
          "duration": 0.13761449999999975,
          "durationTicks": 96,
          "midi": 81,
          "name": "A5",
          "ticks": 10080,
          "time": 14.4495225,
          "velocity": 0.7795275590551181
        },
        {
          "duration": 0.13761450000000153,
          "durationTicks": 96,
          "midi": 79,
          "name": "G5",
          "ticks": 10224,
          "time": 14.65594425,
          "velocity": 0.7795275590551181
        },
        {
          "duration": 0.13761449999999975,
          "durationTicks": 96,
          "midi": 55,
          "name": "G3",
          "ticks": 10272,
          "time": 14.7247515,
          "velocity": 0.7795275590551181
        },
        {
          "duration": 0.13761449999999975,
          "durationTicks": 96,
          "midi": 59,
          "name": "B3",
          "ticks": 10272,
          "time": 14.7247515,
          "velocity": 0.7795275590551181
        },
        {
          "duration": 0.13761449999999975,
          "durationTicks": 96,
          "midi": 76,
          "name": "E5",
          "ticks": 10272,
          "time": 14.7247515,
          "velocity": 0.7795275590551181
        },
        {
          "duration": 0.13761449999999975,
          "durationTicks": 96,
          "midi": 74,
          "name": "D5",
          "ticks": 10416,
          "time": 14.93117325,
          "velocity": 0.7795275590551181
        },
        {
          "duration": 0.2752290000000013,
          "durationTicks": 192,
          "midi": 76,
          "name": "E5",
          "ticks": 10464,
          "time": 14.9999805,
          "velocity": 0.7795275590551181
        },
        {
          "duration": 0.2752290000000013,
          "durationTicks": 192,
          "midi": 48,
          "name": "C3",
          "ticks": 10464,
          "time": 14.9999805,
          "velocity": 0.7795275590551181
        },
        {
          "duration": 0.13761449999999975,
          "durationTicks": 96,
          "midi": 52,
          "name": "E3",
          "ticks": 10656,
          "time": 15.2752095,
          "velocity": 0.7795275590551181
        },
        {
          "duration": 0.13761449999999975,
          "durationTicks": 96,
          "midi": 55,
          "name": "G3",
          "ticks": 10656,
          "time": 15.2752095,
          "velocity": 0.7795275590551181
        },
        {
          "duration": 0.13761449999999975,
          "durationTicks": 96,
          "midi": 76,
          "name": "E5",
          "ticks": 10800,
          "time": 15.48163125,
          "velocity": 0.7795275590551181
        },
        {
          "duration": 0.13761449999999975,
          "durationTicks": 96,
          "midi": 79,
          "name": "G5",
          "ticks": 10848,
          "time": 15.5504385,
          "velocity": 0.7795275590551181
        },
        {
          "duration": 0.13761449999999975,
          "durationTicks": 96,
          "midi": 81,
          "name": "A5",
          "ticks": 10992,
          "time": 15.75686025,
          "velocity": 0.7795275590551181
        },
        {
          "duration": 0.13761449999999975,
          "durationTicks": 96,
          "midi": 55,
          "name": "G3",
          "ticks": 11040,
          "time": 15.8256675,
          "velocity": 0.7795275590551181
        },
        {
          "duration": 0.13761449999999975,
          "durationTicks": 96,
          "midi": 52,
          "name": "E3",
          "ticks": 11040,
          "time": 15.8256675,
          "velocity": 0.7795275590551181
        },
        {
          "duration": 0.13761449999999975,
          "durationTicks": 96,
          "midi": 83,
          "name": "B5",
          "ticks": 11040,
          "time": 15.8256675,
          "velocity": 0.7795275590551181
        },
        {
          "duration": 0.13761450000000153,
          "durationTicks": 96,
          "midi": 86,
          "name": "D6",
          "ticks": 11184,
          "time": 16.03208925,
          "velocity": 0.7795275590551181
        },
        {
          "duration": 0.2752289999999995,
          "durationTicks": 192,
          "midi": 50,
          "name": "D3",
          "ticks": 11232,
          "time": 16.1008965,
          "velocity": 0.7795275590551181
        },
        {
          "duration": 0.2752289999999995,
          "durationTicks": 192,
          "midi": 88,
          "name": "E6",
          "ticks": 11232,
          "time": 16.1008965,
          "velocity": 0.7795275590551181
        },
        {
          "duration": 0.13761449999999797,
          "durationTicks": 96,
          "midi": 54,
          "name": "F#3",
          "ticks": 11424,
          "time": 16.3761255,
          "velocity": 0.7795275590551181
        },
        {
          "duration": 0.13761449999999797,
          "durationTicks": 96,
          "midi": 57,
          "name": "A3",
          "ticks": 11424,
          "time": 16.3761255,
          "velocity": 0.7795275590551181
        },
        {
          "duration": 0.13761449999999797,
          "durationTicks": 96,
          "midi": 86,
          "name": "D6",
          "ticks": 11424,
          "time": 16.3761255,
          "velocity": 0.7795275590551181
        },
        {
          "duration": 0.2752289999999995,
          "durationTicks": 192,
          "midi": 88,
          "name": "E6",
          "ticks": 11616,
          "time": 16.6513545,
          "velocity": 0.7795275590551181
        },
        {
          "duration": 0.13761450000000153,
          "durationTicks": 96,
          "midi": 54,
          "name": "F#3",
          "ticks": 11808,
          "time": 16.9265835,
          "velocity": 0.7795275590551181
        },
        {
          "duration": 0.13761450000000153,
          "durationTicks": 96,
          "midi": 57,
          "name": "A3",
          "ticks": 11808,
          "time": 16.9265835,
          "velocity": 0.7795275590551181
        },
        {
          "duration": 0.13761450000000153,
          "durationTicks": 96,
          "midi": 91,
          "name": "G6",
          "ticks": 11808,
          "time": 16.9265835,
          "velocity": 0.7795275590551181
        },
        {
          "duration": 0.2752289999999995,
          "durationTicks": 192,
          "midi": 45,
          "name": "A2",
          "ticks": 12000,
          "time": 17.2018125,
          "velocity": 0.7795275590551181
        },
        {
          "duration": 0.2752289999999995,
          "durationTicks": 192,
          "midi": 93,
          "name": "A6",
          "ticks": 12000,
          "time": 17.2018125,
          "velocity": 0.7795275590551181
        },
        {
          "duration": 0.13761450000000153,
          "durationTicks": 96,
          "midi": 49,
          "name": "C#3",
          "ticks": 12192,
          "time": 17.4770415,
          "velocity": 0.7795275590551181
        },
        {
          "duration": 0.13761450000000153,
          "durationTicks": 96,
          "midi": 52,
          "name": "E3",
          "ticks": 12192,
          "time": 17.4770415,
          "velocity": 0.7795275590551181
        },
        {
          "duration": 0.13761449999999797,
          "durationTicks": 96,
          "midi": 52,
          "name": "E3",
          "ticks": 12576,
          "time": 18.0274995,
          "velocity": 0.7795275590551181
        },
        {
          "duration": 0.13761449999999797,
          "durationTicks": 96,
          "midi": 49,
          "name": "C#3",
          "ticks": 12576,
          "time": 18.0274995,
          "velocity": 0.7795275590551181
        },
        {
          "duration": 0.13761449999999797,
          "durationTicks": 96,
          "midi": 64,
          "name": "E4",
          "ticks": 12768,
          "time": 18.3027285,
          "velocity": 0.7795275590551181
        },
        {
          "duration": 0.2752289999999995,
          "durationTicks": 192,
          "midi": 48,
          "name": "C3",
          "ticks": 12768,
          "time": 18.3027285,
          "velocity": 0.7795275590551181
        },
        {
          "duration": 0.13761450000000153,
          "durationTicks": 96,
          "midi": 55,
          "name": "G3",
          "ticks": 12960,
          "time": 18.5779575,
          "velocity": 0.7795275590551181
        },
        {
          "duration": 0.13761450000000153,
          "durationTicks": 96,
          "midi": 52,
          "name": "E3",
          "ticks": 12960,
          "time": 18.5779575,
          "velocity": 0.7795275590551181
        },
        {
          "duration": 0.13761450000000153,
          "durationTicks": 96,
          "midi": 64,
          "name": "E4",
          "ticks": 12960,
          "time": 18.5779575,
          "velocity": 0.7795275590551181
        },
        {
          "duration": 0.13761450000000153,
          "durationTicks": 96,
          "midi": 64,
          "name": "E4",
          "ticks": 13152,
          "time": 18.8531865,
          "velocity": 0.7795275590551181
        },
        {
          "duration": 0.13761450000000153,
          "durationTicks": 96,
          "midi": 55,
          "name": "G3",
          "ticks": 13344,
          "time": 19.1284155,
          "velocity": 0.7795275590551181
        },
        {
          "duration": 0.13761450000000153,
          "durationTicks": 96,
          "midi": 52,
          "name": "E3",
          "ticks": 13344,
          "time": 19.1284155,
          "velocity": 0.7795275590551181
        },
        {
          "duration": 0.13761450000000153,
          "durationTicks": 96,
          "midi": 64,
          "name": "E4",
          "ticks": 13344,
          "time": 19.1284155,
          "velocity": 0.7795275590551181
        },
        {
          "duration": 0.13761450000000153,
          "durationTicks": 96,
          "midi": 62,
          "name": "D4",
          "ticks": 13488,
          "time": 19.33483725,
          "velocity": 0.7795275590551181
        },
        {
          "duration": 0.13761450000000153,
          "durationTicks": 96,
          "midi": 64,
          "name": "E4",
          "ticks": 13536,
          "time": 19.4036445,
          "velocity": 0.7795275590551181
        },
        {
          "duration": 0.27522900000000305,
          "durationTicks": 192,
          "midi": 48,
          "name": "C3",
          "ticks": 13536,
          "time": 19.4036445,
          "velocity": 0.7795275590551181
        },
        {
          "duration": 0.13761450000000153,
          "durationTicks": 96,
          "midi": 67,
          "name": "G4",
          "ticks": 13680,
          "time": 19.61006625,
          "velocity": 0.7795275590551181
        },
        {
          "duration": 0.13761449999999797,
          "durationTicks": 96,
          "midi": 52,
          "name": "E3",
          "ticks": 13728,
          "time": 19.6788735,
          "velocity": 0.7795275590551181
        },
        {
          "duration": 0.13761449999999797,
          "durationTicks": 96,
          "midi": 55,
          "name": "G3",
          "ticks": 13728,
          "time": 19.6788735,
          "velocity": 0.7795275590551181
        },
        {
          "duration": 0.2752289999999995,
          "durationTicks": 192,
          "midi": 64,
          "name": "E4",
          "ticks": 13728,
          "time": 19.6788735,
          "velocity": 0.7795275590551181
        },
        {
          "duration": 0.2752289999999995,
          "durationTicks": 192,
          "midi": 62,
          "name": "D4",
          "ticks": 13920,
          "time": 19.9541025,
          "velocity": 0.7795275590551181
        },
        {
          "duration": 0.13761449999999797,
          "durationTicks": 96,
          "midi": 52,
          "name": "E3",
          "ticks": 14112,
          "time": 20.2293315,
          "velocity": 0.7795275590551181
        },
        {
          "duration": 0.13761449999999797,
          "durationTicks": 96,
          "midi": 55,
          "name": "G3",
          "ticks": 14112,
          "time": 20.2293315,
          "velocity": 0.7795275590551181
        },
        {
          "duration": 0.2752289999999995,
          "durationTicks": 192,
          "midi": 59,
          "name": "B3",
          "ticks": 14112,
          "time": 20.2293315,
          "velocity": 0.7795275590551181
        },
        {
          "duration": 0.13761450000000153,
          "durationTicks": 96,
          "midi": 64,
          "name": "E4",
          "ticks": 14304,
          "time": 20.5045605,
          "velocity": 0.7795275590551181
        },
        {
          "duration": 0.2752289999999995,
          "durationTicks": 192,
          "midi": 50,
          "name": "D3",
          "ticks": 14304,
          "time": 20.5045605,
          "velocity": 0.7795275590551181
        },
        {
          "duration": 0.13761450000000153,
          "durationTicks": 96,
          "midi": 54,
          "name": "F#3",
          "ticks": 14496,
          "time": 20.7797895,
          "velocity": 0.7795275590551181
        },
        {
          "duration": 0.13761450000000153,
          "durationTicks": 96,
          "midi": 57,
          "name": "A3",
          "ticks": 14496,
          "time": 20.7797895,
          "velocity": 0.7795275590551181
        },
        {
          "duration": 0.13761450000000153,
          "durationTicks": 96,
          "midi": 64,
          "name": "E4",
          "ticks": 14496,
          "time": 20.7797895,
          "velocity": 0.7795275590551181
        },
        {
          "duration": 0.13761450000000153,
          "durationTicks": 96,
          "midi": 64,
          "name": "E4",
          "ticks": 14688,
          "time": 21.0550185,
          "velocity": 0.7795275590551181
        },
        {
          "duration": 0.13761450000000153,
          "durationTicks": 96,
          "midi": 57,
          "name": "A3",
          "ticks": 14880,
          "time": 21.3302475,
          "velocity": 0.7795275590551181
        },
        {
          "duration": 0.13761450000000153,
          "durationTicks": 96,
          "midi": 54,
          "name": "F#3",
          "ticks": 14880,
          "time": 21.3302475,
          "velocity": 0.7795275590551181
        },
        {
          "duration": 0.13761450000000153,
          "durationTicks": 96,
          "midi": 64,
          "name": "E4",
          "ticks": 14880,
          "time": 21.3302475,
          "velocity": 0.7795275590551181
        },
        {
          "duration": 0.13761450000000153,
          "durationTicks": 96,
          "midi": 62,
          "name": "D4",
          "ticks": 15024,
          "time": 21.53666925,
          "velocity": 0.7795275590551181
        },
        {
          "duration": 0.13761449999999797,
          "durationTicks": 96,
          "midi": 64,
          "name": "E4",
          "ticks": 15072,
          "time": 21.6054765,
          "velocity": 0.7795275590551181
        },
        {
          "duration": 0.2752289999999995,
          "durationTicks": 192,
          "midi": 50,
          "name": "D3",
          "ticks": 15072,
          "time": 21.6054765,
          "velocity": 0.7795275590551181
        },
        {
          "duration": 0.13761450000000153,
          "durationTicks": 96,
          "midi": 76,
          "name": "E5",
          "ticks": 15216,
          "time": 21.81189825,
          "velocity": 0.7795275590551181
        },
        {
          "duration": 0.13761449999999797,
          "durationTicks": 96,
          "midi": 54,
          "name": "F#3",
          "ticks": 15264,
          "time": 21.8807055,
          "velocity": 0.7795275590551181
        },
        {
          "duration": 0.13761449999999797,
          "durationTicks": 96,
          "midi": 57,
          "name": "A3",
          "ticks": 15264,
          "time": 21.8807055,
          "velocity": 0.7795275590551181
        },
        {
          "duration": 0.2752289999999995,
          "durationTicks": 192,
          "midi": 74,
          "name": "D5",
          "ticks": 15264,
          "time": 21.8807055,
          "velocity": 0.7795275590551181
        },
        {
          "duration": 0.2752289999999995,
          "durationTicks": 192,
          "midi": 71,
          "name": "B4",
          "ticks": 15456,
          "time": 22.1559345,
          "velocity": 0.7795275590551181
        },
        {
          "duration": 0.13761450000000153,
          "durationTicks": 96,
          "midi": 54,
          "name": "F#3",
          "ticks": 15648,
          "time": 22.4311635,
          "velocity": 0.7795275590551181
        },
        {
          "duration": 0.13761450000000153,
          "durationTicks": 96,
          "midi": 57,
          "name": "A3",
          "ticks": 15648,
          "time": 22.4311635,
          "velocity": 0.7795275590551181
        },
        {
          "duration": 0.2752289999999995,
          "durationTicks": 192,
          "midi": 69,
          "name": "A4",
          "ticks": 15648,
          "time": 22.4311635,
          "velocity": 0.7795275590551181
        },
        {
          "duration": 0.13761450000000153,
          "durationTicks": 96,
          "midi": 71,
          "name": "B4",
          "ticks": 15840,
          "time": 22.7063925,
          "velocity": 0.7795275590551181
        },
        {
          "duration": 0.2752289999999995,
          "durationTicks": 192,
          "midi": 52,
          "name": "E3",
          "ticks": 15840,
          "time": 22.7063925,
          "velocity": 0.7795275590551181
        },
        {
          "duration": 0.13761450000000153,
          "durationTicks": 96,
          "midi": 55,
          "name": "G3",
          "ticks": 16032,
          "time": 22.9816215,
          "velocity": 0.7795275590551181
        },
        {
          "duration": 0.13761450000000153,
          "durationTicks": 96,
          "midi": 71,
          "name": "B4",
          "ticks": 16032,
          "time": 22.9816215,
          "velocity": 0.7795275590551181
        },
        {
          "duration": 0.13761450000000153,
          "durationTicks": 96,
          "midi": 59,
          "name": "B3",
          "ticks": 16032,
          "time": 22.9816215,
          "velocity": 0.7795275590551181
        },
        {
          "duration": 0.13761450000000153,
          "durationTicks": 96,
          "midi": 71,
          "name": "B4",
          "ticks": 16224,
          "time": 23.2568505,
          "velocity": 0.7795275590551181
        },
        {
          "duration": 0.13761449999999797,
          "durationTicks": 96,
          "midi": 55,
          "name": "G3",
          "ticks": 16416,
          "time": 23.532079500000002,
          "velocity": 0.7795275590551181
        },
        {
          "duration": 0.13761449999999797,
          "durationTicks": 96,
          "midi": 71,
          "name": "B4",
          "ticks": 16416,
          "time": 23.532079500000002,
          "velocity": 0.7795275590551181
        },
        {
          "duration": 0.13761449999999797,
          "durationTicks": 96,
          "midi": 59,
          "name": "B3",
          "ticks": 16416,
          "time": 23.532079500000002,
          "velocity": 0.7795275590551181
        },
        {
          "duration": 0.13761450000000153,
          "durationTicks": 96,
          "midi": 69,
          "name": "A4",
          "ticks": 16560,
          "time": 23.73850125,
          "velocity": 0.7795275590551181
        },
        {
          "duration": 0.13761449999999797,
          "durationTicks": 96,
          "midi": 71,
          "name": "B4",
          "ticks": 16608,
          "time": 23.8073085,
          "velocity": 0.7795275590551181
        },
        {
          "duration": 0.2752289999999995,
          "durationTicks": 192,
          "midi": 52,
          "name": "E3",
          "ticks": 16608,
          "time": 23.8073085,
          "velocity": 0.7795275590551181
        },
        {
          "duration": 0.13761449999999797,
          "durationTicks": 96,
          "midi": 74,
          "name": "D5",
          "ticks": 16752,
          "time": 24.013730250000002,
          "velocity": 0.7795275590551181
        },
        {
          "duration": 0.13761449999999797,
          "durationTicks": 96,
          "midi": 55,
          "name": "G3",
          "ticks": 16800,
          "time": 24.0825375,
          "velocity": 0.7795275590551181
        },
        {
          "duration": 0.13761449999999797,
          "durationTicks": 96,
          "midi": 59,
          "name": "B3",
          "ticks": 16800,
          "time": 24.0825375,
          "velocity": 0.7795275590551181
        },
        {
          "duration": 0.2752289999999995,
          "durationTicks": 192,
          "midi": 71,
          "name": "B4",
          "ticks": 16800,
          "time": 24.0825375,
          "velocity": 0.7795275590551181
        },
        {
          "duration": 0.2752289999999995,
          "durationTicks": 192,
          "midi": 69,
          "name": "A4",
          "ticks": 16992,
          "time": 24.3577665,
          "velocity": 0.7795275590551181
        },
        {
          "duration": 0.13761450000000153,
          "durationTicks": 96,
          "midi": 55,
          "name": "G3",
          "ticks": 17184,
          "time": 24.6329955,
          "velocity": 0.7795275590551181
        },
        {
          "duration": 0.13761450000000153,
          "durationTicks": 96,
          "midi": 59,
          "name": "B3",
          "ticks": 17184,
          "time": 24.6329955,
          "velocity": 0.7795275590551181
        },
        {
          "duration": 0.2752289999999995,
          "durationTicks": 192,
          "midi": 67,
          "name": "G4",
          "ticks": 17184,
          "time": 24.6329955,
          "velocity": 0.7795275590551181
        },
        {
          "duration": 0.13761450000000153,
          "durationTicks": 96,
          "midi": 71,
          "name": "B4",
          "ticks": 17376,
          "time": 24.9082245,
          "velocity": 0.7795275590551181
        },
        {
          "duration": 0.2752289999999995,
          "durationTicks": 192,
          "midi": 55,
          "name": "G3",
          "ticks": 17376,
          "time": 24.9082245,
          "velocity": 0.7795275590551181
        },
        {
          "duration": 0.13761450000000153,
          "durationTicks": 96,
          "midi": 71,
          "name": "B4",
          "ticks": 17568,
          "time": 25.1834535,
          "velocity": 0.7795275590551181
        },
        {
          "duration": 0.13761450000000153,
          "durationTicks": 96,
          "midi": 62,
          "name": "D4",
          "ticks": 17568,
          "time": 25.1834535,
          "velocity": 0.7795275590551181
        },
        {
          "duration": 0.13761450000000153,
          "durationTicks": 96,
          "midi": 59,
          "name": "B3",
          "ticks": 17568,
          "time": 25.1834535,
          "velocity": 0.7795275590551181
        },
        {
          "duration": 0.13761449999999797,
          "durationTicks": 96,
          "midi": 71,
          "name": "B4",
          "ticks": 17760,
          "time": 25.458682500000002,
          "velocity": 0.7795275590551181
        },
        {
          "duration": 0.13761449999999797,
          "durationTicks": 96,
          "midi": 71,
          "name": "B4",
          "ticks": 17952,
          "time": 25.7339115,
          "velocity": 0.7795275590551181
        },
        {
          "duration": 0.13761449999999797,
          "durationTicks": 96,
          "midi": 62,
          "name": "D4",
          "ticks": 17952,
          "time": 25.7339115,
          "velocity": 0.7795275590551181
        },
        {
          "duration": 0.13761449999999797,
          "durationTicks": 96,
          "midi": 59,
          "name": "B3",
          "ticks": 17952,
          "time": 25.7339115,
          "velocity": 0.7795275590551181
        },
        {
          "duration": 0.13761449999999797,
          "durationTicks": 96,
          "midi": 69,
          "name": "A4",
          "ticks": 18096,
          "time": 25.940333250000002,
          "velocity": 0.7795275590551181
        },
        {
          "duration": 0.13761449999999797,
          "durationTicks": 96,
          "midi": 71,
          "name": "B4",
          "ticks": 18144,
          "time": 26.0091405,
          "velocity": 0.7795275590551181
        },
        {
          "duration": 0.2752289999999995,
          "durationTicks": 192,
          "midi": 55,
          "name": "G3",
          "ticks": 18144,
          "time": 26.0091405,
          "velocity": 0.7795275590551181
        },
        {
          "duration": 0.13761449999999797,
          "durationTicks": 96,
          "midi": 74,
          "name": "D5",
          "ticks": 18288,
          "time": 26.21556225,
          "velocity": 0.7795275590551181
        },
        {
          "duration": 0.13761450000000153,
          "durationTicks": 96,
          "midi": 59,
          "name": "B3",
          "ticks": 18336,
          "time": 26.2843695,
          "velocity": 0.7795275590551181
        },
        {
          "duration": 0.13761450000000153,
          "durationTicks": 96,
          "midi": 62,
          "name": "D4",
          "ticks": 18336,
          "time": 26.2843695,
          "velocity": 0.7795275590551181
        },
        {
          "duration": 0.2752289999999995,
          "durationTicks": 192,
          "midi": 71,
          "name": "B4",
          "ticks": 18336,
          "time": 26.2843695,
          "velocity": 0.7795275590551181
        },
        {
          "duration": 0.2752289999999995,
          "durationTicks": 192,
          "midi": 69,
          "name": "A4",
          "ticks": 18528,
          "time": 26.5595985,
          "velocity": 0.7795275590551181
        },
        {
          "duration": 0.13761450000000153,
          "durationTicks": 96,
          "midi": 62,
          "name": "D4",
          "ticks": 18720,
          "time": 26.8348275,
          "velocity": 0.7795275590551181
        },
        {
          "duration": 0.13761450000000153,
          "durationTicks": 96,
          "midi": 59,
          "name": "B3",
          "ticks": 18720,
          "time": 26.8348275,
          "velocity": 0.7795275590551181
        },
        {
          "duration": 0.2752289999999995,
          "durationTicks": 192,
          "midi": 67,
          "name": "G4",
          "ticks": 18720,
          "time": 26.8348275,
          "velocity": 0.7795275590551181
        },
        {
          "duration": 0.13761450000000153,
          "durationTicks": 96,
          "midi": 64,
          "name": "E4",
          "ticks": 18912,
          "time": 27.1100565,
          "velocity": 0.7795275590551181
        },
        {
          "duration": 0.2752289999999995,
          "durationTicks": 192,
          "midi": 48,
          "name": "C3",
          "ticks": 18912,
          "time": 27.1100565,
          "velocity": 0.7795275590551181
        },
        {
          "duration": 0.13761450000000153,
          "durationTicks": 96,
          "midi": 52,
          "name": "E3",
          "ticks": 19104,
          "time": 27.3852855,
          "velocity": 0.7795275590551181
        },
        {
          "duration": 0.13761450000000153,
          "durationTicks": 96,
          "midi": 55,
          "name": "G3",
          "ticks": 19104,
          "time": 27.3852855,
          "velocity": 0.7795275590551181
        },
        {
          "duration": 0.13761450000000153,
          "durationTicks": 96,
          "midi": 64,
          "name": "E4",
          "ticks": 19104,
          "time": 27.3852855,
          "velocity": 0.7795275590551181
        },
        {
          "duration": 0.13761449999999797,
          "durationTicks": 96,
          "midi": 64,
          "name": "E4",
          "ticks": 19296,
          "time": 27.6605145,
          "velocity": 0.7795275590551181
        },
        {
          "duration": 0.13761449999999797,
          "durationTicks": 96,
          "midi": 52,
          "name": "E3",
          "ticks": 19488,
          "time": 27.9357435,
          "velocity": 0.7795275590551181
        },
        {
          "duration": 0.13761449999999797,
          "durationTicks": 96,
          "midi": 55,
          "name": "G3",
          "ticks": 19488,
          "time": 27.9357435,
          "velocity": 0.7795275590551181
        },
        {
          "duration": 0.13761449999999797,
          "durationTicks": 96,
          "midi": 64,
          "name": "E4",
          "ticks": 19488,
          "time": 27.9357435,
          "velocity": 0.7795275590551181
        },
        {
          "duration": 0.13761449999999797,
          "durationTicks": 96,
          "midi": 62,
          "name": "D4",
          "ticks": 19632,
          "time": 28.14216525,
          "velocity": 0.7795275590551181
        },
        {
          "duration": 0.13761449999999797,
          "durationTicks": 96,
          "midi": 64,
          "name": "E4",
          "ticks": 19680,
          "time": 28.2109725,
          "velocity": 0.7795275590551181
        },
        {
          "duration": 0.2752289999999995,
          "durationTicks": 192,
          "midi": 48,
          "name": "C3",
          "ticks": 19680,
          "time": 28.2109725,
          "velocity": 0.7795275590551181
        },
        {
          "duration": 0.13761449999999797,
          "durationTicks": 96,
          "midi": 67,
          "name": "G4",
          "ticks": 19824,
          "time": 28.41739425,
          "velocity": 0.7795275590551181
        },
        {
          "duration": 0.13761450000000153,
          "durationTicks": 96,
          "midi": 55,
          "name": "G3",
          "ticks": 19872,
          "time": 28.4862015,
          "velocity": 0.7795275590551181
        },
        {
          "duration": 0.13761450000000153,
          "durationTicks": 96,
          "midi": 52,
          "name": "E3",
          "ticks": 19872,
          "time": 28.4862015,
          "velocity": 0.7795275590551181
        },
        {
          "duration": 0.2752289999999995,
          "durationTicks": 192,
          "midi": 64,
          "name": "E4",
          "ticks": 19872,
          "time": 28.4862015,
          "velocity": 0.7795275590551181
        },
        {
          "duration": 0.2752289999999995,
          "durationTicks": 192,
          "midi": 62,
          "name": "D4",
          "ticks": 20064,
          "time": 28.7614305,
          "velocity": 0.7795275590551181
        },
        {
          "duration": 0.13761450000000153,
          "durationTicks": 96,
          "midi": 55,
          "name": "G3",
          "ticks": 20256,
          "time": 29.0366595,
          "velocity": 0.7795275590551181
        },
        {
          "duration": 0.13761450000000153,
          "durationTicks": 96,
          "midi": 52,
          "name": "E3",
          "ticks": 20256,
          "time": 29.0366595,
          "velocity": 0.7795275590551181
        },
        {
          "duration": 0.2752289999999995,
          "durationTicks": 192,
          "midi": 59,
          "name": "B3",
          "ticks": 20256,
          "time": 29.0366595,
          "velocity": 0.7795275590551181
        },
        {
          "duration": 0.13761450000000153,
          "durationTicks": 96,
          "midi": 64,
          "name": "E4",
          "ticks": 20448,
          "time": 29.3118885,
          "velocity": 0.7795275590551181
        },
        {
          "duration": 0.27522900000000305,
          "durationTicks": 192,
          "midi": 49,
          "name": "C#3",
          "ticks": 20448,
          "time": 29.3118885,
          "velocity": 0.7795275590551181
        },
        {
          "duration": 0.13761449999999797,
          "durationTicks": 96,
          "midi": 55,
          "name": "G3",
          "ticks": 20640,
          "time": 29.5871175,
          "velocity": 0.7795275590551181
        },
        {
          "duration": 0.13761449999999797,
          "durationTicks": 96,
          "midi": 52,
          "name": "E3",
          "ticks": 20640,
          "time": 29.5871175,
          "velocity": 0.7795275590551181
        },
        {
          "duration": 0.13761449999999797,
          "durationTicks": 96,
          "midi": 64,
          "name": "E4",
          "ticks": 20640,
          "time": 29.5871175,
          "velocity": 0.7795275590551181
        },
        {
          "duration": 0.13761449999999797,
          "durationTicks": 96,
          "midi": 64,
          "name": "E4",
          "ticks": 20832,
          "time": 29.8623465,
          "velocity": 0.7795275590551181
        },
        {
          "duration": 0.13761449999999797,
          "durationTicks": 96,
          "midi": 55,
          "name": "G3",
          "ticks": 21024,
          "time": 30.1375755,
          "velocity": 0.7795275590551181
        },
        {
          "duration": 0.13761449999999797,
          "durationTicks": 96,
          "midi": 52,
          "name": "E3",
          "ticks": 21024,
          "time": 30.1375755,
          "velocity": 0.7795275590551181
        },
        {
          "duration": 0.13761449999999797,
          "durationTicks": 96,
          "midi": 64,
          "name": "E4",
          "ticks": 21024,
          "time": 30.1375755,
          "velocity": 0.7795275590551181
        },
        {
          "duration": 0.13761449999999797,
          "durationTicks": 96,
          "midi": 62,
          "name": "D4",
          "ticks": 21168,
          "time": 30.34399725,
          "velocity": 0.7795275590551181
        },
        {
          "duration": 0.13761450000000153,
          "durationTicks": 96,
          "midi": 64,
          "name": "E4",
          "ticks": 21216,
          "time": 30.4128045,
          "velocity": 0.7795275590551181
        },
        {
          "duration": 0.2752289999999995,
          "durationTicks": 192,
          "midi": 49,
          "name": "C#3",
          "ticks": 21216,
          "time": 30.4128045,
          "velocity": 0.7795275590551181
        },
        {
          "duration": 0.13761449999999797,
          "durationTicks": 96,
          "midi": 76,
          "name": "E5",
          "ticks": 21360,
          "time": 30.61922625,
          "velocity": 0.7795275590551181
        },
        {
          "duration": 0.13761450000000153,
          "durationTicks": 96,
          "midi": 55,
          "name": "G3",
          "ticks": 21408,
          "time": 30.6880335,
          "velocity": 0.7795275590551181
        },
        {
          "duration": 0.13761450000000153,
          "durationTicks": 96,
          "midi": 52,
          "name": "E3",
          "ticks": 21408,
          "time": 30.6880335,
          "velocity": 0.7795275590551181
        },
        {
          "duration": 0.2752289999999995,
          "durationTicks": 192,
          "midi": 74,
          "name": "D5",
          "ticks": 21408,
          "time": 30.6880335,
          "velocity": 0.7795275590551181
        },
        {
          "duration": 0.2752289999999995,
          "durationTicks": 192,
          "midi": 71,
          "name": "B4",
          "ticks": 21600,
          "time": 30.9632625,
          "velocity": 0.7795275590551181
        },
        {
          "duration": 0.13761450000000153,
          "durationTicks": 96,
          "midi": 52,
          "name": "E3",
          "ticks": 21792,
          "time": 31.2384915,
          "velocity": 0.7795275590551181
        },
        {
          "duration": 0.13761450000000153,
          "durationTicks": 96,
          "midi": 55,
          "name": "G3",
          "ticks": 21792,
          "time": 31.2384915,
          "velocity": 0.7795275590551181
        },
        {
          "duration": 0.27522900000000305,
          "durationTicks": 192,
          "midi": 69,
          "name": "A4",
          "ticks": 21792,
          "time": 31.2384915,
          "velocity": 0.7795275590551181
        },
        {
          "duration": 0.13761449999999797,
          "durationTicks": 96,
          "midi": 71,
          "name": "B4",
          "ticks": 21984,
          "time": 31.5137205,
          "velocity": 0.7795275590551181
        },
        {
          "duration": 0.2752289999999995,
          "durationTicks": 192,
          "midi": 50,
          "name": "D3",
          "ticks": 21984,
          "time": 31.5137205,
          "velocity": 0.7795275590551181
        },
        {
          "duration": 0.13761449999999797,
          "durationTicks": 96,
          "midi": 54,
          "name": "F#3",
          "ticks": 22176,
          "time": 31.7889495,
          "velocity": 0.7795275590551181
        },
        {
          "duration": 0.13761449999999797,
          "durationTicks": 96,
          "midi": 57,
          "name": "A3",
          "ticks": 22176,
          "time": 31.7889495,
          "velocity": 0.7795275590551181
        },
        {
          "duration": 0.13761449999999797,
          "durationTicks": 96,
          "midi": 71,
          "name": "B4",
          "ticks": 22176,
          "time": 31.7889495,
          "velocity": 0.7795275590551181
        },
        {
          "duration": 0.13761450000000508,
          "durationTicks": 96,
          "midi": 71,
          "name": "B4",
          "ticks": 22368,
          "time": 32.0641785,
          "velocity": 0.7795275590551181
        },
        {
          "duration": 0.13761449999999797,
          "durationTicks": 96,
          "midi": 69,
          "name": "A4",
          "ticks": 22512,
          "time": 32.27060025,
          "velocity": 0.7795275590551181
        },
        {
          "duration": 0.13761449999999797,
          "durationTicks": 96,
          "midi": 57,
          "name": "A3",
          "ticks": 22560,
          "time": 32.3394075,
          "velocity": 0.7795275590551181
        },
        {
          "duration": 0.13761449999999797,
          "durationTicks": 96,
          "midi": 54,
          "name": "F#3",
          "ticks": 22560,
          "time": 32.3394075,
          "velocity": 0.7795275590551181
        },
        {
          "duration": 0.13761449999999797,
          "durationTicks": 96,
          "midi": 67,
          "name": "G4",
          "ticks": 22560,
          "time": 32.3394075,
          "velocity": 0.7795275590551181
        },
        {
          "duration": 0.13761450000000508,
          "durationTicks": 96,
          "midi": 69,
          "name": "A4",
          "ticks": 22704,
          "time": 32.54582925,
          "velocity": 0.7795275590551181
        },
        {
          "duration": 0.13761449999999797,
          "durationTicks": 96,
          "midi": 71,
          "name": "B4",
          "ticks": 22752,
          "time": 32.6146365,
          "velocity": 0.7795275590551181
        },
        {
          "duration": 0.27522899999999595,
          "durationTicks": 192,
          "midi": 50,
          "name": "D3",
          "ticks": 22752,
          "time": 32.6146365,
          "velocity": 0.7795275590551181
        },
        {
          "duration": 0.13761449999999797,
          "durationTicks": 96,
          "midi": 54,
          "name": "F#3",
          "ticks": 22944,
          "time": 32.8898655,
          "velocity": 0.7795275590551181
        },
        {
          "duration": 0.13761449999999797,
          "durationTicks": 96,
          "midi": 57,
          "name": "A3",
          "ticks": 22944,
          "time": 32.8898655,
          "velocity": 0.7795275590551181
        },
        {
          "duration": 0.13761449999999797,
          "durationTicks": 96,
          "midi": 71,
          "name": "B4",
          "ticks": 22944,
          "time": 32.8898655,
          "velocity": 0.7795275590551181
        },
        {
          "duration": 0.13761449999999797,
          "durationTicks": 96,
          "midi": 71,
          "name": "B4",
          "ticks": 23136,
          "time": 33.1650945,
          "velocity": 0.7795275590551181
        },
        {
          "duration": 0.13761449999999797,
          "durationTicks": 96,
          "midi": 69,
          "name": "A4",
          "ticks": 23280,
          "time": 33.37151625,
          "velocity": 0.7795275590551181
        },
        {
          "duration": 0.13761450000000508,
          "durationTicks": 96,
          "midi": 57,
          "name": "A3",
          "ticks": 23328,
          "time": 33.4403235,
          "velocity": 0.7795275590551181
        },
        {
          "duration": 0.13761450000000508,
          "durationTicks": 96,
          "midi": 54,
          "name": "F#3",
          "ticks": 23328,
          "time": 33.4403235,
          "velocity": 0.7795275590551181
        },
        {
          "duration": 0.13761450000000508,
          "durationTicks": 96,
          "midi": 67,
          "name": "G4",
          "ticks": 23328,
          "time": 33.4403235,
          "velocity": 0.7795275590551181
        },
        {
          "duration": 0.13761449999999797,
          "durationTicks": 96,
          "midi": 69,
          "name": "A4",
          "ticks": 23472,
          "time": 33.64674525,
          "velocity": 0.7795275590551181
        },
        {
          "duration": 0.13761449999999797,
          "durationTicks": 96,
          "midi": 71,
          "name": "B4",
          "ticks": 23520,
          "time": 33.7155525,
          "velocity": 0.7795275590551181
        },
        {
          "duration": 0.27522899999999595,
          "durationTicks": 192,
          "midi": 50,
          "name": "D3",
          "ticks": 23520,
          "time": 33.7155525,
          "velocity": 0.7795275590551181
        },
        {
          "duration": 0.13761450000000508,
          "durationTicks": 96,
          "midi": 57,
          "name": "A3",
          "ticks": 23712,
          "time": 33.9907815,
          "velocity": 0.7795275590551181
        },
        {
          "duration": 0.13761450000000508,
          "durationTicks": 96,
          "midi": 54,
          "name": "F#3",
          "ticks": 23712,
          "time": 33.9907815,
          "velocity": 0.7795275590551181
        },
        {
          "duration": 0.13761450000000508,
          "durationTicks": 96,
          "midi": 71,
          "name": "B4",
          "ticks": 23712,
          "time": 33.9907815,
          "velocity": 0.7795275590551181
        },
        {
          "duration": 0.13761450000000508,
          "durationTicks": 96,
          "midi": 66,
          "name": "F#4",
          "ticks": 23712,
          "time": 33.9907815,
          "velocity": 0.7795275590551181
        },
        {
          "duration": 0.13761449999999797,
          "durationTicks": 96,
          "midi": 57,
          "name": "A3",
          "ticks": 23904,
          "time": 34.2660105,
          "velocity": 0.7795275590551181
        },
        {
          "duration": 0.13761449999999797,
          "durationTicks": 96,
          "midi": 54,
          "name": "F#3",
          "ticks": 23904,
          "time": 34.2660105,
          "velocity": 0.7795275590551181
        },
        {
          "duration": 0.13761449999999797,
          "durationTicks": 96,
          "midi": 50,
          "name": "D3",
          "ticks": 23904,
          "time": 34.2660105,
          "velocity": 0.7795275590551181
        },
        {
          "duration": 0.13761449999999797,
          "durationTicks": 96,
          "midi": 71,
          "name": "B4",
          "ticks": 23904,
          "time": 34.2660105,
          "velocity": 0.7795275590551181
        },
        {
          "duration": 0.13761449999999797,
          "durationTicks": 96,
          "midi": 66,
          "name": "F#4",
          "ticks": 23904,
          "time": 34.2660105,
          "velocity": 0.7795275590551181
        },
        {
          "duration": 0.13761449999999797,
          "durationTicks": 96,
          "midi": 54,
          "name": "F#3",
          "ticks": 24096,
          "time": 34.5412395,
          "velocity": 0.7795275590551181
        },
        {
          "duration": 0.13761449999999797,
          "durationTicks": 96,
          "midi": 57,
          "name": "A3",
          "ticks": 24096,
          "time": 34.5412395,
          "velocity": 0.7795275590551181
        },
        {
          "duration": 0.13761449999999797,
          "durationTicks": 96,
          "midi": 50,
          "name": "D3",
          "ticks": 24096,
          "time": 34.5412395,
          "velocity": 0.7795275590551181
        },
        {
          "duration": 0.13761449999999797,
          "durationTicks": 96,
          "midi": 71,
          "name": "B4",
          "ticks": 24096,
          "time": 34.5412395,
          "velocity": 0.7795275590551181
        },
        {
          "duration": 0.13761449999999797,
          "durationTicks": 96,
          "midi": 66,
          "name": "F#4",
          "ticks": 24096,
          "time": 34.5412395,
          "velocity": 0.7795275590551181
        },
        {
          "duration": 0.41284350000000103,
          "durationTicks": 288,
          "midi": 54,
          "name": "F#3",
          "ticks": 24288,
          "time": 34.8164685,
          "velocity": 0.7795275590551181
        },
        {
          "duration": 0.41284350000000103,
          "durationTicks": 288,
          "midi": 51,
          "name": "D#3",
          "ticks": 24288,
          "time": 34.8164685,
          "velocity": 0.7795275590551181
        },
        {
          "duration": 0.550457999999999,
          "durationTicks": 384,
          "midi": 71,
          "name": "B4",
          "ticks": 24288,
          "time": 34.8164685,
          "velocity": 0.7795275590551181
        },
        {
          "duration": 0.550457999999999,
          "durationTicks": 384,
          "midi": 59,
          "name": "B3",
          "ticks": 24288,
          "time": 34.8164685,
          "velocity": 0.7795275590551181
        },
        {
          "duration": 0.550457999999999,
          "durationTicks": 384,
          "midi": 66,
          "name": "F#4",
          "ticks": 24288,
          "time": 34.8164685,
          "velocity": 0.7795275590551181
        },
        {
          "duration": 0.27522900000000305,
          "durationTicks": 192,
          "midi": 54,
          "name": "F#3",
          "ticks": 24576,
          "time": 35.229312,
          "velocity": 0.7795275590551181
        },
        {
          "duration": 0.27522900000000305,
          "durationTicks": 192,
          "midi": 51,
          "name": "D#3",
          "ticks": 24576,
          "time": 35.229312,
          "velocity": 0.7795275590551181
        },
        {
          "duration": 0.13761450000000508,
          "durationTicks": 96,
          "midi": 59,
          "name": "B3",
          "ticks": 24672,
          "time": 35.3669265,
          "velocity": 0.7795275590551181
        },
        {
          "duration": 0.13761450000000508,
          "durationTicks": 96,
          "midi": 66,
          "name": "F#4",
          "ticks": 24672,
          "time": 35.3669265,
          "velocity": 0.7795275590551181
        },
        {
          "duration": 0.13761450000000508,
          "durationTicks": 96,
          "midi": 69,
          "name": "A4",
          "ticks": 24672,
          "time": 35.3669265,
          "velocity": 0.7795275590551181
        },
        {
          "duration": 0.13761449999999797,
          "durationTicks": 96,
          "midi": 67,
          "name": "G4",
          "ticks": 24816,
          "time": 35.57334825,
          "velocity": 0.7795275590551181
        },
        {
          "duration": 0.13761449999999797,
          "durationTicks": 96,
          "midi": 64,
          "name": "E4",
          "ticks": 24864,
          "time": 35.6421555,
          "velocity": 0.7795275590551181
        },
        {
          "duration": 0.13761450000000508,
          "durationTicks": 96,
          "midi": 62,
          "name": "D4",
          "ticks": 25008,
          "time": 35.84857725,
          "velocity": 0.7795275590551181
        },
        {
          "duration": 0.27522900000000305,
          "durationTicks": 192,
          "midi": 64,
          "name": "E4",
          "ticks": 25056,
          "time": 35.9173845,
          "velocity": 0.7795275590551181
        },
        {
          "duration": 0.27522900000000305,
          "durationTicks": 192,
          "midi": 52,
          "name": "E3",
          "ticks": 25056,
          "time": 35.9173845,
          "velocity": 0.7795275590551181
        },
        {
          "duration": 0.13761449999999797,
          "durationTicks": 96,
          "midi": 55,
          "name": "G3",
          "ticks": 25248,
          "time": 36.1926135,
          "velocity": 0.7795275590551181
        },
        {
          "duration": 0.13761449999999797,
          "durationTicks": 96,
          "midi": 59,
          "name": "B3",
          "ticks": 25248,
          "time": 36.1926135,
          "velocity": 0.7795275590551181
        },
        {
          "duration": 0.13761450000000508,
          "durationTicks": 96,
          "midi": 71,
          "name": "B4",
          "ticks": 25392,
          "time": 36.39903525,
          "velocity": 0.7795275590551181
        },
        {
          "duration": 0.13761449999999797,
          "durationTicks": 96,
          "midi": 69,
          "name": "A4",
          "ticks": 25440,
          "time": 36.4678425,
          "velocity": 0.7795275590551181
        },
        {
          "duration": 0.13761449999999797,
          "durationTicks": 96,
          "midi": 67,
          "name": "G4",
          "ticks": 25584,
          "time": 36.67426425,
          "velocity": 0.7795275590551181
        },
        {
          "duration": 0.13761449999999797,
          "durationTicks": 96,
          "midi": 55,
          "name": "G3",
          "ticks": 25632,
          "time": 36.7430715,
          "velocity": 0.7795275590551181
        },
        {
          "duration": 0.13761449999999797,
          "durationTicks": 96,
          "midi": 59,
          "name": "B3",
          "ticks": 25632,
          "time": 36.7430715,
          "velocity": 0.7795275590551181
        },
        {
          "duration": 0.13761449999999797,
          "durationTicks": 96,
          "midi": 64,
          "name": "E4",
          "ticks": 25632,
          "time": 36.7430715,
          "velocity": 0.7795275590551181
        },
        {
          "duration": 0.13761449999999797,
          "durationTicks": 96,
          "midi": 62,
          "name": "D4",
          "ticks": 25776,
          "time": 36.94949325,
          "velocity": 0.7795275590551181
        },
        {
          "duration": 0.27522899999999595,
          "durationTicks": 192,
          "midi": 64,
          "name": "E4",
          "ticks": 25824,
          "time": 37.0183005,
          "velocity": 0.7795275590551181
        },
        {
          "duration": 0.27522899999999595,
          "durationTicks": 192,
          "midi": 48,
          "name": "C3",
          "ticks": 25824,
          "time": 37.0183005,
          "velocity": 0.7795275590551181
        },
        {
          "duration": 0.13761450000000508,
          "durationTicks": 96,
          "midi": 52,
          "name": "E3",
          "ticks": 26016,
          "time": 37.2935295,
          "velocity": 0.7795275590551181
        },
        {
          "duration": 0.13761450000000508,
          "durationTicks": 96,
          "midi": 55,
          "name": "G3",
          "ticks": 26016,
          "time": 37.2935295,
          "velocity": 0.7795275590551181
        },
        {
          "duration": 0.13761449999999797,
          "durationTicks": 96,
          "midi": 71,
          "name": "B4",
          "ticks": 26160,
          "time": 37.49995125,
          "velocity": 0.7795275590551181
        },
        {
          "duration": 0.13761449999999797,
          "durationTicks": 96,
          "midi": 69,
          "name": "A4",
          "ticks": 26208,
          "time": 37.5687585,
          "velocity": 0.7795275590551181
        },
        {
          "duration": 0.13761450000000508,
          "durationTicks": 96,
          "midi": 67,
          "name": "G4",
          "ticks": 26352,
          "time": 37.77518025,
          "velocity": 0.7795275590551181
        },
        {
          "duration": 0.13761450000000508,
          "durationTicks": 96,
          "midi": 55,
          "name": "G3",
          "ticks": 26400,
          "time": 37.8439875,
          "velocity": 0.7795275590551181
        },
        {
          "duration": 0.13761450000000508,
          "durationTicks": 96,
          "midi": 52,
          "name": "E3",
          "ticks": 26400,
          "time": 37.8439875,
          "velocity": 0.7795275590551181
        },
        {
          "duration": 0.13761450000000508,
          "durationTicks": 96,
          "midi": 64,
          "name": "E4",
          "ticks": 26400,
          "time": 37.8439875,
          "velocity": 0.7795275590551181
        },
        {
          "duration": 0.13761449999999797,
          "durationTicks": 96,
          "midi": 62,
          "name": "D4",
          "ticks": 26544,
          "time": 38.05040925,
          "velocity": 0.7795275590551181
        },
        {
          "duration": 0.13761449999999797,
          "durationTicks": 96,
          "midi": 64,
          "name": "E4",
          "ticks": 26592,
          "time": 38.1192165,
          "velocity": 0.7795275590551181
        },
        {
          "duration": 0.27522900000000305,
          "durationTicks": 192,
          "midi": 50,
          "name": "D3",
          "ticks": 26592,
          "time": 38.1192165,
          "velocity": 0.7795275590551181
        },
        {
          "duration": 0.13761449999999797,
          "durationTicks": 96,
          "midi": 57,
          "name": "A3",
          "ticks": 26784,
          "time": 38.3944455,
          "velocity": 0.7795275590551181
        },
        {
          "duration": 0.13761449999999797,
          "durationTicks": 96,
          "midi": 54,
          "name": "F#3",
          "ticks": 26784,
          "time": 38.3944455,
          "velocity": 0.7795275590551181
        },
        {
          "duration": 0.13761449999999797,
          "durationTicks": 96,
          "midi": 67,
          "name": "G4",
          "ticks": 26784,
          "time": 38.3944455,
          "velocity": 0.7795275590551181
        },
        {
          "duration": 0.13761449999999797,
          "durationTicks": 96,
          "midi": 69,
          "name": "A4",
          "ticks": 26976,
          "time": 38.6696745,
          "velocity": 0.7795275590551181
        },
        {
          "duration": 0.13761449999999797,
          "durationTicks": 96,
          "midi": 54,
          "name": "F#3",
          "ticks": 27168,
          "time": 38.9449035,
          "velocity": 0.7795275590551181
        },
        {
          "duration": 0.13761449999999797,
          "durationTicks": 96,
          "midi": 57,
          "name": "A3",
          "ticks": 27168,
          "time": 38.9449035,
          "velocity": 0.7795275590551181
        },
        {
          "duration": 0.13761449999999797,
          "durationTicks": 96,
          "midi": 71,
          "name": "B4",
          "ticks": 27168,
          "time": 38.9449035,
          "velocity": 0.7795275590551181
        },
        {
          "duration": 0.27522900000000305,
          "durationTicks": 192,
          "midi": 69,
          "name": "A4",
          "ticks": 27360,
          "time": 39.2201325,
          "velocity": 0.7795275590551181
        },
        {
          "duration": 0.27522900000000305,
          "durationTicks": 192,
          "midi": 45,
          "name": "A2",
          "ticks": 27360,
          "time": 39.2201325,
          "velocity": 0.7795275590551181
        },
        {
          "duration": 0.13761449999999797,
          "durationTicks": 96,
          "midi": 52,
          "name": "E3",
          "ticks": 27552,
          "time": 39.4953615,
          "velocity": 0.7795275590551181
        },
        {
          "duration": 0.13761449999999797,
          "durationTicks": 96,
          "midi": 49,
          "name": "C#3",
          "ticks": 27552,
          "time": 39.4953615,
          "velocity": 0.7795275590551181
        },
        {
          "duration": 0.13761450000000508,
          "durationTicks": 96,
          "midi": 71,
          "name": "B4",
          "ticks": 27696,
          "time": 39.70178325,
          "velocity": 0.7795275590551181
        },
        {
          "duration": 0.13761450000000508,
          "durationTicks": 96,
          "midi": 69,
          "name": "A4",
          "ticks": 27744,
          "time": 39.7705905,
          "velocity": 0.7795275590551181
        },
        {
          "duration": 0.13761449999999797,
          "durationTicks": 96,
          "midi": 67,
          "name": "G4",
          "ticks": 27888,
          "time": 39.97701225,
          "velocity": 0.7795275590551181
        },
        {
          "duration": 0.13761449999999797,
          "durationTicks": 96,
          "midi": 49,
          "name": "C#3",
          "ticks": 27936,
          "time": 40.0458195,
          "velocity": 0.7795275590551181
        },
        {
          "duration": 0.13761449999999797,
          "durationTicks": 96,
          "midi": 52,
          "name": "E3",
          "ticks": 27936,
          "time": 40.0458195,
          "velocity": 0.7795275590551181
        },
        {
          "duration": 0.13761449999999797,
          "durationTicks": 96,
          "midi": 64,
          "name": "E4",
          "ticks": 27936,
          "time": 40.0458195,
          "velocity": 0.7795275590551181
        },
        {
          "duration": 0.13761450000000508,
          "durationTicks": 96,
          "midi": 62,
          "name": "D4",
          "ticks": 28080,
          "time": 40.25224125,
          "velocity": 0.7795275590551181
        },
        {
          "duration": 0.27522899999999595,
          "durationTicks": 192,
          "midi": 64,
          "name": "E4",
          "ticks": 28128,
          "time": 40.3210485,
          "velocity": 0.7795275590551181
        },
        {
          "duration": 0.27522899999999595,
          "durationTicks": 192,
          "midi": 52,
          "name": "E3",
          "ticks": 28128,
          "time": 40.3210485,
          "velocity": 0.7795275590551181
        },
        {
          "duration": 0.13761449999999797,
          "durationTicks": 96,
          "midi": 55,
          "name": "G3",
          "ticks": 28320,
          "time": 40.5962775,
          "velocity": 0.7795275590551181
        },
        {
          "duration": 0.13761449999999797,
          "durationTicks": 96,
          "midi": 59,
          "name": "B3",
          "ticks": 28320,
          "time": 40.5962775,
          "velocity": 0.7795275590551181
        },
        {
          "duration": 0.13761449999999797,
          "durationTicks": 96,
          "midi": 71,
          "name": "B4",
          "ticks": 28464,
          "time": 40.80269925,
          "velocity": 0.7795275590551181
        },
        {
          "duration": 0.13761449999999797,
          "durationTicks": 96,
          "midi": 69,
          "name": "A4",
          "ticks": 28512,
          "time": 40.8715065,
          "velocity": 0.7795275590551181
        },
        {
          "duration": 0.13761449999999797,
          "durationTicks": 96,
          "midi": 67,
          "name": "G4",
          "ticks": 28656,
          "time": 41.07792825,
          "velocity": 0.7795275590551181
        },
        {
          "duration": 0.13761450000000508,
          "durationTicks": 96,
          "midi": 55,
          "name": "G3",
          "ticks": 28704,
          "time": 41.1467355,
          "velocity": 0.7795275590551181
        },
        {
          "duration": 0.13761450000000508,
          "durationTicks": 96,
          "midi": 64,
          "name": "E4",
          "ticks": 28704,
          "time": 41.1467355,
          "velocity": 0.7795275590551181
        },
        {
          "duration": 0.13761450000000508,
          "durationTicks": 96,
          "midi": 59,
          "name": "B3",
          "ticks": 28704,
          "time": 41.1467355,
          "velocity": 0.7795275590551181
        },
        {
          "duration": 0.13761449999999797,
          "durationTicks": 96,
          "midi": 62,
          "name": "D4",
          "ticks": 28848,
          "time": 41.35315725,
          "velocity": 0.7795275590551181
        },
        {
          "duration": 0.27522899999999595,
          "durationTicks": 192,
          "midi": 64,
          "name": "E4",
          "ticks": 28896,
          "time": 41.4219645,
          "velocity": 0.7795275590551181
        },
        {
          "duration": 0.27522899999999595,
          "durationTicks": 192,
          "midi": 48,
          "name": "C3",
          "ticks": 28896,
          "time": 41.4219645,
          "velocity": 0.7795275590551181
        },
        {
          "duration": 0.13761450000000508,
          "durationTicks": 96,
          "midi": 52,
          "name": "E3",
          "ticks": 29088,
          "time": 41.6971935,
          "velocity": 0.7795275590551181
        },
        {
          "duration": 0.13761450000000508,
          "durationTicks": 96,
          "midi": 55,
          "name": "G3",
          "ticks": 29088,
          "time": 41.6971935,
          "velocity": 0.7795275590551181
        },
        {
          "duration": 0.13761449999999797,
          "durationTicks": 96,
          "midi": 64,
          "name": "E4",
          "ticks": 29232,
          "time": 41.90361525,
          "velocity": 0.7795275590551181
        },
        {
          "duration": 0.13761449999999797,
          "durationTicks": 96,
          "midi": 67,
          "name": "G4",
          "ticks": 29280,
          "time": 41.9724225,
          "velocity": 0.7795275590551181
        },
        {
          "duration": 0.13761450000000508,
          "durationTicks": 96,
          "midi": 69,
          "name": "A4",
          "ticks": 29424,
          "time": 42.17884425,
          "velocity": 0.7795275590551181
        },
        {
          "duration": 0.13761449999999797,
          "durationTicks": 96,
          "midi": 55,
          "name": "G3",
          "ticks": 29472,
          "time": 42.2476515,
          "velocity": 0.7795275590551181
        },
        {
          "duration": 0.13761449999999797,
          "durationTicks": 96,
          "midi": 52,
          "name": "E3",
          "ticks": 29472,
          "time": 42.2476515,
          "velocity": 0.7795275590551181
        },
        {
          "duration": 0.13761449999999797,
          "durationTicks": 96,
          "midi": 71,
          "name": "B4",
          "ticks": 29472,
          "time": 42.2476515,
          "velocity": 0.7795275590551181
        },
        {
          "duration": 0.13761449999999797,
          "durationTicks": 96,
          "midi": 74,
          "name": "D5",
          "ticks": 29616,
          "time": 42.45407325,
          "velocity": 0.7795275590551181
        },
        {
          "duration": 0.27522900000000305,
          "durationTicks": 192,
          "midi": 50,
          "name": "D3",
          "ticks": 29664,
          "time": 42.5228805,
          "velocity": 0.7795275590551181
        },
        {
          "duration": 0.27522900000000305,
          "durationTicks": 192,
          "midi": 76,
          "name": "E5",
          "ticks": 29664,
          "time": 42.5228805,
          "velocity": 0.7795275590551181
        },
        {
          "duration": 0.13761449999999797,
          "durationTicks": 96,
          "midi": 54,
          "name": "F#3",
          "ticks": 29856,
          "time": 42.7981095,
          "velocity": 0.7795275590551181
        },
        {
          "duration": 0.13761449999999797,
          "durationTicks": 96,
          "midi": 57,
          "name": "A3",
          "ticks": 29856,
          "time": 42.7981095,
          "velocity": 0.7795275590551181
        },
        {
          "duration": 0.13761449999999797,
          "durationTicks": 96,
          "midi": 74,
          "name": "D5",
          "ticks": 29856,
          "time": 42.7981095,
          "velocity": 0.7795275590551181
        },
        {
          "duration": 0.27522900000000305,
          "durationTicks": 192,
          "midi": 76,
          "name": "E5",
          "ticks": 30048,
          "time": 43.0733385,
          "velocity": 0.7795275590551181
        },
        {
          "duration": 0.13761449999999797,
          "durationTicks": 96,
          "midi": 57,
          "name": "A3",
          "ticks": 30240,
          "time": 43.3485675,
          "velocity": 0.7795275590551181
        },
        {
          "duration": 0.13761449999999797,
          "durationTicks": 96,
          "midi": 54,
          "name": "F#3",
          "ticks": 30240,
          "time": 43.3485675,
          "velocity": 0.7795275590551181
        },
        {
          "duration": 0.13761449999999797,
          "durationTicks": 96,
          "midi": 79,
          "name": "G5",
          "ticks": 30240,
          "time": 43.3485675,
          "velocity": 0.7795275590551181
        },
        {
          "duration": 0.27522900000000305,
          "durationTicks": 192,
          "midi": 81,
          "name": "A5",
          "ticks": 30432,
          "time": 43.6237965,
          "velocity": 0.7795275590551181
        },
        {
          "duration": 0.27522900000000305,
          "durationTicks": 192,
          "midi": 45,
          "name": "A2",
          "ticks": 30432,
          "time": 43.6237965,
          "velocity": 0.7795275590551181
        },
        {
          "duration": 0.13761449999999797,
          "durationTicks": 96,
          "midi": 52,
          "name": "E3",
          "ticks": 30624,
          "time": 43.8990255,
          "velocity": 0.7795275590551181
        },
        {
          "duration": 0.13761449999999797,
          "durationTicks": 96,
          "midi": 49,
          "name": "C#3",
          "ticks": 30624,
          "time": 43.8990255,
          "velocity": 0.7795275590551181
        },
        {
          "duration": 0.13761450000000508,
          "durationTicks": 96,
          "midi": 83,
          "name": "B5",
          "ticks": 30768,
          "time": 44.10544725,
          "velocity": 0.7795275590551181
        },
        {
          "duration": 0.13761449999999797,
          "durationTicks": 96,
          "midi": 81,
          "name": "A5",
          "ticks": 30816,
          "time": 44.1742545,
          "velocity": 0.7795275590551181
        },
        {
          "duration": 0.13761449999999797,
          "durationTicks": 96,
          "midi": 79,
          "name": "G5",
          "ticks": 30960,
          "time": 44.38067625,
          "velocity": 0.7795275590551181
        },
        {
          "duration": 0.13761449999999797,
          "durationTicks": 96,
          "midi": 52,
          "name": "E3",
          "ticks": 31008,
          "time": 44.4494835,
          "velocity": 0.7795275590551181
        },
        {
          "duration": 0.13761449999999797,
          "durationTicks": 96,
          "midi": 49,
          "name": "C#3",
          "ticks": 31008,
          "time": 44.4494835,
          "velocity": 0.7795275590551181
        },
        {
          "duration": 0.13761449999999797,
          "durationTicks": 96,
          "midi": 76,
          "name": "E5",
          "ticks": 31008,
          "time": 44.4494835,
          "velocity": 0.7795275590551181
        },
        {
          "duration": 0.13761449999999797,
          "durationTicks": 96,
          "midi": 74,
          "name": "D5",
          "ticks": 31152,
          "time": 44.65590525,
          "velocity": 0.7795275590551181
        },
        {
          "duration": 0.27522899999999595,
          "durationTicks": 192,
          "midi": 76,
          "name": "E5",
          "ticks": 31200,
          "time": 44.7247125,
          "velocity": 0.7795275590551181
        },
        {
          "duration": 0.27522899999999595,
          "durationTicks": 192,
          "midi": 52,
          "name": "E3",
          "ticks": 31200,
          "time": 44.7247125,
          "velocity": 0.7795275590551181
        },
        {
          "duration": 0.13761450000000508,
          "durationTicks": 96,
          "midi": 55,
          "name": "G3",
          "ticks": 31392,
          "time": 44.9999415,
          "velocity": 0.7795275590551181
        },
        {
          "duration": 0.13761450000000508,
          "durationTicks": 96,
          "midi": 59,
          "name": "B3",
          "ticks": 31392,
          "time": 44.9999415,
          "velocity": 0.7795275590551181
        },
        {
          "duration": 0.13761449999999797,
          "durationTicks": 96,
          "midi": 83,
          "name": "B5",
          "ticks": 31536,
          "time": 45.20636325,
          "velocity": 0.7795275590551181
        },
        {
          "duration": 0.13761449999999797,
          "durationTicks": 96,
          "midi": 81,
          "name": "A5",
          "ticks": 31584,
          "time": 45.2751705,
          "velocity": 0.7795275590551181
        },
        {
          "duration": 0.13761450000000508,
          "durationTicks": 96,
          "midi": 79,
          "name": "G5",
          "ticks": 31728,
          "time": 45.48159225,
          "velocity": 0.7795275590551181
        },
        {
          "duration": 0.13761450000000508,
          "durationTicks": 96,
          "midi": 55,
          "name": "G3",
          "ticks": 31776,
          "time": 45.5503995,
          "velocity": 0.7795275590551181
        },
        {
          "duration": 0.13761450000000508,
          "durationTicks": 96,
          "midi": 59,
          "name": "B3",
          "ticks": 31776,
          "time": 45.5503995,
          "velocity": 0.7795275590551181
        },
        {
          "duration": 0.13761450000000508,
          "durationTicks": 96,
          "midi": 76,
          "name": "E5",
          "ticks": 31776,
          "time": 45.5503995,
          "velocity": 0.7795275590551181
        },
        {
          "duration": 0.13761449999999797,
          "durationTicks": 96,
          "midi": 74,
          "name": "D5",
          "ticks": 31920,
          "time": 45.75682125,
          "velocity": 0.7795275590551181
        },
        {
          "duration": 0.27522900000000305,
          "durationTicks": 192,
          "midi": 76,
          "name": "E5",
          "ticks": 31968,
          "time": 45.8256285,
          "velocity": 0.7795275590551181
        },
        {
          "duration": 0.27522900000000305,
          "durationTicks": 192,
          "midi": 48,
          "name": "C3",
          "ticks": 31968,
          "time": 45.8256285,
          "velocity": 0.7795275590551181
        },
        {
          "duration": 0.13761449999999797,
          "durationTicks": 96,
          "midi": 55,
          "name": "G3",
          "ticks": 32160,
          "time": 46.100857500000004,
          "velocity": 0.7795275590551181
        },
        {
          "duration": 0.13761449999999797,
          "durationTicks": 96,
          "midi": 52,
          "name": "E3",
          "ticks": 32160,
          "time": 46.100857500000004,
          "velocity": 0.7795275590551181
        },
        {
          "duration": 0.13761449999999797,
          "durationTicks": 96,
          "midi": 83,
          "name": "B5",
          "ticks": 32304,
          "time": 46.30727925,
          "velocity": 0.7795275590551181
        },
        {
          "duration": 0.13761449999999797,
          "durationTicks": 96,
          "midi": 81,
          "name": "A5",
          "ticks": 32352,
          "time": 46.3760865,
          "velocity": 0.7795275590551181
        },
        {
          "duration": 0.13761449999999797,
          "durationTicks": 96,
          "midi": 79,
          "name": "G5",
          "ticks": 32496,
          "time": 46.582508250000004,
          "velocity": 0.7795275590551181
        },
        {
          "duration": 0.13761449999999797,
          "durationTicks": 96,
          "midi": 52,
          "name": "E3",
          "ticks": 32544,
          "time": 46.6513155,
          "velocity": 0.7795275590551181
        },
        {
          "duration": 0.13761449999999797,
          "durationTicks": 96,
          "midi": 55,
          "name": "G3",
          "ticks": 32544,
          "time": 46.6513155,
          "velocity": 0.7795275590551181
        },
        {
          "duration": 0.13761449999999797,
          "durationTicks": 96,
          "midi": 76,
          "name": "E5",
          "ticks": 32544,
          "time": 46.6513155,
          "velocity": 0.7795275590551181
        },
        {
          "duration": 0.13761449999999797,
          "durationTicks": 96,
          "midi": 74,
          "name": "D5",
          "ticks": 32688,
          "time": 46.85773725,
          "velocity": 0.7795275590551181
        },
        {
          "duration": 0.13761450000000508,
          "durationTicks": 96,
          "midi": 76,
          "name": "E5",
          "ticks": 32736,
          "time": 46.9265445,
          "velocity": 0.7795275590551181
        },
        {
          "duration": 0.27522900000000305,
          "durationTicks": 192,
          "midi": 50,
          "name": "D3",
          "ticks": 32736,
          "time": 46.9265445,
          "velocity": 0.7795275590551181
        },
        {
          "duration": 0.13761449999999797,
          "durationTicks": 96,
          "midi": 54,
          "name": "F#3",
          "ticks": 32928,
          "time": 47.2017735,
          "velocity": 0.7795275590551181
        },
        {
          "duration": 0.13761449999999797,
          "durationTicks": 96,
          "midi": 57,
          "name": "A3",
          "ticks": 32928,
          "time": 47.2017735,
          "velocity": 0.7795275590551181
        },
        {
          "duration": 0.13761449999999797,
          "durationTicks": 96,
          "midi": 79,
          "name": "G5",
          "ticks": 32928,
          "time": 47.2017735,
          "velocity": 0.7795275590551181
        },
        {
          "duration": 0.13761450000000508,
          "durationTicks": 96,
          "midi": 81,
          "name": "A5",
          "ticks": 33120,
          "time": 47.4770025,
          "velocity": 0.7795275590551181
        },
        {
          "duration": 0.13761449999999797,
          "durationTicks": 96,
          "midi": 57,
          "name": "A3",
          "ticks": 33312,
          "time": 47.7522315,
          "velocity": 0.7795275590551181
        },
        {
          "duration": 0.13761449999999797,
          "durationTicks": 96,
          "midi": 54,
          "name": "F#3",
          "ticks": 33312,
          "time": 47.7522315,
          "velocity": 0.7795275590551181
        },
        {
          "duration": 0.13761449999999797,
          "durationTicks": 96,
          "midi": 83,
          "name": "B5",
          "ticks": 33312,
          "time": 47.7522315,
          "velocity": 0.7795275590551181
        },
        {
          "duration": 0.27522899999999595,
          "durationTicks": 192,
          "midi": 81,
          "name": "A5",
          "ticks": 33504,
          "time": 48.027460500000004,
          "velocity": 0.7795275590551181
        },
        {
          "duration": 0.27522899999999595,
          "durationTicks": 192,
          "midi": 45,
          "name": "A2",
          "ticks": 33504,
          "time": 48.027460500000004,
          "velocity": 0.7795275590551181
        },
        {
          "duration": 0.13761449999999797,
          "durationTicks": 96,
          "midi": 49,
          "name": "C#3",
          "ticks": 33696,
          "time": 48.3026895,
          "velocity": 0.7795275590551181
        },
        {
          "duration": 0.13761449999999797,
          "durationTicks": 96,
          "midi": 52,
          "name": "E3",
          "ticks": 33696,
          "time": 48.3026895,
          "velocity": 0.7795275590551181
        },
        {
          "duration": 0.13761449999999797,
          "durationTicks": 96,
          "midi": 83,
          "name": "B5",
          "ticks": 33840,
          "time": 48.509111250000004,
          "velocity": 0.7795275590551181
        },
        {
          "duration": 0.13761449999999797,
          "durationTicks": 96,
          "midi": 81,
          "name": "A5",
          "ticks": 33888,
          "time": 48.5779185,
          "velocity": 0.7795275590551181
        },
        {
          "duration": 0.13761449999999797,
          "durationTicks": 96,
          "midi": 79,
          "name": "G5",
          "ticks": 34032,
          "time": 48.78434025,
          "velocity": 0.7795275590551181
        },
        {
          "duration": 0.13761450000000508,
          "durationTicks": 96,
          "midi": 49,
          "name": "C#3",
          "ticks": 34080,
          "time": 48.8531475,
          "velocity": 0.7795275590551181
        },
        {
          "duration": 0.13761450000000508,
          "durationTicks": 96,
          "midi": 52,
          "name": "E3",
          "ticks": 34080,
          "time": 48.8531475,
          "velocity": 0.7795275590551181
        },
        {
          "duration": 0.13761450000000508,
          "durationTicks": 96,
          "midi": 76,
          "name": "E5",
          "ticks": 34080,
          "time": 48.8531475,
          "velocity": 0.7795275590551181
        },
        {
          "duration": 0.13761449999999797,
          "durationTicks": 96,
          "midi": 74,
          "name": "D5",
          "ticks": 34224,
          "time": 49.05956925,
          "velocity": 0.7795275590551181
        },
        {
          "duration": 0.27522899999999595,
          "durationTicks": 192,
          "midi": 76,
          "name": "E5",
          "ticks": 34272,
          "time": 49.1283765,
          "velocity": 0.7795275590551181
        },
        {
          "duration": 0.27522899999999595,
          "durationTicks": 192,
          "midi": 52,
          "name": "E3",
          "ticks": 34272,
          "time": 49.1283765,
          "velocity": 0.7795275590551181
        },
        {
          "duration": 0.13761450000000508,
          "durationTicks": 96,
          "midi": 55,
          "name": "G3",
          "ticks": 34464,
          "time": 49.4036055,
          "velocity": 0.7795275590551181
        },
        {
          "duration": 0.13761450000000508,
          "durationTicks": 96,
          "midi": 59,
          "name": "B3",
          "ticks": 34464,
          "time": 49.4036055,
          "velocity": 0.7795275590551181
        },
        {
          "duration": 0.13761449999999797,
          "durationTicks": 96,
          "midi": 83,
          "name": "B5",
          "ticks": 34608,
          "time": 49.61002725,
          "velocity": 0.7795275590551181
        },
        {
          "duration": 0.13761449999999797,
          "durationTicks": 96,
          "midi": 81,
          "name": "A5",
          "ticks": 34656,
          "time": 49.6788345,
          "velocity": 0.7795275590551181
        },
        {
          "duration": 0.13761450000000508,
          "durationTicks": 96,
          "midi": 79,
          "name": "G5",
          "ticks": 34800,
          "time": 49.88525625,
          "velocity": 0.7795275590551181
        },
        {
          "duration": 0.13761449999999797,
          "durationTicks": 96,
          "midi": 55,
          "name": "G3",
          "ticks": 34848,
          "time": 49.954063500000004,
          "velocity": 0.7795275590551181
        },
        {
          "duration": 0.13761449999999797,
          "durationTicks": 96,
          "midi": 59,
          "name": "B3",
          "ticks": 34848,
          "time": 49.954063500000004,
          "velocity": 0.7795275590551181
        },
        {
          "duration": 0.13761449999999797,
          "durationTicks": 96,
          "midi": 76,
          "name": "E5",
          "ticks": 34848,
          "time": 49.954063500000004,
          "velocity": 0.7795275590551181
        },
        {
          "duration": 0.13761449999999797,
          "durationTicks": 96,
          "midi": 74,
          "name": "D5",
          "ticks": 34992,
          "time": 50.16048525,
          "velocity": 0.7795275590551181
        },
        {
          "duration": 0.27522900000000305,
          "durationTicks": 192,
          "midi": 76,
          "name": "E5",
          "ticks": 35040,
          "time": 50.2292925,
          "velocity": 0.7795275590551181
        },
        {
          "duration": 0.27522900000000305,
          "durationTicks": 192,
          "midi": 48,
          "name": "C3",
          "ticks": 35040,
          "time": 50.2292925,
          "velocity": 0.7795275590551181
        },
        {
          "duration": 0.13761449999999797,
          "durationTicks": 96,
          "midi": 52,
          "name": "E3",
          "ticks": 35232,
          "time": 50.5045215,
          "velocity": 0.7795275590551181
        },
        {
          "duration": 0.13761449999999797,
          "durationTicks": 96,
          "midi": 55,
          "name": "G3",
          "ticks": 35232,
          "time": 50.5045215,
          "velocity": 0.7795275590551181
        },
        {
          "duration": 0.13761449999999797,
          "durationTicks": 96,
          "midi": 76,
          "name": "E5",
          "ticks": 35376,
          "time": 50.71094325,
          "velocity": 0.7795275590551181
        },
        {
          "duration": 0.13761450000000508,
          "durationTicks": 96,
          "midi": 79,
          "name": "G5",
          "ticks": 35424,
          "time": 50.7797505,
          "velocity": 0.7795275590551181
        },
        {
          "duration": 0.13761449999999797,
          "durationTicks": 96,
          "midi": 81,
          "name": "A5",
          "ticks": 35568,
          "time": 50.98617225,
          "velocity": 0.7795275590551181
        },
        {
          "duration": 0.13761449999999797,
          "durationTicks": 96,
          "midi": 55,
          "name": "G3",
          "ticks": 35616,
          "time": 51.0549795,
          "velocity": 0.7795275590551181
        },
        {
          "duration": 0.13761449999999797,
          "durationTicks": 96,
          "midi": 52,
          "name": "E3",
          "ticks": 35616,
          "time": 51.0549795,
          "velocity": 0.7795275590551181
        },
        {
          "duration": 0.13761449999999797,
          "durationTicks": 96,
          "midi": 83,
          "name": "B5",
          "ticks": 35616,
          "time": 51.0549795,
          "velocity": 0.7795275590551181
        },
        {
          "duration": 0.13761450000000508,
          "durationTicks": 96,
          "midi": 86,
          "name": "D6",
          "ticks": 35760,
          "time": 51.26140125,
          "velocity": 0.7795275590551181
        },
        {
          "duration": 0.27522900000000305,
          "durationTicks": 192,
          "midi": 50,
          "name": "D3",
          "ticks": 35808,
          "time": 51.3302085,
          "velocity": 0.7795275590551181
        },
        {
          "duration": 0.27522900000000305,
          "durationTicks": 192,
          "midi": 88,
          "name": "E6",
          "ticks": 35808,
          "time": 51.3302085,
          "velocity": 0.7795275590551181
        },
        {
          "duration": 0.13761449999999797,
          "durationTicks": 96,
          "midi": 57,
          "name": "A3",
          "ticks": 36000,
          "time": 51.6054375,
          "velocity": 0.7795275590551181
        },
        {
          "duration": 0.13761449999999797,
          "durationTicks": 96,
          "midi": 54,
          "name": "F#3",
          "ticks": 36000,
          "time": 51.6054375,
          "velocity": 0.7795275590551181
        },
        {
          "duration": 0.13761449999999797,
          "durationTicks": 96,
          "midi": 86,
          "name": "D6",
          "ticks": 36000,
          "time": 51.6054375,
          "velocity": 0.7795275590551181
        },
        {
          "duration": 0.27522899999999595,
          "durationTicks": 192,
          "midi": 88,
          "name": "E6",
          "ticks": 36192,
          "time": 51.880666500000004,
          "velocity": 0.7795275590551181
        },
        {
          "duration": 0.13761449999999797,
          "durationTicks": 96,
          "midi": 54,
          "name": "F#3",
          "ticks": 36384,
          "time": 52.1558955,
          "velocity": 0.7795275590551181
        },
        {
          "duration": 0.13761449999999797,
          "durationTicks": 96,
          "midi": 57,
          "name": "A3",
          "ticks": 36384,
          "time": 52.1558955,
          "velocity": 0.7795275590551181
        },
        {
          "duration": 0.13761449999999797,
          "durationTicks": 96,
          "midi": 91,
          "name": "G6",
          "ticks": 36384,
          "time": 52.1558955,
          "velocity": 0.7795275590551181
        },
        {
          "duration": 0.27522899999999595,
          "durationTicks": 192,
          "midi": 45,
          "name": "A2",
          "ticks": 36576,
          "time": 52.4311245,
          "velocity": 0.7795275590551181
        },
        {
          "duration": 0.27522899999999595,
          "durationTicks": 192,
          "midi": 93,
          "name": "A6",
          "ticks": 36576,
          "time": 52.4311245,
          "velocity": 0.7795275590551181
        },
        {
          "duration": 0.13761450000000508,
          "durationTicks": 96,
          "midi": 52,
          "name": "E3",
          "ticks": 36768,
          "time": 52.7063535,
          "velocity": 0.7795275590551181
        },
        {
          "duration": 0.13761450000000508,
          "durationTicks": 96,
          "midi": 49,
          "name": "C#3",
          "ticks": 36768,
          "time": 52.7063535,
          "velocity": 0.7795275590551181
        },
        {
          "duration": 0.13761450000000508,
          "durationTicks": 96,
          "midi": 52,
          "name": "E3",
          "ticks": 37152,
          "time": 53.2568115,
          "velocity": 0.7795275590551181
        },
        {
          "duration": 0.13761450000000508,
          "durationTicks": 96,
          "midi": 49,
          "name": "C#3",
          "ticks": 37152,
          "time": 53.2568115,
          "velocity": 0.7795275590551181
        },
        {
          "duration": 0.13761449999999797,
          "durationTicks": 96,
          "midi": 64,
          "name": "E4",
          "ticks": 37344,
          "time": 53.5320405,
          "velocity": 0.7795275590551181
        },
        {
          "duration": 0.27522899999999595,
          "durationTicks": 192,
          "midi": 48,
          "name": "C3",
          "ticks": 37344,
          "time": 53.5320405,
          "velocity": 0.7795275590551181
        },
        {
          "duration": 0.13761450000000508,
          "durationTicks": 96,
          "midi": 52,
          "name": "E3",
          "ticks": 37536,
          "time": 53.8072695,
          "velocity": 0.7795275590551181
        },
        {
          "duration": 0.13761450000000508,
          "durationTicks": 96,
          "midi": 55,
          "name": "G3",
          "ticks": 37536,
          "time": 53.8072695,
          "velocity": 0.7795275590551181
        },
        {
          "duration": 0.13761450000000508,
          "durationTicks": 96,
          "midi": 64,
          "name": "E4",
          "ticks": 37536,
          "time": 53.8072695,
          "velocity": 0.7795275590551181
        },
        {
          "duration": 0.13761449999999797,
          "durationTicks": 96,
          "midi": 64,
          "name": "E4",
          "ticks": 37728,
          "time": 54.0824985,
          "velocity": 0.7795275590551181
        },
        {
          "duration": 0.13761449999999797,
          "durationTicks": 96,
          "midi": 52,
          "name": "E3",
          "ticks": 37920,
          "time": 54.3577275,
          "velocity": 0.7795275590551181
        },
        {
          "duration": 0.13761449999999797,
          "durationTicks": 96,
          "midi": 55,
          "name": "G3",
          "ticks": 37920,
          "time": 54.3577275,
          "velocity": 0.7795275590551181
        },
        {
          "duration": 0.13761449999999797,
          "durationTicks": 96,
          "midi": 64,
          "name": "E4",
          "ticks": 37920,
          "time": 54.3577275,
          "velocity": 0.7795275590551181
        },
        {
          "duration": 0.13761449999999797,
          "durationTicks": 96,
          "midi": 62,
          "name": "D4",
          "ticks": 38064,
          "time": 54.56414925,
          "velocity": 0.7795275590551181
        },
        {
          "duration": 0.13761449999999797,
          "durationTicks": 96,
          "midi": 64,
          "name": "E4",
          "ticks": 38112,
          "time": 54.6329565,
          "velocity": 0.7795275590551181
        },
        {
          "duration": 0.27522900000000305,
          "durationTicks": 192,
          "midi": 48,
          "name": "C3",
          "ticks": 38112,
          "time": 54.6329565,
          "velocity": 0.7795275590551181
        },
        {
          "duration": 0.13761449999999797,
          "durationTicks": 96,
          "midi": 67,
          "name": "G4",
          "ticks": 38256,
          "time": 54.83937825,
          "velocity": 0.7795275590551181
        },
        {
          "duration": 0.13761449999999797,
          "durationTicks": 96,
          "midi": 52,
          "name": "E3",
          "ticks": 38304,
          "time": 54.9081855,
          "velocity": 0.7795275590551181
        },
        {
          "duration": 0.13761449999999797,
          "durationTicks": 96,
          "midi": 55,
          "name": "G3",
          "ticks": 38304,
          "time": 54.9081855,
          "velocity": 0.7795275590551181
        },
        {
          "duration": 0.27522899999999595,
          "durationTicks": 192,
          "midi": 64,
          "name": "E4",
          "ticks": 38304,
          "time": 54.9081855,
          "velocity": 0.7795275590551181
        },
        {
          "duration": 0.27522900000000305,
          "durationTicks": 192,
          "midi": 62,
          "name": "D4",
          "ticks": 38496,
          "time": 55.1834145,
          "velocity": 0.7795275590551181
        },
        {
          "duration": 0.13761449999999797,
          "durationTicks": 96,
          "midi": 55,
          "name": "G3",
          "ticks": 38688,
          "time": 55.4586435,
          "velocity": 0.7795275590551181
        },
        {
          "duration": 0.13761449999999797,
          "durationTicks": 96,
          "midi": 52,
          "name": "E3",
          "ticks": 38688,
          "time": 55.4586435,
          "velocity": 0.7795275590551181
        },
        {
          "duration": 0.27522899999999595,
          "durationTicks": 192,
          "midi": 59,
          "name": "B3",
          "ticks": 38688,
          "time": 55.4586435,
          "velocity": 0.7795275590551181
        },
        {
          "duration": 0.13761450000000508,
          "durationTicks": 96,
          "midi": 64,
          "name": "E4",
          "ticks": 38880,
          "time": 55.7338725,
          "velocity": 0.7795275590551181
        },
        {
          "duration": 0.27522900000000305,
          "durationTicks": 192,
          "midi": 50,
          "name": "D3",
          "ticks": 38880,
          "time": 55.7338725,
          "velocity": 0.7795275590551181
        },
        {
          "duration": 0.13761449999999797,
          "durationTicks": 96,
          "midi": 57,
          "name": "A3",
          "ticks": 39072,
          "time": 56.0091015,
          "velocity": 0.7795275590551181
        },
        {
          "duration": 0.13761449999999797,
          "durationTicks": 96,
          "midi": 54,
          "name": "F#3",
          "ticks": 39072,
          "time": 56.0091015,
          "velocity": 0.7795275590551181
        },
        {
          "duration": 0.13761449999999797,
          "durationTicks": 96,
          "midi": 64,
          "name": "E4",
          "ticks": 39072,
          "time": 56.0091015,
          "velocity": 0.7795275590551181
        },
        {
          "duration": 0.13761449999999797,
          "durationTicks": 96,
          "midi": 64,
          "name": "E4",
          "ticks": 39264,
          "time": 56.2843305,
          "velocity": 0.7795275590551181
        },
        {
          "duration": 0.13761449999999797,
          "durationTicks": 96,
          "midi": 57,
          "name": "A3",
          "ticks": 39456,
          "time": 56.5595595,
          "velocity": 0.7795275590551181
        },
        {
          "duration": 0.13761449999999797,
          "durationTicks": 96,
          "midi": 54,
          "name": "F#3",
          "ticks": 39456,
          "time": 56.5595595,
          "velocity": 0.7795275590551181
        },
        {
          "duration": 0.13761449999999797,
          "durationTicks": 96,
          "midi": 64,
          "name": "E4",
          "ticks": 39456,
          "time": 56.5595595,
          "velocity": 0.7795275590551181
        },
        {
          "duration": 0.13761449999999797,
          "durationTicks": 96,
          "midi": 62,
          "name": "D4",
          "ticks": 39600,
          "time": 56.76598125,
          "velocity": 0.7795275590551181
        },
        {
          "duration": 0.13761449999999797,
          "durationTicks": 96,
          "midi": 64,
          "name": "E4",
          "ticks": 39648,
          "time": 56.8347885,
          "velocity": 0.7795275590551181
        },
        {
          "duration": 0.27522899999999595,
          "durationTicks": 192,
          "midi": 50,
          "name": "D3",
          "ticks": 39648,
          "time": 56.8347885,
          "velocity": 0.7795275590551181
        },
        {
          "duration": 0.13761449999999797,
          "durationTicks": 96,
          "midi": 76,
          "name": "E5",
          "ticks": 39792,
          "time": 57.04121025,
          "velocity": 0.7795275590551181
        },
        {
          "duration": 0.13761450000000508,
          "durationTicks": 96,
          "midi": 57,
          "name": "A3",
          "ticks": 39840,
          "time": 57.1100175,
          "velocity": 0.7795275590551181
        },
        {
          "duration": 0.13761450000000508,
          "durationTicks": 96,
          "midi": 54,
          "name": "F#3",
          "ticks": 39840,
          "time": 57.1100175,
          "velocity": 0.7795275590551181
        },
        {
          "duration": 0.27522900000000305,
          "durationTicks": 192,
          "midi": 74,
          "name": "D5",
          "ticks": 39840,
          "time": 57.1100175,
          "velocity": 0.7795275590551181
        },
        {
          "duration": 0.27522899999999595,
          "durationTicks": 192,
          "midi": 71,
          "name": "B4",
          "ticks": 40032,
          "time": 57.3852465,
          "velocity": 0.7795275590551181
        },
        {
          "duration": 0.13761450000000508,
          "durationTicks": 96,
          "midi": 57,
          "name": "A3",
          "ticks": 40224,
          "time": 57.6604755,
          "velocity": 0.7795275590551181
        },
        {
          "duration": 0.13761450000000508,
          "durationTicks": 96,
          "midi": 54,
          "name": "F#3",
          "ticks": 40224,
          "time": 57.6604755,
          "velocity": 0.7795275590551181
        },
        {
          "duration": 0.27522900000000305,
          "durationTicks": 192,
          "midi": 69,
          "name": "A4",
          "ticks": 40224,
          "time": 57.6604755,
          "velocity": 0.7795275590551181
        },
        {
          "duration": 0.13761449999999797,
          "durationTicks": 96,
          "midi": 71,
          "name": "B4",
          "ticks": 40416,
          "time": 57.9357045,
          "velocity": 0.7795275590551181
        },
        {
          "duration": 0.27522900000000305,
          "durationTicks": 192,
          "midi": 52,
          "name": "E3",
          "ticks": 40416,
          "time": 57.9357045,
          "velocity": 0.7795275590551181
        },
        {
          "duration": 0.13761449999999797,
          "durationTicks": 96,
          "midi": 55,
          "name": "G3",
          "ticks": 40608,
          "time": 58.2109335,
          "velocity": 0.7795275590551181
        },
        {
          "duration": 0.13761449999999797,
          "durationTicks": 96,
          "midi": 71,
          "name": "B4",
          "ticks": 40608,
          "time": 58.2109335,
          "velocity": 0.7795275590551181
        },
        {
          "duration": 0.13761449999999797,
          "durationTicks": 96,
          "midi": 59,
          "name": "B3",
          "ticks": 40608,
          "time": 58.2109335,
          "velocity": 0.7795275590551181
        },
        {
          "duration": 0.13761449999999797,
          "durationTicks": 96,
          "midi": 71,
          "name": "B4",
          "ticks": 40800,
          "time": 58.4861625,
          "velocity": 0.7795275590551181
        },
        {
          "duration": 0.13761449999999797,
          "durationTicks": 96,
          "midi": 55,
          "name": "G3",
          "ticks": 40992,
          "time": 58.7613915,
          "velocity": 0.7795275590551181
        },
        {
          "duration": 0.13761449999999797,
          "durationTicks": 96,
          "midi": 71,
          "name": "B4",
          "ticks": 40992,
          "time": 58.7613915,
          "velocity": 0.7795275590551181
        },
        {
          "duration": 0.13761449999999797,
          "durationTicks": 96,
          "midi": 59,
          "name": "B3",
          "ticks": 40992,
          "time": 58.7613915,
          "velocity": 0.7795275590551181
        },
        {
          "duration": 0.13761449999999797,
          "durationTicks": 96,
          "midi": 69,
          "name": "A4",
          "ticks": 41136,
          "time": 58.96781325,
          "velocity": 0.7795275590551181
        },
        {
          "duration": 0.13761450000000508,
          "durationTicks": 96,
          "midi": 71,
          "name": "B4",
          "ticks": 41184,
          "time": 59.0366205,
          "velocity": 0.7795275590551181
        },
        {
          "duration": 0.27522900000000305,
          "durationTicks": 192,
          "midi": 52,
          "name": "E3",
          "ticks": 41184,
          "time": 59.0366205,
          "velocity": 0.7795275590551181
        },
        {
          "duration": 0.13761449999999797,
          "durationTicks": 96,
          "midi": 74,
          "name": "D5",
          "ticks": 41328,
          "time": 59.24304225,
          "velocity": 0.7795275590551181
        },
        {
          "duration": 0.13761449999999797,
          "durationTicks": 96,
          "midi": 55,
          "name": "G3",
          "ticks": 41376,
          "time": 59.3118495,
          "velocity": 0.7795275590551181
        },
        {
          "duration": 0.13761449999999797,
          "durationTicks": 96,
          "midi": 59,
          "name": "B3",
          "ticks": 41376,
          "time": 59.3118495,
          "velocity": 0.7795275590551181
        },
        {
          "duration": 0.27522899999999595,
          "durationTicks": 192,
          "midi": 71,
          "name": "B4",
          "ticks": 41376,
          "time": 59.3118495,
          "velocity": 0.7795275590551181
        },
        {
          "duration": 0.27522900000000305,
          "durationTicks": 192,
          "midi": 69,
          "name": "A4",
          "ticks": 41568,
          "time": 59.5870785,
          "velocity": 0.7795275590551181
        },
        {
          "duration": 0.13761449999999797,
          "durationTicks": 96,
          "midi": 55,
          "name": "G3",
          "ticks": 41760,
          "time": 59.8623075,
          "velocity": 0.7795275590551181
        },
        {
          "duration": 0.13761449999999797,
          "durationTicks": 96,
          "midi": 59,
          "name": "B3",
          "ticks": 41760,
          "time": 59.8623075,
          "velocity": 0.7795275590551181
        },
        {
          "duration": 0.27522900000000305,
          "durationTicks": 192,
          "midi": 67,
          "name": "G4",
          "ticks": 41760,
          "time": 59.8623075,
          "velocity": 0.7795275590551181
        },
        {
          "duration": 0.13761449999999797,
          "durationTicks": 96,
          "midi": 71,
          "name": "B4",
          "ticks": 41952,
          "time": 60.1375365,
          "velocity": 0.7795275590551181
        },
        {
          "duration": 0.27522899999999595,
          "durationTicks": 192,
          "midi": 55,
          "name": "G3",
          "ticks": 41952,
          "time": 60.1375365,
          "velocity": 0.7795275590551181
        },
        {
          "duration": 0.13761449999999797,
          "durationTicks": 96,
          "midi": 71,
          "name": "B4",
          "ticks": 42144,
          "time": 60.4127655,
          "velocity": 0.7795275590551181
        },
        {
          "duration": 0.13761449999999797,
          "durationTicks": 96,
          "midi": 62,
          "name": "D4",
          "ticks": 42144,
          "time": 60.4127655,
          "velocity": 0.7795275590551181
        },
        {
          "duration": 0.13761449999999797,
          "durationTicks": 96,
          "midi": 59,
          "name": "B3",
          "ticks": 42144,
          "time": 60.4127655,
          "velocity": 0.7795275590551181
        },
        {
          "duration": 0.13761449999999797,
          "durationTicks": 96,
          "midi": 71,
          "name": "B4",
          "ticks": 42336,
          "time": 60.6879945,
          "velocity": 0.7795275590551181
        },
        {
          "duration": 0.13761450000000508,
          "durationTicks": 96,
          "midi": 59,
          "name": "B3",
          "ticks": 42528,
          "time": 60.9632235,
          "velocity": 0.7795275590551181
        },
        {
          "duration": 0.13761450000000508,
          "durationTicks": 96,
          "midi": 71,
          "name": "B4",
          "ticks": 42528,
          "time": 60.9632235,
          "velocity": 0.7795275590551181
        },
        {
          "duration": 0.13761450000000508,
          "durationTicks": 96,
          "midi": 62,
          "name": "D4",
          "ticks": 42528,
          "time": 60.9632235,
          "velocity": 0.7795275590551181
        },
        {
          "duration": 0.13761449999999797,
          "durationTicks": 96,
          "midi": 69,
          "name": "A4",
          "ticks": 42672,
          "time": 61.16964525,
          "velocity": 0.7795275590551181
        },
        {
          "duration": 0.13761449999999797,
          "durationTicks": 96,
          "midi": 71,
          "name": "B4",
          "ticks": 42720,
          "time": 61.2384525,
          "velocity": 0.7795275590551181
        },
        {
          "duration": 0.27522899999999595,
          "durationTicks": 192,
          "midi": 55,
          "name": "G3",
          "ticks": 42720,
          "time": 61.2384525,
          "velocity": 0.7795275590551181
        },
        {
          "duration": 0.13761450000000508,
          "durationTicks": 96,
          "midi": 74,
          "name": "D5",
          "ticks": 42864,
          "time": 61.44487425,
          "velocity": 0.7795275590551181
        },
        {
          "duration": 0.13761450000000508,
          "durationTicks": 96,
          "midi": 62,
          "name": "D4",
          "ticks": 42912,
          "time": 61.5136815,
          "velocity": 0.7795275590551181
        },
        {
          "duration": 0.13761450000000508,
          "durationTicks": 96,
          "midi": 59,
          "name": "B3",
          "ticks": 42912,
          "time": 61.5136815,
          "velocity": 0.7795275590551181
        },
        {
          "duration": 0.27522900000000305,
          "durationTicks": 192,
          "midi": 71,
          "name": "B4",
          "ticks": 42912,
          "time": 61.5136815,
          "velocity": 0.7795275590551181
        },
        {
          "duration": 0.27522900000000305,
          "durationTicks": 192,
          "midi": 69,
          "name": "A4",
          "ticks": 43104,
          "time": 61.7889105,
          "velocity": 0.7795275590551181
        },
        {
          "duration": 0.13761449999999797,
          "durationTicks": 96,
          "midi": 62,
          "name": "D4",
          "ticks": 43296,
          "time": 62.0641395,
          "velocity": 0.7795275590551181
        },
        {
          "duration": 0.13761449999999797,
          "durationTicks": 96,
          "midi": 59,
          "name": "B3",
          "ticks": 43296,
          "time": 62.0641395,
          "velocity": 0.7795275590551181
        },
        {
          "duration": 0.27522899999999595,
          "durationTicks": 192,
          "midi": 67,
          "name": "G4",
          "ticks": 43296,
          "time": 62.0641395,
          "velocity": 0.7795275590551181
        },
        {
          "duration": 0.13761449999999797,
          "durationTicks": 96,
          "midi": 64,
          "name": "E4",
          "ticks": 43488,
          "time": 62.3393685,
          "velocity": 0.7795275590551181
        },
        {
          "duration": 0.27522900000000305,
          "durationTicks": 192,
          "midi": 48,
          "name": "C3",
          "ticks": 43488,
          "time": 62.3393685,
          "velocity": 0.7795275590551181
        },
        {
          "duration": 0.13761449999999797,
          "durationTicks": 96,
          "midi": 55,
          "name": "G3",
          "ticks": 43680,
          "time": 62.6145975,
          "velocity": 0.7795275590551181
        },
        {
          "duration": 0.13761449999999797,
          "durationTicks": 96,
          "midi": 52,
          "name": "E3",
          "ticks": 43680,
          "time": 62.6145975,
          "velocity": 0.7795275590551181
        },
        {
          "duration": 0.13761449999999797,
          "durationTicks": 96,
          "midi": 64,
          "name": "E4",
          "ticks": 43680,
          "time": 62.6145975,
          "velocity": 0.7795275590551181
        },
        {
          "duration": 0.13761450000000508,
          "durationTicks": 96,
          "midi": 64,
          "name": "E4",
          "ticks": 43872,
          "time": 62.8898265,
          "velocity": 0.7795275590551181
        },
        {
          "duration": 0.13761449999999797,
          "durationTicks": 96,
          "midi": 55,
          "name": "G3",
          "ticks": 44064,
          "time": 63.1650555,
          "velocity": 0.7795275590551181
        },
        {
          "duration": 0.13761449999999797,
          "durationTicks": 96,
          "midi": 52,
          "name": "E3",
          "ticks": 44064,
          "time": 63.1650555,
          "velocity": 0.7795275590551181
        },
        {
          "duration": 0.13761449999999797,
          "durationTicks": 96,
          "midi": 64,
          "name": "E4",
          "ticks": 44064,
          "time": 63.1650555,
          "velocity": 0.7795275590551181
        },
        {
          "duration": 0.13761450000000508,
          "durationTicks": 96,
          "midi": 62,
          "name": "D4",
          "ticks": 44208,
          "time": 63.37147725,
          "velocity": 0.7795275590551181
        },
        {
          "duration": 0.13761450000000508,
          "durationTicks": 96,
          "midi": 64,
          "name": "E4",
          "ticks": 44256,
          "time": 63.4402845,
          "velocity": 0.7795275590551181
        },
        {
          "duration": 0.27522900000000305,
          "durationTicks": 192,
          "midi": 48,
          "name": "C3",
          "ticks": 44256,
          "time": 63.4402845,
          "velocity": 0.7795275590551181
        },
        {
          "duration": 0.13761449999999797,
          "durationTicks": 96,
          "midi": 67,
          "name": "G4",
          "ticks": 44400,
          "time": 63.64670625,
          "velocity": 0.7795275590551181
        },
        {
          "duration": 0.13761449999999797,
          "durationTicks": 96,
          "midi": 55,
          "name": "G3",
          "ticks": 44448,
          "time": 63.7155135,
          "velocity": 0.7795275590551181
        },
        {
          "duration": 0.13761449999999797,
          "durationTicks": 96,
          "midi": 52,
          "name": "E3",
          "ticks": 44448,
          "time": 63.7155135,
          "velocity": 0.7795275590551181
        },
        {
          "duration": 0.27522900000000305,
          "durationTicks": 192,
          "midi": 64,
          "name": "E4",
          "ticks": 44448,
          "time": 63.7155135,
          "velocity": 0.7795275590551181
        },
        {
          "duration": 0.27522900000000305,
          "durationTicks": 192,
          "midi": 62,
          "name": "D4",
          "ticks": 44640,
          "time": 63.9907425,
          "velocity": 0.7795275590551181
        },
        {
          "duration": 0.13761449999999797,
          "durationTicks": 96,
          "midi": 52,
          "name": "E3",
          "ticks": 44832,
          "time": 64.2659715,
          "velocity": 0.7795275590551181
        },
        {
          "duration": 0.13761449999999797,
          "durationTicks": 96,
          "midi": 55,
          "name": "G3",
          "ticks": 44832,
          "time": 64.2659715,
          "velocity": 0.7795275590551181
        },
        {
          "duration": 0.27522899999999595,
          "durationTicks": 192,
          "midi": 59,
          "name": "B3",
          "ticks": 44832,
          "time": 64.2659715,
          "velocity": 0.7795275590551181
        },
        {
          "duration": 0.13761449999999797,
          "durationTicks": 96,
          "midi": 64,
          "name": "E4",
          "ticks": 45024,
          "time": 64.5412005,
          "velocity": 0.7795275590551181
        },
        {
          "duration": 0.27522899999999595,
          "durationTicks": 192,
          "midi": 49,
          "name": "C#3",
          "ticks": 45024,
          "time": 64.5412005,
          "velocity": 0.7795275590551181
        },
        {
          "duration": 0.13761449999999797,
          "durationTicks": 96,
          "midi": 55,
          "name": "G3",
          "ticks": 45216,
          "time": 64.8164295,
          "velocity": 0.7795275590551181
        },
        {
          "duration": 0.13761449999999797,
          "durationTicks": 96,
          "midi": 52,
          "name": "E3",
          "ticks": 45216,
          "time": 64.8164295,
          "velocity": 0.7795275590551181
        },
        {
          "duration": 0.13761449999999797,
          "durationTicks": 96,
          "midi": 64,
          "name": "E4",
          "ticks": 45216,
          "time": 64.8164295,
          "velocity": 0.7795275590551181
        },
        {
          "duration": 0.13761450000001219,
          "durationTicks": 96,
          "midi": 64,
          "name": "E4",
          "ticks": 45408,
          "time": 65.0916585,
          "velocity": 0.7795275590551181
        },
        {
          "duration": 0.13761449999999797,
          "durationTicks": 96,
          "midi": 55,
          "name": "G3",
          "ticks": 45600,
          "time": 65.3668875,
          "velocity": 0.7795275590551181
        },
        {
          "duration": 0.13761449999999797,
          "durationTicks": 96,
          "midi": 52,
          "name": "E3",
          "ticks": 45600,
          "time": 65.3668875,
          "velocity": 0.7795275590551181
        },
        {
          "duration": 0.13761449999999797,
          "durationTicks": 96,
          "midi": 64,
          "name": "E4",
          "ticks": 45600,
          "time": 65.3668875,
          "velocity": 0.7795275590551181
        },
        {
          "duration": 0.13761450000001219,
          "durationTicks": 96,
          "midi": 62,
          "name": "D4",
          "ticks": 45744,
          "time": 65.57330925,
          "velocity": 0.7795275590551181
        },
        {
          "duration": 0.13761449999999797,
          "durationTicks": 96,
          "midi": 64,
          "name": "E4",
          "ticks": 45792,
          "time": 65.6421165,
          "velocity": 0.7795275590551181
        },
        {
          "duration": 0.27522899999999595,
          "durationTicks": 192,
          "midi": 49,
          "name": "C#3",
          "ticks": 45792,
          "time": 65.6421165,
          "velocity": 0.7795275590551181
        },
        {
          "duration": 0.13761449999999797,
          "durationTicks": 96,
          "midi": 76,
          "name": "E5",
          "ticks": 45936,
          "time": 65.84853825,
          "velocity": 0.7795275590551181
        },
        {
          "duration": 0.13761449999999797,
          "durationTicks": 96,
          "midi": 52,
          "name": "E3",
          "ticks": 45984,
          "time": 65.9173455,
          "velocity": 0.7795275590551181
        },
        {
          "duration": 0.13761449999999797,
          "durationTicks": 96,
          "midi": 55,
          "name": "G3",
          "ticks": 45984,
          "time": 65.9173455,
          "velocity": 0.7795275590551181
        },
        {
          "duration": 0.27522900000001016,
          "durationTicks": 192,
          "midi": 74,
          "name": "D5",
          "ticks": 45984,
          "time": 65.9173455,
          "velocity": 0.7795275590551181
        },
        {
          "duration": 0.27522899999999595,
          "durationTicks": 192,
          "midi": 71,
          "name": "B4",
          "ticks": 46176,
          "time": 66.1925745,
          "velocity": 0.7795275590551181
        },
        {
          "duration": 0.13761449999999797,
          "durationTicks": 96,
          "midi": 55,
          "name": "G3",
          "ticks": 46368,
          "time": 66.4678035,
          "velocity": 0.7795275590551181
        },
        {
          "duration": 0.13761449999999797,
          "durationTicks": 96,
          "midi": 52,
          "name": "E3",
          "ticks": 46368,
          "time": 66.4678035,
          "velocity": 0.7795275590551181
        },
        {
          "duration": 0.27522899999999595,
          "durationTicks": 192,
          "midi": 69,
          "name": "A4",
          "ticks": 46368,
          "time": 66.4678035,
          "velocity": 0.7795275590551181
        },
        {
          "duration": 0.13761449999999797,
          "durationTicks": 96,
          "midi": 71,
          "name": "B4",
          "ticks": 46560,
          "time": 66.7430325,
          "velocity": 0.7795275590551181
        },
        {
          "duration": 0.27522899999999595,
          "durationTicks": 192,
          "midi": 50,
          "name": "D3",
          "ticks": 46560,
          "time": 66.7430325,
          "velocity": 0.7795275590551181
        },
        {
          "duration": 0.13761450000001219,
          "durationTicks": 96,
          "midi": 54,
          "name": "F#3",
          "ticks": 46752,
          "time": 67.0182615,
          "velocity": 0.7795275590551181
        },
        {
          "duration": 0.13761450000001219,
          "durationTicks": 96,
          "midi": 57,
          "name": "A3",
          "ticks": 46752,
          "time": 67.0182615,
          "velocity": 0.7795275590551181
        },
        {
          "duration": 0.13761450000001219,
          "durationTicks": 96,
          "midi": 71,
          "name": "B4",
          "ticks": 46752,
          "time": 67.0182615,
          "velocity": 0.7795275590551181
        },
        {
          "duration": 0.13761449999999797,
          "durationTicks": 96,
          "midi": 71,
          "name": "B4",
          "ticks": 46944,
          "time": 67.2934905,
          "velocity": 0.7795275590551181
        },
        {
          "duration": 0.13761450000001219,
          "durationTicks": 96,
          "midi": 69,
          "name": "A4",
          "ticks": 47088,
          "time": 67.49991225,
          "velocity": 0.7795275590551181
        },
        {
          "duration": 0.13761449999999797,
          "durationTicks": 96,
          "midi": 57,
          "name": "A3",
          "ticks": 47136,
          "time": 67.5687195,
          "velocity": 0.7795275590551181
        },
        {
          "duration": 0.13761449999999797,
          "durationTicks": 96,
          "midi": 54,
          "name": "F#3",
          "ticks": 47136,
          "time": 67.5687195,
          "velocity": 0.7795275590551181
        },
        {
          "duration": 0.13761449999999797,
          "durationTicks": 96,
          "midi": 67,
          "name": "G4",
          "ticks": 47136,
          "time": 67.5687195,
          "velocity": 0.7795275590551181
        },
        {
          "duration": 0.13761449999999797,
          "durationTicks": 96,
          "midi": 69,
          "name": "A4",
          "ticks": 47280,
          "time": 67.77514125,
          "velocity": 0.7795275590551181
        },
        {
          "duration": 0.13761449999999797,
          "durationTicks": 96,
          "midi": 71,
          "name": "B4",
          "ticks": 47328,
          "time": 67.8439485,
          "velocity": 0.7795275590551181
        },
        {
          "duration": 0.27522900000001016,
          "durationTicks": 192,
          "midi": 50,
          "name": "D3",
          "ticks": 47328,
          "time": 67.8439485,
          "velocity": 0.7795275590551181
        },
        {
          "duration": 0.13761449999999797,
          "durationTicks": 96,
          "midi": 54,
          "name": "F#3",
          "ticks": 47520,
          "time": 68.1191775,
          "velocity": 0.7795275590551181
        },
        {
          "duration": 0.13761449999999797,
          "durationTicks": 96,
          "midi": 57,
          "name": "A3",
          "ticks": 47520,
          "time": 68.1191775,
          "velocity": 0.7795275590551181
        },
        {
          "duration": 0.13761449999999797,
          "durationTicks": 96,
          "midi": 71,
          "name": "B4",
          "ticks": 47520,
          "time": 68.1191775,
          "velocity": 0.7795275590551181
        },
        {
          "duration": 0.13761449999999797,
          "durationTicks": 96,
          "midi": 71,
          "name": "B4",
          "ticks": 47712,
          "time": 68.3944065,
          "velocity": 0.7795275590551181
        },
        {
          "duration": 0.13761449999999797,
          "durationTicks": 96,
          "midi": 69,
          "name": "A4",
          "ticks": 47856,
          "time": 68.60082825,
          "velocity": 0.7795275590551181
        },
        {
          "duration": 0.13761449999999797,
          "durationTicks": 96,
          "midi": 54,
          "name": "F#3",
          "ticks": 47904,
          "time": 68.6696355,
          "velocity": 0.7795275590551181
        },
        {
          "duration": 0.13761449999999797,
          "durationTicks": 96,
          "midi": 57,
          "name": "A3",
          "ticks": 47904,
          "time": 68.6696355,
          "velocity": 0.7795275590551181
        },
        {
          "duration": 0.13761449999999797,
          "durationTicks": 96,
          "midi": 67,
          "name": "G4",
          "ticks": 47904,
          "time": 68.6696355,
          "velocity": 0.7795275590551181
        },
        {
          "duration": 0.13761449999999797,
          "durationTicks": 96,
          "midi": 69,
          "name": "A4",
          "ticks": 48048,
          "time": 68.87605725,
          "velocity": 0.7795275590551181
        },
        {
          "duration": 0.13761450000001219,
          "durationTicks": 96,
          "midi": 71,
          "name": "B4",
          "ticks": 48096,
          "time": 68.9448645,
          "velocity": 0.7795275590551181
        },
        {
          "duration": 0.27522900000001016,
          "durationTicks": 192,
          "midi": 50,
          "name": "D3",
          "ticks": 48096,
          "time": 68.9448645,
          "velocity": 0.7795275590551181
        },
        {
          "duration": 0.13761449999999797,
          "durationTicks": 96,
          "midi": 54,
          "name": "F#3",
          "ticks": 48288,
          "time": 69.2200935,
          "velocity": 0.7795275590551181
        },
        {
          "duration": 0.13761449999999797,
          "durationTicks": 96,
          "midi": 57,
          "name": "A3",
          "ticks": 48288,
          "time": 69.2200935,
          "velocity": 0.7795275590551181
        },
        {
          "duration": 0.13761449999999797,
          "durationTicks": 96,
          "midi": 71,
          "name": "B4",
          "ticks": 48288,
          "time": 69.2200935,
          "velocity": 0.7795275590551181
        },
        {
          "duration": 0.13761449999999797,
          "durationTicks": 96,
          "midi": 66,
          "name": "F#4",
          "ticks": 48288,
          "time": 69.2200935,
          "velocity": 0.7795275590551181
        },
        {
          "duration": 0.13761449999999797,
          "durationTicks": 96,
          "midi": 50,
          "name": "D3",
          "ticks": 48480,
          "time": 69.4953225,
          "velocity": 0.7795275590551181
        },
        {
          "duration": 0.13761449999999797,
          "durationTicks": 96,
          "midi": 54,
          "name": "F#3",
          "ticks": 48480,
          "time": 69.4953225,
          "velocity": 0.7795275590551181
        },
        {
          "duration": 0.13761449999999797,
          "durationTicks": 96,
          "midi": 57,
          "name": "A3",
          "ticks": 48480,
          "time": 69.4953225,
          "velocity": 0.7795275590551181
        },
        {
          "duration": 0.13761449999999797,
          "durationTicks": 96,
          "midi": 66,
          "name": "F#4",
          "ticks": 48480,
          "time": 69.4953225,
          "velocity": 0.7795275590551181
        },
        {
          "duration": 0.13761449999999797,
          "durationTicks": 96,
          "midi": 71,
          "name": "B4",
          "ticks": 48480,
          "time": 69.4953225,
          "velocity": 0.7795275590551181
        },
        {
          "duration": 0.13761449999999797,
          "durationTicks": 96,
          "midi": 50,
          "name": "D3",
          "ticks": 48672,
          "time": 69.7705515,
          "velocity": 0.7795275590551181
        },
        {
          "duration": 0.13761449999999797,
          "durationTicks": 96,
          "midi": 54,
          "name": "F#3",
          "ticks": 48672,
          "time": 69.7705515,
          "velocity": 0.7795275590551181
        },
        {
          "duration": 0.13761449999999797,
          "durationTicks": 96,
          "midi": 57,
          "name": "A3",
          "ticks": 48672,
          "time": 69.7705515,
          "velocity": 0.7795275590551181
        },
        {
          "duration": 0.13761449999999797,
          "durationTicks": 96,
          "midi": 66,
          "name": "F#4",
          "ticks": 48672,
          "time": 69.7705515,
          "velocity": 0.7795275590551181
        },
        {
          "duration": 0.13761449999999797,
          "durationTicks": 96,
          "midi": 71,
          "name": "B4",
          "ticks": 48672,
          "time": 69.7705515,
          "velocity": 0.7795275590551181
        },
        {
          "duration": 0.4128434999999939,
          "durationTicks": 288,
          "midi": 51,
          "name": "D#3",
          "ticks": 48864,
          "time": 70.0457805,
          "velocity": 0.7795275590551181
        },
        {
          "duration": 0.4128434999999939,
          "durationTicks": 288,
          "midi": 54,
          "name": "F#3",
          "ticks": 48864,
          "time": 70.0457805,
          "velocity": 0.7795275590551181
        },
        {
          "duration": 0.6880724999999899,
          "durationTicks": 480,
          "midi": 66,
          "name": "F#4",
          "ticks": 48864,
          "time": 70.0457805,
          "velocity": 0.7795275590551181
        },
        {
          "duration": 0.6880724999999899,
          "durationTicks": 480,
          "midi": 71,
          "name": "B4",
          "ticks": 48864,
          "time": 70.0457805,
          "velocity": 0.7795275590551181
        },
        {
          "duration": 0.6880724999999899,
          "durationTicks": 480,
          "midi": 59,
          "name": "B3",
          "ticks": 48864,
          "time": 70.0457805,
          "velocity": 0.7795275590551181
        },
        {
          "duration": 0.27522899999999595,
          "durationTicks": 192,
          "midi": 51,
          "name": "D#3",
          "ticks": 49152,
          "time": 70.458624,
          "velocity": 0.7795275590551181
        },
        {
          "duration": 0.27522899999999595,
          "durationTicks": 192,
          "midi": 54,
          "name": "F#3",
          "ticks": 49152,
          "time": 70.458624,
          "velocity": 0.7795275590551181
        },
        {
          "duration": 0.13761449999999797,
          "durationTicks": 96,
          "midi": 71,
          "name": "B4",
          "ticks": 49488,
          "time": 70.94027475,
          "velocity": 0.7795275590551181
        },
        {
          "duration": 0.13761449999999797,
          "durationTicks": 96,
          "midi": 69,
          "name": "A4",
          "ticks": 49536,
          "time": 71.009082,
          "velocity": 0.7795275590551181
        },
        {
          "duration": 0.13761449999999797,
          "durationTicks": 96,
          "midi": 67,
          "name": "G4",
          "ticks": 49680,
          "time": 71.21550375,
          "velocity": 0.7795275590551181
        },
        {
          "duration": 0.13761449999999797,
          "durationTicks": 96,
          "midi": 64,
          "name": "E4",
          "ticks": 49728,
          "time": 71.284311,
          "velocity": 0.7795275590551181
        },
        {
          "duration": 0.13761449999999797,
          "durationTicks": 96,
          "midi": 62,
          "name": "D4",
          "ticks": 49872,
          "time": 71.49073275,
          "velocity": 0.7795275590551181
        },
        {
          "duration": 0.27522899999999595,
          "durationTicks": 192,
          "midi": 64,
          "name": "E4",
          "ticks": 49920,
          "time": 71.55954,
          "velocity": 0.7795275590551181
        },
        {
          "duration": 0.27522899999999595,
          "durationTicks": 192,
          "midi": 52,
          "name": "E3",
          "ticks": 49920,
          "time": 71.55954,
          "velocity": 0.7795275590551181
        },
        {
          "duration": 0.13761450000001219,
          "durationTicks": 96,
          "midi": 55,
          "name": "G3",
          "ticks": 50112,
          "time": 71.834769,
          "velocity": 0.7795275590551181
        },
        {
          "duration": 0.13761450000001219,
          "durationTicks": 96,
          "midi": 59,
          "name": "B3",
          "ticks": 50112,
          "time": 71.834769,
          "velocity": 0.7795275590551181
        },
        {
          "duration": 0.13761449999999797,
          "durationTicks": 96,
          "midi": 71,
          "name": "B4",
          "ticks": 50256,
          "time": 72.04119075,
          "velocity": 0.7795275590551181
        },
        {
          "duration": 0.13761449999999797,
          "durationTicks": 96,
          "midi": 69,
          "name": "A4",
          "ticks": 50304,
          "time": 72.109998,
          "velocity": 0.7795275590551181
        },
        {
          "duration": 0.13761450000001219,
          "durationTicks": 96,
          "midi": 67,
          "name": "G4",
          "ticks": 50448,
          "time": 72.31641975,
          "velocity": 0.7795275590551181
        },
        {
          "duration": 0.13761449999999797,
          "durationTicks": 96,
          "midi": 55,
          "name": "G3",
          "ticks": 50496,
          "time": 72.385227,
          "velocity": 0.7795275590551181
        },
        {
          "duration": 0.13761449999999797,
          "durationTicks": 96,
          "midi": 64,
          "name": "E4",
          "ticks": 50496,
          "time": 72.385227,
          "velocity": 0.7795275590551181
        },
        {
          "duration": 0.13761449999999797,
          "durationTicks": 96,
          "midi": 59,
          "name": "B3",
          "ticks": 50496,
          "time": 72.385227,
          "velocity": 0.7795275590551181
        },
        {
          "duration": 0.13761449999999797,
          "durationTicks": 96,
          "midi": 62,
          "name": "D4",
          "ticks": 50640,
          "time": 72.59164875,
          "velocity": 0.7795275590551181
        },
        {
          "duration": 0.27522900000001016,
          "durationTicks": 192,
          "midi": 64,
          "name": "E4",
          "ticks": 50688,
          "time": 72.660456,
          "velocity": 0.7795275590551181
        },
        {
          "duration": 0.27522900000001016,
          "durationTicks": 192,
          "midi": 48,
          "name": "C3",
          "ticks": 50688,
          "time": 72.660456,
          "velocity": 0.7795275590551181
        },
        {
          "duration": 0.13761449999999797,
          "durationTicks": 96,
          "midi": 55,
          "name": "G3",
          "ticks": 50880,
          "time": 72.935685,
          "velocity": 0.7795275590551181
        },
        {
          "duration": 0.13761449999999797,
          "durationTicks": 96,
          "midi": 52,
          "name": "E3",
          "ticks": 50880,
          "time": 72.935685,
          "velocity": 0.7795275590551181
        },
        {
          "duration": 0.13761449999999797,
          "durationTicks": 96,
          "midi": 71,
          "name": "B4",
          "ticks": 51024,
          "time": 73.14210675,
          "velocity": 0.7795275590551181
        },
        {
          "duration": 0.13761449999999797,
          "durationTicks": 96,
          "midi": 69,
          "name": "A4",
          "ticks": 51072,
          "time": 73.210914,
          "velocity": 0.7795275590551181
        },
        {
          "duration": 0.13761449999999797,
          "durationTicks": 96,
          "midi": 67,
          "name": "G4",
          "ticks": 51216,
          "time": 73.41733575,
          "velocity": 0.7795275590551181
        },
        {
          "duration": 0.13761449999999797,
          "durationTicks": 96,
          "midi": 55,
          "name": "G3",
          "ticks": 51264,
          "time": 73.486143,
          "velocity": 0.7795275590551181
        },
        {
          "duration": 0.13761449999999797,
          "durationTicks": 96,
          "midi": 52,
          "name": "E3",
          "ticks": 51264,
          "time": 73.486143,
          "velocity": 0.7795275590551181
        },
        {
          "duration": 0.13761449999999797,
          "durationTicks": 96,
          "midi": 64,
          "name": "E4",
          "ticks": 51264,
          "time": 73.486143,
          "velocity": 0.7795275590551181
        },
        {
          "duration": 0.13761449999999797,
          "durationTicks": 96,
          "midi": 62,
          "name": "D4",
          "ticks": 51408,
          "time": 73.69256475,
          "velocity": 0.7795275590551181
        },
        {
          "duration": 0.13761450000001219,
          "durationTicks": 96,
          "midi": 64,
          "name": "E4",
          "ticks": 51456,
          "time": 73.761372,
          "velocity": 0.7795275590551181
        },
        {
          "duration": 0.27522900000001016,
          "durationTicks": 192,
          "midi": 50,
          "name": "D3",
          "ticks": 51456,
          "time": 73.761372,
          "velocity": 0.7795275590551181
        },
        {
          "duration": 0.13761449999999797,
          "durationTicks": 96,
          "midi": 57,
          "name": "A3",
          "ticks": 51648,
          "time": 74.036601,
          "velocity": 0.7795275590551181
        },
        {
          "duration": 0.13761449999999797,
          "durationTicks": 96,
          "midi": 54,
          "name": "F#3",
          "ticks": 51648,
          "time": 74.036601,
          "velocity": 0.7795275590551181
        },
        {
          "duration": 0.13761449999999797,
          "durationTicks": 96,
          "midi": 67,
          "name": "G4",
          "ticks": 51648,
          "time": 74.036601,
          "velocity": 0.7795275590551181
        },
        {
          "duration": 0.13761449999999797,
          "durationTicks": 96,
          "midi": 57,
          "name": "A3",
          "ticks": 51840,
          "time": 74.31183,
          "velocity": 0.7795275590551181
        },
        {
          "duration": 0.13761449999999797,
          "durationTicks": 96,
          "midi": 54,
          "name": "F#3",
          "ticks": 51840,
          "time": 74.31183,
          "velocity": 0.7795275590551181
        },
        {
          "duration": 0.13761449999999797,
          "durationTicks": 96,
          "midi": 69,
          "name": "A4",
          "ticks": 51840,
          "time": 74.31183,
          "velocity": 0.7795275590551181
        },
        {
          "duration": 0.13761449999999797,
          "durationTicks": 96,
          "midi": 57,
          "name": "A3",
          "ticks": 52032,
          "time": 74.587059,
          "velocity": 0.7795275590551181
        },
        {
          "duration": 0.13761449999999797,
          "durationTicks": 96,
          "midi": 54,
          "name": "F#3",
          "ticks": 52032,
          "time": 74.587059,
          "velocity": 0.7795275590551181
        },
        {
          "duration": 0.13761449999999797,
          "durationTicks": 96,
          "midi": 71,
          "name": "B4",
          "ticks": 52032,
          "time": 74.587059,
          "velocity": 0.7795275590551181
        },
        {
          "duration": 0.27522899999999595,
          "durationTicks": 192,
          "midi": 69,
          "name": "A4",
          "ticks": 52224,
          "time": 74.862288,
          "velocity": 0.7795275590551181
        },
        {
          "duration": 0.27522899999999595,
          "durationTicks": 192,
          "midi": 45,
          "name": "A2",
          "ticks": 52224,
          "time": 74.862288,
          "velocity": 0.7795275590551181
        },
        {
          "duration": 0.13761449999999797,
          "durationTicks": 96,
          "midi": 49,
          "name": "C#3",
          "ticks": 52416,
          "time": 75.137517,
          "velocity": 0.7795275590551181
        },
        {
          "duration": 0.13761449999999797,
          "durationTicks": 96,
          "midi": 52,
          "name": "E3",
          "ticks": 52416,
          "time": 75.137517,
          "velocity": 0.7795275590551181
        },
        {
          "duration": 0.13761449999999797,
          "durationTicks": 96,
          "midi": 71,
          "name": "B4",
          "ticks": 52560,
          "time": 75.34393875,
          "velocity": 0.7795275590551181
        },
        {
          "duration": 0.13761449999999797,
          "durationTicks": 96,
          "midi": 69,
          "name": "A4",
          "ticks": 52608,
          "time": 75.412746,
          "velocity": 0.7795275590551181
        },
        {
          "duration": 0.13761449999999797,
          "durationTicks": 96,
          "midi": 67,
          "name": "G4",
          "ticks": 52752,
          "time": 75.61916775,
          "velocity": 0.7795275590551181
        },
        {
          "duration": 0.13761450000001219,
          "durationTicks": 96,
          "midi": 49,
          "name": "C#3",
          "ticks": 52800,
          "time": 75.687975,
          "velocity": 0.7795275590551181
        },
        {
          "duration": 0.13761450000001219,
          "durationTicks": 96,
          "midi": 52,
          "name": "E3",
          "ticks": 52800,
          "time": 75.687975,
          "velocity": 0.7795275590551181
        },
        {
          "duration": 0.13761450000001219,
          "durationTicks": 96,
          "midi": 64,
          "name": "E4",
          "ticks": 52800,
          "time": 75.687975,
          "velocity": 0.7795275590551181
        },
        {
          "duration": 0.13761449999999797,
          "durationTicks": 96,
          "midi": 62,
          "name": "D4",
          "ticks": 52944,
          "time": 75.89439675,
          "velocity": 0.7795275590551181
        },
        {
          "duration": 0.27522899999999595,
          "durationTicks": 192,
          "midi": 64,
          "name": "E4",
          "ticks": 52992,
          "time": 75.963204,
          "velocity": 0.7795275590551181
        },
        {
          "duration": 0.27522899999999595,
          "durationTicks": 192,
          "midi": 52,
          "name": "E3",
          "ticks": 52992,
          "time": 75.963204,
          "velocity": 0.7795275590551181
        },
        {
          "duration": 0.13761449999999797,
          "durationTicks": 96,
          "midi": 55,
          "name": "G3",
          "ticks": 53184,
          "time": 76.238433,
          "velocity": 0.7795275590551181
        },
        {
          "duration": 0.13761449999999797,
          "durationTicks": 96,
          "midi": 59,
          "name": "B3",
          "ticks": 53184,
          "time": 76.238433,
          "velocity": 0.7795275590551181
        },
        {
          "duration": 0.13761449999999797,
          "durationTicks": 96,
          "midi": 71,
          "name": "B4",
          "ticks": 53328,
          "time": 76.44485475,
          "velocity": 0.7795275590551181
        },
        {
          "duration": 0.13761449999999797,
          "durationTicks": 96,
          "midi": 69,
          "name": "A4",
          "ticks": 53376,
          "time": 76.513662,
          "velocity": 0.7795275590551181
        },
        {
          "duration": 0.13761449999999797,
          "durationTicks": 96,
          "midi": 67,
          "name": "G4",
          "ticks": 53520,
          "time": 76.72008375,
          "velocity": 0.7795275590551181
        },
        {
          "duration": 0.13761449999999797,
          "durationTicks": 96,
          "midi": 55,
          "name": "G3",
          "ticks": 53568,
          "time": 76.788891,
          "velocity": 0.7795275590551181
        },
        {
          "duration": 0.13761449999999797,
          "durationTicks": 96,
          "midi": 64,
          "name": "E4",
          "ticks": 53568,
          "time": 76.788891,
          "velocity": 0.7795275590551181
        },
        {
          "duration": 0.13761449999999797,
          "durationTicks": 96,
          "midi": 59,
          "name": "B3",
          "ticks": 53568,
          "time": 76.788891,
          "velocity": 0.7795275590551181
        },
        {
          "duration": 0.13761449999999797,
          "durationTicks": 96,
          "midi": 62,
          "name": "D4",
          "ticks": 53712,
          "time": 76.99531275,
          "velocity": 0.7795275590551181
        },
        {
          "duration": 0.27522899999999595,
          "durationTicks": 192,
          "midi": 64,
          "name": "E4",
          "ticks": 53760,
          "time": 77.06412,
          "velocity": 0.7795275590551181
        },
        {
          "duration": 0.27522899999999595,
          "durationTicks": 192,
          "midi": 48,
          "name": "C3",
          "ticks": 53760,
          "time": 77.06412,
          "velocity": 0.7795275590551181
        },
        {
          "duration": 0.13761449999999797,
          "durationTicks": 96,
          "midi": 52,
          "name": "E3",
          "ticks": 53952,
          "time": 77.339349,
          "velocity": 0.7795275590551181
        },
        {
          "duration": 0.13761449999999797,
          "durationTicks": 96,
          "midi": 55,
          "name": "G3",
          "ticks": 53952,
          "time": 77.339349,
          "velocity": 0.7795275590551181
        },
        {
          "duration": 0.13761449999999797,
          "durationTicks": 96,
          "midi": 64,
          "name": "E4",
          "ticks": 54096,
          "time": 77.54577075,
          "velocity": 0.7795275590551181
        },
        {
          "duration": 0.13761450000001219,
          "durationTicks": 96,
          "midi": 67,
          "name": "G4",
          "ticks": 54144,
          "time": 77.614578,
          "velocity": 0.7795275590551181
        },
        {
          "duration": 0.13761449999999797,
          "durationTicks": 96,
          "midi": 69,
          "name": "A4",
          "ticks": 54288,
          "time": 77.82099975,
          "velocity": 0.7795275590551181
        },
        {
          "duration": 0.13761449999999797,
          "durationTicks": 96,
          "midi": 55,
          "name": "G3",
          "ticks": 54336,
          "time": 77.889807,
          "velocity": 0.7795275590551181
        },
        {
          "duration": 0.13761449999999797,
          "durationTicks": 96,
          "midi": 52,
          "name": "E3",
          "ticks": 54336,
          "time": 77.889807,
          "velocity": 0.7795275590551181
        },
        {
          "duration": 0.13761449999999797,
          "durationTicks": 96,
          "midi": 71,
          "name": "B4",
          "ticks": 54336,
          "time": 77.889807,
          "velocity": 0.7795275590551181
        },
        {
          "duration": 0.13761450000001219,
          "durationTicks": 96,
          "midi": 74,
          "name": "D5",
          "ticks": 54480,
          "time": 78.09622875,
          "velocity": 0.7795275590551181
        },
        {
          "duration": 0.27522899999999595,
          "durationTicks": 192,
          "midi": 50,
          "name": "D3",
          "ticks": 54528,
          "time": 78.165036,
          "velocity": 0.7795275590551181
        },
        {
          "duration": 0.27522899999999595,
          "durationTicks": 192,
          "midi": 76,
          "name": "E5",
          "ticks": 54528,
          "time": 78.165036,
          "velocity": 0.7795275590551181
        },
        {
          "duration": 0.13761449999999797,
          "durationTicks": 96,
          "midi": 57,
          "name": "A3",
          "ticks": 54720,
          "time": 78.440265,
          "velocity": 0.7795275590551181
        },
        {
          "duration": 0.13761449999999797,
          "durationTicks": 96,
          "midi": 54,
          "name": "F#3",
          "ticks": 54720,
          "time": 78.440265,
          "velocity": 0.7795275590551181
        },
        {
          "duration": 0.13761449999999797,
          "durationTicks": 96,
          "midi": 74,
          "name": "D5",
          "ticks": 54720,
          "time": 78.440265,
          "velocity": 0.7795275590551181
        },
        {
          "duration": 0.13761449999999797,
          "durationTicks": 96,
          "midi": 57,
          "name": "A3",
          "ticks": 54912,
          "time": 78.715494,
          "velocity": 0.7795275590551181
        },
        {
          "duration": 0.13761449999999797,
          "durationTicks": 96,
          "midi": 54,
          "name": "F#3",
          "ticks": 54912,
          "time": 78.715494,
          "velocity": 0.7795275590551181
        },
        {
          "duration": 0.27522899999999595,
          "durationTicks": 192,
          "midi": 76,
          "name": "E5",
          "ticks": 54912,
          "time": 78.715494,
          "velocity": 0.7795275590551181
        },
        {
          "duration": 0.13761449999999797,
          "durationTicks": 96,
          "midi": 54,
          "name": "F#3",
          "ticks": 55104,
          "time": 78.990723,
          "velocity": 0.7795275590551181
        },
        {
          "duration": 0.13761449999999797,
          "durationTicks": 96,
          "midi": 57,
          "name": "A3",
          "ticks": 55104,
          "time": 78.990723,
          "velocity": 0.7795275590551181
        },
        {
          "duration": 0.13761449999999797,
          "durationTicks": 96,
          "midi": 79,
          "name": "G5",
          "ticks": 55104,
          "time": 78.990723,
          "velocity": 0.7795275590551181
        },
        {
          "duration": 0.27522899999999595,
          "durationTicks": 192,
          "midi": 81,
          "name": "A5",
          "ticks": 55296,
          "time": 79.265952,
          "velocity": 0.7795275590551181
        },
        {
          "duration": 0.27522899999999595,
          "durationTicks": 192,
          "midi": 45,
          "name": "A2",
          "ticks": 55296,
          "time": 79.265952,
          "velocity": 0.7795275590551181
        },
        {
          "duration": 0.13761450000001219,
          "durationTicks": 96,
          "midi": 49,
          "name": "C#3",
          "ticks": 55488,
          "time": 79.541181,
          "velocity": 0.7795275590551181
        },
        {
          "duration": 0.13761450000001219,
          "durationTicks": 96,
          "midi": 52,
          "name": "E3",
          "ticks": 55488,
          "time": 79.541181,
          "velocity": 0.7795275590551181
        },
        {
          "duration": 0.13761449999999797,
          "durationTicks": 96,
          "midi": 83,
          "name": "B5",
          "ticks": 55632,
          "time": 79.74760275,
          "velocity": 0.7795275590551181
        },
        {
          "duration": 0.13761449999999797,
          "durationTicks": 96,
          "midi": 81,
          "name": "A5",
          "ticks": 55680,
          "time": 79.81641,
          "velocity": 0.7795275590551181
        },
        {
          "duration": 0.13761450000001219,
          "durationTicks": 96,
          "midi": 79,
          "name": "G5",
          "ticks": 55824,
          "time": 80.02283175,
          "velocity": 0.7795275590551181
        },
        {
          "duration": 0.13761449999999797,
          "durationTicks": 96,
          "midi": 52,
          "name": "E3",
          "ticks": 55872,
          "time": 80.091639,
          "velocity": 0.7795275590551181
        },
        {
          "duration": 0.13761449999999797,
          "durationTicks": 96,
          "midi": 49,
          "name": "C#3",
          "ticks": 55872,
          "time": 80.091639,
          "velocity": 0.7795275590551181
        },
        {
          "duration": 0.13761449999999797,
          "durationTicks": 96,
          "midi": 76,
          "name": "E5",
          "ticks": 55872,
          "time": 80.091639,
          "velocity": 0.7795275590551181
        },
        {
          "duration": 0.13761449999999797,
          "durationTicks": 96,
          "midi": 74,
          "name": "D5",
          "ticks": 56016,
          "time": 80.29806075,
          "velocity": 0.7795275590551181
        },
        {
          "duration": 0.27522900000001016,
          "durationTicks": 192,
          "midi": 76,
          "name": "E5",
          "ticks": 56064,
          "time": 80.366868,
          "velocity": 0.7795275590551181
        },
        {
          "duration": 0.27522900000001016,
          "durationTicks": 192,
          "midi": 52,
          "name": "E3",
          "ticks": 56064,
          "time": 80.366868,
          "velocity": 0.7795275590551181
        },
        {
          "duration": 0.13761449999999797,
          "durationTicks": 96,
          "midi": 55,
          "name": "G3",
          "ticks": 56256,
          "time": 80.642097,
          "velocity": 0.7795275590551181
        },
        {
          "duration": 0.13761449999999797,
          "durationTicks": 96,
          "midi": 59,
          "name": "B3",
          "ticks": 56256,
          "time": 80.642097,
          "velocity": 0.7795275590551181
        },
        {
          "duration": 0.13761449999999797,
          "durationTicks": 96,
          "midi": 83,
          "name": "B5",
          "ticks": 56400,
          "time": 80.84851875,
          "velocity": 0.7795275590551181
        },
        {
          "duration": 0.13761449999999797,
          "durationTicks": 96,
          "midi": 81,
          "name": "A5",
          "ticks": 56448,
          "time": 80.917326,
          "velocity": 0.7795275590551181
        },
        {
          "duration": 0.13761449999999797,
          "durationTicks": 96,
          "midi": 79,
          "name": "G5",
          "ticks": 56592,
          "time": 81.12374775,
          "velocity": 0.7795275590551181
        },
        {
          "duration": 0.13761449999999797,
          "durationTicks": 96,
          "midi": 55,
          "name": "G3",
          "ticks": 56640,
          "time": 81.192555,
          "velocity": 0.7795275590551181
        },
        {
          "duration": 0.13761449999999797,
          "durationTicks": 96,
          "midi": 59,
          "name": "B3",
          "ticks": 56640,
          "time": 81.192555,
          "velocity": 0.7795275590551181
        },
        {
          "duration": 0.13761449999999797,
          "durationTicks": 96,
          "midi": 76,
          "name": "E5",
          "ticks": 56640,
          "time": 81.192555,
          "velocity": 0.7795275590551181
        },
        {
          "duration": 0.13761449999999797,
          "durationTicks": 96,
          "midi": 74,
          "name": "D5",
          "ticks": 56784,
          "time": 81.39897675,
          "velocity": 0.7795275590551181
        },
        {
          "duration": 0.27522900000001016,
          "durationTicks": 192,
          "midi": 76,
          "name": "E5",
          "ticks": 56832,
          "time": 81.467784,
          "velocity": 0.7795275590551181
        },
        {
          "duration": 0.27522900000001016,
          "durationTicks": 192,
          "midi": 48,
          "name": "C3",
          "ticks": 56832,
          "time": 81.467784,
          "velocity": 0.7795275590551181
        },
        {
          "duration": 0.13761449999999797,
          "durationTicks": 96,
          "midi": 55,
          "name": "G3",
          "ticks": 57024,
          "time": 81.743013,
          "velocity": 0.7795275590551181
        },
        {
          "duration": 0.13761449999999797,
          "durationTicks": 96,
          "midi": 52,
          "name": "E3",
          "ticks": 57024,
          "time": 81.743013,
          "velocity": 0.7795275590551181
        },
        {
          "duration": 0.13761450000001219,
          "durationTicks": 96,
          "midi": 83,
          "name": "B5",
          "ticks": 57168,
          "time": 81.94943475,
          "velocity": 0.7795275590551181
        },
        {
          "duration": 0.13761449999999797,
          "durationTicks": 96,
          "midi": 81,
          "name": "A5",
          "ticks": 57216,
          "time": 82.018242,
          "velocity": 0.7795275590551181
        },
        {
          "duration": 0.13761449999999797,
          "durationTicks": 96,
          "midi": 79,
          "name": "G5",
          "ticks": 57360,
          "time": 82.22466375,
          "velocity": 0.7795275590551181
        },
        {
          "duration": 0.13761449999999797,
          "durationTicks": 96,
          "midi": 52,
          "name": "E3",
          "ticks": 57408,
          "time": 82.293471,
          "velocity": 0.7795275590551181
        },
        {
          "duration": 0.13761449999999797,
          "durationTicks": 96,
          "midi": 55,
          "name": "G3",
          "ticks": 57408,
          "time": 82.293471,
          "velocity": 0.7795275590551181
        },
        {
          "duration": 0.13761449999999797,
          "durationTicks": 96,
          "midi": 76,
          "name": "E5",
          "ticks": 57408,
          "time": 82.293471,
          "velocity": 0.7795275590551181
        },
        {
          "duration": 0.13761449999999797,
          "durationTicks": 96,
          "midi": 74,
          "name": "D5",
          "ticks": 57552,
          "time": 82.49989275,
          "velocity": 0.7795275590551181
        },
        {
          "duration": 0.13761449999999797,
          "durationTicks": 96,
          "midi": 76,
          "name": "E5",
          "ticks": 57600,
          "time": 82.5687,
          "velocity": 0.7795275590551181
        },
        {
          "duration": 0.27522899999999595,
          "durationTicks": 192,
          "midi": 50,
          "name": "D3",
          "ticks": 57600,
          "time": 82.5687,
          "velocity": 0.7795275590551181
        },
        {
          "duration": 0.13761449999999797,
          "durationTicks": 96,
          "midi": 57,
          "name": "A3",
          "ticks": 57792,
          "time": 82.843929,
          "velocity": 0.7795275590551181
        },
        {
          "duration": 0.13761449999999797,
          "durationTicks": 96,
          "midi": 54,
          "name": "F#3",
          "ticks": 57792,
          "time": 82.843929,
          "velocity": 0.7795275590551181
        },
        {
          "duration": 0.13761449999999797,
          "durationTicks": 96,
          "midi": 79,
          "name": "G5",
          "ticks": 57792,
          "time": 82.843929,
          "velocity": 0.7795275590551181
        },
        {
          "duration": 0.13761449999999797,
          "durationTicks": 96,
          "midi": 57,
          "name": "A3",
          "ticks": 57984,
          "time": 83.119158,
          "velocity": 0.7795275590551181
        },
        {
          "duration": 0.13761449999999797,
          "durationTicks": 96,
          "midi": 54,
          "name": "F#3",
          "ticks": 57984,
          "time": 83.119158,
          "velocity": 0.7795275590551181
        },
        {
          "duration": 0.13761449999999797,
          "durationTicks": 96,
          "midi": 81,
          "name": "A5",
          "ticks": 57984,
          "time": 83.119158,
          "velocity": 0.7795275590551181
        },
        {
          "duration": 0.13761450000001219,
          "durationTicks": 96,
          "midi": 54,
          "name": "F#3",
          "ticks": 58176,
          "time": 83.394387,
          "velocity": 0.7795275590551181
        },
        {
          "duration": 0.13761450000001219,
          "durationTicks": 96,
          "midi": 57,
          "name": "A3",
          "ticks": 58176,
          "time": 83.394387,
          "velocity": 0.7795275590551181
        },
        {
          "duration": 0.13761450000001219,
          "durationTicks": 96,
          "midi": 83,
          "name": "B5",
          "ticks": 58176,
          "time": 83.394387,
          "velocity": 0.7795275590551181
        },
        {
          "duration": 0.27522899999999595,
          "durationTicks": 192,
          "midi": 81,
          "name": "A5",
          "ticks": 58368,
          "time": 83.669616,
          "velocity": 0.7795275590551181
        },
        {
          "duration": 0.27522899999999595,
          "durationTicks": 192,
          "midi": 45,
          "name": "A2",
          "ticks": 58368,
          "time": 83.669616,
          "velocity": 0.7795275590551181
        },
        {
          "duration": 0.13761449999999797,
          "durationTicks": 96,
          "midi": 52,
          "name": "E3",
          "ticks": 58560,
          "time": 83.944845,
          "velocity": 0.7795275590551181
        },
        {
          "duration": 0.13761449999999797,
          "durationTicks": 96,
          "midi": 49,
          "name": "C#3",
          "ticks": 58560,
          "time": 83.944845,
          "velocity": 0.7795275590551181
        },
        {
          "duration": 0.13761449999999797,
          "durationTicks": 96,
          "midi": 83,
          "name": "B5",
          "ticks": 58704,
          "time": 84.15126675,
          "velocity": 0.7795275590551181
        },
        {
          "duration": 0.13761449999999797,
          "durationTicks": 96,
          "midi": 81,
          "name": "A5",
          "ticks": 58752,
          "time": 84.220074,
          "velocity": 0.7795275590551181
        },
        {
          "duration": 0.13761449999999797,
          "durationTicks": 96,
          "midi": 79,
          "name": "G5",
          "ticks": 58896,
          "time": 84.42649575,
          "velocity": 0.7795275590551181
        },
        {
          "duration": 0.13761449999999797,
          "durationTicks": 96,
          "midi": 52,
          "name": "E3",
          "ticks": 58944,
          "time": 84.495303,
          "velocity": 0.7795275590551181
        },
        {
          "duration": 0.13761449999999797,
          "durationTicks": 96,
          "midi": 49,
          "name": "C#3",
          "ticks": 58944,
          "time": 84.495303,
          "velocity": 0.7795275590551181
        },
        {
          "duration": 0.13761449999999797,
          "durationTicks": 96,
          "midi": 76,
          "name": "E5",
          "ticks": 58944,
          "time": 84.495303,
          "velocity": 0.7795275590551181
        },
        {
          "duration": 0.13761449999999797,
          "durationTicks": 96,
          "midi": 74,
          "name": "D5",
          "ticks": 59088,
          "time": 84.70172475,
          "velocity": 0.7795275590551181
        },
        {
          "duration": 0.27522899999999595,
          "durationTicks": 192,
          "midi": 76,
          "name": "E5",
          "ticks": 59136,
          "time": 84.770532,
          "velocity": 0.7795275590551181
        },
        {
          "duration": 0.27522899999999595,
          "durationTicks": 192,
          "midi": 52,
          "name": "E3",
          "ticks": 59136,
          "time": 84.770532,
          "velocity": 0.7795275590551181
        },
        {
          "duration": 0.13761449999999797,
          "durationTicks": 96,
          "midi": 55,
          "name": "G3",
          "ticks": 59328,
          "time": 85.045761,
          "velocity": 0.7795275590551181
        },
        {
          "duration": 0.13761449999999797,
          "durationTicks": 96,
          "midi": 59,
          "name": "B3",
          "ticks": 59328,
          "time": 85.045761,
          "velocity": 0.7795275590551181
        },
        {
          "duration": 0.13761449999999797,
          "durationTicks": 96,
          "midi": 83,
          "name": "B5",
          "ticks": 59472,
          "time": 85.25218275,
          "velocity": 0.7795275590551181
        },
        {
          "duration": 0.13761450000001219,
          "durationTicks": 96,
          "midi": 81,
          "name": "A5",
          "ticks": 59520,
          "time": 85.32099,
          "velocity": 0.7795275590551181
        },
        {
          "duration": 0.13761449999999797,
          "durationTicks": 96,
          "midi": 79,
          "name": "G5",
          "ticks": 59664,
          "time": 85.52741175,
          "velocity": 0.7795275590551181
        },
        {
          "duration": 0.13761449999999797,
          "durationTicks": 96,
          "midi": 55,
          "name": "G3",
          "ticks": 59712,
          "time": 85.596219,
          "velocity": 0.7795275590551181
        },
        {
          "duration": 0.13761449999999797,
          "durationTicks": 96,
          "midi": 59,
          "name": "B3",
          "ticks": 59712,
          "time": 85.596219,
          "velocity": 0.7795275590551181
        },
        {
          "duration": 0.13761449999999797,
          "durationTicks": 96,
          "midi": 76,
          "name": "E5",
          "ticks": 59712,
          "time": 85.596219,
          "velocity": 0.7795275590551181
        },
        {
          "duration": 0.13761450000001219,
          "durationTicks": 96,
          "midi": 74,
          "name": "D5",
          "ticks": 59856,
          "time": 85.80264075,
          "velocity": 0.7795275590551181
        },
        {
          "duration": 0.27522899999999595,
          "durationTicks": 192,
          "midi": 76,
          "name": "E5",
          "ticks": 59904,
          "time": 85.871448,
          "velocity": 0.7795275590551181
        },
        {
          "duration": 0.27522899999999595,
          "durationTicks": 192,
          "midi": 48,
          "name": "C3",
          "ticks": 59904,
          "time": 85.871448,
          "velocity": 0.7795275590551181
        },
        {
          "duration": 0.13761449999999797,
          "durationTicks": 96,
          "midi": 55,
          "name": "G3",
          "ticks": 60096,
          "time": 86.146677,
          "velocity": 0.7795275590551181
        },
        {
          "duration": 0.13761449999999797,
          "durationTicks": 96,
          "midi": 52,
          "name": "E3",
          "ticks": 60096,
          "time": 86.146677,
          "velocity": 0.7795275590551181
        },
        {
          "duration": 0.13761449999999797,
          "durationTicks": 96,
          "midi": 76,
          "name": "E5",
          "ticks": 60240,
          "time": 86.35309875,
          "velocity": 0.7795275590551181
        },
        {
          "duration": 0.13761449999999797,
          "durationTicks": 96,
          "midi": 79,
          "name": "G5",
          "ticks": 60288,
          "time": 86.421906,
          "velocity": 0.7795275590551181
        },
        {
          "duration": 0.13761449999999797,
          "durationTicks": 96,
          "midi": 81,
          "name": "A5",
          "ticks": 60432,
          "time": 86.62832775,
          "velocity": 0.7795275590551181
        },
        {
          "duration": 0.13761449999999797,
          "durationTicks": 96,
          "midi": 52,
          "name": "E3",
          "ticks": 60480,
          "time": 86.697135,
          "velocity": 0.7795275590551181
        },
        {
          "duration": 0.13761449999999797,
          "durationTicks": 96,
          "midi": 55,
          "name": "G3",
          "ticks": 60480,
          "time": 86.697135,
          "velocity": 0.7795275590551181
        },
        {
          "duration": 0.13761449999999797,
          "durationTicks": 96,
          "midi": 83,
          "name": "B5",
          "ticks": 60480,
          "time": 86.697135,
          "velocity": 0.7795275590551181
        },
        {
          "duration": 0.13761449999999797,
          "durationTicks": 96,
          "midi": 86,
          "name": "D6",
          "ticks": 60624,
          "time": 86.90355675,
          "velocity": 0.7795275590551181
        },
        {
          "duration": 0.27522899999999595,
          "durationTicks": 192,
          "midi": 50,
          "name": "D3",
          "ticks": 60672,
          "time": 86.972364,
          "velocity": 0.7795275590551181
        },
        {
          "duration": 0.27522899999999595,
          "durationTicks": 192,
          "midi": 88,
          "name": "E6",
          "ticks": 60672,
          "time": 86.972364,
          "velocity": 0.7795275590551181
        },
        {
          "duration": 0.13761450000001219,
          "durationTicks": 96,
          "midi": 57,
          "name": "A3",
          "ticks": 60864,
          "time": 87.247593,
          "velocity": 0.7795275590551181
        },
        {
          "duration": 0.13761450000001219,
          "durationTicks": 96,
          "midi": 54,
          "name": "F#3",
          "ticks": 60864,
          "time": 87.247593,
          "velocity": 0.7795275590551181
        },
        {
          "duration": 0.13761450000001219,
          "durationTicks": 96,
          "midi": 86,
          "name": "D6",
          "ticks": 60864,
          "time": 87.247593,
          "velocity": 0.7795275590551181
        },
        {
          "duration": 0.13761449999999797,
          "durationTicks": 96,
          "midi": 54,
          "name": "F#3",
          "ticks": 61056,
          "time": 87.522822,
          "velocity": 0.7795275590551181
        },
        {
          "duration": 0.13761449999999797,
          "durationTicks": 96,
          "midi": 57,
          "name": "A3",
          "ticks": 61056,
          "time": 87.522822,
          "velocity": 0.7795275590551181
        },
        {
          "duration": 0.27522899999999595,
          "durationTicks": 192,
          "midi": 88,
          "name": "E6",
          "ticks": 61056,
          "time": 87.522822,
          "velocity": 0.7795275590551181
        },
        {
          "duration": 0.13761449999999797,
          "durationTicks": 96,
          "midi": 54,
          "name": "F#3",
          "ticks": 61248,
          "time": 87.798051,
          "velocity": 0.7795275590551181
        },
        {
          "duration": 0.13761449999999797,
          "durationTicks": 96,
          "midi": 57,
          "name": "A3",
          "ticks": 61248,
          "time": 87.798051,
          "velocity": 0.7795275590551181
        },
        {
          "duration": 0.13761449999999797,
          "durationTicks": 96,
          "midi": 91,
          "name": "G6",
          "ticks": 61248,
          "time": 87.798051,
          "velocity": 0.7795275590551181
        },
        {
          "duration": 5.229351000000008,
          "durationTicks": 3648,
          "midi": 45,
          "name": "A2",
          "ticks": 61440,
          "time": 88.07328,
          "velocity": 0.7795275590551181
        },
        {
          "duration": 5.09173650000001,
          "durationTicks": 3552,
          "midi": 93,
          "name": "A6",
          "ticks": 61440,
          "time": 88.07328,
          "velocity": 0.7795275590551181
        }
      ],
      "endOfTrackTicks": 65088
    }
  ]
}