{
  "header": {
    "keySignatures": [],
    "meta": [],
    "name": "Elec. Piano (Classic)",
    "ppq": 384,
    "tempos": [
      {
        "bpm": 107.0001266168165,
        "ticks": 0
      }
    ],
    "timeSignatures": [
      {
        "ticks": 0,
        "timeSignature": [
          4,
          4
        ],
        "measures": 0
      }
    ]
  },
  "tracks": [
    {
      "channel": 0,
      "controlChanges": {},
      "pitchBends": [],
      "instrument": {
        "family": "piano",
        "number": 0,
        "name": "acoustic grand piano"
      },
      "name": "Elec. Piano (Classic)",
      "notes": [
        {
          "duration": 0.2803735,
          "durationTicks": 192,
          "midi": 68,
          "name": "G#4",
          "ticks": 0,
          "time": 0,
          "velocity": 0.3937007874015748
        },
        {
          "duration": 0.2803735,
          "durationTicks": 192,
          "midi": 71,
          "name": "B4",
          "ticks": 192,
          "time": 0.2803735,
          "velocity": 0.3937007874015748
        },
        {
          "duration": 0.560747,
          "durationTicks": 384,
          "midi": 73,
          "name": "C#5",
          "ticks": 384,
          "time": 0.560747,
          "velocity": 0.3937007874015748
        },
        {
          "duration": 1.1214939999999998,
          "durationTicks": 768,
          "midi": 37,
          "name": "C#2",
          "ticks": 384,
          "time": 0.560747,
          "velocity": 0.3937007874015748
        },
        {
          "duration": 1.1214939999999998,
          "durationTicks": 768,
          "midi": 40,
          "name": "E2",
          "ticks": 384,
          "time": 0.560747,
          "velocity": 0.3937007874015748
        },
        {
          "duration": 1.1214939999999998,
          "durationTicks": 768,
          "midi": 33,
          "name": "A1",
          "ticks": 384,
          "time": 0.560747,
          "velocity": 0.3937007874015748
        },
        {
          "duration": 1.1214939999999998,
          "durationTicks": 768,
          "midi": 45,
          "name": "A2",
          "ticks": 384,
          "time": 0.560747,
          "velocity": 0.3937007874015748
        },
        {
          "duration": 0.28037350000000005,
          "durationTicks": 192,
          "midi": 73,
          "name": "C#5",
          "ticks": 768,
          "time": 1.121494,
          "velocity": 0.3937007874015748
        },
        {
          "duration": 0.28037349999999983,
          "durationTicks": 192,
          "midi": 71,
          "name": "B4",
          "ticks": 960,
          "time": 1.4018675,
          "velocity": 0.3937007874015748
        },
        {
          "duration": 0.5607470000000001,
          "durationTicks": 384,
          "midi": 68,
          "name": "G#4",
          "ticks": 1152,
          "time": 1.6822409999999999,
          "velocity": 0.3937007874015748
        },
        {
          "duration": 1.1214940000000002,
          "durationTicks": 768,
          "midi": 44,
          "name": "G#2",
          "ticks": 1152,
          "time": 1.6822409999999999,
          "velocity": 0.3937007874015748
        },
        {
          "duration": 1.1214940000000002,
          "durationTicks": 768,
          "midi": 40,
          "name": "E2",
          "ticks": 1152,
          "time": 1.6822409999999999,
          "velocity": 0.3937007874015748
        },
        {
          "duration": 1.1214940000000002,
          "durationTicks": 768,
          "midi": 37,
          "name": "C#2",
          "ticks": 1152,
          "time": 1.6822409999999999,
          "velocity": 0.3937007874015748
        },
        {
          "duration": 1.1214940000000002,
          "durationTicks": 768,
          "midi": 49,
          "name": "C#3",
          "ticks": 1152,
          "time": 1.6822409999999999,
          "velocity": 0.3937007874015748
        },
        {
          "duration": 0.28037350000000005,
          "durationTicks": 192,
          "midi": 66,
          "name": "F#4",
          "ticks": 1536,
          "time": 2.242988,
          "velocity": 0.3937007874015748
        },
        {
          "duration": 0.28037350000000005,
          "durationTicks": 192,
          "midi": 64,
          "name": "E4",
          "ticks": 1728,
          "time": 2.5233615,
          "velocity": 0.3937007874015748
        },
        {
          "duration": 0.5607469999999997,
          "durationTicks": 384,
          "midi": 66,
          "name": "F#4",
          "ticks": 1920,
          "time": 2.803735,
          "velocity": 0.3937007874015748
        },
        {
          "duration": 1.1214939999999998,
          "durationTicks": 768,
          "midi": 35,
          "name": "B1",
          "ticks": 1920,
          "time": 2.803735,
          "velocity": 0.3937007874015748
        },
        {
          "duration": 1.1214939999999998,
          "durationTicks": 768,
          "midi": 42,
          "name": "F#2",
          "ticks": 1920,
          "time": 2.803735,
          "velocity": 0.3937007874015748
        },
        {
          "duration": 1.1214939999999998,
          "durationTicks": 768,
          "midi": 39,
          "name": "D#2",
          "ticks": 1920,
          "time": 2.803735,
          "velocity": 0.3937007874015748
        },
        {
          "duration": 1.1214939999999998,
          "durationTicks": 768,
          "midi": 47,
          "name": "B2",
          "ticks": 1920,
          "time": 2.803735,
          "velocity": 0.3937007874015748
        },
        {
          "duration": 0.28037350000000005,
          "durationTicks": 192,
          "midi": 66,
          "name": "F#4",
          "ticks": 2304,
          "time": 3.3644819999999998,
          "velocity": 0.3937007874015748
        },
        {
          "duration": 0.28037350000000005,
          "durationTicks": 192,
          "midi": 64,
          "name": "E4",
          "ticks": 2496,
          "time": 3.6448555,
          "velocity": 0.3937007874015748
        },
        {
          "duration": 0.5607470000000001,
          "durationTicks": 384,
          "midi": 61,
          "name": "C#4",
          "ticks": 2688,
          "time": 3.925229,
          "velocity": 0.3937007874015748
        },
        {
          "duration": 1.1214940000000002,
          "durationTicks": 768,
          "midi": 42,
          "name": "F#2",
          "ticks": 2688,
          "time": 3.925229,
          "velocity": 0.3937007874015748
        },
        {
          "duration": 1.1214940000000002,
          "durationTicks": 768,
          "midi": 37,
          "name": "C#2",
          "ticks": 2688,
          "time": 3.925229,
          "velocity": 0.3937007874015748
        },
        {
          "duration": 1.1214940000000002,
          "durationTicks": 768,
          "midi": 30,
          "name": "F#1",
          "ticks": 2688,
          "time": 3.925229,
          "velocity": 0.3937007874015748
        },
        {
          "duration": 1.1214940000000002,
          "durationTicks": 768,
          "midi": 33,
          "name": "A1",
          "ticks": 2688,
          "time": 3.925229,
          "velocity": 0.3937007874015748
        },
        {
          "duration": 0.2803734999999996,
          "durationTicks": 192,
          "midi": 59,
          "name": "B3",
          "ticks": 3072,
          "time": 4.485976,
          "velocity": 0.3937007874015748
        },
        {
          "duration": 0.2803735000000005,
          "durationTicks": 192,
          "midi": 61,
          "name": "C#4",
          "ticks": 3264,
          "time": 4.7663495,
          "velocity": 0.3937007874015748
        },
        {
          "duration": 0.5607470000000001,
          "durationTicks": 384,
          "midi": 64,
          "name": "E4",
          "ticks": 3456,
          "time": 5.046723,
          "velocity": 0.3937007874015748
        },
        {
          "duration": 1.1214940000000002,
          "durationTicks": 768,
          "midi": 44,
          "name": "G#2",
          "ticks": 3456,
          "time": 5.046723,
          "velocity": 0.3937007874015748
        },
        {
          "duration": 1.1214940000000002,
          "durationTicks": 768,
          "midi": 40,
          "name": "E2",
          "ticks": 3456,
          "time": 5.046723,
          "velocity": 0.3937007874015748
        },
        {
          "duration": 1.1214940000000002,
          "durationTicks": 768,
          "midi": 37,
          "name": "C#2",
          "ticks": 3456,
          "time": 5.046723,
          "velocity": 0.3937007874015748
        },
        {
          "duration": 1.1214940000000002,
          "durationTicks": 768,
          "midi": 49,
          "name": "C#3",
          "ticks": 3456,
          "time": 5.046723,
          "velocity": 0.3937007874015748
        },
        {
          "duration": 0.2803734999999996,
          "durationTicks": 192,
          "midi": 66,
          "name": "F#4",
          "ticks": 3840,
          "time": 5.60747,
          "velocity": 0.3937007874015748
        },
        {
          "duration": 0.2803735000000005,
          "durationTicks": 192,
          "midi": 68,
          "name": "G#4",
          "ticks": 4032,
          "time": 5.8878435,
          "velocity": 0.3937007874015748
        },
        {
          "duration": 0.5607469999999992,
          "durationTicks": 384,
          "midi": 69,
          "name": "A4",
          "ticks": 4224,
          "time": 6.168217,
          "velocity": 0.3937007874015748
        },
        {
          "duration": 1.1214939999999993,
          "durationTicks": 768,
          "midi": 37,
          "name": "C#2",
          "ticks": 4224,
          "time": 6.168217,
          "velocity": 0.3937007874015748
        },
        {
          "duration": 1.1214939999999993,
          "durationTicks": 768,
          "midi": 40,
          "name": "E2",
          "ticks": 4224,
          "time": 6.168217,
          "velocity": 0.3937007874015748
        },
        {
          "duration": 1.1214939999999993,
          "durationTicks": 768,
          "midi": 45,
          "name": "A2",
          "ticks": 4224,
          "time": 6.168217,
          "velocity": 0.3937007874015748
        },
        {
          "duration": 1.1214939999999993,
          "durationTicks": 768,
          "midi": 33,
          "name": "A1",
          "ticks": 4224,
          "time": 6.168217,
          "velocity": 0.3937007874015748
        },
        {
          "duration": 0.2803735000000005,
          "durationTicks": 192,
          "midi": 68,
          "name": "G#4",
          "ticks": 4608,
          "time": 6.7289639999999995,
          "velocity": 0.3937007874015748
        },
        {
          "duration": 0.2803734999999996,
          "durationTicks": 192,
          "midi": 64,
          "name": "E4",
          "ticks": 4800,
          "time": 7.0093375,
          "velocity": 0.3937007874015748
        },
        {
          "duration": 1.6822410000000003,
          "durationTicks": 1152,
          "midi": 66,
          "name": "F#4",
          "ticks": 4992,
          "time": 7.289711,
          "velocity": 0.3937007874015748
        },
        {
          "duration": 2.2429879999999995,
          "durationTicks": 1536,
          "midi": 42,
          "name": "F#2",
          "ticks": 4992,
          "time": 7.289711,
          "velocity": 0.3937007874015748
        },
        {
          "duration": 2.2429879999999995,
          "durationTicks": 1536,
          "midi": 47,
          "name": "B2",
          "ticks": 4992,
          "time": 7.289711,
          "velocity": 0.3937007874015748
        },
        {
          "duration": 2.2429879999999995,
          "durationTicks": 1536,
          "midi": 35,
          "name": "B1",
          "ticks": 4992,
          "time": 7.289711,
          "velocity": 0.3937007874015748
        },
        {
          "duration": 2.2429879999999995,
          "durationTicks": 1536,
          "midi": 40,
          "name": "E2",
          "ticks": 4992,
          "time": 7.289711,
          "velocity": 0.3937007874015748
        },
        {
          "duration": 0.2803734999999996,
          "durationTicks": 192,
          "midi": 80,
          "name": "G#5",
          "ticks": 6144,
          "time": 8.971952,
          "velocity": 0.3937007874015748
        },
        {
          "duration": 0.2803734999999996,
          "durationTicks": 192,
          "midi": 83,
          "name": "B5",
          "ticks": 6336,
          "time": 9.2523255,
          "velocity": 0.3937007874015748
        },
        {
          "duration": 0.4205602500000012,
          "durationTicks": 288,
          "midi": 85,
          "name": "C#6",
          "ticks": 6528,
          "time": 9.532699,
          "velocity": 0.3937007874015748
        },
        {
          "duration": 1.1214940000000002,
          "durationTicks": 768,
          "midi": 37,
          "name": "C#2",
          "ticks": 6528,
          "time": 9.532699,
          "velocity": 0.3937007874015748
        },
        {
          "duration": 1.1214940000000002,
          "durationTicks": 768,
          "midi": 40,
          "name": "E2",
          "ticks": 6528,
          "time": 9.532699,
          "velocity": 0.3937007874015748
        },
        {
          "duration": 1.1214940000000002,
          "durationTicks": 768,
          "midi": 33,
          "name": "A1",
          "ticks": 6528,
          "time": 9.532699,
          "velocity": 0.3937007874015748
        },
        {
          "duration": 1.1214940000000002,
          "durationTicks": 768,
          "midi": 45,
          "name": "A2",
          "ticks": 6528,
          "time": 9.532699,
          "velocity": 0.3937007874015748
        },
        {
          "duration": 0.1401867499999998,
          "durationTicks": 96,
          "midi": 87,
          "name": "D#6",
          "ticks": 6816,
          "time": 9.95325925,
          "velocity": 0.3937007874015748
        },
        {
          "duration": 0.2803734999999996,
          "durationTicks": 192,
          "midi": 85,
          "name": "C#6",
          "ticks": 6912,
          "time": 10.093446,
          "velocity": 0.3937007874015748
        },
        {
          "duration": 0.2803734999999996,
          "durationTicks": 192,
          "midi": 83,
          "name": "B5",
          "ticks": 7104,
          "time": 10.3738195,
          "velocity": 0.3937007874015748
        },
        {
          "duration": 0.560747000000001,
          "durationTicks": 384,
          "midi": 80,
          "name": "G#5",
          "ticks": 7296,
          "time": 10.654193,
          "velocity": 0.3937007874015748
        },
        {
          "duration": 1.1214940000000002,
          "durationTicks": 768,
          "midi": 44,
          "name": "G#2",
          "ticks": 7296,
          "time": 10.654193,
          "velocity": 0.3937007874015748
        },
        {
          "duration": 1.1214940000000002,
          "durationTicks": 768,
          "midi": 37,
          "name": "C#2",
          "ticks": 7296,
          "time": 10.654193,
          "velocity": 0.3937007874015748
        },
        {
          "duration": 1.1214940000000002,
          "durationTicks": 768,
          "midi": 49,
          "name": "C#3",
          "ticks": 7296,
          "time": 10.654193,
          "velocity": 0.3937007874015748
        },
        {
          "duration": 1.1214940000000002,
          "durationTicks": 768,
          "midi": 40,
          "name": "E2",
          "ticks": 7296,
          "time": 10.654193,
          "velocity": 0.3937007874015748
        },
        {
          "duration": 0.2803734999999996,
          "durationTicks": 192,
          "midi": 78,
          "name": "F#5",
          "ticks": 7680,
          "time": 11.21494,
          "velocity": 0.3937007874015748
        },
        {
          "duration": 0.2803734999999996,
          "durationTicks": 192,
          "midi": 76,
          "name": "E5",
          "ticks": 7872,
          "time": 11.4953135,
          "velocity": 0.3937007874015748
        },
        {
          "duration": 0.560747000000001,
          "durationTicks": 384,
          "midi": 78,
          "name": "F#5",
          "ticks": 8064,
          "time": 11.775687,
          "velocity": 0.3937007874015748
        },
        {
          "duration": 1.1214940000000002,
          "durationTicks": 768,
          "midi": 42,
          "name": "F#2",
          "ticks": 8064,
          "time": 11.775687,
          "velocity": 0.3937007874015748
        },
        {
          "duration": 1.1214940000000002,
          "durationTicks": 768,
          "midi": 39,
          "name": "D#2",
          "ticks": 8064,
          "time": 11.775687,
          "velocity": 0.3937007874015748
        },
        {
          "duration": 1.1214940000000002,
          "durationTicks": 768,
          "midi": 35,
          "name": "B1",
          "ticks": 8064,
          "time": 11.775687,
          "velocity": 0.3937007874015748
        },
        {
          "duration": 1.1214940000000002,
          "durationTicks": 768,
          "midi": 47,
          "name": "B2",
          "ticks": 8064,
          "time": 11.775687,
          "velocity": 0.3937007874015748
        },
        {
          "duration": 0.1401867499999998,
          "durationTicks": 96,
          "midi": 80,
          "name": "G#5",
          "ticks": 8352,
          "time": 12.19624725,
          "velocity": 0.3937007874015748
        },
        {
          "duration": 0.2803734999999996,
          "durationTicks": 192,
          "midi": 78,
          "name": "F#5",
          "ticks": 8448,
          "time": 12.336434,
          "velocity": 0.3937007874015748
        },
        {
          "duration": 0.2803734999999996,
          "durationTicks": 192,
          "midi": 76,
          "name": "E5",
          "ticks": 8640,
          "time": 12.6168075,
          "velocity": 0.3937007874015748
        },
        {
          "duration": 0.5607469999999992,
          "durationTicks": 384,
          "midi": 73,
          "name": "C#5",
          "ticks": 8832,
          "time": 12.897181,
          "velocity": 0.3937007874015748
        },
        {
          "duration": 1.1214940000000002,
          "durationTicks": 768,
          "midi": 30,
          "name": "F#1",
          "ticks": 8832,
          "time": 12.897181,
          "velocity": 0.3937007874015748
        },
        {
          "duration": 1.1214940000000002,
          "durationTicks": 768,
          "midi": 42,
          "name": "F#2",
          "ticks": 8832,
          "time": 12.897181,
          "velocity": 0.3937007874015748
        },
        {
          "duration": 1.1214940000000002,
          "durationTicks": 768,
          "midi": 37,
          "name": "C#2",
          "ticks": 8832,
          "time": 12.897181,
          "velocity": 0.3937007874015748
        },
        {
          "duration": 1.1214940000000002,
          "durationTicks": 768,
          "midi": 33,
          "name": "A1",
          "ticks": 8832,
          "time": 12.897181,
          "velocity": 0.3937007874015748
        },
        {
          "duration": 0.2803735000000014,
          "durationTicks": 192,
          "midi": 59,
          "name": "B3",
          "ticks": 9216,
          "time": 13.457927999999999,
          "velocity": 0.3937007874015748
        },
        {
          "duration": 0.2803734999999996,
          "durationTicks": 192,
          "midi": 61,
          "name": "C#4",
          "ticks": 9408,
          "time": 13.7383015,
          "velocity": 0.3937007874015748
        },
        {
          "duration": 0.5607469999999992,
          "durationTicks": 384,
          "midi": 64,
          "name": "E4",
          "ticks": 9600,
          "time": 14.018675,
          "velocity": 0.3937007874015748
        },
        {
          "duration": 1.1214940000000002,
          "durationTicks": 768,
          "midi": 33,
          "name": "A1",
          "ticks": 9600,
          "time": 14.018675,
          "velocity": 0.3937007874015748
        },
        {
          "duration": 1.1214940000000002,
          "durationTicks": 768,
          "midi": 40,
          "name": "E2",
          "ticks": 9600,
          "time": 14.018675,
          "velocity": 0.3937007874015748
        },
        {
          "duration": 1.1214940000000002,
          "durationTicks": 768,
          "midi": 45,
          "name": "A2",
          "ticks": 9600,
          "time": 14.018675,
          "velocity": 0.3937007874015748
        },
        {
          "duration": 1.1214940000000002,
          "durationTicks": 768,
          "midi": 37,
          "name": "C#2",
          "ticks": 9600,
          "time": 14.018675,
          "velocity": 0.3937007874015748
        },
        {
          "duration": 0.2803735000000014,
          "durationTicks": 192,
          "midi": 66,
          "name": "F#4",
          "ticks": 9984,
          "time": 14.579422,
          "velocity": 0.3937007874015748
        },
        {
          "duration": 0.2803734999999996,
          "durationTicks": 192,
          "midi": 68,
          "name": "G#4",
          "ticks": 10176,
          "time": 14.8597955,
          "velocity": 0.3937007874015748
        },
        {
          "duration": 0.5607469999999992,
          "durationTicks": 384,
          "midi": 66,
          "name": "F#4",
          "ticks": 10368,
          "time": 15.140169,
          "velocity": 0.3937007874015748
        },
        {
          "duration": 1.1214939999999984,
          "durationTicks": 768,
          "midi": 39,
          "name": "D#2",
          "ticks": 10368,
          "time": 15.140169,
          "velocity": 0.3937007874015748
        },
        {
          "duration": 1.1214939999999984,
          "durationTicks": 768,
          "midi": 42,
          "name": "F#2",
          "ticks": 10368,
          "time": 15.140169,
          "velocity": 0.3937007874015748
        },
        {
          "duration": 1.1214939999999984,
          "durationTicks": 768,
          "midi": 47,
          "name": "B2",
          "ticks": 10368,
          "time": 15.140169,
          "velocity": 0.3937007874015748
        },
        {
          "duration": 1.1214939999999984,
          "durationTicks": 768,
          "midi": 35,
          "name": "B1",
          "ticks": 10368,
          "time": 15.140169,
          "velocity": 0.3937007874015748
        },
        {
          "duration": 0.2803734999999996,
          "durationTicks": 192,
          "midi": 64,
          "name": "E4",
          "ticks": 10752,
          "time": 15.700916,
          "velocity": 0.3937007874015748
        },
        {
          "duration": 0.2803734999999996,
          "durationTicks": 192,
          "midi": 61,
          "name": "C#4",
          "ticks": 10944,
          "time": 15.981289499999999,
          "velocity": 0.3937007874015748
        },
        {
          "duration": 1.6822410000000012,
          "durationTicks": 1152,
          "midi": 64,
          "name": "E4",
          "ticks": 11136,
          "time": 16.261663,
          "velocity": 0.3937007874015748
        },
        {
          "duration": 2.2429880000000004,
          "durationTicks": 1536,
          "midi": 44,
          "name": "G#2",
          "ticks": 11136,
          "time": 16.261663,
          "velocity": 0.3937007874015748
        },
        {
          "duration": 2.2429880000000004,
          "durationTicks": 1536,
          "midi": 37,
          "name": "C#2",
          "ticks": 11136,
          "time": 16.261663,
          "velocity": 0.3937007874015748
        },
        {
          "duration": 2.2429880000000004,
          "durationTicks": 1536,
          "midi": 49,
          "name": "C#3",
          "ticks": 11136,
          "time": 16.261663,
          "velocity": 0.3937007874015748
        },
        {
          "duration": 2.2429880000000004,
          "durationTicks": 1536,
          "midi": 40,
          "name": "E2",
          "ticks": 11136,
          "time": 16.261663,
          "velocity": 0.3937007874015748
        },
        {
          "duration": 0.14018674999999803,
          "durationTicks": 96,
          "midi": 61,
          "name": "C#4",
          "ticks": 13824,
          "time": 20.186892,
          "velocity": 0.3937007874015748
        },
        {
          "duration": 0.14018674999999803,
          "durationTicks": 96,
          "midi": 40,
          "name": "E2",
          "ticks": 13824,
          "time": 20.186892,
          "velocity": 0.3937007874015748
        },
        {
          "duration": 0.14018674999999803,
          "durationTicks": 96,
          "midi": 37,
          "name": "C#2",
          "ticks": 13824,
          "time": 20.186892,
          "velocity": 0.3937007874015748
        },
        {
          "duration": 0.14018674999999803,
          "durationTicks": 96,
          "midi": 44,
          "name": "G#2",
          "ticks": 13824,
          "time": 20.186892,
          "velocity": 0.3937007874015748
        },
        {
          "duration": 0.14018674999999803,
          "durationTicks": 96,
          "midi": 49,
          "name": "C#3",
          "ticks": 13824,
          "time": 20.186892,
          "velocity": 0.3937007874015748
        },
        {
          "duration": 0.14018675000000158,
          "durationTicks": 96,
          "midi": 37,
          "name": "C#2",
          "ticks": 14016,
          "time": 20.4672655,
          "velocity": 0.3937007874015748
        },
        {
          "duration": 0.14018674999999803,
          "durationTicks": 96,
          "midi": 61,
          "name": "C#4",
          "ticks": 14112,
          "time": 20.60745225,
          "velocity": 0.3937007874015748
        },
        {
          "duration": 0.14018674999999803,
          "durationTicks": 96,
          "midi": 37,
          "name": "C#2",
          "ticks": 14112,
          "time": 20.60745225,
          "velocity": 0.3937007874015748
        },
        {
          "duration": 0.14018675000000158,
          "durationTicks": 96,
          "midi": 64,
          "name": "E4",
          "ticks": 14208,
          "time": 20.747639,
          "velocity": 0.3937007874015748
        },
        {
          "duration": 0.14018675000000158,
          "durationTicks": 96,
          "midi": 66,
          "name": "F#4",
          "ticks": 14400,
          "time": 21.0280125,
          "velocity": 0.3937007874015748
        },
        {
          "duration": 0.14018675000000158,
          "durationTicks": 96,
          "midi": 37,
          "name": "C#2",
          "ticks": 14400,
          "time": 21.0280125,
          "velocity": 0.3937007874015748
        },
        {
          "duration": 0.14018675000000158,
          "durationTicks": 96,
          "midi": 61,
          "name": "C#4",
          "ticks": 14592,
          "time": 21.308386,
          "velocity": 0.3937007874015748
        },
        {
          "duration": 0.14018675000000158,
          "durationTicks": 96,
          "midi": 37,
          "name": "C#2",
          "ticks": 14592,
          "time": 21.308386,
          "velocity": 0.3937007874015748
        },
        {
          "duration": 0.14018675000000158,
          "durationTicks": 96,
          "midi": 33,
          "name": "A1",
          "ticks": 14592,
          "time": 21.308386,
          "velocity": 0.3937007874015748
        },
        {
          "duration": 0.14018675000000158,
          "durationTicks": 96,
          "midi": 40,
          "name": "E2",
          "ticks": 14592,
          "time": 21.308386,
          "velocity": 0.3937007874015748
        },
        {
          "duration": 0.14018675000000158,
          "durationTicks": 96,
          "midi": 45,
          "name": "A2",
          "ticks": 14592,
          "time": 21.308386,
          "velocity": 0.3937007874015748
        },
        {
          "duration": 0.14018675000000158,
          "durationTicks": 96,
          "midi": 33,
          "name": "A1",
          "ticks": 14784,
          "time": 21.5887595,
          "velocity": 0.3937007874015748
        },
        {
          "duration": 0.14018675000000158,
          "durationTicks": 96,
          "midi": 61,
          "name": "C#4",
          "ticks": 14880,
          "time": 21.72894625,
          "velocity": 0.3937007874015748
        },
        {
          "duration": 0.14018675000000158,
          "durationTicks": 96,
          "midi": 33,
          "name": "A1",
          "ticks": 14880,
          "time": 21.72894625,
          "velocity": 0.3937007874015748
        },
        {
          "duration": 0.14018674999999803,
          "durationTicks": 96,
          "midi": 64,
          "name": "E4",
          "ticks": 14976,
          "time": 21.869133,
          "velocity": 0.3937007874015748
        },
        {
          "duration": 0.14018674999999803,
          "durationTicks": 96,
          "midi": 66,
          "name": "F#4",
          "ticks": 15168,
          "time": 22.1495065,
          "velocity": 0.3937007874015748
        },
        {
          "duration": 0.14018674999999803,
          "durationTicks": 96,
          "midi": 33,
          "name": "A1",
          "ticks": 15168,
          "time": 22.1495065,
          "velocity": 0.3937007874015748
        },
        {
          "duration": 0.14018674999999803,
          "durationTicks": 96,
          "midi": 68,
          "name": "G#4",
          "ticks": 15360,
          "time": 22.42988,
          "velocity": 0.3937007874015748
        },
        {
          "duration": 0.14018674999999803,
          "durationTicks": 96,
          "midi": 44,
          "name": "G#2",
          "ticks": 15360,
          "time": 22.42988,
          "velocity": 0.3937007874015748
        },
        {
          "duration": 0.14018674999999803,
          "durationTicks": 96,
          "midi": 40,
          "name": "E2",
          "ticks": 15360,
          "time": 22.42988,
          "velocity": 0.3937007874015748
        },
        {
          "duration": 0.14018674999999803,
          "durationTicks": 96,
          "midi": 47,
          "name": "B2",
          "ticks": 15360,
          "time": 22.42988,
          "velocity": 0.3937007874015748
        },
        {
          "duration": 0.14018674999999803,
          "durationTicks": 96,
          "midi": 52,
          "name": "E3",
          "ticks": 15360,
          "time": 22.42988,
          "velocity": 0.3937007874015748
        },
        {
          "duration": 0.14018674999999803,
          "durationTicks": 96,
          "midi": 68,
          "name": "G#4",
          "ticks": 15552,
          "time": 22.7102535,
          "velocity": 0.3937007874015748
        },
        {
          "duration": 0.14018674999999803,
          "durationTicks": 96,
          "midi": 40,
          "name": "E2",
          "ticks": 15552,
          "time": 22.7102535,
          "velocity": 0.3937007874015748
        },
        {
          "duration": 0.14018675000000158,
          "durationTicks": 96,
          "midi": 40,
          "name": "E2",
          "ticks": 15648,
          "time": 22.85044025,
          "velocity": 0.3937007874015748
        },
        {
          "duration": 0.14018675000000158,
          "durationTicks": 96,
          "midi": 68,
          "name": "G#4",
          "ticks": 15744,
          "time": 22.990627,
          "velocity": 0.3937007874015748
        },
        {
          "duration": 0.14018674999999803,
          "durationTicks": 96,
          "midi": 66,
          "name": "F#4",
          "ticks": 15840,
          "time": 23.13081375,
          "velocity": 0.3937007874015748
        },
        {
          "duration": 0.14018675000000158,
          "durationTicks": 96,
          "midi": 64,
          "name": "E4",
          "ticks": 15936,
          "time": 23.2710005,
          "velocity": 0.3937007874015748
        },
        {
          "duration": 0.14018675000000158,
          "durationTicks": 96,
          "midi": 40,
          "name": "E2",
          "ticks": 15936,
          "time": 23.2710005,
          "velocity": 0.3937007874015748
        },
        {
          "duration": 0.14018674999999803,
          "durationTicks": 96,
          "midi": 68,
          "name": "G#4",
          "ticks": 16032,
          "time": 23.41118725,
          "velocity": 0.3937007874015748
        },
        {
          "duration": 0.2803734999999996,
          "durationTicks": 192,
          "midi": 66,
          "name": "F#4",
          "ticks": 16128,
          "time": 23.551374,
          "velocity": 0.3937007874015748
        },
        {
          "duration": 0.14018675000000158,
          "durationTicks": 96,
          "midi": 39,
          "name": "D#2",
          "ticks": 16128,
          "time": 23.551374,
          "velocity": 0.3937007874015748
        },
        {
          "duration": 0.14018675000000158,
          "durationTicks": 96,
          "midi": 35,
          "name": "B1",
          "ticks": 16128,
          "time": 23.551374,
          "velocity": 0.3937007874015748
        },
        {
          "duration": 0.14018675000000158,
          "durationTicks": 96,
          "midi": 42,
          "name": "F#2",
          "ticks": 16128,
          "time": 23.551374,
          "velocity": 0.3937007874015748
        },
        {
          "duration": 0.14018675000000158,
          "durationTicks": 96,
          "midi": 47,
          "name": "B2",
          "ticks": 16128,
          "time": 23.551374,
          "velocity": 0.3937007874015748
        },
        {
          "duration": 0.14018675000000158,
          "durationTicks": 96,
          "midi": 64,
          "name": "E4",
          "ticks": 16320,
          "time": 23.8317475,
          "velocity": 0.3937007874015748
        },
        {
          "duration": 0.14018675000000158,
          "durationTicks": 96,
          "midi": 35,
          "name": "B1",
          "ticks": 16320,
          "time": 23.8317475,
          "velocity": 0.3937007874015748
        },
        {
          "duration": 0.14018674999999803,
          "durationTicks": 96,
          "midi": 66,
          "name": "F#4",
          "ticks": 16416,
          "time": 23.97193425,
          "velocity": 0.3937007874015748
        },
        {
          "duration": 0.14018674999999803,
          "durationTicks": 96,
          "midi": 35,
          "name": "B1",
          "ticks": 16416,
          "time": 23.97193425,
          "velocity": 0.3937007874015748
        },
        {
          "duration": 0.4205602500000012,
          "durationTicks": 288,
          "midi": 68,
          "name": "G#4",
          "ticks": 16608,
          "time": 24.25230775,
          "velocity": 0.3937007874015748
        },
        {
          "duration": 0.14018674999999803,
          "durationTicks": 96,
          "midi": 35,
          "name": "B1",
          "ticks": 16704,
          "time": 24.3924945,
          "velocity": 0.3937007874015748
        },
        {
          "duration": 0.14018674999999803,
          "durationTicks": 96,
          "midi": 61,
          "name": "C#4",
          "ticks": 16896,
          "time": 24.672868,
          "velocity": 0.3937007874015748
        },
        {
          "duration": 0.14018674999999803,
          "durationTicks": 96,
          "midi": 49,
          "name": "C#3",
          "ticks": 16896,
          "time": 24.672868,
          "velocity": 0.3937007874015748
        },
        {
          "duration": 0.14018674999999803,
          "durationTicks": 96,
          "midi": 40,
          "name": "E2",
          "ticks": 16896,
          "time": 24.672868,
          "velocity": 0.3937007874015748
        },
        {
          "duration": 0.14018674999999803,
          "durationTicks": 96,
          "midi": 37,
          "name": "C#2",
          "ticks": 16896,
          "time": 24.672868,
          "velocity": 0.3937007874015748
        },
        {
          "duration": 0.14018674999999803,
          "durationTicks": 96,
          "midi": 44,
          "name": "G#2",
          "ticks": 16896,
          "time": 24.672868,
          "velocity": 0.3937007874015748
        },
        {
          "duration": 0.14018674999999803,
          "durationTicks": 96,
          "midi": 37,
          "name": "C#2",
          "ticks": 17088,
          "time": 24.9532415,
          "velocity": 0.3937007874015748
        },
        {
          "duration": 0.14018675000000158,
          "durationTicks": 96,
          "midi": 61,
          "name": "C#4",
          "ticks": 17184,
          "time": 25.09342825,
          "velocity": 0.3937007874015748
        },
        {
          "duration": 0.14018675000000158,
          "durationTicks": 96,
          "midi": 37,
          "name": "C#2",
          "ticks": 17184,
          "time": 25.09342825,
          "velocity": 0.3937007874015748
        },
        {
          "duration": 0.14018674999999803,
          "durationTicks": 96,
          "midi": 64,
          "name": "E4",
          "ticks": 17280,
          "time": 25.233615,
          "velocity": 0.3937007874015748
        },
        {
          "duration": 0.14018675000000158,
          "durationTicks": 96,
          "midi": 66,
          "name": "F#4",
          "ticks": 17472,
          "time": 25.5139885,
          "velocity": 0.3937007874015748
        },
        {
          "duration": 0.14018675000000158,
          "durationTicks": 96,
          "midi": 37,
          "name": "C#2",
          "ticks": 17472,
          "time": 25.5139885,
          "velocity": 0.3937007874015748
        },
        {
          "duration": 0.14018675000000158,
          "durationTicks": 96,
          "midi": 61,
          "name": "C#4",
          "ticks": 17664,
          "time": 25.794362,
          "velocity": 0.3937007874015748
        },
        {
          "duration": 0.14018675000000158,
          "durationTicks": 96,
          "midi": 37,
          "name": "C#2",
          "ticks": 17664,
          "time": 25.794362,
          "velocity": 0.3937007874015748
        },
        {
          "duration": 0.14018675000000158,
          "durationTicks": 96,
          "midi": 33,
          "name": "A1",
          "ticks": 17664,
          "time": 25.794362,
          "velocity": 0.3937007874015748
        },
        {
          "duration": 0.14018675000000158,
          "durationTicks": 96,
          "midi": 40,
          "name": "E2",
          "ticks": 17664,
          "time": 25.794362,
          "velocity": 0.3937007874015748
        },
        {
          "duration": 0.14018675000000158,
          "durationTicks": 96,
          "midi": 45,
          "name": "A2",
          "ticks": 17664,
          "time": 25.794362,
          "velocity": 0.3937007874015748
        },
        {
          "duration": 0.14018675000000158,
          "durationTicks": 96,
          "midi": 33,
          "name": "A1",
          "ticks": 17856,
          "time": 26.0747355,
          "velocity": 0.3937007874015748
        },
        {
          "duration": 0.14018674999999803,
          "durationTicks": 96,
          "midi": 61,
          "name": "C#4",
          "ticks": 17952,
          "time": 26.21492225,
          "velocity": 0.3937007874015748
        },
        {
          "duration": 0.14018674999999803,
          "durationTicks": 96,
          "midi": 33,
          "name": "A1",
          "ticks": 17952,
          "time": 26.21492225,
          "velocity": 0.3937007874015748
        },
        {
          "duration": 0.14018675000000158,
          "durationTicks": 96,
          "midi": 64,
          "name": "E4",
          "ticks": 18048,
          "time": 26.355109,
          "velocity": 0.3937007874015748
        },
        {
          "duration": 0.14018675000000158,
          "durationTicks": 96,
          "midi": 73,
          "name": "C#5",
          "ticks": 18240,
          "time": 26.6354825,
          "velocity": 0.3937007874015748
        },
        {
          "duration": 0.14018675000000158,
          "durationTicks": 96,
          "midi": 33,
          "name": "A1",
          "ticks": 18240,
          "time": 26.6354825,
          "velocity": 0.3937007874015748
        },
        {
          "duration": 0.14018675000000158,
          "durationTicks": 96,
          "midi": 71,
          "name": "B4",
          "ticks": 18432,
          "time": 26.915855999999998,
          "velocity": 0.3937007874015748
        },
        {
          "duration": 0.14018675000000158,
          "durationTicks": 96,
          "midi": 44,
          "name": "G#2",
          "ticks": 18432,
          "time": 26.915855999999998,
          "velocity": 0.3937007874015748
        },
        {
          "duration": 0.14018675000000158,
          "durationTicks": 96,
          "midi": 40,
          "name": "E2",
          "ticks": 18432,
          "time": 26.915855999999998,
          "velocity": 0.3937007874015748
        },
        {
          "duration": 0.14018675000000158,
          "durationTicks": 96,
          "midi": 47,
          "name": "B2",
          "ticks": 18432,
          "time": 26.915855999999998,
          "velocity": 0.3937007874015748
        },
        {
          "duration": 0.14018675000000158,
          "durationTicks": 96,
          "midi": 52,
          "name": "E3",
          "ticks": 18432,
          "time": 26.915855999999998,
          "velocity": 0.3937007874015748
        },
        {
          "duration": 0.14018674999999803,
          "durationTicks": 96,
          "midi": 68,
          "name": "G#4",
          "ticks": 18624,
          "time": 27.1962295,
          "velocity": 0.3937007874015748
        },
        {
          "duration": 0.14018674999999803,
          "durationTicks": 96,
          "midi": 40,
          "name": "E2",
          "ticks": 18624,
          "time": 27.1962295,
          "velocity": 0.3937007874015748
        },
        {
          "duration": 0.14018675000000158,
          "durationTicks": 96,
          "midi": 40,
          "name": "E2",
          "ticks": 18720,
          "time": 27.33641625,
          "velocity": 0.3937007874015748
        },
        {
          "duration": 0.14018674999999803,
          "durationTicks": 96,
          "midi": 66,
          "name": "F#4",
          "ticks": 18816,
          "time": 27.476603,
          "velocity": 0.3937007874015748
        },
        {
          "duration": 0.14018675000000158,
          "durationTicks": 96,
          "midi": 64,
          "name": "E4",
          "ticks": 18912,
          "time": 27.61678975,
          "velocity": 0.3937007874015748
        },
        {
          "duration": 0.14018674999999803,
          "durationTicks": 96,
          "midi": 66,
          "name": "F#4",
          "ticks": 19008,
          "time": 27.7569765,
          "velocity": 0.3937007874015748
        },
        {
          "duration": 0.14018674999999803,
          "durationTicks": 96,
          "midi": 40,
          "name": "E2",
          "ticks": 19008,
          "time": 27.7569765,
          "velocity": 0.3937007874015748
        },
        {
          "duration": 0.14018675000000158,
          "durationTicks": 96,
          "midi": 68,
          "name": "G#4",
          "ticks": 19104,
          "time": 27.89716325,
          "velocity": 0.3937007874015748
        },
        {
          "duration": 0.2803734999999996,
          "durationTicks": 192,
          "midi": 71,
          "name": "B4",
          "ticks": 19200,
          "time": 28.03735,
          "velocity": 0.3937007874015748
        },
        {
          "duration": 0.14018674999999803,
          "durationTicks": 96,
          "midi": 47,
          "name": "B2",
          "ticks": 19200,
          "time": 28.03735,
          "velocity": 0.3937007874015748
        },
        {
          "duration": 0.14018674999999803,
          "durationTicks": 96,
          "midi": 39,
          "name": "D#2",
          "ticks": 19200,
          "time": 28.03735,
          "velocity": 0.3937007874015748
        },
        {
          "duration": 0.14018674999999803,
          "durationTicks": 96,
          "midi": 35,
          "name": "B1",
          "ticks": 19200,
          "time": 28.03735,
          "velocity": 0.3937007874015748
        },
        {
          "duration": 0.14018674999999803,
          "durationTicks": 96,
          "midi": 42,
          "name": "F#2",
          "ticks": 19200,
          "time": 28.03735,
          "velocity": 0.3937007874015748
        },
        {
          "duration": 0.14018675000000158,
          "durationTicks": 96,
          "midi": 68,
          "name": "G#4",
          "ticks": 19392,
          "time": 28.3177235,
          "velocity": 0.3937007874015748
        },
        {
          "duration": 0.14018675000000158,
          "durationTicks": 96,
          "midi": 35,
          "name": "B1",
          "ticks": 19392,
          "time": 28.3177235,
          "velocity": 0.3937007874015748
        },
        {
          "duration": 0.14018674999999803,
          "durationTicks": 96,
          "midi": 66,
          "name": "F#4",
          "ticks": 19488,
          "time": 28.45791025,
          "velocity": 0.3937007874015748
        },
        {
          "duration": 0.14018674999999803,
          "durationTicks": 96,
          "midi": 35,
          "name": "B1",
          "ticks": 19488,
          "time": 28.45791025,
          "velocity": 0.3937007874015748
        },
        {
          "duration": 0.42056024999999764,
          "durationTicks": 288,
          "midi": 64,
          "name": "E4",
          "ticks": 19680,
          "time": 28.73828375,
          "velocity": 0.3937007874015748
        },
        {
          "duration": 0.14018675000000158,
          "durationTicks": 96,
          "midi": 35,
          "name": "B1",
          "ticks": 19776,
          "time": 28.8784705,
          "velocity": 0.3937007874015748
        },
        {
          "duration": 0.14018675000000158,
          "durationTicks": 96,
          "midi": 61,
          "name": "C#4",
          "ticks": 19968,
          "time": 29.158844,
          "velocity": 0.3937007874015748
        },
        {
          "duration": 0.14018675000000158,
          "durationTicks": 96,
          "midi": 40,
          "name": "E2",
          "ticks": 19968,
          "time": 29.158844,
          "velocity": 0.3937007874015748
        },
        {
          "duration": 0.14018675000000158,
          "durationTicks": 96,
          "midi": 37,
          "name": "C#2",
          "ticks": 19968,
          "time": 29.158844,
          "velocity": 0.3937007874015748
        },
        {
          "duration": 0.14018675000000158,
          "durationTicks": 96,
          "midi": 44,
          "name": "G#2",
          "ticks": 19968,
          "time": 29.158844,
          "velocity": 0.3937007874015748
        },
        {
          "duration": 0.14018675000000158,
          "durationTicks": 96,
          "midi": 49,
          "name": "C#3",
          "ticks": 19968,
          "time": 29.158844,
          "velocity": 0.3937007874015748
        },
        {
          "duration": 0.14018675000000158,
          "durationTicks": 96,
          "midi": 37,
          "name": "C#2",
          "ticks": 20160,
          "time": 29.439217499999998,
          "velocity": 0.3937007874015748
        },
        {
          "duration": 0.14018675000000158,
          "durationTicks": 96,
          "midi": 61,
          "name": "C#4",
          "ticks": 20256,
          "time": 29.57940425,
          "velocity": 0.3937007874015748
        },
        {
          "duration": 0.14018675000000158,
          "durationTicks": 96,
          "midi": 37,
          "name": "C#2",
          "ticks": 20256,
          "time": 29.57940425,
          "velocity": 0.3937007874015748
        },
        {
          "duration": 0.14018674999999803,
          "durationTicks": 96,
          "midi": 64,
          "name": "E4",
          "ticks": 20352,
          "time": 29.719591,
          "velocity": 0.3937007874015748
        },
        {
          "duration": 0.14018674999999803,
          "durationTicks": 96,
          "midi": 66,
          "name": "F#4",
          "ticks": 20544,
          "time": 29.9999645,
          "velocity": 0.3937007874015748
        },
        {
          "duration": 0.14018674999999803,
          "durationTicks": 96,
          "midi": 37,
          "name": "C#2",
          "ticks": 20544,
          "time": 29.9999645,
          "velocity": 0.3937007874015748
        },
        {
          "duration": 0.14018674999999803,
          "durationTicks": 96,
          "midi": 61,
          "name": "C#4",
          "ticks": 20736,
          "time": 30.280338,
          "velocity": 0.3937007874015748
        },
        {
          "duration": 0.14018674999999803,
          "durationTicks": 96,
          "midi": 37,
          "name": "C#2",
          "ticks": 20736,
          "time": 30.280338,
          "velocity": 0.3937007874015748
        },
        {
          "duration": 0.14018674999999803,
          "durationTicks": 96,
          "midi": 33,
          "name": "A1",
          "ticks": 20736,
          "time": 30.280338,
          "velocity": 0.3937007874015748
        },
        {
          "duration": 0.14018674999999803,
          "durationTicks": 96,
          "midi": 40,
          "name": "E2",
          "ticks": 20736,
          "time": 30.280338,
          "velocity": 0.3937007874015748
        },
        {
          "duration": 0.14018674999999803,
          "durationTicks": 96,
          "midi": 45,
          "name": "A2",
          "ticks": 20736,
          "time": 30.280338,
          "velocity": 0.3937007874015748
        },
        {
          "duration": 0.14018674999999803,
          "durationTicks": 96,
          "midi": 33,
          "name": "A1",
          "ticks": 20928,
          "time": 30.5607115,
          "velocity": 0.3937007874015748
        },
        {
          "duration": 0.14018675000000158,
          "durationTicks": 96,
          "midi": 61,
          "name": "C#4",
          "ticks": 21024,
          "time": 30.700898249999998,
          "velocity": 0.3937007874015748
        },
        {
          "duration": 0.14018675000000158,
          "durationTicks": 96,
          "midi": 33,
          "name": "A1",
          "ticks": 21024,
          "time": 30.700898249999998,
          "velocity": 0.3937007874015748
        },
        {
          "duration": 0.14018675000000158,
          "durationTicks": 96,
          "midi": 64,
          "name": "E4",
          "ticks": 21120,
          "time": 30.841085,
          "velocity": 0.3937007874015748
        },
        {
          "duration": 0.14018675000000158,
          "durationTicks": 96,
          "midi": 66,
          "name": "F#4",
          "ticks": 21312,
          "time": 31.1214585,
          "velocity": 0.3937007874015748
        },
        {
          "duration": 0.14018675000000158,
          "durationTicks": 96,
          "midi": 33,
          "name": "A1",
          "ticks": 21312,
          "time": 31.1214585,
          "velocity": 0.3937007874015748
        },
        {
          "duration": 0.14018675000000158,
          "durationTicks": 96,
          "midi": 68,
          "name": "G#4",
          "ticks": 21504,
          "time": 31.401832,
          "velocity": 0.3937007874015748
        },
        {
          "duration": 0.14018675000000158,
          "durationTicks": 96,
          "midi": 44,
          "name": "G#2",
          "ticks": 21504,
          "time": 31.401832,
          "velocity": 0.3937007874015748
        },
        {
          "duration": 0.14018675000000158,
          "durationTicks": 96,
          "midi": 40,
          "name": "E2",
          "ticks": 21504,
          "time": 31.401832,
          "velocity": 0.3937007874015748
        },
        {
          "duration": 0.14018675000000158,
          "durationTicks": 96,
          "midi": 47,
          "name": "B2",
          "ticks": 21504,
          "time": 31.401832,
          "velocity": 0.3937007874015748
        },
        {
          "duration": 0.14018675000000158,
          "durationTicks": 96,
          "midi": 52,
          "name": "E3",
          "ticks": 21504,
          "time": 31.401832,
          "velocity": 0.3937007874015748
        },
        {
          "duration": 0.14018675000000158,
          "durationTicks": 96,
          "midi": 68,
          "name": "G#4",
          "ticks": 21696,
          "time": 31.6822055,
          "velocity": 0.3937007874015748
        },
        {
          "duration": 0.14018675000000158,
          "durationTicks": 96,
          "midi": 40,
          "name": "E2",
          "ticks": 21696,
          "time": 31.6822055,
          "velocity": 0.3937007874015748
        },
        {
          "duration": 0.14018674999999803,
          "durationTicks": 96,
          "midi": 40,
          "name": "E2",
          "ticks": 21792,
          "time": 31.82239225,
          "velocity": 0.3937007874015748
        },
        {
          "duration": 0.14018675000000513,
          "durationTicks": 96,
          "midi": 68,
          "name": "G#4",
          "ticks": 21888,
          "time": 31.962578999999998,
          "velocity": 0.3937007874015748
        },
        {
          "duration": 0.14018674999999803,
          "durationTicks": 96,
          "midi": 66,
          "name": "F#4",
          "ticks": 21984,
          "time": 32.10276575,
          "velocity": 0.3937007874015748
        },
        {
          "duration": 0.14018674999999803,
          "durationTicks": 96,
          "midi": 64,
          "name": "E4",
          "ticks": 22080,
          "time": 32.2429525,
          "velocity": 0.3937007874015748
        },
        {
          "duration": 0.14018674999999803,
          "durationTicks": 96,
          "midi": 40,
          "name": "E2",
          "ticks": 22080,
          "time": 32.2429525,
          "velocity": 0.3937007874015748
        },
        {
          "duration": 0.14018674999999803,
          "durationTicks": 96,
          "midi": 68,
          "name": "G#4",
          "ticks": 22176,
          "time": 32.38313925,
          "velocity": 0.3937007874015748
        },
        {
          "duration": 0.28037350000000316,
          "durationTicks": 192,
          "midi": 66,
          "name": "F#4",
          "ticks": 22272,
          "time": 32.523326,
          "velocity": 0.3937007874015748
        },
        {
          "duration": 0.14018675000000513,
          "durationTicks": 96,
          "midi": 39,
          "name": "D#2",
          "ticks": 22272,
          "time": 32.523326,
          "velocity": 0.3937007874015748
        },
        {
          "duration": 0.14018675000000513,
          "durationTicks": 96,
          "midi": 35,
          "name": "B1",
          "ticks": 22272,
          "time": 32.523326,
          "velocity": 0.3937007874015748
        },
        {
          "duration": 0.14018675000000513,
          "durationTicks": 96,
          "midi": 42,
          "name": "F#2",
          "ticks": 22272,
          "time": 32.523326,
          "velocity": 0.3937007874015748
        },
        {
          "duration": 0.14018675000000513,
          "durationTicks": 96,
          "midi": 47,
          "name": "B2",
          "ticks": 22272,
          "time": 32.523326,
          "velocity": 0.3937007874015748
        },
        {
          "duration": 0.14018674999999803,
          "durationTicks": 96,
          "midi": 64,
          "name": "E4",
          "ticks": 22464,
          "time": 32.8036995,
          "velocity": 0.3937007874015748
        },
        {
          "duration": 0.14018674999999803,
          "durationTicks": 96,
          "midi": 35,
          "name": "B1",
          "ticks": 22464,
          "time": 32.8036995,
          "velocity": 0.3937007874015748
        },
        {
          "duration": 0.14018674999999803,
          "durationTicks": 96,
          "midi": 66,
          "name": "F#4",
          "ticks": 22560,
          "time": 32.94388625,
          "velocity": 0.3937007874015748
        },
        {
          "duration": 0.14018674999999803,
          "durationTicks": 96,
          "midi": 35,
          "name": "B1",
          "ticks": 22560,
          "time": 32.94388625,
          "velocity": 0.3937007874015748
        },
        {
          "duration": 0.4205602500000012,
          "durationTicks": 288,
          "midi": 68,
          "name": "G#4",
          "ticks": 22752,
          "time": 33.22425975,
          "velocity": 0.3937007874015748
        },
        {
          "duration": 0.14018674999999803,
          "durationTicks": 96,
          "midi": 35,
          "name": "B1",
          "ticks": 22848,
          "time": 33.3644465,
          "velocity": 0.3937007874015748
        },
        {
          "duration": 0.14018674999999803,
          "durationTicks": 96,
          "midi": 61,
          "name": "C#4",
          "ticks": 23040,
          "time": 33.64482,
          "velocity": 0.3937007874015748
        },
        {
          "duration": 0.14018674999999803,
          "durationTicks": 96,
          "midi": 49,
          "name": "C#3",
          "ticks": 23040,
          "time": 33.64482,
          "velocity": 0.3937007874015748
        },
        {
          "duration": 0.14018674999999803,
          "durationTicks": 96,
          "midi": 40,
          "name": "E2",
          "ticks": 23040,
          "time": 33.64482,
          "velocity": 0.3937007874015748
        },
        {
          "duration": 0.14018674999999803,
          "durationTicks": 96,
          "midi": 37,
          "name": "C#2",
          "ticks": 23040,
          "time": 33.64482,
          "velocity": 0.3937007874015748
        },
        {
          "duration": 0.14018674999999803,
          "durationTicks": 96,
          "midi": 44,
          "name": "G#2",
          "ticks": 23040,
          "time": 33.64482,
          "velocity": 0.3937007874015748
        },
        {
          "duration": 0.14018674999999803,
          "durationTicks": 96,
          "midi": 37,
          "name": "C#2",
          "ticks": 23232,
          "time": 33.9251935,
          "velocity": 0.3937007874015748
        },
        {
          "duration": 0.14018675000000513,
          "durationTicks": 96,
          "midi": 61,
          "name": "C#4",
          "ticks": 23328,
          "time": 34.06538025,
          "velocity": 0.3937007874015748
        },
        {
          "duration": 0.14018675000000513,
          "durationTicks": 96,
          "midi": 37,
          "name": "C#2",
          "ticks": 23328,
          "time": 34.06538025,
          "velocity": 0.3937007874015748
        },
        {
          "duration": 0.14018674999999803,
          "durationTicks": 96,
          "midi": 64,
          "name": "E4",
          "ticks": 23424,
          "time": 34.205567,
          "velocity": 0.3937007874015748
        },
        {
          "duration": 0.14018675000000513,
          "durationTicks": 96,
          "midi": 66,
          "name": "F#4",
          "ticks": 23616,
          "time": 34.4859405,
          "velocity": 0.3937007874015748
        },
        {
          "duration": 0.14018675000000513,
          "durationTicks": 96,
          "midi": 37,
          "name": "C#2",
          "ticks": 23616,
          "time": 34.4859405,
          "velocity": 0.3937007874015748
        },
        {
          "duration": 0.14018674999999803,
          "durationTicks": 96,
          "midi": 61,
          "name": "C#4",
          "ticks": 23808,
          "time": 34.766314,
          "velocity": 0.3937007874015748
        },
        {
          "duration": 0.14018674999999803,
          "durationTicks": 96,
          "midi": 37,
          "name": "C#2",
          "ticks": 23808,
          "time": 34.766314,
          "velocity": 0.3937007874015748
        },
        {
          "duration": 0.14018674999999803,
          "durationTicks": 96,
          "midi": 33,
          "name": "A1",
          "ticks": 23808,
          "time": 34.766314,
          "velocity": 0.3937007874015748
        },
        {
          "duration": 0.14018674999999803,
          "durationTicks": 96,
          "midi": 40,
          "name": "E2",
          "ticks": 23808,
          "time": 34.766314,
          "velocity": 0.3937007874015748
        },
        {
          "duration": 0.14018674999999803,
          "durationTicks": 96,
          "midi": 45,
          "name": "A2",
          "ticks": 23808,
          "time": 34.766314,
          "velocity": 0.3937007874015748
        },
        {
          "duration": 0.14018675000000513,
          "durationTicks": 96,
          "midi": 33,
          "name": "A1",
          "ticks": 24000,
          "time": 35.0466875,
          "velocity": 0.3937007874015748
        },
        {
          "duration": 0.14018674999999803,
          "durationTicks": 96,
          "midi": 61,
          "name": "C#4",
          "ticks": 24096,
          "time": 35.18687425,
          "velocity": 0.3937007874015748
        },
        {
          "duration": 0.14018674999999803,
          "durationTicks": 96,
          "midi": 33,
          "name": "A1",
          "ticks": 24096,
          "time": 35.18687425,
          "velocity": 0.3937007874015748
        },
        {
          "duration": 0.14018674999999803,
          "durationTicks": 96,
          "midi": 64,
          "name": "E4",
          "ticks": 24192,
          "time": 35.327061,
          "velocity": 0.3937007874015748
        },
        {
          "duration": 0.14018675000000513,
          "durationTicks": 96,
          "midi": 73,
          "name": "C#5",
          "ticks": 24384,
          "time": 35.6074345,
          "velocity": 0.3937007874015748
        },
        {
          "duration": 0.14018675000000513,
          "durationTicks": 96,
          "midi": 33,
          "name": "A1",
          "ticks": 24384,
          "time": 35.6074345,
          "velocity": 0.3937007874015748
        },
        {
          "duration": 0.14018674999999803,
          "durationTicks": 96,
          "midi": 71,
          "name": "B4",
          "ticks": 24576,
          "time": 35.887808,
          "velocity": 0.3937007874015748
        },
        {
          "duration": 0.14018674999999803,
          "durationTicks": 96,
          "midi": 44,
          "name": "G#2",
          "ticks": 24576,
          "time": 35.887808,
          "velocity": 0.3937007874015748
        },
        {
          "duration": 0.14018674999999803,
          "durationTicks": 96,
          "midi": 40,
          "name": "E2",
          "ticks": 24576,
          "time": 35.887808,
          "velocity": 0.3937007874015748
        },
        {
          "duration": 0.14018674999999803,
          "durationTicks": 96,
          "midi": 47,
          "name": "B2",
          "ticks": 24576,
          "time": 35.887808,
          "velocity": 0.3937007874015748
        },
        {
          "duration": 0.14018674999999803,
          "durationTicks": 96,
          "midi": 52,
          "name": "E3",
          "ticks": 24576,
          "time": 35.887808,
          "velocity": 0.3937007874015748
        },
        {
          "duration": 0.14018674999999803,
          "durationTicks": 96,
          "midi": 68,
          "name": "G#4",
          "ticks": 24768,
          "time": 36.1681815,
          "velocity": 0.3937007874015748
        },
        {
          "duration": 0.14018674999999803,
          "durationTicks": 96,
          "midi": 40,
          "name": "E2",
          "ticks": 24768,
          "time": 36.1681815,
          "velocity": 0.3937007874015748
        },
        {
          "duration": 0.14018674999999803,
          "durationTicks": 96,
          "midi": 40,
          "name": "E2",
          "ticks": 24864,
          "time": 36.30836825,
          "velocity": 0.3937007874015748
        },
        {
          "duration": 0.14018674999999803,
          "durationTicks": 96,
          "midi": 66,
          "name": "F#4",
          "ticks": 24960,
          "time": 36.448555,
          "velocity": 0.3937007874015748
        },
        {
          "duration": 0.14018675000000513,
          "durationTicks": 96,
          "midi": 64,
          "name": "E4",
          "ticks": 25056,
          "time": 36.58874175,
          "velocity": 0.3937007874015748
        },
        {
          "duration": 0.14018674999999803,
          "durationTicks": 96,
          "midi": 66,
          "name": "F#4",
          "ticks": 25152,
          "time": 36.7289285,
          "velocity": 0.3937007874015748
        },
        {
          "duration": 0.14018674999999803,
          "durationTicks": 96,
          "midi": 40,
          "name": "E2",
          "ticks": 25152,
          "time": 36.7289285,
          "velocity": 0.3937007874015748
        },
        {
          "duration": 0.14018674999999803,
          "durationTicks": 96,
          "midi": 68,
          "name": "G#4",
          "ticks": 25248,
          "time": 36.86911525,
          "velocity": 0.3937007874015748
        },
        {
          "duration": 0.28037350000000316,
          "durationTicks": 192,
          "midi": 71,
          "name": "B4",
          "ticks": 25344,
          "time": 37.009302,
          "velocity": 0.3937007874015748
        },
        {
          "duration": 0.14018674999999803,
          "durationTicks": 96,
          "midi": 47,
          "name": "B2",
          "ticks": 25344,
          "time": 37.009302,
          "velocity": 0.3937007874015748
        },
        {
          "duration": 0.14018674999999803,
          "durationTicks": 96,
          "midi": 39,
          "name": "D#2",
          "ticks": 25344,
          "time": 37.009302,
          "velocity": 0.3937007874015748
        },
        {
          "duration": 0.14018674999999803,
          "durationTicks": 96,
          "midi": 35,
          "name": "B1",
          "ticks": 25344,
          "time": 37.009302,
          "velocity": 0.3937007874015748
        },
        {
          "duration": 0.14018674999999803,
          "durationTicks": 96,
          "midi": 42,
          "name": "F#2",
          "ticks": 25344,
          "time": 37.009302,
          "velocity": 0.3937007874015748
        },
        {
          "duration": 0.14018674999999803,
          "durationTicks": 96,
          "midi": 68,
          "name": "G#4",
          "ticks": 25536,
          "time": 37.2896755,
          "velocity": 0.3937007874015748
        },
        {
          "duration": 0.14018674999999803,
          "durationTicks": 96,
          "midi": 35,
          "name": "B1",
          "ticks": 25536,
          "time": 37.2896755,
          "velocity": 0.3937007874015748
        },
        {
          "duration": 0.14018674999999803,
          "durationTicks": 96,
          "midi": 66,
          "name": "F#4",
          "ticks": 25632,
          "time": 37.42986225,
          "velocity": 0.3937007874015748
        },
        {
          "duration": 0.14018674999999803,
          "durationTicks": 96,
          "midi": 35,
          "name": "B1",
          "ticks": 25632,
          "time": 37.42986225,
          "velocity": 0.3937007874015748
        },
        {
          "duration": 0.4205602499999941,
          "durationTicks": 288,
          "midi": 64,
          "name": "E4",
          "ticks": 25824,
          "time": 37.71023575,
          "velocity": 0.3937007874015748
        },
        {
          "duration": 0.14018674999999803,
          "durationTicks": 96,
          "midi": 35,
          "name": "B1",
          "ticks": 25920,
          "time": 37.8504225,
          "velocity": 0.3937007874015748
        },
        {
          "duration": 0.14018675000000513,
          "durationTicks": 96,
          "midi": 61,
          "name": "C#4",
          "ticks": 26112,
          "time": 38.130796,
          "velocity": 0.3937007874015748
        },
        {
          "duration": 0.14018675000000513,
          "durationTicks": 96,
          "midi": 40,
          "name": "E2",
          "ticks": 26112,
          "time": 38.130796,
          "velocity": 0.3937007874015748
        },
        {
          "duration": 0.14018675000000513,
          "durationTicks": 96,
          "midi": 37,
          "name": "C#2",
          "ticks": 26112,
          "time": 38.130796,
          "velocity": 0.3937007874015748
        },
        {
          "duration": 0.14018675000000513,
          "durationTicks": 96,
          "midi": 44,
          "name": "G#2",
          "ticks": 26112,
          "time": 38.130796,
          "velocity": 0.3937007874015748
        },
        {
          "duration": 0.14018675000000513,
          "durationTicks": 96,
          "midi": 49,
          "name": "C#3",
          "ticks": 26112,
          "time": 38.130796,
          "velocity": 0.3937007874015748
        },
        {
          "duration": 0.14018674999999803,
          "durationTicks": 96,
          "midi": 37,
          "name": "C#2",
          "ticks": 26304,
          "time": 38.4111695,
          "velocity": 0.3937007874015748
        },
        {
          "duration": 0.14018675000000513,
          "durationTicks": 96,
          "midi": 61,
          "name": "C#4",
          "ticks": 26400,
          "time": 38.55135625,
          "velocity": 0.3937007874015748
        },
        {
          "duration": 0.14018675000000513,
          "durationTicks": 96,
          "midi": 37,
          "name": "C#2",
          "ticks": 26400,
          "time": 38.55135625,
          "velocity": 0.3937007874015748
        },
        {
          "duration": 0.14018674999999803,
          "durationTicks": 96,
          "midi": 64,
          "name": "E4",
          "ticks": 26496,
          "time": 38.691543,
          "velocity": 0.3937007874015748
        },
        {
          "duration": 0.14018674999999803,
          "durationTicks": 96,
          "midi": 66,
          "name": "F#4",
          "ticks": 26688,
          "time": 38.9719165,
          "velocity": 0.3937007874015748
        },
        {
          "duration": 0.14018674999999803,
          "durationTicks": 96,
          "midi": 37,
          "name": "C#2",
          "ticks": 26688,
          "time": 38.9719165,
          "velocity": 0.3937007874015748
        },
        {
          "duration": 0.14018674999999803,
          "durationTicks": 96,
          "midi": 61,
          "name": "C#4",
          "ticks": 26880,
          "time": 39.25229,
          "velocity": 0.3937007874015748
        },
        {
          "duration": 0.14018674999999803,
          "durationTicks": 96,
          "midi": 37,
          "name": "C#2",
          "ticks": 26880,
          "time": 39.25229,
          "velocity": 0.3937007874015748
        },
        {
          "duration": 0.14018674999999803,
          "durationTicks": 96,
          "midi": 33,
          "name": "A1",
          "ticks": 26880,
          "time": 39.25229,
          "velocity": 0.3937007874015748
        },
        {
          "duration": 0.14018674999999803,
          "durationTicks": 96,
          "midi": 40,
          "name": "E2",
          "ticks": 26880,
          "time": 39.25229,
          "velocity": 0.3937007874015748
        },
        {
          "duration": 0.14018674999999803,
          "durationTicks": 96,
          "midi": 45,
          "name": "A2",
          "ticks": 26880,
          "time": 39.25229,
          "velocity": 0.3937007874015748
        },
        {
          "duration": 0.14018674999999803,
          "durationTicks": 96,
          "midi": 33,
          "name": "A1",
          "ticks": 27072,
          "time": 39.5326635,
          "velocity": 0.3937007874015748
        },
        {
          "duration": 0.14018675000000513,
          "durationTicks": 96,
          "midi": 61,
          "name": "C#4",
          "ticks": 27168,
          "time": 39.672850249999996,
          "velocity": 0.3937007874015748
        },
        {
          "duration": 0.14018675000000513,
          "durationTicks": 96,
          "midi": 33,
          "name": "A1",
          "ticks": 27168,
          "time": 39.672850249999996,
          "velocity": 0.3937007874015748
        },
        {
          "duration": 0.14018674999999803,
          "durationTicks": 96,
          "midi": 64,
          "name": "E4",
          "ticks": 27264,
          "time": 39.813037,
          "velocity": 0.3937007874015748
        },
        {
          "duration": 0.14018675000000513,
          "durationTicks": 96,
          "midi": 66,
          "name": "F#4",
          "ticks": 27456,
          "time": 40.0934105,
          "velocity": 0.3937007874015748
        },
        {
          "duration": 0.14018675000000513,
          "durationTicks": 96,
          "midi": 33,
          "name": "A1",
          "ticks": 27456,
          "time": 40.0934105,
          "velocity": 0.3937007874015748
        },
        {
          "duration": 0.14018674999999803,
          "durationTicks": 96,
          "midi": 80,
          "name": "G#5",
          "ticks": 27648,
          "time": 40.373784,
          "velocity": 0.3937007874015748
        },
        {
          "duration": 0.14018674999999803,
          "durationTicks": 96,
          "midi": 44,
          "name": "G#2",
          "ticks": 27648,
          "time": 40.373784,
          "velocity": 0.3937007874015748
        },
        {
          "duration": 0.14018674999999803,
          "durationTicks": 96,
          "midi": 40,
          "name": "E2",
          "ticks": 27648,
          "time": 40.373784,
          "velocity": 0.3937007874015748
        },
        {
          "duration": 0.14018674999999803,
          "durationTicks": 96,
          "midi": 47,
          "name": "B2",
          "ticks": 27648,
          "time": 40.373784,
          "velocity": 0.3937007874015748
        },
        {
          "duration": 0.14018674999999803,
          "durationTicks": 96,
          "midi": 52,
          "name": "E3",
          "ticks": 27648,
          "time": 40.373784,
          "velocity": 0.3937007874015748
        },
        {
          "duration": 0.14018675000000513,
          "durationTicks": 96,
          "midi": 80,
          "name": "G#5",
          "ticks": 27840,
          "time": 40.6541575,
          "velocity": 0.3937007874015748
        },
        {
          "duration": 0.14018675000000513,
          "durationTicks": 96,
          "midi": 40,
          "name": "E2",
          "ticks": 27840,
          "time": 40.6541575,
          "velocity": 0.3937007874015748
        },
        {
          "duration": 0.14018674999999803,
          "durationTicks": 96,
          "midi": 40,
          "name": "E2",
          "ticks": 27936,
          "time": 40.79434425,
          "velocity": 0.3937007874015748
        },
        {
          "duration": 0.14018674999999803,
          "durationTicks": 96,
          "midi": 80,
          "name": "G#5",
          "ticks": 28032,
          "time": 40.934531,
          "velocity": 0.3937007874015748
        },
        {
          "duration": 0.14018675000000513,
          "durationTicks": 96,
          "midi": 78,
          "name": "F#5",
          "ticks": 28128,
          "time": 41.07471775,
          "velocity": 0.3937007874015748
        },
        {
          "duration": 0.14018674999999803,
          "durationTicks": 96,
          "midi": 76,
          "name": "E5",
          "ticks": 28224,
          "time": 41.2149045,
          "velocity": 0.3937007874015748
        },
        {
          "duration": 0.14018674999999803,
          "durationTicks": 96,
          "midi": 40,
          "name": "E2",
          "ticks": 28224,
          "time": 41.2149045,
          "velocity": 0.3937007874015748
        },
        {
          "duration": 0.14018674999999803,
          "durationTicks": 96,
          "midi": 80,
          "name": "G#5",
          "ticks": 28320,
          "time": 41.35509125,
          "velocity": 0.3937007874015748
        },
        {
          "duration": 0.28037350000000316,
          "durationTicks": 192,
          "midi": 78,
          "name": "F#5",
          "ticks": 28416,
          "time": 41.495278,
          "velocity": 0.3937007874015748
        },
        {
          "duration": 0.14018674999999803,
          "durationTicks": 96,
          "midi": 39,
          "name": "D#2",
          "ticks": 28416,
          "time": 41.495278,
          "velocity": 0.3937007874015748
        },
        {
          "duration": 0.14018674999999803,
          "durationTicks": 96,
          "midi": 35,
          "name": "B1",
          "ticks": 28416,
          "time": 41.495278,
          "velocity": 0.3937007874015748
        },
        {
          "duration": 0.14018674999999803,
          "durationTicks": 96,
          "midi": 42,
          "name": "F#2",
          "ticks": 28416,
          "time": 41.495278,
          "velocity": 0.3937007874015748
        },
        {
          "duration": 0.14018674999999803,
          "durationTicks": 96,
          "midi": 47,
          "name": "B2",
          "ticks": 28416,
          "time": 41.495278,
          "velocity": 0.3937007874015748
        },
        {
          "duration": 0.14018674999999803,
          "durationTicks": 96,
          "midi": 76,
          "name": "E5",
          "ticks": 28608,
          "time": 41.7756515,
          "velocity": 0.3937007874015748
        },
        {
          "duration": 0.14018674999999803,
          "durationTicks": 96,
          "midi": 35,
          "name": "B1",
          "ticks": 28608,
          "time": 41.7756515,
          "velocity": 0.3937007874015748
        },
        {
          "duration": 0.14018674999999803,
          "durationTicks": 96,
          "midi": 78,
          "name": "F#5",
          "ticks": 28704,
          "time": 41.91583825,
          "velocity": 0.3937007874015748
        },
        {
          "duration": 0.14018674999999803,
          "durationTicks": 96,
          "midi": 35,
          "name": "B1",
          "ticks": 28704,
          "time": 41.91583825,
          "velocity": 0.3937007874015748
        },
        {
          "duration": 0.4205602500000012,
          "durationTicks": 288,
          "midi": 80,
          "name": "G#5",
          "ticks": 28896,
          "time": 42.196211749999996,
          "velocity": 0.3937007874015748
        },
        {
          "duration": 0.14018674999999803,
          "durationTicks": 96,
          "midi": 35,
          "name": "B1",
          "ticks": 28992,
          "time": 42.3363985,
          "velocity": 0.3937007874015748
        },
        {
          "duration": 0.14018675000000513,
          "durationTicks": 96,
          "midi": 61,
          "name": "C#4",
          "ticks": 29184,
          "time": 42.616772,
          "velocity": 0.3937007874015748
        },
        {
          "duration": 0.14018675000000513,
          "durationTicks": 96,
          "midi": 49,
          "name": "C#3",
          "ticks": 29184,
          "time": 42.616772,
          "velocity": 0.3937007874015748
        },
        {
          "duration": 0.14018675000000513,
          "durationTicks": 96,
          "midi": 40,
          "name": "E2",
          "ticks": 29184,
          "time": 42.616772,
          "velocity": 0.3937007874015748
        },
        {
          "duration": 0.14018675000000513,
          "durationTicks": 96,
          "midi": 37,
          "name": "C#2",
          "ticks": 29184,
          "time": 42.616772,
          "velocity": 0.3937007874015748
        },
        {
          "duration": 0.14018675000000513,
          "durationTicks": 96,
          "midi": 44,
          "name": "G#2",
          "ticks": 29184,
          "time": 42.616772,
          "velocity": 0.3937007874015748
        },
        {
          "duration": 0.14018674999999803,
          "durationTicks": 96,
          "midi": 37,
          "name": "C#2",
          "ticks": 29376,
          "time": 42.8971455,
          "velocity": 0.3937007874015748
        },
        {
          "duration": 0.14018674999999803,
          "durationTicks": 96,
          "midi": 61,
          "name": "C#4",
          "ticks": 29472,
          "time": 43.03733225,
          "velocity": 0.3937007874015748
        },
        {
          "duration": 0.14018674999999803,
          "durationTicks": 96,
          "midi": 37,
          "name": "C#2",
          "ticks": 29472,
          "time": 43.03733225,
          "velocity": 0.3937007874015748
        },
        {
          "duration": 0.14018675000000513,
          "durationTicks": 96,
          "midi": 64,
          "name": "E4",
          "ticks": 29568,
          "time": 43.177519,
          "velocity": 0.3937007874015748
        },
        {
          "duration": 0.14018674999999803,
          "durationTicks": 96,
          "midi": 66,
          "name": "F#4",
          "ticks": 29760,
          "time": 43.4578925,
          "velocity": 0.3937007874015748
        },
        {
          "duration": 0.14018674999999803,
          "durationTicks": 96,
          "midi": 37,
          "name": "C#2",
          "ticks": 29760,
          "time": 43.4578925,
          "velocity": 0.3937007874015748
        },
        {
          "duration": 0.14018674999999803,
          "durationTicks": 96,
          "midi": 61,
          "name": "C#4",
          "ticks": 29952,
          "time": 43.738266,
          "velocity": 0.3937007874015748
        },
        {
          "duration": 0.14018674999999803,
          "durationTicks": 96,
          "midi": 37,
          "name": "C#2",
          "ticks": 29952,
          "time": 43.738266,
          "velocity": 0.3937007874015748
        },
        {
          "duration": 0.14018674999999803,
          "durationTicks": 96,
          "midi": 33,
          "name": "A1",
          "ticks": 29952,
          "time": 43.738266,
          "velocity": 0.3937007874015748
        },
        {
          "duration": 0.14018674999999803,
          "durationTicks": 96,
          "midi": 40,
          "name": "E2",
          "ticks": 29952,
          "time": 43.738266,
          "velocity": 0.3937007874015748
        },
        {
          "duration": 0.14018674999999803,
          "durationTicks": 96,
          "midi": 45,
          "name": "A2",
          "ticks": 29952,
          "time": 43.738266,
          "velocity": 0.3937007874015748
        },
        {
          "duration": 0.14018674999999803,
          "durationTicks": 96,
          "midi": 33,
          "name": "A1",
          "ticks": 30144,
          "time": 44.0186395,
          "velocity": 0.3937007874015748
        },
        {
          "duration": 0.14018675000000513,
          "durationTicks": 96,
          "midi": 61,
          "name": "C#4",
          "ticks": 30240,
          "time": 44.15882625,
          "velocity": 0.3937007874015748
        },
        {
          "duration": 0.14018675000000513,
          "durationTicks": 96,
          "midi": 33,
          "name": "A1",
          "ticks": 30240,
          "time": 44.15882625,
          "velocity": 0.3937007874015748
        },
        {
          "duration": 0.14018674999999803,
          "durationTicks": 96,
          "midi": 64,
          "name": "E4",
          "ticks": 30336,
          "time": 44.299013,
          "velocity": 0.3937007874015748
        },
        {
          "duration": 0.14018674999999803,
          "durationTicks": 96,
          "midi": 85,
          "name": "C#6",
          "ticks": 30528,
          "time": 44.5793865,
          "velocity": 0.3937007874015748
        },
        {
          "duration": 0.14018674999999803,
          "durationTicks": 96,
          "midi": 33,
          "name": "A1",
          "ticks": 30528,
          "time": 44.5793865,
          "velocity": 0.3937007874015748
        },
        {
          "duration": 0.14018674999999803,
          "durationTicks": 96,
          "midi": 83,
          "name": "B5",
          "ticks": 30720,
          "time": 44.85976,
          "velocity": 0.3937007874015748
        },
        {
          "duration": 0.14018674999999803,
          "durationTicks": 96,
          "midi": 44,
          "name": "G#2",
          "ticks": 30720,
          "time": 44.85976,
          "velocity": 0.3937007874015748
        },
        {
          "duration": 0.14018674999999803,
          "durationTicks": 96,
          "midi": 40,
          "name": "E2",
          "ticks": 30720,
          "time": 44.85976,
          "velocity": 0.3937007874015748
        },
        {
          "duration": 0.14018674999999803,
          "durationTicks": 96,
          "midi": 47,
          "name": "B2",
          "ticks": 30720,
          "time": 44.85976,
          "velocity": 0.3937007874015748
        },
        {
          "duration": 0.14018674999999803,
          "durationTicks": 96,
          "midi": 52,
          "name": "E3",
          "ticks": 30720,
          "time": 44.85976,
          "velocity": 0.3937007874015748
        },
        {
          "duration": 0.14018675000000513,
          "durationTicks": 96,
          "midi": 80,
          "name": "G#5",
          "ticks": 30912,
          "time": 45.1401335,
          "velocity": 0.3937007874015748
        },
        {
          "duration": 0.14018675000000513,
          "durationTicks": 96,
          "midi": 40,
          "name": "E2",
          "ticks": 30912,
          "time": 45.1401335,
          "velocity": 0.3937007874015748
        },
        {
          "duration": 0.14018674999999803,
          "durationTicks": 96,
          "midi": 40,
          "name": "E2",
          "ticks": 31008,
          "time": 45.28032025,
          "velocity": 0.3937007874015748
        },
        {
          "duration": 0.14018674999999803,
          "durationTicks": 96,
          "midi": 78,
          "name": "F#5",
          "ticks": 31104,
          "time": 45.420507,
          "velocity": 0.3937007874015748
        },
        {
          "duration": 0.14018674999999803,
          "durationTicks": 96,
          "midi": 76,
          "name": "E5",
          "ticks": 31200,
          "time": 45.56069375,
          "velocity": 0.3937007874015748
        },
        {
          "duration": 0.14018675000000513,
          "durationTicks": 96,
          "midi": 78,
          "name": "F#5",
          "ticks": 31296,
          "time": 45.7008805,
          "velocity": 0.3937007874015748
        },
        {
          "duration": 0.14018675000000513,
          "durationTicks": 96,
          "midi": 40,
          "name": "E2",
          "ticks": 31296,
          "time": 45.7008805,
          "velocity": 0.3937007874015748
        },
        {
          "duration": 0.14018674999999803,
          "durationTicks": 96,
          "midi": 80,
          "name": "G#5",
          "ticks": 31392,
          "time": 45.84106725,
          "velocity": 0.3937007874015748
        },
        {
          "duration": 0.28037350000000316,
          "durationTicks": 192,
          "midi": 83,
          "name": "B5",
          "ticks": 31488,
          "time": 45.981254,
          "velocity": 0.3937007874015748
        },
        {
          "duration": 0.14018674999999803,
          "durationTicks": 96,
          "midi": 47,
          "name": "B2",
          "ticks": 31488,
          "time": 45.981254,
          "velocity": 0.3937007874015748
        },
        {
          "duration": 0.14018674999999803,
          "durationTicks": 96,
          "midi": 39,
          "name": "D#2",
          "ticks": 31488,
          "time": 45.981254,
          "velocity": 0.3937007874015748
        },
        {
          "duration": 0.14018674999999803,
          "durationTicks": 96,
          "midi": 35,
          "name": "B1",
          "ticks": 31488,
          "time": 45.981254,
          "velocity": 0.3937007874015748
        },
        {
          "duration": 0.14018674999999803,
          "durationTicks": 96,
          "midi": 42,
          "name": "F#2",
          "ticks": 31488,
          "time": 45.981254,
          "velocity": 0.3937007874015748
        },
        {
          "duration": 0.14018674999999803,
          "durationTicks": 96,
          "midi": 80,
          "name": "G#5",
          "ticks": 31680,
          "time": 46.2616275,
          "velocity": 0.3937007874015748
        },
        {
          "duration": 0.14018674999999803,
          "durationTicks": 96,
          "midi": 35,
          "name": "B1",
          "ticks": 31680,
          "time": 46.2616275,
          "velocity": 0.3937007874015748
        },
        {
          "duration": 0.14018674999999803,
          "durationTicks": 96,
          "midi": 78,
          "name": "F#5",
          "ticks": 31776,
          "time": 46.40181425,
          "velocity": 0.3937007874015748
        },
        {
          "duration": 0.14018674999999803,
          "durationTicks": 96,
          "midi": 35,
          "name": "B1",
          "ticks": 31776,
          "time": 46.40181425,
          "velocity": 0.3937007874015748
        },
        {
          "duration": 0.4205602500000012,
          "durationTicks": 288,
          "midi": 76,
          "name": "E5",
          "ticks": 31968,
          "time": 46.68218775,
          "velocity": 0.3937007874015748
        },
        {
          "duration": 0.14018674999999803,
          "durationTicks": 96,
          "midi": 35,
          "name": "B1",
          "ticks": 32064,
          "time": 46.8223745,
          "velocity": 0.3937007874015748
        },
        {
          "duration": 0.14018674999999803,
          "durationTicks": 96,
          "midi": 61,
          "name": "C#4",
          "ticks": 32256,
          "time": 47.102748,
          "velocity": 0.3937007874015748
        },
        {
          "duration": 0.14018674999999803,
          "durationTicks": 96,
          "midi": 40,
          "name": "E2",
          "ticks": 32256,
          "time": 47.102748,
          "velocity": 0.3937007874015748
        },
        {
          "duration": 0.14018674999999803,
          "durationTicks": 96,
          "midi": 37,
          "name": "C#2",
          "ticks": 32256,
          "time": 47.102748,
          "velocity": 0.3937007874015748
        },
        {
          "duration": 0.14018674999999803,
          "durationTicks": 96,
          "midi": 44,
          "name": "G#2",
          "ticks": 32256,
          "time": 47.102748,
          "velocity": 0.3937007874015748
        },
        {
          "duration": 0.14018674999999803,
          "durationTicks": 96,
          "midi": 49,
          "name": "C#3",
          "ticks": 32256,
          "time": 47.102748,
          "velocity": 0.3937007874015748
        },
        {
          "duration": 0.14018674999999803,
          "durationTicks": 96,
          "midi": 37,
          "name": "C#2",
          "ticks": 32448,
          "time": 47.3831215,
          "velocity": 0.3937007874015748
        },
        {
          "duration": 0.14018674999999803,
          "durationTicks": 96,
          "midi": 61,
          "name": "C#4",
          "ticks": 32544,
          "time": 47.52330825,
          "velocity": 0.3937007874015748
        },
        {
          "duration": 0.14018674999999803,
          "durationTicks": 96,
          "midi": 37,
          "name": "C#2",
          "ticks": 32544,
          "time": 47.52330825,
          "velocity": 0.3937007874015748
        },
        {
          "duration": 0.14018675000000513,
          "durationTicks": 96,
          "midi": 64,
          "name": "E4",
          "ticks": 32640,
          "time": 47.663495,
          "velocity": 0.3937007874015748
        },
        {
          "duration": 0.14018674999999803,
          "durationTicks": 96,
          "midi": 66,
          "name": "F#4",
          "ticks": 32832,
          "time": 47.9438685,
          "velocity": 0.3937007874015748
        },
        {
          "duration": 0.14018674999999803,
          "durationTicks": 96,
          "midi": 37,
          "name": "C#2",
          "ticks": 32832,
          "time": 47.9438685,
          "velocity": 0.3937007874015748
        },
        {
          "duration": 0.14018675000000513,
          "durationTicks": 96,
          "midi": 61,
          "name": "C#4",
          "ticks": 33024,
          "time": 48.224242,
          "velocity": 0.3937007874015748
        },
        {
          "duration": 0.14018675000000513,
          "durationTicks": 96,
          "midi": 37,
          "name": "C#2",
          "ticks": 33024,
          "time": 48.224242,
          "velocity": 0.3937007874015748
        },
        {
          "duration": 0.14018675000000513,
          "durationTicks": 96,
          "midi": 33,
          "name": "A1",
          "ticks": 33024,
          "time": 48.224242,
          "velocity": 0.3937007874015748
        },
        {
          "duration": 0.14018675000000513,
          "durationTicks": 96,
          "midi": 40,
          "name": "E2",
          "ticks": 33024,
          "time": 48.224242,
          "velocity": 0.3937007874015748
        },
        {
          "duration": 0.14018675000000513,
          "durationTicks": 96,
          "midi": 45,
          "name": "A2",
          "ticks": 33024,
          "time": 48.224242,
          "velocity": 0.3937007874015748
        },
        {
          "duration": 0.14018674999999803,
          "durationTicks": 96,
          "midi": 33,
          "name": "A1",
          "ticks": 33216,
          "time": 48.5046155,
          "velocity": 0.3937007874015748
        },
        {
          "duration": 0.14018675000000513,
          "durationTicks": 96,
          "midi": 61,
          "name": "C#4",
          "ticks": 33312,
          "time": 48.64480225,
          "velocity": 0.3937007874015748
        },
        {
          "duration": 0.14018675000000513,
          "durationTicks": 96,
          "midi": 33,
          "name": "A1",
          "ticks": 33312,
          "time": 48.64480225,
          "velocity": 0.3937007874015748
        },
        {
          "duration": 0.14018674999999803,
          "durationTicks": 96,
          "midi": 64,
          "name": "E4",
          "ticks": 33408,
          "time": 48.784989,
          "velocity": 0.3937007874015748
        },
        {
          "duration": 0.14018674999999803,
          "durationTicks": 96,
          "midi": 66,
          "name": "F#4",
          "ticks": 33600,
          "time": 49.0653625,
          "velocity": 0.3937007874015748
        },
        {
          "duration": 0.14018674999999803,
          "durationTicks": 96,
          "midi": 33,
          "name": "A1",
          "ticks": 33600,
          "time": 49.0653625,
          "velocity": 0.3937007874015748
        },
        {
          "duration": 0.14018674999999803,
          "durationTicks": 96,
          "midi": 80,
          "name": "G#5",
          "ticks": 33792,
          "time": 49.345736,
          "velocity": 0.3937007874015748
        },
        {
          "duration": 0.14018674999999803,
          "durationTicks": 96,
          "midi": 44,
          "name": "G#2",
          "ticks": 33792,
          "time": 49.345736,
          "velocity": 0.3937007874015748
        },
        {
          "duration": 0.14018674999999803,
          "durationTicks": 96,
          "midi": 40,
          "name": "E2",
          "ticks": 33792,
          "time": 49.345736,
          "velocity": 0.3937007874015748
        },
        {
          "duration": 0.14018674999999803,
          "durationTicks": 96,
          "midi": 47,
          "name": "B2",
          "ticks": 33792,
          "time": 49.345736,
          "velocity": 0.3937007874015748
        },
        {
          "duration": 0.14018674999999803,
          "durationTicks": 96,
          "midi": 52,
          "name": "E3",
          "ticks": 33792,
          "time": 49.345736,
          "velocity": 0.3937007874015748
        },
        {
          "duration": 0.14018674999999803,
          "durationTicks": 96,
          "midi": 80,
          "name": "G#5",
          "ticks": 33984,
          "time": 49.6261095,
          "velocity": 0.3937007874015748
        },
        {
          "duration": 0.14018674999999803,
          "durationTicks": 96,
          "midi": 40,
          "name": "E2",
          "ticks": 33984,
          "time": 49.6261095,
          "velocity": 0.3937007874015748
        },
        {
          "duration": 0.14018675000000513,
          "durationTicks": 96,
          "midi": 40,
          "name": "E2",
          "ticks": 34080,
          "time": 49.766296249999996,
          "velocity": 0.3937007874015748
        },
        {
          "duration": 0.14018674999999803,
          "durationTicks": 96,
          "midi": 80,
          "name": "G#5",
          "ticks": 34176,
          "time": 49.906483,
          "velocity": 0.3937007874015748
        },
        {
          "duration": 0.14018674999999803,
          "durationTicks": 96,
          "midi": 78,
          "name": "F#5",
          "ticks": 34272,
          "time": 50.04666975,
          "velocity": 0.3937007874015748
        },
        {
          "duration": 0.14018675000000513,
          "durationTicks": 96,
          "midi": 76,
          "name": "E5",
          "ticks": 34368,
          "time": 50.1868565,
          "velocity": 0.3937007874015748
        },
        {
          "duration": 0.14018675000000513,
          "durationTicks": 96,
          "midi": 40,
          "name": "E2",
          "ticks": 34368,
          "time": 50.1868565,
          "velocity": 0.3937007874015748
        },
        {
          "duration": 0.14018674999999803,
          "durationTicks": 96,
          "midi": 80,
          "name": "G#5",
          "ticks": 34464,
          "time": 50.32704325,
          "velocity": 0.3937007874015748
        },
        {
          "duration": 0.28037349999999606,
          "durationTicks": 192,
          "midi": 78,
          "name": "F#5",
          "ticks": 34560,
          "time": 50.46723,
          "velocity": 0.3937007874015748
        },
        {
          "duration": 0.14018674999999803,
          "durationTicks": 96,
          "midi": 39,
          "name": "D#2",
          "ticks": 34560,
          "time": 50.46723,
          "velocity": 0.3937007874015748
        },
        {
          "duration": 0.14018674999999803,
          "durationTicks": 96,
          "midi": 35,
          "name": "B1",
          "ticks": 34560,
          "time": 50.46723,
          "velocity": 0.3937007874015748
        },
        {
          "duration": 0.14018674999999803,
          "durationTicks": 96,
          "midi": 42,
          "name": "F#2",
          "ticks": 34560,
          "time": 50.46723,
          "velocity": 0.3937007874015748
        },
        {
          "duration": 0.14018674999999803,
          "durationTicks": 96,
          "midi": 47,
          "name": "B2",
          "ticks": 34560,
          "time": 50.46723,
          "velocity": 0.3937007874015748
        },
        {
          "duration": 0.14018675000000513,
          "durationTicks": 96,
          "midi": 76,
          "name": "E5",
          "ticks": 34752,
          "time": 50.7476035,
          "velocity": 0.3937007874015748
        },
        {
          "duration": 0.14018675000000513,
          "durationTicks": 96,
          "midi": 35,
          "name": "B1",
          "ticks": 34752,
          "time": 50.7476035,
          "velocity": 0.3937007874015748
        },
        {
          "duration": 0.14018674999999803,
          "durationTicks": 96,
          "midi": 78,
          "name": "F#5",
          "ticks": 34848,
          "time": 50.88779025,
          "velocity": 0.3937007874015748
        },
        {
          "duration": 0.14018674999999803,
          "durationTicks": 96,
          "midi": 35,
          "name": "B1",
          "ticks": 34848,
          "time": 50.88779025,
          "velocity": 0.3937007874015748
        },
        {
          "duration": 0.4205602500000012,
          "durationTicks": 288,
          "midi": 80,
          "name": "G#5",
          "ticks": 35040,
          "time": 51.16816375,
          "velocity": 0.3937007874015748
        },
        {
          "duration": 0.14018674999999803,
          "durationTicks": 96,
          "midi": 35,
          "name": "B1",
          "ticks": 35136,
          "time": 51.3083505,
          "velocity": 0.3937007874015748
        },
        {
          "duration": 0.14018674999999803,
          "durationTicks": 96,
          "midi": 61,
          "name": "C#4",
          "ticks": 35328,
          "time": 51.588724,
          "velocity": 0.3937007874015748
        },
        {
          "duration": 0.14018674999999803,
          "durationTicks": 96,
          "midi": 49,
          "name": "C#3",
          "ticks": 35328,
          "time": 51.588724,
          "velocity": 0.3937007874015748
        },
        {
          "duration": 0.14018674999999803,
          "durationTicks": 96,
          "midi": 40,
          "name": "E2",
          "ticks": 35328,
          "time": 51.588724,
          "velocity": 0.3937007874015748
        },
        {
          "duration": 0.14018674999999803,
          "durationTicks": 96,
          "midi": 37,
          "name": "C#2",
          "ticks": 35328,
          "time": 51.588724,
          "velocity": 0.3937007874015748
        },
        {
          "duration": 0.14018674999999803,
          "durationTicks": 96,
          "midi": 44,
          "name": "G#2",
          "ticks": 35328,
          "time": 51.588724,
          "velocity": 0.3937007874015748
        },
        {
          "duration": 0.14018674999999803,
          "durationTicks": 96,
          "midi": 37,
          "name": "C#2",
          "ticks": 35520,
          "time": 51.8690975,
          "velocity": 0.3937007874015748
        },
        {
          "duration": 0.14018674999999803,
          "durationTicks": 96,
          "midi": 61,
          "name": "C#4",
          "ticks": 35616,
          "time": 52.00928425,
          "velocity": 0.3937007874015748
        },
        {
          "duration": 0.14018674999999803,
          "durationTicks": 96,
          "midi": 37,
          "name": "C#2",
          "ticks": 35616,
          "time": 52.00928425,
          "velocity": 0.3937007874015748
        },
        {
          "duration": 0.14018674999999803,
          "durationTicks": 96,
          "midi": 64,
          "name": "E4",
          "ticks": 35712,
          "time": 52.149471,
          "velocity": 0.3937007874015748
        },
        {
          "duration": 0.14018674999999803,
          "durationTicks": 96,
          "midi": 66,
          "name": "F#4",
          "ticks": 35904,
          "time": 52.4298445,
          "velocity": 0.3937007874015748
        },
        {
          "duration": 0.14018674999999803,
          "durationTicks": 96,
          "midi": 37,
          "name": "C#2",
          "ticks": 35904,
          "time": 52.4298445,
          "velocity": 0.3937007874015748
        },
        {
          "duration": 0.14018675000000513,
          "durationTicks": 96,
          "midi": 61,
          "name": "C#4",
          "ticks": 36096,
          "time": 52.710218,
          "velocity": 0.3937007874015748
        },
        {
          "duration": 0.14018675000000513,
          "durationTicks": 96,
          "midi": 37,
          "name": "C#2",
          "ticks": 36096,
          "time": 52.710218,
          "velocity": 0.3937007874015748
        },
        {
          "duration": 0.14018675000000513,
          "durationTicks": 96,
          "midi": 33,
          "name": "A1",
          "ticks": 36096,
          "time": 52.710218,
          "velocity": 0.3937007874015748
        },
        {
          "duration": 0.14018675000000513,
          "durationTicks": 96,
          "midi": 40,
          "name": "E2",
          "ticks": 36096,
          "time": 52.710218,
          "velocity": 0.3937007874015748
        },
        {
          "duration": 0.14018675000000513,
          "durationTicks": 96,
          "midi": 45,
          "name": "A2",
          "ticks": 36096,
          "time": 52.710218,
          "velocity": 0.3937007874015748
        },
        {
          "duration": 0.14018674999999803,
          "durationTicks": 96,
          "midi": 33,
          "name": "A1",
          "ticks": 36288,
          "time": 52.9905915,
          "velocity": 0.3937007874015748
        },
        {
          "duration": 0.14018674999999803,
          "durationTicks": 96,
          "midi": 61,
          "name": "C#4",
          "ticks": 36384,
          "time": 53.13077825,
          "velocity": 0.3937007874015748
        },
        {
          "duration": 0.14018674999999803,
          "durationTicks": 96,
          "midi": 33,
          "name": "A1",
          "ticks": 36384,
          "time": 53.13077825,
          "velocity": 0.3937007874015748
        },
        {
          "duration": 0.14018675000000513,
          "durationTicks": 96,
          "midi": 64,
          "name": "E4",
          "ticks": 36480,
          "time": 53.270965,
          "velocity": 0.3937007874015748
        },
        {
          "duration": 0.14018674999999803,
          "durationTicks": 96,
          "midi": 85,
          "name": "C#6",
          "ticks": 36672,
          "time": 53.5513385,
          "velocity": 0.3937007874015748
        },
        {
          "duration": 0.14018674999999803,
          "durationTicks": 96,
          "midi": 33,
          "name": "A1",
          "ticks": 36672,
          "time": 53.5513385,
          "velocity": 0.3937007874015748
        },
        {
          "duration": 0.14018675000000513,
          "durationTicks": 96,
          "midi": 83,
          "name": "B5",
          "ticks": 36864,
          "time": 53.831711999999996,
          "velocity": 0.3937007874015748
        },
        {
          "duration": 0.14018675000000513,
          "durationTicks": 96,
          "midi": 44,
          "name": "G#2",
          "ticks": 36864,
          "time": 53.831711999999996,
          "velocity": 0.3937007874015748
        },
        {
          "duration": 0.14018675000000513,
          "durationTicks": 96,
          "midi": 40,
          "name": "E2",
          "ticks": 36864,
          "time": 53.831711999999996,
          "velocity": 0.3937007874015748
        },
        {
          "duration": 0.14018675000000513,
          "durationTicks": 96,
          "midi": 47,
          "name": "B2",
          "ticks": 36864,
          "time": 53.831711999999996,
          "velocity": 0.3937007874015748
        },
        {
          "duration": 0.14018675000000513,
          "durationTicks": 96,
          "midi": 52,
          "name": "E3",
          "ticks": 36864,
          "time": 53.831711999999996,
          "velocity": 0.3937007874015748
        },
        {
          "duration": 0.14018674999999803,
          "durationTicks": 96,
          "midi": 80,
          "name": "G#5",
          "ticks": 37056,
          "time": 54.1120855,
          "velocity": 0.3937007874015748
        },
        {
          "duration": 0.14018674999999803,
          "durationTicks": 96,
          "midi": 40,
          "name": "E2",
          "ticks": 37056,
          "time": 54.1120855,
          "velocity": 0.3937007874015748
        },
        {
          "duration": 0.14018675000000513,
          "durationTicks": 96,
          "midi": 40,
          "name": "E2",
          "ticks": 37152,
          "time": 54.25227225,
          "velocity": 0.3937007874015748
        },
        {
          "duration": 0.14018674999999803,
          "durationTicks": 96,
          "midi": 78,
          "name": "F#5",
          "ticks": 37248,
          "time": 54.392459,
          "velocity": 0.3937007874015748
        },
        {
          "duration": 0.14018674999999803,
          "durationTicks": 96,
          "midi": 76,
          "name": "E5",
          "ticks": 37344,
          "time": 54.53264575,
          "velocity": 0.3937007874015748
        },
        {
          "duration": 0.14018674999999803,
          "durationTicks": 96,
          "midi": 78,
          "name": "F#5",
          "ticks": 37440,
          "time": 54.6728325,
          "velocity": 0.3937007874015748
        },
        {
          "duration": 0.14018674999999803,
          "durationTicks": 96,
          "midi": 40,
          "name": "E2",
          "ticks": 37440,
          "time": 54.6728325,
          "velocity": 0.3937007874015748
        },
        {
          "duration": 0.14018675000000513,
          "durationTicks": 96,
          "midi": 80,
          "name": "G#5",
          "ticks": 37536,
          "time": 54.813019249999996,
          "velocity": 0.3937007874015748
        },
        {
          "duration": 0.28037349999999606,
          "durationTicks": 192,
          "midi": 83,
          "name": "B5",
          "ticks": 37632,
          "time": 54.953206,
          "velocity": 0.3937007874015748
        },
        {
          "duration": 0.14018674999999803,
          "durationTicks": 96,
          "midi": 47,
          "name": "B2",
          "ticks": 37632,
          "time": 54.953206,
          "velocity": 0.3937007874015748
        },
        {
          "duration": 0.14018674999999803,
          "durationTicks": 96,
          "midi": 39,
          "name": "D#2",
          "ticks": 37632,
          "time": 54.953206,
          "velocity": 0.3937007874015748
        },
        {
          "duration": 0.14018674999999803,
          "durationTicks": 96,
          "midi": 35,
          "name": "B1",
          "ticks": 37632,
          "time": 54.953206,
          "velocity": 0.3937007874015748
        },
        {
          "duration": 0.14018674999999803,
          "durationTicks": 96,
          "midi": 42,
          "name": "F#2",
          "ticks": 37632,
          "time": 54.953206,
          "velocity": 0.3937007874015748
        },
        {
          "duration": 0.14018675000000513,
          "durationTicks": 96,
          "midi": 80,
          "name": "G#5",
          "ticks": 37824,
          "time": 55.2335795,
          "velocity": 0.3937007874015748
        },
        {
          "duration": 0.14018675000000513,
          "durationTicks": 96,
          "midi": 35,
          "name": "B1",
          "ticks": 37824,
          "time": 55.2335795,
          "velocity": 0.3937007874015748
        },
        {
          "duration": 0.14018674999999803,
          "durationTicks": 96,
          "midi": 78,
          "name": "F#5",
          "ticks": 37920,
          "time": 55.37376625,
          "velocity": 0.3937007874015748
        },
        {
          "duration": 0.14018674999999803,
          "durationTicks": 96,
          "midi": 35,
          "name": "B1",
          "ticks": 37920,
          "time": 55.37376625,
          "velocity": 0.3937007874015748
        },
        {
          "duration": 0.28037349999999606,
          "durationTicks": 192,
          "midi": 80,
          "name": "G#5",
          "ticks": 38016,
          "time": 55.513953,
          "velocity": 0.3937007874015748
        },
        {
          "duration": 0.28037349999999606,
          "durationTicks": 192,
          "midi": 68,
          "name": "G#4",
          "ticks": 38016,
          "time": 55.513953,
          "velocity": 0.3937007874015748
        },
        {
          "duration": 0.28037350000000316,
          "durationTicks": 192,
          "midi": 83,
          "name": "B5",
          "ticks": 38208,
          "time": 55.7943265,
          "velocity": 0.3937007874015748
        },
        {
          "duration": 0.28037350000000316,
          "durationTicks": 192,
          "midi": 71,
          "name": "B4",
          "ticks": 38208,
          "time": 55.7943265,
          "velocity": 0.3937007874015748
        },
        {
          "duration": 0.14018675000000513,
          "durationTicks": 96,
          "midi": 35,
          "name": "B1",
          "ticks": 38208,
          "time": 55.7943265,
          "velocity": 0.3937007874015748
        },
        {
          "duration": 0.5607469999999992,
          "durationTicks": 384,
          "midi": 73,
          "name": "C#5",
          "ticks": 38400,
          "time": 56.0747,
          "velocity": 0.3937007874015748
        },
        {
          "duration": 0.5607469999999992,
          "durationTicks": 384,
          "midi": 85,
          "name": "C#6",
          "ticks": 38400,
          "time": 56.0747,
          "velocity": 0.3937007874015748
        },
        {
          "duration": 0.28037349999999606,
          "durationTicks": 192,
          "midi": 45,
          "name": "A2",
          "ticks": 38400,
          "time": 56.0747,
          "velocity": 0.3937007874015748
        },
        {
          "duration": 0.28037349999999606,
          "durationTicks": 192,
          "midi": 33,
          "name": "A1",
          "ticks": 38400,
          "time": 56.0747,
          "velocity": 0.3937007874015748
        },
        {
          "duration": 0.28037349999999606,
          "durationTicks": 192,
          "midi": 37,
          "name": "C#2",
          "ticks": 38400,
          "time": 56.0747,
          "velocity": 0.3937007874015748
        },
        {
          "duration": 0.28037349999999606,
          "durationTicks": 192,
          "midi": 40,
          "name": "E2",
          "ticks": 38400,
          "time": 56.0747,
          "velocity": 0.3937007874015748
        },
        {
          "duration": 0.14018675000000513,
          "durationTicks": 96,
          "midi": 33,
          "name": "A1",
          "ticks": 38592,
          "time": 56.355073499999996,
          "velocity": 0.3937007874015748
        },
        {
          "duration": 0.14018674999999803,
          "durationTicks": 96,
          "midi": 33,
          "name": "A1",
          "ticks": 38688,
          "time": 56.49526025,
          "velocity": 0.3937007874015748
        },
        {
          "duration": 0.28037350000000316,
          "durationTicks": 192,
          "midi": 73,
          "name": "C#5",
          "ticks": 38784,
          "time": 56.635447,
          "velocity": 0.3937007874015748
        },
        {
          "duration": 0.28037350000000316,
          "durationTicks": 192,
          "midi": 85,
          "name": "C#6",
          "ticks": 38784,
          "time": 56.635447,
          "velocity": 0.3937007874015748
        },
        {
          "duration": 0.14018675000000513,
          "durationTicks": 96,
          "midi": 33,
          "name": "A1",
          "ticks": 38880,
          "time": 56.77563375,
          "velocity": 0.3937007874015748
        },
        {
          "duration": 0.28037349999999606,
          "durationTicks": 192,
          "midi": 83,
          "name": "B5",
          "ticks": 38976,
          "time": 56.9158205,
          "velocity": 0.3937007874015748
        },
        {
          "duration": 0.28037349999999606,
          "durationTicks": 192,
          "midi": 71,
          "name": "B4",
          "ticks": 38976,
          "time": 56.9158205,
          "velocity": 0.3937007874015748
        },
        {
          "duration": 0.28037349999999606,
          "durationTicks": 192,
          "midi": 33,
          "name": "A1",
          "ticks": 38976,
          "time": 56.9158205,
          "velocity": 0.3937007874015748
        },
        {
          "duration": 0.28037349999999606,
          "durationTicks": 192,
          "midi": 45,
          "name": "A2",
          "ticks": 38976,
          "time": 56.9158205,
          "velocity": 0.3937007874015748
        },
        {
          "duration": 0.28037349999999606,
          "durationTicks": 192,
          "midi": 40,
          "name": "E2",
          "ticks": 38976,
          "time": 56.9158205,
          "velocity": 0.3937007874015748
        },
        {
          "duration": 0.28037349999999606,
          "durationTicks": 192,
          "midi": 37,
          "name": "C#2",
          "ticks": 38976,
          "time": 56.9158205,
          "velocity": 0.3937007874015748
        },
        {
          "duration": 0.5607469999999992,
          "durationTicks": 384,
          "midi": 68,
          "name": "G#4",
          "ticks": 39168,
          "time": 57.196194,
          "velocity": 0.3937007874015748
        },
        {
          "duration": 0.5607469999999992,
          "durationTicks": 384,
          "midi": 80,
          "name": "G#5",
          "ticks": 39168,
          "time": 57.196194,
          "velocity": 0.3937007874015748
        },
        {
          "duration": 0.28037350000000316,
          "durationTicks": 192,
          "midi": 49,
          "name": "C#3",
          "ticks": 39168,
          "time": 57.196194,
          "velocity": 0.3937007874015748
        },
        {
          "duration": 0.28037350000000316,
          "durationTicks": 192,
          "midi": 37,
          "name": "C#2",
          "ticks": 39168,
          "time": 57.196194,
          "velocity": 0.3937007874015748
        },
        {
          "duration": 0.28037350000000316,
          "durationTicks": 192,
          "midi": 44,
          "name": "G#2",
          "ticks": 39168,
          "time": 57.196194,
          "velocity": 0.3937007874015748
        },
        {
          "duration": 0.28037350000000316,
          "durationTicks": 192,
          "midi": 40,
          "name": "E2",
          "ticks": 39168,
          "time": 57.196194,
          "velocity": 0.3937007874015748
        },
        {
          "duration": 0.14018674999999803,
          "durationTicks": 96,
          "midi": 37,
          "name": "C#2",
          "ticks": 39360,
          "time": 57.4765675,
          "velocity": 0.3937007874015748
        },
        {
          "duration": 0.14018674999999803,
          "durationTicks": 96,
          "midi": 37,
          "name": "C#2",
          "ticks": 39456,
          "time": 57.61675425,
          "velocity": 0.3937007874015748
        },
        {
          "duration": 0.28037350000000316,
          "durationTicks": 192,
          "midi": 66,
          "name": "F#4",
          "ticks": 39552,
          "time": 57.756941,
          "velocity": 0.3937007874015748
        },
        {
          "duration": 0.28037350000000316,
          "durationTicks": 192,
          "midi": 78,
          "name": "F#5",
          "ticks": 39552,
          "time": 57.756941,
          "velocity": 0.3937007874015748
        },
        {
          "duration": 0.14018674999999803,
          "durationTicks": 96,
          "midi": 37,
          "name": "C#2",
          "ticks": 39648,
          "time": 57.89712775,
          "velocity": 0.3937007874015748
        },
        {
          "duration": 0.28037349999999606,
          "durationTicks": 192,
          "midi": 76,
          "name": "E5",
          "ticks": 39744,
          "time": 58.0373145,
          "velocity": 0.3937007874015748
        },
        {
          "duration": 0.28037349999999606,
          "durationTicks": 192,
          "midi": 64,
          "name": "E4",
          "ticks": 39744,
          "time": 58.0373145,
          "velocity": 0.3937007874015748
        },
        {
          "duration": 0.28037349999999606,
          "durationTicks": 192,
          "midi": 49,
          "name": "C#3",
          "ticks": 39744,
          "time": 58.0373145,
          "velocity": 0.3937007874015748
        },
        {
          "duration": 0.28037349999999606,
          "durationTicks": 192,
          "midi": 37,
          "name": "C#2",
          "ticks": 39744,
          "time": 58.0373145,
          "velocity": 0.3937007874015748
        },
        {
          "duration": 0.28037349999999606,
          "durationTicks": 192,
          "midi": 44,
          "name": "G#2",
          "ticks": 39744,
          "time": 58.0373145,
          "velocity": 0.3937007874015748
        },
        {
          "duration": 0.28037349999999606,
          "durationTicks": 192,
          "midi": 40,
          "name": "E2",
          "ticks": 39744,
          "time": 58.0373145,
          "velocity": 0.3937007874015748
        },
        {
          "duration": 0.5607469999999992,
          "durationTicks": 384,
          "midi": 66,
          "name": "F#4",
          "ticks": 39936,
          "time": 58.317688,
          "velocity": 0.3937007874015748
        },
        {
          "duration": 0.5607469999999992,
          "durationTicks": 384,
          "midi": 78,
          "name": "F#5",
          "ticks": 39936,
          "time": 58.317688,
          "velocity": 0.3937007874015748
        },
        {
          "duration": 0.28037350000000316,
          "durationTicks": 192,
          "midi": 42,
          "name": "F#2",
          "ticks": 39936,
          "time": 58.317688,
          "velocity": 0.3937007874015748
        },
        {
          "duration": 0.28037350000000316,
          "durationTicks": 192,
          "midi": 47,
          "name": "B2",
          "ticks": 39936,
          "time": 58.317688,
          "velocity": 0.3937007874015748
        },
        {
          "duration": 0.28037350000000316,
          "durationTicks": 192,
          "midi": 35,
          "name": "B1",
          "ticks": 39936,
          "time": 58.317688,
          "velocity": 0.3937007874015748
        },
        {
          "duration": 0.28037350000000316,
          "durationTicks": 192,
          "midi": 39,
          "name": "D#2",
          "ticks": 39936,
          "time": 58.317688,
          "velocity": 0.3937007874015748
        },
        {
          "duration": 0.14018674999999803,
          "durationTicks": 96,
          "midi": 35,
          "name": "B1",
          "ticks": 40128,
          "time": 58.5980615,
          "velocity": 0.3937007874015748
        },
        {
          "duration": 0.14018674999999803,
          "durationTicks": 96,
          "midi": 35,
          "name": "B1",
          "ticks": 40224,
          "time": 58.73824825,
          "velocity": 0.3937007874015748
        },
        {
          "duration": 0.28037350000000316,
          "durationTicks": 192,
          "midi": 66,
          "name": "F#4",
          "ticks": 40320,
          "time": 58.878434999999996,
          "velocity": 0.3937007874015748
        },
        {
          "duration": 0.28037350000000316,
          "durationTicks": 192,
          "midi": 78,
          "name": "F#5",
          "ticks": 40320,
          "time": 58.878434999999996,
          "velocity": 0.3937007874015748
        },
        {
          "duration": 0.14018674999999803,
          "durationTicks": 96,
          "midi": 35,
          "name": "B1",
          "ticks": 40416,
          "time": 59.01862175,
          "velocity": 0.3937007874015748
        },
        {
          "duration": 0.28037350000000316,
          "durationTicks": 192,
          "midi": 76,
          "name": "E5",
          "ticks": 40512,
          "time": 59.1588085,
          "velocity": 0.3937007874015748
        },
        {
          "duration": 0.28037350000000316,
          "durationTicks": 192,
          "midi": 64,
          "name": "E4",
          "ticks": 40512,
          "time": 59.1588085,
          "velocity": 0.3937007874015748
        },
        {
          "duration": 0.28037350000000316,
          "durationTicks": 192,
          "midi": 47,
          "name": "B2",
          "ticks": 40512,
          "time": 59.1588085,
          "velocity": 0.3937007874015748
        },
        {
          "duration": 0.28037350000000316,
          "durationTicks": 192,
          "midi": 35,
          "name": "B1",
          "ticks": 40512,
          "time": 59.1588085,
          "velocity": 0.3937007874015748
        },
        {
          "duration": 0.28037350000000316,
          "durationTicks": 192,
          "midi": 42,
          "name": "F#2",
          "ticks": 40512,
          "time": 59.1588085,
          "velocity": 0.3937007874015748
        },
        {
          "duration": 0.28037350000000316,
          "durationTicks": 192,
          "midi": 39,
          "name": "D#2",
          "ticks": 40512,
          "time": 59.1588085,
          "velocity": 0.3937007874015748
        },
        {
          "duration": 0.5607469999999992,
          "durationTicks": 384,
          "midi": 73,
          "name": "C#5",
          "ticks": 40704,
          "time": 59.439182,
          "velocity": 0.3937007874015748
        },
        {
          "duration": 0.5607469999999992,
          "durationTicks": 384,
          "midi": 61,
          "name": "C#4",
          "ticks": 40704,
          "time": 59.439182,
          "velocity": 0.3937007874015748
        },
        {
          "duration": 0.28037349999999606,
          "durationTicks": 192,
          "midi": 33,
          "name": "A1",
          "ticks": 40704,
          "time": 59.439182,
          "velocity": 0.3937007874015748
        },
        {
          "duration": 0.28037349999999606,
          "durationTicks": 192,
          "midi": 45,
          "name": "A2",
          "ticks": 40704,
          "time": 59.439182,
          "velocity": 0.3937007874015748
        },
        {
          "duration": 0.28037349999999606,
          "durationTicks": 192,
          "midi": 40,
          "name": "E2",
          "ticks": 40704,
          "time": 59.439182,
          "velocity": 0.3937007874015748
        },
        {
          "duration": 0.28037349999999606,
          "durationTicks": 192,
          "midi": 37,
          "name": "C#2",
          "ticks": 40704,
          "time": 59.439182,
          "velocity": 0.3937007874015748
        },
        {
          "duration": 0.14018674999999803,
          "durationTicks": 96,
          "midi": 33,
          "name": "A1",
          "ticks": 40896,
          "time": 59.7195555,
          "velocity": 0.3937007874015748
        },
        {
          "duration": 0.14018675000000513,
          "durationTicks": 96,
          "midi": 33,
          "name": "A1",
          "ticks": 40992,
          "time": 59.85974225,
          "velocity": 0.3937007874015748
        },
        {
          "duration": 0.28037349999999606,
          "durationTicks": 192,
          "midi": 71,
          "name": "B4",
          "ticks": 41088,
          "time": 59.999929,
          "velocity": 0.3937007874015748
        },
        {
          "duration": 0.28037349999999606,
          "durationTicks": 192,
          "midi": 59,
          "name": "B3",
          "ticks": 41088,
          "time": 59.999929,
          "velocity": 0.3937007874015748
        },
        {
          "duration": 0.14018674999999803,
          "durationTicks": 96,
          "midi": 33,
          "name": "A1",
          "ticks": 41184,
          "time": 60.14011575,
          "velocity": 0.3937007874015748
        },
        {
          "duration": 0.28037350000000316,
          "durationTicks": 192,
          "midi": 61,
          "name": "C#4",
          "ticks": 41280,
          "time": 60.2803025,
          "velocity": 0.3937007874015748
        },
        {
          "duration": 0.28037350000000316,
          "durationTicks": 192,
          "midi": 73,
          "name": "C#5",
          "ticks": 41280,
          "time": 60.2803025,
          "velocity": 0.3937007874015748
        },
        {
          "duration": 0.28037350000000316,
          "durationTicks": 192,
          "midi": 45,
          "name": "A2",
          "ticks": 41280,
          "time": 60.2803025,
          "velocity": 0.3937007874015748
        },
        {
          "duration": 0.28037350000000316,
          "durationTicks": 192,
          "midi": 33,
          "name": "A1",
          "ticks": 41280,
          "time": 60.2803025,
          "velocity": 0.3937007874015748
        },
        {
          "duration": 0.28037350000000316,
          "durationTicks": 192,
          "midi": 40,
          "name": "E2",
          "ticks": 41280,
          "time": 60.2803025,
          "velocity": 0.3937007874015748
        },
        {
          "duration": 0.28037350000000316,
          "durationTicks": 192,
          "midi": 37,
          "name": "C#2",
          "ticks": 41280,
          "time": 60.2803025,
          "velocity": 0.3937007874015748
        },
        {
          "duration": 0.5607469999999992,
          "durationTicks": 384,
          "midi": 64,
          "name": "E4",
          "ticks": 41472,
          "time": 60.560676,
          "velocity": 0.3937007874015748
        },
        {
          "duration": 0.5607469999999992,
          "durationTicks": 384,
          "midi": 76,
          "name": "E5",
          "ticks": 41472,
          "time": 60.560676,
          "velocity": 0.3937007874015748
        },
        {
          "duration": 0.28037349999999606,
          "durationTicks": 192,
          "midi": 37,
          "name": "C#2",
          "ticks": 41472,
          "time": 60.560676,
          "velocity": 0.3937007874015748
        },
        {
          "duration": 0.28037349999999606,
          "durationTicks": 192,
          "midi": 49,
          "name": "C#3",
          "ticks": 41472,
          "time": 60.560676,
          "velocity": 0.3937007874015748
        },
        {
          "duration": 0.28037349999999606,
          "durationTicks": 192,
          "midi": 44,
          "name": "G#2",
          "ticks": 41472,
          "time": 60.560676,
          "velocity": 0.3937007874015748
        },
        {
          "duration": 0.28037349999999606,
          "durationTicks": 192,
          "midi": 40,
          "name": "E2",
          "ticks": 41472,
          "time": 60.560676,
          "velocity": 0.3937007874015748
        },
        {
          "duration": 0.14018675000000513,
          "durationTicks": 96,
          "midi": 37,
          "name": "C#2",
          "ticks": 41664,
          "time": 60.8410495,
          "velocity": 0.3937007874015748
        },
        {
          "duration": 0.14018674999999803,
          "durationTicks": 96,
          "midi": 37,
          "name": "C#2",
          "ticks": 41760,
          "time": 60.98123625,
          "velocity": 0.3937007874015748
        },
        {
          "duration": 0.28037349999999606,
          "durationTicks": 192,
          "midi": 78,
          "name": "F#5",
          "ticks": 41856,
          "time": 61.121423,
          "velocity": 0.3937007874015748
        },
        {
          "duration": 0.28037349999999606,
          "durationTicks": 192,
          "midi": 66,
          "name": "F#4",
          "ticks": 41856,
          "time": 61.121423,
          "velocity": 0.3937007874015748
        },
        {
          "duration": 0.14018674999999803,
          "durationTicks": 96,
          "midi": 37,
          "name": "C#2",
          "ticks": 41952,
          "time": 61.26160975,
          "velocity": 0.3937007874015748
        },
        {
          "duration": 0.28037350000000316,
          "durationTicks": 192,
          "midi": 68,
          "name": "G#4",
          "ticks": 42048,
          "time": 61.401796499999996,
          "velocity": 0.3937007874015748
        },
        {
          "duration": 0.28037350000000316,
          "durationTicks": 192,
          "midi": 80,
          "name": "G#5",
          "ticks": 42048,
          "time": 61.401796499999996,
          "velocity": 0.3937007874015748
        },
        {
          "duration": 0.28037350000000316,
          "durationTicks": 192,
          "midi": 49,
          "name": "C#3",
          "ticks": 42048,
          "time": 61.401796499999996,
          "velocity": 0.3937007874015748
        },
        {
          "duration": 0.28037350000000316,
          "durationTicks": 192,
          "midi": 37,
          "name": "C#2",
          "ticks": 42048,
          "time": 61.401796499999996,
          "velocity": 0.3937007874015748
        },
        {
          "duration": 0.28037350000000316,
          "durationTicks": 192,
          "midi": 44,
          "name": "G#2",
          "ticks": 42048,
          "time": 61.401796499999996,
          "velocity": 0.3937007874015748
        },
        {
          "duration": 0.28037350000000316,
          "durationTicks": 192,
          "midi": 40,
          "name": "E2",
          "ticks": 42048,
          "time": 61.401796499999996,
          "velocity": 0.3937007874015748
        },
        {
          "duration": 0.5607469999999992,
          "durationTicks": 384,
          "midi": 69,
          "name": "A4",
          "ticks": 42240,
          "time": 61.68217,
          "velocity": 0.3937007874015748
        },
        {
          "duration": 0.5607469999999992,
          "durationTicks": 384,
          "midi": 81,
          "name": "A5",
          "ticks": 42240,
          "time": 61.68217,
          "velocity": 0.3937007874015748
        },
        {
          "duration": 0.28037350000000316,
          "durationTicks": 192,
          "midi": 33,
          "name": "A1",
          "ticks": 42240,
          "time": 61.68217,
          "velocity": 0.3937007874015748
        },
        {
          "duration": 0.28037350000000316,
          "durationTicks": 192,
          "midi": 45,
          "name": "A2",
          "ticks": 42240,
          "time": 61.68217,
          "velocity": 0.3937007874015748
        },
        {
          "duration": 0.28037350000000316,
          "durationTicks": 192,
          "midi": 40,
          "name": "E2",
          "ticks": 42240,
          "time": 61.68217,
          "velocity": 0.3937007874015748
        },
        {
          "duration": 0.28037350000000316,
          "durationTicks": 192,
          "midi": 37,
          "name": "C#2",
          "ticks": 42240,
          "time": 61.68217,
          "velocity": 0.3937007874015748
        },
        {
          "duration": 0.14018674999999803,
          "durationTicks": 96,
          "midi": 33,
          "name": "A1",
          "ticks": 42432,
          "time": 61.9625435,
          "velocity": 0.3937007874015748
        },
        {
          "duration": 0.14018674999999803,
          "durationTicks": 96,
          "midi": 33,
          "name": "A1",
          "ticks": 42528,
          "time": 62.10273025,
          "velocity": 0.3937007874015748
        },
        {
          "duration": 0.28037350000000316,
          "durationTicks": 192,
          "midi": 68,
          "name": "G#4",
          "ticks": 42624,
          "time": 62.242917,
          "velocity": 0.3937007874015748
        },
        {
          "duration": 0.28037350000000316,
          "durationTicks": 192,
          "midi": 80,
          "name": "G#5",
          "ticks": 42624,
          "time": 62.242917,
          "velocity": 0.3937007874015748
        },
        {
          "duration": 0.14018675000000513,
          "durationTicks": 96,
          "midi": 33,
          "name": "A1",
          "ticks": 42720,
          "time": 62.38310375,
          "velocity": 0.3937007874015748
        },
        {
          "duration": 0.28037349999999606,
          "durationTicks": 192,
          "midi": 76,
          "name": "E5",
          "ticks": 42816,
          "time": 62.5232905,
          "velocity": 0.3937007874015748
        },
        {
          "duration": 0.28037349999999606,
          "durationTicks": 192,
          "midi": 64,
          "name": "E4",
          "ticks": 42816,
          "time": 62.5232905,
          "velocity": 0.3937007874015748
        },
        {
          "duration": 0.28037349999999606,
          "durationTicks": 192,
          "midi": 45,
          "name": "A2",
          "ticks": 42816,
          "time": 62.5232905,
          "velocity": 0.3937007874015748
        },
        {
          "duration": 0.28037349999999606,
          "durationTicks": 192,
          "midi": 33,
          "name": "A1",
          "ticks": 42816,
          "time": 62.5232905,
          "velocity": 0.3937007874015748
        },
        {
          "duration": 0.28037349999999606,
          "durationTicks": 192,
          "midi": 40,
          "name": "E2",
          "ticks": 42816,
          "time": 62.5232905,
          "velocity": 0.3937007874015748
        },
        {
          "duration": 0.28037349999999606,
          "durationTicks": 192,
          "midi": 37,
          "name": "C#2",
          "ticks": 42816,
          "time": 62.5232905,
          "velocity": 0.3937007874015748
        },
        {
          "duration": 1.6822410000000048,
          "durationTicks": 1152,
          "midi": 78,
          "name": "F#5",
          "ticks": 43008,
          "time": 62.803664,
          "velocity": 0.3937007874015748
        },
        {
          "duration": 1.6822410000000048,
          "durationTicks": 1152,
          "midi": 66,
          "name": "F#4",
          "ticks": 43008,
          "time": 62.803664,
          "velocity": 0.3937007874015748
        },
        {
          "duration": 0.28037350000000316,
          "durationTicks": 192,
          "midi": 35,
          "name": "B1",
          "ticks": 43008,
          "time": 62.803664,
          "velocity": 0.3937007874015748
        },
        {
          "duration": 0.28037350000000316,
          "durationTicks": 192,
          "midi": 47,
          "name": "B2",
          "ticks": 43008,
          "time": 62.803664,
          "velocity": 0.3937007874015748
        },
        {
          "duration": 0.28037350000000316,
          "durationTicks": 192,
          "midi": 42,
          "name": "F#2",
          "ticks": 43008,
          "time": 62.803664,
          "velocity": 0.3937007874015748
        },
        {
          "duration": 0.28037350000000316,
          "durationTicks": 192,
          "midi": 40,
          "name": "E2",
          "ticks": 43008,
          "time": 62.803664,
          "velocity": 0.3937007874015748
        },
        {
          "duration": 0.14018674999999803,
          "durationTicks": 96,
          "midi": 35,
          "name": "B1",
          "ticks": 43200,
          "time": 63.0840375,
          "velocity": 0.3937007874015748
        },
        {
          "duration": 0.14018674999999803,
          "durationTicks": 96,
          "midi": 35,
          "name": "B1",
          "ticks": 43296,
          "time": 63.22422425,
          "velocity": 0.3937007874015748
        },
        {
          "duration": 0.14018674999999803,
          "durationTicks": 96,
          "midi": 35,
          "name": "B1",
          "ticks": 43488,
          "time": 63.50459775,
          "velocity": 0.3937007874015748
        },
        {
          "duration": 0.28037349999999606,
          "durationTicks": 192,
          "midi": 47,
          "name": "B2",
          "ticks": 43584,
          "time": 63.6447845,
          "velocity": 0.3937007874015748
        },
        {
          "duration": 0.28037349999999606,
          "durationTicks": 192,
          "midi": 40,
          "name": "E2",
          "ticks": 43584,
          "time": 63.6447845,
          "velocity": 0.3937007874015748
        },
        {
          "duration": 0.28037349999999606,
          "durationTicks": 192,
          "midi": 42,
          "name": "F#2",
          "ticks": 43584,
          "time": 63.6447845,
          "velocity": 0.3937007874015748
        },
        {
          "duration": 0.28037349999999606,
          "durationTicks": 192,
          "midi": 35,
          "name": "B1",
          "ticks": 43584,
          "time": 63.6447845,
          "velocity": 0.3937007874015748
        },
        {
          "duration": 0.28037350000001027,
          "durationTicks": 192,
          "midi": 35,
          "name": "B1",
          "ticks": 43776,
          "time": 63.925157999999996,
          "velocity": 0.3937007874015748
        },
        {
          "duration": 0.28037350000001027,
          "durationTicks": 192,
          "midi": 47,
          "name": "B2",
          "ticks": 43776,
          "time": 63.925157999999996,
          "velocity": 0.3937007874015748
        },
        {
          "duration": 0.28037350000001027,
          "durationTicks": 192,
          "midi": 42,
          "name": "F#2",
          "ticks": 43776,
          "time": 63.925157999999996,
          "velocity": 0.3937007874015748
        },
        {
          "duration": 0.28037350000001027,
          "durationTicks": 192,
          "midi": 39,
          "name": "D#2",
          "ticks": 43776,
          "time": 63.925157999999996,
          "velocity": 0.3937007874015748
        },
        {
          "duration": 0.14018674999999803,
          "durationTicks": 96,
          "midi": 35,
          "name": "B1",
          "ticks": 43968,
          "time": 64.2055315,
          "velocity": 0.3937007874015748
        },
        {
          "duration": 0.14018674999999803,
          "durationTicks": 96,
          "midi": 35,
          "name": "B1",
          "ticks": 44064,
          "time": 64.34571825,
          "velocity": 0.3937007874015748
        },
        {
          "duration": 0.28037349999999606,
          "durationTicks": 192,
          "midi": 80,
          "name": "G#5",
          "ticks": 44160,
          "time": 64.485905,
          "velocity": 0.3937007874015748
        },
        {
          "duration": 0.28037349999999606,
          "durationTicks": 192,
          "midi": 68,
          "name": "G#4",
          "ticks": 44160,
          "time": 64.485905,
          "velocity": 0.3937007874015748
        },
        {
          "duration": 0.14018674999999803,
          "durationTicks": 96,
          "midi": 35,
          "name": "B1",
          "ticks": 44256,
          "time": 64.62609175,
          "velocity": 0.3937007874015748
        },
        {
          "duration": 0.28037349999999606,
          "durationTicks": 192,
          "midi": 83,
          "name": "B5",
          "ticks": 44352,
          "time": 64.7662785,
          "velocity": 0.3937007874015748
        },
        {
          "duration": 0.28037349999999606,
          "durationTicks": 192,
          "midi": 71,
          "name": "B4",
          "ticks": 44352,
          "time": 64.7662785,
          "velocity": 0.3937007874015748
        },
        {
          "duration": 0.28037349999999606,
          "durationTicks": 192,
          "midi": 47,
          "name": "B2",
          "ticks": 44352,
          "time": 64.7662785,
          "velocity": 0.3937007874015748
        },
        {
          "duration": 0.28037349999999606,
          "durationTicks": 192,
          "midi": 35,
          "name": "B1",
          "ticks": 44352,
          "time": 64.7662785,
          "velocity": 0.3937007874015748
        },
        {
          "duration": 0.28037349999999606,
          "durationTicks": 192,
          "midi": 42,
          "name": "F#2",
          "ticks": 44352,
          "time": 64.7662785,
          "velocity": 0.3937007874015748
        },
        {
          "duration": 0.28037349999999606,
          "durationTicks": 192,
          "midi": 39,
          "name": "D#2",
          "ticks": 44352,
          "time": 64.7662785,
          "velocity": 0.3937007874015748
        },
        {
          "duration": 0.4205602500000083,
          "durationTicks": 288,
          "midi": 85,
          "name": "C#6",
          "ticks": 44544,
          "time": 65.046652,
          "velocity": 0.3937007874015748
        },
        {
          "duration": 0.4205602500000083,
          "durationTicks": 288,
          "midi": 73,
          "name": "C#5",
          "ticks": 44544,
          "time": 65.046652,
          "velocity": 0.3937007874015748
        },
        {
          "duration": 0.28037350000001027,
          "durationTicks": 192,
          "midi": 33,
          "name": "A1",
          "ticks": 44544,
          "time": 65.046652,
          "velocity": 0.3937007874015748
        },
        {
          "duration": 0.28037350000001027,
          "durationTicks": 192,
          "midi": 45,
          "name": "A2",
          "ticks": 44544,
          "time": 65.046652,
          "velocity": 0.3937007874015748
        },
        {
          "duration": 0.28037350000001027,
          "durationTicks": 192,
          "midi": 40,
          "name": "E2",
          "ticks": 44544,
          "time": 65.046652,
          "velocity": 0.3937007874015748
        },
        {
          "duration": 0.28037350000001027,
          "durationTicks": 192,
          "midi": 37,
          "name": "C#2",
          "ticks": 44544,
          "time": 65.046652,
          "velocity": 0.3937007874015748
        },
        {
          "duration": 0.14018674999999803,
          "durationTicks": 96,
          "midi": 33,
          "name": "A1",
          "ticks": 44736,
          "time": 65.3270255,
          "velocity": 0.3937007874015748
        },
        {
          "duration": 0.14018674999999803,
          "durationTicks": 96,
          "midi": 75,
          "name": "D#5",
          "ticks": 44832,
          "time": 65.46721225,
          "velocity": 0.3937007874015748
        },
        {
          "duration": 0.14018674999999803,
          "durationTicks": 96,
          "midi": 87,
          "name": "D#6",
          "ticks": 44832,
          "time": 65.46721225,
          "velocity": 0.3937007874015748
        },
        {
          "duration": 0.14018674999999803,
          "durationTicks": 96,
          "midi": 33,
          "name": "A1",
          "ticks": 44832,
          "time": 65.46721225,
          "velocity": 0.3937007874015748
        },
        {
          "duration": 0.28037349999999606,
          "durationTicks": 192,
          "midi": 73,
          "name": "C#5",
          "ticks": 44928,
          "time": 65.607399,
          "velocity": 0.3937007874015748
        },
        {
          "duration": 0.28037349999999606,
          "durationTicks": 192,
          "midi": 85,
          "name": "C#6",
          "ticks": 44928,
          "time": 65.607399,
          "velocity": 0.3937007874015748
        },
        {
          "duration": 0.14018674999999803,
          "durationTicks": 96,
          "midi": 33,
          "name": "A1",
          "ticks": 45024,
          "time": 65.74758575,
          "velocity": 0.3937007874015748
        },
        {
          "duration": 0.28037349999999606,
          "durationTicks": 192,
          "midi": 83,
          "name": "B5",
          "ticks": 45120,
          "time": 65.8877725,
          "velocity": 0.3937007874015748
        },
        {
          "duration": 0.28037349999999606,
          "durationTicks": 192,
          "midi": 71,
          "name": "B4",
          "ticks": 45120,
          "time": 65.8877725,
          "velocity": 0.3937007874015748
        },
        {
          "duration": 0.28037349999999606,
          "durationTicks": 192,
          "midi": 45,
          "name": "A2",
          "ticks": 45120,
          "time": 65.8877725,
          "velocity": 0.3937007874015748
        },
        {
          "duration": 0.28037349999999606,
          "durationTicks": 192,
          "midi": 33,
          "name": "A1",
          "ticks": 45120,
          "time": 65.8877725,
          "velocity": 0.3937007874015748
        },
        {
          "duration": 0.28037349999999606,
          "durationTicks": 192,
          "midi": 40,
          "name": "E2",
          "ticks": 45120,
          "time": 65.8877725,
          "velocity": 0.3937007874015748
        },
        {
          "duration": 0.28037349999999606,
          "durationTicks": 192,
          "midi": 37,
          "name": "C#2",
          "ticks": 45120,
          "time": 65.8877725,
          "velocity": 0.3937007874015748
        },
        {
          "duration": 0.5607470000000063,
          "durationTicks": 384,
          "midi": 68,
          "name": "G#4",
          "ticks": 45312,
          "time": 66.168146,
          "velocity": 0.3937007874015748
        },
        {
          "duration": 0.5607470000000063,
          "durationTicks": 384,
          "midi": 80,
          "name": "G#5",
          "ticks": 45312,
          "time": 66.168146,
          "velocity": 0.3937007874015748
        },
        {
          "duration": 0.28037350000001027,
          "durationTicks": 192,
          "midi": 37,
          "name": "C#2",
          "ticks": 45312,
          "time": 66.168146,
          "velocity": 0.3937007874015748
        },
        {
          "duration": 0.28037350000001027,
          "durationTicks": 192,
          "midi": 44,
          "name": "G#2",
          "ticks": 45312,
          "time": 66.168146,
          "velocity": 0.3937007874015748
        },
        {
          "duration": 0.28037350000001027,
          "durationTicks": 192,
          "midi": 49,
          "name": "C#3",
          "ticks": 45312,
          "time": 66.168146,
          "velocity": 0.3937007874015748
        },
        {
          "duration": 0.28037350000001027,
          "durationTicks": 192,
          "midi": 40,
          "name": "E2",
          "ticks": 45312,
          "time": 66.168146,
          "velocity": 0.3937007874015748
        },
        {
          "duration": 0.14018674999999803,
          "durationTicks": 96,
          "midi": 37,
          "name": "C#2",
          "ticks": 45504,
          "time": 66.4485195,
          "velocity": 0.3937007874015748
        },
        {
          "duration": 0.14018674999999803,
          "durationTicks": 96,
          "midi": 37,
          "name": "C#2",
          "ticks": 45600,
          "time": 66.58870625,
          "velocity": 0.3937007874015748
        },
        {
          "duration": 0.28037349999999606,
          "durationTicks": 192,
          "midi": 66,
          "name": "F#4",
          "ticks": 45696,
          "time": 66.728893,
          "velocity": 0.3937007874015748
        },
        {
          "duration": 0.28037349999999606,
          "durationTicks": 192,
          "midi": 78,
          "name": "F#5",
          "ticks": 45696,
          "time": 66.728893,
          "velocity": 0.3937007874015748
        },
        {
          "duration": 0.14018674999999803,
          "durationTicks": 96,
          "midi": 37,
          "name": "C#2",
          "ticks": 45792,
          "time": 66.86907975,
          "velocity": 0.3937007874015748
        },
        {
          "duration": 0.28037350000001027,
          "durationTicks": 192,
          "midi": 76,
          "name": "E5",
          "ticks": 45888,
          "time": 67.0092665,
          "velocity": 0.3937007874015748
        },
        {
          "duration": 0.28037350000001027,
          "durationTicks": 192,
          "midi": 64,
          "name": "E4",
          "ticks": 45888,
          "time": 67.0092665,
          "velocity": 0.3937007874015748
        },
        {
          "duration": 0.28037350000001027,
          "durationTicks": 192,
          "midi": 49,
          "name": "C#3",
          "ticks": 45888,
          "time": 67.0092665,
          "velocity": 0.3937007874015748
        },
        {
          "duration": 0.28037350000001027,
          "durationTicks": 192,
          "midi": 37,
          "name": "C#2",
          "ticks": 45888,
          "time": 67.0092665,
          "velocity": 0.3937007874015748
        },
        {
          "duration": 0.28037350000001027,
          "durationTicks": 192,
          "midi": 44,
          "name": "G#2",
          "ticks": 45888,
          "time": 67.0092665,
          "velocity": 0.3937007874015748
        },
        {
          "duration": 0.28037350000001027,
          "durationTicks": 192,
          "midi": 40,
          "name": "E2",
          "ticks": 45888,
          "time": 67.0092665,
          "velocity": 0.3937007874015748
        },
        {
          "duration": 0.5607469999999921,
          "durationTicks": 384,
          "midi": 66,
          "name": "F#4",
          "ticks": 46080,
          "time": 67.28964,
          "velocity": 0.3937007874015748
        },
        {
          "duration": 0.5607469999999921,
          "durationTicks": 384,
          "midi": 78,
          "name": "F#5",
          "ticks": 46080,
          "time": 67.28964,
          "velocity": 0.3937007874015748
        },
        {
          "duration": 0.28037349999999606,
          "durationTicks": 192,
          "midi": 35,
          "name": "B1",
          "ticks": 46080,
          "time": 67.28964,
          "velocity": 0.3937007874015748
        },
        {
          "duration": 0.28037349999999606,
          "durationTicks": 192,
          "midi": 47,
          "name": "B2",
          "ticks": 46080,
          "time": 67.28964,
          "velocity": 0.3937007874015748
        },
        {
          "duration": 0.28037349999999606,
          "durationTicks": 192,
          "midi": 42,
          "name": "F#2",
          "ticks": 46080,
          "time": 67.28964,
          "velocity": 0.3937007874015748
        },
        {
          "duration": 0.28037349999999606,
          "durationTicks": 192,
          "midi": 39,
          "name": "D#2",
          "ticks": 46080,
          "time": 67.28964,
          "velocity": 0.3937007874015748
        },
        {
          "duration": 0.14018674999999803,
          "durationTicks": 96,
          "midi": 35,
          "name": "B1",
          "ticks": 46272,
          "time": 67.5700135,
          "velocity": 0.3937007874015748
        },
        {
          "duration": 0.14018674999999803,
          "durationTicks": 96,
          "midi": 80,
          "name": "G#5",
          "ticks": 46368,
          "time": 67.71020025,
          "velocity": 0.3937007874015748
        },
        {
          "duration": 0.14018674999999803,
          "durationTicks": 96,
          "midi": 68,
          "name": "G#4",
          "ticks": 46368,
          "time": 67.71020025,
          "velocity": 0.3937007874015748
        },
        {
          "duration": 0.14018674999999803,
          "durationTicks": 96,
          "midi": 35,
          "name": "B1",
          "ticks": 46368,
          "time": 67.71020025,
          "velocity": 0.3937007874015748
        },
        {
          "duration": 0.28037349999999606,
          "durationTicks": 192,
          "midi": 78,
          "name": "F#5",
          "ticks": 46464,
          "time": 67.850387,
          "velocity": 0.3937007874015748
        },
        {
          "duration": 0.28037349999999606,
          "durationTicks": 192,
          "midi": 66,
          "name": "F#4",
          "ticks": 46464,
          "time": 67.850387,
          "velocity": 0.3937007874015748
        },
        {
          "duration": 0.14018674999999803,
          "durationTicks": 96,
          "midi": 35,
          "name": "B1",
          "ticks": 46560,
          "time": 67.99057375,
          "velocity": 0.3937007874015748
        },
        {
          "duration": 0.28037350000001027,
          "durationTicks": 192,
          "midi": 76,
          "name": "E5",
          "ticks": 46656,
          "time": 68.1307605,
          "velocity": 0.3937007874015748
        },
        {
          "duration": 0.28037350000001027,
          "durationTicks": 192,
          "midi": 64,
          "name": "E4",
          "ticks": 46656,
          "time": 68.1307605,
          "velocity": 0.3937007874015748
        },
        {
          "duration": 0.28037350000001027,
          "durationTicks": 192,
          "midi": 47,
          "name": "B2",
          "ticks": 46656,
          "time": 68.1307605,
          "velocity": 0.3937007874015748
        },
        {
          "duration": 0.28037350000001027,
          "durationTicks": 192,
          "midi": 35,
          "name": "B1",
          "ticks": 46656,
          "time": 68.1307605,
          "velocity": 0.3937007874015748
        },
        {
          "duration": 0.28037350000001027,
          "durationTicks": 192,
          "midi": 42,
          "name": "F#2",
          "ticks": 46656,
          "time": 68.1307605,
          "velocity": 0.3937007874015748
        },
        {
          "duration": 0.28037350000001027,
          "durationTicks": 192,
          "midi": 39,
          "name": "D#2",
          "ticks": 46656,
          "time": 68.1307605,
          "velocity": 0.3937007874015748
        },
        {
          "duration": 0.5607469999999921,
          "durationTicks": 384,
          "midi": 73,
          "name": "C#5",
          "ticks": 46848,
          "time": 68.411134,
          "velocity": 0.3937007874015748
        },
        {
          "duration": 0.5607469999999921,
          "durationTicks": 384,
          "midi": 61,
          "name": "C#4",
          "ticks": 46848,
          "time": 68.411134,
          "velocity": 0.3937007874015748
        },
        {
          "duration": 0.28037349999999606,
          "durationTicks": 192,
          "midi": 30,
          "name": "F#1",
          "ticks": 46848,
          "time": 68.411134,
          "velocity": 0.3937007874015748
        },
        {
          "duration": 0.28037349999999606,
          "durationTicks": 192,
          "midi": 37,
          "name": "C#2",
          "ticks": 46848,
          "time": 68.411134,
          "velocity": 0.3937007874015748
        },
        {
          "duration": 0.28037349999999606,
          "durationTicks": 192,
          "midi": 42,
          "name": "F#2",
          "ticks": 46848,
          "time": 68.411134,
          "velocity": 0.3937007874015748
        },
        {
          "duration": 0.28037349999999606,
          "durationTicks": 192,
          "midi": 33,
          "name": "A1",
          "ticks": 46848,
          "time": 68.411134,
          "velocity": 0.3937007874015748
        },
        {
          "duration": 0.14018674999999803,
          "durationTicks": 96,
          "midi": 30,
          "name": "F#1",
          "ticks": 47040,
          "time": 68.6915075,
          "velocity": 0.3937007874015748
        },
        {
          "duration": 0.14018674999999803,
          "durationTicks": 96,
          "midi": 30,
          "name": "F#1",
          "ticks": 47136,
          "time": 68.83169425,
          "velocity": 0.3937007874015748
        },
        {
          "duration": 0.28037350000001027,
          "durationTicks": 192,
          "midi": 71,
          "name": "B4",
          "ticks": 47232,
          "time": 68.971881,
          "velocity": 0.3937007874015748
        },
        {
          "duration": 0.28037350000001027,
          "durationTicks": 192,
          "midi": 59,
          "name": "B3",
          "ticks": 47232,
          "time": 68.971881,
          "velocity": 0.3937007874015748
        },
        {
          "duration": 0.14018675000001224,
          "durationTicks": 96,
          "midi": 30,
          "name": "F#1",
          "ticks": 47328,
          "time": 69.11206775,
          "velocity": 0.3937007874015748
        },
        {
          "duration": 0.28037349999999606,
          "durationTicks": 192,
          "midi": 61,
          "name": "C#4",
          "ticks": 47424,
          "time": 69.2522545,
          "velocity": 0.3937007874015748
        },
        {
          "duration": 0.28037349999999606,
          "durationTicks": 192,
          "midi": 73,
          "name": "C#5",
          "ticks": 47424,
          "time": 69.2522545,
          "velocity": 0.3937007874015748
        },
        {
          "duration": 0.28037349999999606,
          "durationTicks": 192,
          "midi": 30,
          "name": "F#1",
          "ticks": 47424,
          "time": 69.2522545,
          "velocity": 0.3937007874015748
        },
        {
          "duration": 0.28037349999999606,
          "durationTicks": 192,
          "midi": 37,
          "name": "C#2",
          "ticks": 47424,
          "time": 69.2522545,
          "velocity": 0.3937007874015748
        },
        {
          "duration": 0.28037349999999606,
          "durationTicks": 192,
          "midi": 42,
          "name": "F#2",
          "ticks": 47424,
          "time": 69.2522545,
          "velocity": 0.3937007874015748
        },
        {
          "duration": 0.28037349999999606,
          "durationTicks": 192,
          "midi": 33,
          "name": "A1",
          "ticks": 47424,
          "time": 69.2522545,
          "velocity": 0.3937007874015748
        },
        {
          "duration": 0.5607469999999921,
          "durationTicks": 384,
          "midi": 76,
          "name": "E5",
          "ticks": 47616,
          "time": 69.532628,
          "velocity": 0.3937007874015748
        },
        {
          "duration": 0.5607469999999921,
          "durationTicks": 384,
          "midi": 64,
          "name": "E4",
          "ticks": 47616,
          "time": 69.532628,
          "velocity": 0.3937007874015748
        },
        {
          "duration": 0.28037349999999606,
          "durationTicks": 192,
          "midi": 33,
          "name": "A1",
          "ticks": 47616,
          "time": 69.532628,
          "velocity": 0.3937007874015748
        },
        {
          "duration": 0.28037349999999606,
          "durationTicks": 192,
          "midi": 40,
          "name": "E2",
          "ticks": 47616,
          "time": 69.532628,
          "velocity": 0.3937007874015748
        },
        {
          "duration": 0.28037349999999606,
          "durationTicks": 192,
          "midi": 45,
          "name": "A2",
          "ticks": 47616,
          "time": 69.532628,
          "velocity": 0.3937007874015748
        },
        {
          "duration": 0.28037349999999606,
          "durationTicks": 192,
          "midi": 37,
          "name": "C#2",
          "ticks": 47616,
          "time": 69.532628,
          "velocity": 0.3937007874015748
        },
        {
          "duration": 0.14018674999999803,
          "durationTicks": 96,
          "midi": 33,
          "name": "A1",
          "ticks": 47808,
          "time": 69.8130015,
          "velocity": 0.3937007874015748
        },
        {
          "duration": 0.14018674999999803,
          "durationTicks": 96,
          "midi": 33,
          "name": "A1",
          "ticks": 47904,
          "time": 69.95318825,
          "velocity": 0.3937007874015748
        },
        {
          "duration": 0.28037350000001027,
          "durationTicks": 192,
          "midi": 78,
          "name": "F#5",
          "ticks": 48000,
          "time": 70.093375,
          "velocity": 0.3937007874015748
        },
        {
          "duration": 0.28037350000001027,
          "durationTicks": 192,
          "midi": 66,
          "name": "F#4",
          "ticks": 48000,
          "time": 70.093375,
          "velocity": 0.3937007874015748
        },
        {
          "duration": 0.14018675000001224,
          "durationTicks": 96,
          "midi": 33,
          "name": "A1",
          "ticks": 48096,
          "time": 70.23356174999999,
          "velocity": 0.3937007874015748
        },
        {
          "duration": 0.28037349999999606,
          "durationTicks": 192,
          "midi": 68,
          "name": "G#4",
          "ticks": 48192,
          "time": 70.3737485,
          "velocity": 0.3937007874015748
        },
        {
          "duration": 0.28037349999999606,
          "durationTicks": 192,
          "midi": 80,
          "name": "G#5",
          "ticks": 48192,
          "time": 70.3737485,
          "velocity": 0.3937007874015748
        },
        {
          "duration": 0.28037349999999606,
          "durationTicks": 192,
          "midi": 45,
          "name": "A2",
          "ticks": 48192,
          "time": 70.3737485,
          "velocity": 0.3937007874015748
        },
        {
          "duration": 0.28037349999999606,
          "durationTicks": 192,
          "midi": 33,
          "name": "A1",
          "ticks": 48192,
          "time": 70.3737485,
          "velocity": 0.3937007874015748
        },
        {
          "duration": 0.28037349999999606,
          "durationTicks": 192,
          "midi": 40,
          "name": "E2",
          "ticks": 48192,
          "time": 70.3737485,
          "velocity": 0.3937007874015748
        },
        {
          "duration": 0.28037349999999606,
          "durationTicks": 192,
          "midi": 37,
          "name": "C#2",
          "ticks": 48192,
          "time": 70.3737485,
          "velocity": 0.3937007874015748
        },
        {
          "duration": 0.5607469999999921,
          "durationTicks": 384,
          "midi": 66,
          "name": "F#4",
          "ticks": 48384,
          "time": 70.654122,
          "velocity": 0.3937007874015748
        },
        {
          "duration": 0.5607469999999921,
          "durationTicks": 384,
          "midi": 78,
          "name": "F#5",
          "ticks": 48384,
          "time": 70.654122,
          "velocity": 0.3937007874015748
        },
        {
          "duration": 0.28037349999999606,
          "durationTicks": 192,
          "midi": 35,
          "name": "B1",
          "ticks": 48384,
          "time": 70.654122,
          "velocity": 0.3937007874015748
        },
        {
          "duration": 0.28037349999999606,
          "durationTicks": 192,
          "midi": 47,
          "name": "B2",
          "ticks": 48384,
          "time": 70.654122,
          "velocity": 0.3937007874015748
        },
        {
          "duration": 0.28037349999999606,
          "durationTicks": 192,
          "midi": 42,
          "name": "F#2",
          "ticks": 48384,
          "time": 70.654122,
          "velocity": 0.3937007874015748
        },
        {
          "duration": 0.28037349999999606,
          "durationTicks": 192,
          "midi": 39,
          "name": "D#2",
          "ticks": 48384,
          "time": 70.654122,
          "velocity": 0.3937007874015748
        },
        {
          "duration": 0.14018674999999803,
          "durationTicks": 96,
          "midi": 35,
          "name": "B1",
          "ticks": 48576,
          "time": 70.9344955,
          "velocity": 0.3937007874015748
        },
        {
          "duration": 0.14018674999999803,
          "durationTicks": 96,
          "midi": 35,
          "name": "B1",
          "ticks": 48672,
          "time": 71.07468225,
          "velocity": 0.3937007874015748
        },
        {
          "duration": 0.28037350000001027,
          "durationTicks": 192,
          "midi": 64,
          "name": "E4",
          "ticks": 48768,
          "time": 71.214869,
          "velocity": 0.3937007874015748
        },
        {
          "duration": 0.28037350000001027,
          "durationTicks": 192,
          "midi": 76,
          "name": "E5",
          "ticks": 48768,
          "time": 71.214869,
          "velocity": 0.3937007874015748
        },
        {
          "duration": 0.14018674999999803,
          "durationTicks": 96,
          "midi": 35,
          "name": "B1",
          "ticks": 48864,
          "time": 71.35505575,
          "velocity": 0.3937007874015748
        },
        {
          "duration": 0.28037349999999606,
          "durationTicks": 192,
          "midi": 61,
          "name": "C#4",
          "ticks": 48960,
          "time": 71.4952425,
          "velocity": 0.3937007874015748
        },
        {
          "duration": 0.28037349999999606,
          "durationTicks": 192,
          "midi": 73,
          "name": "C#5",
          "ticks": 48960,
          "time": 71.4952425,
          "velocity": 0.3937007874015748
        },
        {
          "duration": 0.28037349999999606,
          "durationTicks": 192,
          "midi": 47,
          "name": "B2",
          "ticks": 48960,
          "time": 71.4952425,
          "velocity": 0.3937007874015748
        },
        {
          "duration": 0.28037349999999606,
          "durationTicks": 192,
          "midi": 35,
          "name": "B1",
          "ticks": 48960,
          "time": 71.4952425,
          "velocity": 0.3937007874015748
        },
        {
          "duration": 0.28037349999999606,
          "durationTicks": 192,
          "midi": 42,
          "name": "F#2",
          "ticks": 48960,
          "time": 71.4952425,
          "velocity": 0.3937007874015748
        },
        {
          "duration": 0.28037349999999606,
          "durationTicks": 192,
          "midi": 39,
          "name": "D#2",
          "ticks": 48960,
          "time": 71.4952425,
          "velocity": 0.3937007874015748
        },
        {
          "duration": 2.242987999999997,
          "durationTicks": 1536,
          "midi": 76,
          "name": "E5",
          "ticks": 49152,
          "time": 71.775616,
          "velocity": 0.3937007874015748
        },
        {
          "duration": 2.242987999999997,
          "durationTicks": 1536,
          "midi": 64,
          "name": "E4",
          "ticks": 49152,
          "time": 71.775616,
          "velocity": 0.3937007874015748
        },
        {
          "duration": 2.242987999999997,
          "durationTicks": 1536,
          "midi": 37,
          "name": "C#2",
          "ticks": 49152,
          "time": 71.775616,
          "velocity": 0.3937007874015748
        },
        {
          "duration": 2.242987999999997,
          "durationTicks": 1536,
          "midi": 49,
          "name": "C#3",
          "ticks": 49152,
          "time": 71.775616,
          "velocity": 0.3937007874015748
        },
        {
          "duration": 2.242987999999997,
          "durationTicks": 1536,
          "midi": 44,
          "name": "G#2",
          "ticks": 49152,
          "time": 71.775616,
          "velocity": 0.3937007874015748
        },
        {
          "duration": 2.242987999999997,
          "durationTicks": 1536,
          "midi": 40,
          "name": "E2",
          "ticks": 49152,
          "time": 71.775616,
          "velocity": 0.3937007874015748
        },
        {
          "duration": 0.14018674999999803,
          "durationTicks": 96,
          "midi": 61,
          "name": "C#4",
          "ticks": 50688,
          "time": 74.018604,
          "velocity": 0.3937007874015748
        },
        {
          "duration": 0.14018674999999803,
          "durationTicks": 96,
          "midi": 49,
          "name": "C#3",
          "ticks": 50688,
          "time": 74.018604,
          "velocity": 0.3937007874015748
        },
        {
          "duration": 0.14018674999999803,
          "durationTicks": 96,
          "midi": 44,
          "name": "G#2",
          "ticks": 50688,
          "time": 74.018604,
          "velocity": 0.3937007874015748
        },
        {
          "duration": 0.14018674999999803,
          "durationTicks": 96,
          "midi": 37,
          "name": "C#2",
          "ticks": 50688,
          "time": 74.018604,
          "velocity": 0.3937007874015748
        },
        {
          "duration": 0.14018674999999803,
          "durationTicks": 96,
          "midi": 40,
          "name": "E2",
          "ticks": 50688,
          "time": 74.018604,
          "velocity": 0.3937007874015748
        },
        {
          "duration": 0.14018675000001224,
          "durationTicks": 96,
          "midi": 37,
          "name": "C#2",
          "ticks": 50880,
          "time": 74.29897749999999,
          "velocity": 0.3937007874015748
        },
        {
          "duration": 0.14018674999999803,
          "durationTicks": 96,
          "midi": 61,
          "name": "C#4",
          "ticks": 50976,
          "time": 74.43916425,
          "velocity": 0.3937007874015748
        },
        {
          "duration": 0.14018674999999803,
          "durationTicks": 96,
          "midi": 37,
          "name": "C#2",
          "ticks": 50976,
          "time": 74.43916425,
          "velocity": 0.3937007874015748
        },
        {
          "duration": 0.14018674999999803,
          "durationTicks": 96,
          "midi": 64,
          "name": "E4",
          "ticks": 51072,
          "time": 74.579351,
          "velocity": 0.3937007874015748
        },
        {
          "duration": 0.14018674999999803,
          "durationTicks": 96,
          "midi": 66,
          "name": "F#4",
          "ticks": 51264,
          "time": 74.8597245,
          "velocity": 0.3937007874015748
        },
        {
          "duration": 0.14018674999999803,
          "durationTicks": 96,
          "midi": 37,
          "name": "C#2",
          "ticks": 51264,
          "time": 74.8597245,
          "velocity": 0.3937007874015748
        },
        {
          "duration": 0.14018674999999803,
          "durationTicks": 96,
          "midi": 61,
          "name": "C#4",
          "ticks": 51360,
          "time": 74.99991125,
          "velocity": 0.3937007874015748
        },
        {
          "duration": 0.14018674999999803,
          "durationTicks": 96,
          "midi": 45,
          "name": "A2",
          "ticks": 51456,
          "time": 75.140098,
          "velocity": 0.3937007874015748
        },
        {
          "duration": 0.14018674999999803,
          "durationTicks": 96,
          "midi": 37,
          "name": "C#2",
          "ticks": 51456,
          "time": 75.140098,
          "velocity": 0.3937007874015748
        },
        {
          "duration": 0.14018674999999803,
          "durationTicks": 96,
          "midi": 33,
          "name": "A1",
          "ticks": 51456,
          "time": 75.140098,
          "velocity": 0.3937007874015748
        },
        {
          "duration": 0.14018674999999803,
          "durationTicks": 96,
          "midi": 40,
          "name": "E2",
          "ticks": 51456,
          "time": 75.140098,
          "velocity": 0.3937007874015748
        },
        {
          "duration": 0.14018675000001224,
          "durationTicks": 96,
          "midi": 61,
          "name": "C#4",
          "ticks": 51552,
          "time": 75.28028474999999,
          "velocity": 0.3937007874015748
        },
        {
          "duration": 0.14018674999999803,
          "durationTicks": 96,
          "midi": 33,
          "name": "A1",
          "ticks": 51648,
          "time": 75.4204715,
          "velocity": 0.3937007874015748
        },
        {
          "duration": 0.14018674999999803,
          "durationTicks": 96,
          "midi": 61,
          "name": "C#4",
          "ticks": 51744,
          "time": 75.56065825,
          "velocity": 0.3937007874015748
        },
        {
          "duration": 0.14018674999999803,
          "durationTicks": 96,
          "midi": 33,
          "name": "A1",
          "ticks": 51744,
          "time": 75.56065825,
          "velocity": 0.3937007874015748
        },
        {
          "duration": 0.14018674999999803,
          "durationTicks": 96,
          "midi": 64,
          "name": "E4",
          "ticks": 51840,
          "time": 75.700845,
          "velocity": 0.3937007874015748
        },
        {
          "duration": 0.14018674999999803,
          "durationTicks": 96,
          "midi": 66,
          "name": "F#4",
          "ticks": 52032,
          "time": 75.9812185,
          "velocity": 0.3937007874015748
        },
        {
          "duration": 0.14018674999999803,
          "durationTicks": 96,
          "midi": 33,
          "name": "A1",
          "ticks": 52032,
          "time": 75.9812185,
          "velocity": 0.3937007874015748
        },
        {
          "duration": 0.14018675000001224,
          "durationTicks": 96,
          "midi": 68,
          "name": "G#4",
          "ticks": 52224,
          "time": 76.261592,
          "velocity": 0.3937007874015748
        },
        {
          "duration": 0.14018675000001224,
          "durationTicks": 96,
          "midi": 44,
          "name": "G#2",
          "ticks": 52224,
          "time": 76.261592,
          "velocity": 0.3937007874015748
        },
        {
          "duration": 0.14018675000001224,
          "durationTicks": 96,
          "midi": 40,
          "name": "E2",
          "ticks": 52224,
          "time": 76.261592,
          "velocity": 0.3937007874015748
        },
        {
          "duration": 0.14018675000001224,
          "durationTicks": 96,
          "midi": 47,
          "name": "B2",
          "ticks": 52224,
          "time": 76.261592,
          "velocity": 0.3937007874015748
        },
        {
          "duration": 0.14018675000001224,
          "durationTicks": 96,
          "midi": 52,
          "name": "E3",
          "ticks": 52224,
          "time": 76.261592,
          "velocity": 0.3937007874015748
        },
        {
          "duration": 0.14018674999999803,
          "durationTicks": 96,
          "midi": 68,
          "name": "G#4",
          "ticks": 52416,
          "time": 76.5419655,
          "velocity": 0.3937007874015748
        },
        {
          "duration": 0.14018674999999803,
          "durationTicks": 96,
          "midi": 40,
          "name": "E2",
          "ticks": 52416,
          "time": 76.5419655,
          "velocity": 0.3937007874015748
        },
        {
          "duration": 0.14018674999999803,
          "durationTicks": 96,
          "midi": 40,
          "name": "E2",
          "ticks": 52512,
          "time": 76.68215225,
          "velocity": 0.3937007874015748
        },
        {
          "duration": 0.14018674999999803,
          "durationTicks": 96,
          "midi": 68,
          "name": "G#4",
          "ticks": 52608,
          "time": 76.822339,
          "velocity": 0.3937007874015748
        },
        {
          "duration": 0.14018674999999803,
          "durationTicks": 96,
          "midi": 66,
          "name": "F#4",
          "ticks": 52704,
          "time": 76.96252575,
          "velocity": 0.3937007874015748
        },
        {
          "duration": 0.14018674999999803,
          "durationTicks": 96,
          "midi": 64,
          "name": "E4",
          "ticks": 52800,
          "time": 77.1027125,
          "velocity": 0.3937007874015748
        },
        {
          "duration": 0.14018674999999803,
          "durationTicks": 96,
          "midi": 40,
          "name": "E2",
          "ticks": 52800,
          "time": 77.1027125,
          "velocity": 0.3937007874015748
        },
        {
          "duration": 0.14018675000001224,
          "durationTicks": 96,
          "midi": 68,
          "name": "G#4",
          "ticks": 52896,
          "time": 77.24289925,
          "velocity": 0.3937007874015748
        },
        {
          "duration": 0.14018674999999803,
          "durationTicks": 96,
          "midi": 66,
          "name": "F#4",
          "ticks": 52992,
          "time": 77.383086,
          "velocity": 0.3937007874015748
        },
        {
          "duration": 0.14018674999999803,
          "durationTicks": 96,
          "midi": 39,
          "name": "D#2",
          "ticks": 52992,
          "time": 77.383086,
          "velocity": 0.3937007874015748
        },
        {
          "duration": 0.14018674999999803,
          "durationTicks": 96,
          "midi": 35,
          "name": "B1",
          "ticks": 52992,
          "time": 77.383086,
          "velocity": 0.3937007874015748
        },
        {
          "duration": 0.14018674999999803,
          "durationTicks": 96,
          "midi": 42,
          "name": "F#2",
          "ticks": 52992,
          "time": 77.383086,
          "velocity": 0.3937007874015748
        },
        {
          "duration": 0.14018674999999803,
          "durationTicks": 96,
          "midi": 47,
          "name": "B2",
          "ticks": 52992,
          "time": 77.383086,
          "velocity": 0.3937007874015748
        },
        {
          "duration": 0.14018674999999803,
          "durationTicks": 96,
          "midi": 64,
          "name": "E4",
          "ticks": 53184,
          "time": 77.6634595,
          "velocity": 0.3937007874015748
        },
        {
          "duration": 0.14018674999999803,
          "durationTicks": 96,
          "midi": 35,
          "name": "B1",
          "ticks": 53184,
          "time": 77.6634595,
          "velocity": 0.3937007874015748
        },
        {
          "duration": 0.14018674999999803,
          "durationTicks": 96,
          "midi": 66,
          "name": "F#4",
          "ticks": 53280,
          "time": 77.80364625,
          "velocity": 0.3937007874015748
        },
        {
          "duration": 0.14018674999999803,
          "durationTicks": 96,
          "midi": 35,
          "name": "B1",
          "ticks": 53280,
          "time": 77.80364625,
          "velocity": 0.3937007874015748
        },
        {
          "duration": 0.14018674999999803,
          "durationTicks": 96,
          "midi": 68,
          "name": "G#4",
          "ticks": 53472,
          "time": 78.08401975,
          "velocity": 0.3937007874015748
        },
        {
          "duration": 0.14018675000001224,
          "durationTicks": 96,
          "midi": 35,
          "name": "B1",
          "ticks": 53568,
          "time": 78.2242065,
          "velocity": 0.3937007874015748
        },
        {
          "duration": 0.14018674999999803,
          "durationTicks": 96,
          "midi": 61,
          "name": "C#4",
          "ticks": 53760,
          "time": 78.50458,
          "velocity": 0.3937007874015748
        },
        {
          "duration": 0.14018674999999803,
          "durationTicks": 96,
          "midi": 40,
          "name": "E2",
          "ticks": 53760,
          "time": 78.50458,
          "velocity": 0.3937007874015748
        },
        {
          "duration": 0.14018674999999803,
          "durationTicks": 96,
          "midi": 37,
          "name": "C#2",
          "ticks": 53760,
          "time": 78.50458,
          "velocity": 0.3937007874015748
        },
        {
          "duration": 0.14018674999999803,
          "durationTicks": 96,
          "midi": 44,
          "name": "G#2",
          "ticks": 53760,
          "time": 78.50458,
          "velocity": 0.3937007874015748
        },
        {
          "duration": 0.14018674999999803,
          "durationTicks": 96,
          "midi": 49,
          "name": "C#3",
          "ticks": 53760,
          "time": 78.50458,
          "velocity": 0.3937007874015748
        },
        {
          "duration": 0.14018674999999803,
          "durationTicks": 96,
          "midi": 37,
          "name": "C#2",
          "ticks": 53952,
          "time": 78.7849535,
          "velocity": 0.3937007874015748
        },
        {
          "duration": 0.14018674999999803,
          "durationTicks": 96,
          "midi": 61,
          "name": "C#4",
          "ticks": 54048,
          "time": 78.92514025,
          "velocity": 0.3937007874015748
        },
        {
          "duration": 0.14018674999999803,
          "durationTicks": 96,
          "midi": 37,
          "name": "C#2",
          "ticks": 54048,
          "time": 78.92514025,
          "velocity": 0.3937007874015748
        },
        {
          "duration": 0.14018674999999803,
          "durationTicks": 96,
          "midi": 64,
          "name": "E4",
          "ticks": 54144,
          "time": 79.065327,
          "velocity": 0.3937007874015748
        },
        {
          "duration": 0.14018675000001224,
          "durationTicks": 96,
          "midi": 66,
          "name": "F#4",
          "ticks": 54336,
          "time": 79.34570049999999,
          "velocity": 0.3937007874015748
        },
        {
          "duration": 0.14018675000001224,
          "durationTicks": 96,
          "midi": 37,
          "name": "C#2",
          "ticks": 54336,
          "time": 79.34570049999999,
          "velocity": 0.3937007874015748
        },
        {
          "duration": 0.14018674999999803,
          "durationTicks": 96,
          "midi": 61,
          "name": "C#4",
          "ticks": 54432,
          "time": 79.48588725,
          "velocity": 0.3937007874015748
        },
        {
          "duration": 0.14018674999999803,
          "durationTicks": 96,
          "midi": 45,
          "name": "A2",
          "ticks": 54528,
          "time": 79.626074,
          "velocity": 0.3937007874015748
        },
        {
          "duration": 0.14018674999999803,
          "durationTicks": 96,
          "midi": 37,
          "name": "C#2",
          "ticks": 54528,
          "time": 79.626074,
          "velocity": 0.3937007874015748
        },
        {
          "duration": 0.14018674999999803,
          "durationTicks": 96,
          "midi": 33,
          "name": "A1",
          "ticks": 54528,
          "time": 79.626074,
          "velocity": 0.3937007874015748
        },
        {
          "duration": 0.14018674999999803,
          "durationTicks": 96,
          "midi": 40,
          "name": "E2",
          "ticks": 54528,
          "time": 79.626074,
          "velocity": 0.3937007874015748
        },
        {
          "duration": 0.14018674999999803,
          "durationTicks": 96,
          "midi": 61,
          "name": "C#4",
          "ticks": 54624,
          "time": 79.76626075,
          "velocity": 0.3937007874015748
        },
        {
          "duration": 0.14018674999999803,
          "durationTicks": 96,
          "midi": 33,
          "name": "A1",
          "ticks": 54720,
          "time": 79.9064475,
          "velocity": 0.3937007874015748
        },
        {
          "duration": 0.14018674999999803,
          "durationTicks": 96,
          "midi": 61,
          "name": "C#4",
          "ticks": 54816,
          "time": 80.04663425,
          "velocity": 0.3937007874015748
        },
        {
          "duration": 0.14018674999999803,
          "durationTicks": 96,
          "midi": 33,
          "name": "A1",
          "ticks": 54816,
          "time": 80.04663425,
          "velocity": 0.3937007874015748
        },
        {
          "duration": 0.14018674999999803,
          "durationTicks": 96,
          "midi": 64,
          "name": "E4",
          "ticks": 54912,
          "time": 80.186821,
          "velocity": 0.3937007874015748
        },
        {
          "duration": 0.14018674999999803,
          "durationTicks": 96,
          "midi": 73,
          "name": "C#5",
          "ticks": 55104,
          "time": 80.4671945,
          "velocity": 0.3937007874015748
        },
        {
          "duration": 0.14018674999999803,
          "durationTicks": 96,
          "midi": 33,
          "name": "A1",
          "ticks": 55104,
          "time": 80.4671945,
          "velocity": 0.3937007874015748
        },
        {
          "duration": 0.14018674999999803,
          "durationTicks": 96,
          "midi": 71,
          "name": "B4",
          "ticks": 55296,
          "time": 80.747568,
          "velocity": 0.3937007874015748
        },
        {
          "duration": 0.14018674999999803,
          "durationTicks": 96,
          "midi": 44,
          "name": "G#2",
          "ticks": 55296,
          "time": 80.747568,
          "velocity": 0.3937007874015748
        },
        {
          "duration": 0.14018674999999803,
          "durationTicks": 96,
          "midi": 40,
          "name": "E2",
          "ticks": 55296,
          "time": 80.747568,
          "velocity": 0.3937007874015748
        },
        {
          "duration": 0.14018674999999803,
          "durationTicks": 96,
          "midi": 47,
          "name": "B2",
          "ticks": 55296,
          "time": 80.747568,
          "velocity": 0.3937007874015748
        },
        {
          "duration": 0.14018674999999803,
          "durationTicks": 96,
          "midi": 52,
          "name": "E3",
          "ticks": 55296,
          "time": 80.747568,
          "velocity": 0.3937007874015748
        },
        {
          "duration": 0.14018674999999803,
          "durationTicks": 96,
          "midi": 68,
          "name": "G#4",
          "ticks": 55488,
          "time": 81.0279415,
          "velocity": 0.3937007874015748
        },
        {
          "duration": 0.14018674999999803,
          "durationTicks": 96,
          "midi": 40,
          "name": "E2",
          "ticks": 55488,
          "time": 81.0279415,
          "velocity": 0.3937007874015748
        },
        {
          "duration": 0.14018674999999803,
          "durationTicks": 96,
          "midi": 40,
          "name": "E2",
          "ticks": 55584,
          "time": 81.16812825,
          "velocity": 0.3937007874015748
        },
        {
          "duration": 0.14018675000001224,
          "durationTicks": 96,
          "midi": 66,
          "name": "F#4",
          "ticks": 55680,
          "time": 81.308315,
          "velocity": 0.3937007874015748
        },
        {
          "duration": 0.14018674999999803,
          "durationTicks": 96,
          "midi": 64,
          "name": "E4",
          "ticks": 55776,
          "time": 81.44850175,
          "velocity": 0.3937007874015748
        },
        {
          "duration": 0.14018674999999803,
          "durationTicks": 96,
          "midi": 66,
          "name": "F#4",
          "ticks": 55872,
          "time": 81.5886885,
          "velocity": 0.3937007874015748
        },
        {
          "duration": 0.14018674999999803,
          "durationTicks": 96,
          "midi": 40,
          "name": "E2",
          "ticks": 55872,
          "time": 81.5886885,
          "velocity": 0.3937007874015748
        },
        {
          "duration": 0.14018674999999803,
          "durationTicks": 96,
          "midi": 68,
          "name": "G#4",
          "ticks": 55968,
          "time": 81.72887525,
          "velocity": 0.3937007874015748
        },
        {
          "duration": 0.14018674999999803,
          "durationTicks": 96,
          "midi": 71,
          "name": "B4",
          "ticks": 56064,
          "time": 81.869062,
          "velocity": 0.3937007874015748
        },
        {
          "duration": 0.14018674999999803,
          "durationTicks": 96,
          "midi": 47,
          "name": "B2",
          "ticks": 56064,
          "time": 81.869062,
          "velocity": 0.3937007874015748
        },
        {
          "duration": 0.14018674999999803,
          "durationTicks": 96,
          "midi": 39,
          "name": "D#2",
          "ticks": 56064,
          "time": 81.869062,
          "velocity": 0.3937007874015748
        },
        {
          "duration": 0.14018674999999803,
          "durationTicks": 96,
          "midi": 35,
          "name": "B1",
          "ticks": 56064,
          "time": 81.869062,
          "velocity": 0.3937007874015748
        },
        {
          "duration": 0.14018674999999803,
          "durationTicks": 96,
          "midi": 42,
          "name": "F#2",
          "ticks": 56064,
          "time": 81.869062,
          "velocity": 0.3937007874015748
        },
        {
          "duration": 0.14018674999999803,
          "durationTicks": 96,
          "midi": 71,
          "name": "B4",
          "ticks": 56160,
          "time": 82.00924875,
          "velocity": 0.3937007874015748
        },
        {
          "duration": 0.14018674999999803,
          "durationTicks": 96,
          "midi": 68,
          "name": "G#4",
          "ticks": 56256,
          "time": 82.1494355,
          "velocity": 0.3937007874015748
        },
        {
          "duration": 0.14018674999999803,
          "durationTicks": 96,
          "midi": 35,
          "name": "B1",
          "ticks": 56256,
          "time": 82.1494355,
          "velocity": 0.3937007874015748
        },
        {
          "duration": 0.14018675000001224,
          "durationTicks": 96,
          "midi": 66,
          "name": "F#4",
          "ticks": 56352,
          "time": 82.28962225,
          "velocity": 0.3937007874015748
        },
        {
          "duration": 0.14018675000001224,
          "durationTicks": 96,
          "midi": 35,
          "name": "B1",
          "ticks": 56352,
          "time": 82.28962225,
          "velocity": 0.3937007874015748
        },
        {
          "duration": 0.14018674999999803,
          "durationTicks": 96,
          "midi": 64,
          "name": "E4",
          "ticks": 56544,
          "time": 82.56999575,
          "velocity": 0.3937007874015748
        },
        {
          "duration": 0.14018674999999803,
          "durationTicks": 96,
          "midi": 35,
          "name": "B1",
          "ticks": 56640,
          "time": 82.7101825,
          "velocity": 0.3937007874015748
        },
        {
          "duration": 0.14018674999999803,
          "durationTicks": 96,
          "midi": 61,
          "name": "C#4",
          "ticks": 56832,
          "time": 82.990556,
          "velocity": 0.3937007874015748
        },
        {
          "duration": 0.14018674999999803,
          "durationTicks": 96,
          "midi": 40,
          "name": "E2",
          "ticks": 56832,
          "time": 82.990556,
          "velocity": 0.3937007874015748
        },
        {
          "duration": 0.14018674999999803,
          "durationTicks": 96,
          "midi": 37,
          "name": "C#2",
          "ticks": 56832,
          "time": 82.990556,
          "velocity": 0.3937007874015748
        },
        {
          "duration": 0.14018674999999803,
          "durationTicks": 96,
          "midi": 44,
          "name": "G#2",
          "ticks": 56832,
          "time": 82.990556,
          "velocity": 0.3937007874015748
        },
        {
          "duration": 0.14018674999999803,
          "durationTicks": 96,
          "midi": 49,
          "name": "C#3",
          "ticks": 56832,
          "time": 82.990556,
          "velocity": 0.3937007874015748
        },
        {
          "duration": 0.14018675000001224,
          "durationTicks": 96,
          "midi": 37,
          "name": "C#2",
          "ticks": 57024,
          "time": 83.2709295,
          "velocity": 0.3937007874015748
        },
        {
          "duration": 0.14018674999999803,
          "durationTicks": 96,
          "midi": 61,
          "name": "C#4",
          "ticks": 57120,
          "time": 83.41111625,
          "velocity": 0.3937007874015748
        },
        {
          "duration": 0.14018674999999803,
          "durationTicks": 96,
          "midi": 37,
          "name": "C#2",
          "ticks": 57120,
          "time": 83.41111625,
          "velocity": 0.3937007874015748
        },
        {
          "duration": 0.14018674999999803,
          "durationTicks": 96,
          "midi": 64,
          "name": "E4",
          "ticks": 57216,
          "time": 83.551303,
          "velocity": 0.3937007874015748
        },
        {
          "duration": 0.14018674999999803,
          "durationTicks": 96,
          "midi": 66,
          "name": "F#4",
          "ticks": 57408,
          "time": 83.8316765,
          "velocity": 0.3937007874015748
        },
        {
          "duration": 0.14018674999999803,
          "durationTicks": 96,
          "midi": 37,
          "name": "C#2",
          "ticks": 57408,
          "time": 83.8316765,
          "velocity": 0.3937007874015748
        },
        {
          "duration": 0.14018674999999803,
          "durationTicks": 96,
          "midi": 61,
          "name": "C#4",
          "ticks": 57504,
          "time": 83.97186325,
          "velocity": 0.3937007874015748
        },
        {
          "duration": 0.14018674999999803,
          "durationTicks": 96,
          "midi": 45,
          "name": "A2",
          "ticks": 57600,
          "time": 84.11205,
          "velocity": 0.3937007874015748
        },
        {
          "duration": 0.14018674999999803,
          "durationTicks": 96,
          "midi": 37,
          "name": "C#2",
          "ticks": 57600,
          "time": 84.11205,
          "velocity": 0.3937007874015748
        },
        {
          "duration": 0.14018674999999803,
          "durationTicks": 96,
          "midi": 33,
          "name": "A1",
          "ticks": 57600,
          "time": 84.11205,
          "velocity": 0.3937007874015748
        },
        {
          "duration": 0.14018674999999803,
          "durationTicks": 96,
          "midi": 40,
          "name": "E2",
          "ticks": 57600,
          "time": 84.11205,
          "velocity": 0.3937007874015748
        },
        {
          "duration": 0.14018674999999803,
          "durationTicks": 96,
          "midi": 61,
          "name": "C#4",
          "ticks": 57696,
          "time": 84.25223675,
          "velocity": 0.3937007874015748
        },
        {
          "duration": 0.14018675000001224,
          "durationTicks": 96,
          "midi": 33,
          "name": "A1",
          "ticks": 57792,
          "time": 84.39242349999999,
          "velocity": 0.3937007874015748
        },
        {
          "duration": 0.14018674999999803,
          "durationTicks": 96,
          "midi": 61,
          "name": "C#4",
          "ticks": 57888,
          "time": 84.53261025,
          "velocity": 0.3937007874015748
        },
        {
          "duration": 0.14018674999999803,
          "durationTicks": 96,
          "midi": 33,
          "name": "A1",
          "ticks": 57888,
          "time": 84.53261025,
          "velocity": 0.3937007874015748
        },
        {
          "duration": 0.14018674999999803,
          "durationTicks": 96,
          "midi": 64,
          "name": "E4",
          "ticks": 57984,
          "time": 84.672797,
          "velocity": 0.3937007874015748
        },
        {
          "duration": 0.14018674999999803,
          "durationTicks": 96,
          "midi": 66,
          "name": "F#4",
          "ticks": 58176,
          "time": 84.9531705,
          "velocity": 0.3937007874015748
        },
        {
          "duration": 0.14018674999999803,
          "durationTicks": 96,
          "midi": 33,
          "name": "A1",
          "ticks": 58176,
          "time": 84.9531705,
          "velocity": 0.3937007874015748
        },
        {
          "duration": 0.14018674999999803,
          "durationTicks": 96,
          "midi": 68,
          "name": "G#4",
          "ticks": 58368,
          "time": 85.233544,
          "velocity": 0.3937007874015748
        },
        {
          "duration": 0.14018674999999803,
          "durationTicks": 96,
          "midi": 44,
          "name": "G#2",
          "ticks": 58368,
          "time": 85.233544,
          "velocity": 0.3937007874015748
        },
        {
          "duration": 0.14018674999999803,
          "durationTicks": 96,
          "midi": 40,
          "name": "E2",
          "ticks": 58368,
          "time": 85.233544,
          "velocity": 0.3937007874015748
        },
        {
          "duration": 0.14018674999999803,
          "durationTicks": 96,
          "midi": 47,
          "name": "B2",
          "ticks": 58368,
          "time": 85.233544,
          "velocity": 0.3937007874015748
        },
        {
          "duration": 0.14018674999999803,
          "durationTicks": 96,
          "midi": 52,
          "name": "E3",
          "ticks": 58368,
          "time": 85.233544,
          "velocity": 0.3937007874015748
        },
        {
          "duration": 0.14018674999999803,
          "durationTicks": 96,
          "midi": 68,
          "name": "G#4",
          "ticks": 58560,
          "time": 85.5139175,
          "velocity": 0.3937007874015748
        },
        {
          "duration": 0.14018674999999803,
          "durationTicks": 96,
          "midi": 40,
          "name": "E2",
          "ticks": 58560,
          "time": 85.5139175,
          "velocity": 0.3937007874015748
        },
        {
          "duration": 0.14018674999999803,
          "durationTicks": 96,
          "midi": 40,
          "name": "E2",
          "ticks": 58656,
          "time": 85.65410425,
          "velocity": 0.3937007874015748
        },
        {
          "duration": 0.14018674999999803,
          "durationTicks": 96,
          "midi": 68,
          "name": "G#4",
          "ticks": 58752,
          "time": 85.794291,
          "velocity": 0.3937007874015748
        },
        {
          "duration": 0.14018674999999803,
          "durationTicks": 96,
          "midi": 66,
          "name": "F#4",
          "ticks": 58848,
          "time": 85.93447775,
          "velocity": 0.3937007874015748
        },
        {
          "duration": 0.14018674999999803,
          "durationTicks": 96,
          "midi": 64,
          "name": "E4",
          "ticks": 58944,
          "time": 86.0746645,
          "velocity": 0.3937007874015748
        },
        {
          "duration": 0.14018674999999803,
          "durationTicks": 96,
          "midi": 40,
          "name": "E2",
          "ticks": 58944,
          "time": 86.0746645,
          "velocity": 0.3937007874015748
        },
        {
          "duration": 0.14018674999999803,
          "durationTicks": 96,
          "midi": 68,
          "name": "G#4",
          "ticks": 59040,
          "time": 86.21485125,
          "velocity": 0.3937007874015748
        },
        {
          "duration": 0.14018675000001224,
          "durationTicks": 96,
          "midi": 66,
          "name": "F#4",
          "ticks": 59136,
          "time": 86.355038,
          "velocity": 0.3937007874015748
        },
        {
          "duration": 0.14018675000001224,
          "durationTicks": 96,
          "midi": 47,
          "name": "B2",
          "ticks": 59136,
          "time": 86.355038,
          "velocity": 0.3937007874015748
        },
        {
          "duration": 0.14018675000001224,
          "durationTicks": 96,
          "midi": 39,
          "name": "D#2",
          "ticks": 59136,
          "time": 86.355038,
          "velocity": 0.3937007874015748
        },
        {
          "duration": 0.14018675000001224,
          "durationTicks": 96,
          "midi": 35,
          "name": "B1",
          "ticks": 59136,
          "time": 86.355038,
          "velocity": 0.3937007874015748
        },
        {
          "duration": 0.14018675000001224,
          "durationTicks": 96,
          "midi": 42,
          "name": "F#2",
          "ticks": 59136,
          "time": 86.355038,
          "velocity": 0.3937007874015748
        },
        {
          "duration": 0.14018674999999803,
          "durationTicks": 96,
          "midi": 64,
          "name": "E4",
          "ticks": 59328,
          "time": 86.6354115,
          "velocity": 0.3937007874015748
        },
        {
          "duration": 0.14018674999999803,
          "durationTicks": 96,
          "midi": 35,
          "name": "B1",
          "ticks": 59328,
          "time": 86.6354115,
          "velocity": 0.3937007874015748
        },
        {
          "duration": 0.14018674999999803,
          "durationTicks": 96,
          "midi": 66,
          "name": "F#4",
          "ticks": 59424,
          "time": 86.77559825,
          "velocity": 0.3937007874015748
        },
        {
          "duration": 0.14018674999999803,
          "durationTicks": 96,
          "midi": 35,
          "name": "B1",
          "ticks": 59424,
          "time": 86.77559825,
          "velocity": 0.3937007874015748
        },
        {
          "duration": 0.14018674999999803,
          "durationTicks": 96,
          "midi": 68,
          "name": "G#4",
          "ticks": 59616,
          "time": 87.05597175,
          "velocity": 0.3937007874015748
        },
        {
          "duration": 0.14018674999999803,
          "durationTicks": 96,
          "midi": 35,
          "name": "B1",
          "ticks": 59712,
          "time": 87.1961585,
          "velocity": 0.3937007874015748
        },
        {
          "duration": 0.14018674999999803,
          "durationTicks": 96,
          "midi": 61,
          "name": "C#4",
          "ticks": 59904,
          "time": 87.476532,
          "velocity": 0.3937007874015748
        },
        {
          "duration": 0.14018674999999803,
          "durationTicks": 96,
          "midi": 40,
          "name": "E2",
          "ticks": 59904,
          "time": 87.476532,
          "velocity": 0.3937007874015748
        },
        {
          "duration": 0.14018674999999803,
          "durationTicks": 96,
          "midi": 37,
          "name": "C#2",
          "ticks": 59904,
          "time": 87.476532,
          "velocity": 0.3937007874015748
        },
        {
          "duration": 0.14018674999999803,
          "durationTicks": 96,
          "midi": 44,
          "name": "G#2",
          "ticks": 59904,
          "time": 87.476532,
          "velocity": 0.3937007874015748
        },
        {
          "duration": 0.14018674999999803,
          "durationTicks": 96,
          "midi": 49,
          "name": "C#3",
          "ticks": 59904,
          "time": 87.476532,
          "velocity": 0.3937007874015748
        },
        {
          "duration": 0.14018674999999803,
          "durationTicks": 96,
          "midi": 37,
          "name": "C#2",
          "ticks": 60096,
          "time": 87.7569055,
          "velocity": 0.3937007874015748
        },
        {
          "duration": 0.14018674999999803,
          "durationTicks": 96,
          "midi": 61,
          "name": "C#4",
          "ticks": 60192,
          "time": 87.89709225,
          "velocity": 0.3937007874015748
        },
        {
          "duration": 0.14018674999999803,
          "durationTicks": 96,
          "midi": 37,
          "name": "C#2",
          "ticks": 60192,
          "time": 87.89709225,
          "velocity": 0.3937007874015748
        },
        {
          "duration": 0.14018674999999803,
          "durationTicks": 96,
          "midi": 64,
          "name": "E4",
          "ticks": 60288,
          "time": 88.037279,
          "velocity": 0.3937007874015748
        },
        {
          "duration": 0.14018675000001224,
          "durationTicks": 96,
          "midi": 66,
          "name": "F#4",
          "ticks": 60480,
          "time": 88.3176525,
          "velocity": 0.3937007874015748
        },
        {
          "duration": 0.14018675000001224,
          "durationTicks": 96,
          "midi": 37,
          "name": "C#2",
          "ticks": 60480,
          "time": 88.3176525,
          "velocity": 0.3937007874015748
        },
        {
          "duration": 0.14018674999999803,
          "durationTicks": 96,
          "midi": 61,
          "name": "C#4",
          "ticks": 60576,
          "time": 88.45783925,
          "velocity": 0.3937007874015748
        },
        {
          "duration": 0.14018674999999803,
          "durationTicks": 96,
          "midi": 45,
          "name": "A2",
          "ticks": 60672,
          "time": 88.598026,
          "velocity": 0.3937007874015748
        },
        {
          "duration": 0.14018674999999803,
          "durationTicks": 96,
          "midi": 37,
          "name": "C#2",
          "ticks": 60672,
          "time": 88.598026,
          "velocity": 0.3937007874015748
        },
        {
          "duration": 0.14018674999999803,
          "durationTicks": 96,
          "midi": 33,
          "name": "A1",
          "ticks": 60672,
          "time": 88.598026,
          "velocity": 0.3937007874015748
        },
        {
          "duration": 0.14018674999999803,
          "durationTicks": 96,
          "midi": 40,
          "name": "E2",
          "ticks": 60672,
          "time": 88.598026,
          "velocity": 0.3937007874015748
        },
        {
          "duration": 0.14018674999999803,
          "durationTicks": 96,
          "midi": 61,
          "name": "C#4",
          "ticks": 60768,
          "time": 88.73821275,
          "velocity": 0.3937007874015748
        },
        {
          "duration": 0.14018674999999803,
          "durationTicks": 96,
          "midi": 33,
          "name": "A1",
          "ticks": 60864,
          "time": 88.8783995,
          "velocity": 0.3937007874015748
        },
        {
          "duration": 0.14018674999999803,
          "durationTicks": 96,
          "midi": 61,
          "name": "C#4",
          "ticks": 60960,
          "time": 89.01858625,
          "velocity": 0.3937007874015748
        },
        {
          "duration": 0.14018674999999803,
          "durationTicks": 96,
          "midi": 33,
          "name": "A1",
          "ticks": 60960,
          "time": 89.01858625,
          "velocity": 0.3937007874015748
        },
        {
          "duration": 0.14018674999999803,
          "durationTicks": 96,
          "midi": 64,
          "name": "E4",
          "ticks": 61056,
          "time": 89.158773,
          "velocity": 0.3937007874015748
        },
        {
          "duration": 0.14018675000001224,
          "durationTicks": 96,
          "midi": 73,
          "name": "C#5",
          "ticks": 61248,
          "time": 89.43914649999999,
          "velocity": 0.3937007874015748
        },
        {
          "duration": 0.14018675000001224,
          "durationTicks": 96,
          "midi": 33,
          "name": "A1",
          "ticks": 61248,
          "time": 89.43914649999999,
          "velocity": 0.3937007874015748
        },
        {
          "duration": 0.14018674999999803,
          "durationTicks": 96,
          "midi": 71,
          "name": "B4",
          "ticks": 61440,
          "time": 89.71952,
          "velocity": 0.3937007874015748
        },
        {
          "duration": 0.14018674999999803,
          "durationTicks": 96,
          "midi": 44,
          "name": "G#2",
          "ticks": 61440,
          "time": 89.71952,
          "velocity": 0.3937007874015748
        },
        {
          "duration": 0.14018674999999803,
          "durationTicks": 96,
          "midi": 40,
          "name": "E2",
          "ticks": 61440,
          "time": 89.71952,
          "velocity": 0.3937007874015748
        },
        {
          "duration": 0.14018674999999803,
          "durationTicks": 96,
          "midi": 47,
          "name": "B2",
          "ticks": 61440,
          "time": 89.71952,
          "velocity": 0.3937007874015748
        },
        {
          "duration": 0.14018674999999803,
          "durationTicks": 96,
          "midi": 52,
          "name": "E3",
          "ticks": 61440,
          "time": 89.71952,
          "velocity": 0.3937007874015748
        },
        {
          "duration": 0.14018674999999803,
          "durationTicks": 96,
          "midi": 68,
          "name": "G#4",
          "ticks": 61632,
          "time": 89.9998935,
          "velocity": 0.3937007874015748
        },
        {
          "duration": 0.14018674999999803,
          "durationTicks": 96,
          "midi": 40,
          "name": "E2",
          "ticks": 61632,
          "time": 89.9998935,
          "velocity": 0.3937007874015748
        },
        {
          "duration": 0.14018674999999803,
          "durationTicks": 96,
          "midi": 40,
          "name": "E2",
          "ticks": 61728,
          "time": 90.14008025,
          "velocity": 0.3937007874015748
        },
        {
          "duration": 0.14018674999999803,
          "durationTicks": 96,
          "midi": 66,
          "name": "F#4",
          "ticks": 61824,
          "time": 90.280267,
          "velocity": 0.3937007874015748
        },
        {
          "duration": 0.14018675000001224,
          "durationTicks": 96,
          "midi": 64,
          "name": "E4",
          "ticks": 61920,
          "time": 90.42045375,
          "velocity": 0.3937007874015748
        },
        {
          "duration": 0.14018674999999803,
          "durationTicks": 96,
          "midi": 66,
          "name": "F#4",
          "ticks": 62016,
          "time": 90.5606405,
          "velocity": 0.3937007874015748
        },
        {
          "duration": 0.14018674999999803,
          "durationTicks": 96,
          "midi": 40,
          "name": "E2",
          "ticks": 62016,
          "time": 90.5606405,
          "velocity": 0.3937007874015748
        },
        {
          "duration": 0.14018674999999803,
          "durationTicks": 96,
          "midi": 68,
          "name": "G#4",
          "ticks": 62112,
          "time": 90.70082725,
          "velocity": 0.3937007874015748
        },
        {
          "duration": 0.14018674999999803,
          "durationTicks": 96,
          "midi": 71,
          "name": "B4",
          "ticks": 62208,
          "time": 90.841014,
          "velocity": 0.3937007874015748
        },
        {
          "duration": 0.14018674999999803,
          "durationTicks": 96,
          "midi": 47,
          "name": "B2",
          "ticks": 62208,
          "time": 90.841014,
          "velocity": 0.3937007874015748
        },
        {
          "duration": 0.14018674999999803,
          "durationTicks": 96,
          "midi": 39,
          "name": "D#2",
          "ticks": 62208,
          "time": 90.841014,
          "velocity": 0.3937007874015748
        },
        {
          "duration": 0.14018674999999803,
          "durationTicks": 96,
          "midi": 35,
          "name": "B1",
          "ticks": 62208,
          "time": 90.841014,
          "velocity": 0.3937007874015748
        },
        {
          "duration": 0.14018674999999803,
          "durationTicks": 96,
          "midi": 42,
          "name": "F#2",
          "ticks": 62208,
          "time": 90.841014,
          "velocity": 0.3937007874015748
        },
        {
          "duration": 0.14018674999999803,
          "durationTicks": 96,
          "midi": 71,
          "name": "B4",
          "ticks": 62304,
          "time": 90.98120075,
          "velocity": 0.3937007874015748
        },
        {
          "duration": 0.14018674999999803,
          "durationTicks": 96,
          "midi": 68,
          "name": "G#4",
          "ticks": 62400,
          "time": 91.1213875,
          "velocity": 0.3937007874015748
        },
        {
          "duration": 0.14018674999999803,
          "durationTicks": 96,
          "midi": 35,
          "name": "B1",
          "ticks": 62400,
          "time": 91.1213875,
          "velocity": 0.3937007874015748
        },
        {
          "duration": 0.14018674999999803,
          "durationTicks": 96,
          "midi": 68,
          "name": "G#4",
          "ticks": 62496,
          "time": 91.26157425,
          "velocity": 0.3937007874015748
        },
        {
          "duration": 0.14018674999999803,
          "durationTicks": 96,
          "midi": 35,
          "name": "B1",
          "ticks": 62496,
          "time": 91.26157425,
          "velocity": 0.3937007874015748
        },
        {
          "duration": 0.14018675000001224,
          "durationTicks": 96,
          "midi": 66,
          "name": "F#4",
          "ticks": 62592,
          "time": 91.401761,
          "velocity": 0.3937007874015748
        },
        {
          "duration": 0.14018674999999803,
          "durationTicks": 96,
          "midi": 64,
          "name": "E4",
          "ticks": 62688,
          "time": 91.54194775,
          "velocity": 0.3937007874015748
        },
        {
          "duration": 0.14018674999999803,
          "durationTicks": 96,
          "midi": 61,
          "name": "C#4",
          "ticks": 62784,
          "time": 91.6821345,
          "velocity": 0.3937007874015748
        },
        {
          "duration": 0.14018674999999803,
          "durationTicks": 96,
          "midi": 35,
          "name": "B1",
          "ticks": 62784,
          "time": 91.6821345,
          "velocity": 0.3937007874015748
        },
        {
          "duration": 0.14018674999999803,
          "durationTicks": 96,
          "midi": 59,
          "name": "B3",
          "ticks": 62880,
          "time": 91.82232125,
          "velocity": 0.3937007874015748
        },
        {
          "duration": 0.14018674999999803,
          "durationTicks": 96,
          "midi": 61,
          "name": "C#4",
          "ticks": 62976,
          "time": 91.962508,
          "velocity": 0.3937007874015748
        },
        {
          "duration": 0.14018674999999803,
          "durationTicks": 96,
          "midi": 49,
          "name": "C#3",
          "ticks": 62976,
          "time": 91.962508,
          "velocity": 0.3937007874015748
        },
        {
          "duration": 0.14018674999999803,
          "durationTicks": 96,
          "midi": 40,
          "name": "E2",
          "ticks": 62976,
          "time": 91.962508,
          "velocity": 0.3937007874015748
        },
        {
          "duration": 0.14018674999999803,
          "durationTicks": 96,
          "midi": 37,
          "name": "C#2",
          "ticks": 62976,
          "time": 91.962508,
          "velocity": 0.3937007874015748
        },
        {
          "duration": 0.14018674999999803,
          "durationTicks": 96,
          "midi": 44,
          "name": "G#2",
          "ticks": 62976,
          "time": 91.962508,
          "velocity": 0.3937007874015748
        },
        {
          "duration": 0.14018674999999803,
          "durationTicks": 96,
          "midi": 37,
          "name": "C#2",
          "ticks": 63168,
          "time": 92.2428815,
          "velocity": 0.3937007874015748
        },
        {
          "duration": 0.14018675000001224,
          "durationTicks": 96,
          "midi": 61,
          "name": "C#4",
          "ticks": 63264,
          "time": 92.38306825,
          "velocity": 0.3937007874015748
        },
        {
          "duration": 0.14018675000001224,
          "durationTicks": 96,
          "midi": 37,
          "name": "C#2",
          "ticks": 63264,
          "time": 92.38306825,
          "velocity": 0.3937007874015748
        },
        {
          "duration": 0.14018674999999803,
          "durationTicks": 96,
          "midi": 64,
          "name": "E4",
          "ticks": 63360,
          "time": 92.523255,
          "velocity": 0.3937007874015748
        },
        {
          "duration": 0.14018674999999803,
          "durationTicks": 96,
          "midi": 66,
          "name": "F#4",
          "ticks": 63552,
          "time": 92.8036285,
          "velocity": 0.3937007874015748
        },
        {
          "duration": 0.14018674999999803,
          "durationTicks": 96,
          "midi": 37,
          "name": "C#2",
          "ticks": 63552,
          "time": 92.8036285,
          "velocity": 0.3937007874015748
        },
        {
          "duration": 0.14018674999999803,
          "durationTicks": 96,
          "midi": 61,
          "name": "C#4",
          "ticks": 63648,
          "time": 92.94381525,
          "velocity": 0.3937007874015748
        },
        {
          "duration": 0.14018674999999803,
          "durationTicks": 96,
          "midi": 45,
          "name": "A2",
          "ticks": 63744,
          "time": 93.084002,
          "velocity": 0.3937007874015748
        },
        {
          "duration": 0.14018674999999803,
          "durationTicks": 96,
          "midi": 37,
          "name": "C#2",
          "ticks": 63744,
          "time": 93.084002,
          "velocity": 0.3937007874015748
        },
        {
          "duration": 0.14018674999999803,
          "durationTicks": 96,
          "midi": 33,
          "name": "A1",
          "ticks": 63744,
          "time": 93.084002,
          "velocity": 0.3937007874015748
        },
        {
          "duration": 0.14018674999999803,
          "durationTicks": 96,
          "midi": 40,
          "name": "E2",
          "ticks": 63744,
          "time": 93.084002,
          "velocity": 0.3937007874015748
        },
        {
          "duration": 0.14018674999999803,
          "durationTicks": 96,
          "midi": 61,
          "name": "C#4",
          "ticks": 63840,
          "time": 93.22418875,
          "velocity": 0.3937007874015748
        },
        {
          "duration": 0.14018674999999803,
          "durationTicks": 96,
          "midi": 33,
          "name": "A1",
          "ticks": 63936,
          "time": 93.3643755,
          "velocity": 0.3937007874015748
        },
        {
          "duration": 0.14018675000001224,
          "durationTicks": 96,
          "midi": 61,
          "name": "C#4",
          "ticks": 64032,
          "time": 93.50456224999999,
          "velocity": 0.3937007874015748
        },
        {
          "duration": 0.14018675000001224,
          "durationTicks": 96,
          "midi": 33,
          "name": "A1",
          "ticks": 64032,
          "time": 93.50456224999999,
          "velocity": 0.3937007874015748
        },
        {
          "duration": 0.14018674999999803,
          "durationTicks": 96,
          "midi": 64,
          "name": "E4",
          "ticks": 64128,
          "time": 93.644749,
          "velocity": 0.3937007874015748
        },
        {
          "duration": 0.14018674999999803,
          "durationTicks": 96,
          "midi": 66,
          "name": "F#4",
          "ticks": 64320,
          "time": 93.9251225,
          "velocity": 0.3937007874015748
        },
        {
          "duration": 0.14018674999999803,
          "durationTicks": 96,
          "midi": 33,
          "name": "A1",
          "ticks": 64320,
          "time": 93.9251225,
          "velocity": 0.3937007874015748
        },
        {
          "duration": 0.14018674999999803,
          "durationTicks": 96,
          "midi": 68,
          "name": "G#4",
          "ticks": 64512,
          "time": 94.205496,
          "velocity": 0.3937007874015748
        },
        {
          "duration": 0.14018674999999803,
          "durationTicks": 96,
          "midi": 44,
          "name": "G#2",
          "ticks": 64512,
          "time": 94.205496,
          "velocity": 0.3937007874015748
        },
        {
          "duration": 0.14018674999999803,
          "durationTicks": 96,
          "midi": 40,
          "name": "E2",
          "ticks": 64512,
          "time": 94.205496,
          "velocity": 0.3937007874015748
        },
        {
          "duration": 0.14018674999999803,
          "durationTicks": 96,
          "midi": 47,
          "name": "B2",
          "ticks": 64512,
          "time": 94.205496,
          "velocity": 0.3937007874015748
        },
        {
          "duration": 0.14018674999999803,
          "durationTicks": 96,
          "midi": 52,
          "name": "E3",
          "ticks": 64512,
          "time": 94.205496,
          "velocity": 0.3937007874015748
        },
        {
          "duration": 0.14018675000001224,
          "durationTicks": 96,
          "midi": 68,
          "name": "G#4",
          "ticks": 64704,
          "time": 94.48586949999999,
          "velocity": 0.3937007874015748
        },
        {
          "duration": 0.14018675000001224,
          "durationTicks": 96,
          "midi": 40,
          "name": "E2",
          "ticks": 64704,
          "time": 94.48586949999999,
          "velocity": 0.3937007874015748
        },
        {
          "duration": 0.14018674999999803,
          "durationTicks": 96,
          "midi": 40,
          "name": "E2",
          "ticks": 64800,
          "time": 94.62605625,
          "velocity": 0.3937007874015748
        },
        {
          "duration": 0.14018674999999803,
          "durationTicks": 96,
          "midi": 68,
          "name": "G#4",
          "ticks": 64896,
          "time": 94.766243,
          "velocity": 0.3937007874015748
        },
        {
          "duration": 0.14018674999999803,
          "durationTicks": 96,
          "midi": 66,
          "name": "F#4",
          "ticks": 64992,
          "time": 94.90642975,
          "velocity": 0.3937007874015748
        },
        {
          "duration": 0.14018674999999803,
          "durationTicks": 96,
          "midi": 64,
          "name": "E4",
          "ticks": 65088,
          "time": 95.0466165,
          "velocity": 0.3937007874015748
        },
        {
          "duration": 0.14018674999999803,
          "durationTicks": 96,
          "midi": 40,
          "name": "E2",
          "ticks": 65088,
          "time": 95.0466165,
          "velocity": 0.3937007874015748
        },
        {
          "duration": 0.14018674999999803,
          "durationTicks": 96,
          "midi": 68,
          "name": "G#4",
          "ticks": 65184,
          "time": 95.18680325,
          "velocity": 0.3937007874015748
        },
        {
          "duration": 0.14018674999999803,
          "durationTicks": 96,
          "midi": 66,
          "name": "F#4",
          "ticks": 65280,
          "time": 95.32699,
          "velocity": 0.3937007874015748
        },
        {
          "duration": 0.14018674999999803,
          "durationTicks": 96,
          "midi": 47,
          "name": "B2",
          "ticks": 65280,
          "time": 95.32699,
          "velocity": 0.3937007874015748
        },
        {
          "duration": 0.14018674999999803,
          "durationTicks": 96,
          "midi": 39,
          "name": "D#2",
          "ticks": 65280,
          "time": 95.32699,
          "velocity": 0.3937007874015748
        },
        {
          "duration": 0.14018674999999803,
          "durationTicks": 96,
          "midi": 35,
          "name": "B1",
          "ticks": 65280,
          "time": 95.32699,
          "velocity": 0.3937007874015748
        },
        {
          "duration": 0.14018674999999803,
          "durationTicks": 96,
          "midi": 42,
          "name": "F#2",
          "ticks": 65280,
          "time": 95.32699,
          "velocity": 0.3937007874015748
        },
        {
          "duration": 0.14018674999999803,
          "durationTicks": 96,
          "midi": 64,
          "name": "E4",
          "ticks": 65472,
          "time": 95.6073635,
          "velocity": 0.3937007874015748
        },
        {
          "duration": 0.14018674999999803,
          "durationTicks": 96,
          "midi": 35,
          "name": "B1",
          "ticks": 65472,
          "time": 95.6073635,
          "velocity": 0.3937007874015748
        },
        {
          "duration": 0.14018674999999803,
          "durationTicks": 96,
          "midi": 66,
          "name": "F#4",
          "ticks": 65568,
          "time": 95.74755025,
          "velocity": 0.3937007874015748
        },
        {
          "duration": 0.14018674999999803,
          "durationTicks": 96,
          "midi": 35,
          "name": "B1",
          "ticks": 65568,
          "time": 95.74755025,
          "velocity": 0.3937007874015748
        },
        {
          "duration": 0.14018674999999803,
          "durationTicks": 96,
          "midi": 68,
          "name": "G#4",
          "ticks": 65760,
          "time": 96.02792375,
          "velocity": 0.3937007874015748
        },
        {
          "duration": 0.14018674999999803,
          "durationTicks": 96,
          "midi": 35,
          "name": "B1",
          "ticks": 65856,
          "time": 96.1681105,
          "velocity": 0.3937007874015748
        },
        {
          "duration": 0.14018675000001224,
          "durationTicks": 96,
          "midi": 61,
          "name": "C#4",
          "ticks": 66048,
          "time": 96.448484,
          "velocity": 0.3937007874015748
        },
        {
          "duration": 0.14018675000001224,
          "durationTicks": 96,
          "midi": 40,
          "name": "E2",
          "ticks": 66048,
          "time": 96.448484,
          "velocity": 0.3937007874015748
        },
        {
          "duration": 0.14018675000001224,
          "durationTicks": 96,
          "midi": 37,
          "name": "C#2",
          "ticks": 66048,
          "time": 96.448484,
          "velocity": 0.3937007874015748
        },
        {
          "duration": 0.14018675000001224,
          "durationTicks": 96,
          "midi": 44,
          "name": "G#2",
          "ticks": 66048,
          "time": 96.448484,
          "velocity": 0.3937007874015748
        },
        {
          "duration": 0.14018675000001224,
          "durationTicks": 96,
          "midi": 49,
          "name": "C#3",
          "ticks": 66048,
          "time": 96.448484,
          "velocity": 0.3937007874015748
        },
        {
          "duration": 0.14018674999999803,
          "durationTicks": 96,
          "midi": 37,
          "name": "C#2",
          "ticks": 66240,
          "time": 96.7288575,
          "velocity": 0.3937007874015748
        },
        {
          "duration": 0.14018674999999803,
          "durationTicks": 96,
          "midi": 61,
          "name": "C#4",
          "ticks": 66336,
          "time": 96.86904425,
          "velocity": 0.3937007874015748
        },
        {
          "duration": 0.14018674999999803,
          "durationTicks": 96,
          "midi": 37,
          "name": "C#2",
          "ticks": 66336,
          "time": 96.86904425,
          "velocity": 0.3937007874015748
        },
        {
          "duration": 0.14018674999999803,
          "durationTicks": 96,
          "midi": 64,
          "name": "E4",
          "ticks": 66432,
          "time": 97.009231,
          "velocity": 0.3937007874015748
        },
        {
          "duration": 0.14018674999999803,
          "durationTicks": 96,
          "midi": 66,
          "name": "F#4",
          "ticks": 66624,
          "time": 97.2896045,
          "velocity": 0.3937007874015748
        },
        {
          "duration": 0.14018674999999803,
          "durationTicks": 96,
          "midi": 37,
          "name": "C#2",
          "ticks": 66624,
          "time": 97.2896045,
          "velocity": 0.3937007874015748
        },
        {
          "duration": 0.14018675000001224,
          "durationTicks": 96,
          "midi": 61,
          "name": "C#4",
          "ticks": 66720,
          "time": 97.42979125,
          "velocity": 0.3937007874015748
        },
        {
          "duration": 0.14018674999999803,
          "durationTicks": 96,
          "midi": 45,
          "name": "A2",
          "ticks": 66816,
          "time": 97.569978,
          "velocity": 0.3937007874015748
        },
        {
          "duration": 0.14018674999999803,
          "durationTicks": 96,
          "midi": 37,
          "name": "C#2",
          "ticks": 66816,
          "time": 97.569978,
          "velocity": 0.3937007874015748
        },
        {
          "duration": 0.14018674999999803,
          "durationTicks": 96,
          "midi": 33,
          "name": "A1",
          "ticks": 66816,
          "time": 97.569978,
          "velocity": 0.3937007874015748
        },
        {
          "duration": 0.14018674999999803,
          "durationTicks": 96,
          "midi": 40,
          "name": "E2",
          "ticks": 66816,
          "time": 97.569978,
          "velocity": 0.3937007874015748
        },
        {
          "duration": 0.14018674999999803,
          "durationTicks": 96,
          "midi": 61,
          "name": "C#4",
          "ticks": 66912,
          "time": 97.71016475,
          "velocity": 0.3937007874015748
        },
        {
          "duration": 0.14018674999999803,
          "durationTicks": 96,
          "midi": 33,
          "name": "A1",
          "ticks": 67008,
          "time": 97.8503515,
          "velocity": 0.3937007874015748
        },
        {
          "duration": 0.14018674999999803,
          "durationTicks": 96,
          "midi": 61,
          "name": "C#4",
          "ticks": 67104,
          "time": 97.99053825,
          "velocity": 0.3937007874015748
        },
        {
          "duration": 0.14018674999999803,
          "durationTicks": 96,
          "midi": 33,
          "name": "A1",
          "ticks": 67104,
          "time": 97.99053825,
          "velocity": 0.3937007874015748
        },
        {
          "duration": 0.14018674999999803,
          "durationTicks": 96,
          "midi": 64,
          "name": "E4",
          "ticks": 67200,
          "time": 98.130725,
          "velocity": 0.3937007874015748
        },
        {
          "duration": 0.14018674999999803,
          "durationTicks": 96,
          "midi": 73,
          "name": "C#5",
          "ticks": 67392,
          "time": 98.4110985,
          "velocity": 0.3937007874015748
        },
        {
          "duration": 0.14018674999999803,
          "durationTicks": 96,
          "midi": 33,
          "name": "A1",
          "ticks": 67392,
          "time": 98.4110985,
          "velocity": 0.3937007874015748
        },
        {
          "duration": 0.14018674999999803,
          "durationTicks": 96,
          "midi": 71,
          "name": "B4",
          "ticks": 67584,
          "time": 98.691472,
          "velocity": 0.3937007874015748
        },
        {
          "duration": 0.14018674999999803,
          "durationTicks": 96,
          "midi": 44,
          "name": "G#2",
          "ticks": 67584,
          "time": 98.691472,
          "velocity": 0.3937007874015748
        },
        {
          "duration": 0.14018674999999803,
          "durationTicks": 96,
          "midi": 40,
          "name": "E2",
          "ticks": 67584,
          "time": 98.691472,
          "velocity": 0.3937007874015748
        },
        {
          "duration": 0.14018674999999803,
          "durationTicks": 96,
          "midi": 47,
          "name": "B2",
          "ticks": 67584,
          "time": 98.691472,
          "velocity": 0.3937007874015748
        },
        {
          "duration": 0.14018674999999803,
          "durationTicks": 96,
          "midi": 52,
          "name": "E3",
          "ticks": 67584,
          "time": 98.691472,
          "velocity": 0.3937007874015748
        },
        {
          "duration": 0.14018674999999803,
          "durationTicks": 96,
          "midi": 68,
          "name": "G#4",
          "ticks": 67776,
          "time": 98.9718455,
          "velocity": 0.3937007874015748
        },
        {
          "duration": 0.14018674999999803,
          "durationTicks": 96,
          "midi": 40,
          "name": "E2",
          "ticks": 67776,
          "time": 98.9718455,
          "velocity": 0.3937007874015748
        },
        {
          "duration": 0.14018674999999803,
          "durationTicks": 96,
          "midi": 40,
          "name": "E2",
          "ticks": 67872,
          "time": 99.11203225,
          "velocity": 0.3937007874015748
        },
        {
          "duration": 0.14018674999999803,
          "durationTicks": 96,
          "midi": 66,
          "name": "F#4",
          "ticks": 67968,
          "time": 99.252219,
          "velocity": 0.3937007874015748
        },
        {
          "duration": 0.14018674999999803,
          "durationTicks": 96,
          "midi": 64,
          "name": "E4",
          "ticks": 68064,
          "time": 99.39240575,
          "velocity": 0.3937007874015748
        },
        {
          "duration": 0.14018675000001224,
          "durationTicks": 96,
          "midi": 66,
          "name": "F#4",
          "ticks": 68160,
          "time": 99.53259249999999,
          "velocity": 0.3937007874015748
        },
        {
          "duration": 0.14018675000001224,
          "durationTicks": 96,
          "midi": 40,
          "name": "E2",
          "ticks": 68160,
          "time": 99.53259249999999,
          "velocity": 0.3937007874015748
        },
        {
          "duration": 0.14018674999999803,
          "durationTicks": 96,
          "midi": 68,
          "name": "G#4",
          "ticks": 68256,
          "time": 99.67277925,
          "velocity": 0.3937007874015748
        },
        {
          "duration": 0.14018674999999803,
          "durationTicks": 96,
          "midi": 71,
          "name": "B4",
          "ticks": 68352,
          "time": 99.812966,
          "velocity": 0.3937007874015748
        },
        {
          "duration": 0.14018674999999803,
          "durationTicks": 96,
          "midi": 47,
          "name": "B2",
          "ticks": 68352,
          "time": 99.812966,
          "velocity": 0.3937007874015748
        },
        {
          "duration": 0.14018674999999803,
          "durationTicks": 96,
          "midi": 39,
          "name": "D#2",
          "ticks": 68352,
          "time": 99.812966,
          "velocity": 0.3937007874015748
        },
        {
          "duration": 0.14018674999999803,
          "durationTicks": 96,
          "midi": 35,
          "name": "B1",
          "ticks": 68352,
          "time": 99.812966,
          "velocity": 0.3937007874015748
        },
        {
          "duration": 0.14018674999999803,
          "durationTicks": 96,
          "midi": 42,
          "name": "F#2",
          "ticks": 68352,
          "time": 99.812966,
          "velocity": 0.3937007874015748
        },
        {
          "duration": 0.14018674999999803,
          "durationTicks": 96,
          "midi": 71,
          "name": "B4",
          "ticks": 68448,
          "time": 99.95315275,
          "velocity": 0.3937007874015748
        },
        {
          "duration": 0.14018674999999803,
          "durationTicks": 96,
          "midi": 68,
          "name": "G#4",
          "ticks": 68544,
          "time": 100.0933395,
          "velocity": 0.3937007874015748
        },
        {
          "duration": 0.14018674999999803,
          "durationTicks": 96,
          "midi": 35,
          "name": "B1",
          "ticks": 68544,
          "time": 100.0933395,
          "velocity": 0.3937007874015748
        },
        {
          "duration": 0.14018674999999803,
          "durationTicks": 96,
          "midi": 66,
          "name": "F#4",
          "ticks": 68640,
          "time": 100.23352625,
          "velocity": 0.3937007874015748
        },
        {
          "duration": 0.14018674999999803,
          "durationTicks": 96,
          "midi": 35,
          "name": "B1",
          "ticks": 68640,
          "time": 100.23352625,
          "velocity": 0.3937007874015748
        },
        {
          "duration": 0.14018675000001224,
          "durationTicks": 96,
          "midi": 64,
          "name": "E4",
          "ticks": 68832,
          "time": 100.51389975,
          "velocity": 0.3937007874015748
        },
        {
          "duration": 0.14018674999999803,
          "durationTicks": 96,
          "midi": 35,
          "name": "B1",
          "ticks": 68928,
          "time": 100.6540865,
          "velocity": 0.3937007874015748
        },
        {
          "duration": 0.14018674999999803,
          "durationTicks": 96,
          "midi": 61,
          "name": "C#4",
          "ticks": 69120,
          "time": 100.93446,
          "velocity": 0.3937007874015748
        },
        {
          "duration": 0.14018674999999803,
          "durationTicks": 96,
          "midi": 40,
          "name": "E2",
          "ticks": 69120,
          "time": 100.93446,
          "velocity": 0.3937007874015748
        },
        {
          "duration": 0.14018674999999803,
          "durationTicks": 96,
          "midi": 37,
          "name": "C#2",
          "ticks": 69120,
          "time": 100.93446,
          "velocity": 0.3937007874015748
        },
        {
          "duration": 0.14018674999999803,
          "durationTicks": 96,
          "midi": 44,
          "name": "G#2",
          "ticks": 69120,
          "time": 100.93446,
          "velocity": 0.3937007874015748
        },
        {
          "duration": 0.14018674999999803,
          "durationTicks": 96,
          "midi": 49,
          "name": "C#3",
          "ticks": 69120,
          "time": 100.93446,
          "velocity": 0.3937007874015748
        },
        {
          "duration": 0.14018674999999803,
          "durationTicks": 96,
          "midi": 37,
          "name": "C#2",
          "ticks": 69312,
          "time": 101.2148335,
          "velocity": 0.3937007874015748
        },
        {
          "duration": 0.14018674999999803,
          "durationTicks": 96,
          "midi": 61,
          "name": "C#4",
          "ticks": 69408,
          "time": 101.35502025,
          "velocity": 0.3937007874015748
        },
        {
          "duration": 0.14018674999999803,
          "durationTicks": 96,
          "midi": 37,
          "name": "C#2",
          "ticks": 69408,
          "time": 101.35502025,
          "velocity": 0.3937007874015748
        },
        {
          "duration": 0.14018675000001224,
          "durationTicks": 96,
          "midi": 64,
          "name": "E4",
          "ticks": 69504,
          "time": 101.495207,
          "velocity": 0.3937007874015748
        },
        {
          "duration": 0.14018674999999803,
          "durationTicks": 96,
          "midi": 66,
          "name": "F#4",
          "ticks": 69696,
          "time": 101.7755805,
          "velocity": 0.3937007874015748
        },
        {
          "duration": 0.14018674999999803,
          "durationTicks": 96,
          "midi": 37,
          "name": "C#2",
          "ticks": 69696,
          "time": 101.7755805,
          "velocity": 0.3937007874015748
        },
        {
          "duration": 0.14018674999999803,
          "durationTicks": 96,
          "midi": 61,
          "name": "C#4",
          "ticks": 69792,
          "time": 101.91576725,
          "velocity": 0.3937007874015748
        },
        {
          "duration": 0.14018674999999803,
          "durationTicks": 96,
          "midi": 45,
          "name": "A2",
          "ticks": 69888,
          "time": 102.055954,
          "velocity": 0.3937007874015748
        },
        {
          "duration": 0.14018674999999803,
          "durationTicks": 96,
          "midi": 37,
          "name": "C#2",
          "ticks": 69888,
          "time": 102.055954,
          "velocity": 0.3937007874015748
        },
        {
          "duration": 0.14018674999999803,
          "durationTicks": 96,
          "midi": 33,
          "name": "A1",
          "ticks": 69888,
          "time": 102.055954,
          "velocity": 0.3937007874015748
        },
        {
          "duration": 0.14018674999999803,
          "durationTicks": 96,
          "midi": 40,
          "name": "E2",
          "ticks": 69888,
          "time": 102.055954,
          "velocity": 0.3937007874015748
        },
        {
          "duration": 0.14018674999999803,
          "durationTicks": 96,
          "midi": 61,
          "name": "C#4",
          "ticks": 69984,
          "time": 102.19614075,
          "velocity": 0.3937007874015748
        },
        {
          "duration": 0.14018674999999803,
          "durationTicks": 96,
          "midi": 33,
          "name": "A1",
          "ticks": 70080,
          "time": 102.3363275,
          "velocity": 0.3937007874015748
        },
        {
          "duration": 0.14018675000001224,
          "durationTicks": 96,
          "midi": 61,
          "name": "C#4",
          "ticks": 70176,
          "time": 102.47651425,
          "velocity": 0.3937007874015748
        },
        {
          "duration": 0.14018675000001224,
          "durationTicks": 96,
          "midi": 33,
          "name": "A1",
          "ticks": 70176,
          "time": 102.47651425,
          "velocity": 0.3937007874015748
        },
        {
          "duration": 0.14018674999999803,
          "durationTicks": 96,
          "midi": 64,
          "name": "E4",
          "ticks": 70272,
          "time": 102.616701,
          "velocity": 0.3937007874015748
        },
        {
          "duration": 0.14018674999999803,
          "durationTicks": 96,
          "midi": 66,
          "name": "F#4",
          "ticks": 70464,
          "time": 102.8970745,
          "velocity": 0.3937007874015748
        },
        {
          "duration": 0.14018674999999803,
          "durationTicks": 96,
          "midi": 33,
          "name": "A1",
          "ticks": 70464,
          "time": 102.8970745,
          "velocity": 0.3937007874015748
        },
        {
          "duration": 0.14018674999999803,
          "durationTicks": 96,
          "midi": 68,
          "name": "G#4",
          "ticks": 70656,
          "time": 103.177448,
          "velocity": 0.3937007874015748
        },
        {
          "duration": 0.14018674999999803,
          "durationTicks": 96,
          "midi": 44,
          "name": "G#2",
          "ticks": 70656,
          "time": 103.177448,
          "velocity": 0.3937007874015748
        },
        {
          "duration": 0.14018674999999803,
          "durationTicks": 96,
          "midi": 40,
          "name": "E2",
          "ticks": 70656,
          "time": 103.177448,
          "velocity": 0.3937007874015748
        },
        {
          "duration": 0.14018674999999803,
          "durationTicks": 96,
          "midi": 47,
          "name": "B2",
          "ticks": 70656,
          "time": 103.177448,
          "velocity": 0.3937007874015748
        },
        {
          "duration": 0.14018674999999803,
          "durationTicks": 96,
          "midi": 52,
          "name": "E3",
          "ticks": 70656,
          "time": 103.177448,
          "velocity": 0.3937007874015748
        },
        {
          "duration": 0.14018674999999803,
          "durationTicks": 96,
          "midi": 68,
          "name": "G#4",
          "ticks": 70848,
          "time": 103.4578215,
          "velocity": 0.3937007874015748
        },
        {
          "duration": 0.14018674999999803,
          "durationTicks": 96,
          "midi": 40,
          "name": "E2",
          "ticks": 70848,
          "time": 103.4578215,
          "velocity": 0.3937007874015748
        },
        {
          "duration": 0.14018675000001224,
          "durationTicks": 96,
          "midi": 40,
          "name": "E2",
          "ticks": 70944,
          "time": 103.59800824999999,
          "velocity": 0.3937007874015748
        },
        {
          "duration": 0.14018674999999803,
          "durationTicks": 96,
          "midi": 68,
          "name": "G#4",
          "ticks": 71040,
          "time": 103.738195,
          "velocity": 0.3937007874015748
        },
        {
          "duration": 0.14018674999999803,
          "durationTicks": 96,
          "midi": 66,
          "name": "F#4",
          "ticks": 71136,
          "time": 103.87838175,
          "velocity": 0.3937007874015748
        },
        {
          "duration": 0.14018674999999803,
          "durationTicks": 96,
          "midi": 64,
          "name": "E4",
          "ticks": 71232,
          "time": 104.0185685,
          "velocity": 0.3937007874015748
        },
        {
          "duration": 0.14018674999999803,
          "durationTicks": 96,
          "midi": 40,
          "name": "E2",
          "ticks": 71232,
          "time": 104.0185685,
          "velocity": 0.3937007874015748
        },
        {
          "duration": 0.14018674999999803,
          "durationTicks": 96,
          "midi": 68,
          "name": "G#4",
          "ticks": 71328,
          "time": 104.15875525,
          "velocity": 0.3937007874015748
        },
        {
          "duration": 0.14018674999999803,
          "durationTicks": 96,
          "midi": 66,
          "name": "F#4",
          "ticks": 71424,
          "time": 104.298942,
          "velocity": 0.3937007874015748
        },
        {
          "duration": 0.14018674999999803,
          "durationTicks": 96,
          "midi": 39,
          "name": "D#2",
          "ticks": 71424,
          "time": 104.298942,
          "velocity": 0.3937007874015748
        },
        {
          "duration": 0.14018674999999803,
          "durationTicks": 96,
          "midi": 35,
          "name": "B1",
          "ticks": 71424,
          "time": 104.298942,
          "velocity": 0.3937007874015748
        },
        {
          "duration": 0.14018674999999803,
          "durationTicks": 96,
          "midi": 42,
          "name": "F#2",
          "ticks": 71424,
          "time": 104.298942,
          "velocity": 0.3937007874015748
        },
        {
          "duration": 0.14018674999999803,
          "durationTicks": 96,
          "midi": 47,
          "name": "B2",
          "ticks": 71424,
          "time": 104.298942,
          "velocity": 0.3937007874015748
        },
        {
          "duration": 0.14018675000001224,
          "durationTicks": 96,
          "midi": 64,
          "name": "E4",
          "ticks": 71616,
          "time": 104.57931549999999,
          "velocity": 0.3937007874015748
        },
        {
          "duration": 0.14018675000001224,
          "durationTicks": 96,
          "midi": 35,
          "name": "B1",
          "ticks": 71616,
          "time": 104.57931549999999,
          "velocity": 0.3937007874015748
        },
        {
          "duration": 0.14018674999999803,
          "durationTicks": 96,
          "midi": 66,
          "name": "F#4",
          "ticks": 71712,
          "time": 104.71950225,
          "velocity": 0.3937007874015748
        },
        {
          "duration": 0.14018674999999803,
          "durationTicks": 96,
          "midi": 35,
          "name": "B1",
          "ticks": 71712,
          "time": 104.71950225,
          "velocity": 0.3937007874015748
        },
        {
          "duration": 0.14018674999999803,
          "durationTicks": 96,
          "midi": 68,
          "name": "G#4",
          "ticks": 71904,
          "time": 104.99987575,
          "velocity": 0.3937007874015748
        },
        {
          "duration": 0.14018674999999803,
          "durationTicks": 96,
          "midi": 35,
          "name": "B1",
          "ticks": 72000,
          "time": 105.1400625,
          "velocity": 0.3937007874015748
        },
        {
          "duration": 0.14018674999999803,
          "durationTicks": 96,
          "midi": 61,
          "name": "C#4",
          "ticks": 72192,
          "time": 105.420436,
          "velocity": 0.3937007874015748
        },
        {
          "duration": 0.14018674999999803,
          "durationTicks": 96,
          "midi": 40,
          "name": "E2",
          "ticks": 72192,
          "time": 105.420436,
          "velocity": 0.3937007874015748
        },
        {
          "duration": 0.14018674999999803,
          "durationTicks": 96,
          "midi": 37,
          "name": "C#2",
          "ticks": 72192,
          "time": 105.420436,
          "velocity": 0.3937007874015748
        },
        {
          "duration": 0.14018674999999803,
          "durationTicks": 96,
          "midi": 44,
          "name": "G#2",
          "ticks": 72192,
          "time": 105.420436,
          "velocity": 0.3937007874015748
        },
        {
          "duration": 0.14018674999999803,
          "durationTicks": 96,
          "midi": 49,
          "name": "C#3",
          "ticks": 72192,
          "time": 105.420436,
          "velocity": 0.3937007874015748
        },
        {
          "duration": 0.14018674999999803,
          "durationTicks": 96,
          "midi": 37,
          "name": "C#2",
          "ticks": 72384,
          "time": 105.7008095,
          "velocity": 0.3937007874015748
        },
        {
          "duration": 0.14018674999999803,
          "durationTicks": 96,
          "midi": 61,
          "name": "C#4",
          "ticks": 72480,
          "time": 105.84099625,
          "velocity": 0.3937007874015748
        },
        {
          "duration": 0.14018674999999803,
          "durationTicks": 96,
          "midi": 37,
          "name": "C#2",
          "ticks": 72480,
          "time": 105.84099625,
          "velocity": 0.3937007874015748
        },
        {
          "duration": 0.14018674999999803,
          "durationTicks": 96,
          "midi": 64,
          "name": "E4",
          "ticks": 72576,
          "time": 105.981183,
          "velocity": 0.3937007874015748
        },
        {
          "duration": 0.14018674999999803,
          "durationTicks": 96,
          "midi": 66,
          "name": "F#4",
          "ticks": 72768,
          "time": 106.2615565,
          "velocity": 0.3937007874015748
        },
        {
          "duration": 0.14018674999999803,
          "durationTicks": 96,
          "midi": 37,
          "name": "C#2",
          "ticks": 72768,
          "time": 106.2615565,
          "velocity": 0.3937007874015748
        },
        {
          "duration": 0.14018674999999803,
          "durationTicks": 96,
          "midi": 61,
          "name": "C#4",
          "ticks": 72864,
          "time": 106.40174325,
          "velocity": 0.3937007874015748
        },
        {
          "duration": 0.14018675000001224,
          "durationTicks": 96,
          "midi": 45,
          "name": "A2",
          "ticks": 72960,
          "time": 106.54193,
          "velocity": 0.3937007874015748
        },
        {
          "duration": 0.14018675000001224,
          "durationTicks": 96,
          "midi": 37,
          "name": "C#2",
          "ticks": 72960,
          "time": 106.54193,
          "velocity": 0.3937007874015748
        },
        {
          "duration": 0.14018675000001224,
          "durationTicks": 96,
          "midi": 33,
          "name": "A1",
          "ticks": 72960,
          "time": 106.54193,
          "velocity": 0.3937007874015748
        },
        {
          "duration": 0.14018675000001224,
          "durationTicks": 96,
          "midi": 40,
          "name": "E2",
          "ticks": 72960,
          "time": 106.54193,
          "velocity": 0.3937007874015748
        },
        {
          "duration": 0.14018674999999803,
          "durationTicks": 96,
          "midi": 61,
          "name": "C#4",
          "ticks": 73056,
          "time": 106.68211675,
          "velocity": 0.3937007874015748
        },
        {
          "duration": 0.14018674999999803,
          "durationTicks": 96,
          "midi": 33,
          "name": "A1",
          "ticks": 73152,
          "time": 106.8223035,
          "velocity": 0.3937007874015748
        },
        {
          "duration": 0.14018674999999803,
          "durationTicks": 96,
          "midi": 61,
          "name": "C#4",
          "ticks": 73248,
          "time": 106.96249025,
          "velocity": 0.3937007874015748
        },
        {
          "duration": 0.14018674999999803,
          "durationTicks": 96,
          "midi": 33,
          "name": "A1",
          "ticks": 73248,
          "time": 106.96249025,
          "velocity": 0.3937007874015748
        },
        {
          "duration": 0.14018674999999803,
          "durationTicks": 96,
          "midi": 64,
          "name": "E4",
          "ticks": 73344,
          "time": 107.102677,
          "velocity": 0.3937007874015748
        },
        {
          "duration": 0.14018674999999803,
          "durationTicks": 96,
          "midi": 73,
          "name": "C#5",
          "ticks": 73536,
          "time": 107.3830505,
          "velocity": 0.3937007874015748
        },
        {
          "duration": 0.14018674999999803,
          "durationTicks": 96,
          "midi": 33,
          "name": "A1",
          "ticks": 73536,
          "time": 107.3830505,
          "velocity": 0.3937007874015748
        },
        {
          "duration": 0.14018675000001224,
          "durationTicks": 96,
          "midi": 71,
          "name": "B4",
          "ticks": 73728,
          "time": 107.66342399999999,
          "velocity": 0.3937007874015748
        },
        {
          "duration": 0.14018675000001224,
          "durationTicks": 96,
          "midi": 44,
          "name": "G#2",
          "ticks": 73728,
          "time": 107.66342399999999,
          "velocity": 0.3937007874015748
        },
        {
          "duration": 0.14018675000001224,
          "durationTicks": 96,
          "midi": 40,
          "name": "E2",
          "ticks": 73728,
          "time": 107.66342399999999,
          "velocity": 0.3937007874015748
        },
        {
          "duration": 0.14018675000001224,
          "durationTicks": 96,
          "midi": 47,
          "name": "B2",
          "ticks": 73728,
          "time": 107.66342399999999,
          "velocity": 0.3937007874015748
        },
        {
          "duration": 0.14018675000001224,
          "durationTicks": 96,
          "midi": 52,
          "name": "E3",
          "ticks": 73728,
          "time": 107.66342399999999,
          "velocity": 0.3937007874015748
        },
        {
          "duration": 0.14018674999999803,
          "durationTicks": 96,
          "midi": 68,
          "name": "G#4",
          "ticks": 73920,
          "time": 107.9437975,
          "velocity": 0.3937007874015748
        },
        {
          "duration": 0.14018674999999803,
          "durationTicks": 96,
          "midi": 40,
          "name": "E2",
          "ticks": 73920,
          "time": 107.9437975,
          "velocity": 0.3937007874015748
        },
        {
          "duration": 0.14018674999999803,
          "durationTicks": 96,
          "midi": 40,
          "name": "E2",
          "ticks": 74016,
          "time": 108.08398425,
          "velocity": 0.3937007874015748
        },
        {
          "duration": 0.14018674999999803,
          "durationTicks": 96,
          "midi": 66,
          "name": "F#4",
          "ticks": 74112,
          "time": 108.224171,
          "velocity": 0.3937007874015748
        },
        {
          "duration": 0.14018674999999803,
          "durationTicks": 96,
          "midi": 64,
          "name": "E4",
          "ticks": 74208,
          "time": 108.36435775,
          "velocity": 0.3937007874015748
        },
        {
          "duration": 0.14018674999999803,
          "durationTicks": 96,
          "midi": 66,
          "name": "F#4",
          "ticks": 74304,
          "time": 108.5045445,
          "velocity": 0.3937007874015748
        },
        {
          "duration": 0.14018674999999803,
          "durationTicks": 96,
          "midi": 40,
          "name": "E2",
          "ticks": 74304,
          "time": 108.5045445,
          "velocity": 0.3937007874015748
        },
        {
          "duration": 0.14018675000001224,
          "durationTicks": 96,
          "midi": 68,
          "name": "G#4",
          "ticks": 74400,
          "time": 108.64473124999999,
          "velocity": 0.3937007874015748
        },
        {
          "duration": 0.14018674999999803,
          "durationTicks": 96,
          "midi": 71,
          "name": "B4",
          "ticks": 74496,
          "time": 108.784918,
          "velocity": 0.3937007874015748
        },
        {
          "duration": 0.14018674999999803,
          "durationTicks": 96,
          "midi": 47,
          "name": "B2",
          "ticks": 74496,
          "time": 108.784918,
          "velocity": 0.3937007874015748
        },
        {
          "duration": 0.14018674999999803,
          "durationTicks": 96,
          "midi": 39,
          "name": "D#2",
          "ticks": 74496,
          "time": 108.784918,
          "velocity": 0.3937007874015748
        },
        {
          "duration": 0.14018674999999803,
          "durationTicks": 96,
          "midi": 35,
          "name": "B1",
          "ticks": 74496,
          "time": 108.784918,
          "velocity": 0.3937007874015748
        },
        {
          "duration": 0.14018674999999803,
          "durationTicks": 96,
          "midi": 42,
          "name": "F#2",
          "ticks": 74496,
          "time": 108.784918,
          "velocity": 0.3937007874015748
        },
        {
          "duration": 0.14018674999999803,
          "durationTicks": 96,
          "midi": 71,
          "name": "B4",
          "ticks": 74592,
          "time": 108.92510475,
          "velocity": 0.3937007874015748
        },
        {
          "duration": 0.14018674999999803,
          "durationTicks": 96,
          "midi": 68,
          "name": "G#4",
          "ticks": 74688,
          "time": 109.0652915,
          "velocity": 0.3937007874015748
        },
        {
          "duration": 0.14018674999999803,
          "durationTicks": 96,
          "midi": 35,
          "name": "B1",
          "ticks": 74688,
          "time": 109.0652915,
          "velocity": 0.3937007874015748
        },
        {
          "duration": 0.14018674999999803,
          "durationTicks": 96,
          "midi": 66,
          "name": "F#4",
          "ticks": 74784,
          "time": 109.20547825,
          "velocity": 0.3937007874015748
        },
        {
          "duration": 0.14018674999999803,
          "durationTicks": 96,
          "midi": 35,
          "name": "B1",
          "ticks": 74784,
          "time": 109.20547825,
          "velocity": 0.3937007874015748
        },
        {
          "duration": 0.28037349999999606,
          "durationTicks": 192,
          "midi": 80,
          "name": "G#5",
          "ticks": 74880,
          "time": 109.345665,
          "velocity": 0.3937007874015748
        },
        {
          "duration": 0.28037349999999606,
          "durationTicks": 192,
          "midi": 68,
          "name": "G#4",
          "ticks": 74880,
          "time": 109.345665,
          "velocity": 0.3937007874015748
        },
        {
          "duration": 0.28037350000001027,
          "durationTicks": 192,
          "midi": 83,
          "name": "B5",
          "ticks": 75072,
          "time": 109.62603849999999,
          "velocity": 0.3937007874015748
        },
        {
          "duration": 0.28037350000001027,
          "durationTicks": 192,
          "midi": 71,
          "name": "B4",
          "ticks": 75072,
          "time": 109.62603849999999,
          "velocity": 0.3937007874015748
        },
        {
          "duration": 0.14018675000001224,
          "durationTicks": 96,
          "midi": 35,
          "name": "B1",
          "ticks": 75072,
          "time": 109.62603849999999,
          "velocity": 0.3937007874015748
        },
        {
          "duration": 0.5607469999999921,
          "durationTicks": 384,
          "midi": 73,
          "name": "C#5",
          "ticks": 75264,
          "time": 109.906412,
          "velocity": 0.3937007874015748
        },
        {
          "duration": 0.5607469999999921,
          "durationTicks": 384,
          "midi": 85,
          "name": "C#6",
          "ticks": 75264,
          "time": 109.906412,
          "velocity": 0.3937007874015748
        },
        {
          "duration": 0.28037349999999606,
          "durationTicks": 192,
          "midi": 45,
          "name": "A2",
          "ticks": 75264,
          "time": 109.906412,
          "velocity": 0.3937007874015748
        },
        {
          "duration": 0.28037349999999606,
          "durationTicks": 192,
          "midi": 33,
          "name": "A1",
          "ticks": 75264,
          "time": 109.906412,
          "velocity": 0.3937007874015748
        },
        {
          "duration": 0.28037349999999606,
          "durationTicks": 192,
          "midi": 37,
          "name": "C#2",
          "ticks": 75264,
          "time": 109.906412,
          "velocity": 0.3937007874015748
        },
        {
          "duration": 0.28037349999999606,
          "durationTicks": 192,
          "midi": 40,
          "name": "E2",
          "ticks": 75264,
          "time": 109.906412,
          "velocity": 0.3937007874015748
        },
        {
          "duration": 0.14018674999999803,
          "durationTicks": 96,
          "midi": 33,
          "name": "A1",
          "ticks": 75456,
          "time": 110.1867855,
          "velocity": 0.3937007874015748
        },
        {
          "duration": 0.14018674999999803,
          "durationTicks": 96,
          "midi": 33,
          "name": "A1",
          "ticks": 75552,
          "time": 110.32697225,
          "velocity": 0.3937007874015748
        },
        {
          "duration": 0.28037350000001027,
          "durationTicks": 192,
          "midi": 73,
          "name": "C#5",
          "ticks": 75648,
          "time": 110.467159,
          "velocity": 0.3937007874015748
        },
        {
          "duration": 0.28037350000001027,
          "durationTicks": 192,
          "midi": 85,
          "name": "C#6",
          "ticks": 75648,
          "time": 110.467159,
          "velocity": 0.3937007874015748
        },
        {
          "duration": 0.14018675000001224,
          "durationTicks": 96,
          "midi": 33,
          "name": "A1",
          "ticks": 75744,
          "time": 110.60734575,
          "velocity": 0.3937007874015748
        },
        {
          "duration": 0.28037349999999606,
          "durationTicks": 192,
          "midi": 83,
          "name": "B5",
          "ticks": 75840,
          "time": 110.7475325,
          "velocity": 0.3937007874015748
        },
        {
          "duration": 0.28037349999999606,
          "durationTicks": 192,
          "midi": 71,
          "name": "B4",
          "ticks": 75840,
          "time": 110.7475325,
          "velocity": 0.3937007874015748
        },
        {
          "duration": 0.28037349999999606,
          "durationTicks": 192,
          "midi": 33,
          "name": "A1",
          "ticks": 75840,
          "time": 110.7475325,
          "velocity": 0.3937007874015748
        },
        {
          "duration": 0.28037349999999606,
          "durationTicks": 192,
          "midi": 45,
          "name": "A2",
          "ticks": 75840,
          "time": 110.7475325,
          "velocity": 0.3937007874015748
        },
        {
          "duration": 0.28037349999999606,
          "durationTicks": 192,
          "midi": 40,
          "name": "E2",
          "ticks": 75840,
          "time": 110.7475325,
          "velocity": 0.3937007874015748
        },
        {
          "duration": 0.28037349999999606,
          "durationTicks": 192,
          "midi": 37,
          "name": "C#2",
          "ticks": 75840,
          "time": 110.7475325,
          "velocity": 0.3937007874015748
        },
        {
          "duration": 0.5607469999999921,
          "durationTicks": 384,
          "midi": 68,
          "name": "G#4",
          "ticks": 76032,
          "time": 111.027906,
          "velocity": 0.3937007874015748
        },
        {
          "duration": 0.5607469999999921,
          "durationTicks": 384,
          "midi": 80,
          "name": "G#5",
          "ticks": 76032,
          "time": 111.027906,
          "velocity": 0.3937007874015748
        },
        {
          "duration": 0.28037349999999606,
          "durationTicks": 192,
          "midi": 49,
          "name": "C#3",
          "ticks": 76032,
          "time": 111.027906,
          "velocity": 0.3937007874015748
        },
        {
          "duration": 0.28037349999999606,
          "durationTicks": 192,
          "midi": 37,
          "name": "C#2",
          "ticks": 76032,
          "time": 111.027906,
          "velocity": 0.3937007874015748
        },
        {
          "duration": 0.28037349999999606,
          "durationTicks": 192,
          "midi": 44,
          "name": "G#2",
          "ticks": 76032,
          "time": 111.027906,
          "velocity": 0.3937007874015748
        },
        {
          "duration": 0.28037349999999606,
          "durationTicks": 192,
          "midi": 40,
          "name": "E2",
          "ticks": 76032,
          "time": 111.027906,
          "velocity": 0.3937007874015748
        },
        {
          "duration": 0.14018674999999803,
          "durationTicks": 96,
          "midi": 37,
          "name": "C#2",
          "ticks": 76224,
          "time": 111.3082795,
          "velocity": 0.3937007874015748
        },
        {
          "duration": 0.14018674999999803,
          "durationTicks": 96,
          "midi": 37,
          "name": "C#2",
          "ticks": 76320,
          "time": 111.44846625,
          "velocity": 0.3937007874015748
        },
        {
          "duration": 0.28037350000001027,
          "durationTicks": 192,
          "midi": 66,
          "name": "F#4",
          "ticks": 76416,
          "time": 111.588653,
          "velocity": 0.3937007874015748
        },
        {
          "duration": 0.28037350000001027,
          "durationTicks": 192,
          "midi": 78,
          "name": "F#5",
          "ticks": 76416,
          "time": 111.588653,
          "velocity": 0.3937007874015748
        },
        {
          "duration": 0.14018674999999803,
          "durationTicks": 96,
          "midi": 37,
          "name": "C#2",
          "ticks": 76512,
          "time": 111.72883975,
          "velocity": 0.3937007874015748
        },
        {
          "duration": 0.28037349999999606,
          "durationTicks": 192,
          "midi": 76,
          "name": "E5",
          "ticks": 76608,
          "time": 111.8690265,
          "velocity": 0.3937007874015748
        },
        {
          "duration": 0.28037349999999606,
          "durationTicks": 192,
          "midi": 64,
          "name": "E4",
          "ticks": 76608,
          "time": 111.8690265,
          "velocity": 0.3937007874015748
        },
        {
          "duration": 0.28037349999999606,
          "durationTicks": 192,
          "midi": 49,
          "name": "C#3",
          "ticks": 76608,
          "time": 111.8690265,
          "velocity": 0.3937007874015748
        },
        {
          "duration": 0.28037349999999606,
          "durationTicks": 192,
          "midi": 37,
          "name": "C#2",
          "ticks": 76608,
          "time": 111.8690265,
          "velocity": 0.3937007874015748
        },
        {
          "duration": 0.28037349999999606,
          "durationTicks": 192,
          "midi": 44,
          "name": "G#2",
          "ticks": 76608,
          "time": 111.8690265,
          "velocity": 0.3937007874015748
        },
        {
          "duration": 0.28037349999999606,
          "durationTicks": 192,
          "midi": 40,
          "name": "E2",
          "ticks": 76608,
          "time": 111.8690265,
          "velocity": 0.3937007874015748
        },
        {
          "duration": 0.5607469999999921,
          "durationTicks": 384,
          "midi": 66,
          "name": "F#4",
          "ticks": 76800,
          "time": 112.1494,
          "velocity": 0.3937007874015748
        },
        {
          "duration": 0.5607469999999921,
          "durationTicks": 384,
          "midi": 78,
          "name": "F#5",
          "ticks": 76800,
          "time": 112.1494,
          "velocity": 0.3937007874015748
        },
        {
          "duration": 0.28037349999999606,
          "durationTicks": 192,
          "midi": 42,
          "name": "F#2",
          "ticks": 76800,
          "time": 112.1494,
          "velocity": 0.3937007874015748
        },
        {
          "duration": 0.28037349999999606,
          "durationTicks": 192,
          "midi": 47,
          "name": "B2",
          "ticks": 76800,
          "time": 112.1494,
          "velocity": 0.3937007874015748
        },
        {
          "duration": 0.28037349999999606,
          "durationTicks": 192,
          "midi": 35,
          "name": "B1",
          "ticks": 76800,
          "time": 112.1494,
          "velocity": 0.3937007874015748
        },
        {
          "duration": 0.28037349999999606,
          "durationTicks": 192,
          "midi": 39,
          "name": "D#2",
          "ticks": 76800,
          "time": 112.1494,
          "velocity": 0.3937007874015748
        },
        {
          "duration": 0.14018674999999803,
          "durationTicks": 96,
          "midi": 35,
          "name": "B1",
          "ticks": 76992,
          "time": 112.4297735,
          "velocity": 0.3937007874015748
        },
        {
          "duration": 0.14018674999999803,
          "durationTicks": 96,
          "midi": 35,
          "name": "B1",
          "ticks": 77088,
          "time": 112.56996025,
          "velocity": 0.3937007874015748
        },
        {
          "duration": 0.28037350000001027,
          "durationTicks": 192,
          "midi": 66,
          "name": "F#4",
          "ticks": 77184,
          "time": 112.71014699999999,
          "velocity": 0.3937007874015748
        },
        {
          "duration": 0.28037350000001027,
          "durationTicks": 192,
          "midi": 78,
          "name": "F#5",
          "ticks": 77184,
          "time": 112.71014699999999,
          "velocity": 0.3937007874015748
        },
        {
          "duration": 0.14018674999999803,
          "durationTicks": 96,
          "midi": 35,
          "name": "B1",
          "ticks": 77280,
          "time": 112.85033375,
          "velocity": 0.3937007874015748
        },
        {
          "duration": 0.28037349999999606,
          "durationTicks": 192,
          "midi": 76,
          "name": "E5",
          "ticks": 77376,
          "time": 112.9905205,
          "velocity": 0.3937007874015748
        },
        {
          "duration": 0.28037349999999606,
          "durationTicks": 192,
          "midi": 64,
          "name": "E4",
          "ticks": 77376,
          "time": 112.9905205,
          "velocity": 0.3937007874015748
        },
        {
          "duration": 0.28037349999999606,
          "durationTicks": 192,
          "midi": 47,
          "name": "B2",
          "ticks": 77376,
          "time": 112.9905205,
          "velocity": 0.3937007874015748
        },
        {
          "duration": 0.28037349999999606,
          "durationTicks": 192,
          "midi": 35,
          "name": "B1",
          "ticks": 77376,
          "time": 112.9905205,
          "velocity": 0.3937007874015748
        },
        {
          "duration": 0.28037349999999606,
          "durationTicks": 192,
          "midi": 42,
          "name": "F#2",
          "ticks": 77376,
          "time": 112.9905205,
          "velocity": 0.3937007874015748
        },
        {
          "duration": 0.28037349999999606,
          "durationTicks": 192,
          "midi": 39,
          "name": "D#2",
          "ticks": 77376,
          "time": 112.9905205,
          "velocity": 0.3937007874015748
        },
        {
          "duration": 0.5607470000000063,
          "durationTicks": 384,
          "midi": 73,
          "name": "C#5",
          "ticks": 77568,
          "time": 113.270894,
          "velocity": 0.3937007874015748
        },
        {
          "duration": 0.5607470000000063,
          "durationTicks": 384,
          "midi": 61,
          "name": "C#4",
          "ticks": 77568,
          "time": 113.270894,
          "velocity": 0.3937007874015748
        },
        {
          "duration": 0.28037349999999606,
          "durationTicks": 192,
          "midi": 33,
          "name": "A1",
          "ticks": 77568,
          "time": 113.270894,
          "velocity": 0.3937007874015748
        },
        {
          "duration": 0.28037349999999606,
          "durationTicks": 192,
          "midi": 45,
          "name": "A2",
          "ticks": 77568,
          "time": 113.270894,
          "velocity": 0.3937007874015748
        },
        {
          "duration": 0.28037349999999606,
          "durationTicks": 192,
          "midi": 40,
          "name": "E2",
          "ticks": 77568,
          "time": 113.270894,
          "velocity": 0.3937007874015748
        },
        {
          "duration": 0.28037349999999606,
          "durationTicks": 192,
          "midi": 37,
          "name": "C#2",
          "ticks": 77568,
          "time": 113.270894,
          "velocity": 0.3937007874015748
        },
        {
          "duration": 0.14018674999999803,
          "durationTicks": 96,
          "midi": 33,
          "name": "A1",
          "ticks": 77760,
          "time": 113.5512675,
          "velocity": 0.3937007874015748
        },
        {
          "duration": 0.14018675000001224,
          "durationTicks": 96,
          "midi": 33,
          "name": "A1",
          "ticks": 77856,
          "time": 113.69145424999999,
          "velocity": 0.3937007874015748
        },
        {
          "duration": 0.28037349999999606,
          "durationTicks": 192,
          "midi": 71,
          "name": "B4",
          "ticks": 77952,
          "time": 113.831641,
          "velocity": 0.3937007874015748
        },
        {
          "duration": 0.28037349999999606,
          "durationTicks": 192,
          "midi": 59,
          "name": "B3",
          "ticks": 77952,
          "time": 113.831641,
          "velocity": 0.3937007874015748
        },
        {
          "duration": 0.14018674999999803,
          "durationTicks": 96,
          "midi": 33,
          "name": "A1",
          "ticks": 78048,
          "time": 113.97182775,
          "velocity": 0.3937007874015748
        },
        {
          "duration": 0.28037349999999606,
          "durationTicks": 192,
          "midi": 61,
          "name": "C#4",
          "ticks": 78144,
          "time": 114.1120145,
          "velocity": 0.3937007874015748
        },
        {
          "duration": 0.28037349999999606,
          "durationTicks": 192,
          "midi": 73,
          "name": "C#5",
          "ticks": 78144,
          "time": 114.1120145,
          "velocity": 0.3937007874015748
        },
        {
          "duration": 0.28037349999999606,
          "durationTicks": 192,
          "midi": 45,
          "name": "A2",
          "ticks": 78144,
          "time": 114.1120145,
          "velocity": 0.3937007874015748
        },
        {
          "duration": 0.28037349999999606,
          "durationTicks": 192,
          "midi": 33,
          "name": "A1",
          "ticks": 78144,
          "time": 114.1120145,
          "velocity": 0.3937007874015748
        },
        {
          "duration": 0.28037349999999606,
          "durationTicks": 192,
          "midi": 40,
          "name": "E2",
          "ticks": 78144,
          "time": 114.1120145,
          "velocity": 0.3937007874015748
        },
        {
          "duration": 0.28037349999999606,
          "durationTicks": 192,
          "midi": 37,
          "name": "C#2",
          "ticks": 78144,
          "time": 114.1120145,
          "velocity": 0.3937007874015748
        },
        {
          "duration": 0.5607470000000063,
          "durationTicks": 384,
          "midi": 64,
          "name": "E4",
          "ticks": 78336,
          "time": 114.392388,
          "velocity": 0.3937007874015748
        },
        {
          "duration": 0.5607470000000063,
          "durationTicks": 384,
          "midi": 76,
          "name": "E5",
          "ticks": 78336,
          "time": 114.392388,
          "velocity": 0.3937007874015748
        },
        {
          "duration": 0.28037349999999606,
          "durationTicks": 192,
          "midi": 37,
          "name": "C#2",
          "ticks": 78336,
          "time": 114.392388,
          "velocity": 0.3937007874015748
        },
        {
          "duration": 0.28037349999999606,
          "durationTicks": 192,
          "midi": 49,
          "name": "C#3",
          "ticks": 78336,
          "time": 114.392388,
          "velocity": 0.3937007874015748
        },
        {
          "duration": 0.28037349999999606,
          "durationTicks": 192,
          "midi": 44,
          "name": "G#2",
          "ticks": 78336,
          "time": 114.392388,
          "velocity": 0.3937007874015748
        },
        {
          "duration": 0.28037349999999606,
          "durationTicks": 192,
          "midi": 40,
          "name": "E2",
          "ticks": 78336,
          "time": 114.392388,
          "velocity": 0.3937007874015748
        },
        {
          "duration": 0.14018675000001224,
          "durationTicks": 96,
          "midi": 37,
          "name": "C#2",
          "ticks": 78528,
          "time": 114.6727615,
          "velocity": 0.3937007874015748
        },
        {
          "duration": 0.14018674999999803,
          "durationTicks": 96,
          "midi": 37,
          "name": "C#2",
          "ticks": 78624,
          "time": 114.81294825,
          "velocity": 0.3937007874015748
        },
        {
          "duration": 0.28037349999999606,
          "durationTicks": 192,
          "midi": 78,
          "name": "F#5",
          "ticks": 78720,
          "time": 114.953135,
          "velocity": 0.3937007874015748
        },
        {
          "duration": 0.28037349999999606,
          "durationTicks": 192,
          "midi": 66,
          "name": "F#4",
          "ticks": 78720,
          "time": 114.953135,
          "velocity": 0.3937007874015748
        },
        {
          "duration": 0.14018674999999803,
          "durationTicks": 96,
          "midi": 37,
          "name": "C#2",
          "ticks": 78816,
          "time": 115.09332175,
          "velocity": 0.3937007874015748
        },
        {
          "duration": 0.28037349999999606,
          "durationTicks": 192,
          "midi": 68,
          "name": "G#4",
          "ticks": 78912,
          "time": 115.2335085,
          "velocity": 0.3937007874015748
        },
        {
          "duration": 0.28037349999999606,
          "durationTicks": 192,
          "midi": 80,
          "name": "G#5",
          "ticks": 78912,
          "time": 115.2335085,
          "velocity": 0.3937007874015748
        },
        {
          "duration": 0.28037349999999606,
          "durationTicks": 192,
          "midi": 49,
          "name": "C#3",
          "ticks": 78912,
          "time": 115.2335085,
          "velocity": 0.3937007874015748
        },
        {
          "duration": 0.28037349999999606,
          "durationTicks": 192,
          "midi": 37,
          "name": "C#2",
          "ticks": 78912,
          "time": 115.2335085,
          "velocity": 0.3937007874015748
        },
        {
          "duration": 0.28037349999999606,
          "durationTicks": 192,
          "midi": 44,
          "name": "G#2",
          "ticks": 78912,
          "time": 115.2335085,
          "velocity": 0.3937007874015748
        },
        {
          "duration": 0.28037349999999606,
          "durationTicks": 192,
          "midi": 40,
          "name": "E2",
          "ticks": 78912,
          "time": 115.2335085,
          "velocity": 0.3937007874015748
        },
        {
          "duration": 0.5607470000000063,
          "durationTicks": 384,
          "midi": 69,
          "name": "A4",
          "ticks": 79104,
          "time": 115.513882,
          "velocity": 0.3937007874015748
        },
        {
          "duration": 0.5607470000000063,
          "durationTicks": 384,
          "midi": 81,
          "name": "A5",
          "ticks": 79104,
          "time": 115.513882,
          "velocity": 0.3937007874015748
        },
        {
          "duration": 0.28037350000001027,
          "durationTicks": 192,
          "midi": 33,
          "name": "A1",
          "ticks": 79104,
          "time": 115.513882,
          "velocity": 0.3937007874015748
        },
        {
          "duration": 0.28037350000001027,
          "durationTicks": 192,
          "midi": 45,
          "name": "A2",
          "ticks": 79104,
          "time": 115.513882,
          "velocity": 0.3937007874015748
        },
        {
          "duration": 0.28037350000001027,
          "durationTicks": 192,
          "midi": 40,
          "name": "E2",
          "ticks": 79104,
          "time": 115.513882,
          "velocity": 0.3937007874015748
        },
        {
          "duration": 0.28037350000001027,
          "durationTicks": 192,
          "midi": 37,
          "name": "C#2",
          "ticks": 79104,
          "time": 115.513882,
          "velocity": 0.3937007874015748
        },
        {
          "duration": 0.14018674999999803,
          "durationTicks": 96,
          "midi": 33,
          "name": "A1",
          "ticks": 79296,
          "time": 115.7942555,
          "velocity": 0.3937007874015748
        },
        {
          "duration": 0.14018674999999803,
          "durationTicks": 96,
          "midi": 33,
          "name": "A1",
          "ticks": 79392,
          "time": 115.93444225,
          "velocity": 0.3937007874015748
        },
        {
          "duration": 0.28037349999999606,
          "durationTicks": 192,
          "midi": 68,
          "name": "G#4",
          "ticks": 79488,
          "time": 116.074629,
          "velocity": 0.3937007874015748
        },
        {
          "duration": 0.28037349999999606,
          "durationTicks": 192,
          "midi": 80,
          "name": "G#5",
          "ticks": 79488,
          "time": 116.074629,
          "velocity": 0.3937007874015748
        },
        {
          "duration": 0.14018674999999803,
          "durationTicks": 96,
          "midi": 33,
          "name": "A1",
          "ticks": 79584,
          "time": 116.21481575,
          "velocity": 0.3937007874015748
        },
        {
          "duration": 0.28037349999999606,
          "durationTicks": 192,
          "midi": 76,
          "name": "E5",
          "ticks": 79680,
          "time": 116.3550025,
          "velocity": 0.3937007874015748
        },
        {
          "duration": 0.28037349999999606,
          "durationTicks": 192,
          "midi": 64,
          "name": "E4",
          "ticks": 79680,
          "time": 116.3550025,
          "velocity": 0.3937007874015748
        },
        {
          "duration": 0.28037349999999606,
          "durationTicks": 192,
          "midi": 45,
          "name": "A2",
          "ticks": 79680,
          "time": 116.3550025,
          "velocity": 0.3937007874015748
        },
        {
          "duration": 0.28037349999999606,
          "durationTicks": 192,
          "midi": 33,
          "name": "A1",
          "ticks": 79680,
          "time": 116.3550025,
          "velocity": 0.3937007874015748
        },
        {
          "duration": 0.28037349999999606,
          "durationTicks": 192,
          "midi": 40,
          "name": "E2",
          "ticks": 79680,
          "time": 116.3550025,
          "velocity": 0.3937007874015748
        },
        {
          "duration": 0.28037349999999606,
          "durationTicks": 192,
          "midi": 37,
          "name": "C#2",
          "ticks": 79680,
          "time": 116.3550025,
          "velocity": 0.3937007874015748
        },
        {
          "duration": 1.6822410000000048,
          "durationTicks": 1152,
          "midi": 78,
          "name": "F#5",
          "ticks": 79872,
          "time": 116.635376,
          "velocity": 0.3937007874015748
        },
        {
          "duration": 1.6822410000000048,
          "durationTicks": 1152,
          "midi": 66,
          "name": "F#4",
          "ticks": 79872,
          "time": 116.635376,
          "velocity": 0.3937007874015748
        },
        {
          "duration": 0.28037350000001027,
          "durationTicks": 192,
          "midi": 35,
          "name": "B1",
          "ticks": 79872,
          "time": 116.635376,
          "velocity": 0.3937007874015748
        },
        {
          "duration": 0.28037350000001027,
          "durationTicks": 192,
          "midi": 47,
          "name": "B2",
          "ticks": 79872,
          "time": 116.635376,
          "velocity": 0.3937007874015748
        },
        {
          "duration": 0.28037350000001027,
          "durationTicks": 192,
          "midi": 42,
          "name": "F#2",
          "ticks": 79872,
          "time": 116.635376,
          "velocity": 0.3937007874015748
        },
        {
          "duration": 0.28037350000001027,
          "durationTicks": 192,
          "midi": 40,
          "name": "E2",
          "ticks": 79872,
          "time": 116.635376,
          "velocity": 0.3937007874015748
        },
        {
          "duration": 0.14018674999999803,
          "durationTicks": 96,
          "midi": 35,
          "name": "B1",
          "ticks": 80064,
          "time": 116.9157495,
          "velocity": 0.3937007874015748
        },
        {
          "duration": 0.14018674999999803,
          "durationTicks": 96,
          "midi": 35,
          "name": "B1",
          "ticks": 80160,
          "time": 117.05593625,
          "velocity": 0.3937007874015748
        },
        {
          "duration": 0.14018674999999803,
          "durationTicks": 96,
          "midi": 35,
          "name": "B1",
          "ticks": 80352,
          "time": 117.33630975,
          "velocity": 0.3937007874015748
        },
        {
          "duration": 0.28037349999999606,
          "durationTicks": 192,
          "midi": 47,
          "name": "B2",
          "ticks": 80448,
          "time": 117.4764965,
          "velocity": 0.3937007874015748
        },
        {
          "duration": 0.28037349999999606,
          "durationTicks": 192,
          "midi": 40,
          "name": "E2",
          "ticks": 80448,
          "time": 117.4764965,
          "velocity": 0.3937007874015748
        },
        {
          "duration": 0.28037349999999606,
          "durationTicks": 192,
          "midi": 42,
          "name": "F#2",
          "ticks": 80448,
          "time": 117.4764965,
          "velocity": 0.3937007874015748
        },
        {
          "duration": 0.28037349999999606,
          "durationTicks": 192,
          "midi": 35,
          "name": "B1",
          "ticks": 80448,
          "time": 117.4764965,
          "velocity": 0.3937007874015748
        },
        {
          "duration": 0.28037350000001027,
          "durationTicks": 192,
          "midi": 35,
          "name": "B1",
          "ticks": 80640,
          "time": 117.75686999999999,
          "velocity": 0.3937007874015748
        },
        {
          "duration": 0.28037350000001027,
          "durationTicks": 192,
          "midi": 47,
          "name": "B2",
          "ticks": 80640,
          "time": 117.75686999999999,
          "velocity": 0.3937007874015748
        },
        {
          "duration": 0.28037350000001027,
          "durationTicks": 192,
          "midi": 42,
          "name": "F#2",
          "ticks": 80640,
          "time": 117.75686999999999,
          "velocity": 0.3937007874015748
        },
        {
          "duration": 0.28037350000001027,
          "durationTicks": 192,
          "midi": 39,
          "name": "D#2",
          "ticks": 80640,
          "time": 117.75686999999999,
          "velocity": 0.3937007874015748
        },
        {
          "duration": 0.14018674999999803,
          "durationTicks": 96,
          "midi": 35,
          "name": "B1",
          "ticks": 80832,
          "time": 118.0372435,
          "velocity": 0.3937007874015748
        },
        {
          "duration": 0.14018674999999803,
          "durationTicks": 96,
          "midi": 35,
          "name": "B1",
          "ticks": 80928,
          "time": 118.17743025,
          "velocity": 0.3937007874015748
        },
        {
          "duration": 0.28037349999999606,
          "durationTicks": 192,
          "midi": 80,
          "name": "G#5",
          "ticks": 81024,
          "time": 118.317617,
          "velocity": 0.3937007874015748
        },
        {
          "duration": 0.28037349999999606,
          "durationTicks": 192,
          "midi": 68,
          "name": "G#4",
          "ticks": 81024,
          "time": 118.317617,
          "velocity": 0.3937007874015748
        },
        {
          "duration": 0.14018674999999803,
          "durationTicks": 96,
          "midi": 35,
          "name": "B1",
          "ticks": 81120,
          "time": 118.45780375,
          "velocity": 0.3937007874015748
        },
        {
          "duration": 0.28037350000001027,
          "durationTicks": 192,
          "midi": 83,
          "name": "B5",
          "ticks": 81216,
          "time": 118.5979905,
          "velocity": 0.3937007874015748
        },
        {
          "duration": 0.28037350000001027,
          "durationTicks": 192,
          "midi": 71,
          "name": "B4",
          "ticks": 81216,
          "time": 118.5979905,
          "velocity": 0.3937007874015748
        },
        {
          "duration": 0.28037350000001027,
          "durationTicks": 192,
          "midi": 47,
          "name": "B2",
          "ticks": 81216,
          "time": 118.5979905,
          "velocity": 0.3937007874015748
        },
        {
          "duration": 0.28037350000001027,
          "durationTicks": 192,
          "midi": 35,
          "name": "B1",
          "ticks": 81216,
          "time": 118.5979905,
          "velocity": 0.3937007874015748
        },
        {
          "duration": 0.28037350000001027,
          "durationTicks": 192,
          "midi": 42,
          "name": "F#2",
          "ticks": 81216,
          "time": 118.5979905,
          "velocity": 0.3937007874015748
        },
        {
          "duration": 0.28037350000001027,
          "durationTicks": 192,
          "midi": 39,
          "name": "D#2",
          "ticks": 81216,
          "time": 118.5979905,
          "velocity": 0.3937007874015748
        },
        {
          "duration": 0.4205602499999941,
          "durationTicks": 288,
          "midi": 85,
          "name": "C#6",
          "ticks": 81408,
          "time": 118.878364,
          "velocity": 0.3937007874015748
        },
        {
          "duration": 0.4205602499999941,
          "durationTicks": 288,
          "midi": 73,
          "name": "C#5",
          "ticks": 81408,
          "time": 118.878364,
          "velocity": 0.3937007874015748
        },
        {
          "duration": 0.28037349999999606,
          "durationTicks": 192,
          "midi": 33,
          "name": "A1",
          "ticks": 81408,
          "time": 118.878364,
          "velocity": 0.3937007874015748
        },
        {
          "duration": 0.28037349999999606,
          "durationTicks": 192,
          "midi": 45,
          "name": "A2",
          "ticks": 81408,
          "time": 118.878364,
          "velocity": 0.3937007874015748
        },
        {
          "duration": 0.28037349999999606,
          "durationTicks": 192,
          "midi": 40,
          "name": "E2",
          "ticks": 81408,
          "time": 118.878364,
          "velocity": 0.3937007874015748
        },
        {
          "duration": 0.28037349999999606,
          "durationTicks": 192,
          "midi": 37,
          "name": "C#2",
          "ticks": 81408,
          "time": 118.878364,
          "velocity": 0.3937007874015748
        },
        {
          "duration": 0.14018674999999803,
          "durationTicks": 96,
          "midi": 33,
          "name": "A1",
          "ticks": 81600,
          "time": 119.1587375,
          "velocity": 0.3937007874015748
        },
        {
          "duration": 0.14018674999999803,
          "durationTicks": 96,
          "midi": 75,
          "name": "D#5",
          "ticks": 81696,
          "time": 119.29892425,
          "velocity": 0.3937007874015748
        },
        {
          "duration": 0.14018674999999803,
          "durationTicks": 96,
          "midi": 87,
          "name": "D#6",
          "ticks": 81696,
          "time": 119.29892425,
          "velocity": 0.3937007874015748
        },
        {
          "duration": 0.14018674999999803,
          "durationTicks": 96,
          "midi": 33,
          "name": "A1",
          "ticks": 81696,
          "time": 119.29892425,
          "velocity": 0.3937007874015748
        },
        {
          "duration": 0.28037349999999606,
          "durationTicks": 192,
          "midi": 73,
          "name": "C#5",
          "ticks": 81792,
          "time": 119.439111,
          "velocity": 0.3937007874015748
        },
        {
          "duration": 0.28037349999999606,
          "durationTicks": 192,
          "midi": 85,
          "name": "C#6",
          "ticks": 81792,
          "time": 119.439111,
          "velocity": 0.3937007874015748
        },
        {
          "duration": 0.14018674999999803,
          "durationTicks": 96,
          "midi": 33,
          "name": "A1",
          "ticks": 81888,
          "time": 119.57929775,
          "velocity": 0.3937007874015748
        },
        {
          "duration": 0.28037350000001027,
          "durationTicks": 192,
          "midi": 83,
          "name": "B5",
          "ticks": 81984,
          "time": 119.7194845,
          "velocity": 0.3937007874015748
        },
        {
          "duration": 0.28037350000001027,
          "durationTicks": 192,
          "midi": 71,
          "name": "B4",
          "ticks": 81984,
          "time": 119.7194845,
          "velocity": 0.3937007874015748
        },
        {
          "duration": 0.28037350000001027,
          "durationTicks": 192,
          "midi": 45,
          "name": "A2",
          "ticks": 81984,
          "time": 119.7194845,
          "velocity": 0.3937007874015748
        },
        {
          "duration": 0.28037350000001027,
          "durationTicks": 192,
          "midi": 33,
          "name": "A1",
          "ticks": 81984,
          "time": 119.7194845,
          "velocity": 0.3937007874015748
        },
        {
          "duration": 0.28037350000001027,
          "durationTicks": 192,
          "midi": 40,
          "name": "E2",
          "ticks": 81984,
          "time": 119.7194845,
          "velocity": 0.3937007874015748
        },
        {
          "duration": 0.28037350000001027,
          "durationTicks": 192,
          "midi": 37,
          "name": "C#2",
          "ticks": 81984,
          "time": 119.7194845,
          "velocity": 0.3937007874015748
        },
        {
          "duration": 0.5607469999999921,
          "durationTicks": 384,
          "midi": 68,
          "name": "G#4",
          "ticks": 82176,
          "time": 119.999858,
          "velocity": 0.3937007874015748
        },
        {
          "duration": 0.5607469999999921,
          "durationTicks": 384,
          "midi": 80,
          "name": "G#5",
          "ticks": 82176,
          "time": 119.999858,
          "velocity": 0.3937007874015748
        },
        {
          "duration": 0.28037349999999606,
          "durationTicks": 192,
          "midi": 37,
          "name": "C#2",
          "ticks": 82176,
          "time": 119.999858,
          "velocity": 0.3937007874015748
        },
        {
          "duration": 0.28037349999999606,
          "durationTicks": 192,
          "midi": 44,
          "name": "G#2",
          "ticks": 82176,
          "time": 119.999858,
          "velocity": 0.3937007874015748
        },
        {
          "duration": 0.28037349999999606,
          "durationTicks": 192,
          "midi": 49,
          "name": "C#3",
          "ticks": 82176,
          "time": 119.999858,
          "velocity": 0.3937007874015748
        },
        {
          "duration": 0.28037349999999606,
          "durationTicks": 192,
          "midi": 40,
          "name": "E2",
          "ticks": 82176,
          "time": 119.999858,
          "velocity": 0.3937007874015748
        },
        {
          "duration": 0.14018674999999803,
          "durationTicks": 96,
          "midi": 37,
          "name": "C#2",
          "ticks": 82368,
          "time": 120.2802315,
          "velocity": 0.3937007874015748
        },
        {
          "duration": 0.14018674999999803,
          "durationTicks": 96,
          "midi": 37,
          "name": "C#2",
          "ticks": 82464,
          "time": 120.42041825,
          "velocity": 0.3937007874015748
        },
        {
          "duration": 0.28037350000001027,
          "durationTicks": 192,
          "midi": 66,
          "name": "F#4",
          "ticks": 82560,
          "time": 120.560605,
          "velocity": 0.3937007874015748
        },
        {
          "duration": 0.28037350000001027,
          "durationTicks": 192,
          "midi": 78,
          "name": "F#5",
          "ticks": 82560,
          "time": 120.560605,
          "velocity": 0.3937007874015748
        },
        {
          "duration": 0.14018675000001224,
          "durationTicks": 96,
          "midi": 37,
          "name": "C#2",
          "ticks": 82656,
          "time": 120.70079175,
          "velocity": 0.3937007874015748
        },
        {
          "duration": 0.28037349999999606,
          "durationTicks": 192,
          "midi": 76,
          "name": "E5",
          "ticks": 82752,
          "time": 120.8409785,
          "velocity": 0.3937007874015748
        },
        {
          "duration": 0.28037349999999606,
          "durationTicks": 192,
          "midi": 64,
          "name": "E4",
          "ticks": 82752,
          "time": 120.8409785,
          "velocity": 0.3937007874015748
        },
        {
          "duration": 0.28037349999999606,
          "durationTicks": 192,
          "midi": 49,
          "name": "C#3",
          "ticks": 82752,
          "time": 120.8409785,
          "velocity": 0.3937007874015748
        },
        {
          "duration": 0.28037349999999606,
          "durationTicks": 192,
          "midi": 37,
          "name": "C#2",
          "ticks": 82752,
          "time": 120.8409785,
          "velocity": 0.3937007874015748
        },
        {
          "duration": 0.28037349999999606,
          "durationTicks": 192,
          "midi": 44,
          "name": "G#2",
          "ticks": 82752,
          "time": 120.8409785,
          "velocity": 0.3937007874015748
        },
        {
          "duration": 0.28037349999999606,
          "durationTicks": 192,
          "midi": 40,
          "name": "E2",
          "ticks": 82752,
          "time": 120.8409785,
          "velocity": 0.3937007874015748
        },
        {
          "duration": 0.5607469999999921,
          "durationTicks": 384,
          "midi": 66,
          "name": "F#4",
          "ticks": 82944,
          "time": 121.121352,
          "velocity": 0.3937007874015748
        },
        {
          "duration": 0.5607469999999921,
          "durationTicks": 384,
          "midi": 78,
          "name": "F#5",
          "ticks": 82944,
          "time": 121.121352,
          "velocity": 0.3937007874015748
        },
        {
          "duration": 0.28037349999999606,
          "durationTicks": 192,
          "midi": 35,
          "name": "B1",
          "ticks": 82944,
          "time": 121.121352,
          "velocity": 0.3937007874015748
        },
        {
          "duration": 0.28037349999999606,
          "durationTicks": 192,
          "midi": 47,
          "name": "B2",
          "ticks": 82944,
          "time": 121.121352,
          "velocity": 0.3937007874015748
        },
        {
          "duration": 0.28037349999999606,
          "durationTicks": 192,
          "midi": 42,
          "name": "F#2",
          "ticks": 82944,
          "time": 121.121352,
          "velocity": 0.3937007874015748
        },
        {
          "duration": 0.28037349999999606,
          "durationTicks": 192,
          "midi": 39,
          "name": "D#2",
          "ticks": 82944,
          "time": 121.121352,
          "velocity": 0.3937007874015748
        },
        {
          "duration": 0.14018674999999803,
          "durationTicks": 96,
          "midi": 35,
          "name": "B1",
          "ticks": 83136,
          "time": 121.4017255,
          "velocity": 0.3937007874015748
        },
        {
          "duration": 0.14018674999999803,
          "durationTicks": 96,
          "midi": 80,
          "name": "G#5",
          "ticks": 83232,
          "time": 121.54191225,
          "velocity": 0.3937007874015748
        },
        {
          "duration": 0.14018674999999803,
          "durationTicks": 96,
          "midi": 68,
          "name": "G#4",
          "ticks": 83232,
          "time": 121.54191225,
          "velocity": 0.3937007874015748
        },
        {
          "duration": 0.14018674999999803,
          "durationTicks": 96,
          "midi": 35,
          "name": "B1",
          "ticks": 83232,
          "time": 121.54191225,
          "velocity": 0.3937007874015748
        },
        {
          "duration": 0.28037350000001027,
          "durationTicks": 192,
          "midi": 78,
          "name": "F#5",
          "ticks": 83328,
          "time": 121.682099,
          "velocity": 0.3937007874015748
        },
        {
          "duration": 0.28037350000001027,
          "durationTicks": 192,
          "midi": 66,
          "name": "F#4",
          "ticks": 83328,
          "time": 121.682099,
          "velocity": 0.3937007874015748
        },
        {
          "duration": 0.14018674999999803,
          "durationTicks": 96,
          "midi": 35,
          "name": "B1",
          "ticks": 83424,
          "time": 121.82228575,
          "velocity": 0.3937007874015748
        },
        {
          "duration": 0.28037349999999606,
          "durationTicks": 192,
          "midi": 76,
          "name": "E5",
          "ticks": 83520,
          "time": 121.9624725,
          "velocity": 0.3937007874015748
        },
        {
          "duration": 0.28037349999999606,
          "durationTicks": 192,
          "midi": 64,
          "name": "E4",
          "ticks": 83520,
          "time": 121.9624725,
          "velocity": 0.3937007874015748
        },
        {
          "duration": 0.28037349999999606,
          "durationTicks": 192,
          "midi": 47,
          "name": "B2",
          "ticks": 83520,
          "time": 121.9624725,
          "velocity": 0.3937007874015748
        },
        {
          "duration": 0.28037349999999606,
          "durationTicks": 192,
          "midi": 35,
          "name": "B1",
          "ticks": 83520,
          "time": 121.9624725,
          "velocity": 0.3937007874015748
        },
        {
          "duration": 0.28037349999999606,
          "durationTicks": 192,
          "midi": 42,
          "name": "F#2",
          "ticks": 83520,
          "time": 121.9624725,
          "velocity": 0.3937007874015748
        },
        {
          "duration": 0.28037349999999606,
          "durationTicks": 192,
          "midi": 39,
          "name": "D#2",
          "ticks": 83520,
          "time": 121.9624725,
          "velocity": 0.3937007874015748
        },
        {
          "duration": 0.5607469999999921,
          "durationTicks": 384,
          "midi": 73,
          "name": "C#5",
          "ticks": 83712,
          "time": 122.242846,
          "velocity": 0.3937007874015748
        },
        {
          "duration": 0.5607469999999921,
          "durationTicks": 384,
          "midi": 61,
          "name": "C#4",
          "ticks": 83712,
          "time": 122.242846,
          "velocity": 0.3937007874015748
        },
        {
          "duration": 0.28037349999999606,
          "durationTicks": 192,
          "midi": 30,
          "name": "F#1",
          "ticks": 83712,
          "time": 122.242846,
          "velocity": 0.3937007874015748
        },
        {
          "duration": 0.28037349999999606,
          "durationTicks": 192,
          "midi": 37,
          "name": "C#2",
          "ticks": 83712,
          "time": 122.242846,
          "velocity": 0.3937007874015748
        },
        {
          "duration": 0.28037349999999606,
          "durationTicks": 192,
          "midi": 42,
          "name": "F#2",
          "ticks": 83712,
          "time": 122.242846,
          "velocity": 0.3937007874015748
        },
        {
          "duration": 0.28037349999999606,
          "durationTicks": 192,
          "midi": 33,
          "name": "A1",
          "ticks": 83712,
          "time": 122.242846,
          "velocity": 0.3937007874015748
        },
        {
          "duration": 0.14018674999999803,
          "durationTicks": 96,
          "midi": 30,
          "name": "F#1",
          "ticks": 83904,
          "time": 122.5232195,
          "velocity": 0.3937007874015748
        },
        {
          "duration": 0.14018674999999803,
          "durationTicks": 96,
          "midi": 30,
          "name": "F#1",
          "ticks": 84000,
          "time": 122.66340625,
          "velocity": 0.3937007874015748
        },
        {
          "duration": 0.28037350000001027,
          "durationTicks": 192,
          "midi": 71,
          "name": "B4",
          "ticks": 84096,
          "time": 122.80359299999999,
          "velocity": 0.3937007874015748
        },
        {
          "duration": 0.28037350000001027,
          "durationTicks": 192,
          "midi": 59,
          "name": "B3",
          "ticks": 84096,
          "time": 122.80359299999999,
          "velocity": 0.3937007874015748
        },
        {
          "duration": 0.14018674999999803,
          "durationTicks": 96,
          "midi": 30,
          "name": "F#1",
          "ticks": 84192,
          "time": 122.94377975,
          "velocity": 0.3937007874015748
        },
        {
          "duration": 0.28037349999999606,
          "durationTicks": 192,
          "midi": 61,
          "name": "C#4",
          "ticks": 84288,
          "time": 123.0839665,
          "velocity": 0.3937007874015748
        },
        {
          "duration": 0.28037349999999606,
          "durationTicks": 192,
          "midi": 73,
          "name": "C#5",
          "ticks": 84288,
          "time": 123.0839665,
          "velocity": 0.3937007874015748
        },
        {
          "duration": 0.28037349999999606,
          "durationTicks": 192,
          "midi": 30,
          "name": "F#1",
          "ticks": 84288,
          "time": 123.0839665,
          "velocity": 0.3937007874015748
        },
        {
          "duration": 0.28037349999999606,
          "durationTicks": 192,
          "midi": 37,
          "name": "C#2",
          "ticks": 84288,
          "time": 123.0839665,
          "velocity": 0.3937007874015748
        },
        {
          "duration": 0.28037349999999606,
          "durationTicks": 192,
          "midi": 42,
          "name": "F#2",
          "ticks": 84288,
          "time": 123.0839665,
          "velocity": 0.3937007874015748
        },
        {
          "duration": 0.28037349999999606,
          "durationTicks": 192,
          "midi": 33,
          "name": "A1",
          "ticks": 84288,
          "time": 123.0839665,
          "velocity": 0.3937007874015748
        },
        {
          "duration": 0.5607470000000063,
          "durationTicks": 384,
          "midi": 76,
          "name": "E5",
          "ticks": 84480,
          "time": 123.36434,
          "velocity": 0.3937007874015748
        },
        {
          "duration": 0.5607470000000063,
          "durationTicks": 384,
          "midi": 64,
          "name": "E4",
          "ticks": 84480,
          "time": 123.36434,
          "velocity": 0.3937007874015748
        },
        {
          "duration": 0.28037349999999606,
          "durationTicks": 192,
          "midi": 33,
          "name": "A1",
          "ticks": 84480,
          "time": 123.36434,
          "velocity": 0.3937007874015748
        },
        {
          "duration": 0.28037349999999606,
          "durationTicks": 192,
          "midi": 40,
          "name": "E2",
          "ticks": 84480,
          "time": 123.36434,
          "velocity": 0.3937007874015748
        },
        {
          "duration": 0.28037349999999606,
          "durationTicks": 192,
          "midi": 45,
          "name": "A2",
          "ticks": 84480,
          "time": 123.36434,
          "velocity": 0.3937007874015748
        },
        {
          "duration": 0.28037349999999606,
          "durationTicks": 192,
          "midi": 37,
          "name": "C#2",
          "ticks": 84480,
          "time": 123.36434,
          "velocity": 0.3937007874015748
        },
        {
          "duration": 0.14018674999999803,
          "durationTicks": 96,
          "midi": 33,
          "name": "A1",
          "ticks": 84672,
          "time": 123.6447135,
          "velocity": 0.3937007874015748
        },
        {
          "duration": 0.14018675000001224,
          "durationTicks": 96,
          "midi": 33,
          "name": "A1",
          "ticks": 84768,
          "time": 123.78490024999999,
          "velocity": 0.3937007874015748
        },
        {
          "duration": 0.28037349999999606,
          "durationTicks": 192,
          "midi": 78,
          "name": "F#5",
          "ticks": 84864,
          "time": 123.925087,
          "velocity": 0.3937007874015748
        },
        {
          "duration": 0.28037349999999606,
          "durationTicks": 192,
          "midi": 66,
          "name": "F#4",
          "ticks": 84864,
          "time": 123.925087,
          "velocity": 0.3937007874015748
        },
        {
          "duration": 0.14018674999999803,
          "durationTicks": 96,
          "midi": 33,
          "name": "A1",
          "ticks": 84960,
          "time": 124.06527375,
          "velocity": 0.3937007874015748
        },
        {
          "duration": 0.28037349999999606,
          "durationTicks": 192,
          "midi": 68,
          "name": "G#4",
          "ticks": 85056,
          "time": 124.2054605,
          "velocity": 0.3937007874015748
        },
        {
          "duration": 0.28037349999999606,
          "durationTicks": 192,
          "midi": 80,
          "name": "G#5",
          "ticks": 85056,
          "time": 124.2054605,
          "velocity": 0.3937007874015748
        },
        {
          "duration": 0.28037349999999606,
          "durationTicks": 192,
          "midi": 45,
          "name": "A2",
          "ticks": 85056,
          "time": 124.2054605,
          "velocity": 0.3937007874015748
        },
        {
          "duration": 0.28037349999999606,
          "durationTicks": 192,
          "midi": 33,
          "name": "A1",
          "ticks": 85056,
          "time": 124.2054605,
          "velocity": 0.3937007874015748
        },
        {
          "duration": 0.28037349999999606,
          "durationTicks": 192,
          "midi": 40,
          "name": "E2",
          "ticks": 85056,
          "time": 124.2054605,
          "velocity": 0.3937007874015748
        },
        {
          "duration": 0.28037349999999606,
          "durationTicks": 192,
          "midi": 37,
          "name": "C#2",
          "ticks": 85056,
          "time": 124.2054605,
          "velocity": 0.3937007874015748
        },
        {
          "duration": 0.5607470000000063,
          "durationTicks": 384,
          "midi": 66,
          "name": "F#4",
          "ticks": 85248,
          "time": 124.485834,
          "velocity": 0.3937007874015748
        },
        {
          "duration": 0.5607470000000063,
          "durationTicks": 384,
          "midi": 78,
          "name": "F#5",
          "ticks": 85248,
          "time": 124.485834,
          "velocity": 0.3937007874015748
        },
        {
          "duration": 0.28037349999999606,
          "durationTicks": 192,
          "midi": 35,
          "name": "B1",
          "ticks": 85248,
          "time": 124.485834,
          "velocity": 0.3937007874015748
        },
        {
          "duration": 0.28037349999999606,
          "durationTicks": 192,
          "midi": 47,
          "name": "B2",
          "ticks": 85248,
          "time": 124.485834,
          "velocity": 0.3937007874015748
        },
        {
          "duration": 0.28037349999999606,
          "durationTicks": 192,
          "midi": 42,
          "name": "F#2",
          "ticks": 85248,
          "time": 124.485834,
          "velocity": 0.3937007874015748
        },
        {
          "duration": 0.28037349999999606,
          "durationTicks": 192,
          "midi": 39,
          "name": "D#2",
          "ticks": 85248,
          "time": 124.485834,
          "velocity": 0.3937007874015748
        },
        {
          "duration": 0.14018675000001224,
          "durationTicks": 96,
          "midi": 35,
          "name": "B1",
          "ticks": 85440,
          "time": 124.7662075,
          "velocity": 0.3937007874015748
        },
        {
          "duration": 0.14018674999999803,
          "durationTicks": 96,
          "midi": 35,
          "name": "B1",
          "ticks": 85536,
          "time": 124.90639425,
          "velocity": 0.3937007874015748
        },
        {
          "duration": 0.28037349999999606,
          "durationTicks": 192,
          "midi": 64,
          "name": "E4",
          "ticks": 85632,
          "time": 125.046581,
          "velocity": 0.3937007874015748
        },
        {
          "duration": 0.28037349999999606,
          "durationTicks": 192,
          "midi": 76,
          "name": "E5",
          "ticks": 85632,
          "time": 125.046581,
          "velocity": 0.3937007874015748
        },
        {
          "duration": 0.14018674999999803,
          "durationTicks": 96,
          "midi": 35,
          "name": "B1",
          "ticks": 85728,
          "time": 125.18676775,
          "velocity": 0.3937007874015748
        },
        {
          "duration": 0.28037349999999606,
          "durationTicks": 192,
          "midi": 61,
          "name": "C#4",
          "ticks": 85824,
          "time": 125.3269545,
          "velocity": 0.3937007874015748
        },
        {
          "duration": 0.28037349999999606,
          "durationTicks": 192,
          "midi": 73,
          "name": "C#5",
          "ticks": 85824,
          "time": 125.3269545,
          "velocity": 0.3937007874015748
        },
        {
          "duration": 0.28037349999999606,
          "durationTicks": 192,
          "midi": 47,
          "name": "B2",
          "ticks": 85824,
          "time": 125.3269545,
          "velocity": 0.3937007874015748
        },
        {
          "duration": 0.28037349999999606,
          "durationTicks": 192,
          "midi": 35,
          "name": "B1",
          "ticks": 85824,
          "time": 125.3269545,
          "velocity": 0.3937007874015748
        },
        {
          "duration": 0.28037349999999606,
          "durationTicks": 192,
          "midi": 42,
          "name": "F#2",
          "ticks": 85824,
          "time": 125.3269545,
          "velocity": 0.3937007874015748
        },
        {
          "duration": 0.28037349999999606,
          "durationTicks": 192,
          "midi": 39,
          "name": "D#2",
          "ticks": 85824,
          "time": 125.3269545,
          "velocity": 0.3937007874015748
        },
        {
          "duration": 2.242987999999997,
          "durationTicks": 1536,
          "midi": 76,
          "name": "E5",
          "ticks": 86016,
          "time": 125.607328,
          "velocity": 0.3937007874015748
        },
        {
          "duration": 2.242987999999997,
          "durationTicks": 1536,
          "midi": 64,
          "name": "E4",
          "ticks": 86016,
          "time": 125.607328,
          "velocity": 0.3937007874015748
        },
        {
          "duration": 2.242987999999997,
          "durationTicks": 1536,
          "midi": 37,
          "name": "C#2",
          "ticks": 86016,
          "time": 125.607328,
          "velocity": 0.3937007874015748
        },
        {
          "duration": 2.242987999999997,
          "durationTicks": 1536,
          "midi": 49,
          "name": "C#3",
          "ticks": 86016,
          "time": 125.607328,
          "velocity": 0.3937007874015748
        },
        {
          "duration": 2.242987999999997,
          "durationTicks": 1536,
          "midi": 44,
          "name": "G#2",
          "ticks": 86016,
          "time": 125.607328,
          "velocity": 0.3937007874015748
        },
        {
          "duration": 2.242987999999997,
          "durationTicks": 1536,
          "midi": 40,
          "name": "E2",
          "ticks": 86016,
          "time": 125.607328,
          "velocity": 0.3937007874015748
        },
        {
          "duration": 0.14018674999999803,
          "durationTicks": 96,
          "midi": 61,
          "name": "C#4",
          "ticks": 89088,
          "time": 130.093304,
          "velocity": 0.3937007874015748
        },
        {
          "duration": 0.14018674999999803,
          "durationTicks": 96,
          "midi": 25,
          "name": "C#1",
          "ticks": 89088,
          "time": 130.093304,
          "velocity": 0.3937007874015748
        },
        {
          "duration": 0.4205602500000225,
          "durationTicks": 288,
          "midi": 61,
          "name": "C#4",
          "ticks": 89184,
          "time": 130.23349075,
          "velocity": 0.3937007874015748
        },
        {
          "duration": 0.14018674999999803,
          "durationTicks": 96,
          "midi": 32,
          "name": "G#1",
          "ticks": 89184,
          "time": 130.23349075,
          "velocity": 0.3937007874015748
        },
        {
          "duration": 0.14018675000002645,
          "durationTicks": 96,
          "midi": 37,
          "name": "C#2",
          "ticks": 89280,
          "time": 130.37367749999999,
          "velocity": 0.3937007874015748
        },
        {
          "duration": 0.14018674999999803,
          "durationTicks": 96,
          "midi": 32,
          "name": "G#1",
          "ticks": 89376,
          "time": 130.51386425,
          "velocity": 0.3937007874015748
        },
        {
          "duration": 0.28037349999999606,
          "durationTicks": 192,
          "midi": 64,
          "name": "E4",
          "ticks": 89472,
          "time": 130.654051,
          "velocity": 0.3937007874015748
        },
        {
          "duration": 0.14018674999999803,
          "durationTicks": 96,
          "midi": 40,
          "name": "E2",
          "ticks": 89472,
          "time": 130.654051,
          "velocity": 0.3937007874015748
        },
        {
          "duration": 0.14018674999999803,
          "durationTicks": 96,
          "midi": 37,
          "name": "C#2",
          "ticks": 89568,
          "time": 130.79423775,
          "velocity": 0.3937007874015748
        },
        {
          "duration": 0.14018674999999803,
          "durationTicks": 96,
          "midi": 66,
          "name": "F#4",
          "ticks": 89664,
          "time": 130.9344245,
          "velocity": 0.3937007874015748
        },
        {
          "duration": 0.14018674999999803,
          "durationTicks": 96,
          "midi": 25,
          "name": "C#1",
          "ticks": 89664,
          "time": 130.9344245,
          "velocity": 0.3937007874015748
        },
        {
          "duration": 0.4205602499999941,
          "durationTicks": 288,
          "midi": 61,
          "name": "C#4",
          "ticks": 89760,
          "time": 131.07461125,
          "velocity": 0.3937007874015748
        },
        {
          "duration": 0.14018674999999803,
          "durationTicks": 96,
          "midi": 32,
          "name": "G#1",
          "ticks": 89760,
          "time": 131.07461125,
          "velocity": 0.3937007874015748
        },
        {
          "duration": 0.14018674999999803,
          "durationTicks": 96,
          "midi": 33,
          "name": "A1",
          "ticks": 89856,
          "time": 131.214798,
          "velocity": 0.3937007874015748
        },
        {
          "duration": 0.14018674999999803,
          "durationTicks": 96,
          "midi": 28,
          "name": "E1",
          "ticks": 89952,
          "time": 131.35498475,
          "velocity": 0.3937007874015748
        },
        {
          "duration": 0.14018674999999803,
          "durationTicks": 96,
          "midi": 33,
          "name": "A1",
          "ticks": 90048,
          "time": 131.4951715,
          "velocity": 0.3937007874015748
        },
        {
          "duration": 0.14018674999999803,
          "durationTicks": 96,
          "midi": 35,
          "name": "B1",
          "ticks": 90144,
          "time": 131.63535825,
          "velocity": 0.3937007874015748
        },
        {
          "duration": 0.14018674999999803,
          "durationTicks": 96,
          "midi": 37,
          "name": "C#2",
          "ticks": 90240,
          "time": 131.775545,
          "velocity": 0.3937007874015748
        },
        {
          "duration": 0.14018674999999803,
          "durationTicks": 96,
          "midi": 35,
          "name": "B1",
          "ticks": 90336,
          "time": 131.91573175,
          "velocity": 0.3937007874015748
        },
        {
          "duration": 0.28037349999999606,
          "durationTicks": 192,
          "midi": 59,
          "name": "B3",
          "ticks": 90432,
          "time": 132.0559185,
          "velocity": 0.3937007874015748
        },
        {
          "duration": 0.14018674999999803,
          "durationTicks": 96,
          "midi": 33,
          "name": "A1",
          "ticks": 90432,
          "time": 132.0559185,
          "velocity": 0.3937007874015748
        },
        {
          "duration": 0.14018674999999803,
          "durationTicks": 96,
          "midi": 28,
          "name": "E1",
          "ticks": 90528,
          "time": 132.19610525,
          "velocity": 0.3937007874015748
        },
        {
          "duration": 0.2803735000000245,
          "durationTicks": 192,
          "midi": 68,
          "name": "G#4",
          "ticks": 90624,
          "time": 132.336292,
          "velocity": 0.3937007874015748
        },
        {
          "duration": 0.14018675000002645,
          "durationTicks": 96,
          "midi": 28,
          "name": "E1",
          "ticks": 90624,
          "time": 132.336292,
          "velocity": 0.3937007874015748
        },
        {
          "duration": 0.14018674999999803,
          "durationTicks": 96,
          "midi": 40,
          "name": "E2",
          "ticks": 90720,
          "time": 132.47647875,
          "velocity": 0.3937007874015748
        },
        {
          "duration": 0.28037349999999606,
          "durationTicks": 192,
          "midi": 68,
          "name": "G#4",
          "ticks": 90816,
          "time": 132.6166655,
          "velocity": 0.3937007874015748
        },
        {
          "duration": 0.14018674999999803,
          "durationTicks": 96,
          "midi": 35,
          "name": "B1",
          "ticks": 90816,
          "time": 132.6166655,
          "velocity": 0.3937007874015748
        },
        {
          "duration": 0.14018674999999803,
          "durationTicks": 96,
          "midi": 40,
          "name": "E2",
          "ticks": 90912,
          "time": 132.75685225,
          "velocity": 0.3937007874015748
        },
        {
          "duration": 0.28037349999999606,
          "durationTicks": 192,
          "midi": 68,
          "name": "G#4",
          "ticks": 91008,
          "time": 132.897039,
          "velocity": 0.3937007874015748
        },
        {
          "duration": 0.14018674999999803,
          "durationTicks": 96,
          "midi": 44,
          "name": "G#2",
          "ticks": 91008,
          "time": 132.897039,
          "velocity": 0.3937007874015748
        },
        {
          "duration": 0.14018674999999803,
          "durationTicks": 96,
          "midi": 40,
          "name": "E2",
          "ticks": 91104,
          "time": 133.03722575,
          "velocity": 0.3937007874015748
        },
        {
          "duration": 0.28037349999999606,
          "durationTicks": 192,
          "midi": 68,
          "name": "G#4",
          "ticks": 91200,
          "time": 133.1774125,
          "velocity": 0.3937007874015748
        },
        {
          "duration": 0.14018674999999803,
          "durationTicks": 96,
          "midi": 35,
          "name": "B1",
          "ticks": 91200,
          "time": 133.1774125,
          "velocity": 0.3937007874015748
        },
        {
          "duration": 0.14018674999999803,
          "durationTicks": 96,
          "midi": 40,
          "name": "E2",
          "ticks": 91296,
          "time": 133.31759925,
          "velocity": 0.3937007874015748
        },
        {
          "duration": 0.28037349999999606,
          "durationTicks": 192,
          "midi": 66,
          "name": "F#4",
          "ticks": 91392,
          "time": 133.457786,
          "velocity": 0.3937007874015748
        },
        {
          "duration": 0.14018674999999803,
          "durationTicks": 96,
          "midi": 35,
          "name": "B1",
          "ticks": 91392,
          "time": 133.457786,
          "velocity": 0.3937007874015748
        },
        {
          "duration": 0.14018674999999803,
          "durationTicks": 96,
          "midi": 35,
          "name": "B1",
          "ticks": 91488,
          "time": 133.59797275,
          "velocity": 0.3937007874015748
        },
        {
          "duration": 0.14018674999999803,
          "durationTicks": 96,
          "midi": 64,
          "name": "E4",
          "ticks": 91584,
          "time": 133.7381595,
          "velocity": 0.3937007874015748
        },
        {
          "duration": 0.14018674999999803,
          "durationTicks": 96,
          "midi": 30,
          "name": "F#1",
          "ticks": 91584,
          "time": 133.7381595,
          "velocity": 0.3937007874015748
        },
        {
          "duration": 0.28037349999999606,
          "durationTicks": 192,
          "midi": 66,
          "name": "F#4",
          "ticks": 91680,
          "time": 133.87834625,
          "velocity": 0.3937007874015748
        },
        {
          "duration": 0.14018674999999803,
          "durationTicks": 96,
          "midi": 35,
          "name": "B1",
          "ticks": 91680,
          "time": 133.87834625,
          "velocity": 0.3937007874015748
        },
        {
          "duration": 0.14018674999999803,
          "durationTicks": 96,
          "midi": 39,
          "name": "D#2",
          "ticks": 91776,
          "time": 134.018533,
          "velocity": 0.3937007874015748
        },
        {
          "duration": 0.28037349999999606,
          "durationTicks": 192,
          "midi": 68,
          "name": "G#4",
          "ticks": 91872,
          "time": 134.15871975,
          "velocity": 0.3937007874015748
        },
        {
          "duration": 0.14018674999999803,
          "durationTicks": 96,
          "midi": 35,
          "name": "B1",
          "ticks": 91872,
          "time": 134.15871975,
          "velocity": 0.3937007874015748
        },
        {
          "duration": 0.14018674999999803,
          "durationTicks": 96,
          "midi": 30,
          "name": "F#1",
          "ticks": 91968,
          "time": 134.2989065,
          "velocity": 0.3937007874015748
        },
        {
          "duration": 0.14018675000002645,
          "durationTicks": 96,
          "midi": 35,
          "name": "B1",
          "ticks": 92064,
          "time": 134.43909324999998,
          "velocity": 0.3937007874015748
        },
        {
          "duration": 0.14018674999999803,
          "durationTicks": 96,
          "midi": 61,
          "name": "C#4",
          "ticks": 92160,
          "time": 134.57928,
          "velocity": 0.3937007874015748
        },
        {
          "duration": 0.14018674999999803,
          "durationTicks": 96,
          "midi": 25,
          "name": "C#1",
          "ticks": 92160,
          "time": 134.57928,
          "velocity": 0.3937007874015748
        },
        {
          "duration": 0.4205602499999941,
          "durationTicks": 288,
          "midi": 61,
          "name": "C#4",
          "ticks": 92256,
          "time": 134.71946675,
          "velocity": 0.3937007874015748
        },
        {
          "duration": 0.14018674999999803,
          "durationTicks": 96,
          "midi": 32,
          "name": "G#1",
          "ticks": 92256,
          "time": 134.71946675,
          "velocity": 0.3937007874015748
        },
        {
          "duration": 0.14018674999999803,
          "durationTicks": 96,
          "midi": 37,
          "name": "C#2",
          "ticks": 92352,
          "time": 134.8596535,
          "velocity": 0.3937007874015748
        },
        {
          "duration": 0.14018674999999803,
          "durationTicks": 96,
          "midi": 32,
          "name": "G#1",
          "ticks": 92448,
          "time": 134.99984025,
          "velocity": 0.3937007874015748
        },
        {
          "duration": 0.28037349999999606,
          "durationTicks": 192,
          "midi": 64,
          "name": "E4",
          "ticks": 92544,
          "time": 135.140027,
          "velocity": 0.3937007874015748
        },
        {
          "duration": 0.14018674999999803,
          "durationTicks": 96,
          "midi": 40,
          "name": "E2",
          "ticks": 92544,
          "time": 135.140027,
          "velocity": 0.3937007874015748
        },
        {
          "duration": 0.14018674999999803,
          "durationTicks": 96,
          "midi": 37,
          "name": "C#2",
          "ticks": 92640,
          "time": 135.28021375,
          "velocity": 0.3937007874015748
        },
        {
          "duration": 0.14018674999999803,
          "durationTicks": 96,
          "midi": 66,
          "name": "F#4",
          "ticks": 92736,
          "time": 135.4204005,
          "velocity": 0.3937007874015748
        },
        {
          "duration": 0.14018674999999803,
          "durationTicks": 96,
          "midi": 25,
          "name": "C#1",
          "ticks": 92736,
          "time": 135.4204005,
          "velocity": 0.3937007874015748
        },
        {
          "duration": 0.28037349999999606,
          "durationTicks": 192,
          "midi": 61,
          "name": "C#4",
          "ticks": 92832,
          "time": 135.56058725,
          "velocity": 0.3937007874015748
        },
        {
          "duration": 0.14018674999999803,
          "durationTicks": 96,
          "midi": 32,
          "name": "G#1",
          "ticks": 92832,
          "time": 135.56058725,
          "velocity": 0.3937007874015748
        },
        {
          "duration": 0.14018674999999803,
          "durationTicks": 96,
          "midi": 33,
          "name": "A1",
          "ticks": 92928,
          "time": 135.700774,
          "velocity": 0.3937007874015748
        },
        {
          "duration": 0.14018674999999803,
          "durationTicks": 96,
          "midi": 28,
          "name": "E1",
          "ticks": 93024,
          "time": 135.84096075,
          "velocity": 0.3937007874015748
        },
        {
          "duration": 0.14018674999999803,
          "durationTicks": 96,
          "midi": 33,
          "name": "A1",
          "ticks": 93120,
          "time": 135.9811475,
          "velocity": 0.3937007874015748
        },
        {
          "duration": 0.14018674999999803,
          "durationTicks": 96,
          "midi": 35,
          "name": "B1",
          "ticks": 93216,
          "time": 136.12133425,
          "velocity": 0.3937007874015748
        },
        {
          "duration": 0.14018674999999803,
          "durationTicks": 96,
          "midi": 37,
          "name": "C#2",
          "ticks": 93312,
          "time": 136.261521,
          "velocity": 0.3937007874015748
        },
        {
          "duration": 0.14018675000002645,
          "durationTicks": 96,
          "midi": 35,
          "name": "B1",
          "ticks": 93408,
          "time": 136.40170774999999,
          "velocity": 0.3937007874015748
        },
        {
          "duration": 0.14018674999999803,
          "durationTicks": 96,
          "midi": 64,
          "name": "E4",
          "ticks": 93504,
          "time": 136.5418945,
          "velocity": 0.3937007874015748
        },
        {
          "duration": 0.14018674999999803,
          "durationTicks": 96,
          "midi": 33,
          "name": "A1",
          "ticks": 93504,
          "time": 136.5418945,
          "velocity": 0.3937007874015748
        },
        {
          "duration": 0.14018674999999803,
          "durationTicks": 96,
          "midi": 66,
          "name": "F#4",
          "ticks": 93600,
          "time": 136.68208125,
          "velocity": 0.3937007874015748
        },
        {
          "duration": 0.14018674999999803,
          "durationTicks": 96,
          "midi": 28,
          "name": "E1",
          "ticks": 93600,
          "time": 136.68208125,
          "velocity": 0.3937007874015748
        },
        {
          "duration": 0.28037349999999606,
          "durationTicks": 192,
          "midi": 68,
          "name": "G#4",
          "ticks": 93696,
          "time": 136.822268,
          "velocity": 0.3937007874015748
        },
        {
          "duration": 0.14018674999999803,
          "durationTicks": 96,
          "midi": 28,
          "name": "E1",
          "ticks": 93696,
          "time": 136.822268,
          "velocity": 0.3937007874015748
        },
        {
          "duration": 0.14018674999999803,
          "durationTicks": 96,
          "midi": 40,
          "name": "E2",
          "ticks": 93792,
          "time": 136.96245475,
          "velocity": 0.3937007874015748
        },
        {
          "duration": 0.28037349999999606,
          "durationTicks": 192,
          "midi": 68,
          "name": "G#4",
          "ticks": 93888,
          "time": 137.1026415,
          "velocity": 0.3937007874015748
        },
        {
          "duration": 0.14018674999999803,
          "durationTicks": 96,
          "midi": 35,
          "name": "B1",
          "ticks": 93888,
          "time": 137.1026415,
          "velocity": 0.3937007874015748
        },
        {
          "duration": 0.14018674999999803,
          "durationTicks": 96,
          "midi": 40,
          "name": "E2",
          "ticks": 93984,
          "time": 137.24282825,
          "velocity": 0.3937007874015748
        },
        {
          "duration": 0.28037349999999606,
          "durationTicks": 192,
          "midi": 66,
          "name": "F#4",
          "ticks": 94080,
          "time": 137.383015,
          "velocity": 0.3937007874015748
        },
        {
          "duration": 0.14018674999999803,
          "durationTicks": 96,
          "midi": 44,
          "name": "G#2",
          "ticks": 94080,
          "time": 137.383015,
          "velocity": 0.3937007874015748
        },
        {
          "duration": 0.14018674999999803,
          "durationTicks": 96,
          "midi": 40,
          "name": "E2",
          "ticks": 94176,
          "time": 137.52320175,
          "velocity": 0.3937007874015748
        },
        {
          "duration": 0.14018674999999803,
          "durationTicks": 96,
          "midi": 64,
          "name": "E4",
          "ticks": 94272,
          "time": 137.6633885,
          "velocity": 0.3937007874015748
        },
        {
          "duration": 0.14018674999999803,
          "durationTicks": 96,
          "midi": 35,
          "name": "B1",
          "ticks": 94272,
          "time": 137.6633885,
          "velocity": 0.3937007874015748
        },
        {
          "duration": 0.28037349999999606,
          "durationTicks": 192,
          "midi": 66,
          "name": "F#4",
          "ticks": 94368,
          "time": 137.80357525,
          "velocity": 0.3937007874015748
        },
        {
          "duration": 0.28037349999999606,
          "durationTicks": 192,
          "midi": 59,
          "name": "B3",
          "ticks": 94368,
          "time": 137.80357525,
          "velocity": 0.3937007874015748
        },
        {
          "duration": 0.14018674999999803,
          "durationTicks": 96,
          "midi": 40,
          "name": "E2",
          "ticks": 94368,
          "time": 137.80357525,
          "velocity": 0.3937007874015748
        },
        {
          "duration": 0.14018674999999803,
          "durationTicks": 96,
          "midi": 35,
          "name": "B1",
          "ticks": 94464,
          "time": 137.943762,
          "velocity": 0.3937007874015748
        },
        {
          "duration": 0.14018674999999803,
          "durationTicks": 96,
          "midi": 35,
          "name": "B1",
          "ticks": 94560,
          "time": 138.08394875,
          "velocity": 0.3937007874015748
        },
        {
          "duration": 0.14018674999999803,
          "durationTicks": 96,
          "midi": 30,
          "name": "F#1",
          "ticks": 94656,
          "time": 138.2241355,
          "velocity": 0.3937007874015748
        },
        {
          "duration": 0.14018675000002645,
          "durationTicks": 96,
          "midi": 35,
          "name": "B1",
          "ticks": 94752,
          "time": 138.36432225,
          "velocity": 0.3937007874015748
        },
        {
          "duration": 0.14018674999999803,
          "durationTicks": 96,
          "midi": 39,
          "name": "D#2",
          "ticks": 94848,
          "time": 138.504509,
          "velocity": 0.3937007874015748
        },
        {
          "duration": 0.14018674999999803,
          "durationTicks": 96,
          "midi": 35,
          "name": "B1",
          "ticks": 94944,
          "time": 138.64469575,
          "velocity": 0.3937007874015748
        },
        {
          "duration": 0.14018674999999803,
          "durationTicks": 96,
          "midi": 30,
          "name": "F#1",
          "ticks": 95040,
          "time": 138.7848825,
          "velocity": 0.3937007874015748
        },
        {
          "duration": 0.14018674999999803,
          "durationTicks": 96,
          "midi": 35,
          "name": "B1",
          "ticks": 95136,
          "time": 138.92506925,
          "velocity": 0.3937007874015748
        },
        {
          "duration": 0.14018674999999803,
          "durationTicks": 96,
          "midi": 61,
          "name": "C#4",
          "ticks": 95232,
          "time": 139.065256,
          "velocity": 0.3937007874015748
        },
        {
          "duration": 0.14018674999999803,
          "durationTicks": 96,
          "midi": 25,
          "name": "C#1",
          "ticks": 95232,
          "time": 139.065256,
          "velocity": 0.3937007874015748
        },
        {
          "duration": 0.4205602499999941,
          "durationTicks": 288,
          "midi": 61,
          "name": "C#4",
          "ticks": 95328,
          "time": 139.20544275,
          "velocity": 0.3937007874015748
        },
        {
          "duration": 0.14018674999999803,
          "durationTicks": 96,
          "midi": 32,
          "name": "G#1",
          "ticks": 95328,
          "time": 139.20544275,
          "velocity": 0.3937007874015748
        },
        {
          "duration": 0.14018674999999803,
          "durationTicks": 96,
          "midi": 37,
          "name": "C#2",
          "ticks": 95424,
          "time": 139.3456295,
          "velocity": 0.3937007874015748
        },
        {
          "duration": 0.14018674999999803,
          "durationTicks": 96,
          "midi": 32,
          "name": "G#1",
          "ticks": 95520,
          "time": 139.48581625,
          "velocity": 0.3937007874015748
        },
        {
          "duration": 0.28037349999999606,
          "durationTicks": 192,
          "midi": 64,
          "name": "E4",
          "ticks": 95616,
          "time": 139.626003,
          "velocity": 0.3937007874015748
        },
        {
          "duration": 0.14018674999999803,
          "durationTicks": 96,
          "midi": 40,
          "name": "E2",
          "ticks": 95616,
          "time": 139.626003,
          "velocity": 0.3937007874015748
        },
        {
          "duration": 0.14018674999999803,
          "durationTicks": 96,
          "midi": 37,
          "name": "C#2",
          "ticks": 95712,
          "time": 139.76618975,
          "velocity": 0.3937007874015748
        },
        {
          "duration": 0.14018674999999803,
          "durationTicks": 96,
          "midi": 66,
          "name": "F#4",
          "ticks": 95808,
          "time": 139.9063765,
          "velocity": 0.3937007874015748
        },
        {
          "duration": 0.14018674999999803,
          "durationTicks": 96,
          "midi": 25,
          "name": "C#1",
          "ticks": 95808,
          "time": 139.9063765,
          "velocity": 0.3937007874015748
        },
        {
          "duration": 0.28037349999999606,
          "durationTicks": 192,
          "midi": 61,
          "name": "C#4",
          "ticks": 95904,
          "time": 140.04656325,
          "velocity": 0.3937007874015748
        },
        {
          "duration": 0.14018674999999803,
          "durationTicks": 96,
          "midi": 32,
          "name": "G#1",
          "ticks": 95904,
          "time": 140.04656325,
          "velocity": 0.3937007874015748
        },
        {
          "duration": 0.14018674999999803,
          "durationTicks": 96,
          "midi": 33,
          "name": "A1",
          "ticks": 96000,
          "time": 140.18675,
          "velocity": 0.3937007874015748
        },
        {
          "duration": 0.14018674999999803,
          "durationTicks": 96,
          "midi": 28,
          "name": "E1",
          "ticks": 96096,
          "time": 140.32693675,
          "velocity": 0.3937007874015748
        },
        {
          "duration": 0.14018675000002645,
          "durationTicks": 96,
          "midi": 33,
          "name": "A1",
          "ticks": 96192,
          "time": 140.46712349999999,
          "velocity": 0.3937007874015748
        },
        {
          "duration": 0.14018674999999803,
          "durationTicks": 96,
          "midi": 35,
          "name": "B1",
          "ticks": 96288,
          "time": 140.60731025,
          "velocity": 0.3937007874015748
        },
        {
          "duration": 0.14018674999999803,
          "durationTicks": 96,
          "midi": 37,
          "name": "C#2",
          "ticks": 96384,
          "time": 140.747497,
          "velocity": 0.3937007874015748
        },
        {
          "duration": 0.14018674999999803,
          "durationTicks": 96,
          "midi": 35,
          "name": "B1",
          "ticks": 96480,
          "time": 140.88768375,
          "velocity": 0.3937007874015748
        },
        {
          "duration": 0.28037349999999606,
          "durationTicks": 192,
          "midi": 59,
          "name": "B3",
          "ticks": 96576,
          "time": 141.0278705,
          "velocity": 0.3937007874015748
        },
        {
          "duration": 0.14018674999999803,
          "durationTicks": 96,
          "midi": 33,
          "name": "A1",
          "ticks": 96576,
          "time": 141.0278705,
          "velocity": 0.3937007874015748
        },
        {
          "duration": 0.14018674999999803,
          "durationTicks": 96,
          "midi": 28,
          "name": "E1",
          "ticks": 96672,
          "time": 141.16805725,
          "velocity": 0.3937007874015748
        },
        {
          "duration": 0.28037349999999606,
          "durationTicks": 192,
          "midi": 68,
          "name": "G#4",
          "ticks": 96768,
          "time": 141.308244,
          "velocity": 0.3937007874015748
        },
        {
          "duration": 0.14018674999999803,
          "durationTicks": 96,
          "midi": 28,
          "name": "E1",
          "ticks": 96768,
          "time": 141.308244,
          "velocity": 0.3937007874015748
        },
        {
          "duration": 0.14018674999999803,
          "durationTicks": 96,
          "midi": 40,
          "name": "E2",
          "ticks": 96864,
          "time": 141.44843075,
          "velocity": 0.3937007874015748
        },
        {
          "duration": 0.28037349999999606,
          "durationTicks": 192,
          "midi": 68,
          "name": "G#4",
          "ticks": 96960,
          "time": 141.5886175,
          "velocity": 0.3937007874015748
        },
        {
          "duration": 0.14018674999999803,
          "durationTicks": 96,
          "midi": 35,
          "name": "B1",
          "ticks": 96960,
          "time": 141.5886175,
          "velocity": 0.3937007874015748
        },
        {
          "duration": 0.14018674999999803,
          "durationTicks": 96,
          "midi": 40,
          "name": "E2",
          "ticks": 97056,
          "time": 141.72880425,
          "velocity": 0.3937007874015748
        },
        {
          "duration": 0.28037349999999606,
          "durationTicks": 192,
          "midi": 68,
          "name": "G#4",
          "ticks": 97152,
          "time": 141.868991,
          "velocity": 0.3937007874015748
        },
        {
          "duration": 0.14018674999999803,
          "durationTicks": 96,
          "midi": 44,
          "name": "G#2",
          "ticks": 97152,
          "time": 141.868991,
          "velocity": 0.3937007874015748
        },
        {
          "duration": 0.14018674999999803,
          "durationTicks": 96,
          "midi": 40,
          "name": "E2",
          "ticks": 97248,
          "time": 142.00917775,
          "velocity": 0.3937007874015748
        },
        {
          "duration": 0.28037349999999606,
          "durationTicks": 192,
          "midi": 68,
          "name": "G#4",
          "ticks": 97344,
          "time": 142.1493645,
          "velocity": 0.3937007874015748
        },
        {
          "duration": 0.14018674999999803,
          "durationTicks": 96,
          "midi": 35,
          "name": "B1",
          "ticks": 97344,
          "time": 142.1493645,
          "velocity": 0.3937007874015748
        },
        {
          "duration": 0.14018674999999803,
          "durationTicks": 96,
          "midi": 40,
          "name": "E2",
          "ticks": 97440,
          "time": 142.28955125,
          "velocity": 0.3937007874015748
        },
        {
          "duration": 0.2803735000000245,
          "durationTicks": 192,
          "midi": 66,
          "name": "F#4",
          "ticks": 97536,
          "time": 142.429738,
          "velocity": 0.3937007874015748
        },
        {
          "duration": 0.14018675000002645,
          "durationTicks": 96,
          "midi": 35,
          "name": "B1",
          "ticks": 97536,
          "time": 142.429738,
          "velocity": 0.3937007874015748
        },
        {
          "duration": 0.14018674999999803,
          "durationTicks": 96,
          "midi": 35,
          "name": "B1",
          "ticks": 97632,
          "time": 142.56992475,
          "velocity": 0.3937007874015748
        },
        {
          "duration": 0.14018674999999803,
          "durationTicks": 96,
          "midi": 64,
          "name": "E4",
          "ticks": 97728,
          "time": 142.7101115,
          "velocity": 0.3937007874015748
        },
        {
          "duration": 0.14018674999999803,
          "durationTicks": 96,
          "midi": 30,
          "name": "F#1",
          "ticks": 97728,
          "time": 142.7101115,
          "velocity": 0.3937007874015748
        },
        {
          "duration": 0.28037349999999606,
          "durationTicks": 192,
          "midi": 66,
          "name": "F#4",
          "ticks": 97824,
          "time": 142.85029825,
          "velocity": 0.3937007874015748
        },
        {
          "duration": 0.14018674999999803,
          "durationTicks": 96,
          "midi": 35,
          "name": "B1",
          "ticks": 97824,
          "time": 142.85029825,
          "velocity": 0.3937007874015748
        },
        {
          "duration": 0.14018674999999803,
          "durationTicks": 96,
          "midi": 39,
          "name": "D#2",
          "ticks": 97920,
          "time": 142.990485,
          "velocity": 0.3937007874015748
        },
        {
          "duration": 0.28037349999999606,
          "durationTicks": 192,
          "midi": 68,
          "name": "G#4",
          "ticks": 98016,
          "time": 143.13067175,
          "velocity": 0.3937007874015748
        },
        {
          "duration": 0.14018674999999803,
          "durationTicks": 96,
          "midi": 35,
          "name": "B1",
          "ticks": 98016,
          "time": 143.13067175,
          "velocity": 0.3937007874015748
        },
        {
          "duration": 0.14018674999999803,
          "durationTicks": 96,
          "midi": 30,
          "name": "F#1",
          "ticks": 98112,
          "time": 143.2708585,
          "velocity": 0.3937007874015748
        },
        {
          "duration": 0.14018674999999803,
          "durationTicks": 96,
          "midi": 35,
          "name": "B1",
          "ticks": 98208,
          "time": 143.41104525,
          "velocity": 0.3937007874015748
        },
        {
          "duration": 0.28037349999999606,
          "durationTicks": 192,
          "midi": 68,
          "name": "G#4",
          "ticks": 98304,
          "time": 143.551232,
          "velocity": 0.3937007874015748
        },
        {
          "duration": 0.14018674999999803,
          "durationTicks": 96,
          "midi": 25,
          "name": "C#1",
          "ticks": 98304,
          "time": 143.551232,
          "velocity": 0.3937007874015748
        },
        {
          "duration": 0.14018674999999803,
          "durationTicks": 96,
          "midi": 32,
          "name": "G#1",
          "ticks": 98400,
          "time": 143.69141875,
          "velocity": 0.3937007874015748
        },
        {
          "duration": 0.28037349999999606,
          "durationTicks": 192,
          "midi": 68,
          "name": "G#4",
          "ticks": 98496,
          "time": 143.8316055,
          "velocity": 0.3937007874015748
        },
        {
          "duration": 0.14018674999999803,
          "durationTicks": 96,
          "midi": 37,
          "name": "C#2",
          "ticks": 98496,
          "time": 143.8316055,
          "velocity": 0.3937007874015748
        },
        {
          "duration": 0.14018674999999803,
          "durationTicks": 96,
          "midi": 32,
          "name": "G#1",
          "ticks": 98592,
          "time": 143.97179225,
          "velocity": 0.3937007874015748
        },
        {
          "duration": 0.14018674999999803,
          "durationTicks": 96,
          "midi": 66,
          "name": "F#4",
          "ticks": 98688,
          "time": 144.111979,
          "velocity": 0.3937007874015748
        },
        {
          "duration": 0.14018674999999803,
          "durationTicks": 96,
          "midi": 40,
          "name": "E2",
          "ticks": 98688,
          "time": 144.111979,
          "velocity": 0.3937007874015748
        },
        {
          "duration": 0.28037349999999606,
          "durationTicks": 192,
          "midi": 71,
          "name": "B4",
          "ticks": 98784,
          "time": 144.25216575,
          "velocity": 0.3937007874015748
        },
        {
          "duration": 0.14018674999999803,
          "durationTicks": 96,
          "midi": 37,
          "name": "C#2",
          "ticks": 98784,
          "time": 144.25216575,
          "velocity": 0.3937007874015748
        },
        {
          "duration": 0.14018674999999803,
          "durationTicks": 96,
          "midi": 25,
          "name": "C#1",
          "ticks": 98880,
          "time": 144.3923525,
          "velocity": 0.3937007874015748
        },
        {
          "duration": 0.2803735000000245,
          "durationTicks": 192,
          "midi": 68,
          "name": "G#4",
          "ticks": 98976,
          "time": 144.53253924999999,
          "velocity": 0.3937007874015748
        },
        {
          "duration": 0.14018675000002645,
          "durationTicks": 96,
          "midi": 32,
          "name": "G#1",
          "ticks": 98976,
          "time": 144.53253924999999,
          "velocity": 0.3937007874015748
        },
        {
          "duration": 0.14018674999999803,
          "durationTicks": 96,
          "midi": 33,
          "name": "A1",
          "ticks": 99072,
          "time": 144.672726,
          "velocity": 0.3937007874015748
        },
        {
          "duration": 0.14018674999999803,
          "durationTicks": 96,
          "midi": 28,
          "name": "E1",
          "ticks": 99168,
          "time": 144.81291275,
          "velocity": 0.3937007874015748
        },
        {
          "duration": 0.14018674999999803,
          "durationTicks": 96,
          "midi": 33,
          "name": "A1",
          "ticks": 99264,
          "time": 144.9530995,
          "velocity": 0.3937007874015748
        },
        {
          "duration": 0.14018674999999803,
          "durationTicks": 96,
          "midi": 35,
          "name": "B1",
          "ticks": 99360,
          "time": 145.09328625,
          "velocity": 0.3937007874015748
        },
        {
          "duration": 0.14018674999999803,
          "durationTicks": 96,
          "midi": 37,
          "name": "C#2",
          "ticks": 99456,
          "time": 145.233473,
          "velocity": 0.3937007874015748
        },
        {
          "duration": 0.14018674999999803,
          "durationTicks": 96,
          "midi": 35,
          "name": "B1",
          "ticks": 99552,
          "time": 145.37365975,
          "velocity": 0.3937007874015748
        },
        {
          "duration": 0.14018674999999803,
          "durationTicks": 96,
          "midi": 64,
          "name": "E4",
          "ticks": 99648,
          "time": 145.5138465,
          "velocity": 0.3937007874015748
        },
        {
          "duration": 0.14018674999999803,
          "durationTicks": 96,
          "midi": 33,
          "name": "A1",
          "ticks": 99648,
          "time": 145.5138465,
          "velocity": 0.3937007874015748
        },
        {
          "duration": 0.14018674999999803,
          "durationTicks": 96,
          "midi": 66,
          "name": "F#4",
          "ticks": 99744,
          "time": 145.65403325,
          "velocity": 0.3937007874015748
        },
        {
          "duration": 0.14018674999999803,
          "durationTicks": 96,
          "midi": 28,
          "name": "E1",
          "ticks": 99744,
          "time": 145.65403325,
          "velocity": 0.3937007874015748
        },
        {
          "duration": 0.28037349999999606,
          "durationTicks": 192,
          "midi": 68,
          "name": "G#4",
          "ticks": 99840,
          "time": 145.79422,
          "velocity": 0.3937007874015748
        },
        {
          "duration": 0.14018674999999803,
          "durationTicks": 96,
          "midi": 28,
          "name": "E1",
          "ticks": 99840,
          "time": 145.79422,
          "velocity": 0.3937007874015748
        },
        {
          "duration": 0.14018674999999803,
          "durationTicks": 96,
          "midi": 40,
          "name": "E2",
          "ticks": 99936,
          "time": 145.93440675,
          "velocity": 0.3937007874015748
        },
        {
          "duration": 0.28037349999999606,
          "durationTicks": 192,
          "midi": 68,
          "name": "G#4",
          "ticks": 100032,
          "time": 146.0745935,
          "velocity": 0.3937007874015748
        },
        {
          "duration": 0.14018674999999803,
          "durationTicks": 96,
          "midi": 35,
          "name": "B1",
          "ticks": 100032,
          "time": 146.0745935,
          "velocity": 0.3937007874015748
        },
        {
          "duration": 0.14018674999999803,
          "durationTicks": 96,
          "midi": 40,
          "name": "E2",
          "ticks": 100128,
          "time": 146.21478025,
          "velocity": 0.3937007874015748
        },
        {
          "duration": 0.2803735000000245,
          "durationTicks": 192,
          "midi": 68,
          "name": "G#4",
          "ticks": 100224,
          "time": 146.354967,
          "velocity": 0.3937007874015748
        },
        {
          "duration": 0.14018674999999803,
          "durationTicks": 96,
          "midi": 44,
          "name": "G#2",
          "ticks": 100224,
          "time": 146.354967,
          "velocity": 0.3937007874015748
        },
        {
          "duration": 0.14018675000002645,
          "durationTicks": 96,
          "midi": 40,
          "name": "E2",
          "ticks": 100320,
          "time": 146.49515375,
          "velocity": 0.3937007874015748
        },
        {
          "duration": 0.28037349999999606,
          "durationTicks": 192,
          "midi": 69,
          "name": "A4",
          "ticks": 100416,
          "time": 146.6353405,
          "velocity": 0.3937007874015748
        },
        {
          "duration": 0.14018674999999803,
          "durationTicks": 96,
          "midi": 35,
          "name": "B1",
          "ticks": 100416,
          "time": 146.6353405,
          "velocity": 0.3937007874015748
        },
        {
          "duration": 0.14018674999999803,
          "durationTicks": 96,
          "midi": 40,
          "name": "E2",
          "ticks": 100512,
          "time": 146.77552725,
          "velocity": 0.3937007874015748
        },
        {
          "duration": 0.28037349999999606,
          "durationTicks": 192,
          "midi": 66,
          "name": "F#4",
          "ticks": 100608,
          "time": 146.915714,
          "velocity": 0.3937007874015748
        },
        {
          "duration": 0.14018674999999803,
          "durationTicks": 96,
          "midi": 35,
          "name": "B1",
          "ticks": 100608,
          "time": 146.915714,
          "velocity": 0.3937007874015748
        },
        {
          "duration": 0.14018674999999803,
          "durationTicks": 96,
          "midi": 35,
          "name": "B1",
          "ticks": 100704,
          "time": 147.05590075,
          "velocity": 0.3937007874015748
        },
        {
          "duration": 0.14018674999999803,
          "durationTicks": 96,
          "midi": 30,
          "name": "F#1",
          "ticks": 100800,
          "time": 147.1960875,
          "velocity": 0.3937007874015748
        },
        {
          "duration": 0.14018674999999803,
          "durationTicks": 96,
          "midi": 35,
          "name": "B1",
          "ticks": 100896,
          "time": 147.33627425,
          "velocity": 0.3937007874015748
        },
        {
          "duration": 0.28037349999999606,
          "durationTicks": 192,
          "midi": 68,
          "name": "G#4",
          "ticks": 100992,
          "time": 147.476461,
          "velocity": 0.3937007874015748
        },
        {
          "duration": 0.14018674999999803,
          "durationTicks": 96,
          "midi": 39,
          "name": "D#2",
          "ticks": 100992,
          "time": 147.476461,
          "velocity": 0.3937007874015748
        },
        {
          "duration": 0.14018674999999803,
          "durationTicks": 96,
          "midi": 35,
          "name": "B1",
          "ticks": 101088,
          "time": 147.61664775,
          "velocity": 0.3937007874015748
        },
        {
          "duration": 0.28037349999999606,
          "durationTicks": 192,
          "midi": 71,
          "name": "B4",
          "ticks": 101184,
          "time": 147.7568345,
          "velocity": 0.3937007874015748
        },
        {
          "duration": 0.14018674999999803,
          "durationTicks": 96,
          "midi": 30,
          "name": "F#1",
          "ticks": 101184,
          "time": 147.7568345,
          "velocity": 0.3937007874015748
        },
        {
          "duration": 0.14018674999999803,
          "durationTicks": 96,
          "midi": 35,
          "name": "B1",
          "ticks": 101280,
          "time": 147.89702125,
          "velocity": 0.3937007874015748
        },
        {
          "duration": 0.5607469999999921,
          "durationTicks": 384,
          "midi": 73,
          "name": "C#5",
          "ticks": 101376,
          "time": 148.037208,
          "velocity": 0.3937007874015748
        },
        {
          "duration": 1.1214940000000126,
          "durationTicks": 768,
          "midi": 37,
          "name": "C#2",
          "ticks": 101376,
          "time": 148.037208,
          "velocity": 0.3937007874015748
        },
        {
          "duration": 1.1214940000000126,
          "durationTicks": 768,
          "midi": 40,
          "name": "E2",
          "ticks": 101376,
          "time": 148.037208,
          "velocity": 0.3937007874015748
        },
        {
          "duration": 1.1214940000000126,
          "durationTicks": 768,
          "midi": 33,
          "name": "A1",
          "ticks": 101376,
          "time": 148.037208,
          "velocity": 0.3937007874015748
        },
        {
          "duration": 1.1214940000000126,
          "durationTicks": 768,
          "midi": 45,
          "name": "A2",
          "ticks": 101376,
          "time": 148.037208,
          "velocity": 0.3937007874015748
        },
        {
          "duration": 0.2803735000000245,
          "durationTicks": 192,
          "midi": 73,
          "name": "C#5",
          "ticks": 101760,
          "time": 148.59795499999998,
          "velocity": 0.3937007874015748
        },
        {
          "duration": 0.28037349999999606,
          "durationTicks": 192,
          "midi": 71,
          "name": "B4",
          "ticks": 101952,
          "time": 148.8783285,
          "velocity": 0.3937007874015748
        },
        {
          "duration": 0.5607469999999921,
          "durationTicks": 384,
          "midi": 68,
          "name": "G#4",
          "ticks": 102144,
          "time": 149.158702,
          "velocity": 0.3937007874015748
        },
        {
          "duration": 1.1214939999999842,
          "durationTicks": 768,
          "midi": 44,
          "name": "G#2",
          "ticks": 102144,
          "time": 149.158702,
          "velocity": 0.3937007874015748
        },
        {
          "duration": 1.1214939999999842,
          "durationTicks": 768,
          "midi": 40,
          "name": "E2",
          "ticks": 102144,
          "time": 149.158702,
          "velocity": 0.3937007874015748
        },
        {
          "duration": 1.1214939999999842,
          "durationTicks": 768,
          "midi": 37,
          "name": "C#2",
          "ticks": 102144,
          "time": 149.158702,
          "velocity": 0.3937007874015748
        },
        {
          "duration": 1.1214939999999842,
          "durationTicks": 768,
          "midi": 49,
          "name": "C#3",
          "ticks": 102144,
          "time": 149.158702,
          "velocity": 0.3937007874015748
        },
        {
          "duration": 0.28037349999999606,
          "durationTicks": 192,
          "midi": 66,
          "name": "F#4",
          "ticks": 102528,
          "time": 149.719449,
          "velocity": 0.3937007874015748
        },
        {
          "duration": 0.28037349999999606,
          "durationTicks": 192,
          "midi": 64,
          "name": "E4",
          "ticks": 102720,
          "time": 149.9998225,
          "velocity": 0.3937007874015748
        },
        {
          "duration": 0.5607470000000205,
          "durationTicks": 384,
          "midi": 66,
          "name": "F#4",
          "ticks": 102912,
          "time": 150.280196,
          "velocity": 0.3937007874015748
        },
        {
          "duration": 1.1214940000000126,
          "durationTicks": 768,
          "midi": 35,
          "name": "B1",
          "ticks": 102912,
          "time": 150.280196,
          "velocity": 0.3937007874015748
        },
        {
          "duration": 1.1214940000000126,
          "durationTicks": 768,
          "midi": 42,
          "name": "F#2",
          "ticks": 102912,
          "time": 150.280196,
          "velocity": 0.3937007874015748
        },
        {
          "duration": 1.1214940000000126,
          "durationTicks": 768,
          "midi": 39,
          "name": "D#2",
          "ticks": 102912,
          "time": 150.280196,
          "velocity": 0.3937007874015748
        },
        {
          "duration": 1.1214940000000126,
          "durationTicks": 768,
          "midi": 47,
          "name": "B2",
          "ticks": 102912,
          "time": 150.280196,
          "velocity": 0.3937007874015748
        },
        {
          "duration": 0.28037349999999606,
          "durationTicks": 192,
          "midi": 66,
          "name": "F#4",
          "ticks": 103296,
          "time": 150.840943,
          "velocity": 0.3937007874015748
        },
        {
          "duration": 0.28037349999999606,
          "durationTicks": 192,
          "midi": 64,
          "name": "E4",
          "ticks": 103488,
          "time": 151.1213165,
          "velocity": 0.3937007874015748
        },
        {
          "duration": 0.5607469999999921,
          "durationTicks": 384,
          "midi": 61,
          "name": "C#4",
          "ticks": 103680,
          "time": 151.40169,
          "velocity": 0.3937007874015748
        },
        {
          "duration": 1.1214939999999842,
          "durationTicks": 768,
          "midi": 42,
          "name": "F#2",
          "ticks": 103680,
          "time": 151.40169,
          "velocity": 0.3937007874015748
        },
        {
          "duration": 1.1214939999999842,
          "durationTicks": 768,
          "midi": 37,
          "name": "C#2",
          "ticks": 103680,
          "time": 151.40169,
          "velocity": 0.3937007874015748
        },
        {
          "duration": 1.1214939999999842,
          "durationTicks": 768,
          "midi": 30,
          "name": "F#1",
          "ticks": 103680,
          "time": 151.40169,
          "velocity": 0.3937007874015748
        },
        {
          "duration": 1.1214939999999842,
          "durationTicks": 768,
          "midi": 33,
          "name": "A1",
          "ticks": 103680,
          "time": 151.40169,
          "velocity": 0.3937007874015748
        },
        {
          "duration": 0.28037349999999606,
          "durationTicks": 192,
          "midi": 59,
          "name": "B3",
          "ticks": 104064,
          "time": 151.962437,
          "velocity": 0.3937007874015748
        },
        {
          "duration": 0.28037349999999606,
          "durationTicks": 192,
          "midi": 61,
          "name": "C#4",
          "ticks": 104256,
          "time": 152.2428105,
          "velocity": 0.3937007874015748
        },
        {
          "duration": 0.5607470000000205,
          "durationTicks": 384,
          "midi": 64,
          "name": "E4",
          "ticks": 104448,
          "time": 152.523184,
          "velocity": 0.3937007874015748
        },
        {
          "duration": 1.1214940000000126,
          "durationTicks": 768,
          "midi": 44,
          "name": "G#2",
          "ticks": 104448,
          "time": 152.523184,
          "velocity": 0.3937007874015748
        },
        {
          "duration": 1.1214940000000126,
          "durationTicks": 768,
          "midi": 40,
          "name": "E2",
          "ticks": 104448,
          "time": 152.523184,
          "velocity": 0.3937007874015748
        },
        {
          "duration": 1.1214940000000126,
          "durationTicks": 768,
          "midi": 37,
          "name": "C#2",
          "ticks": 104448,
          "time": 152.523184,
          "velocity": 0.3937007874015748
        },
        {
          "duration": 1.1214940000000126,
          "durationTicks": 768,
          "midi": 49,
          "name": "C#3",
          "ticks": 104448,
          "time": 152.523184,
          "velocity": 0.3937007874015748
        },
        {
          "duration": 0.28037349999999606,
          "durationTicks": 192,
          "midi": 66,
          "name": "F#4",
          "ticks": 104832,
          "time": 153.083931,
          "velocity": 0.3937007874015748
        },
        {
          "duration": 0.28037349999999606,
          "durationTicks": 192,
          "midi": 68,
          "name": "G#4",
          "ticks": 105024,
          "time": 153.3643045,
          "velocity": 0.3937007874015748
        },
        {
          "duration": 0.5607469999999921,
          "durationTicks": 384,
          "midi": 69,
          "name": "A4",
          "ticks": 105216,
          "time": 153.644678,
          "velocity": 0.3937007874015748
        },
        {
          "duration": 1.1214940000000126,
          "durationTicks": 768,
          "midi": 37,
          "name": "C#2",
          "ticks": 105216,
          "time": 153.644678,
          "velocity": 0.3937007874015748
        },
        {
          "duration": 1.1214940000000126,
          "durationTicks": 768,
          "midi": 40,
          "name": "E2",
          "ticks": 105216,
          "time": 153.644678,
          "velocity": 0.3937007874015748
        },
        {
          "duration": 1.1214940000000126,
          "durationTicks": 768,
          "midi": 45,
          "name": "A2",
          "ticks": 105216,
          "time": 153.644678,
          "velocity": 0.3937007874015748
        },
        {
          "duration": 1.1214940000000126,
          "durationTicks": 768,
          "midi": 33,
          "name": "A1",
          "ticks": 105216,
          "time": 153.644678,
          "velocity": 0.3937007874015748
        },
        {
          "duration": 0.28037349999999606,
          "durationTicks": 192,
          "midi": 68,
          "name": "G#4",
          "ticks": 105600,
          "time": 154.205425,
          "velocity": 0.3937007874015748
        },
        {
          "duration": 0.2803735000000245,
          "durationTicks": 192,
          "midi": 64,
          "name": "E4",
          "ticks": 105792,
          "time": 154.4857985,
          "velocity": 0.3937007874015748
        },
        {
          "duration": 0.5607469999999921,
          "durationTicks": 384,
          "midi": 66,
          "name": "F#4",
          "ticks": 105984,
          "time": 154.766172,
          "velocity": 0.3937007874015748
        },
        {
          "duration": 1.1214939999999842,
          "durationTicks": 768,
          "midi": 40,
          "name": "E2",
          "ticks": 105984,
          "time": 154.766172,
          "velocity": 0.3937007874015748
        },
        {
          "duration": 2.242987999999997,
          "durationTicks": 1536,
          "midi": 42,
          "name": "F#2",
          "ticks": 105984,
          "time": 154.766172,
          "velocity": 0.3937007874015748
        },
        {
          "duration": 2.242987999999997,
          "durationTicks": 1536,
          "midi": 47,
          "name": "B2",
          "ticks": 105984,
          "time": 154.766172,
          "velocity": 0.3937007874015748
        },
        {
          "duration": 2.242987999999997,
          "durationTicks": 1536,
          "midi": 35,
          "name": "B1",
          "ticks": 105984,
          "time": 154.766172,
          "velocity": 0.3937007874015748
        },
        {
          "duration": 1.1214940000000126,
          "durationTicks": 768,
          "midi": 39,
          "name": "D#2",
          "ticks": 106752,
          "time": 155.887666,
          "velocity": 0.3937007874015748
        },
        {
          "duration": 0.2803735000000245,
          "durationTicks": 192,
          "midi": 68,
          "name": "G#4",
          "ticks": 107136,
          "time": 156.448413,
          "velocity": 0.3937007874015748
        },
        {
          "duration": 0.28037349999999606,
          "durationTicks": 192,
          "midi": 71,
          "name": "B4",
          "ticks": 107328,
          "time": 156.7287865,
          "velocity": 0.3937007874015748
        },
        {
          "duration": 0.4205602499999941,
          "durationTicks": 288,
          "midi": 73,
          "name": "C#5",
          "ticks": 107520,
          "time": 157.00916,
          "velocity": 0.3937007874015748
        },
        {
          "duration": 1.1214939999999842,
          "durationTicks": 768,
          "midi": 37,
          "name": "C#2",
          "ticks": 107520,
          "time": 157.00916,
          "velocity": 0.3937007874015748
        },
        {
          "duration": 1.1214939999999842,
          "durationTicks": 768,
          "midi": 40,
          "name": "E2",
          "ticks": 107520,
          "time": 157.00916,
          "velocity": 0.3937007874015748
        },
        {
          "duration": 1.1214939999999842,
          "durationTicks": 768,
          "midi": 33,
          "name": "A1",
          "ticks": 107520,
          "time": 157.00916,
          "velocity": 0.3937007874015748
        },
        {
          "duration": 1.1214939999999842,
          "durationTicks": 768,
          "midi": 45,
          "name": "A2",
          "ticks": 107520,
          "time": 157.00916,
          "velocity": 0.3937007874015748
        },
        {
          "duration": 0.14018674999999803,
          "durationTicks": 96,
          "midi": 75,
          "name": "D#5",
          "ticks": 107808,
          "time": 157.42972025,
          "velocity": 0.3937007874015748
        },
        {
          "duration": 0.28037349999999606,
          "durationTicks": 192,
          "midi": 73,
          "name": "C#5",
          "ticks": 107904,
          "time": 157.569907,
          "velocity": 0.3937007874015748
        },
        {
          "duration": 0.28037349999999606,
          "durationTicks": 192,
          "midi": 71,
          "name": "B4",
          "ticks": 108096,
          "time": 157.8502805,
          "velocity": 0.3937007874015748
        },
        {
          "duration": 0.5607469999999921,
          "durationTicks": 384,
          "midi": 68,
          "name": "G#4",
          "ticks": 108288,
          "time": 158.130654,
          "velocity": 0.3937007874015748
        },
        {
          "duration": 1.1214940000000126,
          "durationTicks": 768,
          "midi": 44,
          "name": "G#2",
          "ticks": 108288,
          "time": 158.130654,
          "velocity": 0.3937007874015748
        },
        {
          "duration": 1.1214940000000126,
          "durationTicks": 768,
          "midi": 37,
          "name": "C#2",
          "ticks": 108288,
          "time": 158.130654,
          "velocity": 0.3937007874015748
        },
        {
          "duration": 1.1214940000000126,
          "durationTicks": 768,
          "midi": 49,
          "name": "C#3",
          "ticks": 108288,
          "time": 158.130654,
          "velocity": 0.3937007874015748
        },
        {
          "duration": 1.1214940000000126,
          "durationTicks": 768,
          "midi": 40,
          "name": "E2",
          "ticks": 108288,
          "time": 158.130654,
          "velocity": 0.3937007874015748
        },
        {
          "duration": 0.2803735000000245,
          "durationTicks": 192,
          "midi": 66,
          "name": "F#4",
          "ticks": 108672,
          "time": 158.69140099999998,
          "velocity": 0.3937007874015748
        },
        {
          "duration": 0.28037349999999606,
          "durationTicks": 192,
          "midi": 64,
          "name": "E4",
          "ticks": 108864,
          "time": 158.9717745,
          "velocity": 0.3937007874015748
        },
        {
          "duration": 0.28037349999999606,
          "durationTicks": 192,
          "midi": 66,
          "name": "F#4",
          "ticks": 109056,
          "time": 159.252148,
          "velocity": 0.3937007874015748
        },
        {
          "duration": 1.1214939999999842,
          "durationTicks": 768,
          "midi": 47,
          "name": "B2",
          "ticks": 109056,
          "time": 159.252148,
          "velocity": 0.3937007874015748
        },
        {
          "duration": 1.1214939999999842,
          "durationTicks": 768,
          "midi": 42,
          "name": "F#2",
          "ticks": 109056,
          "time": 159.252148,
          "velocity": 0.3937007874015748
        },
        {
          "duration": 1.1214939999999842,
          "durationTicks": 768,
          "midi": 39,
          "name": "D#2",
          "ticks": 109056,
          "time": 159.252148,
          "velocity": 0.3937007874015748
        },
        {
          "duration": 1.1214939999999842,
          "durationTicks": 768,
          "midi": 35,
          "name": "B1",
          "ticks": 109056,
          "time": 159.252148,
          "velocity": 0.3937007874015748
        },
        {
          "duration": 0.14018674999999803,
          "durationTicks": 96,
          "midi": 68,
          "name": "G#4",
          "ticks": 109344,
          "time": 159.67270825,
          "velocity": 0.3937007874015748
        },
        {
          "duration": 0.28037349999999606,
          "durationTicks": 192,
          "midi": 66,
          "name": "F#4",
          "ticks": 109440,
          "time": 159.812895,
          "velocity": 0.3937007874015748
        },
        {
          "duration": 0.28037349999999606,
          "durationTicks": 192,
          "midi": 64,
          "name": "E4",
          "ticks": 109632,
          "time": 160.0932685,
          "velocity": 0.3937007874015748
        },
        {
          "duration": 0.28037349999999606,
          "durationTicks": 192,
          "midi": 61,
          "name": "C#4",
          "ticks": 109824,
          "time": 160.373642,
          "velocity": 0.3937007874015748
        },
        {
          "duration": 1.1214940000000126,
          "durationTicks": 768,
          "midi": 33,
          "name": "A1",
          "ticks": 109824,
          "time": 160.373642,
          "velocity": 0.3937007874015748
        },
        {
          "duration": 1.1214940000000126,
          "durationTicks": 768,
          "midi": 30,
          "name": "F#1",
          "ticks": 109824,
          "time": 160.373642,
          "velocity": 0.3937007874015748
        },
        {
          "duration": 1.1214940000000126,
          "durationTicks": 768,
          "midi": 42,
          "name": "F#2",
          "ticks": 109824,
          "time": 160.373642,
          "velocity": 0.3937007874015748
        },
        {
          "duration": 1.1214940000000126,
          "durationTicks": 768,
          "midi": 37,
          "name": "C#2",
          "ticks": 109824,
          "time": 160.373642,
          "velocity": 0.3937007874015748
        },
        {
          "duration": 0.28037349999999606,
          "durationTicks": 192,
          "midi": 59,
          "name": "B3",
          "ticks": 110208,
          "time": 160.934389,
          "velocity": 0.3937007874015748
        },
        {
          "duration": 0.28037349999999606,
          "durationTicks": 192,
          "midi": 61,
          "name": "C#4",
          "ticks": 110400,
          "time": 161.2147625,
          "velocity": 0.3937007874015748
        },
        {
          "duration": 0.5607469999999921,
          "durationTicks": 384,
          "midi": 64,
          "name": "E4",
          "ticks": 110592,
          "time": 161.495136,
          "velocity": 0.3937007874015748
        },
        {
          "duration": 1.1214939999999842,
          "durationTicks": 768,
          "midi": 33,
          "name": "A1",
          "ticks": 110592,
          "time": 161.495136,
          "velocity": 0.3937007874015748
        },
        {
          "duration": 1.1214939999999842,
          "durationTicks": 768,
          "midi": 40,
          "name": "E2",
          "ticks": 110592,
          "time": 161.495136,
          "velocity": 0.3937007874015748
        },
        {
          "duration": 1.1214939999999842,
          "durationTicks": 768,
          "midi": 45,
          "name": "A2",
          "ticks": 110592,
          "time": 161.495136,
          "velocity": 0.3937007874015748
        },
        {
          "duration": 1.1214939999999842,
          "durationTicks": 768,
          "midi": 37,
          "name": "C#2",
          "ticks": 110592,
          "time": 161.495136,
          "velocity": 0.3937007874015748
        },
        {
          "duration": 0.28037349999999606,
          "durationTicks": 192,
          "midi": 66,
          "name": "F#4",
          "ticks": 110976,
          "time": 162.055883,
          "velocity": 0.3937007874015748
        },
        {
          "duration": 0.28037349999999606,
          "durationTicks": 192,
          "midi": 68,
          "name": "G#4",
          "ticks": 111168,
          "time": 162.3362565,
          "velocity": 0.3937007874015748
        },
        {
          "duration": 0.5607470000000205,
          "durationTicks": 384,
          "midi": 66,
          "name": "F#4",
          "ticks": 111360,
          "time": 162.61663,
          "velocity": 0.3937007874015748
        },
        {
          "duration": 1.1214940000000126,
          "durationTicks": 768,
          "midi": 39,
          "name": "D#2",
          "ticks": 111360,
          "time": 162.61663,
          "velocity": 0.3937007874015748
        },
        {
          "duration": 1.1214940000000126,
          "durationTicks": 768,
          "midi": 42,
          "name": "F#2",
          "ticks": 111360,
          "time": 162.61663,
          "velocity": 0.3937007874015748
        },
        {
          "duration": 1.1214940000000126,
          "durationTicks": 768,
          "midi": 47,
          "name": "B2",
          "ticks": 111360,
          "time": 162.61663,
          "velocity": 0.3937007874015748
        },
        {
          "duration": 1.1214940000000126,
          "durationTicks": 768,
          "midi": 35,
          "name": "B1",
          "ticks": 111360,
          "time": 162.61663,
          "velocity": 0.3937007874015748
        },
        {
          "duration": 0.28037349999999606,
          "durationTicks": 192,
          "midi": 64,
          "name": "E4",
          "ticks": 111744,
          "time": 163.177377,
          "velocity": 0.3937007874015748
        },
        {
          "duration": 0.28037349999999606,
          "durationTicks": 192,
          "midi": 61,
          "name": "C#4",
          "ticks": 111936,
          "time": 163.4577505,
          "velocity": 0.3937007874015748
        },
        {
          "duration": 0.5607469999999921,
          "durationTicks": 384,
          "midi": 64,
          "name": "E4",
          "ticks": 112128,
          "time": 163.738124,
          "velocity": 0.3937007874015748
        },
        {
          "duration": 2.242987999999997,
          "durationTicks": 1536,
          "midi": 40,
          "name": "E2",
          "ticks": 112128,
          "time": 163.738124,
          "velocity": 0.3937007874015748
        },
        {
          "duration": 2.242987999999997,
          "durationTicks": 1536,
          "midi": 44,
          "name": "G#2",
          "ticks": 112128,
          "time": 163.738124,
          "velocity": 0.3937007874015748
        },
        {
          "duration": 2.242987999999997,
          "durationTicks": 1536,
          "midi": 37,
          "name": "C#2",
          "ticks": 112128,
          "time": 163.738124,
          "velocity": 0.3937007874015748
        },
        {
          "duration": 2.242987999999997,
          "durationTicks": 1536,
          "midi": 49,
          "name": "C#3",
          "ticks": 112128,
          "time": 163.738124,
          "velocity": 0.3937007874015748
        },
        {
          "duration": 0.14018674999999803,
          "durationTicks": 96,
          "midi": 61,
          "name": "C#4",
          "ticks": 113664,
          "time": 165.981112,
          "velocity": 0.3937007874015748
        },
        {
          "duration": 0.14018674999999803,
          "durationTicks": 96,
          "midi": 49,
          "name": "C#3",
          "ticks": 113664,
          "time": 165.981112,
          "velocity": 0.3937007874015748
        },
        {
          "duration": 0.14018674999999803,
          "durationTicks": 96,
          "midi": 44,
          "name": "G#2",
          "ticks": 113664,
          "time": 165.981112,
          "velocity": 0.3937007874015748
        },
        {
          "duration": 0.14018674999999803,
          "durationTicks": 96,
          "midi": 37,
          "name": "C#2",
          "ticks": 113664,
          "time": 165.981112,
          "velocity": 0.3937007874015748
        },
        {
          "duration": 0.14018674999999803,
          "durationTicks": 96,
          "midi": 40,
          "name": "E2",
          "ticks": 113664,
          "time": 165.981112,
          "velocity": 0.3937007874015748
        },
        {
          "duration": 0.14018674999999803,
          "durationTicks": 96,
          "midi": 37,
          "name": "C#2",
          "ticks": 113856,
          "time": 166.2614855,
          "velocity": 0.3937007874015748
        },
        {
          "duration": 0.14018674999999803,
          "durationTicks": 96,
          "midi": 61,
          "name": "C#4",
          "ticks": 113952,
          "time": 166.40167225,
          "velocity": 0.3937007874015748
        },
        {
          "duration": 0.14018674999999803,
          "durationTicks": 96,
          "midi": 37,
          "name": "C#2",
          "ticks": 113952,
          "time": 166.40167225,
          "velocity": 0.3937007874015748
        },
        {
          "duration": 0.14018674999999803,
          "durationTicks": 96,
          "midi": 64,
          "name": "E4",
          "ticks": 114048,
          "time": 166.541859,
          "velocity": 0.3937007874015748
        },
        {
          "duration": 0.14018674999999803,
          "durationTicks": 96,
          "midi": 66,
          "name": "F#4",
          "ticks": 114240,
          "time": 166.8222325,
          "velocity": 0.3937007874015748
        },
        {
          "duration": 0.14018674999999803,
          "durationTicks": 96,
          "midi": 37,
          "name": "C#2",
          "ticks": 114240,
          "time": 166.8222325,
          "velocity": 0.3937007874015748
        },
        {
          "duration": 0.14018674999999803,
          "durationTicks": 96,
          "midi": 61,
          "name": "C#4",
          "ticks": 114432,
          "time": 167.102606,
          "velocity": 0.3937007874015748
        },
        {
          "duration": 0.14018674999999803,
          "durationTicks": 96,
          "midi": 37,
          "name": "C#2",
          "ticks": 114432,
          "time": 167.102606,
          "velocity": 0.3937007874015748
        },
        {
          "duration": 0.14018674999999803,
          "durationTicks": 96,
          "midi": 33,
          "name": "A1",
          "ticks": 114432,
          "time": 167.102606,
          "velocity": 0.3937007874015748
        },
        {
          "duration": 0.14018674999999803,
          "durationTicks": 96,
          "midi": 40,
          "name": "E2",
          "ticks": 114432,
          "time": 167.102606,
          "velocity": 0.3937007874015748
        },
        {
          "duration": 0.14018674999999803,
          "durationTicks": 96,
          "midi": 45,
          "name": "A2",
          "ticks": 114432,
          "time": 167.102606,
          "velocity": 0.3937007874015748
        },
        {
          "duration": 0.14018674999999803,
          "durationTicks": 96,
          "midi": 33,
          "name": "A1",
          "ticks": 114624,
          "time": 167.3829795,
          "velocity": 0.3937007874015748
        },
        {
          "duration": 0.14018674999999803,
          "durationTicks": 96,
          "midi": 61,
          "name": "C#4",
          "ticks": 114720,
          "time": 167.52316625,
          "velocity": 0.3937007874015748
        },
        {
          "duration": 0.14018674999999803,
          "durationTicks": 96,
          "midi": 33,
          "name": "A1",
          "ticks": 114720,
          "time": 167.52316625,
          "velocity": 0.3937007874015748
        },
        {
          "duration": 0.14018674999999803,
          "durationTicks": 96,
          "midi": 64,
          "name": "E4",
          "ticks": 114816,
          "time": 167.663353,
          "velocity": 0.3937007874015748
        },
        {
          "duration": 0.14018674999999803,
          "durationTicks": 96,
          "midi": 66,
          "name": "F#4",
          "ticks": 115008,
          "time": 167.9437265,
          "velocity": 0.3937007874015748
        },
        {
          "duration": 0.14018674999999803,
          "durationTicks": 96,
          "midi": 33,
          "name": "A1",
          "ticks": 115008,
          "time": 167.9437265,
          "velocity": 0.3937007874015748
        },
        {
          "duration": 0.14018674999999803,
          "durationTicks": 96,
          "midi": 68,
          "name": "G#4",
          "ticks": 115200,
          "time": 168.2241,
          "velocity": 0.3937007874015748
        },
        {
          "duration": 0.14018674999999803,
          "durationTicks": 96,
          "midi": 44,
          "name": "G#2",
          "ticks": 115200,
          "time": 168.2241,
          "velocity": 0.3937007874015748
        },
        {
          "duration": 0.14018674999999803,
          "durationTicks": 96,
          "midi": 40,
          "name": "E2",
          "ticks": 115200,
          "time": 168.2241,
          "velocity": 0.3937007874015748
        },
        {
          "duration": 0.14018674999999803,
          "durationTicks": 96,
          "midi": 47,
          "name": "B2",
          "ticks": 115200,
          "time": 168.2241,
          "velocity": 0.3937007874015748
        },
        {
          "duration": 0.14018674999999803,
          "durationTicks": 96,
          "midi": 52,
          "name": "E3",
          "ticks": 115200,
          "time": 168.2241,
          "velocity": 0.3937007874015748
        },
        {
          "duration": 0.14018674999999803,
          "durationTicks": 96,
          "midi": 68,
          "name": "G#4",
          "ticks": 115392,
          "time": 168.5044735,
          "velocity": 0.3937007874015748
        },
        {
          "duration": 0.14018674999999803,
          "durationTicks": 96,
          "midi": 40,
          "name": "E2",
          "ticks": 115392,
          "time": 168.5044735,
          "velocity": 0.3937007874015748
        },
        {
          "duration": 0.14018674999999803,
          "durationTicks": 96,
          "midi": 40,
          "name": "E2",
          "ticks": 115488,
          "time": 168.64466025,
          "velocity": 0.3937007874015748
        },
        {
          "duration": 0.14018675000002645,
          "durationTicks": 96,
          "midi": 68,
          "name": "G#4",
          "ticks": 115584,
          "time": 168.78484699999998,
          "velocity": 0.3937007874015748
        },
        {
          "duration": 0.14018674999999803,
          "durationTicks": 96,
          "midi": 66,
          "name": "F#4",
          "ticks": 115680,
          "time": 168.92503375,
          "velocity": 0.3937007874015748
        },
        {
          "duration": 0.14018674999999803,
          "durationTicks": 96,
          "midi": 64,
          "name": "E4",
          "ticks": 115776,
          "time": 169.0652205,
          "velocity": 0.3937007874015748
        },
        {
          "duration": 0.14018674999999803,
          "durationTicks": 96,
          "midi": 40,
          "name": "E2",
          "ticks": 115776,
          "time": 169.0652205,
          "velocity": 0.3937007874015748
        },
        {
          "duration": 0.14018674999999803,
          "durationTicks": 96,
          "midi": 68,
          "name": "G#4",
          "ticks": 115872,
          "time": 169.20540725,
          "velocity": 0.3937007874015748
        },
        {
          "duration": 0.28037349999999606,
          "durationTicks": 192,
          "midi": 66,
          "name": "F#4",
          "ticks": 115968,
          "time": 169.345594,
          "velocity": 0.3937007874015748
        },
        {
          "duration": 0.14018674999999803,
          "durationTicks": 96,
          "midi": 39,
          "name": "D#2",
          "ticks": 115968,
          "time": 169.345594,
          "velocity": 0.3937007874015748
        },
        {
          "duration": 0.14018674999999803,
          "durationTicks": 96,
          "midi": 35,
          "name": "B1",
          "ticks": 115968,
          "time": 169.345594,
          "velocity": 0.3937007874015748
        },
        {
          "duration": 0.14018674999999803,
          "durationTicks": 96,
          "midi": 42,
          "name": "F#2",
          "ticks": 115968,
          "time": 169.345594,
          "velocity": 0.3937007874015748
        },
        {
          "duration": 0.14018674999999803,
          "durationTicks": 96,
          "midi": 47,
          "name": "B2",
          "ticks": 115968,
          "time": 169.345594,
          "velocity": 0.3937007874015748
        },
        {
          "duration": 0.14018674999999803,
          "durationTicks": 96,
          "midi": 64,
          "name": "E4",
          "ticks": 116160,
          "time": 169.6259675,
          "velocity": 0.3937007874015748
        },
        {
          "duration": 0.14018674999999803,
          "durationTicks": 96,
          "midi": 35,
          "name": "B1",
          "ticks": 116160,
          "time": 169.6259675,
          "velocity": 0.3937007874015748
        },
        {
          "duration": 0.14018674999999803,
          "durationTicks": 96,
          "midi": 66,
          "name": "F#4",
          "ticks": 116256,
          "time": 169.76615425,
          "velocity": 0.3937007874015748
        },
        {
          "duration": 0.14018674999999803,
          "durationTicks": 96,
          "midi": 35,
          "name": "B1",
          "ticks": 116256,
          "time": 169.76615425,
          "velocity": 0.3937007874015748
        },
        {
          "duration": 0.4205602499999941,
          "durationTicks": 288,
          "midi": 68,
          "name": "G#4",
          "ticks": 116448,
          "time": 170.04652775,
          "velocity": 0.3937007874015748
        },
        {
          "duration": 0.14018674999999803,
          "durationTicks": 96,
          "midi": 35,
          "name": "B1",
          "ticks": 116544,
          "time": 170.1867145,
          "velocity": 0.3937007874015748
        },
        {
          "duration": 0.14018674999999803,
          "durationTicks": 96,
          "midi": 61,
          "name": "C#4",
          "ticks": 116736,
          "time": 170.467088,
          "velocity": 0.3937007874015748
        },
        {
          "duration": 0.14018674999999803,
          "durationTicks": 96,
          "midi": 49,
          "name": "C#3",
          "ticks": 116736,
          "time": 170.467088,
          "velocity": 0.3937007874015748
        },
        {
          "duration": 0.14018674999999803,
          "durationTicks": 96,
          "midi": 40,
          "name": "E2",
          "ticks": 116736,
          "time": 170.467088,
          "velocity": 0.3937007874015748
        },
        {
          "duration": 0.14018674999999803,
          "durationTicks": 96,
          "midi": 37,
          "name": "C#2",
          "ticks": 116736,
          "time": 170.467088,
          "velocity": 0.3937007874015748
        },
        {
          "duration": 0.14018674999999803,
          "durationTicks": 96,
          "midi": 44,
          "name": "G#2",
          "ticks": 116736,
          "time": 170.467088,
          "velocity": 0.3937007874015748
        },
        {
          "duration": 0.14018675000002645,
          "durationTicks": 96,
          "midi": 37,
          "name": "C#2",
          "ticks": 116928,
          "time": 170.7474615,
          "velocity": 0.3937007874015748
        },
        {
          "duration": 0.14018674999999803,
          "durationTicks": 96,
          "midi": 61,
          "name": "C#4",
          "ticks": 117024,
          "time": 170.88764825,
          "velocity": 0.3937007874015748
        },
        {
          "duration": 0.14018674999999803,
          "durationTicks": 96,
          "midi": 37,
          "name": "C#2",
          "ticks": 117024,
          "time": 170.88764825,
          "velocity": 0.3937007874015748
        },
        {
          "duration": 0.14018674999999803,
          "durationTicks": 96,
          "midi": 64,
          "name": "E4",
          "ticks": 117120,
          "time": 171.027835,
          "velocity": 0.3937007874015748
        },
        {
          "duration": 0.14018674999999803,
          "durationTicks": 96,
          "midi": 66,
          "name": "F#4",
          "ticks": 117312,
          "time": 171.3082085,
          "velocity": 0.3937007874015748
        },
        {
          "duration": 0.14018674999999803,
          "durationTicks": 96,
          "midi": 37,
          "name": "C#2",
          "ticks": 117312,
          "time": 171.3082085,
          "velocity": 0.3937007874015748
        },
        {
          "duration": 0.14018674999999803,
          "durationTicks": 96,
          "midi": 61,
          "name": "C#4",
          "ticks": 117504,
          "time": 171.588582,
          "velocity": 0.3937007874015748
        },
        {
          "duration": 0.14018674999999803,
          "durationTicks": 96,
          "midi": 37,
          "name": "C#2",
          "ticks": 117504,
          "time": 171.588582,
          "velocity": 0.3937007874015748
        },
        {
          "duration": 0.14018674999999803,
          "durationTicks": 96,
          "midi": 33,
          "name": "A1",
          "ticks": 117504,
          "time": 171.588582,
          "velocity": 0.3937007874015748
        },
        {
          "duration": 0.14018674999999803,
          "durationTicks": 96,
          "midi": 40,
          "name": "E2",
          "ticks": 117504,
          "time": 171.588582,
          "velocity": 0.3937007874015748
        },
        {
          "duration": 0.14018674999999803,
          "durationTicks": 96,
          "midi": 45,
          "name": "A2",
          "ticks": 117504,
          "time": 171.588582,
          "velocity": 0.3937007874015748
        },
        {
          "duration": 0.14018674999999803,
          "durationTicks": 96,
          "midi": 33,
          "name": "A1",
          "ticks": 117696,
          "time": 171.8689555,
          "velocity": 0.3937007874015748
        },
        {
          "duration": 0.14018674999999803,
          "durationTicks": 96,
          "midi": 61,
          "name": "C#4",
          "ticks": 117792,
          "time": 172.00914225,
          "velocity": 0.3937007874015748
        },
        {
          "duration": 0.14018674999999803,
          "durationTicks": 96,
          "midi": 33,
          "name": "A1",
          "ticks": 117792,
          "time": 172.00914225,
          "velocity": 0.3937007874015748
        },
        {
          "duration": 0.14018674999999803,
          "durationTicks": 96,
          "midi": 64,
          "name": "E4",
          "ticks": 117888,
          "time": 172.149329,
          "velocity": 0.3937007874015748
        },
        {
          "duration": 0.14018674999999803,
          "durationTicks": 96,
          "midi": 73,
          "name": "C#5",
          "ticks": 118080,
          "time": 172.4297025,
          "velocity": 0.3937007874015748
        },
        {
          "duration": 0.14018674999999803,
          "durationTicks": 96,
          "midi": 33,
          "name": "A1",
          "ticks": 118080,
          "time": 172.4297025,
          "velocity": 0.3937007874015748
        },
        {
          "duration": 0.14018674999999803,
          "durationTicks": 96,
          "midi": 71,
          "name": "B4",
          "ticks": 118272,
          "time": 172.710076,
          "velocity": 0.3937007874015748
        },
        {
          "duration": 0.14018674999999803,
          "durationTicks": 96,
          "midi": 44,
          "name": "G#2",
          "ticks": 118272,
          "time": 172.710076,
          "velocity": 0.3937007874015748
        },
        {
          "duration": 0.14018674999999803,
          "durationTicks": 96,
          "midi": 40,
          "name": "E2",
          "ticks": 118272,
          "time": 172.710076,
          "velocity": 0.3937007874015748
        },
        {
          "duration": 0.14018674999999803,
          "durationTicks": 96,
          "midi": 47,
          "name": "B2",
          "ticks": 118272,
          "time": 172.710076,
          "velocity": 0.3937007874015748
        },
        {
          "duration": 0.14018674999999803,
          "durationTicks": 96,
          "midi": 52,
          "name": "E3",
          "ticks": 118272,
          "time": 172.710076,
          "velocity": 0.3937007874015748
        },
        {
          "duration": 0.14018674999999803,
          "durationTicks": 96,
          "midi": 68,
          "name": "G#4",
          "ticks": 118464,
          "time": 172.9904495,
          "velocity": 0.3937007874015748
        },
        {
          "duration": 0.14018674999999803,
          "durationTicks": 96,
          "midi": 40,
          "name": "E2",
          "ticks": 118464,
          "time": 172.9904495,
          "velocity": 0.3937007874015748
        },
        {
          "duration": 0.14018674999999803,
          "durationTicks": 96,
          "midi": 40,
          "name": "E2",
          "ticks": 118560,
          "time": 173.13063625,
          "velocity": 0.3937007874015748
        },
        {
          "duration": 0.14018674999999803,
          "durationTicks": 96,
          "midi": 66,
          "name": "F#4",
          "ticks": 118656,
          "time": 173.270823,
          "velocity": 0.3937007874015748
        },
        {
          "duration": 0.14018674999999803,
          "durationTicks": 96,
          "midi": 64,
          "name": "E4",
          "ticks": 118752,
          "time": 173.41100975,
          "velocity": 0.3937007874015748
        },
        {
          "duration": 0.14018674999999803,
          "durationTicks": 96,
          "midi": 66,
          "name": "F#4",
          "ticks": 118848,
          "time": 173.5511965,
          "velocity": 0.3937007874015748
        },
        {
          "duration": 0.14018674999999803,
          "durationTicks": 96,
          "midi": 40,
          "name": "E2",
          "ticks": 118848,
          "time": 173.5511965,
          "velocity": 0.3937007874015748
        },
        {
          "duration": 0.14018674999999803,
          "durationTicks": 96,
          "midi": 68,
          "name": "G#4",
          "ticks": 118944,
          "time": 173.69138325,
          "velocity": 0.3937007874015748
        },
        {
          "duration": 0.28037349999999606,
          "durationTicks": 192,
          "midi": 71,
          "name": "B4",
          "ticks": 119040,
          "time": 173.83157,
          "velocity": 0.3937007874015748
        },
        {
          "duration": 0.14018674999999803,
          "durationTicks": 96,
          "midi": 47,
          "name": "B2",
          "ticks": 119040,
          "time": 173.83157,
          "velocity": 0.3937007874015748
        },
        {
          "duration": 0.14018674999999803,
          "durationTicks": 96,
          "midi": 39,
          "name": "D#2",
          "ticks": 119040,
          "time": 173.83157,
          "velocity": 0.3937007874015748
        },
        {
          "duration": 0.14018674999999803,
          "durationTicks": 96,
          "midi": 35,
          "name": "B1",
          "ticks": 119040,
          "time": 173.83157,
          "velocity": 0.3937007874015748
        },
        {
          "duration": 0.14018674999999803,
          "durationTicks": 96,
          "midi": 42,
          "name": "F#2",
          "ticks": 119040,
          "time": 173.83157,
          "velocity": 0.3937007874015748
        },
        {
          "duration": 0.14018674999999803,
          "durationTicks": 96,
          "midi": 68,
          "name": "G#4",
          "ticks": 119232,
          "time": 174.1119435,
          "velocity": 0.3937007874015748
        },
        {
          "duration": 0.14018674999999803,
          "durationTicks": 96,
          "midi": 35,
          "name": "B1",
          "ticks": 119232,
          "time": 174.1119435,
          "velocity": 0.3937007874015748
        },
        {
          "duration": 0.14018674999999803,
          "durationTicks": 96,
          "midi": 66,
          "name": "F#4",
          "ticks": 119328,
          "time": 174.25213025,
          "velocity": 0.3937007874015748
        },
        {
          "duration": 0.14018674999999803,
          "durationTicks": 96,
          "midi": 35,
          "name": "B1",
          "ticks": 119328,
          "time": 174.25213025,
          "velocity": 0.3937007874015748
        },
        {
          "duration": 0.4205602500000225,
          "durationTicks": 288,
          "midi": 64,
          "name": "E4",
          "ticks": 119520,
          "time": 174.53250375,
          "velocity": 0.3937007874015748
        },
        {
          "duration": 0.14018674999999803,
          "durationTicks": 96,
          "midi": 35,
          "name": "B1",
          "ticks": 119616,
          "time": 174.6726905,
          "velocity": 0.3937007874015748
        },
        {
          "duration": 0.14018674999999803,
          "durationTicks": 96,
          "midi": 61,
          "name": "C#4",
          "ticks": 119808,
          "time": 174.953064,
          "velocity": 0.3937007874015748
        },
        {
          "duration": 0.14018674999999803,
          "durationTicks": 96,
          "midi": 49,
          "name": "C#3",
          "ticks": 119808,
          "time": 174.953064,
          "velocity": 0.3937007874015748
        },
        {
          "duration": 0.14018674999999803,
          "durationTicks": 96,
          "midi": 40,
          "name": "E2",
          "ticks": 119808,
          "time": 174.953064,
          "velocity": 0.3937007874015748
        },
        {
          "duration": 0.14018674999999803,
          "durationTicks": 96,
          "midi": 37,
          "name": "C#2",
          "ticks": 119808,
          "time": 174.953064,
          "velocity": 0.3937007874015748
        },
        {
          "duration": 0.14018674999999803,
          "durationTicks": 96,
          "midi": 44,
          "name": "G#2",
          "ticks": 119808,
          "time": 174.953064,
          "velocity": 0.3937007874015748
        },
        {
          "duration": 0.14018674999999803,
          "durationTicks": 96,
          "midi": 37,
          "name": "C#2",
          "ticks": 120000,
          "time": 175.2334375,
          "velocity": 0.3937007874015748
        },
        {
          "duration": 0.14018674999999803,
          "durationTicks": 96,
          "midi": 61,
          "name": "C#4",
          "ticks": 120096,
          "time": 175.37362425,
          "velocity": 0.3937007874015748
        },
        {
          "duration": 0.14018674999999803,
          "durationTicks": 96,
          "midi": 37,
          "name": "C#2",
          "ticks": 120096,
          "time": 175.37362425,
          "velocity": 0.3937007874015748
        },
        {
          "duration": 0.14018674999999803,
          "durationTicks": 96,
          "midi": 64,
          "name": "E4",
          "ticks": 120192,
          "time": 175.513811,
          "velocity": 0.3937007874015748
        },
        {
          "duration": 0.14018674999999803,
          "durationTicks": 96,
          "midi": 66,
          "name": "F#4",
          "ticks": 120384,
          "time": 175.7941845,
          "velocity": 0.3937007874015748
        },
        {
          "duration": 0.14018674999999803,
          "durationTicks": 96,
          "midi": 37,
          "name": "C#2",
          "ticks": 120384,
          "time": 175.7941845,
          "velocity": 0.3937007874015748
        },
        {
          "duration": 0.14018674999999803,
          "durationTicks": 96,
          "midi": 61,
          "name": "C#4",
          "ticks": 120576,
          "time": 176.074558,
          "velocity": 0.3937007874015748
        },
        {
          "duration": 0.14018674999999803,
          "durationTicks": 96,
          "midi": 37,
          "name": "C#2",
          "ticks": 120576,
          "time": 176.074558,
          "velocity": 0.3937007874015748
        },
        {
          "duration": 0.14018674999999803,
          "durationTicks": 96,
          "midi": 33,
          "name": "A1",
          "ticks": 120576,
          "time": 176.074558,
          "velocity": 0.3937007874015748
        },
        {
          "duration": 0.14018674999999803,
          "durationTicks": 96,
          "midi": 40,
          "name": "E2",
          "ticks": 120576,
          "time": 176.074558,
          "velocity": 0.3937007874015748
        },
        {
          "duration": 0.14018674999999803,
          "durationTicks": 96,
          "midi": 45,
          "name": "A2",
          "ticks": 120576,
          "time": 176.074558,
          "velocity": 0.3937007874015748
        },
        {
          "duration": 0.14018674999999803,
          "durationTicks": 96,
          "midi": 33,
          "name": "A1",
          "ticks": 120768,
          "time": 176.3549315,
          "velocity": 0.3937007874015748
        },
        {
          "duration": 0.14018674999999803,
          "durationTicks": 96,
          "midi": 61,
          "name": "C#4",
          "ticks": 120864,
          "time": 176.49511825,
          "velocity": 0.3937007874015748
        },
        {
          "duration": 0.14018674999999803,
          "durationTicks": 96,
          "midi": 33,
          "name": "A1",
          "ticks": 120864,
          "time": 176.49511825,
          "velocity": 0.3937007874015748
        },
        {
          "duration": 0.14018674999999803,
          "durationTicks": 96,
          "midi": 64,
          "name": "E4",
          "ticks": 120960,
          "time": 176.635305,
          "velocity": 0.3937007874015748
        },
        {
          "duration": 0.14018674999999803,
          "durationTicks": 96,
          "midi": 66,
          "name": "F#4",
          "ticks": 121152,
          "time": 176.9156785,
          "velocity": 0.3937007874015748
        },
        {
          "duration": 0.14018674999999803,
          "durationTicks": 96,
          "midi": 33,
          "name": "A1",
          "ticks": 121152,
          "time": 176.9156785,
          "velocity": 0.3937007874015748
        },
        {
          "duration": 0.14018674999999803,
          "durationTicks": 96,
          "midi": 68,
          "name": "G#4",
          "ticks": 121344,
          "time": 177.196052,
          "velocity": 0.3937007874015748
        },
        {
          "duration": 0.14018674999999803,
          "durationTicks": 96,
          "midi": 44,
          "name": "G#2",
          "ticks": 121344,
          "time": 177.196052,
          "velocity": 0.3937007874015748
        },
        {
          "duration": 0.14018674999999803,
          "durationTicks": 96,
          "midi": 40,
          "name": "E2",
          "ticks": 121344,
          "time": 177.196052,
          "velocity": 0.3937007874015748
        },
        {
          "duration": 0.14018674999999803,
          "durationTicks": 96,
          "midi": 47,
          "name": "B2",
          "ticks": 121344,
          "time": 177.196052,
          "velocity": 0.3937007874015748
        },
        {
          "duration": 0.14018674999999803,
          "durationTicks": 96,
          "midi": 52,
          "name": "E3",
          "ticks": 121344,
          "time": 177.196052,
          "velocity": 0.3937007874015748
        },
        {
          "duration": 0.14018674999999803,
          "durationTicks": 96,
          "midi": 68,
          "name": "G#4",
          "ticks": 121536,
          "time": 177.4764255,
          "velocity": 0.3937007874015748
        },
        {
          "duration": 0.14018674999999803,
          "durationTicks": 96,
          "midi": 40,
          "name": "E2",
          "ticks": 121536,
          "time": 177.4764255,
          "velocity": 0.3937007874015748
        },
        {
          "duration": 0.14018674999999803,
          "durationTicks": 96,
          "midi": 40,
          "name": "E2",
          "ticks": 121632,
          "time": 177.61661225,
          "velocity": 0.3937007874015748
        },
        {
          "duration": 0.14018674999999803,
          "durationTicks": 96,
          "midi": 68,
          "name": "G#4",
          "ticks": 121728,
          "time": 177.756799,
          "velocity": 0.3937007874015748
        },
        {
          "duration": 0.14018674999999803,
          "durationTicks": 96,
          "midi": 66,
          "name": "F#4",
          "ticks": 121824,
          "time": 177.89698575,
          "velocity": 0.3937007874015748
        },
        {
          "duration": 0.14018674999999803,
          "durationTicks": 96,
          "midi": 64,
          "name": "E4",
          "ticks": 121920,
          "time": 178.0371725,
          "velocity": 0.3937007874015748
        },
        {
          "duration": 0.14018674999999803,
          "durationTicks": 96,
          "midi": 40,
          "name": "E2",
          "ticks": 121920,
          "time": 178.0371725,
          "velocity": 0.3937007874015748
        },
        {
          "duration": 0.14018674999999803,
          "durationTicks": 96,
          "midi": 68,
          "name": "G#4",
          "ticks": 122016,
          "time": 178.17735925,
          "velocity": 0.3937007874015748
        },
        {
          "duration": 0.28037349999999606,
          "durationTicks": 192,
          "midi": 66,
          "name": "F#4",
          "ticks": 122112,
          "time": 178.317546,
          "velocity": 0.3937007874015748
        },
        {
          "duration": 0.14018674999999803,
          "durationTicks": 96,
          "midi": 47,
          "name": "B2",
          "ticks": 122112,
          "time": 178.317546,
          "velocity": 0.3937007874015748
        },
        {
          "duration": 0.14018674999999803,
          "durationTicks": 96,
          "midi": 39,
          "name": "D#2",
          "ticks": 122112,
          "time": 178.317546,
          "velocity": 0.3937007874015748
        },
        {
          "duration": 0.14018674999999803,
          "durationTicks": 96,
          "midi": 35,
          "name": "B1",
          "ticks": 122112,
          "time": 178.317546,
          "velocity": 0.3937007874015748
        },
        {
          "duration": 0.14018674999999803,
          "durationTicks": 96,
          "midi": 42,
          "name": "F#2",
          "ticks": 122112,
          "time": 178.317546,
          "velocity": 0.3937007874015748
        },
        {
          "duration": 0.14018674999999803,
          "durationTicks": 96,
          "midi": 64,
          "name": "E4",
          "ticks": 122304,
          "time": 178.5979195,
          "velocity": 0.3937007874015748
        },
        {
          "duration": 0.14018674999999803,
          "durationTicks": 96,
          "midi": 35,
          "name": "B1",
          "ticks": 122304,
          "time": 178.5979195,
          "velocity": 0.3937007874015748
        },
        {
          "duration": 0.14018674999999803,
          "durationTicks": 96,
          "midi": 66,
          "name": "F#4",
          "ticks": 122400,
          "time": 178.73810625,
          "velocity": 0.3937007874015748
        },
        {
          "duration": 0.14018674999999803,
          "durationTicks": 96,
          "midi": 35,
          "name": "B1",
          "ticks": 122400,
          "time": 178.73810625,
          "velocity": 0.3937007874015748
        },
        {
          "duration": 0.4205602499999941,
          "durationTicks": 288,
          "midi": 68,
          "name": "G#4",
          "ticks": 122592,
          "time": 179.01847975,
          "velocity": 0.3937007874015748
        },
        {
          "duration": 0.14018674999999803,
          "durationTicks": 96,
          "midi": 35,
          "name": "B1",
          "ticks": 122688,
          "time": 179.1586665,
          "velocity": 0.3937007874015748
        },
        {
          "duration": 0.14018674999999803,
          "durationTicks": 96,
          "midi": 61,
          "name": "C#4",
          "ticks": 122880,
          "time": 179.43904,
          "velocity": 0.3937007874015748
        },
        {
          "duration": 0.14018674999999803,
          "durationTicks": 96,
          "midi": 49,
          "name": "C#3",
          "ticks": 122880,
          "time": 179.43904,
          "velocity": 0.3937007874015748
        },
        {
          "duration": 0.14018674999999803,
          "durationTicks": 96,
          "midi": 40,
          "name": "E2",
          "ticks": 122880,
          "time": 179.43904,
          "velocity": 0.3937007874015748
        },
        {
          "duration": 0.14018674999999803,
          "durationTicks": 96,
          "midi": 37,
          "name": "C#2",
          "ticks": 122880,
          "time": 179.43904,
          "velocity": 0.3937007874015748
        },
        {
          "duration": 0.14018674999999803,
          "durationTicks": 96,
          "midi": 44,
          "name": "G#2",
          "ticks": 122880,
          "time": 179.43904,
          "velocity": 0.3937007874015748
        },
        {
          "duration": 0.14018674999999803,
          "durationTicks": 96,
          "midi": 37,
          "name": "C#2",
          "ticks": 123072,
          "time": 179.7194135,
          "velocity": 0.3937007874015748
        },
        {
          "duration": 0.14018674999999803,
          "durationTicks": 96,
          "midi": 61,
          "name": "C#4",
          "ticks": 123168,
          "time": 179.85960025,
          "velocity": 0.3937007874015748
        },
        {
          "duration": 0.14018674999999803,
          "durationTicks": 96,
          "midi": 37,
          "name": "C#2",
          "ticks": 123168,
          "time": 179.85960025,
          "velocity": 0.3937007874015748
        },
        {
          "duration": 0.14018674999999803,
          "durationTicks": 96,
          "midi": 64,
          "name": "E4",
          "ticks": 123264,
          "time": 179.999787,
          "velocity": 0.3937007874015748
        },
        {
          "duration": 0.14018674999999803,
          "durationTicks": 96,
          "midi": 66,
          "name": "F#4",
          "ticks": 123456,
          "time": 180.2801605,
          "velocity": 0.3937007874015748
        },
        {
          "duration": 0.14018674999999803,
          "durationTicks": 96,
          "midi": 37,
          "name": "C#2",
          "ticks": 123456,
          "time": 180.2801605,
          "velocity": 0.3937007874015748
        },
        {
          "duration": 0.14018674999999803,
          "durationTicks": 96,
          "midi": 61,
          "name": "C#4",
          "ticks": 123648,
          "time": 180.560534,
          "velocity": 0.3937007874015748
        },
        {
          "duration": 0.14018674999999803,
          "durationTicks": 96,
          "midi": 37,
          "name": "C#2",
          "ticks": 123648,
          "time": 180.560534,
          "velocity": 0.3937007874015748
        },
        {
          "duration": 0.14018674999999803,
          "durationTicks": 96,
          "midi": 33,
          "name": "A1",
          "ticks": 123648,
          "time": 180.560534,
          "velocity": 0.3937007874015748
        },
        {
          "duration": 0.14018674999999803,
          "durationTicks": 96,
          "midi": 40,
          "name": "E2",
          "ticks": 123648,
          "time": 180.560534,
          "velocity": 0.3937007874015748
        },
        {
          "duration": 0.14018674999999803,
          "durationTicks": 96,
          "midi": 45,
          "name": "A2",
          "ticks": 123648,
          "time": 180.560534,
          "velocity": 0.3937007874015748
        },
        {
          "duration": 0.14018675000002645,
          "durationTicks": 96,
          "midi": 33,
          "name": "A1",
          "ticks": 123840,
          "time": 180.8409075,
          "velocity": 0.3937007874015748
        },
        {
          "duration": 0.14018674999999803,
          "durationTicks": 96,
          "midi": 61,
          "name": "C#4",
          "ticks": 123936,
          "time": 180.98109425,
          "velocity": 0.3937007874015748
        },
        {
          "duration": 0.14018674999999803,
          "durationTicks": 96,
          "midi": 33,
          "name": "A1",
          "ticks": 123936,
          "time": 180.98109425,
          "velocity": 0.3937007874015748
        },
        {
          "duration": 0.14018674999999803,
          "durationTicks": 96,
          "midi": 64,
          "name": "E4",
          "ticks": 124032,
          "time": 181.121281,
          "velocity": 0.3937007874015748
        },
        {
          "duration": 0.14018674999999803,
          "durationTicks": 96,
          "midi": 73,
          "name": "C#5",
          "ticks": 124224,
          "time": 181.4016545,
          "velocity": 0.3937007874015748
        },
        {
          "duration": 0.14018674999999803,
          "durationTicks": 96,
          "midi": 33,
          "name": "A1",
          "ticks": 124224,
          "time": 181.4016545,
          "velocity": 0.3937007874015748
        },
        {
          "duration": 0.14018674999999803,
          "durationTicks": 96,
          "midi": 71,
          "name": "B4",
          "ticks": 124416,
          "time": 181.682028,
          "velocity": 0.3937007874015748
        },
        {
          "duration": 0.14018674999999803,
          "durationTicks": 96,
          "midi": 44,
          "name": "G#2",
          "ticks": 124416,
          "time": 181.682028,
          "velocity": 0.3937007874015748
        },
        {
          "duration": 0.14018674999999803,
          "durationTicks": 96,
          "midi": 40,
          "name": "E2",
          "ticks": 124416,
          "time": 181.682028,
          "velocity": 0.3937007874015748
        },
        {
          "duration": 0.14018674999999803,
          "durationTicks": 96,
          "midi": 47,
          "name": "B2",
          "ticks": 124416,
          "time": 181.682028,
          "velocity": 0.3937007874015748
        },
        {
          "duration": 0.14018674999999803,
          "durationTicks": 96,
          "midi": 52,
          "name": "E3",
          "ticks": 124416,
          "time": 181.682028,
          "velocity": 0.3937007874015748
        },
        {
          "duration": 0.14018674999999803,
          "durationTicks": 96,
          "midi": 68,
          "name": "G#4",
          "ticks": 124608,
          "time": 181.9624015,
          "velocity": 0.3937007874015748
        },
        {
          "duration": 0.14018674999999803,
          "durationTicks": 96,
          "midi": 40,
          "name": "E2",
          "ticks": 124608,
          "time": 181.9624015,
          "velocity": 0.3937007874015748
        },
        {
          "duration": 0.14018674999999803,
          "durationTicks": 96,
          "midi": 40,
          "name": "E2",
          "ticks": 124704,
          "time": 182.10258825,
          "velocity": 0.3937007874015748
        },
        {
          "duration": 0.14018674999999803,
          "durationTicks": 96,
          "midi": 66,
          "name": "F#4",
          "ticks": 124800,
          "time": 182.242775,
          "velocity": 0.3937007874015748
        },
        {
          "duration": 0.14018674999999803,
          "durationTicks": 96,
          "midi": 64,
          "name": "E4",
          "ticks": 124896,
          "time": 182.38296175,
          "velocity": 0.3937007874015748
        },
        {
          "duration": 0.14018674999999803,
          "durationTicks": 96,
          "midi": 66,
          "name": "F#4",
          "ticks": 124992,
          "time": 182.5231485,
          "velocity": 0.3937007874015748
        },
        {
          "duration": 0.14018674999999803,
          "durationTicks": 96,
          "midi": 40,
          "name": "E2",
          "ticks": 124992,
          "time": 182.5231485,
          "velocity": 0.3937007874015748
        },
        {
          "duration": 0.14018674999999803,
          "durationTicks": 96,
          "midi": 68,
          "name": "G#4",
          "ticks": 125088,
          "time": 182.66333525,
          "velocity": 0.3937007874015748
        },
        {
          "duration": 0.2803735000000245,
          "durationTicks": 192,
          "midi": 71,
          "name": "B4",
          "ticks": 125184,
          "time": 182.803522,
          "velocity": 0.3937007874015748
        },
        {
          "duration": 0.14018674999999803,
          "durationTicks": 96,
          "midi": 47,
          "name": "B2",
          "ticks": 125184,
          "time": 182.803522,
          "velocity": 0.3937007874015748
        },
        {
          "duration": 0.14018674999999803,
          "durationTicks": 96,
          "midi": 39,
          "name": "D#2",
          "ticks": 125184,
          "time": 182.803522,
          "velocity": 0.3937007874015748
        },
        {
          "duration": 0.14018674999999803,
          "durationTicks": 96,
          "midi": 35,
          "name": "B1",
          "ticks": 125184,
          "time": 182.803522,
          "velocity": 0.3937007874015748
        },
        {
          "duration": 0.14018674999999803,
          "durationTicks": 96,
          "midi": 42,
          "name": "F#2",
          "ticks": 125184,
          "time": 182.803522,
          "velocity": 0.3937007874015748
        },
        {
          "duration": 0.14018674999999803,
          "durationTicks": 96,
          "midi": 68,
          "name": "G#4",
          "ticks": 125376,
          "time": 183.0838955,
          "velocity": 0.3937007874015748
        },
        {
          "duration": 0.14018674999999803,
          "durationTicks": 96,
          "midi": 35,
          "name": "B1",
          "ticks": 125376,
          "time": 183.0838955,
          "velocity": 0.3937007874015748
        },
        {
          "duration": 0.14018674999999803,
          "durationTicks": 96,
          "midi": 66,
          "name": "F#4",
          "ticks": 125472,
          "time": 183.22408225,
          "velocity": 0.3937007874015748
        },
        {
          "duration": 0.14018674999999803,
          "durationTicks": 96,
          "midi": 35,
          "name": "B1",
          "ticks": 125472,
          "time": 183.22408225,
          "velocity": 0.3937007874015748
        },
        {
          "duration": 0.4205602499999941,
          "durationTicks": 288,
          "midi": 64,
          "name": "E4",
          "ticks": 125664,
          "time": 183.50445575,
          "velocity": 0.3937007874015748
        },
        {
          "duration": 0.14018674999999803,
          "durationTicks": 96,
          "midi": 35,
          "name": "B1",
          "ticks": 125760,
          "time": 183.6446425,
          "velocity": 0.3937007874015748
        },
        {
          "duration": 0.14018674999999803,
          "durationTicks": 96,
          "midi": 61,
          "name": "C#4",
          "ticks": 125952,
          "time": 183.925016,
          "velocity": 0.3937007874015748
        },
        {
          "duration": 0.14018674999999803,
          "durationTicks": 96,
          "midi": 49,
          "name": "C#3",
          "ticks": 125952,
          "time": 183.925016,
          "velocity": 0.3937007874015748
        },
        {
          "duration": 0.14018674999999803,
          "durationTicks": 96,
          "midi": 40,
          "name": "E2",
          "ticks": 125952,
          "time": 183.925016,
          "velocity": 0.3937007874015748
        },
        {
          "duration": 0.14018674999999803,
          "durationTicks": 96,
          "midi": 37,
          "name": "C#2",
          "ticks": 125952,
          "time": 183.925016,
          "velocity": 0.3937007874015748
        },
        {
          "duration": 0.14018674999999803,
          "durationTicks": 96,
          "midi": 44,
          "name": "G#2",
          "ticks": 125952,
          "time": 183.925016,
          "velocity": 0.3937007874015748
        },
        {
          "duration": 0.14018674999999803,
          "durationTicks": 96,
          "midi": 37,
          "name": "C#2",
          "ticks": 126144,
          "time": 184.2053895,
          "velocity": 0.3937007874015748
        },
        {
          "duration": 0.14018674999999803,
          "durationTicks": 96,
          "midi": 61,
          "name": "C#4",
          "ticks": 126240,
          "time": 184.34557625,
          "velocity": 0.3937007874015748
        },
        {
          "duration": 0.14018674999999803,
          "durationTicks": 96,
          "midi": 37,
          "name": "C#2",
          "ticks": 126240,
          "time": 184.34557625,
          "velocity": 0.3937007874015748
        },
        {
          "duration": 0.14018674999999803,
          "durationTicks": 96,
          "midi": 64,
          "name": "E4",
          "ticks": 126336,
          "time": 184.485763,
          "velocity": 0.3937007874015748
        },
        {
          "duration": 0.14018674999999803,
          "durationTicks": 96,
          "midi": 66,
          "name": "F#4",
          "ticks": 126528,
          "time": 184.7661365,
          "velocity": 0.3937007874015748
        },
        {
          "duration": 0.14018674999999803,
          "durationTicks": 96,
          "midi": 37,
          "name": "C#2",
          "ticks": 126528,
          "time": 184.7661365,
          "velocity": 0.3937007874015748
        },
        {
          "duration": 0.14018674999999803,
          "durationTicks": 96,
          "midi": 61,
          "name": "C#4",
          "ticks": 126720,
          "time": 185.04651,
          "velocity": 0.3937007874015748
        },
        {
          "duration": 0.14018674999999803,
          "durationTicks": 96,
          "midi": 37,
          "name": "C#2",
          "ticks": 126720,
          "time": 185.04651,
          "velocity": 0.3937007874015748
        },
        {
          "duration": 0.14018674999999803,
          "durationTicks": 96,
          "midi": 33,
          "name": "A1",
          "ticks": 126720,
          "time": 185.04651,
          "velocity": 0.3937007874015748
        },
        {
          "duration": 0.14018674999999803,
          "durationTicks": 96,
          "midi": 40,
          "name": "E2",
          "ticks": 126720,
          "time": 185.04651,
          "velocity": 0.3937007874015748
        },
        {
          "duration": 0.14018674999999803,
          "durationTicks": 96,
          "midi": 45,
          "name": "A2",
          "ticks": 126720,
          "time": 185.04651,
          "velocity": 0.3937007874015748
        },
        {
          "duration": 0.14018674999999803,
          "durationTicks": 96,
          "midi": 33,
          "name": "A1",
          "ticks": 126912,
          "time": 185.3268835,
          "velocity": 0.3937007874015748
        },
        {
          "duration": 0.14018674999999803,
          "durationTicks": 96,
          "midi": 61,
          "name": "C#4",
          "ticks": 127008,
          "time": 185.46707025,
          "velocity": 0.3937007874015748
        },
        {
          "duration": 0.14018674999999803,
          "durationTicks": 96,
          "midi": 33,
          "name": "A1",
          "ticks": 127008,
          "time": 185.46707025,
          "velocity": 0.3937007874015748
        },
        {
          "duration": 0.14018674999999803,
          "durationTicks": 96,
          "midi": 64,
          "name": "E4",
          "ticks": 127104,
          "time": 185.607257,
          "velocity": 0.3937007874015748
        },
        {
          "duration": 0.14018674999999803,
          "durationTicks": 96,
          "midi": 66,
          "name": "F#4",
          "ticks": 127296,
          "time": 185.8876305,
          "velocity": 0.3937007874015748
        },
        {
          "duration": 0.14018674999999803,
          "durationTicks": 96,
          "midi": 33,
          "name": "A1",
          "ticks": 127296,
          "time": 185.8876305,
          "velocity": 0.3937007874015748
        },
        {
          "duration": 0.14018674999999803,
          "durationTicks": 96,
          "midi": 80,
          "name": "G#5",
          "ticks": 127488,
          "time": 186.168004,
          "velocity": 0.3937007874015748
        },
        {
          "duration": 0.14018674999999803,
          "durationTicks": 96,
          "midi": 44,
          "name": "G#2",
          "ticks": 127488,
          "time": 186.168004,
          "velocity": 0.3937007874015748
        },
        {
          "duration": 0.14018674999999803,
          "durationTicks": 96,
          "midi": 40,
          "name": "E2",
          "ticks": 127488,
          "time": 186.168004,
          "velocity": 0.3937007874015748
        },
        {
          "duration": 0.14018674999999803,
          "durationTicks": 96,
          "midi": 47,
          "name": "B2",
          "ticks": 127488,
          "time": 186.168004,
          "velocity": 0.3937007874015748
        },
        {
          "duration": 0.14018674999999803,
          "durationTicks": 96,
          "midi": 52,
          "name": "E3",
          "ticks": 127488,
          "time": 186.168004,
          "velocity": 0.3937007874015748
        },
        {
          "duration": 0.14018674999999803,
          "durationTicks": 96,
          "midi": 80,
          "name": "G#5",
          "ticks": 127680,
          "time": 186.4483775,
          "velocity": 0.3937007874015748
        },
        {
          "duration": 0.14018674999999803,
          "durationTicks": 96,
          "midi": 40,
          "name": "E2",
          "ticks": 127680,
          "time": 186.4483775,
          "velocity": 0.3937007874015748
        },
        {
          "duration": 0.14018674999999803,
          "durationTicks": 96,
          "midi": 40,
          "name": "E2",
          "ticks": 127776,
          "time": 186.58856425,
          "velocity": 0.3937007874015748
        },
        {
          "duration": 0.14018674999999803,
          "durationTicks": 96,
          "midi": 80,
          "name": "G#5",
          "ticks": 127872,
          "time": 186.728751,
          "velocity": 0.3937007874015748
        },
        {
          "duration": 0.14018674999999803,
          "durationTicks": 96,
          "midi": 78,
          "name": "F#5",
          "ticks": 127968,
          "time": 186.86893775,
          "velocity": 0.3937007874015748
        },
        {
          "duration": 0.14018675000002645,
          "durationTicks": 96,
          "midi": 76,
          "name": "E5",
          "ticks": 128064,
          "time": 187.00912449999998,
          "velocity": 0.3937007874015748
        },
        {
          "duration": 0.14018675000002645,
          "durationTicks": 96,
          "midi": 40,
          "name": "E2",
          "ticks": 128064,
          "time": 187.00912449999998,
          "velocity": 0.3937007874015748
        },
        {
          "duration": 0.14018674999999803,
          "durationTicks": 96,
          "midi": 80,
          "name": "G#5",
          "ticks": 128160,
          "time": 187.14931125,
          "velocity": 0.3937007874015748
        },
        {
          "duration": 0.28037349999999606,
          "durationTicks": 192,
          "midi": 78,
          "name": "F#5",
          "ticks": 128256,
          "time": 187.289498,
          "velocity": 0.3937007874015748
        },
        {
          "duration": 0.14018674999999803,
          "durationTicks": 96,
          "midi": 47,
          "name": "B2",
          "ticks": 128256,
          "time": 187.289498,
          "velocity": 0.3937007874015748
        },
        {
          "duration": 0.14018674999999803,
          "durationTicks": 96,
          "midi": 39,
          "name": "D#2",
          "ticks": 128256,
          "time": 187.289498,
          "velocity": 0.3937007874015748
        },
        {
          "duration": 0.14018674999999803,
          "durationTicks": 96,
          "midi": 35,
          "name": "B1",
          "ticks": 128256,
          "time": 187.289498,
          "velocity": 0.3937007874015748
        },
        {
          "duration": 0.14018674999999803,
          "durationTicks": 96,
          "midi": 42,
          "name": "F#2",
          "ticks": 128256,
          "time": 187.289498,
          "velocity": 0.3937007874015748
        },
        {
          "duration": 0.14018674999999803,
          "durationTicks": 96,
          "midi": 76,
          "name": "E5",
          "ticks": 128448,
          "time": 187.5698715,
          "velocity": 0.3937007874015748
        },
        {
          "duration": 0.14018674999999803,
          "durationTicks": 96,
          "midi": 35,
          "name": "B1",
          "ticks": 128448,
          "time": 187.5698715,
          "velocity": 0.3937007874015748
        },
        {
          "duration": 0.14018674999999803,
          "durationTicks": 96,
          "midi": 78,
          "name": "F#5",
          "ticks": 128544,
          "time": 187.71005825,
          "velocity": 0.3937007874015748
        },
        {
          "duration": 0.14018674999999803,
          "durationTicks": 96,
          "midi": 35,
          "name": "B1",
          "ticks": 128544,
          "time": 187.71005825,
          "velocity": 0.3937007874015748
        },
        {
          "duration": 0.4205602499999941,
          "durationTicks": 288,
          "midi": 80,
          "name": "G#5",
          "ticks": 128736,
          "time": 187.99043175,
          "velocity": 0.3937007874015748
        },
        {
          "duration": 0.14018674999999803,
          "durationTicks": 96,
          "midi": 35,
          "name": "B1",
          "ticks": 128832,
          "time": 188.1306185,
          "velocity": 0.3937007874015748
        },
        {
          "duration": 0.14018674999999803,
          "durationTicks": 96,
          "midi": 61,
          "name": "C#4",
          "ticks": 129024,
          "time": 188.410992,
          "velocity": 0.3937007874015748
        },
        {
          "duration": 0.14018674999999803,
          "durationTicks": 96,
          "midi": 49,
          "name": "C#3",
          "ticks": 129024,
          "time": 188.410992,
          "velocity": 0.3937007874015748
        },
        {
          "duration": 0.14018674999999803,
          "durationTicks": 96,
          "midi": 40,
          "name": "E2",
          "ticks": 129024,
          "time": 188.410992,
          "velocity": 0.3937007874015748
        },
        {
          "duration": 0.14018674999999803,
          "durationTicks": 96,
          "midi": 37,
          "name": "C#2",
          "ticks": 129024,
          "time": 188.410992,
          "velocity": 0.3937007874015748
        },
        {
          "duration": 0.14018674999999803,
          "durationTicks": 96,
          "midi": 44,
          "name": "G#2",
          "ticks": 129024,
          "time": 188.410992,
          "velocity": 0.3937007874015748
        },
        {
          "duration": 0.14018674999999803,
          "durationTicks": 96,
          "midi": 37,
          "name": "C#2",
          "ticks": 129216,
          "time": 188.6913655,
          "velocity": 0.3937007874015748
        },
        {
          "duration": 0.14018674999999803,
          "durationTicks": 96,
          "midi": 61,
          "name": "C#4",
          "ticks": 129312,
          "time": 188.83155225,
          "velocity": 0.3937007874015748
        },
        {
          "duration": 0.14018674999999803,
          "durationTicks": 96,
          "midi": 37,
          "name": "C#2",
          "ticks": 129312,
          "time": 188.83155225,
          "velocity": 0.3937007874015748
        },
        {
          "duration": 0.14018675000002645,
          "durationTicks": 96,
          "midi": 64,
          "name": "E4",
          "ticks": 129408,
          "time": 188.97173899999999,
          "velocity": 0.3937007874015748
        },
        {
          "duration": 0.14018674999999803,
          "durationTicks": 96,
          "midi": 66,
          "name": "F#4",
          "ticks": 129600,
          "time": 189.2521125,
          "velocity": 0.3937007874015748
        },
        {
          "duration": 0.14018674999999803,
          "durationTicks": 96,
          "midi": 37,
          "name": "C#2",
          "ticks": 129600,
          "time": 189.2521125,
          "velocity": 0.3937007874015748
        },
        {
          "duration": 0.14018674999999803,
          "durationTicks": 96,
          "midi": 61,
          "name": "C#4",
          "ticks": 129792,
          "time": 189.532486,
          "velocity": 0.3937007874015748
        },
        {
          "duration": 0.14018674999999803,
          "durationTicks": 96,
          "midi": 37,
          "name": "C#2",
          "ticks": 129792,
          "time": 189.532486,
          "velocity": 0.3937007874015748
        },
        {
          "duration": 0.14018674999999803,
          "durationTicks": 96,
          "midi": 33,
          "name": "A1",
          "ticks": 129792,
          "time": 189.532486,
          "velocity": 0.3937007874015748
        },
        {
          "duration": 0.14018674999999803,
          "durationTicks": 96,
          "midi": 40,
          "name": "E2",
          "ticks": 129792,
          "time": 189.532486,
          "velocity": 0.3937007874015748
        },
        {
          "duration": 0.14018674999999803,
          "durationTicks": 96,
          "midi": 45,
          "name": "A2",
          "ticks": 129792,
          "time": 189.532486,
          "velocity": 0.3937007874015748
        },
        {
          "duration": 0.14018674999999803,
          "durationTicks": 96,
          "midi": 33,
          "name": "A1",
          "ticks": 129984,
          "time": 189.8128595,
          "velocity": 0.3937007874015748
        },
        {
          "duration": 0.14018674999999803,
          "durationTicks": 96,
          "midi": 61,
          "name": "C#4",
          "ticks": 130080,
          "time": 189.95304625,
          "velocity": 0.3937007874015748
        },
        {
          "duration": 0.14018674999999803,
          "durationTicks": 96,
          "midi": 33,
          "name": "A1",
          "ticks": 130080,
          "time": 189.95304625,
          "velocity": 0.3937007874015748
        },
        {
          "duration": 0.14018674999999803,
          "durationTicks": 96,
          "midi": 64,
          "name": "E4",
          "ticks": 130176,
          "time": 190.093233,
          "velocity": 0.3937007874015748
        },
        {
          "duration": 0.14018674999999803,
          "durationTicks": 96,
          "midi": 85,
          "name": "C#6",
          "ticks": 130368,
          "time": 190.3736065,
          "velocity": 0.3937007874015748
        },
        {
          "duration": 0.14018674999999803,
          "durationTicks": 96,
          "midi": 33,
          "name": "A1",
          "ticks": 130368,
          "time": 190.3736065,
          "velocity": 0.3937007874015748
        },
        {
          "duration": 0.14018674999999803,
          "durationTicks": 96,
          "midi": 83,
          "name": "B5",
          "ticks": 130560,
          "time": 190.65398,
          "velocity": 0.3937007874015748
        },
        {
          "duration": 0.14018674999999803,
          "durationTicks": 96,
          "midi": 44,
          "name": "G#2",
          "ticks": 130560,
          "time": 190.65398,
          "velocity": 0.3937007874015748
        },
        {
          "duration": 0.14018674999999803,
          "durationTicks": 96,
          "midi": 40,
          "name": "E2",
          "ticks": 130560,
          "time": 190.65398,
          "velocity": 0.3937007874015748
        },
        {
          "duration": 0.14018674999999803,
          "durationTicks": 96,
          "midi": 47,
          "name": "B2",
          "ticks": 130560,
          "time": 190.65398,
          "velocity": 0.3937007874015748
        },
        {
          "duration": 0.14018674999999803,
          "durationTicks": 96,
          "midi": 52,
          "name": "E3",
          "ticks": 130560,
          "time": 190.65398,
          "velocity": 0.3937007874015748
        },
        {
          "duration": 0.14018675000002645,
          "durationTicks": 96,
          "midi": 80,
          "name": "G#5",
          "ticks": 130752,
          "time": 190.9343535,
          "velocity": 0.3937007874015748
        },
        {
          "duration": 0.14018675000002645,
          "durationTicks": 96,
          "midi": 40,
          "name": "E2",
          "ticks": 130752,
          "time": 190.9343535,
          "velocity": 0.3937007874015748
        },
        {
          "duration": 0.14018674999999803,
          "durationTicks": 96,
          "midi": 40,
          "name": "E2",
          "ticks": 130848,
          "time": 191.07454025,
          "velocity": 0.3937007874015748
        },
        {
          "duration": 0.14018674999999803,
          "durationTicks": 96,
          "midi": 78,
          "name": "F#5",
          "ticks": 130944,
          "time": 191.214727,
          "velocity": 0.3937007874015748
        },
        {
          "duration": 0.14018674999999803,
          "durationTicks": 96,
          "midi": 76,
          "name": "E5",
          "ticks": 131040,
          "time": 191.35491375,
          "velocity": 0.3937007874015748
        },
        {
          "duration": 0.14018674999999803,
          "durationTicks": 96,
          "midi": 78,
          "name": "F#5",
          "ticks": 131136,
          "time": 191.4951005,
          "velocity": 0.3937007874015748
        },
        {
          "duration": 0.14018674999999803,
          "durationTicks": 96,
          "midi": 40,
          "name": "E2",
          "ticks": 131136,
          "time": 191.4951005,
          "velocity": 0.3937007874015748
        },
        {
          "duration": 0.14018674999999803,
          "durationTicks": 96,
          "midi": 80,
          "name": "G#5",
          "ticks": 131232,
          "time": 191.63528725,
          "velocity": 0.3937007874015748
        },
        {
          "duration": 0.28037349999999606,
          "durationTicks": 192,
          "midi": 83,
          "name": "B5",
          "ticks": 131328,
          "time": 191.775474,
          "velocity": 0.3937007874015748
        },
        {
          "duration": 0.14018674999999803,
          "durationTicks": 96,
          "midi": 47,
          "name": "B2",
          "ticks": 131328,
          "time": 191.775474,
          "velocity": 0.3937007874015748
        },
        {
          "duration": 0.14018674999999803,
          "durationTicks": 96,
          "midi": 39,
          "name": "D#2",
          "ticks": 131328,
          "time": 191.775474,
          "velocity": 0.3937007874015748
        },
        {
          "duration": 0.14018674999999803,
          "durationTicks": 96,
          "midi": 35,
          "name": "B1",
          "ticks": 131328,
          "time": 191.775474,
          "velocity": 0.3937007874015748
        },
        {
          "duration": 0.14018674999999803,
          "durationTicks": 96,
          "midi": 42,
          "name": "F#2",
          "ticks": 131328,
          "time": 191.775474,
          "velocity": 0.3937007874015748
        },
        {
          "duration": 0.14018674999999803,
          "durationTicks": 96,
          "midi": 80,
          "name": "G#5",
          "ticks": 131520,
          "time": 192.0558475,
          "velocity": 0.3937007874015748
        },
        {
          "duration": 0.14018674999999803,
          "durationTicks": 96,
          "midi": 35,
          "name": "B1",
          "ticks": 131520,
          "time": 192.0558475,
          "velocity": 0.3937007874015748
        },
        {
          "duration": 0.14018674999999803,
          "durationTicks": 96,
          "midi": 78,
          "name": "F#5",
          "ticks": 131616,
          "time": 192.19603425,
          "velocity": 0.3937007874015748
        },
        {
          "duration": 0.14018674999999803,
          "durationTicks": 96,
          "midi": 35,
          "name": "B1",
          "ticks": 131616,
          "time": 192.19603425,
          "velocity": 0.3937007874015748
        },
        {
          "duration": 0.4205602499999941,
          "durationTicks": 288,
          "midi": 76,
          "name": "E5",
          "ticks": 131808,
          "time": 192.47640775,
          "velocity": 0.3937007874015748
        },
        {
          "duration": 0.14018674999999803,
          "durationTicks": 96,
          "midi": 35,
          "name": "B1",
          "ticks": 131904,
          "time": 192.6165945,
          "velocity": 0.3937007874015748
        },
        {
          "duration": 0.14018674999999803,
          "durationTicks": 96,
          "midi": 61,
          "name": "C#4",
          "ticks": 132096,
          "time": 192.896968,
          "velocity": 0.3937007874015748
        },
        {
          "duration": 0.14018674999999803,
          "durationTicks": 96,
          "midi": 49,
          "name": "C#3",
          "ticks": 132096,
          "time": 192.896968,
          "velocity": 0.3937007874015748
        },
        {
          "duration": 0.14018674999999803,
          "durationTicks": 96,
          "midi": 40,
          "name": "E2",
          "ticks": 132096,
          "time": 192.896968,
          "velocity": 0.3937007874015748
        },
        {
          "duration": 0.14018674999999803,
          "durationTicks": 96,
          "midi": 37,
          "name": "C#2",
          "ticks": 132096,
          "time": 192.896968,
          "velocity": 0.3937007874015748
        },
        {
          "duration": 0.14018674999999803,
          "durationTicks": 96,
          "midi": 44,
          "name": "G#2",
          "ticks": 132096,
          "time": 192.896968,
          "velocity": 0.3937007874015748
        },
        {
          "duration": 0.14018674999999803,
          "durationTicks": 96,
          "midi": 37,
          "name": "C#2",
          "ticks": 132288,
          "time": 193.1773415,
          "velocity": 0.3937007874015748
        },
        {
          "duration": 0.14018674999999803,
          "durationTicks": 96,
          "midi": 61,
          "name": "C#4",
          "ticks": 132384,
          "time": 193.31752825,
          "velocity": 0.3937007874015748
        },
        {
          "duration": 0.14018674999999803,
          "durationTicks": 96,
          "midi": 37,
          "name": "C#2",
          "ticks": 132384,
          "time": 193.31752825,
          "velocity": 0.3937007874015748
        },
        {
          "duration": 0.14018674999999803,
          "durationTicks": 96,
          "midi": 64,
          "name": "E4",
          "ticks": 132480,
          "time": 193.457715,
          "velocity": 0.3937007874015748
        },
        {
          "duration": 0.14018674999999803,
          "durationTicks": 96,
          "midi": 66,
          "name": "F#4",
          "ticks": 132672,
          "time": 193.7380885,
          "velocity": 0.3937007874015748
        },
        {
          "duration": 0.14018674999999803,
          "durationTicks": 96,
          "midi": 37,
          "name": "C#2",
          "ticks": 132672,
          "time": 193.7380885,
          "velocity": 0.3937007874015748
        },
        {
          "duration": 0.14018674999999803,
          "durationTicks": 96,
          "midi": 61,
          "name": "C#4",
          "ticks": 132864,
          "time": 194.018462,
          "velocity": 0.3937007874015748
        },
        {
          "duration": 0.14018674999999803,
          "durationTicks": 96,
          "midi": 37,
          "name": "C#2",
          "ticks": 132864,
          "time": 194.018462,
          "velocity": 0.3937007874015748
        },
        {
          "duration": 0.14018674999999803,
          "durationTicks": 96,
          "midi": 33,
          "name": "A1",
          "ticks": 132864,
          "time": 194.018462,
          "velocity": 0.3937007874015748
        },
        {
          "duration": 0.14018674999999803,
          "durationTicks": 96,
          "midi": 40,
          "name": "E2",
          "ticks": 132864,
          "time": 194.018462,
          "velocity": 0.3937007874015748
        },
        {
          "duration": 0.14018674999999803,
          "durationTicks": 96,
          "midi": 45,
          "name": "A2",
          "ticks": 132864,
          "time": 194.018462,
          "velocity": 0.3937007874015748
        },
        {
          "duration": 0.14018674999999803,
          "durationTicks": 96,
          "midi": 33,
          "name": "A1",
          "ticks": 133056,
          "time": 194.2988355,
          "velocity": 0.3937007874015748
        },
        {
          "duration": 0.14018674999999803,
          "durationTicks": 96,
          "midi": 61,
          "name": "C#4",
          "ticks": 133152,
          "time": 194.43902225,
          "velocity": 0.3937007874015748
        },
        {
          "duration": 0.14018674999999803,
          "durationTicks": 96,
          "midi": 33,
          "name": "A1",
          "ticks": 133152,
          "time": 194.43902225,
          "velocity": 0.3937007874015748
        },
        {
          "duration": 0.14018674999999803,
          "durationTicks": 96,
          "midi": 64,
          "name": "E4",
          "ticks": 133248,
          "time": 194.579209,
          "velocity": 0.3937007874015748
        },
        {
          "duration": 0.14018674999999803,
          "durationTicks": 96,
          "midi": 66,
          "name": "F#4",
          "ticks": 133440,
          "time": 194.8595825,
          "velocity": 0.3937007874015748
        },
        {
          "duration": 0.14018674999999803,
          "durationTicks": 96,
          "midi": 33,
          "name": "A1",
          "ticks": 133440,
          "time": 194.8595825,
          "velocity": 0.3937007874015748
        },
        {
          "duration": 0.14018674999999803,
          "durationTicks": 96,
          "midi": 80,
          "name": "G#5",
          "ticks": 133632,
          "time": 195.139956,
          "velocity": 0.3937007874015748
        },
        {
          "duration": 0.14018674999999803,
          "durationTicks": 96,
          "midi": 44,
          "name": "G#2",
          "ticks": 133632,
          "time": 195.139956,
          "velocity": 0.3937007874015748
        },
        {
          "duration": 0.14018674999999803,
          "durationTicks": 96,
          "midi": 40,
          "name": "E2",
          "ticks": 133632,
          "time": 195.139956,
          "velocity": 0.3937007874015748
        },
        {
          "duration": 0.14018674999999803,
          "durationTicks": 96,
          "midi": 47,
          "name": "B2",
          "ticks": 133632,
          "time": 195.139956,
          "velocity": 0.3937007874015748
        },
        {
          "duration": 0.14018674999999803,
          "durationTicks": 96,
          "midi": 52,
          "name": "E3",
          "ticks": 133632,
          "time": 195.139956,
          "velocity": 0.3937007874015748
        },
        {
          "duration": 0.14018674999999803,
          "durationTicks": 96,
          "midi": 80,
          "name": "G#5",
          "ticks": 133824,
          "time": 195.4203295,
          "velocity": 0.3937007874015748
        },
        {
          "duration": 0.14018674999999803,
          "durationTicks": 96,
          "midi": 40,
          "name": "E2",
          "ticks": 133824,
          "time": 195.4203295,
          "velocity": 0.3937007874015748
        },
        {
          "duration": 0.14018674999999803,
          "durationTicks": 96,
          "midi": 40,
          "name": "E2",
          "ticks": 133920,
          "time": 195.56051625,
          "velocity": 0.3937007874015748
        },
        {
          "duration": 0.14018674999999803,
          "durationTicks": 96,
          "midi": 80,
          "name": "G#5",
          "ticks": 134016,
          "time": 195.700703,
          "velocity": 0.3937007874015748
        },
        {
          "duration": 0.14018674999999803,
          "durationTicks": 96,
          "midi": 78,
          "name": "F#5",
          "ticks": 134112,
          "time": 195.84088975,
          "velocity": 0.3937007874015748
        },
        {
          "duration": 0.14018674999999803,
          "durationTicks": 96,
          "midi": 76,
          "name": "E5",
          "ticks": 134208,
          "time": 195.9810765,
          "velocity": 0.3937007874015748
        },
        {
          "duration": 0.14018674999999803,
          "durationTicks": 96,
          "midi": 40,
          "name": "E2",
          "ticks": 134208,
          "time": 195.9810765,
          "velocity": 0.3937007874015748
        },
        {
          "duration": 0.14018674999999803,
          "durationTicks": 96,
          "midi": 80,
          "name": "G#5",
          "ticks": 134304,
          "time": 196.12126325,
          "velocity": 0.3937007874015748
        },
        {
          "duration": 0.28037349999999606,
          "durationTicks": 192,
          "midi": 78,
          "name": "F#5",
          "ticks": 134400,
          "time": 196.26145,
          "velocity": 0.3937007874015748
        },
        {
          "duration": 0.14018674999999803,
          "durationTicks": 96,
          "midi": 47,
          "name": "B2",
          "ticks": 134400,
          "time": 196.26145,
          "velocity": 0.3937007874015748
        },
        {
          "duration": 0.14018674999999803,
          "durationTicks": 96,
          "midi": 39,
          "name": "D#2",
          "ticks": 134400,
          "time": 196.26145,
          "velocity": 0.3937007874015748
        },
        {
          "duration": 0.14018674999999803,
          "durationTicks": 96,
          "midi": 35,
          "name": "B1",
          "ticks": 134400,
          "time": 196.26145,
          "velocity": 0.3937007874015748
        },
        {
          "duration": 0.14018674999999803,
          "durationTicks": 96,
          "midi": 42,
          "name": "F#2",
          "ticks": 134400,
          "time": 196.26145,
          "velocity": 0.3937007874015748
        },
        {
          "duration": 0.14018674999999803,
          "durationTicks": 96,
          "midi": 76,
          "name": "E5",
          "ticks": 134592,
          "time": 196.5418235,
          "velocity": 0.3937007874015748
        },
        {
          "duration": 0.14018674999999803,
          "durationTicks": 96,
          "midi": 35,
          "name": "B1",
          "ticks": 134592,
          "time": 196.5418235,
          "velocity": 0.3937007874015748
        },
        {
          "duration": 0.14018674999999803,
          "durationTicks": 96,
          "midi": 78,
          "name": "F#5",
          "ticks": 134688,
          "time": 196.68201025,
          "velocity": 0.3937007874015748
        },
        {
          "duration": 0.14018674999999803,
          "durationTicks": 96,
          "midi": 35,
          "name": "B1",
          "ticks": 134688,
          "time": 196.68201025,
          "velocity": 0.3937007874015748
        },
        {
          "duration": 0.4205602500000225,
          "durationTicks": 288,
          "midi": 80,
          "name": "G#5",
          "ticks": 134880,
          "time": 196.96238375,
          "velocity": 0.3937007874015748
        },
        {
          "duration": 0.14018675000002645,
          "durationTicks": 96,
          "midi": 35,
          "name": "B1",
          "ticks": 134976,
          "time": 197.10257049999998,
          "velocity": 0.3937007874015748
        },
        {
          "duration": 0.14018674999999803,
          "durationTicks": 96,
          "midi": 61,
          "name": "C#4",
          "ticks": 135168,
          "time": 197.382944,
          "velocity": 0.3937007874015748
        },
        {
          "duration": 0.14018674999999803,
          "durationTicks": 96,
          "midi": 49,
          "name": "C#3",
          "ticks": 135168,
          "time": 197.382944,
          "velocity": 0.3937007874015748
        },
        {
          "duration": 0.14018674999999803,
          "durationTicks": 96,
          "midi": 40,
          "name": "E2",
          "ticks": 135168,
          "time": 197.382944,
          "velocity": 0.3937007874015748
        },
        {
          "duration": 0.14018674999999803,
          "durationTicks": 96,
          "midi": 37,
          "name": "C#2",
          "ticks": 135168,
          "time": 197.382944,
          "velocity": 0.3937007874015748
        },
        {
          "duration": 0.14018674999999803,
          "durationTicks": 96,
          "midi": 44,
          "name": "G#2",
          "ticks": 135168,
          "time": 197.382944,
          "velocity": 0.3937007874015748
        },
        {
          "duration": 0.14018674999999803,
          "durationTicks": 96,
          "midi": 37,
          "name": "C#2",
          "ticks": 135360,
          "time": 197.6633175,
          "velocity": 0.3937007874015748
        },
        {
          "duration": 0.14018674999999803,
          "durationTicks": 96,
          "midi": 61,
          "name": "C#4",
          "ticks": 135456,
          "time": 197.80350425,
          "velocity": 0.3937007874015748
        },
        {
          "duration": 0.14018674999999803,
          "durationTicks": 96,
          "midi": 37,
          "name": "C#2",
          "ticks": 135456,
          "time": 197.80350425,
          "velocity": 0.3937007874015748
        },
        {
          "duration": 0.14018674999999803,
          "durationTicks": 96,
          "midi": 64,
          "name": "E4",
          "ticks": 135552,
          "time": 197.943691,
          "velocity": 0.3937007874015748
        },
        {
          "duration": 0.14018674999999803,
          "durationTicks": 96,
          "midi": 66,
          "name": "F#4",
          "ticks": 135744,
          "time": 198.2240645,
          "velocity": 0.3937007874015748
        },
        {
          "duration": 0.14018674999999803,
          "durationTicks": 96,
          "midi": 37,
          "name": "C#2",
          "ticks": 135744,
          "time": 198.2240645,
          "velocity": 0.3937007874015748
        },
        {
          "duration": 0.14018674999999803,
          "durationTicks": 96,
          "midi": 61,
          "name": "C#4",
          "ticks": 135936,
          "time": 198.504438,
          "velocity": 0.3937007874015748
        },
        {
          "duration": 0.14018674999999803,
          "durationTicks": 96,
          "midi": 37,
          "name": "C#2",
          "ticks": 135936,
          "time": 198.504438,
          "velocity": 0.3937007874015748
        },
        {
          "duration": 0.14018674999999803,
          "durationTicks": 96,
          "midi": 33,
          "name": "A1",
          "ticks": 135936,
          "time": 198.504438,
          "velocity": 0.3937007874015748
        },
        {
          "duration": 0.14018674999999803,
          "durationTicks": 96,
          "midi": 40,
          "name": "E2",
          "ticks": 135936,
          "time": 198.504438,
          "velocity": 0.3937007874015748
        },
        {
          "duration": 0.14018674999999803,
          "durationTicks": 96,
          "midi": 45,
          "name": "A2",
          "ticks": 135936,
          "time": 198.504438,
          "velocity": 0.3937007874015748
        },
        {
          "duration": 0.14018674999999803,
          "durationTicks": 96,
          "midi": 33,
          "name": "A1",
          "ticks": 136128,
          "time": 198.7848115,
          "velocity": 0.3937007874015748
        },
        {
          "duration": 0.14018674999999803,
          "durationTicks": 96,
          "midi": 61,
          "name": "C#4",
          "ticks": 136224,
          "time": 198.92499825,
          "velocity": 0.3937007874015748
        },
        {
          "duration": 0.14018674999999803,
          "durationTicks": 96,
          "midi": 33,
          "name": "A1",
          "ticks": 136224,
          "time": 198.92499825,
          "velocity": 0.3937007874015748
        },
        {
          "duration": 0.14018675000002645,
          "durationTicks": 96,
          "midi": 64,
          "name": "E4",
          "ticks": 136320,
          "time": 199.06518499999999,
          "velocity": 0.3937007874015748
        },
        {
          "duration": 0.14018674999999803,
          "durationTicks": 96,
          "midi": 85,
          "name": "C#6",
          "ticks": 136512,
          "time": 199.3455585,
          "velocity": 0.3937007874015748
        },
        {
          "duration": 0.14018674999999803,
          "durationTicks": 96,
          "midi": 33,
          "name": "A1",
          "ticks": 136512,
          "time": 199.3455585,
          "velocity": 0.3937007874015748
        },
        {
          "duration": 0.14018674999999803,
          "durationTicks": 96,
          "midi": 83,
          "name": "B5",
          "ticks": 136704,
          "time": 199.625932,
          "velocity": 0.3937007874015748
        },
        {
          "duration": 0.14018674999999803,
          "durationTicks": 96,
          "midi": 44,
          "name": "G#2",
          "ticks": 136704,
          "time": 199.625932,
          "velocity": 0.3937007874015748
        },
        {
          "duration": 0.14018674999999803,
          "durationTicks": 96,
          "midi": 40,
          "name": "E2",
          "ticks": 136704,
          "time": 199.625932,
          "velocity": 0.3937007874015748
        },
        {
          "duration": 0.14018674999999803,
          "durationTicks": 96,
          "midi": 47,
          "name": "B2",
          "ticks": 136704,
          "time": 199.625932,
          "velocity": 0.3937007874015748
        },
        {
          "duration": 0.14018674999999803,
          "durationTicks": 96,
          "midi": 52,
          "name": "E3",
          "ticks": 136704,
          "time": 199.625932,
          "velocity": 0.3937007874015748
        },
        {
          "duration": 0.14018674999999803,
          "durationTicks": 96,
          "midi": 80,
          "name": "G#5",
          "ticks": 136896,
          "time": 199.9063055,
          "velocity": 0.3937007874015748
        },
        {
          "duration": 0.14018674999999803,
          "durationTicks": 96,
          "midi": 40,
          "name": "E2",
          "ticks": 136896,
          "time": 199.9063055,
          "velocity": 0.3937007874015748
        },
        {
          "duration": 0.14018674999999803,
          "durationTicks": 96,
          "midi": 40,
          "name": "E2",
          "ticks": 136992,
          "time": 200.04649225,
          "velocity": 0.3937007874015748
        },
        {
          "duration": 0.14018674999999803,
          "durationTicks": 96,
          "midi": 78,
          "name": "F#5",
          "ticks": 137088,
          "time": 200.186679,
          "velocity": 0.3937007874015748
        },
        {
          "duration": 0.14018674999999803,
          "durationTicks": 96,
          "midi": 76,
          "name": "E5",
          "ticks": 137184,
          "time": 200.32686575,
          "velocity": 0.3937007874015748
        },
        {
          "duration": 0.14018674999999803,
          "durationTicks": 96,
          "midi": 78,
          "name": "F#5",
          "ticks": 137280,
          "time": 200.4670525,
          "velocity": 0.3937007874015748
        },
        {
          "duration": 0.14018674999999803,
          "durationTicks": 96,
          "midi": 40,
          "name": "E2",
          "ticks": 137280,
          "time": 200.4670525,
          "velocity": 0.3937007874015748
        },
        {
          "duration": 0.14018674999999803,
          "durationTicks": 96,
          "midi": 80,
          "name": "G#5",
          "ticks": 137376,
          "time": 200.60723925,
          "velocity": 0.3937007874015748
        },
        {
          "duration": 0.28037349999999606,
          "durationTicks": 192,
          "midi": 83,
          "name": "B5",
          "ticks": 137472,
          "time": 200.747426,
          "velocity": 0.3937007874015748
        },
        {
          "duration": 0.14018674999999803,
          "durationTicks": 96,
          "midi": 47,
          "name": "B2",
          "ticks": 137472,
          "time": 200.747426,
          "velocity": 0.3937007874015748
        },
        {
          "duration": 0.14018674999999803,
          "durationTicks": 96,
          "midi": 39,
          "name": "D#2",
          "ticks": 137472,
          "time": 200.747426,
          "velocity": 0.3937007874015748
        },
        {
          "duration": 0.14018674999999803,
          "durationTicks": 96,
          "midi": 35,
          "name": "B1",
          "ticks": 137472,
          "time": 200.747426,
          "velocity": 0.3937007874015748
        },
        {
          "duration": 0.14018674999999803,
          "durationTicks": 96,
          "midi": 42,
          "name": "F#2",
          "ticks": 137472,
          "time": 200.747426,
          "velocity": 0.3937007874015748
        },
        {
          "duration": 0.14018674999999803,
          "durationTicks": 96,
          "midi": 80,
          "name": "G#5",
          "ticks": 137664,
          "time": 201.0277995,
          "velocity": 0.3937007874015748
        },
        {
          "duration": 0.14018674999999803,
          "durationTicks": 96,
          "midi": 35,
          "name": "B1",
          "ticks": 137664,
          "time": 201.0277995,
          "velocity": 0.3937007874015748
        },
        {
          "duration": 0.14018675000002645,
          "durationTicks": 96,
          "midi": 78,
          "name": "F#5",
          "ticks": 137760,
          "time": 201.16798624999998,
          "velocity": 0.3937007874015748
        },
        {
          "duration": 0.14018675000002645,
          "durationTicks": 96,
          "midi": 35,
          "name": "B1",
          "ticks": 137760,
          "time": 201.16798624999998,
          "velocity": 0.3937007874015748
        },
        {
          "duration": 0.28037349999999606,
          "durationTicks": 192,
          "midi": 80,
          "name": "G#5",
          "ticks": 137856,
          "time": 201.308173,
          "velocity": 0.3937007874015748
        },
        {
          "duration": 0.28037349999999606,
          "durationTicks": 192,
          "midi": 68,
          "name": "G#4",
          "ticks": 137856,
          "time": 201.308173,
          "velocity": 0.3937007874015748
        },
        {
          "duration": 0.28037349999999606,
          "durationTicks": 192,
          "midi": 83,
          "name": "B5",
          "ticks": 138048,
          "time": 201.5885465,
          "velocity": 0.3937007874015748
        },
        {
          "duration": 0.28037349999999606,
          "durationTicks": 192,
          "midi": 71,
          "name": "B4",
          "ticks": 138048,
          "time": 201.5885465,
          "velocity": 0.3937007874015748
        },
        {
          "duration": 0.14018674999999803,
          "durationTicks": 96,
          "midi": 35,
          "name": "B1",
          "ticks": 138048,
          "time": 201.5885465,
          "velocity": 0.3937007874015748
        },
        {
          "duration": 0.5607469999999921,
          "durationTicks": 384,
          "midi": 73,
          "name": "C#5",
          "ticks": 138240,
          "time": 201.86892,
          "velocity": 0.3937007874015748
        },
        {
          "duration": 0.5607469999999921,
          "durationTicks": 384,
          "midi": 85,
          "name": "C#6",
          "ticks": 138240,
          "time": 201.86892,
          "velocity": 0.3937007874015748
        },
        {
          "duration": 0.28037349999999606,
          "durationTicks": 192,
          "midi": 45,
          "name": "A2",
          "ticks": 138240,
          "time": 201.86892,
          "velocity": 0.3937007874015748
        },
        {
          "duration": 0.28037349999999606,
          "durationTicks": 192,
          "midi": 33,
          "name": "A1",
          "ticks": 138240,
          "time": 201.86892,
          "velocity": 0.3937007874015748
        },
        {
          "duration": 0.28037349999999606,
          "durationTicks": 192,
          "midi": 37,
          "name": "C#2",
          "ticks": 138240,
          "time": 201.86892,
          "velocity": 0.3937007874015748
        },
        {
          "duration": 0.28037349999999606,
          "durationTicks": 192,
          "midi": 40,
          "name": "E2",
          "ticks": 138240,
          "time": 201.86892,
          "velocity": 0.3937007874015748
        },
        {
          "duration": 0.14018674999999803,
          "durationTicks": 96,
          "midi": 33,
          "name": "A1",
          "ticks": 138432,
          "time": 202.1492935,
          "velocity": 0.3937007874015748
        },
        {
          "duration": 0.14018674999999803,
          "durationTicks": 96,
          "midi": 33,
          "name": "A1",
          "ticks": 138528,
          "time": 202.28948025,
          "velocity": 0.3937007874015748
        },
        {
          "duration": 0.28037349999999606,
          "durationTicks": 192,
          "midi": 73,
          "name": "C#5",
          "ticks": 138624,
          "time": 202.429667,
          "velocity": 0.3937007874015748
        },
        {
          "duration": 0.28037349999999606,
          "durationTicks": 192,
          "midi": 85,
          "name": "C#6",
          "ticks": 138624,
          "time": 202.429667,
          "velocity": 0.3937007874015748
        },
        {
          "duration": 0.14018674999999803,
          "durationTicks": 96,
          "midi": 33,
          "name": "A1",
          "ticks": 138720,
          "time": 202.56985375,
          "velocity": 0.3937007874015748
        },
        {
          "duration": 0.28037349999999606,
          "durationTicks": 192,
          "midi": 83,
          "name": "B5",
          "ticks": 138816,
          "time": 202.7100405,
          "velocity": 0.3937007874015748
        },
        {
          "duration": 0.28037349999999606,
          "durationTicks": 192,
          "midi": 71,
          "name": "B4",
          "ticks": 138816,
          "time": 202.7100405,
          "velocity": 0.3937007874015748
        },
        {
          "duration": 0.28037349999999606,
          "durationTicks": 192,
          "midi": 33,
          "name": "A1",
          "ticks": 138816,
          "time": 202.7100405,
          "velocity": 0.3937007874015748
        },
        {
          "duration": 0.28037349999999606,
          "durationTicks": 192,
          "midi": 45,
          "name": "A2",
          "ticks": 138816,
          "time": 202.7100405,
          "velocity": 0.3937007874015748
        },
        {
          "duration": 0.28037349999999606,
          "durationTicks": 192,
          "midi": 40,
          "name": "E2",
          "ticks": 138816,
          "time": 202.7100405,
          "velocity": 0.3937007874015748
        },
        {
          "duration": 0.28037349999999606,
          "durationTicks": 192,
          "midi": 37,
          "name": "C#2",
          "ticks": 138816,
          "time": 202.7100405,
          "velocity": 0.3937007874015748
        },
        {
          "duration": 0.5607470000000205,
          "durationTicks": 384,
          "midi": 68,
          "name": "G#4",
          "ticks": 139008,
          "time": 202.990414,
          "velocity": 0.3937007874015748
        },
        {
          "duration": 0.5607470000000205,
          "durationTicks": 384,
          "midi": 80,
          "name": "G#5",
          "ticks": 139008,
          "time": 202.990414,
          "velocity": 0.3937007874015748
        },
        {
          "duration": 0.2803735000000245,
          "durationTicks": 192,
          "midi": 49,
          "name": "C#3",
          "ticks": 139008,
          "time": 202.990414,
          "velocity": 0.3937007874015748
        },
        {
          "duration": 0.2803735000000245,
          "durationTicks": 192,
          "midi": 37,
          "name": "C#2",
          "ticks": 139008,
          "time": 202.990414,
          "velocity": 0.3937007874015748
        },
        {
          "duration": 0.2803735000000245,
          "durationTicks": 192,
          "midi": 44,
          "name": "G#2",
          "ticks": 139008,
          "time": 202.990414,
          "velocity": 0.3937007874015748
        },
        {
          "duration": 0.2803735000000245,
          "durationTicks": 192,
          "midi": 40,
          "name": "E2",
          "ticks": 139008,
          "time": 202.990414,
          "velocity": 0.3937007874015748
        },
        {
          "duration": 0.14018674999999803,
          "durationTicks": 96,
          "midi": 37,
          "name": "C#2",
          "ticks": 139200,
          "time": 203.2707875,
          "velocity": 0.3937007874015748
        },
        {
          "duration": 0.14018674999999803,
          "durationTicks": 96,
          "midi": 37,
          "name": "C#2",
          "ticks": 139296,
          "time": 203.41097425,
          "velocity": 0.3937007874015748
        },
        {
          "duration": 0.28037349999999606,
          "durationTicks": 192,
          "midi": 66,
          "name": "F#4",
          "ticks": 139392,
          "time": 203.551161,
          "velocity": 0.3937007874015748
        },
        {
          "duration": 0.28037349999999606,
          "durationTicks": 192,
          "midi": 78,
          "name": "F#5",
          "ticks": 139392,
          "time": 203.551161,
          "velocity": 0.3937007874015748
        },
        {
          "duration": 0.14018674999999803,
          "durationTicks": 96,
          "midi": 37,
          "name": "C#2",
          "ticks": 139488,
          "time": 203.69134775,
          "velocity": 0.3937007874015748
        },
        {
          "duration": 0.28037349999999606,
          "durationTicks": 192,
          "midi": 76,
          "name": "E5",
          "ticks": 139584,
          "time": 203.8315345,
          "velocity": 0.3937007874015748
        },
        {
          "duration": 0.28037349999999606,
          "durationTicks": 192,
          "midi": 64,
          "name": "E4",
          "ticks": 139584,
          "time": 203.8315345,
          "velocity": 0.3937007874015748
        },
        {
          "duration": 0.28037349999999606,
          "durationTicks": 192,
          "midi": 49,
          "name": "C#3",
          "ticks": 139584,
          "time": 203.8315345,
          "velocity": 0.3937007874015748
        },
        {
          "duration": 0.28037349999999606,
          "durationTicks": 192,
          "midi": 37,
          "name": "C#2",
          "ticks": 139584,
          "time": 203.8315345,
          "velocity": 0.3937007874015748
        },
        {
          "duration": 0.28037349999999606,
          "durationTicks": 192,
          "midi": 44,
          "name": "G#2",
          "ticks": 139584,
          "time": 203.8315345,
          "velocity": 0.3937007874015748
        },
        {
          "duration": 0.28037349999999606,
          "durationTicks": 192,
          "midi": 40,
          "name": "E2",
          "ticks": 139584,
          "time": 203.8315345,
          "velocity": 0.3937007874015748
        },
        {
          "duration": 0.5607469999999921,
          "durationTicks": 384,
          "midi": 66,
          "name": "F#4",
          "ticks": 139776,
          "time": 204.111908,
          "velocity": 0.3937007874015748
        },
        {
          "duration": 0.5607469999999921,
          "durationTicks": 384,
          "midi": 78,
          "name": "F#5",
          "ticks": 139776,
          "time": 204.111908,
          "velocity": 0.3937007874015748
        },
        {
          "duration": 0.28037349999999606,
          "durationTicks": 192,
          "midi": 42,
          "name": "F#2",
          "ticks": 139776,
          "time": 204.111908,
          "velocity": 0.3937007874015748
        },
        {
          "duration": 0.28037349999999606,
          "durationTicks": 192,
          "midi": 47,
          "name": "B2",
          "ticks": 139776,
          "time": 204.111908,
          "velocity": 0.3937007874015748
        },
        {
          "duration": 0.28037349999999606,
          "durationTicks": 192,
          "midi": 35,
          "name": "B1",
          "ticks": 139776,
          "time": 204.111908,
          "velocity": 0.3937007874015748
        },
        {
          "duration": 0.28037349999999606,
          "durationTicks": 192,
          "midi": 39,
          "name": "D#2",
          "ticks": 139776,
          "time": 204.111908,
          "velocity": 0.3937007874015748
        },
        {
          "duration": 0.14018674999999803,
          "durationTicks": 96,
          "midi": 35,
          "name": "B1",
          "ticks": 139968,
          "time": 204.3922815,
          "velocity": 0.3937007874015748
        },
        {
          "duration": 0.14018674999999803,
          "durationTicks": 96,
          "midi": 35,
          "name": "B1",
          "ticks": 140064,
          "time": 204.53246825,
          "velocity": 0.3937007874015748
        },
        {
          "duration": 0.28037349999999606,
          "durationTicks": 192,
          "midi": 66,
          "name": "F#4",
          "ticks": 140160,
          "time": 204.672655,
          "velocity": 0.3937007874015748
        },
        {
          "duration": 0.28037349999999606,
          "durationTicks": 192,
          "midi": 78,
          "name": "F#5",
          "ticks": 140160,
          "time": 204.672655,
          "velocity": 0.3937007874015748
        },
        {
          "duration": 0.14018674999999803,
          "durationTicks": 96,
          "midi": 35,
          "name": "B1",
          "ticks": 140256,
          "time": 204.81284175,
          "velocity": 0.3937007874015748
        },
        {
          "duration": 0.2803735000000245,
          "durationTicks": 192,
          "midi": 76,
          "name": "E5",
          "ticks": 140352,
          "time": 204.9530285,
          "velocity": 0.3937007874015748
        },
        {
          "duration": 0.2803735000000245,
          "durationTicks": 192,
          "midi": 64,
          "name": "E4",
          "ticks": 140352,
          "time": 204.9530285,
          "velocity": 0.3937007874015748
        },
        {
          "duration": 0.2803735000000245,
          "durationTicks": 192,
          "midi": 47,
          "name": "B2",
          "ticks": 140352,
          "time": 204.9530285,
          "velocity": 0.3937007874015748
        },
        {
          "duration": 0.2803735000000245,
          "durationTicks": 192,
          "midi": 35,
          "name": "B1",
          "ticks": 140352,
          "time": 204.9530285,
          "velocity": 0.3937007874015748
        },
        {
          "duration": 0.2803735000000245,
          "durationTicks": 192,
          "midi": 42,
          "name": "F#2",
          "ticks": 140352,
          "time": 204.9530285,
          "velocity": 0.3937007874015748
        },
        {
          "duration": 0.2803735000000245,
          "durationTicks": 192,
          "midi": 39,
          "name": "D#2",
          "ticks": 140352,
          "time": 204.9530285,
          "velocity": 0.3937007874015748
        },
        {
          "duration": 0.5607469999999921,
          "durationTicks": 384,
          "midi": 73,
          "name": "C#5",
          "ticks": 140544,
          "time": 205.233402,
          "velocity": 0.3937007874015748
        },
        {
          "duration": 0.5607469999999921,
          "durationTicks": 384,
          "midi": 61,
          "name": "C#4",
          "ticks": 140544,
          "time": 205.233402,
          "velocity": 0.3937007874015748
        },
        {
          "duration": 0.28037349999999606,
          "durationTicks": 192,
          "midi": 33,
          "name": "A1",
          "ticks": 140544,
          "time": 205.233402,
          "velocity": 0.3937007874015748
        },
        {
          "duration": 0.28037349999999606,
          "durationTicks": 192,
          "midi": 45,
          "name": "A2",
          "ticks": 140544,
          "time": 205.233402,
          "velocity": 0.3937007874015748
        },
        {
          "duration": 0.28037349999999606,
          "durationTicks": 192,
          "midi": 40,
          "name": "E2",
          "ticks": 140544,
          "time": 205.233402,
          "velocity": 0.3937007874015748
        },
        {
          "duration": 0.28037349999999606,
          "durationTicks": 192,
          "midi": 37,
          "name": "C#2",
          "ticks": 140544,
          "time": 205.233402,
          "velocity": 0.3937007874015748
        },
        {
          "duration": 0.14018674999999803,
          "durationTicks": 96,
          "midi": 33,
          "name": "A1",
          "ticks": 140736,
          "time": 205.5137755,
          "velocity": 0.3937007874015748
        },
        {
          "duration": 0.14018674999999803,
          "durationTicks": 96,
          "midi": 33,
          "name": "A1",
          "ticks": 140832,
          "time": 205.65396225,
          "velocity": 0.3937007874015748
        },
        {
          "duration": 0.28037349999999606,
          "durationTicks": 192,
          "midi": 71,
          "name": "B4",
          "ticks": 140928,
          "time": 205.794149,
          "velocity": 0.3937007874015748
        },
        {
          "duration": 0.28037349999999606,
          "durationTicks": 192,
          "midi": 59,
          "name": "B3",
          "ticks": 140928,
          "time": 205.794149,
          "velocity": 0.3937007874015748
        },
        {
          "duration": 0.14018674999999803,
          "durationTicks": 96,
          "midi": 33,
          "name": "A1",
          "ticks": 141024,
          "time": 205.93433575,
          "velocity": 0.3937007874015748
        },
        {
          "duration": 0.28037349999999606,
          "durationTicks": 192,
          "midi": 61,
          "name": "C#4",
          "ticks": 141120,
          "time": 206.0745225,
          "velocity": 0.3937007874015748
        },
        {
          "duration": 0.28037349999999606,
          "durationTicks": 192,
          "midi": 73,
          "name": "C#5",
          "ticks": 141120,
          "time": 206.0745225,
          "velocity": 0.3937007874015748
        },
        {
          "duration": 0.28037349999999606,
          "durationTicks": 192,
          "midi": 45,
          "name": "A2",
          "ticks": 141120,
          "time": 206.0745225,
          "velocity": 0.3937007874015748
        },
        {
          "duration": 0.28037349999999606,
          "durationTicks": 192,
          "midi": 33,
          "name": "A1",
          "ticks": 141120,
          "time": 206.0745225,
          "velocity": 0.3937007874015748
        },
        {
          "duration": 0.28037349999999606,
          "durationTicks": 192,
          "midi": 40,
          "name": "E2",
          "ticks": 141120,
          "time": 206.0745225,
          "velocity": 0.3937007874015748
        },
        {
          "duration": 0.28037349999999606,
          "durationTicks": 192,
          "midi": 37,
          "name": "C#2",
          "ticks": 141120,
          "time": 206.0745225,
          "velocity": 0.3937007874015748
        },
        {
          "duration": 0.5607469999999921,
          "durationTicks": 384,
          "midi": 64,
          "name": "E4",
          "ticks": 141312,
          "time": 206.354896,
          "velocity": 0.3937007874015748
        },
        {
          "duration": 0.5607469999999921,
          "durationTicks": 384,
          "midi": 76,
          "name": "E5",
          "ticks": 141312,
          "time": 206.354896,
          "velocity": 0.3937007874015748
        },
        {
          "duration": 0.28037349999999606,
          "durationTicks": 192,
          "midi": 37,
          "name": "C#2",
          "ticks": 141312,
          "time": 206.354896,
          "velocity": 0.3937007874015748
        },
        {
          "duration": 0.28037349999999606,
          "durationTicks": 192,
          "midi": 49,
          "name": "C#3",
          "ticks": 141312,
          "time": 206.354896,
          "velocity": 0.3937007874015748
        },
        {
          "duration": 0.28037349999999606,
          "durationTicks": 192,
          "midi": 44,
          "name": "G#2",
          "ticks": 141312,
          "time": 206.354896,
          "velocity": 0.3937007874015748
        },
        {
          "duration": 0.28037349999999606,
          "durationTicks": 192,
          "midi": 40,
          "name": "E2",
          "ticks": 141312,
          "time": 206.354896,
          "velocity": 0.3937007874015748
        },
        {
          "duration": 0.14018674999999803,
          "durationTicks": 96,
          "midi": 37,
          "name": "C#2",
          "ticks": 141504,
          "time": 206.6352695,
          "velocity": 0.3937007874015748
        },
        {
          "duration": 0.14018674999999803,
          "durationTicks": 96,
          "midi": 37,
          "name": "C#2",
          "ticks": 141600,
          "time": 206.77545625,
          "velocity": 0.3937007874015748
        },
        {
          "duration": 0.28037349999999606,
          "durationTicks": 192,
          "midi": 78,
          "name": "F#5",
          "ticks": 141696,
          "time": 206.915643,
          "velocity": 0.3937007874015748
        },
        {
          "duration": 0.28037349999999606,
          "durationTicks": 192,
          "midi": 66,
          "name": "F#4",
          "ticks": 141696,
          "time": 206.915643,
          "velocity": 0.3937007874015748
        },
        {
          "duration": 0.14018674999999803,
          "durationTicks": 96,
          "midi": 37,
          "name": "C#2",
          "ticks": 141792,
          "time": 207.05582975,
          "velocity": 0.3937007874015748
        },
        {
          "duration": 0.2803735000000245,
          "durationTicks": 192,
          "midi": 68,
          "name": "G#4",
          "ticks": 141888,
          "time": 207.19601649999998,
          "velocity": 0.3937007874015748
        },
        {
          "duration": 0.2803735000000245,
          "durationTicks": 192,
          "midi": 80,
          "name": "G#5",
          "ticks": 141888,
          "time": 207.19601649999998,
          "velocity": 0.3937007874015748
        },
        {
          "duration": 0.2803735000000245,
          "durationTicks": 192,
          "midi": 49,
          "name": "C#3",
          "ticks": 141888,
          "time": 207.19601649999998,
          "velocity": 0.3937007874015748
        },
        {
          "duration": 0.2803735000000245,
          "durationTicks": 192,
          "midi": 37,
          "name": "C#2",
          "ticks": 141888,
          "time": 207.19601649999998,
          "velocity": 0.3937007874015748
        },
        {
          "duration": 0.2803735000000245,
          "durationTicks": 192,
          "midi": 44,
          "name": "G#2",
          "ticks": 141888,
          "time": 207.19601649999998,
          "velocity": 0.3937007874015748
        },
        {
          "duration": 0.2803735000000245,
          "durationTicks": 192,
          "midi": 40,
          "name": "E2",
          "ticks": 141888,
          "time": 207.19601649999998,
          "velocity": 0.3937007874015748
        },
        {
          "duration": 0.5607469999999921,
          "durationTicks": 384,
          "midi": 69,
          "name": "A4",
          "ticks": 142080,
          "time": 207.47639,
          "velocity": 0.3937007874015748
        },
        {
          "duration": 0.5607469999999921,
          "durationTicks": 384,
          "midi": 81,
          "name": "A5",
          "ticks": 142080,
          "time": 207.47639,
          "velocity": 0.3937007874015748
        },
        {
          "duration": 0.28037349999999606,
          "durationTicks": 192,
          "midi": 33,
          "name": "A1",
          "ticks": 142080,
          "time": 207.47639,
          "velocity": 0.3937007874015748
        },
        {
          "duration": 0.28037349999999606,
          "durationTicks": 192,
          "midi": 45,
          "name": "A2",
          "ticks": 142080,
          "time": 207.47639,
          "velocity": 0.3937007874015748
        },
        {
          "duration": 0.28037349999999606,
          "durationTicks": 192,
          "midi": 40,
          "name": "E2",
          "ticks": 142080,
          "time": 207.47639,
          "velocity": 0.3937007874015748
        },
        {
          "duration": 0.28037349999999606,
          "durationTicks": 192,
          "midi": 37,
          "name": "C#2",
          "ticks": 142080,
          "time": 207.47639,
          "velocity": 0.3937007874015748
        },
        {
          "duration": 0.14018674999999803,
          "durationTicks": 96,
          "midi": 33,
          "name": "A1",
          "ticks": 142272,
          "time": 207.7567635,
          "velocity": 0.3937007874015748
        },
        {
          "duration": 0.14018674999999803,
          "durationTicks": 96,
          "midi": 33,
          "name": "A1",
          "ticks": 142368,
          "time": 207.89695025,
          "velocity": 0.3937007874015748
        },
        {
          "duration": 0.28037349999999606,
          "durationTicks": 192,
          "midi": 68,
          "name": "G#4",
          "ticks": 142464,
          "time": 208.037137,
          "velocity": 0.3937007874015748
        },
        {
          "duration": 0.28037349999999606,
          "durationTicks": 192,
          "midi": 80,
          "name": "G#5",
          "ticks": 142464,
          "time": 208.037137,
          "velocity": 0.3937007874015748
        },
        {
          "duration": 0.14018674999999803,
          "durationTicks": 96,
          "midi": 33,
          "name": "A1",
          "ticks": 142560,
          "time": 208.17732375,
          "velocity": 0.3937007874015748
        },
        {
          "duration": 0.28037349999999606,
          "durationTicks": 192,
          "midi": 76,
          "name": "E5",
          "ticks": 142656,
          "time": 208.3175105,
          "velocity": 0.3937007874015748
        },
        {
          "duration": 0.28037349999999606,
          "durationTicks": 192,
          "midi": 64,
          "name": "E4",
          "ticks": 142656,
          "time": 208.3175105,
          "velocity": 0.3937007874015748
        },
        {
          "duration": 0.28037349999999606,
          "durationTicks": 192,
          "midi": 45,
          "name": "A2",
          "ticks": 142656,
          "time": 208.3175105,
          "velocity": 0.3937007874015748
        },
        {
          "duration": 0.28037349999999606,
          "durationTicks": 192,
          "midi": 33,
          "name": "A1",
          "ticks": 142656,
          "time": 208.3175105,
          "velocity": 0.3937007874015748
        },
        {
          "duration": 0.28037349999999606,
          "durationTicks": 192,
          "midi": 40,
          "name": "E2",
          "ticks": 142656,
          "time": 208.3175105,
          "velocity": 0.3937007874015748
        },
        {
          "duration": 0.28037349999999606,
          "durationTicks": 192,
          "midi": 37,
          "name": "C#2",
          "ticks": 142656,
          "time": 208.3175105,
          "velocity": 0.3937007874015748
        },
        {
          "duration": 1.6822410000000048,
          "durationTicks": 1152,
          "midi": 78,
          "name": "F#5",
          "ticks": 142848,
          "time": 208.597884,
          "velocity": 0.3937007874015748
        },
        {
          "duration": 1.6822410000000048,
          "durationTicks": 1152,
          "midi": 66,
          "name": "F#4",
          "ticks": 142848,
          "time": 208.597884,
          "velocity": 0.3937007874015748
        },
        {
          "duration": 0.28037349999999606,
          "durationTicks": 192,
          "midi": 35,
          "name": "B1",
          "ticks": 142848,
          "time": 208.597884,
          "velocity": 0.3937007874015748
        },
        {
          "duration": 0.28037349999999606,
          "durationTicks": 192,
          "midi": 47,
          "name": "B2",
          "ticks": 142848,
          "time": 208.597884,
          "velocity": 0.3937007874015748
        },
        {
          "duration": 0.28037349999999606,
          "durationTicks": 192,
          "midi": 42,
          "name": "F#2",
          "ticks": 142848,
          "time": 208.597884,
          "velocity": 0.3937007874015748
        },
        {
          "duration": 0.28037349999999606,
          "durationTicks": 192,
          "midi": 40,
          "name": "E2",
          "ticks": 142848,
          "time": 208.597884,
          "velocity": 0.3937007874015748
        },
        {
          "duration": 0.14018674999999803,
          "durationTicks": 96,
          "midi": 35,
          "name": "B1",
          "ticks": 143040,
          "time": 208.8782575,
          "velocity": 0.3937007874015748
        },
        {
          "duration": 0.14018674999999803,
          "durationTicks": 96,
          "midi": 35,
          "name": "B1",
          "ticks": 143136,
          "time": 209.01844425,
          "velocity": 0.3937007874015748
        },
        {
          "duration": 0.14018674999999803,
          "durationTicks": 96,
          "midi": 35,
          "name": "B1",
          "ticks": 143328,
          "time": 209.29881775,
          "velocity": 0.3937007874015748
        },
        {
          "duration": 0.28037349999999606,
          "durationTicks": 192,
          "midi": 47,
          "name": "B2",
          "ticks": 143424,
          "time": 209.4390045,
          "velocity": 0.3937007874015748
        },
        {
          "duration": 0.28037349999999606,
          "durationTicks": 192,
          "midi": 40,
          "name": "E2",
          "ticks": 143424,
          "time": 209.4390045,
          "velocity": 0.3937007874015748
        },
        {
          "duration": 0.28037349999999606,
          "durationTicks": 192,
          "midi": 42,
          "name": "F#2",
          "ticks": 143424,
          "time": 209.4390045,
          "velocity": 0.3937007874015748
        },
        {
          "duration": 0.28037349999999606,
          "durationTicks": 192,
          "midi": 35,
          "name": "B1",
          "ticks": 143424,
          "time": 209.4390045,
          "velocity": 0.3937007874015748
        },
        {
          "duration": 0.28037349999999606,
          "durationTicks": 192,
          "midi": 35,
          "name": "B1",
          "ticks": 143616,
          "time": 209.719378,
          "velocity": 0.3937007874015748
        },
        {
          "duration": 0.28037349999999606,
          "durationTicks": 192,
          "midi": 47,
          "name": "B2",
          "ticks": 143616,
          "time": 209.719378,
          "velocity": 0.3937007874015748
        },
        {
          "duration": 0.28037349999999606,
          "durationTicks": 192,
          "midi": 42,
          "name": "F#2",
          "ticks": 143616,
          "time": 209.719378,
          "velocity": 0.3937007874015748
        },
        {
          "duration": 0.28037349999999606,
          "durationTicks": 192,
          "midi": 39,
          "name": "D#2",
          "ticks": 143616,
          "time": 209.719378,
          "velocity": 0.3937007874015748
        },
        {
          "duration": 0.14018674999999803,
          "durationTicks": 96,
          "midi": 35,
          "name": "B1",
          "ticks": 143808,
          "time": 209.9997515,
          "velocity": 0.3937007874015748
        },
        {
          "duration": 0.14018674999999803,
          "durationTicks": 96,
          "midi": 35,
          "name": "B1",
          "ticks": 143904,
          "time": 210.13993825,
          "velocity": 0.3937007874015748
        },
        {
          "duration": 0.28037349999999606,
          "durationTicks": 192,
          "midi": 80,
          "name": "G#5",
          "ticks": 144000,
          "time": 210.280125,
          "velocity": 0.3937007874015748
        },
        {
          "duration": 0.28037349999999606,
          "durationTicks": 192,
          "midi": 68,
          "name": "G#4",
          "ticks": 144000,
          "time": 210.280125,
          "velocity": 0.3937007874015748
        },
        {
          "duration": 0.14018674999999803,
          "durationTicks": 96,
          "midi": 35,
          "name": "B1",
          "ticks": 144096,
          "time": 210.42031175,
          "velocity": 0.3937007874015748
        },
        {
          "duration": 0.28037349999999606,
          "durationTicks": 192,
          "midi": 83,
          "name": "B5",
          "ticks": 144192,
          "time": 210.5604985,
          "velocity": 0.3937007874015748
        },
        {
          "duration": 0.28037349999999606,
          "durationTicks": 192,
          "midi": 71,
          "name": "B4",
          "ticks": 144192,
          "time": 210.5604985,
          "velocity": 0.3937007874015748
        },
        {
          "duration": 0.28037349999999606,
          "durationTicks": 192,
          "midi": 47,
          "name": "B2",
          "ticks": 144192,
          "time": 210.5604985,
          "velocity": 0.3937007874015748
        },
        {
          "duration": 0.28037349999999606,
          "durationTicks": 192,
          "midi": 35,
          "name": "B1",
          "ticks": 144192,
          "time": 210.5604985,
          "velocity": 0.3937007874015748
        },
        {
          "duration": 0.28037349999999606,
          "durationTicks": 192,
          "midi": 42,
          "name": "F#2",
          "ticks": 144192,
          "time": 210.5604985,
          "velocity": 0.3937007874015748
        },
        {
          "duration": 0.28037349999999606,
          "durationTicks": 192,
          "midi": 39,
          "name": "D#2",
          "ticks": 144192,
          "time": 210.5604985,
          "velocity": 0.3937007874015748
        },
        {
          "duration": 0.4205602499999941,
          "durationTicks": 288,
          "midi": 85,
          "name": "C#6",
          "ticks": 144384,
          "time": 210.840872,
          "velocity": 0.3937007874015748
        },
        {
          "duration": 0.4205602499999941,
          "durationTicks": 288,
          "midi": 73,
          "name": "C#5",
          "ticks": 144384,
          "time": 210.840872,
          "velocity": 0.3937007874015748
        },
        {
          "duration": 0.28037349999999606,
          "durationTicks": 192,
          "midi": 33,
          "name": "A1",
          "ticks": 144384,
          "time": 210.840872,
          "velocity": 0.3937007874015748
        },
        {
          "duration": 0.28037349999999606,
          "durationTicks": 192,
          "midi": 45,
          "name": "A2",
          "ticks": 144384,
          "time": 210.840872,
          "velocity": 0.3937007874015748
        },
        {
          "duration": 0.28037349999999606,
          "durationTicks": 192,
          "midi": 40,
          "name": "E2",
          "ticks": 144384,
          "time": 210.840872,
          "velocity": 0.3937007874015748
        },
        {
          "duration": 0.28037349999999606,
          "durationTicks": 192,
          "midi": 37,
          "name": "C#2",
          "ticks": 144384,
          "time": 210.840872,
          "velocity": 0.3937007874015748
        },
        {
          "duration": 0.14018674999999803,
          "durationTicks": 96,
          "midi": 33,
          "name": "A1",
          "ticks": 144576,
          "time": 211.1212455,
          "velocity": 0.3937007874015748
        },
        {
          "duration": 0.14018675000002645,
          "durationTicks": 96,
          "midi": 75,
          "name": "D#5",
          "ticks": 144672,
          "time": 211.26143224999998,
          "velocity": 0.3937007874015748
        },
        {
          "duration": 0.14018675000002645,
          "durationTicks": 96,
          "midi": 87,
          "name": "D#6",
          "ticks": 144672,
          "time": 211.26143224999998,
          "velocity": 0.3937007874015748
        },
        {
          "duration": 0.14018675000002645,
          "durationTicks": 96,
          "midi": 33,
          "name": "A1",
          "ticks": 144672,
          "time": 211.26143224999998,
          "velocity": 0.3937007874015748
        },
        {
          "duration": 0.28037349999999606,
          "durationTicks": 192,
          "midi": 73,
          "name": "C#5",
          "ticks": 144768,
          "time": 211.401619,
          "velocity": 0.3937007874015748
        },
        {
          "duration": 0.28037349999999606,
          "durationTicks": 192,
          "midi": 85,
          "name": "C#6",
          "ticks": 144768,
          "time": 211.401619,
          "velocity": 0.3937007874015748
        },
        {
          "duration": 0.14018674999999803,
          "durationTicks": 96,
          "midi": 33,
          "name": "A1",
          "ticks": 144864,
          "time": 211.54180575,
          "velocity": 0.3937007874015748
        },
        {
          "duration": 0.28037349999999606,
          "durationTicks": 192,
          "midi": 83,
          "name": "B5",
          "ticks": 144960,
          "time": 211.6819925,
          "velocity": 0.3937007874015748
        },
        {
          "duration": 0.28037349999999606,
          "durationTicks": 192,
          "midi": 71,
          "name": "B4",
          "ticks": 144960,
          "time": 211.6819925,
          "velocity": 0.3937007874015748
        },
        {
          "duration": 0.28037349999999606,
          "durationTicks": 192,
          "midi": 45,
          "name": "A2",
          "ticks": 144960,
          "time": 211.6819925,
          "velocity": 0.3937007874015748
        },
        {
          "duration": 0.28037349999999606,
          "durationTicks": 192,
          "midi": 33,
          "name": "A1",
          "ticks": 144960,
          "time": 211.6819925,
          "velocity": 0.3937007874015748
        },
        {
          "duration": 0.28037349999999606,
          "durationTicks": 192,
          "midi": 40,
          "name": "E2",
          "ticks": 144960,
          "time": 211.6819925,
          "velocity": 0.3937007874015748
        },
        {
          "duration": 0.28037349999999606,
          "durationTicks": 192,
          "midi": 37,
          "name": "C#2",
          "ticks": 144960,
          "time": 211.6819925,
          "velocity": 0.3937007874015748
        },
        {
          "duration": 0.5607469999999921,
          "durationTicks": 384,
          "midi": 68,
          "name": "G#4",
          "ticks": 145152,
          "time": 211.962366,
          "velocity": 0.3937007874015748
        },
        {
          "duration": 0.5607469999999921,
          "durationTicks": 384,
          "midi": 80,
          "name": "G#5",
          "ticks": 145152,
          "time": 211.962366,
          "velocity": 0.3937007874015748
        },
        {
          "duration": 0.28037349999999606,
          "durationTicks": 192,
          "midi": 37,
          "name": "C#2",
          "ticks": 145152,
          "time": 211.962366,
          "velocity": 0.3937007874015748
        },
        {
          "duration": 0.28037349999999606,
          "durationTicks": 192,
          "midi": 44,
          "name": "G#2",
          "ticks": 145152,
          "time": 211.962366,
          "velocity": 0.3937007874015748
        },
        {
          "duration": 0.28037349999999606,
          "durationTicks": 192,
          "midi": 49,
          "name": "C#3",
          "ticks": 145152,
          "time": 211.962366,
          "velocity": 0.3937007874015748
        },
        {
          "duration": 0.28037349999999606,
          "durationTicks": 192,
          "midi": 40,
          "name": "E2",
          "ticks": 145152,
          "time": 211.962366,
          "velocity": 0.3937007874015748
        },
        {
          "duration": 0.14018674999999803,
          "durationTicks": 96,
          "midi": 37,
          "name": "C#2",
          "ticks": 145344,
          "time": 212.2427395,
          "velocity": 0.3937007874015748
        },
        {
          "duration": 0.14018674999999803,
          "durationTicks": 96,
          "midi": 37,
          "name": "C#2",
          "ticks": 145440,
          "time": 212.38292625,
          "velocity": 0.3937007874015748
        },
        {
          "duration": 0.28037349999999606,
          "durationTicks": 192,
          "midi": 66,
          "name": "F#4",
          "ticks": 145536,
          "time": 212.523113,
          "velocity": 0.3937007874015748
        },
        {
          "duration": 0.28037349999999606,
          "durationTicks": 192,
          "midi": 78,
          "name": "F#5",
          "ticks": 145536,
          "time": 212.523113,
          "velocity": 0.3937007874015748
        },
        {
          "duration": 0.14018674999999803,
          "durationTicks": 96,
          "midi": 37,
          "name": "C#2",
          "ticks": 145632,
          "time": 212.66329975,
          "velocity": 0.3937007874015748
        },
        {
          "duration": 0.28037349999999606,
          "durationTicks": 192,
          "midi": 76,
          "name": "E5",
          "ticks": 145728,
          "time": 212.8034865,
          "velocity": 0.3937007874015748
        },
        {
          "duration": 0.28037349999999606,
          "durationTicks": 192,
          "midi": 64,
          "name": "E4",
          "ticks": 145728,
          "time": 212.8034865,
          "velocity": 0.3937007874015748
        },
        {
          "duration": 0.28037349999999606,
          "durationTicks": 192,
          "midi": 49,
          "name": "C#3",
          "ticks": 145728,
          "time": 212.8034865,
          "velocity": 0.3937007874015748
        },
        {
          "duration": 0.28037349999999606,
          "durationTicks": 192,
          "midi": 37,
          "name": "C#2",
          "ticks": 145728,
          "time": 212.8034865,
          "velocity": 0.3937007874015748
        },
        {
          "duration": 0.28037349999999606,
          "durationTicks": 192,
          "midi": 44,
          "name": "G#2",
          "ticks": 145728,
          "time": 212.8034865,
          "velocity": 0.3937007874015748
        },
        {
          "duration": 0.28037349999999606,
          "durationTicks": 192,
          "midi": 40,
          "name": "E2",
          "ticks": 145728,
          "time": 212.8034865,
          "velocity": 0.3937007874015748
        },
        {
          "duration": 0.5607470000000205,
          "durationTicks": 384,
          "midi": 66,
          "name": "F#4",
          "ticks": 145920,
          "time": 213.08386,
          "velocity": 0.3937007874015748
        },
        {
          "duration": 0.5607470000000205,
          "durationTicks": 384,
          "midi": 78,
          "name": "F#5",
          "ticks": 145920,
          "time": 213.08386,
          "velocity": 0.3937007874015748
        },
        {
          "duration": 0.2803735000000245,
          "durationTicks": 192,
          "midi": 35,
          "name": "B1",
          "ticks": 145920,
          "time": 213.08386,
          "velocity": 0.3937007874015748
        },
        {
          "duration": 0.2803735000000245,
          "durationTicks": 192,
          "midi": 47,
          "name": "B2",
          "ticks": 145920,
          "time": 213.08386,
          "velocity": 0.3937007874015748
        },
        {
          "duration": 0.2803735000000245,
          "durationTicks": 192,
          "midi": 42,
          "name": "F#2",
          "ticks": 145920,
          "time": 213.08386,
          "velocity": 0.3937007874015748
        },
        {
          "duration": 0.2803735000000245,
          "durationTicks": 192,
          "midi": 39,
          "name": "D#2",
          "ticks": 145920,
          "time": 213.08386,
          "velocity": 0.3937007874015748
        },
        {
          "duration": 0.14018674999999803,
          "durationTicks": 96,
          "midi": 35,
          "name": "B1",
          "ticks": 146112,
          "time": 213.3642335,
          "velocity": 0.3937007874015748
        },
        {
          "duration": 0.14018674999999803,
          "durationTicks": 96,
          "midi": 80,
          "name": "G#5",
          "ticks": 146208,
          "time": 213.50442025,
          "velocity": 0.3937007874015748
        },
        {
          "duration": 0.14018674999999803,
          "durationTicks": 96,
          "midi": 68,
          "name": "G#4",
          "ticks": 146208,
          "time": 213.50442025,
          "velocity": 0.3937007874015748
        },
        {
          "duration": 0.14018674999999803,
          "durationTicks": 96,
          "midi": 35,
          "name": "B1",
          "ticks": 146208,
          "time": 213.50442025,
          "velocity": 0.3937007874015748
        },
        {
          "duration": 0.28037349999999606,
          "durationTicks": 192,
          "midi": 78,
          "name": "F#5",
          "ticks": 146304,
          "time": 213.644607,
          "velocity": 0.3937007874015748
        },
        {
          "duration": 0.28037349999999606,
          "durationTicks": 192,
          "midi": 66,
          "name": "F#4",
          "ticks": 146304,
          "time": 213.644607,
          "velocity": 0.3937007874015748
        },
        {
          "duration": 0.14018674999999803,
          "durationTicks": 96,
          "midi": 35,
          "name": "B1",
          "ticks": 146400,
          "time": 213.78479375,
          "velocity": 0.3937007874015748
        },
        {
          "duration": 0.28037349999999606,
          "durationTicks": 192,
          "midi": 76,
          "name": "E5",
          "ticks": 146496,
          "time": 213.9249805,
          "velocity": 0.3937007874015748
        },
        {
          "duration": 0.28037349999999606,
          "durationTicks": 192,
          "midi": 64,
          "name": "E4",
          "ticks": 146496,
          "time": 213.9249805,
          "velocity": 0.3937007874015748
        },
        {
          "duration": 0.28037349999999606,
          "durationTicks": 192,
          "midi": 47,
          "name": "B2",
          "ticks": 146496,
          "time": 213.9249805,
          "velocity": 0.3937007874015748
        },
        {
          "duration": 0.28037349999999606,
          "durationTicks": 192,
          "midi": 35,
          "name": "B1",
          "ticks": 146496,
          "time": 213.9249805,
          "velocity": 0.3937007874015748
        },
        {
          "duration": 0.28037349999999606,
          "durationTicks": 192,
          "midi": 42,
          "name": "F#2",
          "ticks": 146496,
          "time": 213.9249805,
          "velocity": 0.3937007874015748
        },
        {
          "duration": 0.28037349999999606,
          "durationTicks": 192,
          "midi": 39,
          "name": "D#2",
          "ticks": 146496,
          "time": 213.9249805,
          "velocity": 0.3937007874015748
        },
        {
          "duration": 0.5607469999999921,
          "durationTicks": 384,
          "midi": 73,
          "name": "C#5",
          "ticks": 146688,
          "time": 214.205354,
          "velocity": 0.3937007874015748
        },
        {
          "duration": 0.5607469999999921,
          "durationTicks": 384,
          "midi": 61,
          "name": "C#4",
          "ticks": 146688,
          "time": 214.205354,
          "velocity": 0.3937007874015748
        },
        {
          "duration": 0.28037349999999606,
          "durationTicks": 192,
          "midi": 30,
          "name": "F#1",
          "ticks": 146688,
          "time": 214.205354,
          "velocity": 0.3937007874015748
        },
        {
          "duration": 0.28037349999999606,
          "durationTicks": 192,
          "midi": 37,
          "name": "C#2",
          "ticks": 146688,
          "time": 214.205354,
          "velocity": 0.3937007874015748
        },
        {
          "duration": 0.28037349999999606,
          "durationTicks": 192,
          "midi": 42,
          "name": "F#2",
          "ticks": 146688,
          "time": 214.205354,
          "velocity": 0.3937007874015748
        },
        {
          "duration": 0.28037349999999606,
          "durationTicks": 192,
          "midi": 33,
          "name": "A1",
          "ticks": 146688,
          "time": 214.205354,
          "velocity": 0.3937007874015748
        },
        {
          "duration": 0.14018674999999803,
          "durationTicks": 96,
          "midi": 30,
          "name": "F#1",
          "ticks": 146880,
          "time": 214.4857275,
          "velocity": 0.3937007874015748
        },
        {
          "duration": 0.14018674999999803,
          "durationTicks": 96,
          "midi": 30,
          "name": "F#1",
          "ticks": 146976,
          "time": 214.62591425,
          "velocity": 0.3937007874015748
        },
        {
          "duration": 0.28037349999999606,
          "durationTicks": 192,
          "midi": 71,
          "name": "B4",
          "ticks": 147072,
          "time": 214.766101,
          "velocity": 0.3937007874015748
        },
        {
          "duration": 0.28037349999999606,
          "durationTicks": 192,
          "midi": 59,
          "name": "B3",
          "ticks": 147072,
          "time": 214.766101,
          "velocity": 0.3937007874015748
        },
        {
          "duration": 0.14018674999999803,
          "durationTicks": 96,
          "midi": 30,
          "name": "F#1",
          "ticks": 147168,
          "time": 214.90628775,
          "velocity": 0.3937007874015748
        },
        {
          "duration": 0.28037349999999606,
          "durationTicks": 192,
          "midi": 61,
          "name": "C#4",
          "ticks": 147264,
          "time": 215.0464745,
          "velocity": 0.3937007874015748
        },
        {
          "duration": 0.28037349999999606,
          "durationTicks": 192,
          "midi": 73,
          "name": "C#5",
          "ticks": 147264,
          "time": 215.0464745,
          "velocity": 0.3937007874015748
        },
        {
          "duration": 0.28037349999999606,
          "durationTicks": 192,
          "midi": 30,
          "name": "F#1",
          "ticks": 147264,
          "time": 215.0464745,
          "velocity": 0.3937007874015748
        },
        {
          "duration": 0.28037349999999606,
          "durationTicks": 192,
          "midi": 37,
          "name": "C#2",
          "ticks": 147264,
          "time": 215.0464745,
          "velocity": 0.3937007874015748
        },
        {
          "duration": 0.28037349999999606,
          "durationTicks": 192,
          "midi": 42,
          "name": "F#2",
          "ticks": 147264,
          "time": 215.0464745,
          "velocity": 0.3937007874015748
        },
        {
          "duration": 0.28037349999999606,
          "durationTicks": 192,
          "midi": 33,
          "name": "A1",
          "ticks": 147264,
          "time": 215.0464745,
          "velocity": 0.3937007874015748
        },
        {
          "duration": 0.5607470000000205,
          "durationTicks": 384,
          "midi": 76,
          "name": "E5",
          "ticks": 147456,
          "time": 215.32684799999998,
          "velocity": 0.3937007874015748
        },
        {
          "duration": 0.5607470000000205,
          "durationTicks": 384,
          "midi": 64,
          "name": "E4",
          "ticks": 147456,
          "time": 215.32684799999998,
          "velocity": 0.3937007874015748
        },
        {
          "duration": 0.2803735000000245,
          "durationTicks": 192,
          "midi": 33,
          "name": "A1",
          "ticks": 147456,
          "time": 215.32684799999998,
          "velocity": 0.3937007874015748
        },
        {
          "duration": 0.2803735000000245,
          "durationTicks": 192,
          "midi": 40,
          "name": "E2",
          "ticks": 147456,
          "time": 215.32684799999998,
          "velocity": 0.3937007874015748
        },
        {
          "duration": 0.2803735000000245,
          "durationTicks": 192,
          "midi": 45,
          "name": "A2",
          "ticks": 147456,
          "time": 215.32684799999998,
          "velocity": 0.3937007874015748
        },
        {
          "duration": 0.2803735000000245,
          "durationTicks": 192,
          "midi": 37,
          "name": "C#2",
          "ticks": 147456,
          "time": 215.32684799999998,
          "velocity": 0.3937007874015748
        },
        {
          "duration": 0.14018674999999803,
          "durationTicks": 96,
          "midi": 33,
          "name": "A1",
          "ticks": 147648,
          "time": 215.6072215,
          "velocity": 0.3937007874015748
        },
        {
          "duration": 0.14018674999999803,
          "durationTicks": 96,
          "midi": 33,
          "name": "A1",
          "ticks": 147744,
          "time": 215.74740825,
          "velocity": 0.3937007874015748
        },
        {
          "duration": 0.28037349999999606,
          "durationTicks": 192,
          "midi": 78,
          "name": "F#5",
          "ticks": 147840,
          "time": 215.887595,
          "velocity": 0.3937007874015748
        },
        {
          "duration": 0.28037349999999606,
          "durationTicks": 192,
          "midi": 66,
          "name": "F#4",
          "ticks": 147840,
          "time": 215.887595,
          "velocity": 0.3937007874015748
        },
        {
          "duration": 0.14018674999999803,
          "durationTicks": 96,
          "midi": 33,
          "name": "A1",
          "ticks": 147936,
          "time": 216.02778175,
          "velocity": 0.3937007874015748
        },
        {
          "duration": 0.28037349999999606,
          "durationTicks": 192,
          "midi": 68,
          "name": "G#4",
          "ticks": 148032,
          "time": 216.1679685,
          "velocity": 0.3937007874015748
        },
        {
          "duration": 0.28037349999999606,
          "durationTicks": 192,
          "midi": 80,
          "name": "G#5",
          "ticks": 148032,
          "time": 216.1679685,
          "velocity": 0.3937007874015748
        },
        {
          "duration": 0.28037349999999606,
          "durationTicks": 192,
          "midi": 45,
          "name": "A2",
          "ticks": 148032,
          "time": 216.1679685,
          "velocity": 0.3937007874015748
        },
        {
          "duration": 0.28037349999999606,
          "durationTicks": 192,
          "midi": 33,
          "name": "A1",
          "ticks": 148032,
          "time": 216.1679685,
          "velocity": 0.3937007874015748
        },
        {
          "duration": 0.28037349999999606,
          "durationTicks": 192,
          "midi": 40,
          "name": "E2",
          "ticks": 148032,
          "time": 216.1679685,
          "velocity": 0.3937007874015748
        },
        {
          "duration": 0.28037349999999606,
          "durationTicks": 192,
          "midi": 37,
          "name": "C#2",
          "ticks": 148032,
          "time": 216.1679685,
          "velocity": 0.3937007874015748
        },
        {
          "duration": 0.5607469999999921,
          "durationTicks": 384,
          "midi": 66,
          "name": "F#4",
          "ticks": 148224,
          "time": 216.448342,
          "velocity": 0.3937007874015748
        },
        {
          "duration": 0.5607469999999921,
          "durationTicks": 384,
          "midi": 78,
          "name": "F#5",
          "ticks": 148224,
          "time": 216.448342,
          "velocity": 0.3937007874015748
        },
        {
          "duration": 0.28037349999999606,
          "durationTicks": 192,
          "midi": 35,
          "name": "B1",
          "ticks": 148224,
          "time": 216.448342,
          "velocity": 0.3937007874015748
        },
        {
          "duration": 0.28037349999999606,
          "durationTicks": 192,
          "midi": 47,
          "name": "B2",
          "ticks": 148224,
          "time": 216.448342,
          "velocity": 0.3937007874015748
        },
        {
          "duration": 0.28037349999999606,
          "durationTicks": 192,
          "midi": 42,
          "name": "F#2",
          "ticks": 148224,
          "time": 216.448342,
          "velocity": 0.3937007874015748
        },
        {
          "duration": 0.28037349999999606,
          "durationTicks": 192,
          "midi": 39,
          "name": "D#2",
          "ticks": 148224,
          "time": 216.448342,
          "velocity": 0.3937007874015748
        },
        {
          "duration": 0.14018674999999803,
          "durationTicks": 96,
          "midi": 35,
          "name": "B1",
          "ticks": 148416,
          "time": 216.7287155,
          "velocity": 0.3937007874015748
        },
        {
          "duration": 0.14018674999999803,
          "durationTicks": 96,
          "midi": 35,
          "name": "B1",
          "ticks": 148512,
          "time": 216.86890225,
          "velocity": 0.3937007874015748
        },
        {
          "duration": 0.28037349999999606,
          "durationTicks": 192,
          "midi": 64,
          "name": "E4",
          "ticks": 148608,
          "time": 217.009089,
          "velocity": 0.3937007874015748
        },
        {
          "duration": 0.28037349999999606,
          "durationTicks": 192,
          "midi": 76,
          "name": "E5",
          "ticks": 148608,
          "time": 217.009089,
          "velocity": 0.3937007874015748
        },
        {
          "duration": 0.14018674999999803,
          "durationTicks": 96,
          "midi": 35,
          "name": "B1",
          "ticks": 148704,
          "time": 217.14927575,
          "velocity": 0.3937007874015748
        },
        {
          "duration": 0.2803735000000245,
          "durationTicks": 192,
          "midi": 61,
          "name": "C#4",
          "ticks": 148800,
          "time": 217.28946249999998,
          "velocity": 0.3937007874015748
        },
        {
          "duration": 0.2803735000000245,
          "durationTicks": 192,
          "midi": 73,
          "name": "C#5",
          "ticks": 148800,
          "time": 217.28946249999998,
          "velocity": 0.3937007874015748
        },
        {
          "duration": 0.2803735000000245,
          "durationTicks": 192,
          "midi": 47,
          "name": "B2",
          "ticks": 148800,
          "time": 217.28946249999998,
          "velocity": 0.3937007874015748
        },
        {
          "duration": 0.2803735000000245,
          "durationTicks": 192,
          "midi": 35,
          "name": "B1",
          "ticks": 148800,
          "time": 217.28946249999998,
          "velocity": 0.3937007874015748
        },
        {
          "duration": 0.2803735000000245,
          "durationTicks": 192,
          "midi": 42,
          "name": "F#2",
          "ticks": 148800,
          "time": 217.28946249999998,
          "velocity": 0.3937007874015748
        },
        {
          "duration": 0.2803735000000245,
          "durationTicks": 192,
          "midi": 39,
          "name": "D#2",
          "ticks": 148800,
          "time": 217.28946249999998,
          "velocity": 0.3937007874015748
        },
        {
          "duration": 2.242987999999997,
          "durationTicks": 1536,
          "midi": 76,
          "name": "E5",
          "ticks": 148992,
          "time": 217.569836,
          "velocity": 0.3937007874015748
        },
        {
          "duration": 2.242987999999997,
          "durationTicks": 1536,
          "midi": 64,
          "name": "E4",
          "ticks": 148992,
          "time": 217.569836,
          "velocity": 0.3937007874015748
        },
        {
          "duration": 2.242987999999997,
          "durationTicks": 1536,
          "midi": 37,
          "name": "C#2",
          "ticks": 148992,
          "time": 217.569836,
          "velocity": 0.3937007874015748
        },
        {
          "duration": 2.242987999999997,
          "durationTicks": 1536,
          "midi": 49,
          "name": "C#3",
          "ticks": 148992,
          "time": 217.569836,
          "velocity": 0.3937007874015748
        },
        {
          "duration": 2.242987999999997,
          "durationTicks": 1536,
          "midi": 44,
          "name": "G#2",
          "ticks": 148992,
          "time": 217.569836,
          "velocity": 0.3937007874015748
        },
        {
          "duration": 2.242987999999997,
          "durationTicks": 1536,
          "midi": 40,
          "name": "E2",
          "ticks": 148992,
          "time": 217.569836,
          "velocity": 0.3937007874015748
        }
      ],
      "endOfTrackTicks": 150528
    }
  ]
}